<?xml version="1.0" encoding="UTF-8" standalone="no"?>
<!DOCTYPE svg PUBLIC "-//W3C//DTD SVG 1.1//EN"
 "http://www.w3.org/Graphics/SVG/1.1/DTD/svg11.dtd">
<!-- Generated by graphviz version 2.36.0 (20140111.2315)
 -->
<!-- Title: Payment Pages: 1 -->
<svg width="1844pt" height="912pt"
 viewBox="0.00 0.00 1844.00 912.00" xmlns="http://www.w3.org/2000/svg" xmlns:xlink="http://www.w3.org/1999/xlink">
<g id="graph0" class="graph" transform="scale(1 1) rotate(0) translate(4 908)">
<title>Payment</title>
<polygon fill="white" stroke="none" points="-4,4 -4,-908 1840,-908 1840,4 -4,4"/>
<g id="clust1" class="cluster"><title>cluster_0</title>
<polygon fill="none" stroke="black" points="1159,-821 1159,-896 1436,-896 1436,-821 1159,-821"/>
<text text-anchor="middle" x="1297.5" y="-880.8" font-family="Times,serif" font-size="14.00">BIG_BANG</text>
</g>
<g id="clust2" class="cluster"><title>cluster_1</title>
<polygon fill="none" stroke="black" points="599,-550 599,-801 1215,-801 1215,-550 599,-550"/>
<text text-anchor="middle" x="907" y="-785.8" font-family="Times,serif" font-size="14.00">AUTHORIZE</text>
</g>
<g id="clust3" class="cluster"><title>cluster_2</title>
<polygon fill="none" stroke="black" points="59,-279 59,-530 679,-530 679,-279 59,-279"/>
<text text-anchor="middle" x="369" y="-514.8" font-family="Times,serif" font-size="14.00">CAPTURE</text>
</g>
<g id="clust4" class="cluster"><title>cluster_3</title>
<polygon fill="none" stroke="black" points="1190,-279 1190,-530 1828,-530 1828,-279 1190,-279"/>
<text text-anchor="middle" x="1509" y="-514.8" font-family="Times,serif" font-size="14.00">PURCHASE</text>
</g>
<g id="clust5" class="cluster"><title>cluster_4</title>
<polygon fill="none" stroke="black" points="8,-8 8,-259 597,-259 597,-8 8,-8"/>
<text text-anchor="middle" x="302.5" y="-243.8" font-family="Times,serif" font-size="14.00">REFUND</text>
</g>
<g id="clust6" class="cluster"><title>cluster_5</title>
<polygon fill="none" stroke="black" points="1264,-550 1264,-801 1818,-801 1818,-550 1264,-550"/>
<text text-anchor="middle" x="1541" y="-785.8" font-family="Times,serif" font-size="14.00">CREDIT</text>
</g>
<g id="clust7" class="cluster"><title>cluster_6</title>
<polygon fill="none" stroke="black" points="687,-279 687,-530 1182,-530 1182,-279 687,-279"/>
<text text-anchor="middle" x="934.5" y="-514.8" font-family="Times,serif" font-size="14.00">VOID</text>
</g>
<g id="clust8" class="cluster"><title>cluster_7</title>
<polygon fill="none" stroke="black" points="605,-96 605,-259 1331,-259 1331,-96 605,-96"/>
<text text-anchor="middle" x="968" y="-243.8" font-family="Times,serif" font-size="14.00">CHARGEBACK</text>
</g>
<!-- node_0 -->
<g id="node1" class="node"><title>node_0</title>
<ellipse fill="none" stroke="black" cx="1244" cy="-847" rx="77.0154" ry="18"/>
<text text-anchor="middle" x="1244" y="-843.3" font-family="Times,serif" font-size="14.00">BIG_BANG_INIT</text>
</g>
<!-- node_0&#45;&gt;node_0 -->
<g id="edge1" class="edge"><title>node_0&#45;&gt;node_0</title>
<path fill="none" stroke="green" d="M1316.49,-853.379C1329.72,-852.572 1339,-850.445 1339,-847 1339,-844.524 1334.21,-842.729 1326.59,-841.615"/>
<polygon fill="green" stroke="green" points="1326.78,-838.117 1316.49,-840.621 1326.1,-845.083 1326.78,-838.117"/>
<text text-anchor="start" x="1339" y="-844.3" font-family="Times,serif" font-size="14.00">OP_DUMMY</text>
<text text-anchor="start" x="1418" y="-844.3" font-family="Times,serif" baseline-shift="sub" font-size="14.00">|S</text>
</g>
<!-- node_1 -->
<g id="node2" class="node"><title>node_1</title>
<ellipse fill="grey" stroke="grey" cx="977" cy="-752" rx="57.2927" ry="18"/>
<text text-anchor="middle" x="977" y="-748.3" font-family="Times,serif" font-size="14.00">AUTH_INIT</text>
</g>
<!-- node_0&#45;&gt;node_1 -->
<g id="edge47" class="edge"><title>node_0&#45;&gt;node_1</title>
<path fill="none" stroke="black" stroke-dasharray="1,5" d="M1202.87,-831.673C1154.46,-814.811 1074.26,-786.878 1023.6,-769.231"/>
<polygon fill="black" stroke="black" points="1024.47,-765.83 1013.88,-765.845 1022.17,-772.44 1024.47,-765.83"/>
</g>
<!-- node_11 -->
<g id="node12" class="node"><title>node_11</title>
<ellipse fill="grey" stroke="grey" cx="1357" cy="-481" rx="78.4642" ry="18"/>
<text text-anchor="middle" x="1357" y="-477.3" font-family="Times,serif" font-size="14.00">PURCHASE_INIT</text>
</g>
<!-- node_0&#45;&gt;node_11 -->
<g id="edge48" class="edge"><title>node_0&#45;&gt;node_11</title>
<path fill="none" stroke="black" stroke-dasharray="1,5" d="M1244,-828.859C1244,-810.199 1244,-779.479 1244,-753 1244,-753 1244,-753 1244,-575 1244,-540.001 1276.72,-515.74 1306.94,-500.794"/>
<polygon fill="black" stroke="black" points="1308.63,-503.867 1316.2,-496.454 1305.66,-497.529 1308.63,-503.867"/>
</g>
<!-- node_21 -->
<g id="node22" class="node"><title>node_21</title>
<ellipse fill="grey" stroke="grey" cx="1409" cy="-752" rx="64.0172" ry="18"/>
<text text-anchor="middle" x="1409" y="-748.3" font-family="Times,serif" font-size="14.00">CREDIT_INIT</text>
</g>
<!-- node_0&#45;&gt;node_21 -->
<g id="edge49" class="edge"><title>node_0&#45;&gt;node_21</title>
<path fill="none" stroke="black" stroke-dasharray="1,5" d="M1271.99,-830.224C1299.74,-814.585 1342.37,-790.553 1372.71,-773.455"/>
<polygon fill="black" stroke="black" points="1374.7,-776.348 1381.7,-768.389 1371.27,-770.25 1374.7,-776.348"/>
</g>
<!-- node_2 -->
<g id="node3" class="node"><title>node_2</title>
<ellipse fill="none" stroke="black" cx="981" cy="-664" rx="77.4897" ry="18"/>
<text text-anchor="middle" x="981" y="-660.3" font-family="Times,serif" font-size="14.00">AUTH_PENDING</text>
</g>
<!-- node_1&#45;&gt;node_2 -->
<g id="edge4" class="edge"><title>node_1&#45;&gt;node_2</title>
<path fill="none" stroke="black" d="M977.053,-733.99C977.155,-724.07 977.405,-711.32 978,-700 978.135,-697.442 978.306,-694.781 978.498,-692.121"/>
<polygon fill="black" stroke="black" points="981.993,-692.324 979.31,-682.074 975.015,-691.76 981.993,-692.324"/>
<text text-anchor="start" x="978" y="-705.3" font-family="Times,serif" font-size="14.00">OP_AUTHORIZE</text>
<text text-anchor="start" x="1080" y="-705.3" font-family="Times,serif" baseline-shift="sub" font-size="14.00">|P</text>
</g>
<!-- node_3 -->
<g id="node4" class="node"><title>node_3</title>
<ellipse fill="grey" stroke="grey" cx="844" cy="-576" rx="77.0154" ry="18"/>
<text text-anchor="middle" x="844" y="-572.3" font-family="Times,serif" font-size="14.00">AUTH_SUCCESS</text>
</g>
<!-- node_1&#45;&gt;node_3 -->
<g id="edge2" class="edge"><title>node_1&#45;&gt;node_3</title>
<path fill="none" stroke="green" d="M925.199,-744.305C863.473,-732.998 765.357,-703.41 739,-628 736.654,-621.287 734.842,-617.769 739,-612 746.447,-601.668 757.076,-594.34 768.741,-589.153"/>
<polygon fill="green" stroke="green" points="770.231,-592.329 778.277,-585.435 767.689,-585.807 770.231,-592.329"/>
<text text-anchor="start" x="776" y="-661.3" font-family="Times,serif" font-size="14.00">OP_AUTHORIZE</text>
<text text-anchor="start" x="878" y="-661.3" font-family="Times,serif" baseline-shift="sub" font-size="14.00">|S</text>
</g>
<!-- node_4 -->
<g id="node5" class="node"><title>node_4</title>
<ellipse fill="grey" stroke="grey" cx="678" cy="-576" rx="70.2668" ry="18"/>
<text text-anchor="middle" x="678" y="-572.3" font-family="Times,serif" font-size="14.00">AUTH_FAILED</text>
</g>
<!-- node_1&#45;&gt;node_4 -->
<g id="edge3" class="edge"><title>node_1&#45;&gt;node_4</title>
<path fill="none" stroke="red" d="M921.217,-748.152C833.263,-742.362 668.664,-725.816 633,-682 613.401,-657.921 634.598,-624.028 654.027,-601.327"/>
<polygon fill="red" stroke="red" points="656.701,-603.588 660.755,-593.799 651.482,-598.923 656.701,-603.588"/>
<text text-anchor="start" x="633" y="-661.3" font-family="Times,serif" font-size="14.00">OP_AUTHORIZE</text>
<text text-anchor="start" x="735" y="-661.3" font-family="Times,serif" baseline-shift="sub" font-size="14.00">|F</text>
</g>
<!-- node_5 -->
<g id="node6" class="node"><title>node_5</title>
<ellipse fill="grey" stroke="grey" cx="1106" cy="-576" rx="80.389" ry="18"/>
<text text-anchor="middle" x="1106" y="-572.3" font-family="Times,serif" font-size="14.00">AUTH_ERRORED</text>
</g>
<!-- node_1&#45;&gt;node_5 -->
<g id="edge8" class="edge"><title>node_1&#45;&gt;node_5</title>
<path fill="none" stroke="red" d="M1029.43,-744.717C1050.41,-739.86 1073.47,-731.252 1090,-716 1114.62,-693.275 1097.89,-672.804 1118,-646 1125.79,-635.617 1135.31,-639.669 1141,-628 1145.49,-618.782 1141.76,-609.346 1135.32,-601.136"/>
<polygon fill="red" stroke="red" points="1137.83,-598.694 1128.49,-593.687 1132.67,-603.424 1137.83,-598.694"/>
<text text-anchor="start" x="1118" y="-661.3" font-family="Times,serif" font-size="14.00">OP_AUTHORIZE</text>
<text text-anchor="start" x="1220" y="-661.3" font-family="Times,serif" baseline-shift="sub" font-size="14.00">|E</text>
</g>
<!-- node_2&#45;&gt;node_3 -->
<g id="edge5" class="edge"><title>node_2&#45;&gt;node_3</title>
<path fill="none" stroke="green" d="M937.881,-648.961C923.939,-643.467 908.789,-636.436 896,-628 884.785,-620.602 873.922,-610.56 865.051,-601.342"/>
<polygon fill="green" stroke="green" points="867.476,-598.81 858.103,-593.87 862.349,-603.577 867.476,-598.81"/>
<text text-anchor="start" x="896" y="-617.3" font-family="Times,serif" font-size="14.00">OP_AUTHORIZE</text>
<text text-anchor="start" x="998" y="-617.3" font-family="Times,serif" baseline-shift="sub" font-size="14.00">|S</text>
</g>
<!-- node_2&#45;&gt;node_4 -->
<g id="edge6" class="edge"><title>node_2&#45;&gt;node_4</title>
<path fill="none" stroke="red" d="M923.154,-651.929C911.843,-649.872 900.061,-647.805 889,-646 832.736,-636.819 815.683,-647.185 762,-628 742.795,-621.137 723.21,-609.563 707.788,-599.174"/>
<polygon fill="red" stroke="red" points="709.435,-596.058 699.222,-593.239 705.448,-601.812 709.435,-596.058"/>
<text text-anchor="start" x="762" y="-617.3" font-family="Times,serif" font-size="14.00">OP_AUTHORIZE</text>
<text text-anchor="start" x="864" y="-617.3" font-family="Times,serif" baseline-shift="sub" font-size="14.00">|F</text>
</g>
<!-- node_2&#45;&gt;node_5 -->
<g id="edge7" class="edge"><title>node_2&#45;&gt;node_5</title>
<path fill="none" stroke="red" d="M993.889,-646.231C1002.85,-635.416 1015.55,-621.624 1029,-612 1037.51,-605.912 1047.24,-600.503 1056.86,-595.865"/>
<polygon fill="red" stroke="red" points="1058.38,-599.017 1066.01,-591.658 1055.46,-592.658 1058.38,-599.017"/>
<text text-anchor="start" x="1029" y="-617.3" font-family="Times,serif" font-size="14.00">OP_AUTHORIZE</text>
<text text-anchor="start" x="1131" y="-617.3" font-family="Times,serif" baseline-shift="sub" font-size="14.00">|E</text>
</g>
<!-- node_6 -->
<g id="node7" class="node"><title>node_6</title>
<ellipse fill="grey" stroke="grey" cx="378" cy="-481" rx="72.192" ry="18"/>
<text text-anchor="middle" x="378" y="-477.3" font-family="Times,serif" font-size="14.00">CAPTURE_INIT</text>
</g>
<!-- node_3&#45;&gt;node_6 -->
<g id="edge50" class="edge"><title>node_3&#45;&gt;node_6</title>
<path fill="none" stroke="black" stroke-dasharray="1,5" d="M799.523,-561.271C785.948,-557.338 770.929,-553.242 757,-550 650.447,-525.2 525.243,-504.319 448.778,-492.481"/>
<polygon fill="black" stroke="black" points="449.195,-489.004 438.779,-490.941 448.13,-495.922 449.195,-489.004"/>
</g>
<!-- node_26 -->
<g id="node27" class="node"><title>node_26</title>
<ellipse fill="grey" stroke="grey" cx="844" cy="-481" rx="54.3924" ry="18"/>
<text text-anchor="middle" x="844" y="-477.3" font-family="Times,serif" font-size="14.00">VOID_INIT</text>
</g>
<!-- node_3&#45;&gt;node_26 -->
<g id="edge51" class="edge"><title>node_3&#45;&gt;node_26</title>
<path fill="none" stroke="black" stroke-dasharray="1,5" d="M844,-557.942C844,-544.394 844,-525.18 844,-509.469"/>
<polygon fill="black" stroke="black" points="847.5,-509.264 844,-499.264 840.5,-509.264 847.5,-509.264"/>
</g>
<!-- node_7 -->
<g id="node8" class="node"><title>node_7</title>
<ellipse fill="none" stroke="black" cx="313" cy="-393" rx="93.3873" ry="18"/>
<text text-anchor="middle" x="313" y="-389.3" font-family="Times,serif" font-size="14.00">CAPTURE_PENDING</text>
</g>
<!-- node_6&#45;&gt;node_7 -->
<g id="edge11" class="edge"><title>node_6&#45;&gt;node_7</title>
<path fill="none" stroke="black" d="M359.019,-463.478C353.198,-457.923 347.013,-451.482 342,-445 336.115,-437.39 330.625,-428.452 326.039,-420.203"/>
<polygon fill="black" stroke="black" points="329.075,-418.459 321.273,-411.29 322.902,-421.759 329.075,-418.459"/>
<text text-anchor="start" x="342" y="-434.3" font-family="Times,serif" font-size="14.00">OP_CAPTURE</text>
<text text-anchor="start" x="428" y="-434.3" font-family="Times,serif" baseline-shift="sub" font-size="14.00">|P</text>
</g>
<!-- node_8 -->
<g id="node9" class="node"><title>node_8</title>
<ellipse fill="grey" stroke="grey" cx="160" cy="-305" rx="92.413" ry="18"/>
<text text-anchor="middle" x="160" y="-301.3" font-family="Times,serif" font-size="14.00">CAPTURE_SUCCESS</text>
</g>
<!-- node_6&#45;&gt;node_8 -->
<g id="edge9" class="edge"><title>node_6&#45;&gt;node_8</title>
<path fill="none" stroke="green" d="M314.483,-472.31C244.416,-462.369 138.322,-442.495 114,-411 95.067,-386.483 116.161,-352.964 135.608,-330.452"/>
<polygon fill="green" stroke="green" points="138.249,-332.75 142.35,-322.981 133.052,-328.061 138.249,-332.75"/>
<text text-anchor="start" x="114" y="-390.3" font-family="Times,serif" font-size="14.00">OP_CAPTURE</text>
<text text-anchor="start" x="200" y="-390.3" font-family="Times,serif" baseline-shift="sub" font-size="14.00">|S</text>
</g>
<!-- node_9 -->
<g id="node10" class="node"><title>node_9</title>
<ellipse fill="grey" stroke="grey" cx="573" cy="-305" rx="86.1637" ry="18"/>
<text text-anchor="middle" x="573" y="-301.3" font-family="Times,serif" font-size="14.00">CAPTURE_FAILED</text>
</g>
<!-- node_6&#45;&gt;node_9 -->
<g id="edge10" class="edge"><title>node_6&#45;&gt;node_9</title>
<path fill="none" stroke="red" d="M439.056,-471.182C477.4,-462.414 524.773,-445.081 553,-411 570.882,-389.409 574.624,-356.734 574.687,-333.577"/>
<polygon fill="red" stroke="red" points="578.182,-333.3 574.482,-323.372 571.184,-333.44 578.182,-333.3"/>
<text text-anchor="start" x="570" y="-390.3" font-family="Times,serif" font-size="14.00">OP_CAPTURE</text>
<text text-anchor="start" x="656" y="-390.3" font-family="Times,serif" baseline-shift="sub" font-size="14.00">|F</text>
</g>
<!-- node_10 -->
<g id="node11" class="node"><title>node_10</title>
<ellipse fill="grey" stroke="grey" cx="370" cy="-305" rx="96.2874" ry="18"/>
<text text-anchor="middle" x="370" y="-301.3" font-family="Times,serif" font-size="14.00">CAPTURE_ERRORED</text>
</g>
<!-- node_6&#45;&gt;node_10 -->
<g id="edge15" class="edge"><title>node_6&#45;&gt;node_10</title>
<path fill="none" stroke="red" d="M413.577,-465.267C422.644,-460.037 431.618,-453.328 438,-445 457.609,-419.413 446.922,-405.621 457,-375 461.823,-360.345 472.803,-353.67 464,-341 458.93,-333.702 452.146,-327.922 444.532,-323.346"/>
<polygon fill="red" stroke="red" points="445.752,-320.035 435.267,-318.509 442.512,-326.24 445.752,-320.035"/>
<text text-anchor="start" x="457" y="-390.3" font-family="Times,serif" font-size="14.00">OP_CAPTURE</text>
<text text-anchor="start" x="543" y="-390.3" font-family="Times,serif" baseline-shift="sub" font-size="14.00">|E</text>
</g>
<!-- node_7&#45;&gt;node_8 -->
<g id="edge12" class="edge"><title>node_7&#45;&gt;node_8</title>
<path fill="none" stroke="green" d="M241.503,-381.292C199.085,-374.208 152.35,-364.818 146,-357 140.364,-350.061 141.04,-341.023 144.042,-332.487"/>
<polygon fill="green" stroke="green" points="147.308,-333.758 148.207,-323.201 140.921,-330.893 147.308,-333.758"/>
<text text-anchor="start" x="146" y="-346.3" font-family="Times,serif" font-size="14.00">OP_CAPTURE</text>
<text text-anchor="start" x="232" y="-346.3" font-family="Times,serif" baseline-shift="sub" font-size="14.00">|S</text>
</g>
<!-- node_7&#45;&gt;node_9 -->
<g id="edge13" class="edge"><title>node_7&#45;&gt;node_9</title>
<path fill="none" stroke="red" d="M357.992,-377.118C402.863,-362.276 471.797,-339.475 519.459,-323.71"/>
<polygon fill="red" stroke="red" points="520.597,-327.02 528.992,-320.556 518.399,-320.374 520.597,-327.02"/>
<text text-anchor="start" x="467" y="-346.3" font-family="Times,serif" font-size="14.00">OP_CAPTURE</text>
<text text-anchor="start" x="553" y="-346.3" font-family="Times,serif" baseline-shift="sub" font-size="14.00">|F</text>
</g>
<!-- node_7&#45;&gt;node_10 -->
<g id="edge14" class="edge"><title>node_7&#45;&gt;node_10</title>
<path fill="none" stroke="red" d="M271.492,-376.755C253.337,-367.688 238.329,-355.196 249,-341 256.621,-330.862 266.999,-323.522 278.494,-318.231"/>
<polygon fill="red" stroke="red" points="279.966,-321.411 287.92,-314.413 277.338,-314.923 279.966,-321.411"/>
<text text-anchor="start" x="249" y="-346.3" font-family="Times,serif" font-size="14.00">OP_CAPTURE</text>
<text text-anchor="start" x="335" y="-346.3" font-family="Times,serif" baseline-shift="sub" font-size="14.00">|E</text>
</g>
<!-- node_8&#45;&gt;node_6 -->
<g id="edge53" class="edge"><title>node_8&#45;&gt;node_6</title>
<path fill="none" stroke="black" stroke-dasharray="1,5" d="M131.964,-322.306C124.946,-327.515 118.001,-333.82 113,-341 103.998,-353.925 105.245,-359.41 103,-375 100.719,-390.837 96.8771,-396.218 103,-411 111.178,-430.744 117.897,-435.421 137,-445 164.822,-458.952 240.358,-468.432 299.521,-473.97"/>
<polygon fill="black" stroke="black" points="299.335,-477.467 309.612,-474.892 299.972,-470.496 299.335,-477.467"/>
</g>
<!-- node_16 -->
<g id="node17" class="node"><title>node_16</title>
<ellipse fill="grey" stroke="grey" cx="409" cy="-210" rx="67.3907" ry="18"/>
<text text-anchor="middle" x="409" y="-206.3" font-family="Times,serif" font-size="14.00">REFUND_INIT</text>
</g>
<!-- node_8&#45;&gt;node_16 -->
<g id="edge52" class="edge"><title>node_8&#45;&gt;node_16</title>
<path fill="none" stroke="black" stroke-dasharray="1,5" d="M200.838,-288.747C245.02,-272.246 315.362,-245.973 361.859,-228.607"/>
<polygon fill="black" stroke="black" points="363.258,-231.821 371.401,-225.043 360.809,-225.263 363.258,-231.821"/>
</g>
<!-- node_31 -->
<g id="node32" class="node"><title>node_31</title>
<ellipse fill="grey" stroke="grey" cx="1171" cy="-210" rx="92.413" ry="18"/>
<text text-anchor="middle" x="1171" y="-206.3" font-family="Times,serif" font-size="14.00">CHARGEBACK_INIT</text>
</g>
<!-- node_8&#45;&gt;node_31 -->
<g id="edge54" class="edge"><title>node_8&#45;&gt;node_31</title>
<path fill="none" stroke="black" stroke-dasharray="1,5" d="M211.189,-289.924C228.189,-285.757 247.296,-281.614 265,-279 412.993,-257.148 451.787,-269.722 601,-259 769.816,-246.87 966.486,-229.616 1079.1,-219.438"/>
<polygon fill="black" stroke="black" points="1079.76,-222.893 1089.4,-218.506 1079.13,-215.921 1079.76,-222.893"/>
</g>
<!-- node_12 -->
<g id="node13" class="node"><title>node_12</title>
<ellipse fill="none" stroke="black" cx="1579" cy="-393" rx="99.1619" ry="18"/>
<text text-anchor="middle" x="1579" y="-389.3" font-family="Times,serif" font-size="14.00">PURCHASE_PENDING</text>
</g>
<!-- node_11&#45;&gt;node_12 -->
<g id="edge18" class="edge"><title>node_11&#45;&gt;node_12</title>
<path fill="none" stroke="black" d="M1395.16,-465.216C1432.23,-450.855 1488.71,-428.977 1529.28,-413.261"/>
<polygon fill="black" stroke="black" points="1530.65,-416.483 1538.71,-409.607 1528.12,-409.956 1530.65,-416.483"/>
<text text-anchor="start" x="1488" y="-434.3" font-family="Times,serif" font-size="14.00">OP_PURCHASE</text>
<text text-anchor="start" x="1583" y="-434.3" font-family="Times,serif" baseline-shift="sub" font-size="14.00">|P</text>
</g>
<!-- node_13 -->
<g id="node14" class="node"><title>node_13</title>
<ellipse fill="grey" stroke="grey" cx="1499" cy="-305" rx="98.1881" ry="18"/>
<text text-anchor="middle" x="1499" y="-301.3" font-family="Times,serif" font-size="14.00">PURCHASE_SUCCESS</text>
</g>
<!-- node_11&#45;&gt;node_13 -->
<g id="edge16" class="edge"><title>node_11&#45;&gt;node_13</title>
<path fill="none" stroke="green" d="M1350.93,-462.892C1342,-434.317 1329.17,-376.523 1357,-341 1364.67,-331.207 1387.28,-323.783 1412.26,-318.349"/>
<polygon fill="green" stroke="green" points="1413.21,-321.727 1422.3,-316.29 1411.8,-314.87 1413.21,-321.727"/>
<text text-anchor="start" x="1342" y="-390.3" font-family="Times,serif" font-size="14.00">OP_PURCHASE</text>
<text text-anchor="start" x="1437" y="-390.3" font-family="Times,serif" baseline-shift="sub" font-size="14.00">|S</text>
</g>
<!-- node_14 -->
<g id="node15" class="node"><title>node_14</title>
<ellipse fill="grey" stroke="grey" cx="1290" cy="-305" rx="91.9385" ry="18"/>
<text text-anchor="middle" x="1290" y="-301.3" font-family="Times,serif" font-size="14.00">PURCHASE_FAILED</text>
</g>
<!-- node_11&#45;&gt;node_14 -->
<g id="edge17" class="edge"><title>node_11&#45;&gt;node_14</title>
<path fill="none" stroke="red" d="M1307.75,-466.92C1279.66,-456.658 1246.8,-439.252 1230,-411 1213.51,-383.277 1238.42,-351.012 1260.98,-329.642"/>
<polygon fill="red" stroke="red" points="1263.43,-332.148 1268.48,-322.835 1258.72,-326.966 1263.43,-332.148"/>
<text text-anchor="start" x="1230" y="-390.3" font-family="Times,serif" font-size="14.00">OP_PURCHASE</text>
<text text-anchor="start" x="1325" y="-390.3" font-family="Times,serif" baseline-shift="sub" font-size="14.00">|F</text>
</g>
<!-- node_15 -->
<g id="node16" class="node"><title>node_15</title>
<ellipse fill="grey" stroke="grey" cx="1718" cy="-305" rx="102.061" ry="18"/>
<text text-anchor="middle" x="1718" y="-301.3" font-family="Times,serif" font-size="14.00">PURCHASE_ERRORED</text>
</g>
<!-- node_11&#45;&gt;node_15 -->
<g id="edge22" class="edge"><title>node_11&#45;&gt;node_15</title>
<path fill="none" stroke="red" d="M1435.31,-479.739C1506.44,-475.978 1611.49,-461.292 1687,-411 1714.48,-392.7 1725.8,-387.676 1738,-357 1741.23,-348.869 1739.56,-339.996 1736.09,-331.964"/>
<polygon fill="red" stroke="red" points="1739.13,-330.231 1731.37,-323.016 1732.94,-333.494 1739.13,-330.231"/>
<text text-anchor="start" x="1728" y="-390.3" font-family="Times,serif" font-size="14.00">OP_PURCHASE</text>
<text text-anchor="start" x="1823" y="-390.3" font-family="Times,serif" baseline-shift="sub" font-size="14.00">|E</text>
</g>
<!-- node_12&#45;&gt;node_13 -->
<g id="edge19" class="edge"><title>node_12&#45;&gt;node_13</title>
<path fill="none" stroke="green" d="M1529.66,-377.233C1520.15,-372.244 1511.22,-365.656 1505,-357 1500.1,-350.179 1497.99,-341.47 1497.29,-333.188"/>
<polygon fill="green" stroke="green" points="1500.78,-333.009 1497.04,-323.098 1493.79,-333.181 1500.78,-333.009"/>
<text text-anchor="start" x="1505" y="-346.3" font-family="Times,serif" font-size="14.00">OP_PURCHASE</text>
<text text-anchor="start" x="1600" y="-346.3" font-family="Times,serif" baseline-shift="sub" font-size="14.00">|S</text>
</g>
<!-- node_12&#45;&gt;node_14 -->
<g id="edge20" class="edge"><title>node_12&#45;&gt;node_14</title>
<path fill="none" stroke="red" d="M1506.05,-380.708C1462.34,-373.511 1411.25,-364.216 1390,-357 1367.64,-349.407 1344.04,-337.576 1325.39,-327.22"/>
<polygon fill="red" stroke="red" points="1327.08,-324.157 1316.66,-322.279 1323.64,-330.25 1327.08,-324.157"/>
<text text-anchor="start" x="1390" y="-346.3" font-family="Times,serif" font-size="14.00">OP_PURCHASE</text>
<text text-anchor="start" x="1485" y="-346.3" font-family="Times,serif" baseline-shift="sub" font-size="14.00">|F</text>
</g>
<!-- node_12&#45;&gt;node_15 -->
<g id="edge21" class="edge"><title>node_12&#45;&gt;node_15</title>
<path fill="none" stroke="red" d="M1593.76,-375.162C1603.95,-364.317 1618.27,-350.519 1633,-341 1642.24,-335.031 1652.66,-329.74 1662.96,-325.194"/>
<polygon fill="red" stroke="red" points="1664.5,-328.344 1672.35,-321.23 1661.77,-321.896 1664.5,-328.344"/>
<text text-anchor="start" x="1633" y="-346.3" font-family="Times,serif" font-size="14.00">OP_PURCHASE</text>
<text text-anchor="start" x="1728" y="-346.3" font-family="Times,serif" baseline-shift="sub" font-size="14.00">|E</text>
</g>
<!-- node_13&#45;&gt;node_16 -->
<g id="edge57" class="edge"><title>node_13&#45;&gt;node_16</title>
<path fill="none" stroke="black" stroke-dasharray="1,5" d="M1446.92,-289.705C1429.3,-285.47 1409.42,-281.341 1391,-279 1042.58,-234.726 949.021,-306.322 601,-259 552.714,-252.434 499,-238.411 460.693,-227.209"/>
<polygon fill="black" stroke="black" points="461.389,-223.765 450.807,-224.28 459.401,-230.476 461.389,-223.765"/>
</g>
<!-- node_13&#45;&gt;node_31 -->
<g id="edge58" class="edge"><title>node_13&#45;&gt;node_31</title>
<path fill="none" stroke="black" stroke-dasharray="1,5" d="M1448.11,-289.571C1389.35,-272.911 1292.83,-245.544 1230.61,-227.903"/>
<polygon fill="black" stroke="black" points="1231.51,-224.519 1220.93,-225.158 1229.6,-231.253 1231.51,-224.519"/>
</g>
<!-- node_17 -->
<g id="node18" class="node"><title>node_17</title>
<ellipse fill="none" stroke="black" cx="355" cy="-122" rx="89.0632" ry="18"/>
<text text-anchor="middle" x="355" y="-118.3" font-family="Times,serif" font-size="14.00">REFUND_PENDING</text>
</g>
<!-- node_16&#45;&gt;node_17 -->
<g id="edge25" class="edge"><title>node_16&#45;&gt;node_17</title>
<path fill="none" stroke="black" d="M385.919,-192.812C379.664,-187.451 373.411,-181.037 369,-174 364.474,-166.78 361.389,-158.091 359.296,-149.948"/>
<polygon fill="black" stroke="black" points="362.694,-149.1 357.141,-140.077 355.855,-150.594 362.694,-149.1"/>
<text text-anchor="start" x="369" y="-163.3" font-family="Times,serif" font-size="14.00">OP_REFUND</text>
<text text-anchor="start" x="448" y="-163.3" font-family="Times,serif" baseline-shift="sub" font-size="14.00">|P</text>
</g>
<!-- node_18 -->
<g id="node19" class="node"><title>node_18</title>
<ellipse fill="grey" stroke="grey" cx="496" cy="-34" rx="88.0886" ry="18"/>
<text text-anchor="middle" x="496" y="-30.3" font-family="Times,serif" font-size="14.00">REFUND_SUCCESS</text>
</g>
<!-- node_16&#45;&gt;node_18 -->
<g id="edge23" class="edge"><title>node_16&#45;&gt;node_18</title>
<path fill="none" stroke="green" d="M443.199,-194.385C452.319,-189.1 461.447,-182.331 468,-174 493.212,-141.949 497.52,-93.1744 497.42,-62.7404"/>
<polygon fill="green" stroke="green" points="500.913,-62.3509 497.214,-52.4227 493.914,-62.4905 500.913,-62.3509"/>
<text text-anchor="start" x="496" y="-119.3" font-family="Times,serif" font-size="14.00">OP_REFUND</text>
<text text-anchor="start" x="575" y="-119.3" font-family="Times,serif" baseline-shift="sub" font-size="14.00">|S</text>
</g>
<!-- node_19 -->
<g id="node20" class="node"><title>node_19</title>
<ellipse fill="grey" stroke="grey" cx="97" cy="-34" rx="81.3646" ry="18"/>
<text text-anchor="middle" x="97" y="-30.3" font-family="Times,serif" font-size="14.00">REFUND_FAILED</text>
</g>
<!-- node_16&#45;&gt;node_19 -->
<g id="edge24" class="edge"><title>node_16&#45;&gt;node_19</title>
<path fill="none" stroke="red" d="M342.912,-206.238C249.683,-200.763 86.9733,-184.873 52,-140 32.9148,-115.512 53.9973,-81.7104 73.2593,-59.1422"/>
<polygon fill="red" stroke="red" points="75.886,-61.4554 79.9278,-51.6617 70.6608,-56.7973 75.886,-61.4554"/>
<text text-anchor="start" x="52" y="-119.3" font-family="Times,serif" font-size="14.00">OP_REFUND</text>
<text text-anchor="start" x="131" y="-119.3" font-family="Times,serif" baseline-shift="sub" font-size="14.00">|F</text>
</g>
<!-- node_20 -->
<g id="node21" class="node"><title>node_20</title>
<ellipse fill="grey" stroke="grey" cx="287" cy="-34" rx="90.4879" ry="18"/>
<text text-anchor="middle" x="287" y="-30.3" font-family="Times,serif" font-size="14.00">REFUND_ERRORED</text>
</g>
<!-- node_16&#45;&gt;node_20 -->
<g id="edge29" class="edge"><title>node_16&#45;&gt;node_20</title>
<path fill="none" stroke="red" d="M342.22,-207.526C287.895,-202.67 213.092,-187.056 168,-140 146.107,-117.153 135.704,-95.079 155,-70 162.211,-60.6277 183.846,-53.2451 207.568,-47.7247"/>
<polygon fill="red" stroke="red" points="208.445,-51.1155 217.46,-45.5486 206.941,-44.2789 208.445,-51.1155"/>
<text text-anchor="start" x="168" y="-119.3" font-family="Times,serif" font-size="14.00">OP_REFUND</text>
<text text-anchor="start" x="247" y="-119.3" font-family="Times,serif" baseline-shift="sub" font-size="14.00">|E</text>
</g>
<!-- node_17&#45;&gt;node_18 -->
<g id="edge26" class="edge"><title>node_17&#45;&gt;node_18</title>
<path fill="none" stroke="green" d="M366.303,-103.83C374.299,-92.8444 385.898,-79.0143 399,-70 409.474,-62.7937 421.602,-56.8922 433.66,-52.1261"/>
<polygon fill="green" stroke="green" points="435.131,-55.313 443.282,-48.5439 432.689,-48.7529 435.131,-55.313"/>
<text text-anchor="start" x="399" y="-75.3" font-family="Times,serif" font-size="14.00">OP_REFUND</text>
<text text-anchor="start" x="478" y="-75.3" font-family="Times,serif" baseline-shift="sub" font-size="14.00">|S</text>
</g>
<!-- node_17&#45;&gt;node_19 -->
<g id="edge27" class="edge"><title>node_17&#45;&gt;node_19</title>
<path fill="none" stroke="red" d="M302.513,-107.422C286.369,-103.472 268.505,-99.3287 252,-96 224.639,-90.4818 216.399,-95.0646 190,-86 168.94,-78.7686 147.026,-66.9898 129.763,-56.573"/>
<polygon fill="red" stroke="red" points="131.537,-53.5549 121.189,-51.2812 127.86,-59.5117 131.537,-53.5549"/>
<text text-anchor="start" x="190" y="-75.3" font-family="Times,serif" font-size="14.00">OP_REFUND</text>
<text text-anchor="start" x="269" y="-75.3" font-family="Times,serif" baseline-shift="sub" font-size="14.00">|F</text>
</g>
<!-- node_17&#45;&gt;node_20 -->
<g id="edge28" class="edge"><title>node_17&#45;&gt;node_20</title>
<path fill="none" stroke="red" d="M309.564,-106.396C300.597,-101.372 292.324,-94.7281 287,-86 282.768,-79.0624 281.571,-70.5439 281.776,-62.4699"/>
<polygon fill="red" stroke="red" points="285.282,-62.5616 282.716,-52.2822 278.312,-61.9181 285.282,-62.5616"/>
<text text-anchor="start" x="287" y="-75.3" font-family="Times,serif" font-size="14.00">OP_REFUND</text>
<text text-anchor="start" x="366" y="-75.3" font-family="Times,serif" baseline-shift="sub" font-size="14.00">|E</text>
</g>
<!-- node_18&#45;&gt;node_16 -->
<g id="edge55" class="edge"><title>node_18&#45;&gt;node_16</title>
<path fill="none" stroke="black" stroke-dasharray="1,5" d="M494.622,-52.3052C493.495,-62.3236 491.495,-75.0736 488,-86 486.486,-90.7328 484.875,-91.3983 483,-96 469.264,-129.713 479.458,-144.592 458,-174 454.447,-178.869 450.009,-183.32 445.265,-187.295"/>
<polygon fill="black" stroke="black" points="442.925,-184.678 437.094,-193.523 447.169,-190.245 442.925,-184.678"/>
</g>
<!-- node_18&#45;&gt;node_31 -->
<g id="edge56" class="edge"><title>node_18&#45;&gt;node_31</title>
<path fill="none" stroke="black" stroke-dasharray="1,5" d="M584.355,-34.8193C788.813,-35.3228 1280.96,-42.1724 1331,-96 1354.65,-121.442 1349.61,-148.52 1326,-174 1316.06,-184.726 1287.77,-192.571 1258.03,-198.081"/>
<polygon fill="black" stroke="black" points="1257.16,-194.681 1247.92,-199.861 1258.37,-201.575 1257.16,-194.681"/>
</g>
<!-- node_22 -->
<g id="node23" class="node"><title>node_22</title>
<ellipse fill="none" stroke="black" cx="1595" cy="-664" rx="85.2138" ry="18"/>
<text text-anchor="middle" x="1595" y="-660.3" font-family="Times,serif" font-size="14.00">CREDIT_PENDING</text>
</g>
<!-- node_21&#45;&gt;node_22 -->
<g id="edge32" class="edge"><title>node_21&#45;&gt;node_22</title>
<path fill="none" stroke="black" d="M1440.97,-736.216C1471.64,-722.037 1518.16,-700.53 1552.05,-684.861"/>
<polygon fill="black" stroke="black" points="1553.64,-687.981 1561.25,-680.607 1550.7,-681.627 1553.64,-687.981"/>
<text text-anchor="start" x="1519" y="-705.3" font-family="Times,serif" font-size="14.00">OP_CREDIT</text>
<text text-anchor="start" x="1592" y="-705.3" font-family="Times,serif" baseline-shift="sub" font-size="14.00">|P</text>
</g>
<!-- node_23 -->
<g id="node24" class="node"><title>node_23</title>
<ellipse fill="grey" stroke="grey" cx="1531" cy="-576" rx="85.2138" ry="18"/>
<text text-anchor="middle" x="1531" y="-572.3" font-family="Times,serif" font-size="14.00">CREDIT_SUCCESS</text>
</g>
<!-- node_21&#45;&gt;node_23 -->
<g id="edge30" class="edge"><title>node_21&#45;&gt;node_23</title>
<path fill="none" stroke="green" d="M1403.24,-733.99C1394.78,-705.561 1382.75,-647.974 1410,-612 1416.58,-603.306 1436.41,-596.074 1458.15,-590.484"/>
<polygon fill="green" stroke="green" points="1459,-593.878 1467.89,-588.111 1457.35,-587.077 1459,-593.878"/>
<text text-anchor="start" x="1396" y="-661.3" font-family="Times,serif" font-size="14.00">OP_CREDIT</text>
<text text-anchor="start" x="1469" y="-661.3" font-family="Times,serif" baseline-shift="sub" font-size="14.00">|S</text>
</g>
<!-- node_24 -->
<g id="node25" class="node"><title>node_24</title>
<ellipse fill="grey" stroke="grey" cx="1350" cy="-576" rx="77.4897" ry="18"/>
<text text-anchor="middle" x="1350" y="-572.3" font-family="Times,serif" font-size="14.00">CREDIT_FAILED</text>
</g>
<!-- node_21&#45;&gt;node_24 -->
<g id="edge31" class="edge"><title>node_21&#45;&gt;node_24</title>
<path fill="none" stroke="red" d="M1371.49,-737.302C1347.47,-726.343 1318.24,-708.397 1304,-682 1289.59,-655.286 1308.68,-623.134 1326.46,-601.506"/>
<polygon fill="red" stroke="red" points="1329.26,-603.622 1333.14,-593.765 1323.96,-599.049 1329.26,-603.622"/>
<text text-anchor="start" x="1304" y="-661.3" font-family="Times,serif" font-size="14.00">OP_CREDIT</text>
<text text-anchor="start" x="1377" y="-661.3" font-family="Times,serif" baseline-shift="sub" font-size="14.00">|F</text>
</g>
<!-- node_25 -->
<g id="node26" class="node"><title>node_25</title>
<ellipse fill="grey" stroke="grey" cx="1722" cy="-576" rx="87.613" ry="18"/>
<text text-anchor="middle" x="1722" y="-572.3" font-family="Times,serif" font-size="14.00">CREDIT_ERRORED</text>
</g>
<!-- node_21&#45;&gt;node_25 -->
<g id="edge36" class="edge"><title>node_21&#45;&gt;node_25</title>
<path fill="none" stroke="red" d="M1473.18,-750.466C1534.89,-746.729 1627.59,-732.253 1689,-682 1711.32,-663.733 1716.64,-655.607 1725,-628 1727.26,-620.53 1727.61,-612.169 1727.1,-604.413"/>
<polygon fill="red" stroke="red" points="1730.57,-603.895 1725.97,-594.351 1723.61,-604.68 1730.57,-603.895"/>
<text text-anchor="start" x="1718" y="-661.3" font-family="Times,serif" font-size="14.00">OP_CREDIT</text>
<text text-anchor="start" x="1791" y="-661.3" font-family="Times,serif" baseline-shift="sub" font-size="14.00">|E</text>
</g>
<!-- node_22&#45;&gt;node_23 -->
<g id="edge33" class="edge"><title>node_22&#45;&gt;node_23</title>
<path fill="none" stroke="green" d="M1557.24,-647.705C1548.99,-642.632 1541.18,-636.14 1536,-628 1531.62,-621.11 1529.73,-612.605 1529.12,-604.529"/>
<polygon fill="green" stroke="green" points="1532.62,-604.269 1528.95,-594.331 1525.62,-604.39 1532.62,-604.269"/>
<text text-anchor="start" x="1536" y="-617.3" font-family="Times,serif" font-size="14.00">OP_CREDIT</text>
<text text-anchor="start" x="1609" y="-617.3" font-family="Times,serif" baseline-shift="sub" font-size="14.00">|S</text>
</g>
<!-- node_22&#45;&gt;node_24 -->
<g id="edge34" class="edge"><title>node_22&#45;&gt;node_24</title>
<path fill="none" stroke="red" d="M1530.69,-652.074C1503.45,-646.433 1471.68,-638.495 1444,-628 1423.3,-620.152 1401.5,-608.553 1384.1,-598.399"/>
<polygon fill="red" stroke="red" points="1385.82,-595.349 1375.44,-593.248 1382.25,-601.366 1385.82,-595.349"/>
<text text-anchor="start" x="1444" y="-617.3" font-family="Times,serif" font-size="14.00">OP_CREDIT</text>
<text text-anchor="start" x="1517" y="-617.3" font-family="Times,serif" baseline-shift="sub" font-size="14.00">|F</text>
</g>
<!-- node_22&#45;&gt;node_25 -->
<g id="edge35" class="edge"><title>node_22&#45;&gt;node_25</title>
<path fill="none" stroke="red" d="M1607.51,-646.153C1616.23,-635.305 1628.67,-621.505 1642,-612 1650.51,-605.932 1660.24,-600.593 1669.92,-596.031"/>
<polygon fill="red" stroke="red" points="1671.45,-599.182 1679.14,-591.897 1668.58,-592.795 1671.45,-599.182"/>
<text text-anchor="start" x="1642" y="-617.3" font-family="Times,serif" font-size="14.00">OP_CREDIT</text>
<text text-anchor="start" x="1715" y="-617.3" font-family="Times,serif" baseline-shift="sub" font-size="14.00">|E</text>
</g>
<!-- node_27 -->
<g id="node28" class="node"><title>node_27</title>
<ellipse fill="none" stroke="black" cx="982" cy="-393" rx="75.0904" ry="18"/>
<text text-anchor="middle" x="982" y="-389.3" font-family="Times,serif" font-size="14.00">VOID_PENDING</text>
</g>
<!-- node_26&#45;&gt;node_27 -->
<g id="edge39" class="edge"><title>node_26&#45;&gt;node_27</title>
<path fill="none" stroke="black" d="M868.354,-464.823C890.269,-451.166 922.713,-430.947 947.332,-415.605"/>
<polygon fill="black" stroke="black" points="949.378,-418.453 956.014,-410.194 945.676,-412.513 949.378,-418.453"/>
<text text-anchor="start" x="926" y="-434.3" font-family="Times,serif" font-size="14.00">OP_VOID</text>
<text text-anchor="start" x="984" y="-434.3" font-family="Times,serif" baseline-shift="sub" font-size="14.00">|P</text>
</g>
<!-- node_28 -->
<g id="node29" class="node"><title>node_28</title>
<ellipse fill="grey" stroke="grey" cx="925" cy="-305" rx="75.0904" ry="18"/>
<text text-anchor="middle" x="925" y="-301.3" font-family="Times,serif" font-size="14.00">VOID_SUCCESS</text>
</g>
<!-- node_26&#45;&gt;node_28 -->
<g id="edge37" class="edge"><title>node_26&#45;&gt;node_28</title>
<path fill="none" stroke="green" d="M834.837,-462.794C821.212,-434.587 799.869,-377.955 826,-341 832.907,-331.232 842.779,-324.172 853.641,-319.073"/>
<polygon fill="green" stroke="green" points="855.043,-322.282 862.955,-315.236 852.376,-315.809 855.043,-322.282"/>
<text text-anchor="start" x="817" y="-390.3" font-family="Times,serif" font-size="14.00">OP_VOID</text>
<text text-anchor="start" x="875" y="-390.3" font-family="Times,serif" baseline-shift="sub" font-size="14.00">|S</text>
</g>
<!-- node_29 -->
<g id="node30" class="node"><title>node_29</title>
<ellipse fill="grey" stroke="grey" cx="763" cy="-305" rx="68.3664" ry="18"/>
<text text-anchor="middle" x="763" y="-301.3" font-family="Times,serif" font-size="14.00">VOID_FAILED</text>
</g>
<!-- node_26&#45;&gt;node_29 -->
<g id="edge38" class="edge"><title>node_26&#45;&gt;node_29</title>
<path fill="none" stroke="red" d="M809.551,-466.974C785.851,-455.983 756.184,-437.721 742,-411 728.864,-386.255 738.471,-354.258 748.596,-332.121"/>
<polygon fill="red" stroke="red" points="751.809,-333.518 753.054,-322.997 745.519,-330.446 751.809,-333.518"/>
<text text-anchor="start" x="742" y="-390.3" font-family="Times,serif" font-size="14.00">OP_VOID</text>
<text text-anchor="start" x="800" y="-390.3" font-family="Times,serif" baseline-shift="sub" font-size="14.00">|F</text>
</g>
<!-- node_30 -->
<g id="node31" class="node"><title>node_30</title>
<ellipse fill="grey" stroke="grey" cx="1096" cy="-305" rx="77.4897" ry="18"/>
<text text-anchor="middle" x="1096" y="-301.3" font-family="Times,serif" font-size="14.00">VOID_ERRORED</text>
</g>
<!-- node_26&#45;&gt;node_30 -->
<g id="edge43" class="edge"><title>node_26&#45;&gt;node_30</title>
<path fill="none" stroke="red" d="M896.914,-476.741C946.637,-470.948 1020.09,-454.962 1066,-411 1085.83,-392.013 1089.11,-383.577 1096,-357 1097.95,-349.457 1098.57,-341.074 1098.53,-333.319"/>
<polygon fill="red" stroke="red" points="1102.02,-333.127 1098.13,-323.272 1095.03,-333.401 1102.02,-333.127"/>
<text text-anchor="start" x="1091" y="-390.3" font-family="Times,serif" font-size="14.00">OP_VOID</text>
<text text-anchor="start" x="1149" y="-390.3" font-family="Times,serif" baseline-shift="sub" font-size="14.00">|E</text>
</g>
<!-- node_27&#45;&gt;node_28 -->
<g id="edge40" class="edge"><title>node_27&#45;&gt;node_28</title>
<path fill="none" stroke="green" d="M955.373,-376.035C948.49,-370.757 941.703,-364.331 937,-357 932.441,-349.894 929.611,-341.238 927.855,-333.088"/>
<polygon fill="green" stroke="green" points="931.297,-332.456 926.155,-323.192 924.398,-333.64 931.297,-332.456"/>
<text text-anchor="start" x="937" y="-346.3" font-family="Times,serif" font-size="14.00">OP_VOID</text>
<text text-anchor="start" x="995" y="-346.3" font-family="Times,serif" baseline-shift="sub" font-size="14.00">|S</text>
</g>
<!-- node_27&#45;&gt;node_29 -->
<g id="edge41" class="edge"><title>node_27&#45;&gt;node_29</title>
<path fill="none" stroke="red" d="M930.322,-379.893C908.021,-374.007 881.861,-366.205 859,-357 838.129,-348.596 815.877,-336.959 798.057,-326.923"/>
<polygon fill="red" stroke="red" points="799.592,-323.769 789.173,-321.846 796.118,-329.846 799.592,-323.769"/>
<text text-anchor="start" x="859" y="-346.3" font-family="Times,serif" font-size="14.00">OP_VOID</text>
<text text-anchor="start" x="917" y="-346.3" font-family="Times,serif" baseline-shift="sub" font-size="14.00">|F</text>
</g>
<!-- node_27&#45;&gt;node_30 -->
<g id="edge42" class="edge"><title>node_27&#45;&gt;node_30</title>
<path fill="none" stroke="red" d="M994.758,-374.933C1003.33,-364.264 1015.34,-350.747 1028,-341 1035.19,-335.468 1043.38,-330.397 1051.53,-325.934"/>
<polygon fill="red" stroke="red" points="1053.41,-328.897 1060.65,-321.162 1050.17,-322.694 1053.41,-328.897"/>
<text text-anchor="start" x="1028" y="-346.3" font-family="Times,serif" font-size="14.00">OP_VOID</text>
<text text-anchor="start" x="1086" y="-346.3" font-family="Times,serif" baseline-shift="sub" font-size="14.00">|E</text>
</g>
<!-- node_32 -->
<g id="node33" class="node"><title>node_32</title>
<ellipse fill="grey" stroke="grey" cx="1209" cy="-122" rx="113.61" ry="18"/>
<text text-anchor="middle" x="1209" y="-118.3" font-family="Times,serif" font-size="14.00">CHARGEBACK_SUCCESS</text>
</g>
<!-- node_31&#45;&gt;node_32 -->
<g id="edge44" class="edge"><title>node_31&#45;&gt;node_32</title>
<path fill="none" stroke="green" d="M1178.51,-192.009C1183.83,-179.956 1191.09,-163.535 1197.19,-149.735"/>
<polygon fill="green" stroke="green" points="1200.54,-150.811 1201.38,-140.25 1194.13,-147.982 1200.54,-150.811"/>
<text text-anchor="start" x="1194" y="-163.3" font-family="Times,serif" font-size="14.00">OP_CHARGEBACK</text>
<text text-anchor="start" x="1312" y="-163.3" font-family="Times,serif" baseline-shift="sub" font-size="14.00">|S</text>
</g>
<!-- node_33 -->
<g id="node34" class="node"><title>node_33</title>
<ellipse fill="grey" stroke="grey" cx="720" cy="-122" rx="106.386" ry="18"/>
<text text-anchor="middle" x="720" y="-118.3" font-family="Times,serif" font-size="14.00">CHARGEBACK_FAILED</text>
</g>
<!-- node_31&#45;&gt;node_33 -->
<g id="edge45" class="edge"><title>node_31&#45;&gt;node_33</title>
<path fill="none" stroke="red" d="M1086.21,-202.787C1028.48,-197.56 950.581,-188.552 883,-174 845.172,-165.855 803.553,-152.761 771.839,-141.88"/>
<polygon fill="red" stroke="red" points="772.924,-138.552 762.33,-138.583 770.631,-145.166 772.924,-138.552"/>
<text text-anchor="start" x="883" y="-163.3" font-family="Times,serif" font-size="14.00">OP_CHARGEBACK</text>
<text text-anchor="start" x="1001" y="-163.3" font-family="Times,serif" baseline-shift="sub" font-size="14.00">|F</text>
</g>
<!-- node_34 -->
<g id="node35" class="node"><title>node_34</title>
<ellipse fill="grey" stroke="grey" cx="961" cy="-122" rx="116.01" ry="18"/>
<text text-anchor="middle" x="961" y="-118.3" font-family="Times,serif" font-size="14.00">CHARGEBACK_ERRORED</text>
</g>
<!-- node_31&#45;&gt;node_34 -->
<g id="edge46" class="edge"><title>node_31&#45;&gt;node_34</title>
<path fill="none" stroke="red" d="M1112.32,-196.031C1091.01,-190.424 1067.01,-183.049 1046,-174 1027.9,-166.203 1008.98,-155.176 993.602,-145.369"/>
<polygon fill="red" stroke="red" points="995.28,-142.285 984.988,-139.769 991.465,-148.154 995.28,-142.285"/>
<text text-anchor="start" x="1046" y="-163.3" font-family="Times,serif" font-size="14.00">OP_CHARGEBACK</text>
<text text-anchor="start" x="1164" y="-163.3" font-family="Times,serif" baseline-shift="sub" font-size="14.00">|E</text>
</g>
<!-- node_32&#45;&gt;node_31 -->
<g id="edge59" class="edge"><title>node_32&#45;&gt;node_31</title>
<path fill="none" stroke="black" stroke-dasharray="1,5" d="M1194.27,-139.913C1190.12,-145.388 1185.93,-151.685 1183,-158 1179.54,-165.456 1177.02,-174.005 1175.22,-181.946"/>
<polygon fill="black" stroke="black" points="1171.76,-181.4 1173.24,-191.891 1178.62,-182.767 1171.76,-181.4"/>
</g>
<!-- node_33&#45;&gt;node_16 -->
<g id="edge60" class="edge"><title>node_33&#45;&gt;node_16</title>
<path fill="none" stroke="black" stroke-dasharray="1,5" d="M667.052,-137.642C610.461,-153.291 521.166,-177.983 463.853,-193.832"/>
<polygon fill="black" stroke="black" points="462.595,-190.548 453.89,-196.587 464.461,-197.295 462.595,-190.548"/>
</g>
</g>
</svg>
