<svg width="146" height="38" viewBox="0 0 146 38" fill="none" xmlns="http://www.w3.org/2000/svg">
<path d="M9.48861 14.3939L18.1612 17.1334L21.0185 21.869L7.64811 21.4216L6.21504 18.7125C4.9769 16.372 7.05823 13.6262 9.48861 14.3939Z" fill="url(#paint0_linear_10_1924)"/>
<path d="M2.8895 19.9353L24.4028 20.5052L32.8472 34.4666C33.7535 35.965 32.7509 37.9421 31.0818 37.9477L15.491 37.9999C13.572 38.0063 11.7339 37.1742 10.4027 35.6964L0.793292 25.0292C-0.951194 23.0927 0.375516 19.8687 2.8895 19.9353Z" fill="url(#paint1_linear_10_1924)"/>
<path d="M21.7074 0.971191L16.6363 8.18671L24.5334 12.0045L26.3344 5.16798L21.7074 0.971191Z" fill="url(#paint2_linear_10_1924)"/>
<path d="M29.1094 36.8138L16.3538 14.1541C15.2745 12.2368 15.4097 9.87141 16.7004 8.08811C17.4449 7.05933 18.9247 6.90574 19.8669 7.75944L36.1531 22.5171C38.253 24.4199 38.6987 27.5376 37.2152 29.9471L32.9414 36.8883C32.055 38.3278 29.9385 38.2867 29.1094 36.8138Z" fill="url(#paint3_linear_10_1924)"/>
<path d="M33.9349 11.6955L22.3209 4.05558C20.3103 2.73294 21.5612 -0.380836 23.9347 0.0385269L29.4993 1.02172C30.8456 1.25959 31.9504 2.21618 32.3726 3.50961L34.8249 11.0223C34.998 11.5525 34.4024 12.003 33.9349 11.6955Z" fill="url(#paint4_linear_10_1924)"/>
<path d="M73.4083 26.1518C72.2218 26.1518 71.26 25.1998 71.26 24.0254V10.1887C71.26 9.01434 72.2218 8.06233 73.4083 8.06233C74.5948 8.06233 75.5566 9.01434 75.5566 10.1887V24.0254C75.5566 25.1998 74.5948 26.1518 73.4083 26.1518ZM73.4255 5.0813C72.6235 5.0813 71.9589 4.83288 71.4319 4.33604C70.9277 3.83921 70.6757 3.24074 70.6757 2.54065C70.6757 1.81798 70.9277 1.21951 71.4319 0.745256C71.9589 0.248419 72.6235 0 73.4255 0C74.2275 0 74.8806 0.237127 75.3847 0.711381C75.9118 1.16305 76.1753 1.73893 76.1753 2.43902C76.1753 3.18428 75.9232 3.81662 75.4191 4.33604C74.915 4.83288 74.2504 5.0813 73.4255 5.0813Z" fill="white"/>
<path d="M81.9692 26.1518C80.7827 26.1518 79.8209 25.1998 79.8209 24.0254V3.14263C79.8209 1.96827 80.7827 1.01626 81.9692 1.01626C83.1557 1.01626 84.1175 1.96827 84.1175 3.14263V24.0254C84.1175 25.1998 83.1557 26.1518 81.9692 26.1518Z" fill="white"/>
<path d="M90.5301 26.1518C89.3437 26.1518 88.3818 25.1998 88.3818 24.0254V3.14263C88.3818 1.96827 89.3437 1.01626 90.5301 1.01626C91.7166 1.01626 92.6784 1.96827 92.6784 3.14263V24.0254C92.6784 25.1998 91.7166 26.1518 90.5301 26.1518Z" fill="white"/>
<path d="M126.73 26.1518C125.544 26.1518 124.582 25.1998 124.582 24.0254V10.1887C124.582 9.01434 125.544 8.06233 126.73 8.06233C127.917 8.06233 128.878 9.01434 128.878 10.1887V24.0254C128.878 25.1998 127.917 26.1518 126.73 26.1518ZM126.747 5.0813C125.945 5.0813 125.281 4.83288 124.754 4.33604C124.25 3.83921 123.997 3.24074 123.997 2.54065C123.997 1.81798 124.25 1.21951 124.754 0.745256C125.281 0.248419 125.945 0 126.747 0C127.549 0 128.202 0.237127 128.706 0.711381C129.234 1.16305 129.497 1.73893 129.497 2.43902C129.497 3.18428 129.245 3.81662 128.741 4.33604C128.237 4.83288 127.572 5.0813 126.747 5.0813Z" fill="white"/>
<path d="M135.291 26.1518C134.105 26.1518 133.143 25.1998 133.143 24.0254V3.14263C133.143 1.96827 134.105 1.01626 135.291 1.01626C136.477 1.01626 137.439 1.96827 137.439 3.14263V24.0254C137.439 25.1998 136.477 26.1518 135.291 26.1518Z" fill="white"/>
<path d="M143.852 26.1518C142.665 26.1518 141.704 25.1998 141.704 24.0254V3.14263C141.704 1.96827 142.665 1.01626 143.852 1.01626C145.038 1.01626 146 1.96827 146 3.14263V24.0254C146 25.1998 145.038 26.1518 143.852 26.1518Z" fill="white"/>
<path d="M63.4541 8.54332C63.7935 8.23402 64.238 8.06233 64.6993 8.06233C66.3371 8.06233 67.1573 10.0224 65.9991 11.1686L61.4788 15.6424L67.2293 22.8534C68.2943 24.1889 67.3332 26.1518 65.6142 26.1518C64.9947 26.1518 64.4081 25.8755 64.0174 25.3996L58.275 18.4052L55.0794 21.3837V24.0254C55.0794 25.1998 54.1176 26.1518 52.9311 26.1518C51.7446 26.1518 50.7828 25.1998 50.7828 24.0254V3.14263C50.7828 1.96827 51.7446 1.01626 52.9311 1.01626C54.1176 1.01626 55.0794 1.96827 55.0794 3.14263V16.1757L63.4541 8.54332Z" fill="white"/>
<path fill-rule="evenodd" clip-rule="evenodd" d="M112.567 26.3889C111.009 26.3889 109.622 26.0501 108.408 25.3726C107.674 24.9634 107.033 24.4306 106.483 23.7742V24.1275C106.483 25.2455 105.567 26.1518 104.438 26.1518C103.308 26.1518 102.393 25.2455 102.393 24.1275V3.14263C102.393 1.96827 103.354 1.01626 104.541 1.01626C105.727 1.01626 106.689 1.96827 106.689 3.14263V10.2756C107.212 9.70272 107.808 9.23596 108.477 8.87534C109.714 8.19783 111.077 7.85908 112.567 7.85908C114.377 7.85908 115.97 8.243 117.345 9.01084C118.743 9.77868 119.842 10.8514 120.645 12.229C121.469 13.6066 121.882 15.2326 121.882 17.107C121.882 18.9815 121.469 20.6075 120.645 21.9851C119.842 23.3627 118.743 24.4467 117.345 25.2371C115.97 26.005 114.377 26.3889 112.567 26.3889ZM114.836 22.0867C114.034 22.5384 113.117 22.7642 112.086 22.7642C111.055 22.7642 110.126 22.5384 109.302 22.0867C108.477 21.6351 107.824 20.9801 107.342 20.122C106.861 19.2638 106.62 18.2588 106.62 17.107C106.62 15.9327 106.861 14.9277 107.342 14.0921C107.824 13.234 108.477 12.579 109.302 12.1274C110.126 11.6757 111.055 11.4499 112.086 11.4499C113.117 11.4499 114.034 11.6757 114.836 12.1274C115.66 12.579 116.314 13.234 116.795 14.0921C117.276 14.9277 117.517 15.9327 117.517 17.107C117.517 18.2588 117.276 19.2638 116.795 20.122C116.314 20.9801 115.66 21.6351 114.836 22.0867Z" fill="white"/>
<path d="M50.7826 31.5867C50.7826 31.0766 51.2132 30.6631 51.7444 30.6631H53.8093C54.9131 30.6631 55.8236 31.0065 56.5407 31.6934C57.2649 32.3803 57.627 33.251 57.627 34.3055C57.627 35.3601 57.2649 36.2308 56.5407 36.9177C55.8166 37.6045 54.8956 37.9479 53.7777 37.9479H51.7444C51.2132 37.9479 50.7826 37.5344 50.7826 37.0243V31.5867ZM52.027 31.7662V36.8448H53.841C54.5651 36.8448 55.1662 36.6089 55.6443 36.1371C56.1294 35.6584 56.372 35.0514 56.372 34.3159C56.372 33.5805 56.1224 32.9734 55.6232 32.4947C55.1311 32.0091 54.5194 31.7662 53.7882 31.7662H52.027Z" fill="white"/>
<path d="M60.2326 31.6934C60.9849 30.9857 61.9129 30.6319 63.0167 30.6319C64.1205 30.6319 65.0486 30.9857 65.8009 31.6934C66.5532 32.3941 66.9293 33.2648 66.9293 34.3055C66.9293 35.3462 66.5532 36.2239 65.8009 36.9385C65.0486 37.6461 64.1205 38 63.0167 38C61.9129 38 60.9849 37.6461 60.2326 36.9385C59.4803 36.2239 59.1042 35.3462 59.1042 34.3055C59.1042 33.2648 59.4803 32.3941 60.2326 31.6934ZM63.0273 31.735C62.2961 31.735 61.6703 31.9848 61.1501 32.4843C60.6298 32.9769 60.3697 33.584 60.3697 34.3055C60.3697 35.0271 60.6298 35.6411 61.1501 36.1475C61.6774 36.6471 62.3031 36.8968 63.0273 36.8968C63.7514 36.8968 64.3701 36.6471 64.8834 36.1475C65.3966 35.6411 65.6532 35.0271 65.6532 34.3055C65.6532 33.584 65.3966 32.9769 64.8834 32.4843C64.3701 31.9848 63.7514 31.735 63.0273 31.735Z" fill="white"/>
<path d="M72.2788 30.6319C72.799 30.6319 73.3052 30.7325 73.7974 30.9337C74.1342 31.0648 74.439 31.2322 74.7118 31.4359C74.9379 31.6048 74.9526 31.9174 74.7764 32.1342C74.5572 32.4038 74.138 32.4135 73.8457 32.218C73.7084 32.1262 73.5622 32.045 73.4072 31.9744C73.0416 31.8079 72.6725 31.7246 72.2999 31.7246C71.5616 31.7246 70.9359 31.9744 70.4227 32.4739C69.9165 32.9665 69.6633 33.5701 69.6633 34.2847C69.6633 35.0063 69.9165 35.6168 70.4227 36.1163C70.9359 36.6089 71.5616 36.8552 72.2999 36.8552C72.879 36.8552 73.412 36.6908 73.8988 36.3618C74.1642 36.1825 74.5369 36.19 74.7504 36.4247C74.9443 36.638 74.936 36.9623 74.7044 37.1375C74.4203 37.3522 74.1074 37.5322 73.7657 37.6774C73.2595 37.8924 72.7498 38 72.2366 38C71.1539 38 70.2434 37.6461 69.5052 36.9385C68.7669 36.2239 68.3978 35.3427 68.3978 34.2951C68.3978 33.2614 68.7705 32.3941 69.5157 31.6934C70.268 30.9857 71.189 30.6319 72.2788 30.6319Z" fill="white"/>
<path d="M79.8431 30.6111C80.615 30.6111 81.3251 30.7739 81.9733 31.0995C82.2439 31.2354 82.3336 31.5556 82.2064 31.8221C82.0492 32.1512 81.6282 32.2684 81.2858 32.117C80.7568 31.8832 80.2443 31.7662 79.7481 31.7662C79.3755 31.7662 79.0802 31.8322 78.8623 31.964C78.6514 32.0958 78.5459 32.2831 78.5459 32.526C78.5459 32.7688 78.6443 32.9769 78.8412 33.1504C79.038 33.3169 79.2841 33.4418 79.5794 33.525C79.8747 33.6013 80.1946 33.7019 80.5391 33.8268C80.8836 33.9448 81.2035 34.0731 81.4988 34.2119C81.7941 34.3437 82.0366 34.5553 82.2264 34.8467C82.4233 35.1311 82.5217 35.478 82.5217 35.8874C82.5217 36.5257 82.2616 37.0356 81.7413 37.4172C81.2281 37.7988 80.5602 37.9896 79.7376 37.9896C79.1751 37.9896 78.6303 37.8855 78.103 37.6774C77.7162 37.5247 77.3653 37.3328 77.0504 37.1017C76.8467 36.9523 76.7979 36.6834 76.9101 36.4621C77.083 36.1209 77.5525 36.0414 77.8827 36.2499C78.0749 36.3713 78.2749 36.476 78.4826 36.5638C78.9326 36.7442 79.3579 36.8344 79.7587 36.8344C80.1946 36.8344 80.5321 36.7581 80.7711 36.6055C81.0172 36.4459 81.1402 36.2273 81.1402 35.9498C81.1402 35.7001 81.0418 35.4919 80.8449 35.3254C80.6481 35.152 80.402 35.0271 80.1067 34.9508C79.8114 34.8675 79.4915 34.7704 79.147 34.6594C78.8025 34.5414 78.4826 34.42 78.1873 34.2951C77.892 34.1633 77.646 33.9552 77.4491 33.6707C77.2522 33.3863 77.1538 33.0428 77.1538 32.6404C77.1538 32.023 77.3999 31.5304 77.892 31.1626C78.3842 30.7949 79.0345 30.6111 79.8431 30.6111Z" fill="white"/>
<defs>
<linearGradient id="paint0_linear_10_1924" x1="6.74042" y1="15.3943" x2="18.3161" y2="21.3478" gradientUnits="userSpaceOnUse">
<stop stop-color="#004EEB"/>
<stop offset="1" stop-color="#2970FF"/>
</linearGradient>
<linearGradient id="paint1_linear_10_1924" x1="1.10552" y1="22.3302" x2="31.0889" y2="34.3396" gradientUnits="userSpaceOnUse">
<stop stop-color="#2970FF"/>
<stop offset="1" stop-color="#7CD4FD"/>
</linearGradient>
<linearGradient id="paint2_linear_10_1924" x1="21.0412" y1="10.2114" x2="25.262" y2="5.20044" gradientUnits="userSpaceOnUse">
<stop stop-color="#A6EF67"/>
<stop offset="1" stop-color="#FDE172"/>
</linearGradient>
<linearGradient id="paint3_linear_10_1924" x1="16.0812" y1="9.32766" x2="30.9548" y2="36.2614" gradientUnits="userSpaceOnUse">
<stop stop-color="#A6EF67"/>
<stop offset="1" stop-color="#15B79E"/>
</linearGradient>
<linearGradient id="paint4_linear_10_1924" x1="22.0409" y1="1.48676" x2="34.6202" y2="9.98083" gradientUnits="userSpaceOnUse">
<stop stop-color="#FDE172"/>
<stop offset="1" stop-color="#EAAA08"/>
</linearGradient>
</defs>
</svg>
