<svg width="565" height="428" viewBox="0 0 565 428" fill="none" xmlns="http://www.w3.org/2000/svg">
<rect x="0.5" y="0.5" width="564" height="427" rx="7.5" fill="#F9FAFB"/>
<path d="M287.765 258V243.455H292.68C293.816 243.455 294.749 243.649 295.478 244.037C296.208 244.42 296.747 244.948 297.098 245.621C297.448 246.293 297.623 247.058 297.623 247.915C297.623 248.772 297.448 249.532 297.098 250.195C296.747 250.857 296.21 251.378 295.485 251.757C294.761 252.131 293.835 252.318 292.708 252.318H288.731V250.727H292.652C293.428 250.727 294.053 250.614 294.527 250.386C295.005 250.159 295.35 249.837 295.564 249.42C295.781 248.999 295.89 248.497 295.89 247.915C295.89 247.332 295.781 246.823 295.564 246.388C295.346 245.952 294.998 245.616 294.52 245.379C294.041 245.138 293.409 245.017 292.623 245.017H289.527V258H287.765ZM294.612 251.466L298.191 258H296.146L292.623 251.466H294.612ZM304.788 258.227C303.737 258.227 302.83 257.995 302.067 257.531C301.31 257.062 300.725 256.409 300.313 255.571C299.906 254.728 299.702 253.748 299.702 252.631C299.702 251.513 299.906 250.528 300.313 249.676C300.725 248.819 301.298 248.152 302.032 247.673C302.771 247.19 303.632 246.949 304.617 246.949C305.185 246.949 305.746 247.044 306.3 247.233C306.854 247.422 307.359 247.73 307.813 248.156C308.268 248.578 308.63 249.136 308.9 249.832C309.17 250.528 309.305 251.385 309.305 252.403V253.114H300.896V251.665H307.6C307.6 251.049 307.477 250.5 307.231 250.017C306.989 249.534 306.644 249.153 306.194 248.874C305.749 248.594 305.223 248.455 304.617 248.455C303.95 248.455 303.372 248.62 302.884 248.952C302.401 249.278 302.03 249.705 301.769 250.23C301.509 250.756 301.379 251.319 301.379 251.92V252.886C301.379 253.71 301.521 254.409 301.805 254.982C302.094 255.55 302.494 255.983 303.005 256.281C303.516 256.575 304.111 256.722 304.788 256.722C305.228 256.722 305.626 256.66 305.981 256.537C306.341 256.409 306.651 256.22 306.911 255.969C307.172 255.713 307.373 255.396 307.515 255.017L309.134 255.472C308.964 256.021 308.677 256.504 308.275 256.92C307.872 257.332 307.375 257.654 306.783 257.886C306.192 258.114 305.526 258.227 304.788 258.227ZM313.531 243.455V258H311.854V243.455H313.531ZM319.811 258.256C319.119 258.256 318.492 258.125 317.929 257.865C317.365 257.6 316.918 257.219 316.586 256.722C316.255 256.22 316.089 255.614 316.089 254.903C316.089 254.278 316.212 253.772 316.458 253.384C316.705 252.991 317.034 252.683 317.446 252.46C317.858 252.238 318.312 252.072 318.809 251.963C319.311 251.849 319.815 251.759 320.322 251.693C320.985 251.608 321.522 251.544 321.934 251.501C322.351 251.454 322.654 251.376 322.843 251.267C323.038 251.158 323.135 250.969 323.135 250.699V250.642C323.135 249.941 322.943 249.397 322.559 249.009C322.181 248.62 321.605 248.426 320.833 248.426C320.033 248.426 319.406 248.601 318.951 248.952C318.497 249.302 318.177 249.676 317.993 250.074L316.402 249.506C316.686 248.843 317.065 248.327 317.538 247.957C318.016 247.583 318.537 247.323 319.1 247.176C319.669 247.025 320.227 246.949 320.777 246.949C321.127 246.949 321.529 246.991 321.984 247.077C322.443 247.157 322.886 247.325 323.312 247.581C323.743 247.837 324.1 248.223 324.385 248.739C324.669 249.255 324.811 249.946 324.811 250.812V258H323.135V256.523H323.049C322.936 256.759 322.746 257.013 322.481 257.283C322.216 257.553 321.863 257.782 321.423 257.972C320.983 258.161 320.445 258.256 319.811 258.256ZM320.066 256.75C320.729 256.75 321.288 256.62 321.743 256.359C322.202 256.099 322.547 255.763 322.779 255.351C323.016 254.939 323.135 254.506 323.135 254.051V252.517C323.064 252.602 322.907 252.68 322.666 252.751C322.429 252.818 322.154 252.877 321.842 252.929C321.534 252.976 321.234 253.019 320.94 253.057C320.651 253.09 320.417 253.118 320.237 253.142C319.801 253.199 319.394 253.291 319.015 253.419C318.641 253.542 318.338 253.729 318.106 253.98C317.879 254.226 317.765 254.562 317.765 254.989C317.765 255.571 317.981 256.011 318.412 256.31C318.847 256.603 319.399 256.75 320.066 256.75ZM332.614 247.091V248.511H326.961V247.091H332.614ZM328.609 244.477H330.285V254.875C330.285 255.348 330.353 255.704 330.491 255.94C330.633 256.172 330.813 256.329 331.031 256.409C331.253 256.485 331.487 256.523 331.734 256.523C331.918 256.523 332.07 256.513 332.188 256.494C332.307 256.471 332.401 256.452 332.472 256.438L332.813 257.943C332.7 257.986 332.541 258.028 332.337 258.071C332.134 258.118 331.876 258.142 331.563 258.142C331.09 258.142 330.626 258.04 330.171 257.837C329.721 257.633 329.347 257.323 329.049 256.906C328.755 256.49 328.609 255.964 328.609 255.33V244.477ZM335.136 258V247.091H336.812V258H335.136ZM335.988 245.273C335.661 245.273 335.379 245.161 335.143 244.939C334.911 244.716 334.795 244.449 334.795 244.136C334.795 243.824 334.911 243.556 335.143 243.334C335.379 243.111 335.661 243 335.988 243C336.315 243 336.594 243.111 336.826 243.334C337.063 243.556 337.181 243.824 337.181 244.136C337.181 244.449 337.063 244.716 336.826 244.939C336.594 245.161 336.315 245.273 335.988 245.273ZM344.314 258.227C343.329 258.227 342.465 257.993 341.721 257.524C340.983 257.055 340.405 256.4 339.988 255.557C339.576 254.714 339.37 253.729 339.37 252.602C339.37 251.466 339.576 250.474 339.988 249.626C340.405 248.779 340.983 248.121 341.721 247.652C342.465 247.183 343.329 246.949 344.314 246.949C345.298 246.949 346.16 247.183 346.899 247.652C347.642 248.121 348.22 248.779 348.632 249.626C349.048 250.474 349.257 251.466 349.257 252.602C349.257 253.729 349.048 254.714 348.632 255.557C348.22 256.4 347.642 257.055 346.899 257.524C346.16 257.993 345.298 258.227 344.314 258.227ZM344.314 256.722C345.062 256.722 345.677 256.53 346.16 256.146C346.643 255.763 347.001 255.259 347.233 254.634C347.465 254.009 347.581 253.331 347.581 252.602C347.581 251.873 347.465 251.194 347.233 250.564C347.001 249.934 346.643 249.425 346.16 249.037C345.677 248.649 345.062 248.455 344.314 248.455C343.565 248.455 342.95 248.649 342.467 249.037C341.984 249.425 341.627 249.934 341.395 250.564C341.163 251.194 341.047 251.873 341.047 252.602C341.047 253.331 341.163 254.009 341.395 254.634C341.627 255.259 341.984 255.763 342.467 256.146C342.95 256.53 343.565 256.722 344.314 256.722ZM353.491 251.438V258H351.815V247.091H353.435V248.795H353.577C353.832 248.241 354.221 247.796 354.741 247.46C355.262 247.119 355.935 246.949 356.759 246.949C357.497 246.949 358.143 247.1 358.697 247.403C359.251 247.702 359.682 248.156 359.99 248.767C360.298 249.373 360.452 250.14 360.452 251.068V258H358.776V251.182C358.776 250.325 358.553 249.657 358.108 249.179C357.663 248.696 357.052 248.455 356.276 248.455C355.741 248.455 355.262 248.571 354.841 248.803C354.424 249.035 354.095 249.373 353.854 249.818C353.612 250.263 353.491 250.803 353.491 251.438ZM366.725 258.256C366.033 258.256 365.406 258.125 364.843 257.865C364.279 257.6 363.832 257.219 363.5 256.722C363.169 256.22 363.003 255.614 363.003 254.903C363.003 254.278 363.126 253.772 363.373 253.384C363.619 252.991 363.948 252.683 364.36 252.46C364.772 252.238 365.226 252.072 365.723 251.963C366.225 251.849 366.73 251.759 367.236 251.693C367.899 251.608 368.436 251.544 368.848 251.501C369.265 251.454 369.568 251.376 369.757 251.267C369.952 251.158 370.049 250.969 370.049 250.699V250.642C370.049 249.941 369.857 249.397 369.473 249.009C369.095 248.62 368.519 248.426 367.748 248.426C366.947 248.426 366.32 248.601 365.865 248.952C365.411 249.302 365.091 249.676 364.907 250.074L363.316 249.506C363.6 248.843 363.979 248.327 364.452 247.957C364.93 247.583 365.451 247.323 366.015 247.176C366.583 247.025 367.141 246.949 367.691 246.949C368.041 246.949 368.444 246.991 368.898 247.077C369.357 247.157 369.8 247.325 370.226 247.581C370.657 247.837 371.015 248.223 371.299 248.739C371.583 249.255 371.725 249.946 371.725 250.812V258H370.049V256.523H369.963C369.85 256.759 369.66 257.013 369.395 257.283C369.13 257.553 368.777 257.782 368.337 257.972C367.897 258.161 367.359 258.256 366.725 258.256ZM366.98 256.75C367.643 256.75 368.202 256.62 368.657 256.359C369.116 256.099 369.462 255.763 369.694 255.351C369.93 254.939 370.049 254.506 370.049 254.051V252.517C369.978 252.602 369.821 252.68 369.58 252.751C369.343 252.818 369.069 252.877 368.756 252.929C368.448 252.976 368.148 253.019 367.854 253.057C367.565 253.09 367.331 253.118 367.151 253.142C366.715 253.199 366.308 253.291 365.929 253.419C365.555 253.542 365.252 253.729 365.02 253.98C364.793 254.226 364.679 254.562 364.679 254.989C364.679 255.571 364.895 256.011 365.326 256.31C365.761 256.603 366.313 256.75 366.98 256.75ZM376.46 243.455V258H374.784V243.455H376.46ZM293.27 288H288.781V273.455H293.468C294.879 273.455 296.087 273.746 297.091 274.328C298.094 274.906 298.864 275.737 299.399 276.821C299.934 277.901 300.201 279.193 300.201 280.699C300.201 282.214 299.931 283.518 299.392 284.612C298.852 285.701 298.066 286.539 297.034 287.126C296.002 287.709 294.747 288 293.27 288ZM290.542 286.438H293.156C294.359 286.438 295.355 286.205 296.146 285.741C296.937 285.277 297.526 284.617 297.914 283.76C298.303 282.903 298.497 281.883 298.497 280.699C298.497 279.525 298.305 278.514 297.922 277.666C297.538 276.814 296.965 276.161 296.203 275.706C295.44 275.247 294.491 275.017 293.355 275.017H290.542V286.438ZM306.139 288.256C305.448 288.256 304.82 288.125 304.257 287.865C303.693 287.6 303.246 287.219 302.914 286.722C302.583 286.22 302.417 285.614 302.417 284.903C302.417 284.278 302.54 283.772 302.787 283.384C303.033 282.991 303.362 282.683 303.774 282.46C304.186 282.238 304.64 282.072 305.137 281.963C305.639 281.849 306.144 281.759 306.65 281.693C307.313 281.608 307.85 281.544 308.262 281.501C308.679 281.454 308.982 281.376 309.172 281.267C309.366 281.158 309.463 280.969 309.463 280.699V280.642C309.463 279.941 309.271 279.397 308.887 279.009C308.509 278.62 307.933 278.426 307.162 278.426C306.361 278.426 305.734 278.601 305.279 278.952C304.825 279.302 304.505 279.676 304.321 280.074L302.73 279.506C303.014 278.843 303.393 278.327 303.866 277.957C304.344 277.583 304.865 277.323 305.429 277.176C305.997 277.025 306.556 276.949 307.105 276.949C307.455 276.949 307.858 276.991 308.312 277.077C308.771 277.157 309.214 277.325 309.64 277.581C310.071 277.837 310.429 278.223 310.713 278.739C310.997 279.255 311.139 279.946 311.139 280.812V288H309.463V286.523H309.377C309.264 286.759 309.074 287.013 308.809 287.283C308.544 287.553 308.191 287.782 307.751 287.972C307.311 288.161 306.773 288.256 306.139 288.256ZM306.395 286.75C307.057 286.75 307.616 286.62 308.071 286.359C308.53 286.099 308.876 285.763 309.108 285.351C309.344 284.939 309.463 284.506 309.463 284.051V282.517C309.392 282.602 309.235 282.68 308.994 282.751C308.757 282.818 308.483 282.877 308.17 282.929C307.862 282.976 307.562 283.019 307.268 283.057C306.979 283.09 306.745 283.118 306.565 283.142C306.129 283.199 305.722 283.291 305.343 283.419C304.969 283.542 304.666 283.729 304.434 283.98C304.207 284.226 304.093 284.562 304.093 284.989C304.093 285.571 304.309 286.011 304.74 286.31C305.175 286.603 305.727 286.75 306.395 286.75ZM318.942 277.091V278.511H313.289V277.091H318.942ZM314.937 274.477H316.613V284.875C316.613 285.348 316.682 285.704 316.819 285.94C316.961 286.172 317.141 286.329 317.359 286.409C317.581 286.485 317.816 286.523 318.062 286.523C318.246 286.523 318.398 286.513 318.516 286.494C318.635 286.471 318.729 286.452 318.8 286.438L319.141 287.943C319.028 287.986 318.869 288.028 318.665 288.071C318.462 288.118 318.204 288.142 317.891 288.142C317.418 288.142 316.954 288.04 316.499 287.837C316.049 287.633 315.675 287.323 315.377 286.906C315.084 286.49 314.937 285.964 314.937 285.33V274.477ZM324.674 288.256C323.983 288.256 323.355 288.125 322.792 287.865C322.228 287.6 321.781 287.219 321.45 286.722C321.118 286.22 320.952 285.614 320.952 284.903C320.952 284.278 321.076 283.772 321.322 283.384C321.568 282.991 321.897 282.683 322.309 282.46C322.721 282.238 323.175 282.072 323.673 281.963C324.174 281.849 324.679 281.759 325.185 281.693C325.848 281.608 326.386 281.544 326.798 281.501C327.214 281.454 327.517 281.376 327.707 281.267C327.901 281.158 327.998 280.969 327.998 280.699V280.642C327.998 279.941 327.806 279.397 327.423 279.009C327.044 278.62 326.469 278.426 325.697 278.426C324.897 278.426 324.269 278.601 323.815 278.952C323.36 279.302 323.04 279.676 322.856 280.074L321.265 279.506C321.549 278.843 321.928 278.327 322.401 277.957C322.879 277.583 323.4 277.323 323.964 277.176C324.532 277.025 325.091 276.949 325.64 276.949C325.99 276.949 326.393 276.991 326.847 277.077C327.307 277.157 327.749 277.325 328.175 277.581C328.606 277.837 328.964 278.223 329.248 278.739C329.532 279.255 329.674 279.946 329.674 280.812V288H327.998V286.523H327.913C327.799 286.759 327.61 287.013 327.344 287.283C327.079 287.553 326.727 287.782 326.286 287.972C325.846 288.161 325.308 288.256 324.674 288.256ZM324.93 286.75C325.593 286.75 326.151 286.62 326.606 286.359C327.065 286.099 327.411 285.763 327.643 285.351C327.879 284.939 327.998 284.506 327.998 284.051V282.517C327.927 282.602 327.771 282.68 327.529 282.751C327.292 282.818 327.018 282.877 326.705 282.929C326.397 282.976 326.097 283.019 325.803 283.057C325.514 283.09 325.28 283.118 325.1 283.142C324.665 283.199 324.257 283.291 323.879 283.419C323.504 283.542 323.201 283.729 322.969 283.98C322.742 284.226 322.629 284.562 322.629 284.989C322.629 285.571 322.844 286.011 323.275 286.31C323.71 286.603 324.262 286.75 324.93 286.75ZM332.961 288V273.455H334.637V278.824H334.779C334.902 278.634 335.072 278.393 335.29 278.099C335.513 277.801 335.83 277.536 336.242 277.304C336.658 277.067 337.222 276.949 337.932 276.949C338.851 276.949 339.66 277.179 340.361 277.638C341.062 278.097 341.609 278.748 342.002 279.591C342.395 280.434 342.591 281.428 342.591 282.574C342.591 283.729 342.395 284.731 342.002 285.578C341.609 286.421 341.064 287.074 340.368 287.538C339.672 287.998 338.87 288.227 337.961 288.227C337.26 288.227 336.699 288.111 336.277 287.879C335.856 287.643 335.532 287.375 335.304 287.077C335.077 286.774 334.902 286.523 334.779 286.324H334.58V288H332.961ZM334.608 282.545C334.608 283.369 334.729 284.096 334.971 284.726C335.212 285.351 335.565 285.841 336.029 286.196C336.493 286.546 337.061 286.722 337.733 286.722C338.434 286.722 339.019 286.537 339.488 286.168C339.961 285.794 340.316 285.292 340.553 284.662C340.794 284.027 340.915 283.322 340.915 282.545C340.915 281.778 340.797 281.087 340.56 280.472C340.328 279.851 339.975 279.361 339.502 279.001C339.033 278.637 338.444 278.455 337.733 278.455C337.051 278.455 336.479 278.627 336.015 278.973C335.551 279.314 335.2 279.792 334.963 280.408C334.727 281.018 334.608 281.731 334.608 282.545ZM348.365 288.256C347.674 288.256 347.047 288.125 346.483 287.865C345.92 287.6 345.472 287.219 345.141 286.722C344.81 286.22 344.644 285.614 344.644 284.903C344.644 284.278 344.767 283.772 345.013 283.384C345.259 282.991 345.588 282.683 346 282.46C346.412 282.238 346.867 282.072 347.364 281.963C347.866 281.849 348.37 281.759 348.877 281.693C349.54 281.608 350.077 281.544 350.489 281.501C350.906 281.454 351.209 281.376 351.398 281.267C351.592 281.158 351.689 280.969 351.689 280.699V280.642C351.689 279.941 351.498 279.397 351.114 279.009C350.735 278.62 350.16 278.426 349.388 278.426C348.588 278.426 347.961 278.601 347.506 278.952C347.051 279.302 346.732 279.676 346.547 280.074L344.956 279.506C345.24 278.843 345.619 278.327 346.093 277.957C346.571 277.583 347.092 277.323 347.655 277.176C348.223 277.025 348.782 276.949 349.331 276.949C349.682 276.949 350.084 276.991 350.539 277.077C350.998 277.157 351.441 277.325 351.867 277.581C352.298 277.837 352.655 278.223 352.939 278.739C353.223 279.255 353.365 279.946 353.365 280.812V288H351.689V286.523H351.604C351.49 286.759 351.301 287.013 351.036 287.283C350.771 287.553 350.418 287.782 349.978 287.972C349.537 288.161 349 288.256 348.365 288.256ZM348.621 286.75C349.284 286.75 349.843 286.62 350.297 286.359C350.757 286.099 351.102 285.763 351.334 285.351C351.571 284.939 351.689 284.506 351.689 284.051V282.517C351.618 282.602 351.462 282.68 351.221 282.751C350.984 282.818 350.709 282.877 350.397 282.929C350.089 282.976 349.788 283.019 349.495 283.057C349.206 283.09 348.971 283.118 348.792 283.142C348.356 283.199 347.949 283.291 347.57 283.419C347.196 283.542 346.893 283.729 346.661 283.98C346.434 284.226 346.32 284.562 346.32 284.989C346.32 285.571 346.535 286.011 346.966 286.31C347.402 286.603 347.953 286.75 348.621 286.75ZM364.152 279.534L362.646 279.96C362.552 279.709 362.412 279.465 362.227 279.229C362.047 278.987 361.801 278.788 361.489 278.632C361.176 278.476 360.776 278.398 360.288 278.398C359.621 278.398 359.064 278.552 358.619 278.859C358.179 279.162 357.959 279.548 357.959 280.017C357.959 280.434 358.11 280.763 358.413 281.004C358.716 281.246 359.19 281.447 359.834 281.608L361.453 282.006C362.429 282.242 363.155 282.605 363.634 283.092C364.112 283.575 364.351 284.198 364.351 284.96C364.351 285.585 364.171 286.144 363.811 286.636C363.456 287.129 362.959 287.517 362.32 287.801C361.68 288.085 360.937 288.227 360.089 288.227C358.977 288.227 358.056 287.986 357.327 287.503C356.598 287.02 356.136 286.314 355.942 285.386L357.533 284.989C357.684 285.576 357.971 286.016 358.392 286.31C358.818 286.603 359.375 286.75 360.061 286.75C360.842 286.75 361.463 286.584 361.922 286.253C362.386 285.917 362.618 285.514 362.618 285.045C362.618 284.667 362.485 284.349 362.22 284.094C361.955 283.833 361.548 283.639 360.999 283.511L359.18 283.085C358.181 282.848 357.447 282.482 356.979 281.984C356.515 281.482 356.283 280.855 356.283 280.102C356.283 279.487 356.455 278.942 356.801 278.469C357.152 277.995 357.627 277.624 358.229 277.354C358.835 277.084 359.521 276.949 360.288 276.949C361.368 276.949 362.215 277.186 362.831 277.659C363.451 278.133 363.892 278.758 364.152 279.534ZM371.448 288.227C370.397 288.227 369.49 287.995 368.728 287.531C367.97 287.062 367.385 286.409 366.973 285.571C366.566 284.728 366.363 283.748 366.363 282.631C366.363 281.513 366.566 280.528 366.973 279.676C367.385 278.819 367.958 278.152 368.692 277.673C369.431 277.19 370.292 276.949 371.277 276.949C371.846 276.949 372.407 277.044 372.961 277.233C373.515 277.422 374.019 277.73 374.473 278.156C374.928 278.578 375.29 279.136 375.56 279.832C375.83 280.528 375.965 281.385 375.965 282.403V283.114H367.556V281.665H374.26C374.26 281.049 374.137 280.5 373.891 280.017C373.65 279.534 373.304 279.153 372.854 278.874C372.409 278.594 371.883 278.455 371.277 278.455C370.61 278.455 370.032 278.62 369.544 278.952C369.061 279.278 368.69 279.705 368.429 280.23C368.169 280.756 368.039 281.319 368.039 281.92V282.886C368.039 283.71 368.181 284.409 368.465 284.982C368.754 285.55 369.154 285.983 369.665 286.281C370.176 286.575 370.771 286.722 371.448 286.722C371.888 286.722 372.286 286.66 372.641 286.537C373.001 286.409 373.311 286.22 373.571 285.969C373.832 285.713 374.033 285.396 374.175 285.017L375.794 285.472C375.624 286.021 375.337 286.504 374.935 286.92C374.533 287.332 374.035 287.654 373.444 287.886C372.852 288.114 372.186 288.227 371.448 288.227Z" fill="white"/>
<rect x="33.5" y="248.5" width="405" height="68" rx="15.5" fill="#ECFDF5"/>
<path d="M193.906 280.5H192.496C192.413 280.095 192.267 279.739 192.059 279.432C191.854 279.125 191.604 278.867 191.309 278.659C191.017 278.447 190.693 278.288 190.337 278.182C189.981 278.076 189.61 278.023 189.224 278.023C188.519 278.023 187.881 278.201 187.309 278.557C186.741 278.913 186.288 279.438 185.951 280.131C185.618 280.824 185.451 281.674 185.451 282.682C185.451 283.689 185.618 284.54 185.951 285.233C186.288 285.926 186.741 286.451 187.309 286.807C187.881 287.163 188.519 287.341 189.224 287.341C189.61 287.341 189.981 287.288 190.337 287.182C190.693 287.076 191.017 286.919 191.309 286.71C191.604 286.498 191.854 286.239 192.059 285.932C192.267 285.621 192.413 285.265 192.496 284.864H193.906C193.799 285.458 193.606 285.991 193.326 286.46C193.046 286.93 192.697 287.33 192.281 287.659C191.864 287.985 191.396 288.233 190.877 288.403C190.362 288.574 189.811 288.659 189.224 288.659C188.231 288.659 187.349 288.417 186.576 287.932C185.803 287.447 185.195 286.758 184.752 285.864C184.309 284.97 184.087 283.909 184.087 282.682C184.087 281.455 184.309 280.394 184.752 279.5C185.195 278.606 185.803 277.917 186.576 277.432C187.349 276.947 188.231 276.705 189.224 276.705C189.811 276.705 190.362 276.79 190.877 276.96C191.396 277.131 191.864 277.381 192.281 277.71C192.697 278.036 193.046 278.434 193.326 278.903C193.606 279.369 193.799 279.902 193.906 280.5ZM199.546 288.682C198.758 288.682 198.067 288.494 197.472 288.119C196.881 287.744 196.419 287.22 196.086 286.545C195.756 285.871 195.592 285.083 195.592 284.182C195.592 283.273 195.756 282.479 196.086 281.801C196.419 281.123 196.881 280.597 197.472 280.222C198.067 279.847 198.758 279.659 199.546 279.659C200.334 279.659 201.023 279.847 201.614 280.222C202.209 280.597 202.671 281.123 203.001 281.801C203.334 282.479 203.501 283.273 203.501 284.182C203.501 285.083 203.334 285.871 203.001 286.545C202.671 287.22 202.209 287.744 201.614 288.119C201.023 288.494 200.334 288.682 199.546 288.682ZM199.546 287.477C200.145 287.477 200.637 287.324 201.023 287.017C201.41 286.71 201.696 286.307 201.881 285.807C202.067 285.307 202.16 284.765 202.16 284.182C202.16 283.598 202.067 283.055 201.881 282.551C201.696 282.047 201.41 281.64 201.023 281.33C200.637 281.019 200.145 280.864 199.546 280.864C198.948 280.864 198.455 281.019 198.069 281.33C197.683 281.64 197.397 282.047 197.211 282.551C197.025 283.055 196.933 283.598 196.933 284.182C196.933 284.765 197.025 285.307 197.211 285.807C197.397 286.307 197.683 286.71 198.069 287.017C198.455 287.324 198.948 287.477 199.546 287.477ZM205.548 288.5V279.773H206.843V281.091H206.934C207.093 280.659 207.381 280.309 207.798 280.04C208.214 279.771 208.684 279.636 209.207 279.636C209.305 279.636 209.428 279.638 209.576 279.642C209.724 279.646 209.835 279.652 209.911 279.659V281.023C209.866 281.011 209.762 280.994 209.599 280.972C209.44 280.945 209.271 280.932 209.093 280.932C208.669 280.932 208.29 281.021 207.957 281.199C207.627 281.373 207.366 281.616 207.173 281.926C206.983 282.233 206.888 282.583 206.888 282.977V288.5H205.548ZM214.894 288.682C214.053 288.682 213.328 288.496 212.718 288.125C212.112 287.75 211.644 287.227 211.315 286.557C210.989 285.883 210.826 285.098 210.826 284.205C210.826 283.311 210.989 282.523 211.315 281.841C211.644 281.155 212.103 280.621 212.69 280.239C213.281 279.852 213.97 279.659 214.758 279.659C215.212 279.659 215.661 279.735 216.104 279.886C216.548 280.038 216.951 280.284 217.315 280.625C217.678 280.962 217.968 281.409 218.184 281.966C218.4 282.523 218.508 283.208 218.508 284.023V284.591H211.781V283.432H217.144C217.144 282.939 217.046 282.5 216.849 282.114C216.656 281.727 216.379 281.422 216.019 281.199C215.663 280.975 215.243 280.864 214.758 280.864C214.224 280.864 213.762 280.996 213.371 281.261C212.985 281.523 212.688 281.864 212.479 282.284C212.271 282.705 212.167 283.155 212.167 283.636V284.409C212.167 285.068 212.281 285.627 212.508 286.085C212.739 286.54 213.059 286.886 213.468 287.125C213.877 287.36 214.353 287.477 214.894 287.477C215.246 287.477 215.565 287.428 215.849 287.33C216.137 287.227 216.385 287.076 216.593 286.875C216.801 286.67 216.962 286.417 217.076 286.114L218.371 286.477C218.235 286.917 218.006 287.303 217.684 287.636C217.362 287.966 216.964 288.223 216.491 288.409C216.017 288.591 215.485 288.682 214.894 288.682ZM231.593 279.773C231.525 279.197 231.248 278.75 230.763 278.432C230.279 278.114 229.684 277.955 228.979 277.955C228.464 277.955 228.013 278.038 227.627 278.205C227.245 278.371 226.945 278.6 226.729 278.892C226.517 279.184 226.411 279.515 226.411 279.886C226.411 280.197 226.485 280.464 226.633 280.688C226.784 280.907 226.978 281.091 227.212 281.239C227.447 281.383 227.693 281.502 227.951 281.597C228.209 281.687 228.445 281.761 228.661 281.818L229.843 282.136C230.146 282.216 230.483 282.326 230.854 282.466C231.229 282.606 231.587 282.797 231.928 283.04C232.273 283.278 232.557 283.585 232.781 283.96C233.004 284.335 233.116 284.795 233.116 285.341C233.116 285.97 232.951 286.538 232.621 287.045C232.296 287.553 231.818 287.956 231.19 288.256C230.565 288.555 229.805 288.705 228.911 288.705C228.078 288.705 227.356 288.57 226.746 288.301C226.14 288.032 225.663 287.657 225.315 287.176C224.97 286.695 224.775 286.136 224.729 285.5H226.184C226.222 285.939 226.37 286.303 226.627 286.591C226.888 286.875 227.218 287.087 227.616 287.227C228.017 287.364 228.449 287.432 228.911 287.432C229.449 287.432 229.932 287.345 230.36 287.17C230.788 286.992 231.127 286.746 231.377 286.432C231.627 286.114 231.752 285.742 231.752 285.318C231.752 284.932 231.644 284.617 231.428 284.375C231.212 284.133 230.928 283.936 230.576 283.784C230.224 283.633 229.843 283.5 229.434 283.386L228.002 282.977C227.093 282.716 226.373 282.343 225.843 281.858C225.313 281.373 225.048 280.739 225.048 279.955C225.048 279.303 225.224 278.735 225.576 278.25C225.932 277.761 226.409 277.383 227.008 277.114C227.61 276.841 228.282 276.705 229.025 276.705C229.775 276.705 230.442 276.839 231.025 277.108C231.608 277.373 232.07 277.737 232.411 278.199C232.756 278.661 232.938 279.186 232.957 279.773H231.593ZM238.91 288.682C238.069 288.682 237.344 288.496 236.734 288.125C236.128 287.75 235.66 287.227 235.33 286.557C235.004 285.883 234.842 285.098 234.842 284.205C234.842 283.311 235.004 282.523 235.33 281.841C235.66 281.155 236.118 280.621 236.705 280.239C237.296 279.852 237.986 279.659 238.773 279.659C239.228 279.659 239.677 279.735 240.12 279.886C240.563 280.038 240.967 280.284 241.33 280.625C241.694 280.962 241.984 281.409 242.2 281.966C242.415 282.523 242.523 283.208 242.523 284.023V284.591H235.796V283.432H241.16C241.16 282.939 241.061 282.5 240.864 282.114C240.671 281.727 240.395 281.422 240.035 281.199C239.679 280.975 239.258 280.864 238.773 280.864C238.239 280.864 237.777 280.996 237.387 281.261C237.001 281.523 236.703 281.864 236.495 282.284C236.287 282.705 236.183 283.155 236.183 283.636V284.409C236.183 285.068 236.296 285.627 236.523 286.085C236.754 286.54 237.075 286.886 237.484 287.125C237.893 287.36 238.368 287.477 238.91 287.477C239.262 287.477 239.58 287.428 239.864 287.33C240.152 287.227 240.4 287.076 240.609 286.875C240.817 286.67 240.978 286.417 241.092 286.114L242.387 286.477C242.251 286.917 242.022 287.303 241.7 287.636C241.378 287.966 240.98 288.223 240.506 288.409C240.033 288.591 239.501 288.682 238.91 288.682ZM244.563 288.5V279.773H245.859V281.091H245.95C246.109 280.659 246.397 280.309 246.813 280.04C247.23 279.771 247.7 279.636 248.222 279.636C248.321 279.636 248.444 279.638 248.592 279.642C248.739 279.646 248.851 279.652 248.927 279.659V281.023C248.881 281.011 248.777 280.994 248.614 280.972C248.455 280.945 248.287 280.932 248.109 280.932C247.684 280.932 247.306 281.021 246.972 281.199C246.643 281.373 246.381 281.616 246.188 281.926C245.999 282.233 245.904 282.583 245.904 282.977V288.5H244.563ZM257.918 279.773L254.691 288.5H253.327L250.1 279.773H251.555L253.964 286.727H254.055L256.464 279.773H257.918ZM259.688 288.5V279.773H261.029V288.5H259.688ZM260.37 278.318C260.109 278.318 259.883 278.229 259.694 278.051C259.508 277.873 259.415 277.659 259.415 277.409C259.415 277.159 259.508 276.945 259.694 276.767C259.883 276.589 260.109 276.5 260.37 276.5C260.631 276.5 260.855 276.589 261.04 276.767C261.23 276.945 261.325 277.159 261.325 277.409C261.325 277.659 261.23 277.873 261.04 278.051C260.855 278.229 260.631 278.318 260.37 278.318ZM267.031 288.682C266.212 288.682 265.508 288.489 264.917 288.102C264.326 287.716 263.871 287.184 263.553 286.506C263.235 285.828 263.076 285.053 263.076 284.182C263.076 283.295 263.239 282.513 263.565 281.835C263.894 281.153 264.353 280.621 264.94 280.239C265.531 279.852 266.22 279.659 267.008 279.659C267.621 279.659 268.174 279.773 268.667 280C269.159 280.227 269.563 280.545 269.877 280.955C270.192 281.364 270.387 281.841 270.462 282.386H269.121C269.019 281.989 268.792 281.636 268.44 281.33C268.091 281.019 267.621 280.864 267.031 280.864C266.508 280.864 266.049 281 265.656 281.273C265.265 281.542 264.96 281.922 264.741 282.415C264.525 282.903 264.417 283.477 264.417 284.136C264.417 284.811 264.523 285.398 264.735 285.898C264.951 286.398 265.254 286.786 265.644 287.062C266.038 287.339 266.5 287.477 267.031 287.477C267.379 287.477 267.695 287.417 267.979 287.295C268.263 287.174 268.504 287 268.701 286.773C268.898 286.545 269.038 286.273 269.121 285.955H270.462C270.387 286.47 270.199 286.934 269.9 287.347C269.604 287.756 269.212 288.081 268.724 288.324C268.239 288.562 267.674 288.682 267.031 288.682ZM276.082 288.682C275.241 288.682 274.515 288.496 273.906 288.125C273.299 287.75 272.832 287.227 272.502 286.557C272.176 285.883 272.013 285.098 272.013 284.205C272.013 283.311 272.176 282.523 272.502 281.841C272.832 281.155 273.29 280.621 273.877 280.239C274.468 279.852 275.157 279.659 275.945 279.659C276.4 279.659 276.849 279.735 277.292 279.886C277.735 280.038 278.138 280.284 278.502 280.625C278.866 280.962 279.156 281.409 279.371 281.966C279.587 282.523 279.695 283.208 279.695 284.023V284.591H272.968V283.432H278.332C278.332 282.939 278.233 282.5 278.036 282.114C277.843 281.727 277.567 281.422 277.207 281.199C276.851 280.975 276.43 280.864 275.945 280.864C275.411 280.864 274.949 280.996 274.559 281.261C274.173 281.523 273.875 281.864 273.667 282.284C273.459 282.705 273.354 283.155 273.354 283.636V284.409C273.354 285.068 273.468 285.627 273.695 286.085C273.926 286.54 274.246 286.886 274.656 287.125C275.065 287.36 275.54 287.477 276.082 287.477C276.434 287.477 276.752 287.428 277.036 287.33C277.324 287.227 277.572 287.076 277.781 286.875C277.989 286.67 278.15 286.417 278.263 286.114L279.559 286.477C279.423 286.917 279.193 287.303 278.871 287.636C278.549 287.966 278.152 288.223 277.678 288.409C277.205 288.591 276.673 288.682 276.082 288.682ZM287.917 281.727L286.712 282.068C286.637 281.867 286.525 281.672 286.377 281.483C286.233 281.29 286.036 281.131 285.786 281.006C285.536 280.881 285.216 280.818 284.826 280.818C284.292 280.818 283.847 280.941 283.491 281.188C283.138 281.43 282.962 281.739 282.962 282.114C282.962 282.447 283.084 282.71 283.326 282.903C283.568 283.097 283.947 283.258 284.462 283.386L285.758 283.705C286.538 283.894 287.12 284.184 287.502 284.574C287.885 284.96 288.076 285.458 288.076 286.068C288.076 286.568 287.932 287.015 287.644 287.409C287.36 287.803 286.962 288.114 286.451 288.341C285.94 288.568 285.345 288.682 284.667 288.682C283.777 288.682 283.04 288.489 282.457 288.102C281.873 287.716 281.504 287.152 281.349 286.409L282.621 286.091C282.743 286.561 282.972 286.913 283.309 287.148C283.65 287.383 284.095 287.5 284.644 287.5C285.269 287.5 285.765 287.367 286.133 287.102C286.504 286.833 286.69 286.511 286.69 286.136C286.69 285.833 286.584 285.58 286.371 285.375C286.159 285.167 285.834 285.011 285.394 284.909L283.94 284.568C283.14 284.379 282.553 284.085 282.178 283.688C281.807 283.286 281.621 282.784 281.621 282.182C281.621 281.689 281.76 281.254 282.036 280.875C282.317 280.496 282.697 280.199 283.178 279.983C283.663 279.767 284.212 279.659 284.826 279.659C285.69 279.659 286.368 279.848 286.86 280.227C287.356 280.606 287.709 281.106 287.917 281.727Z" fill="#374151"/>
<rect x="33.5" y="248.5" width="405" height="68" rx="15.5" stroke="#10B981"/>
<rect x="33.5" y="325.5" width="405" height="68" rx="15.5" fill="#FFF7ED"/>
<path d="M180.038 357.5H178.629C178.546 357.095 178.4 356.739 178.192 356.432C177.987 356.125 177.737 355.867 177.442 355.659C177.15 355.447 176.826 355.288 176.47 355.182C176.114 355.076 175.743 355.023 175.357 355.023C174.652 355.023 174.014 355.201 173.442 355.557C172.874 355.913 172.421 356.438 172.084 357.131C171.75 357.824 171.584 358.674 171.584 359.682C171.584 360.689 171.75 361.54 172.084 362.233C172.421 362.926 172.874 363.451 173.442 363.807C174.014 364.163 174.652 364.341 175.357 364.341C175.743 364.341 176.114 364.288 176.47 364.182C176.826 364.076 177.15 363.919 177.442 363.71C177.737 363.498 177.987 363.239 178.192 362.932C178.4 362.621 178.546 362.265 178.629 361.864H180.038C179.932 362.458 179.739 362.991 179.459 363.46C179.179 363.93 178.83 364.33 178.413 364.659C177.997 364.985 177.529 365.233 177.01 365.403C176.495 365.574 175.944 365.659 175.357 365.659C174.364 365.659 173.482 365.417 172.709 364.932C171.936 364.447 171.328 363.758 170.885 362.864C170.442 361.97 170.22 360.909 170.22 359.682C170.22 358.455 170.442 357.394 170.885 356.5C171.328 355.606 171.936 354.917 172.709 354.432C173.482 353.947 174.364 353.705 175.357 353.705C175.944 353.705 176.495 353.79 177.01 353.96C177.529 354.131 177.997 354.381 178.413 354.71C178.83 355.036 179.179 355.434 179.459 355.903C179.739 356.369 179.932 356.902 180.038 357.5ZM185.679 365.682C184.891 365.682 184.2 365.494 183.605 365.119C183.014 364.744 182.552 364.22 182.219 363.545C181.889 362.871 181.724 362.083 181.724 361.182C181.724 360.273 181.889 359.479 182.219 358.801C182.552 358.123 183.014 357.597 183.605 357.222C184.2 356.847 184.891 356.659 185.679 356.659C186.467 356.659 187.156 356.847 187.747 357.222C188.342 357.597 188.804 358.123 189.134 358.801C189.467 359.479 189.634 360.273 189.634 361.182C189.634 362.083 189.467 362.871 189.134 363.545C188.804 364.22 188.342 364.744 187.747 365.119C187.156 365.494 186.467 365.682 185.679 365.682ZM185.679 364.477C186.277 364.477 186.77 364.324 187.156 364.017C187.543 363.71 187.829 363.307 188.014 362.807C188.2 362.307 188.293 361.765 188.293 361.182C188.293 360.598 188.2 360.055 188.014 359.551C187.829 359.047 187.543 358.64 187.156 358.33C186.77 358.019 186.277 357.864 185.679 357.864C185.08 357.864 184.588 358.019 184.202 358.33C183.815 358.64 183.529 359.047 183.344 359.551C183.158 360.055 183.065 360.598 183.065 361.182C183.065 361.765 183.158 362.307 183.344 362.807C183.529 363.307 183.815 363.71 184.202 364.017C184.588 364.324 185.08 364.477 185.679 364.477ZM191.68 365.5V356.773H192.976V358.091H193.067C193.226 357.659 193.514 357.309 193.93 357.04C194.347 356.771 194.817 356.636 195.339 356.636C195.438 356.636 195.561 356.638 195.709 356.642C195.857 356.646 195.968 356.652 196.044 356.659V358.023C195.999 358.011 195.894 357.994 195.732 357.972C195.572 357.945 195.404 357.932 195.226 357.932C194.802 357.932 194.423 358.021 194.089 358.199C193.76 358.373 193.499 358.616 193.305 358.926C193.116 359.233 193.021 359.583 193.021 359.977V365.5H191.68ZM201.027 365.682C200.186 365.682 199.461 365.496 198.851 365.125C198.245 364.75 197.777 364.227 197.447 363.557C197.122 362.883 196.959 362.098 196.959 361.205C196.959 360.311 197.122 359.523 197.447 358.841C197.777 358.155 198.235 357.621 198.822 357.239C199.413 356.852 200.103 356.659 200.891 356.659C201.345 356.659 201.794 356.735 202.237 356.886C202.68 357.038 203.084 357.284 203.447 357.625C203.811 357.962 204.101 358.409 204.317 358.966C204.533 359.523 204.641 360.208 204.641 361.023V361.591H197.913V360.432H203.277C203.277 359.939 203.179 359.5 202.982 359.114C202.788 358.727 202.512 358.422 202.152 358.199C201.796 357.975 201.375 357.864 200.891 357.864C200.357 357.864 199.894 357.996 199.504 358.261C199.118 358.523 198.821 358.864 198.612 359.284C198.404 359.705 198.3 360.155 198.3 360.636V361.409C198.3 362.068 198.413 362.627 198.641 363.085C198.872 363.54 199.192 363.886 199.601 364.125C200.01 364.36 200.485 364.477 201.027 364.477C201.379 364.477 201.697 364.428 201.982 364.33C202.269 364.227 202.518 364.076 202.726 363.875C202.934 363.67 203.095 363.417 203.209 363.114L204.504 363.477C204.368 363.917 204.139 364.303 203.817 364.636C203.495 364.966 203.097 365.223 202.624 365.409C202.15 365.591 201.618 365.682 201.027 365.682ZM211.362 365.5V353.864H218.339V355.114H212.771V359.045H217.817V360.295H212.771V365.5H211.362ZM223.476 365.682C222.688 365.682 221.997 365.494 221.402 365.119C220.811 364.744 220.349 364.22 220.016 363.545C219.686 362.871 219.521 362.083 219.521 361.182C219.521 360.273 219.686 359.479 220.016 358.801C220.349 358.123 220.811 357.597 221.402 357.222C221.997 356.847 222.688 356.659 223.476 356.659C224.264 356.659 224.953 356.847 225.544 357.222C226.139 357.597 226.601 358.123 226.93 358.801C227.264 359.479 227.43 360.273 227.43 361.182C227.43 362.083 227.264 362.871 226.93 363.545C226.601 364.22 226.139 364.744 225.544 365.119C224.953 365.494 224.264 365.682 223.476 365.682ZM223.476 364.477C224.074 364.477 224.567 364.324 224.953 364.017C225.339 363.71 225.625 363.307 225.811 362.807C225.997 362.307 226.089 361.765 226.089 361.182C226.089 360.598 225.997 360.055 225.811 359.551C225.625 359.047 225.339 358.64 224.953 358.33C224.567 358.019 224.074 357.864 223.476 357.864C222.877 357.864 222.385 358.019 221.999 358.33C221.612 358.64 221.326 359.047 221.141 359.551C220.955 360.055 220.862 360.598 220.862 361.182C220.862 361.765 220.955 362.307 221.141 362.807C221.326 363.307 221.612 363.71 221.999 364.017C222.385 364.324 222.877 364.477 223.476 364.477ZM234.977 361.932V356.773H236.318V365.5H234.977V364.023H234.886C234.682 364.466 234.364 364.843 233.932 365.153C233.5 365.46 232.955 365.614 232.295 365.614C231.75 365.614 231.265 365.494 230.841 365.256C230.417 365.013 230.083 364.65 229.841 364.165C229.598 363.676 229.477 363.061 229.477 362.318V356.773H230.818V362.227C230.818 362.864 230.996 363.371 231.352 363.75C231.712 364.129 232.17 364.318 232.727 364.318C233.061 364.318 233.4 364.233 233.744 364.062C234.093 363.892 234.384 363.631 234.619 363.278C234.858 362.926 234.977 362.477 234.977 361.932ZM240.115 360.25V365.5H238.774V356.773H240.07V358.136H240.183C240.388 357.693 240.698 357.337 241.115 357.068C241.532 356.795 242.07 356.659 242.729 356.659C243.32 356.659 243.837 356.78 244.28 357.023C244.723 357.261 245.068 357.625 245.314 358.114C245.56 358.598 245.683 359.212 245.683 359.955V365.5H244.342V360.045C244.342 359.36 244.164 358.826 243.808 358.443C243.452 358.057 242.964 357.864 242.342 357.864C241.914 357.864 241.532 357.956 241.195 358.142C240.861 358.328 240.598 358.598 240.405 358.955C240.212 359.311 240.115 359.742 240.115 360.25ZM251.429 365.682C250.702 365.682 250.06 365.498 249.503 365.131C248.946 364.759 248.51 364.237 248.196 363.562C247.882 362.884 247.724 362.083 247.724 361.159C247.724 360.242 247.882 359.447 248.196 358.773C248.51 358.098 248.948 357.578 249.509 357.21C250.069 356.843 250.717 356.659 251.452 356.659C252.02 356.659 252.469 356.754 252.798 356.943C253.132 357.129 253.385 357.341 253.56 357.58C253.738 357.814 253.876 358.008 253.974 358.159H254.088V353.864H255.429V365.5H254.134V364.159H253.974C253.876 364.318 253.736 364.519 253.554 364.761C253.372 365 253.113 365.214 252.776 365.403C252.438 365.589 251.99 365.682 251.429 365.682ZM251.611 364.477C252.149 364.477 252.603 364.337 252.974 364.057C253.346 363.773 253.628 363.381 253.821 362.881C254.014 362.377 254.111 361.795 254.111 361.136C254.111 360.485 254.016 359.915 253.827 359.426C253.637 358.934 253.357 358.551 252.986 358.278C252.615 358.002 252.156 357.864 251.611 357.864C251.043 357.864 250.569 358.009 250.19 358.301C249.815 358.589 249.533 358.981 249.344 359.477C249.158 359.97 249.065 360.523 249.065 361.136C249.065 361.758 249.16 362.322 249.349 362.83C249.543 363.333 249.827 363.735 250.202 364.034C250.58 364.33 251.05 364.477 251.611 364.477ZM260.639 365.705C260.086 365.705 259.584 365.6 259.134 365.392C258.683 365.18 258.325 364.875 258.06 364.477C257.795 364.076 257.662 363.591 257.662 363.023C257.662 362.523 257.76 362.117 257.957 361.807C258.154 361.492 258.418 361.246 258.747 361.068C259.077 360.89 259.44 360.758 259.838 360.67C260.24 360.58 260.643 360.508 261.048 360.455C261.579 360.386 262.009 360.335 262.338 360.301C262.671 360.263 262.914 360.201 263.065 360.114C263.221 360.027 263.298 359.875 263.298 359.659V359.614C263.298 359.053 263.145 358.617 262.838 358.307C262.535 357.996 262.075 357.841 261.457 357.841C260.817 357.841 260.315 357.981 259.952 358.261C259.588 358.542 259.332 358.841 259.185 359.159L257.912 358.705C258.139 358.174 258.442 357.761 258.821 357.466C259.204 357.167 259.62 356.958 260.071 356.841C260.526 356.72 260.973 356.659 261.412 356.659C261.692 356.659 262.014 356.693 262.378 356.761C262.745 356.826 263.099 356.96 263.44 357.165C263.785 357.369 264.071 357.678 264.298 358.091C264.526 358.504 264.639 359.057 264.639 359.75V365.5H263.298V364.318H263.23C263.139 364.508 262.988 364.71 262.776 364.926C262.563 365.142 262.281 365.326 261.929 365.477C261.577 365.629 261.147 365.705 260.639 365.705ZM260.844 364.5C261.374 364.5 261.821 364.396 262.185 364.188C262.552 363.979 262.829 363.71 263.014 363.381C263.204 363.051 263.298 362.705 263.298 362.341V361.114C263.241 361.182 263.116 361.244 262.923 361.301C262.734 361.354 262.514 361.402 262.264 361.443C262.018 361.481 261.777 361.515 261.543 361.545C261.312 361.572 261.124 361.595 260.98 361.614C260.632 361.659 260.306 361.733 260.003 361.835C259.704 361.934 259.461 362.083 259.276 362.284C259.094 362.481 259.003 362.75 259.003 363.091C259.003 363.557 259.175 363.909 259.52 364.148C259.868 364.383 260.31 364.5 260.844 364.5ZM270.882 356.773V357.909H266.359V356.773H270.882ZM267.678 354.682H269.018V363C269.018 363.379 269.073 363.663 269.183 363.852C269.297 364.038 269.441 364.163 269.615 364.227C269.793 364.288 269.981 364.318 270.178 364.318C270.325 364.318 270.446 364.311 270.541 364.295C270.636 364.277 270.712 364.261 270.768 364.25L271.041 365.455C270.95 365.489 270.823 365.523 270.661 365.557C270.498 365.595 270.291 365.614 270.041 365.614C269.662 365.614 269.291 365.532 268.928 365.369C268.568 365.206 268.268 364.958 268.03 364.625C267.795 364.292 267.678 363.871 267.678 363.364V354.682ZM272.899 365.5V356.773H274.24V365.5H272.899ZM273.581 355.318C273.32 355.318 273.094 355.229 272.905 355.051C272.719 354.873 272.626 354.659 272.626 354.409C272.626 354.159 272.719 353.945 272.905 353.767C273.094 353.589 273.32 353.5 273.581 353.5C273.842 353.5 274.066 353.589 274.251 353.767C274.441 353.945 274.536 354.159 274.536 354.409C274.536 354.659 274.441 354.873 274.251 355.051C274.066 355.229 273.842 355.318 273.581 355.318ZM280.241 365.682C279.454 365.682 278.762 365.494 278.168 365.119C277.577 364.744 277.115 364.22 276.781 363.545C276.452 362.871 276.287 362.083 276.287 361.182C276.287 360.273 276.452 359.479 276.781 358.801C277.115 358.123 277.577 357.597 278.168 357.222C278.762 356.847 279.454 356.659 280.241 356.659C281.029 356.659 281.719 356.847 282.31 357.222C282.904 357.597 283.366 358.123 283.696 358.801C284.029 359.479 284.196 360.273 284.196 361.182C284.196 362.083 284.029 362.871 283.696 363.545C283.366 364.22 282.904 364.744 282.31 365.119C281.719 365.494 281.029 365.682 280.241 365.682ZM280.241 364.477C280.84 364.477 281.332 364.324 281.719 364.017C282.105 363.71 282.391 363.307 282.577 362.807C282.762 362.307 282.855 361.765 282.855 361.182C282.855 360.598 282.762 360.055 282.577 359.551C282.391 359.047 282.105 358.64 281.719 358.33C281.332 358.019 280.84 357.864 280.241 357.864C279.643 357.864 279.151 358.019 278.764 358.33C278.378 358.64 278.092 359.047 277.906 359.551C277.721 360.055 277.628 360.598 277.628 361.182C277.628 361.765 277.721 362.307 277.906 362.807C278.092 363.307 278.378 363.71 278.764 364.017C279.151 364.324 279.643 364.477 280.241 364.477ZM287.584 360.25V365.5H286.243V356.773H287.538V358.136H287.652C287.857 357.693 288.167 357.337 288.584 357.068C289 356.795 289.538 356.659 290.197 356.659C290.788 356.659 291.305 356.78 291.749 357.023C292.192 357.261 292.536 357.625 292.783 358.114C293.029 358.598 293.152 359.212 293.152 359.955V365.5H291.811V360.045C291.811 359.36 291.633 358.826 291.277 358.443C290.921 358.057 290.432 357.864 289.811 357.864C289.383 357.864 289 357.956 288.663 358.142C288.33 358.328 288.067 358.598 287.874 358.955C287.68 359.311 287.584 359.742 287.584 360.25ZM301.784 358.727L300.58 359.068C300.504 358.867 300.392 358.672 300.244 358.483C300.1 358.29 299.903 358.131 299.653 358.006C299.403 357.881 299.083 357.818 298.693 357.818C298.159 357.818 297.714 357.941 297.358 358.188C297.006 358.43 296.83 358.739 296.83 359.114C296.83 359.447 296.951 359.71 297.193 359.903C297.436 360.097 297.814 360.258 298.33 360.386L299.625 360.705C300.405 360.894 300.987 361.184 301.369 361.574C301.752 361.96 301.943 362.458 301.943 363.068C301.943 363.568 301.799 364.015 301.511 364.409C301.227 364.803 300.83 365.114 300.318 365.341C299.807 365.568 299.212 365.682 298.534 365.682C297.644 365.682 296.907 365.489 296.324 365.102C295.741 364.716 295.371 364.152 295.216 363.409L296.489 363.091C296.61 363.561 296.839 363.913 297.176 364.148C297.517 364.383 297.962 364.5 298.511 364.5C299.136 364.5 299.633 364.367 300 364.102C300.371 363.833 300.557 363.511 300.557 363.136C300.557 362.833 300.451 362.58 300.239 362.375C300.027 362.167 299.701 362.011 299.261 361.909L297.807 361.568C297.008 361.379 296.42 361.085 296.045 360.688C295.674 360.286 295.489 359.784 295.489 359.182C295.489 358.689 295.627 358.254 295.903 357.875C296.184 357.496 296.564 357.199 297.045 356.983C297.53 356.767 298.08 356.659 298.693 356.659C299.557 356.659 300.235 356.848 300.727 357.227C301.223 357.606 301.576 358.106 301.784 358.727Z" fill="#374151"/>
<rect x="33.5" y="325.5" width="405" height="68" rx="15.5" stroke="#F59E0B"/>
<rect x="0.25" y="-0.25" width="498.5" height="0.5" transform="matrix(1 0 0 -1 33 44.5)" fill="#29A9C9" stroke="#29A9C9" stroke-width="0.5"/>
<rect x="0.25" y="-0.25" width="498.5" height="0.5" transform="matrix(1 0 0 -1 33 228.5)" fill="#10B981" stroke="#10B981" stroke-width="0.5"/>
<path d="M416.409 36V24.3636H417.818V29.5455H424.023V24.3636H425.432V36H424.023V30.7955H417.818V36H416.409ZM427.616 25.6136V24.3636H436.344V25.6136H432.685V36H431.276V25.6136H427.616ZM437.882 25.6136V24.3636H446.609V25.6136H442.95V36H441.541V25.6136H437.882ZM448.784 36V24.3636H452.716C453.629 24.3636 454.375 24.5284 454.955 24.858C455.538 25.1837 455.97 25.625 456.25 26.1818C456.53 26.7386 456.67 27.3598 456.67 28.0455C456.67 28.7311 456.53 29.3542 456.25 29.9148C455.973 30.4754 455.545 30.9223 454.966 31.2557C454.386 31.5852 453.644 31.75 452.739 31.75H449.92V30.5H452.693C453.318 30.5 453.82 30.392 454.199 30.1761C454.578 29.9602 454.852 29.6686 455.023 29.3011C455.197 28.9299 455.284 28.5114 455.284 28.0455C455.284 27.5795 455.197 27.1629 455.023 26.7955C454.852 26.428 454.576 26.1402 454.193 25.9318C453.811 25.7197 453.303 25.6136 452.67 25.6136H450.193V36H448.784ZM463.44 36V24.3636H467.372C468.281 24.3636 469.027 24.5189 469.611 24.8295C470.194 25.1364 470.626 25.5587 470.906 26.0966C471.187 26.6345 471.327 27.2462 471.327 27.9318C471.327 28.6174 471.187 29.2254 470.906 29.7557C470.626 30.286 470.196 30.7027 469.616 31.0057C469.037 31.3049 468.296 31.4545 467.395 31.4545H464.213V30.1818H467.349C467.971 30.1818 468.471 30.0909 468.849 29.9091C469.232 29.7273 469.509 29.4697 469.679 29.1364C469.853 28.7992 469.94 28.3977 469.94 27.9318C469.94 27.4659 469.853 27.0587 469.679 26.7102C469.505 26.3617 469.226 26.0928 468.844 25.9034C468.461 25.7102 467.955 25.6136 467.327 25.6136H464.849V36H463.44ZM468.918 30.7727L471.781 36H470.145L467.327 30.7727H468.918ZM473.675 36V24.3636H480.697V25.6136H475.084V29.5455H480.334V30.7955H475.084V34.75H480.788V36H473.675ZM489.601 27.2727C489.533 26.697 489.256 26.25 488.771 25.9318C488.286 25.6136 487.692 25.4545 486.987 25.4545C486.472 25.4545 486.021 25.5379 485.635 25.7045C485.252 25.8712 484.953 26.1004 484.737 26.392C484.525 26.6837 484.419 27.0152 484.419 27.3864C484.419 27.697 484.493 27.964 484.641 28.1875C484.792 28.4072 484.985 28.5909 485.22 28.7386C485.455 28.8826 485.701 29.0019 485.959 29.0966C486.216 29.1875 486.453 29.2614 486.669 29.3182L487.851 29.6364C488.154 29.7159 488.491 29.8258 488.862 29.9659C489.237 30.1061 489.595 30.2973 489.936 30.5398C490.281 30.7784 490.565 31.0852 490.788 31.4602C491.012 31.8352 491.124 32.2955 491.124 32.8409C491.124 33.4697 490.959 34.0379 490.629 34.5455C490.304 35.053 489.826 35.4564 489.197 35.7557C488.572 36.0549 487.813 36.2045 486.919 36.2045C486.086 36.2045 485.364 36.0701 484.754 35.8011C484.148 35.5322 483.671 35.1572 483.322 34.6761C482.978 34.1951 482.783 33.6364 482.737 33H484.192C484.23 33.4394 484.377 33.803 484.635 34.0909C484.896 34.375 485.226 34.5871 485.624 34.7273C486.025 34.8636 486.457 34.9318 486.919 34.9318C487.457 34.9318 487.94 34.8447 488.368 34.6705C488.796 34.4924 489.135 34.2462 489.385 33.9318C489.635 33.6136 489.76 33.2424 489.76 32.8182C489.76 32.4318 489.652 32.1174 489.436 31.875C489.22 31.6326 488.936 31.4356 488.584 31.2841C488.232 31.1326 487.851 31 487.442 30.8864L486.01 30.4773C485.101 30.2159 484.381 29.8428 483.851 29.358C483.321 28.8731 483.055 28.2386 483.055 27.4545C483.055 26.803 483.232 26.2348 483.584 25.75C483.94 25.2614 484.417 24.8826 485.016 24.6136C485.618 24.3409 486.29 24.2045 487.033 24.2045C487.783 24.2045 488.449 24.339 489.033 24.608C489.616 24.8731 490.078 25.2367 490.419 25.6989C490.764 26.161 490.946 26.6856 490.964 27.2727H489.601ZM492.804 25.6136V24.3636H501.531V25.6136H497.872V36H496.463V25.6136H492.804ZM508.683 36H507.206L511.479 24.3636H512.933L517.206 36H515.729L512.251 26.2045H512.161L508.683 36ZM509.229 31.4545H515.183V32.7045H509.229V31.4545ZM519.018 36V24.3636H522.95C523.863 24.3636 524.609 24.5284 525.189 24.858C525.772 25.1837 526.204 25.625 526.484 26.1818C526.765 26.7386 526.905 27.3598 526.905 28.0455C526.905 28.7311 526.765 29.3542 526.484 29.9148C526.208 30.4754 525.78 30.9223 525.2 31.2557C524.621 31.5852 523.878 31.75 522.973 31.75H520.155V30.5H522.928C523.553 30.5 524.054 30.392 524.433 30.1761C524.812 29.9602 525.087 29.6686 525.257 29.3011C525.431 28.9299 525.518 28.5114 525.518 28.0455C525.518 27.5795 525.431 27.1629 525.257 26.7955C525.087 26.428 524.81 26.1402 524.428 25.9318C524.045 25.7197 523.537 25.6136 522.905 25.6136H520.428V36H519.018ZM530.584 24.3636V36H529.175V24.3636H530.584Z" fill="#29A9C9"/>
<path d="M413.456 220V208.364H414.865V214.136H415.001L420.229 208.364H422.07L417.183 213.614L422.07 220H420.365L416.32 214.591L414.865 216.227V220H413.456ZM424.259 220V211.273H425.599V220H424.259ZM424.94 209.818C424.679 209.818 424.454 209.729 424.264 209.551C424.079 209.373 423.986 209.159 423.986 208.909C423.986 208.659 424.079 208.445 424.264 208.267C424.454 208.089 424.679 208 424.94 208C425.202 208 425.425 208.089 425.611 208.267C425.8 208.445 425.895 208.659 425.895 208.909C425.895 209.159 425.8 209.373 425.611 209.551C425.425 209.729 425.202 209.818 424.94 209.818ZM429.396 208.364V220H428.055V208.364H429.396ZM433.193 208.364V220H431.852V208.364H433.193ZM440.331 220V208.364H444.399C445.21 208.364 445.878 208.504 446.405 208.784C446.931 209.061 447.323 209.434 447.581 209.903C447.839 210.369 447.967 210.886 447.967 211.455C447.967 211.955 447.878 212.367 447.7 212.693C447.526 213.019 447.295 213.277 447.007 213.466C446.723 213.655 446.414 213.795 446.081 213.886V214C446.437 214.023 446.795 214.148 447.155 214.375C447.515 214.602 447.816 214.928 448.058 215.352C448.301 215.777 448.422 216.295 448.422 216.909C448.422 217.492 448.289 218.017 448.024 218.483C447.759 218.949 447.34 219.318 446.768 219.591C446.196 219.864 445.452 220 444.536 220H440.331ZM441.74 218.75H444.536C445.456 218.75 446.109 218.572 446.496 218.216C446.886 217.856 447.081 217.42 447.081 216.909C447.081 216.515 446.981 216.152 446.78 215.818C446.579 215.481 446.293 215.212 445.922 215.011C445.551 214.807 445.111 214.705 444.604 214.705H441.74V218.75ZM441.74 213.477H444.354C444.778 213.477 445.161 213.394 445.501 213.227C445.846 213.061 446.119 212.826 446.32 212.523C446.524 212.22 446.626 211.864 446.626 211.455C446.626 210.943 446.448 210.509 446.092 210.153C445.736 209.794 445.172 209.614 444.399 209.614H441.74V213.477ZM450.555 220V211.273H451.896V220H450.555ZM451.237 209.818C450.976 209.818 450.75 209.729 450.561 209.551C450.375 209.373 450.283 209.159 450.283 208.909C450.283 208.659 450.375 208.445 450.561 208.267C450.75 208.089 450.976 208 451.237 208C451.499 208 451.722 208.089 451.908 208.267C452.097 208.445 452.192 208.659 452.192 208.909C452.192 209.159 452.097 209.373 451.908 209.551C451.722 209.729 451.499 209.818 451.237 209.818ZM455.693 208.364V220H454.352V208.364H455.693ZM459.49 208.364V220H458.149V208.364H459.49ZM471.082 208.364H472.491V216.682C472.491 217.424 472.355 218.055 472.082 218.574C471.81 219.093 471.425 219.487 470.929 219.756C470.433 220.025 469.848 220.159 469.173 220.159C468.537 220.159 467.971 220.044 467.474 219.812C466.978 219.578 466.588 219.244 466.304 218.812C466.02 218.381 465.878 217.867 465.878 217.273H467.264C467.264 217.602 467.346 217.89 467.509 218.136C467.675 218.379 467.902 218.568 468.19 218.705C468.478 218.841 468.806 218.909 469.173 218.909C469.579 218.909 469.923 218.824 470.207 218.653C470.491 218.483 470.707 218.233 470.855 217.903C471.007 217.57 471.082 217.163 471.082 216.682V208.364ZM475.793 220H474.315L478.588 208.364H480.043L484.315 220H482.838L479.361 210.205H479.27L475.793 220ZM476.338 215.455H482.293V216.705H476.338V215.455ZM485.511 208.364L488.966 218.159H489.102L492.557 208.364H494.034L489.761 220H488.307L484.034 208.364H485.511ZM495.324 220H493.847L498.119 208.364H499.574L503.847 220H502.369L498.892 210.205H498.801L495.324 220ZM495.869 215.455H501.824V216.705H495.869V215.455ZM510.636 220H509.159L513.432 208.364H514.886L519.159 220H517.682L514.205 210.205H514.114L510.636 220ZM511.182 215.455H517.136V216.705H511.182V215.455ZM520.972 220V208.364H524.903C525.816 208.364 526.563 208.528 527.142 208.858C527.725 209.184 528.157 209.625 528.438 210.182C528.718 210.739 528.858 211.36 528.858 212.045C528.858 212.731 528.718 213.354 528.438 213.915C528.161 214.475 527.733 214.922 527.153 215.256C526.574 215.585 525.831 215.75 524.926 215.75H522.108V214.5H524.881C525.506 214.5 526.008 214.392 526.386 214.176C526.765 213.96 527.04 213.669 527.21 213.301C527.384 212.93 527.472 212.511 527.472 212.045C527.472 211.58 527.384 211.163 527.21 210.795C527.04 210.428 526.763 210.14 526.381 209.932C525.998 209.72 525.491 209.614 524.858 209.614H522.381V220H520.972ZM532.537 208.364V220H531.128V208.364H532.537Z" fill="#10B981"/>
<rect x="0.5" y="0.5" width="564" height="427" rx="7.5" stroke="#6B7280" stroke-dasharray="10 10"/>
<g clip-path="url(#clip0_3547_45719)">
<rect x="33" y="78" width="406" height="120" rx="8" fill="#E8F2F8"/>
<rect x="51.5" y="97.5" width="164" height="81" rx="15.5" fill="white"/>
<path d="M104.175 128V116.364H108.107C109.019 116.364 109.766 116.528 110.345 116.858C110.929 117.184 111.36 117.625 111.641 118.182C111.921 118.739 112.061 119.36 112.061 120.045C112.061 120.731 111.921 121.354 111.641 121.915C111.364 122.475 110.936 122.922 110.357 123.256C109.777 123.585 109.035 123.75 108.129 123.75H105.311V122.5H108.084C108.709 122.5 109.211 122.392 109.589 122.176C109.968 121.96 110.243 121.669 110.413 121.301C110.588 120.93 110.675 120.511 110.675 120.045C110.675 119.58 110.588 119.163 110.413 118.795C110.243 118.428 109.966 118.14 109.584 117.932C109.201 117.72 108.694 117.614 108.061 117.614H105.584V128H104.175ZM115.49 116.364V128H114.149V116.364H115.49ZM123.446 124.432V119.273H124.787V128H123.446V126.523H123.355C123.151 126.966 122.832 127.343 122.401 127.653C121.969 127.96 121.423 128.114 120.764 128.114C120.219 128.114 119.734 127.994 119.31 127.756C118.885 127.513 118.552 127.15 118.31 126.665C118.067 126.176 117.946 125.561 117.946 124.818V119.273H119.287V124.727C119.287 125.364 119.465 125.871 119.821 126.25C120.181 126.629 120.639 126.818 121.196 126.818C121.529 126.818 121.868 126.733 122.213 126.562C122.562 126.392 122.853 126.131 123.088 125.778C123.327 125.426 123.446 124.977 123.446 124.432ZM130.766 131.455C130.118 131.455 129.561 131.371 129.095 131.205C128.629 131.042 128.241 130.826 127.93 130.557C127.624 130.292 127.379 130.008 127.197 129.705L128.266 128.955C128.387 129.114 128.54 129.295 128.726 129.5C128.911 129.708 129.165 129.888 129.487 130.04C129.813 130.195 130.239 130.273 130.766 130.273C131.47 130.273 132.052 130.102 132.51 129.761C132.968 129.42 133.197 128.886 133.197 128.159V126.386H133.084C132.985 126.545 132.845 126.742 132.663 126.977C132.485 127.208 132.228 127.415 131.891 127.597C131.557 127.775 131.107 127.864 130.538 127.864C129.834 127.864 129.201 127.697 128.641 127.364C128.084 127.03 127.643 126.545 127.317 125.909C126.995 125.273 126.834 124.5 126.834 123.591C126.834 122.697 126.991 121.919 127.305 121.256C127.62 120.589 128.057 120.074 128.618 119.71C129.179 119.343 129.826 119.159 130.561 119.159C131.129 119.159 131.58 119.254 131.913 119.443C132.25 119.629 132.508 119.841 132.686 120.08C132.868 120.314 133.008 120.508 133.107 120.659H133.243V119.273H134.538V128.25C134.538 129 134.368 129.61 134.027 130.08C133.69 130.553 133.235 130.9 132.663 131.119C132.095 131.343 131.463 131.455 130.766 131.455ZM130.72 126.659C131.258 126.659 131.713 126.536 132.084 126.29C132.455 126.044 132.737 125.689 132.93 125.227C133.124 124.765 133.22 124.212 133.22 123.568C133.22 122.939 133.125 122.384 132.936 121.903C132.747 121.422 132.466 121.045 132.095 120.773C131.724 120.5 131.266 120.364 130.72 120.364C130.152 120.364 129.679 120.508 129.3 120.795C128.925 121.083 128.643 121.47 128.453 121.955C128.268 122.439 128.175 122.977 128.175 123.568C128.175 124.174 128.269 124.71 128.459 125.176C128.652 125.638 128.936 126.002 129.311 126.267C129.69 126.528 130.16 126.659 130.72 126.659ZM136.993 128V119.273H138.334V128H136.993ZM137.675 117.818C137.413 117.818 137.188 117.729 136.999 117.551C136.813 117.373 136.72 117.159 136.72 116.909C136.72 116.659 136.813 116.445 136.999 116.267C137.188 116.089 137.413 116 137.675 116C137.936 116 138.16 116.089 138.345 116.267C138.535 116.445 138.629 116.659 138.629 116.909C138.629 117.159 138.535 117.373 138.345 117.551C138.16 117.729 137.936 117.818 137.675 117.818ZM142.131 122.75V128H140.79V119.273H142.085V120.636H142.199C142.403 120.193 142.714 119.837 143.131 119.568C143.547 119.295 144.085 119.159 144.744 119.159C145.335 119.159 145.852 119.28 146.295 119.523C146.739 119.761 147.083 120.125 147.33 120.614C147.576 121.098 147.699 121.712 147.699 122.455V128H146.358V122.545C146.358 121.86 146.18 121.326 145.824 120.943C145.468 120.557 144.979 120.364 144.358 120.364C143.93 120.364 143.547 120.456 143.21 120.642C142.877 120.828 142.614 121.098 142.42 121.455C142.227 121.811 142.131 122.242 142.131 122.75ZM155.308 128H153.831L158.104 116.364H159.558L163.831 128H162.354L158.876 118.205H158.786L155.308 128ZM155.854 123.455H161.808V124.705H155.854V123.455Z" fill="#374151"/>
<path d="M96.2081 160V148.364H100.356C101.261 148.364 102.011 148.528 102.606 148.858C103.201 149.187 103.646 149.638 103.941 150.21C104.237 150.778 104.384 151.419 104.384 152.131C104.384 152.847 104.235 153.491 103.935 154.062C103.64 154.631 103.193 155.081 102.594 155.415C102 155.744 101.252 155.909 100.35 155.909H97.4979V154.42H100.191C100.763 154.42 101.227 154.322 101.583 154.125C101.939 153.924 102.201 153.652 102.367 153.307C102.534 152.962 102.617 152.57 102.617 152.131C102.617 151.691 102.534 151.301 102.367 150.96C102.201 150.619 101.937 150.352 101.577 150.159C101.221 149.966 100.752 149.869 100.168 149.869H97.9638V160H96.2081ZM108.005 148.364V160H106.306V148.364H108.005ZM115.819 156.381V151.273H117.523V160H115.853V158.489H115.762C115.561 158.955 115.239 159.343 114.796 159.653C114.357 159.96 113.809 160.114 113.154 160.114C112.594 160.114 112.097 159.991 111.665 159.744C111.237 159.494 110.9 159.125 110.654 158.636C110.412 158.148 110.29 157.544 110.29 156.824V151.273H111.989V156.619C111.989 157.214 112.154 157.687 112.484 158.04C112.813 158.392 113.241 158.568 113.768 158.568C114.086 158.568 114.402 158.489 114.717 158.33C115.035 158.17 115.298 157.93 115.506 157.608C115.719 157.286 115.823 156.877 115.819 156.381ZM123.465 163.455C122.772 163.455 122.175 163.364 121.675 163.182C121.179 163 120.774 162.759 120.46 162.46C120.145 162.161 119.91 161.833 119.755 161.477L121.215 160.875C121.317 161.042 121.454 161.218 121.624 161.403C121.799 161.593 122.033 161.754 122.329 161.886C122.628 162.019 123.013 162.085 123.482 162.085C124.126 162.085 124.658 161.928 125.079 161.614C125.499 161.303 125.71 160.807 125.71 160.125V158.409H125.602C125.499 158.595 125.352 158.801 125.158 159.028C124.969 159.256 124.708 159.453 124.374 159.619C124.041 159.786 123.607 159.869 123.073 159.869C122.384 159.869 121.763 159.708 121.21 159.386C120.66 159.061 120.225 158.581 119.903 157.949C119.585 157.312 119.425 156.53 119.425 155.602C119.425 154.674 119.583 153.879 119.897 153.216C120.215 152.553 120.651 152.045 121.204 151.693C121.757 151.337 122.384 151.159 123.085 151.159C123.626 151.159 124.064 151.25 124.397 151.432C124.73 151.61 124.99 151.818 125.175 152.057C125.365 152.295 125.511 152.506 125.613 152.688H125.738V151.273H127.403V160.193C127.403 160.943 127.228 161.559 126.88 162.04C126.531 162.521 126.06 162.877 125.465 163.108C124.874 163.339 124.208 163.455 123.465 163.455ZM123.448 158.46C123.937 158.46 124.35 158.347 124.687 158.119C125.028 157.888 125.285 157.559 125.46 157.131C125.638 156.699 125.727 156.182 125.727 155.58C125.727 154.992 125.639 154.475 125.465 154.028C125.291 153.581 125.035 153.233 124.698 152.983C124.361 152.729 123.944 152.602 123.448 152.602C122.937 152.602 122.511 152.735 122.17 153C121.829 153.261 121.571 153.617 121.397 154.068C121.227 154.519 121.141 155.023 121.141 155.58C121.141 156.152 121.228 156.653 121.403 157.085C121.577 157.517 121.835 157.854 122.175 158.097C122.52 158.339 122.944 158.46 123.448 158.46ZM129.681 160V151.273H131.38V160H129.681ZM130.539 149.926C130.244 149.926 129.99 149.828 129.778 149.631C129.569 149.43 129.465 149.191 129.465 148.915C129.465 148.634 129.569 148.396 129.778 148.199C129.99 147.998 130.244 147.898 130.539 147.898C130.835 147.898 131.086 147.998 131.295 148.199C131.507 148.396 131.613 148.634 131.613 148.915C131.613 149.191 131.507 149.43 131.295 149.631C131.086 149.828 130.835 149.926 130.539 149.926ZM135.364 154.818V160H133.665V151.273H135.296V152.693H135.404C135.605 152.231 135.919 151.86 136.347 151.58C136.779 151.299 137.323 151.159 137.978 151.159C138.573 151.159 139.094 151.284 139.54 151.534C139.987 151.78 140.334 152.148 140.58 152.636C140.826 153.125 140.95 153.729 140.95 154.449V160H139.251V154.653C139.251 154.021 139.086 153.527 138.756 153.17C138.427 152.811 137.974 152.631 137.398 152.631C137.004 152.631 136.654 152.716 136.347 152.886C136.044 153.057 135.804 153.307 135.626 153.636C135.451 153.962 135.364 154.356 135.364 154.818ZM148.582 160H146.718L150.906 148.364H152.934L157.121 160H155.258L151.968 150.477H151.877L148.582 160ZM148.894 155.443H154.94V156.92H148.894V155.443ZM158.802 160V148.364H162.95C163.855 148.364 164.605 148.528 165.2 148.858C165.794 149.187 166.239 149.638 166.535 150.21C166.83 150.778 166.978 151.419 166.978 152.131C166.978 152.847 166.828 153.491 166.529 154.062C166.234 154.631 165.787 155.081 165.188 155.415C164.594 155.744 163.845 155.909 162.944 155.909H160.092V154.42H162.785C163.357 154.42 163.821 154.322 164.177 154.125C164.533 153.924 164.794 153.652 164.961 153.307C165.128 152.962 165.211 152.57 165.211 152.131C165.211 151.691 165.128 151.301 164.961 150.96C164.794 150.619 164.531 150.352 164.171 150.159C163.815 149.966 163.345 149.869 162.762 149.869H160.558V160H158.802ZM170.792 148.364V160H169.036V148.364H170.792Z" fill="#29A9C9"/>
<rect x="51.5" y="97.5" width="164" height="81" rx="15.5" stroke="#F3F4F6"/>
<rect x="256.5" y="97.5" width="164" height="81" rx="15.5" fill="white"/>
<path d="M309.378 128V116.364H313.31C314.223 116.364 314.969 116.528 315.548 116.858C316.132 117.184 316.563 117.625 316.844 118.182C317.124 118.739 317.264 119.36 317.264 120.045C317.264 120.731 317.124 121.354 316.844 121.915C316.567 122.475 316.139 122.922 315.56 123.256C314.98 123.585 314.238 123.75 313.332 123.75H310.514V122.5H313.287C313.912 122.5 314.414 122.392 314.793 122.176C315.171 121.96 315.446 121.669 315.616 121.301C315.791 120.93 315.878 120.511 315.878 120.045C315.878 119.58 315.791 119.163 315.616 118.795C315.446 118.428 315.17 118.14 314.787 117.932C314.404 117.72 313.897 117.614 313.264 117.614H310.787V128H309.378ZM320.693 116.364V128H319.352V116.364H320.693ZM328.649 124.432V119.273H329.99V128H328.649V126.523H328.558C328.354 126.966 328.036 127.343 327.604 127.653C327.172 127.96 326.626 128.114 325.967 128.114C325.422 128.114 324.937 127.994 324.513 127.756C324.089 127.513 323.755 127.15 323.513 126.665C323.27 126.176 323.149 125.561 323.149 124.818V119.273H324.49V124.727C324.49 125.364 324.668 125.871 325.024 126.25C325.384 126.629 325.842 126.818 326.399 126.818C326.732 126.818 327.071 126.733 327.416 126.562C327.765 126.392 328.056 126.131 328.291 125.778C328.53 125.426 328.649 124.977 328.649 124.432ZM335.969 131.455C335.321 131.455 334.764 131.371 334.298 131.205C333.832 131.042 333.444 130.826 333.134 130.557C332.827 130.292 332.582 130.008 332.401 129.705L333.469 128.955C333.59 129.114 333.743 129.295 333.929 129.5C334.115 129.708 334.368 129.888 334.69 130.04C335.016 130.195 335.442 130.273 335.969 130.273C336.673 130.273 337.255 130.102 337.713 129.761C338.171 129.42 338.401 128.886 338.401 128.159V126.386H338.287C338.188 126.545 338.048 126.742 337.866 126.977C337.688 127.208 337.431 127.415 337.094 127.597C336.76 127.775 336.31 127.864 335.741 127.864C335.037 127.864 334.404 127.697 333.844 127.364C333.287 127.03 332.846 126.545 332.52 125.909C332.198 125.273 332.037 124.5 332.037 123.591C332.037 122.697 332.194 121.919 332.509 121.256C332.823 120.589 333.26 120.074 333.821 119.71C334.382 119.343 335.029 119.159 335.764 119.159C336.332 119.159 336.783 119.254 337.116 119.443C337.454 119.629 337.711 119.841 337.889 120.08C338.071 120.314 338.211 120.508 338.31 120.659H338.446V119.273H339.741V128.25C339.741 129 339.571 129.61 339.23 130.08C338.893 130.553 338.438 130.9 337.866 131.119C337.298 131.343 336.666 131.455 335.969 131.455ZM335.923 126.659C336.461 126.659 336.916 126.536 337.287 126.29C337.658 126.044 337.94 125.689 338.134 125.227C338.327 124.765 338.423 124.212 338.423 123.568C338.423 122.939 338.329 122.384 338.139 121.903C337.95 121.422 337.67 121.045 337.298 120.773C336.927 120.5 336.469 120.364 335.923 120.364C335.355 120.364 334.882 120.508 334.503 120.795C334.128 121.083 333.846 121.47 333.656 121.955C333.471 122.439 333.378 122.977 333.378 123.568C333.378 124.174 333.473 124.71 333.662 125.176C333.855 125.638 334.139 126.002 334.514 126.267C334.893 126.528 335.363 126.659 335.923 126.659ZM342.196 128V119.273H343.537V128H342.196ZM342.878 117.818C342.616 117.818 342.391 117.729 342.202 117.551C342.016 117.373 341.923 117.159 341.923 116.909C341.923 116.659 342.016 116.445 342.202 116.267C342.391 116.089 342.616 116 342.878 116C343.139 116 343.363 116.089 343.548 116.267C343.738 116.445 343.832 116.659 343.832 116.909C343.832 117.159 343.738 117.373 343.548 117.551C343.363 117.729 343.139 117.818 342.878 117.818ZM347.334 122.75V128H345.993V119.273H347.288V120.636H347.402C347.607 120.193 347.917 119.837 348.334 119.568C348.75 119.295 349.288 119.159 349.947 119.159C350.538 119.159 351.055 119.28 351.499 119.523C351.942 119.761 352.286 120.125 352.533 120.614C352.779 121.098 352.902 121.712 352.902 122.455V128H351.561V122.545C351.561 121.86 351.383 121.326 351.027 120.943C350.671 120.557 350.182 120.364 349.561 120.364C349.133 120.364 348.75 120.456 348.413 120.642C348.08 120.828 347.817 121.098 347.624 121.455C347.43 121.811 347.334 122.242 347.334 122.75ZM360.034 128V116.364H364.102C364.913 116.364 365.581 116.504 366.108 116.784C366.634 117.061 367.027 117.434 367.284 117.903C367.542 118.369 367.67 118.886 367.67 119.455C367.67 119.955 367.581 120.367 367.403 120.693C367.229 121.019 366.998 121.277 366.71 121.466C366.426 121.655 366.117 121.795 365.784 121.886V122C366.14 122.023 366.498 122.148 366.858 122.375C367.218 122.602 367.519 122.928 367.761 123.352C368.004 123.777 368.125 124.295 368.125 124.909C368.125 125.492 367.992 126.017 367.727 126.483C367.462 126.949 367.044 127.318 366.472 127.591C365.9 127.864 365.155 128 364.239 128H360.034ZM361.443 126.75H364.239C365.159 126.75 365.813 126.572 366.199 126.216C366.589 125.856 366.784 125.42 366.784 124.909C366.784 124.515 366.684 124.152 366.483 123.818C366.282 123.481 365.996 123.212 365.625 123.011C365.254 122.807 364.814 122.705 364.307 122.705H361.443V126.75ZM361.443 121.477H364.057C364.481 121.477 364.864 121.394 365.205 121.227C365.549 121.061 365.822 120.826 366.023 120.523C366.227 120.22 366.33 119.864 366.33 119.455C366.33 118.943 366.152 118.509 365.795 118.153C365.439 117.794 364.875 117.614 364.102 117.614H361.443V121.477Z" fill="#374151"/>
<path d="M301.208 160V148.364H305.356C306.261 148.364 307.011 148.528 307.606 148.858C308.201 149.187 308.646 149.638 308.941 150.21C309.237 150.778 309.384 151.419 309.384 152.131C309.384 152.847 309.235 153.491 308.935 154.062C308.64 154.631 308.193 155.081 307.594 155.415C307 155.744 306.252 155.909 305.35 155.909H302.498V154.42H305.191C305.763 154.42 306.227 154.322 306.583 154.125C306.939 153.924 307.201 153.652 307.367 153.307C307.534 152.962 307.617 152.57 307.617 152.131C307.617 151.691 307.534 151.301 307.367 150.96C307.201 150.619 306.937 150.352 306.577 150.159C306.221 149.966 305.752 149.869 305.168 149.869H302.964V160H301.208ZM313.005 148.364V160H311.306V148.364H313.005ZM320.819 156.381V151.273H322.523V160H320.853V158.489H320.762C320.561 158.955 320.239 159.343 319.796 159.653C319.357 159.96 318.809 160.114 318.154 160.114C317.594 160.114 317.097 159.991 316.665 159.744C316.237 159.494 315.9 159.125 315.654 158.636C315.412 158.148 315.29 157.544 315.29 156.824V151.273H316.989V156.619C316.989 157.214 317.154 157.687 317.484 158.04C317.813 158.392 318.241 158.568 318.768 158.568C319.086 158.568 319.402 158.489 319.717 158.33C320.035 158.17 320.298 157.93 320.506 157.608C320.719 157.286 320.823 156.877 320.819 156.381ZM328.465 163.455C327.772 163.455 327.175 163.364 326.675 163.182C326.179 163 325.774 162.759 325.46 162.46C325.145 162.161 324.91 161.833 324.755 161.477L326.215 160.875C326.317 161.042 326.454 161.218 326.624 161.403C326.799 161.593 327.033 161.754 327.329 161.886C327.628 162.019 328.013 162.085 328.482 162.085C329.126 162.085 329.658 161.928 330.079 161.614C330.499 161.303 330.71 160.807 330.71 160.125V158.409H330.602C330.499 158.595 330.352 158.801 330.158 159.028C329.969 159.256 329.708 159.453 329.374 159.619C329.041 159.786 328.607 159.869 328.073 159.869C327.384 159.869 326.763 159.708 326.21 159.386C325.66 159.061 325.225 158.581 324.903 157.949C324.585 157.312 324.425 156.53 324.425 155.602C324.425 154.674 324.583 153.879 324.897 153.216C325.215 152.553 325.651 152.045 326.204 151.693C326.757 151.337 327.384 151.159 328.085 151.159C328.626 151.159 329.064 151.25 329.397 151.432C329.73 151.61 329.99 151.818 330.175 152.057C330.365 152.295 330.511 152.506 330.613 152.688H330.738V151.273H332.403V160.193C332.403 160.943 332.228 161.559 331.88 162.04C331.531 162.521 331.06 162.877 330.465 163.108C329.874 163.339 329.208 163.455 328.465 163.455ZM328.448 158.46C328.937 158.46 329.35 158.347 329.687 158.119C330.028 157.888 330.285 157.559 330.46 157.131C330.638 156.699 330.727 156.182 330.727 155.58C330.727 154.992 330.639 154.475 330.465 154.028C330.291 153.581 330.035 153.233 329.698 152.983C329.361 152.729 328.944 152.602 328.448 152.602C327.937 152.602 327.511 152.735 327.17 153C326.829 153.261 326.571 153.617 326.397 154.068C326.227 154.519 326.141 155.023 326.141 155.58C326.141 156.152 326.228 156.653 326.403 157.085C326.577 157.517 326.835 157.854 327.175 158.097C327.52 158.339 327.944 158.46 328.448 158.46ZM334.681 160V151.273H336.38V160H334.681ZM335.539 149.926C335.244 149.926 334.99 149.828 334.778 149.631C334.569 149.43 334.465 149.191 334.465 148.915C334.465 148.634 334.569 148.396 334.778 148.199C334.99 147.998 335.244 147.898 335.539 147.898C335.835 147.898 336.086 147.998 336.295 148.199C336.507 148.396 336.613 148.634 336.613 148.915C336.613 149.191 336.507 149.43 336.295 149.631C336.086 149.828 335.835 149.926 335.539 149.926ZM340.364 154.818V160H338.665V151.273H340.296V152.693H340.404C340.605 152.231 340.919 151.86 341.347 151.58C341.779 151.299 342.323 151.159 342.978 151.159C343.573 151.159 344.094 151.284 344.54 151.534C344.987 151.78 345.334 152.148 345.58 152.636C345.826 153.125 345.95 153.729 345.95 154.449V160H344.251V154.653C344.251 154.021 344.086 153.527 343.756 153.17C343.427 152.811 342.974 152.631 342.398 152.631C342.004 152.631 341.654 152.716 341.347 152.886C341.044 153.057 340.804 153.307 340.626 153.636C340.451 153.962 340.364 154.356 340.364 154.818ZM353.582 160H351.718L355.906 148.364H357.934L362.121 160H360.258L356.968 150.477H356.877L353.582 160ZM353.894 155.443H359.94V156.92H353.894V155.443ZM363.802 160V148.364H367.95C368.855 148.364 369.605 148.528 370.2 148.858C370.794 149.187 371.239 149.638 371.535 150.21C371.83 150.778 371.978 151.419 371.978 152.131C371.978 152.847 371.828 153.491 371.529 154.062C371.234 154.631 370.787 155.081 370.188 155.415C369.594 155.744 368.845 155.909 367.944 155.909H365.092V154.42H367.785C368.357 154.42 368.821 154.322 369.177 154.125C369.533 153.924 369.794 153.652 369.961 153.307C370.128 152.962 370.211 152.57 370.211 152.131C370.211 151.691 370.128 151.301 369.961 150.96C369.794 150.619 369.531 150.352 369.171 150.159C368.815 149.966 368.345 149.869 367.762 149.869H365.558V160H363.802ZM375.792 148.364V160H374.036V148.364H375.792Z" fill="#29A9C9"/>
<rect x="256.5" y="97.5" width="164" height="81" rx="15.5" stroke="#F3F4F6"/>
<path d="M217 138L224.5 142.33V133.67L217 138ZM258 138L250.5 133.67V142.33L258 138ZM223.75 138.75H251.25V137.25H223.75V138.75Z" fill="#6B7280"/>
</g>
<rect x="33.5" y="78.5" width="405" height="119" rx="7.5" stroke="#D1D5DB" stroke-dasharray="10 10"/>
<path d="M134 104L138.33 96.5H129.67L134 104ZM134.75 97.25V44H133.25V97.25H134.75Z" fill="#29A9C9"/>
<path d="M344 104L348.33 96.5H339.67L344 104ZM344.75 97.25V44H343.25V97.25H344.75Z" fill="#29A9C9"/>
<path d="M143 179L138.67 186.5H147.33L143 179ZM143.75 248V185.75H142.25V248H143.75Z" fill="#29A9C9"/>
<path d="M126 248L121.67 240.5H130.33L126 248ZM125.25 241.25V179H126.75V241.25H125.25Z" fill="#10B981"/>
<path d="M351 179L346.67 186.5H355.33L351 179ZM351.75 248V185.75H350.25V248H351.75Z" fill="#29A9C9"/>
<path d="M334 248L329.67 240.5H338.33L334 248ZM333.25 241.25V179H334.75V241.25H333.25Z" fill="#10B981"/>
<defs>
<clipPath id="clip0_3547_45719">
<rect x="33" y="78" width="406" height="120" rx="8" fill="white"/>
</clipPath>
</defs>
</svg>
