<svg width="371" height="485" viewBox="0 0 371 485" fill="none" xmlns="http://www.w3.org/2000/svg">
<rect x="0.5" y="0.5" width="322" height="435" rx="15.5" fill="#F3F4F6"/>
<path d="M91.0384 32.0696C91.0384 30.294 91.2727 28.6629 91.7415 27.1761C92.215 25.6847 92.9181 24.3068 93.8509 23.0426H96.2727C95.9129 23.5114 95.5767 24.0866 95.2642 24.7685C94.9517 25.4455 94.6795 26.1889 94.4474 26.9986C94.2202 27.8035 94.0402 28.6392 93.9077 29.5057C93.7798 30.3722 93.7159 31.2268 93.7159 32.0696C93.7159 33.1918 93.8272 34.3281 94.0497 35.4787C94.277 36.6293 94.5824 37.6946 94.9659 38.6747C95.3542 39.6596 95.7898 40.4645 96.2727 41.0895H93.8509C92.9181 39.8253 92.215 38.4498 91.7415 36.9631C91.2727 35.4716 91.0384 33.8404 91.0384 32.0696ZM103.796 27.0909V29.0795H97.3469V27.0909H103.796ZM98.9592 38V26.0611C98.9592 25.3272 99.1107 24.7164 99.4137 24.2287C99.7215 23.741 100.133 23.3764 100.65 23.1349C101.166 22.8935 101.739 22.7727 102.368 22.7727C102.813 22.7727 103.209 22.8082 103.554 22.8793C103.9 22.9503 104.156 23.0142 104.321 23.071L103.81 25.0597C103.701 25.0265 103.564 24.9934 103.398 24.9602C103.232 24.9223 103.048 24.9034 102.844 24.9034C102.366 24.9034 102.027 25.0194 101.828 25.2514C101.634 25.4787 101.537 25.8054 101.537 26.2315V38H98.9592ZM110.158 38.2131C109.092 38.2131 108.169 37.9787 107.388 37.5099C106.607 37.0412 106 36.3854 105.57 35.5426C105.143 34.6998 104.93 33.715 104.93 32.5881C104.93 31.4612 105.143 30.474 105.57 29.6264C106 28.7789 106.607 28.1207 107.388 27.652C108.169 27.1832 109.092 26.9489 110.158 26.9489C111.223 26.9489 112.146 27.1832 112.928 27.652C113.709 28.1207 114.313 28.7789 114.739 29.6264C115.17 30.474 115.385 31.4612 115.385 32.5881C115.385 33.715 115.17 34.6998 114.739 35.5426C114.313 36.3854 113.709 37.0412 112.928 37.5099C112.146 37.9787 111.223 38.2131 110.158 38.2131ZM110.172 36.1534C110.75 36.1534 111.232 35.9948 111.621 35.6776C112.009 35.3556 112.298 34.9247 112.487 34.3849C112.681 33.8452 112.778 33.2438 112.778 32.581C112.778 31.9134 112.681 31.3097 112.487 30.7699C112.298 30.2254 112.009 29.7921 111.621 29.4702C111.232 29.1482 110.75 28.9872 110.172 28.9872C109.58 28.9872 109.088 29.1482 108.695 29.4702C108.306 29.7921 108.015 30.2254 107.821 30.7699C107.632 31.3097 107.537 31.9134 107.537 32.581C107.537 33.2438 107.632 33.8452 107.821 34.3849C108.015 34.9247 108.306 35.3556 108.695 35.6776C109.088 35.9948 109.58 36.1534 110.172 36.1534ZM117.567 38V27.0909H120.06V28.9091H120.174C120.373 28.2794 120.713 27.794 121.196 27.4531C121.684 27.1075 122.24 26.9347 122.865 26.9347C123.007 26.9347 123.166 26.9418 123.341 26.956C123.521 26.9654 123.67 26.982 123.789 27.0057V29.3707C123.68 29.3329 123.507 29.2997 123.27 29.2713C123.038 29.2382 122.813 29.2216 122.596 29.2216C122.127 29.2216 121.705 29.3234 121.331 29.527C120.962 29.7259 120.671 30.0028 120.458 30.358C120.245 30.7131 120.138 31.1226 120.138 31.5866V38H117.567ZM125.497 38V27.0909H127.954V28.9446H128.082C128.309 28.3196 128.686 27.8319 129.211 27.4815C129.737 27.1264 130.364 26.9489 131.093 26.9489C131.832 26.9489 132.455 27.1288 132.961 27.4886C133.473 27.8437 133.833 28.3291 134.041 28.9446H134.154C134.396 28.3385 134.803 27.8556 135.376 27.4957C135.954 27.1312 136.638 26.9489 137.429 26.9489C138.432 26.9489 139.252 27.2661 139.886 27.9006C140.52 28.535 140.838 29.4607 140.838 30.6776V38H138.26V31.0753C138.26 30.3982 138.08 29.9034 137.72 29.5909C137.36 29.2737 136.92 29.1151 136.399 29.1151C135.779 29.1151 135.293 29.3092 134.943 29.6974C134.597 30.081 134.424 30.5805 134.424 31.196V38H131.903V30.9688C131.903 30.4053 131.733 29.9555 131.392 29.6193C131.056 29.2831 130.615 29.1151 130.071 29.1151C129.701 29.1151 129.365 29.2098 129.062 29.3991C128.759 29.5838 128.518 29.8466 128.338 30.1875C128.158 30.5237 128.068 30.9167 128.068 31.3665V38H125.497ZM148.276 38.2131C147.182 38.2131 146.237 37.9858 145.442 37.5312C144.651 37.072 144.043 36.4233 143.616 35.5852C143.19 34.7424 142.977 33.7505 142.977 32.6094C142.977 31.4872 143.19 30.5024 143.616 29.6548C144.047 28.8026 144.649 28.1397 145.42 27.6662C146.192 27.188 147.099 26.9489 148.141 26.9489C148.813 26.9489 149.447 27.0578 150.044 27.2756C150.645 27.4886 151.176 27.8201 151.635 28.2699C152.099 28.7197 152.464 29.2926 152.729 29.9886C152.994 30.6799 153.126 31.5038 153.126 32.4602V33.2486H144.185V31.5156H150.662C150.657 31.0232 150.551 30.5852 150.342 30.2017C150.134 29.8134 149.843 29.508 149.469 29.2855C149.099 29.063 148.669 28.9517 148.176 28.9517C147.651 28.9517 147.189 29.0795 146.791 29.3352C146.393 29.5862 146.083 29.9176 145.861 30.3295C145.643 30.7367 145.532 31.1842 145.527 31.6719V33.1847C145.527 33.8191 145.643 34.3636 145.875 34.8182C146.107 35.268 146.431 35.6136 146.848 35.8551C147.265 36.0919 147.752 36.2102 148.311 36.2102C148.685 36.2102 149.024 36.1581 149.327 36.054C149.63 35.9451 149.893 35.7865 150.115 35.5781C150.338 35.3698 150.506 35.1117 150.619 34.804L153.02 35.0739C152.868 35.7083 152.58 36.2623 152.153 36.7358C151.732 37.2045 151.192 37.5691 150.534 37.8295C149.876 38.0852 149.123 38.2131 148.276 38.2131ZM155.301 38V27.0909H157.794V28.9091H157.908C158.107 28.2794 158.448 27.794 158.931 27.4531C159.418 27.1075 159.975 26.9347 160.6 26.9347C160.742 26.9347 160.9 26.9418 161.076 26.956C161.256 26.9654 161.405 26.982 161.523 27.0057V29.3707C161.414 29.3329 161.241 29.2997 161.005 29.2713C160.773 29.2382 160.548 29.2216 160.33 29.2216C159.861 29.2216 159.44 29.3234 159.066 29.527C158.696 29.7259 158.405 30.0028 158.192 30.358C157.979 30.7131 157.873 31.1226 157.873 31.5866V38H155.301ZM167.819 32.0696C167.819 33.8404 167.583 35.4716 167.109 36.9631C166.64 38.4498 165.94 39.8253 165.007 41.0895H162.585C162.949 40.6207 163.286 40.0478 163.593 39.3707C163.906 38.6937 164.176 37.9503 164.403 37.1406C164.635 36.331 164.815 35.4929 164.943 34.6264C165.075 33.7599 165.142 32.9077 165.142 32.0696C165.142 30.9474 165.028 29.8111 164.801 28.6605C164.578 27.5099 164.273 26.4422 163.885 25.4574C163.501 24.4725 163.068 23.6676 162.585 23.0426H165.007C165.94 24.3068 166.64 25.6847 167.109 27.1761C167.583 28.6629 167.819 30.294 167.819 32.0696ZM176.177 38V23.4545H178.812V30.1378H178.989L184.664 23.4545H187.881L182.256 29.9815L187.931 38H184.763L180.424 31.7642L178.812 33.6676V38H176.177ZM191.182 38.1562C190.751 38.1562 190.382 38.0047 190.074 37.7017C189.766 37.3987 189.615 37.0294 189.62 36.5938C189.615 36.1676 189.766 35.803 190.074 35.5C190.382 35.197 190.751 35.0455 191.182 35.0455C191.599 35.0455 191.961 35.197 192.269 35.5C192.581 35.803 192.74 36.1676 192.745 36.5938C192.74 36.8826 192.664 37.1454 192.517 37.3821C192.375 37.6188 192.186 37.8082 191.949 37.9503C191.717 38.0876 191.462 38.1562 191.182 38.1562ZM205.257 28.0994C205.139 27.7159 204.975 27.3726 204.767 27.0696C204.563 26.7618 204.317 26.4991 204.028 26.2812C203.744 26.0634 203.418 25.9001 203.048 25.7912C202.679 25.6776 202.277 25.6207 201.841 25.6207C201.06 25.6207 200.364 25.8172 199.753 26.2102C199.142 26.6032 198.661 27.1809 198.311 27.9432C197.965 28.7008 197.793 29.6241 197.793 30.7131C197.793 31.8116 197.965 32.742 198.311 33.5043C198.657 34.2666 199.137 34.8466 199.753 35.2443C200.368 35.6373 201.083 35.8338 201.898 35.8338C202.636 35.8338 203.276 35.6918 203.815 35.4077C204.36 35.1236 204.779 34.7211 205.072 34.2003C205.366 33.6747 205.513 33.0592 205.513 32.3537L206.109 32.446H202.161V30.3864H208.062V32.1335C208.062 33.3788 207.797 34.456 207.267 35.3651C206.737 36.2741 206.008 36.9749 205.08 37.4673C204.152 37.955 203.086 38.1989 201.884 38.1989C200.544 38.1989 199.367 37.8982 198.354 37.2969C197.345 36.6908 196.557 35.8314 195.989 34.7188C195.425 33.6013 195.143 32.2756 195.143 30.7415C195.143 29.5672 195.309 28.5185 195.641 27.5952C195.977 26.6719 196.446 25.8883 197.047 25.2443C197.648 24.5956 198.354 24.1032 199.163 23.767C199.973 23.4261 200.854 23.2557 201.805 23.2557C202.61 23.2557 203.361 23.3741 204.057 23.6108C204.753 23.8428 205.371 24.1742 205.911 24.6051C206.455 25.036 206.902 25.5473 207.253 26.1392C207.603 26.7311 207.833 27.3845 207.942 28.0994H205.257ZM212.081 38.1562C211.65 38.1562 211.28 38.0047 210.973 37.7017C210.665 37.3987 210.513 37.0294 210.518 36.5938C210.513 36.1676 210.665 35.803 210.973 35.5C211.28 35.197 211.65 35.0455 212.081 35.0455C212.497 35.0455 212.859 35.197 213.167 35.5C213.48 35.803 213.638 36.1676 213.643 36.5938C213.638 36.8826 213.563 37.1454 213.416 37.3821C213.274 37.6188 213.084 37.8082 212.848 37.9503C212.616 38.0876 212.36 38.1562 212.081 38.1562ZM216.411 38V23.4545H221.979C223.031 23.4545 223.904 23.6203 224.6 23.9517C225.301 24.2784 225.824 24.7259 226.17 25.294C226.52 25.8622 226.695 26.5062 226.695 27.2259C226.695 27.8177 226.582 28.3243 226.354 28.7457C226.127 29.1624 225.822 29.5009 225.438 29.7614C225.055 30.0218 224.626 30.2088 224.153 30.3224V30.4645C224.669 30.4929 225.164 30.6515 225.637 30.9403C226.115 31.2244 226.506 31.6269 226.809 32.1477C227.112 32.6686 227.263 33.2983 227.263 34.0369C227.263 34.7898 227.081 35.4669 226.717 36.0682C226.352 36.6648 225.803 37.1359 225.069 37.4815C224.335 37.8272 223.412 38 222.299 38H216.411ZM219.046 35.7983H221.88C222.836 35.7983 223.525 35.616 223.947 35.2514C224.373 34.8821 224.586 34.4086 224.586 33.831C224.586 33.4001 224.479 33.0118 224.266 32.6662C224.053 32.3158 223.75 32.0412 223.357 31.8423C222.964 31.6387 222.496 31.5369 221.951 31.5369H219.046V35.7983ZM219.046 29.6406H221.653C222.107 29.6406 222.517 29.5578 222.881 29.392C223.246 29.2216 223.532 28.9825 223.741 28.6747C223.954 28.3622 224.06 27.9929 224.06 27.5668C224.06 27.0033 223.862 26.5393 223.464 26.1747C223.071 25.8101 222.486 25.6278 221.71 25.6278H219.046V29.6406ZM231.026 38.1562C230.595 38.1562 230.226 38.0047 229.918 37.7017C229.61 37.3987 229.459 37.0294 229.463 36.5938C229.459 36.1676 229.61 35.803 229.918 35.5C230.226 35.197 230.595 35.0455 231.026 35.0455C231.443 35.0455 231.805 35.197 232.113 35.5C232.425 35.803 232.584 36.1676 232.588 36.5938C232.584 36.8826 232.508 37.1454 232.361 37.3821C232.219 37.6188 232.03 37.8082 231.793 37.9503C231.561 38.0876 231.305 38.1562 231.026 38.1562Z" fill="#1F2937"/>
<rect x="0.5" y="0.5" width="322" height="435" rx="15.5" stroke="#D1D5DB"/>
<rect x="48.5" y="45.5" width="322" height="439" rx="15.5" fill="white"/>
<path d="M197.272 81.3622H194.615C194.54 80.9266 194.4 80.5407 194.196 80.2045C193.993 79.8636 193.739 79.5748 193.436 79.3381C193.133 79.1013 192.788 78.9238 192.4 78.8054C192.016 78.6823 191.602 78.6207 191.157 78.6207C190.366 78.6207 189.665 78.8196 189.054 79.2173C188.444 79.6103 187.965 80.188 187.62 80.9503C187.274 81.7079 187.101 82.6335 187.101 83.7273C187.101 84.84 187.274 85.7775 187.62 86.5398C187.97 87.2973 188.448 87.8703 189.054 88.2585C189.665 88.642 190.364 88.8338 191.15 88.8338C191.585 88.8338 191.992 88.777 192.371 88.6634C192.755 88.545 193.098 88.3722 193.401 88.1449C193.709 87.9176 193.967 87.6383 194.175 87.3068C194.388 86.9754 194.535 86.5966 194.615 86.1705L197.272 86.1847C197.172 86.8759 196.957 87.5246 196.625 88.1307C196.299 88.7367 195.87 89.2718 195.34 89.7358C194.81 90.1951 194.189 90.5549 193.479 90.8153C192.769 91.071 191.98 91.1989 191.114 91.1989C189.836 91.1989 188.694 90.9029 187.691 90.3111C186.687 89.7192 185.896 88.8646 185.319 87.7472C184.741 86.6297 184.452 85.2898 184.452 83.7273C184.452 82.16 184.743 80.8201 185.326 79.7074C185.908 78.59 186.701 77.7353 187.705 77.1435C188.709 76.5516 189.845 76.2557 191.114 76.2557C191.924 76.2557 192.676 76.3693 193.373 76.5966C194.069 76.8239 194.689 77.1577 195.233 77.598C195.778 78.0336 196.225 78.5687 196.576 79.2031C196.931 79.8329 197.163 80.5526 197.272 81.3622ZM201.155 91.1562C200.724 91.1562 200.355 91.0047 200.047 90.7017C199.739 90.3987 199.588 90.0294 199.592 89.5938C199.588 89.1676 199.739 88.803 200.047 88.5C200.355 88.197 200.724 88.0455 201.155 88.0455C201.571 88.0455 201.934 88.197 202.241 88.5C202.554 88.803 202.713 89.1676 202.717 89.5938C202.713 89.8826 202.637 90.1454 202.49 90.3821C202.348 90.6188 202.159 90.8082 201.922 90.9503C201.69 91.0876 201.434 91.1562 201.155 91.1562ZM208.12 76.4545V91H205.485V76.4545H208.12ZM212.444 91.1562C212.013 91.1562 211.644 91.0047 211.336 90.7017C211.028 90.3987 210.877 90.0294 210.881 89.5938C210.877 89.1676 211.028 88.803 211.336 88.5C211.644 88.197 212.013 88.0455 212.444 88.0455C212.861 88.0455 213.223 88.197 213.531 88.5C213.843 88.803 214.002 89.1676 214.006 89.5938C214.002 89.8826 213.926 90.1454 213.779 90.3821C213.637 90.6188 213.448 90.8082 213.211 90.9503C212.979 91.0876 212.723 91.1562 212.444 91.1562ZM218.642 91H215.83L220.951 76.4545H224.203L229.331 91H226.519L222.634 79.4375H222.52L218.642 91ZM218.735 85.2969H226.405V87.4134H218.735V85.2969ZM232.717 91.1562C232.286 91.1562 231.917 91.0047 231.609 90.7017C231.302 90.3987 231.15 90.0294 231.155 89.5938C231.15 89.1676 231.302 88.803 231.609 88.5C231.917 88.197 232.286 88.0455 232.717 88.0455C233.134 88.0455 233.496 88.197 233.804 88.5C234.116 88.803 234.275 89.1676 234.28 89.5938C234.275 89.8826 234.199 90.1454 234.053 90.3821C233.911 90.6188 233.721 90.8082 233.484 90.9503C233.252 91.0876 232.997 91.1562 232.717 91.1562Z" fill="#1F2937"/>
<path d="M154.386 131H312.902L323.967 143L312.902 155H154.386V131Z" fill="#167BB7"/>
<path d="M95.0332 131H181.676L191 143.5L181.676 155H95.0332V131Z" fill="#E5E7EB"/>
<path d="M154.386 167H312.902L323.967 179L312.902 191H154.386V167Z" fill="#167BB7"/>
<path d="M95.0332 167H181.676L191 179.5L181.676 191H95.0332V167Z" fill="#E5E7EB"/>
<path d="M154.386 203H312.902L323.967 215L312.902 227H154.386V203Z" fill="#167BB7"/>
<path d="M95.0332 203H181.676L191 215.5L181.676 227H95.0332V203Z" fill="#E5E7EB"/>
<circle cx="124.5" cy="249.5" r="2.5" fill="#167BB7"/>
<circle cx="124.5" cy="282.5" r="2.5" fill="#167BB7"/>
<circle cx="124.5" cy="315.5" r="2.5" fill="#167BB7"/>
<circle cx="124.5" cy="348.5" r="2.5" fill="#167BB7"/>
<rect x="48.5" y="45.5" width="322" height="439" rx="15.5" stroke="#D1D5DB"/>
</svg>
