<svg width="294" height="290" viewBox="0 0 294 290" fill="none" xmlns="http://www.w3.org/2000/svg">
<rect width="293.909" height="290" rx="16" fill="#F8F9FC"/>
<path d="M232.892 166.301L229.665 168.443C229.665 168.443 226.389 166.688 224.596 166.757C222.803 166.826 200.303 167.39 200.303 167.39L195.745 167.723L188.554 158.53L189.011 143.15L207.33 136.556L223.773 137.825L231.546 144.524L236.554 154.865L232.892 166.301Z" fill="black"/>
<path d="M37.1374 154.457L37.3134 155.248C37.3134 155.248 40.9159 160.287 45.6027 161.136C50.2895 161.985 49.9376 162.161 49.9376 162.161C49.9376 162.161 57.5825 163.978 60.367 162.425C63.1491 160.872 86.4096 164.33 86.4096 164.33L89.5437 165.618L92.8822 166.263C92.8822 166.263 99.4452 160.052 99.4452 159.964C99.4452 159.876 99.6806 153.841 99.6806 153.841L93.441 136.791L80.4055 129.115L73.9305 128.119C73.9305 128.119 54.4508 134.739 54.4508 134.887C54.4508 135.034 52.0492 141.038 52.0492 141.038L46.542 149.182L42.0026 151.439L37.1374 154.457Z" fill="#070707"/>
<path d="M34.5599 149.915C34.5599 149.915 33.856 154.105 34.2674 155.042C34.2674 155.042 41.2132 156.14 42.1192 155.957C43.0251 155.774 44.7657 153.109 44.7657 153.109L34.5599 149.915Z" fill="#332C2B"/>
<path d="M38.1243 137.857C38.053 137.707 37.9816 137.541 37.9269 137.356C37.7224 136.69 38.3906 136.074 38.3906 136.074L46.0403 135.513C46.0403 135.513 51.5451 142.991 51.6474 143.169C51.7496 143.348 48.587 147.395 48.587 147.395H45.4601L42.735 137.712L38.1243 137.857Z" fill="#473D3C"/>
<path d="M36.7451 145.78L38.3835 144.011L38.5119 138.506C38.5119 138.506 38.3122 138.249 38.1219 137.855L42.735 137.712L45.4601 147.395H39.3822L36.7451 145.78Z" fill="#332C2B"/>
<path d="M35.0021 128.958C35.0021 128.958 34.7976 130.623 35.7963 131.876C36.795 133.131 37.7462 135.407 37.7462 135.407L44.7063 135.64L45.013 131.698L41.1489 128.602L35.0021 128.958Z" fill="#3D000D"/>
<path d="M207.28 133.24L209.216 133.666L210.887 133.452C210.887 133.452 193.274 124.514 167.657 118.773L167.136 123.529L205.285 135.942L207.28 133.24Z" fill="#636363"/>
<path d="M254.562 163.932L259.95 167.152C259.047 167.72 256.635 168.077 252.165 168.15C247.048 168.236 229.665 168.443 229.665 168.443C229.665 168.443 229.577 168.357 229.663 167.891C229.684 167.77 230.284 165.656 230.697 162.617L247.464 162.443L254.562 163.932Z" fill="#2970FF"/>
<path d="M32.0297 146.065C32.6052 143.832 33.6086 144.552 33.6086 144.552L37.7842 144.407L38.5023 143.038L38.5737 145.054L37.4204 145.92L42.6066 146.207L46.7845 144.046L44.5517 136.408L38.2836 136.48L37.5631 135.039L44.1902 135.11L42.8943 131.22C42.8943 131.22 35.977 129.13 35.2565 129.346C34.536 129.562 34.0319 128.842 34.3196 128.625C34.6097 128.414 93.6859 118.329 113.211 117.105C132.736 115.88 157.373 114.727 169.621 119.195L169.189 120.06C169.189 120.06 200.068 127.729 208.814 133.317C208.814 133.317 228.193 132.451 250.31 145.565C250.31 145.565 257.082 147.656 261.909 153.85C261.909 153.85 258.607 159.742 256.547 160.867C256.547 160.867 260.799 166.177 260.25 166.895C260.181 166.985 260.081 167.073 259.95 167.154L254.559 163.935L247.461 162.446L230.695 162.62C231.865 154.028 231.565 138.032 212.63 138.648C188.278 139.44 196.059 167.97 196.059 167.97L92.604 166.381L95.7737 156.44C95.7737 156.44 95.8641 135.041 76.627 134.323C57.3899 133.602 55.6088 149.596 55.6088 149.596V158.746L50.0065 155.072C50.0065 155.072 43.4959 156.368 41.4794 155.864C39.463 155.36 31.4519 148.298 32.0297 146.065Z" fill="#2970FF"/>
<path d="M260.478 153.776C260.478 153.776 251.421 149.513 235.035 148.036C235.035 148.036 253.456 151.658 253.482 152.552C253.511 153.443 247.464 162.639 247.464 162.639C247.464 162.639 260.338 158.96 260.478 153.776Z" fill="#155EEF"/>
<path d="M105.48 125.722L99.6996 126.487C99.6996 126.487 114.072 119.841 116.989 119.518C119.907 119.194 157.137 116.265 169.999 121.451C182.861 126.637 143.034 125.111 143.034 125.111L105.48 125.722Z" fill="black"/>
<path d="M123.873 120.634C123.873 120.634 150.603 116.599 169.334 121.283C188.064 125.965 203.842 134.107 203.842 134.107C203.183 134.267 202.538 134.414 201.911 134.557C198.41 133.059 181.478 125.842 179.347 125.39C176.969 124.886 156.652 118.763 134.895 120.346C134.895 120.346 124.161 120.779 122.791 124.598C122.337 125.868 122.463 127 122.834 127.948C119.978 127.523 118.252 127.264 118.252 127.264L123.873 120.634Z" fill="#484949"/>
<path d="M122.791 124.596C123.481 122.67 126.553 121.607 129.43 121.024L128.893 128.852C126.567 128.505 124.508 128.196 122.836 127.946C122.463 127 122.337 125.866 122.791 124.596Z" fill="#636363"/>
<path d="M134.895 120.347C156.652 118.761 176.969 124.887 179.347 125.391C181.478 125.843 198.41 133.06 201.911 134.558C184.749 138.429 178.876 136.467 175.889 135.946C173.949 135.609 151.828 132.287 135.568 129.854L134.407 120.376C134.719 120.355 134.895 120.347 134.895 120.347Z" fill="#636363"/>
<path d="M134.407 120.376L135.568 129.854C133.19 129.498 130.938 129.162 128.893 128.856L129.43 121.028C131.525 120.602 133.518 120.433 134.407 120.376Z" fill="#484949"/>
<path d="M102.475 125.821L117.172 119.77L120.846 120.086L123.008 121.501L118.456 127.296C118.456 127.291 109.247 125.243 102.475 125.821Z" fill="#484949"/>
<path d="M120.775 120.374L115.156 124.937L117.46 126.787L122.142 121.425L120.775 120.374Z" fill="#050505"/>
<path d="M237.237 140.261C237.237 140.261 245.514 142.211 248.803 144.384C252.091 146.557 253.791 148.788 253.791 148.788C253.791 148.788 251.506 148.733 250.864 148.231C250.222 147.73 242.782 142.406 237.237 140.261Z" fill="#221411"/>
<path d="M253.287 153.776L256.854 155.477C256.854 155.477 255.461 156.228 255.211 156.899C254.959 157.567 254.262 158.737 254.402 159.462C254.543 160.187 255.294 164.227 255.294 164.227L250.89 164.812L247.461 162.444C247.464 162.444 252.117 152.968 253.287 153.776Z" fill="#221411"/>
<path d="M230.062 149.455C230.062 149.455 237.374 149.985 237.237 151.267C237.096 152.549 230.502 151.155 230.502 151.155L230.062 149.455Z" fill="#FDD8C5"/>
<path d="M89.206 128.121C89.206 128.121 137.246 133.64 149.973 135.642C162.699 137.645 197.095 143.147 197.095 143.147C197.095 143.147 100.444 130.865 89.206 128.121Z" fill="#155EEF"/>
<path d="M128.075 132.944C128.075 132.944 112.597 133.097 106.405 135.945C106.405 135.945 115.463 151.742 117.239 152.949C119.015 154.157 133.982 158.055 136.129 158.4C138.278 158.744 193.885 161.496 193.885 161.496L137.361 157.712C137.361 157.712 127.64 156.336 125.963 154.961C124.289 153.584 113.51 144.185 116.15 140.63C118.787 137.07 128.075 132.944 128.075 132.944Z" fill="#155EEF"/>
<path d="M114.338 134.173L112.302 136.56C112.302 136.56 119.115 152.77 125.381 155.277C125.381 155.277 119.781 154.592 118.254 153.427C116.728 152.261 106.408 136.472 106.408 136.208C106.405 135.942 111.794 134.289 114.338 134.173Z" fill="#121117"/>
<path d="M189.881 161.113C190.371 161.113 190.585 161.106 190.597 161.106L190.837 161.096L190.804 160.858C190.349 157.674 194.059 142.189 194.097 142.032L194.133 141.887L186.426 136.666L186.183 137.025L193.643 142.078C193.248 143.726 190.085 157.125 190.352 160.677C188.673 160.699 177.261 160.673 136.291 157.318L128.158 134.442L128.13 134.411C127.362 133.541 126.741 132.63 126.753 132.395C127.01 132.093 129.3 130.281 130.707 129.187L130.443 128.845C130.06 129.142 126.684 131.762 126.396 132.148C126.082 132.566 126.967 133.741 127.778 134.663L135.974 157.722L136.112 157.734C174.446 160.877 186.989 161.113 189.881 161.113Z" fill="#0F0503"/>
<path d="M188.554 162.69L182.754 166.757L140.649 166.207L182.207 165.979L188.554 162.69Z" fill="#0F0503"/>
<path d="M195.745 157.125C195.745 166.444 203.299 173.999 212.618 173.999C221.937 173.999 229.492 166.444 229.492 157.125C229.492 147.806 221.937 140.252 212.618 140.252C203.299 140.254 195.745 147.806 195.745 157.125Z" fill="#27262C"/>
<path d="M225.323 157.125C225.323 164.164 219.616 169.871 212.578 169.871C205.539 169.871 199.832 164.164 199.832 157.125C199.832 150.087 205.537 144.38 212.578 144.38C219.616 144.38 225.323 150.087 225.323 157.125Z" fill="#C3BFBE"/>
<path d="M217.001 148.582L214.052 151.935C214.052 151.935 213.543 152.739 212.847 152.739C212.15 152.739 211.639 152.175 211.639 152.175L208.555 148.582C208.555 148.582 208.126 148.073 208.555 147.724C208.983 147.374 210.488 146.865 212.578 146.865C214.668 146.865 217.752 147.429 217.001 148.582Z" fill="#27262C"/>
<path d="M217.001 165.671L214.052 162.318C214.052 162.318 213.541 161.515 212.844 161.515C212.147 161.515 211.636 162.078 211.636 162.078L208.552 165.671C208.552 165.671 208.122 166.18 208.552 166.53C208.98 166.879 210.485 167.388 212.575 167.388C214.668 167.388 217.752 166.824 217.001 165.671Z" fill="#27262C"/>
<path d="M203.927 152.863L207.278 155.812C207.278 155.812 208.084 156.321 208.084 157.018C208.084 157.717 207.52 158.226 207.52 158.226L203.927 161.31C203.927 161.31 203.418 161.74 203.069 161.31C202.719 160.882 202.21 159.377 202.21 157.286C202.21 155.196 202.774 152.112 203.927 152.863Z" fill="#27262C"/>
<path d="M221.017 152.863L217.664 155.812C217.664 155.812 216.86 156.321 216.86 157.018C216.86 157.714 217.424 158.223 217.424 158.223L221.017 161.307C221.017 161.307 221.528 161.738 221.875 161.307C222.223 160.877 222.734 159.374 222.734 157.284C222.734 155.196 222.17 152.112 221.017 152.863Z" fill="#27262C"/>
<path d="M58.0129 154.047C58.0129 163.516 65.6887 171.191 75.1574 171.191C84.6262 171.191 92.2996 163.516 92.2996 154.047C92.2996 144.578 84.6238 136.902 75.1574 136.902C65.6887 136.902 58.0129 144.578 58.0129 154.047Z" fill="#27262C"/>
<path d="M88.067 154.047C88.067 161.199 82.2697 166.997 75.1147 166.997C67.962 166.997 62.1647 161.199 62.1647 154.047C62.1647 146.894 67.962 141.097 75.1147 141.097C82.2674 141.094 88.067 146.894 88.067 154.047Z" fill="#C3BFBE"/>
<path d="M79.6089 145.364L76.6127 148.769C76.6127 148.769 76.0944 149.587 75.3857 149.587C74.6771 149.587 74.1587 149.014 74.1587 149.014L71.0247 145.364C71.0247 145.364 70.5895 144.845 71.0247 144.491C71.4599 144.137 72.9888 143.618 75.1123 143.618C77.2381 143.621 80.3722 144.194 79.6089 145.364Z" fill="#27262C"/>
<path d="M79.6088 162.729L76.6127 159.324C76.6127 159.324 76.0943 158.506 75.3857 158.506C74.6771 158.506 74.1587 159.079 74.1587 159.079L71.0271 162.731C71.0271 162.731 70.5919 163.25 71.0271 163.604C71.4622 163.958 72.9912 164.477 75.1147 164.477C77.2405 164.472 80.3721 163.901 79.6088 162.729Z" fill="#27262C"/>
<path d="M66.326 149.718L69.7311 152.714C69.7311 152.714 70.5491 153.232 70.5491 153.941C70.5491 154.65 69.9761 155.168 69.9761 155.168L66.326 158.302C66.326 158.302 65.8076 158.737 65.4557 158.302C65.1014 157.867 64.583 156.335 64.583 154.212C64.583 152.089 65.1561 148.955 66.326 149.718Z" fill="#27262C"/>
<path d="M83.6917 149.718L80.2866 152.714C80.2866 152.714 79.4686 153.232 79.4686 153.941C79.4686 154.65 80.0416 155.168 80.0416 155.168L83.6917 158.302C83.6917 158.302 84.2101 158.737 84.5644 158.302C84.9187 157.867 85.4347 156.338 85.4347 154.214C85.4371 152.089 84.864 148.954 83.6917 149.718Z" fill="#27262C"/>
<path d="M93.7977 144.724L96.6536 145.749L102.32 154.949L98.5583 163.652L94.2067 164.013L97.5596 162.788L100.099 155.277L96.1994 146.2L93.7977 144.724Z" fill="#030400"/>
<path d="M61.437 137.715L54.2915 135.345C54.2915 135.345 53.5282 136.241 53.8349 136.531C54.1417 136.819 60.4407 138.995 60.4407 138.995C60.4407 138.995 61.1659 137.887 61.437 137.715Z" fill="#FFD5BE"/>
</svg>
