<svg width="761" height="372" viewBox="0 0 761 372" fill="none" xmlns="http://www.w3.org/2000/svg">
<rect x="18.5" y="28.5" width="152" height="77" rx="15.5" fill="#F9FAFB"/>
<path d="M63.1148 73H61.6375L65.9103 61.3636H67.3648L71.6375 73H70.1603L66.683 63.2045H66.5921L63.1148 73ZM63.6603 68.4545H69.6148V69.7045H63.6603V68.4545ZM77.4537 73.1818C76.6355 73.1818 75.9309 72.9886 75.34 72.6023C74.7491 72.2159 74.2946 71.6837 73.9764 71.0057C73.6582 70.3277 73.4991 69.553 73.4991 68.6818C73.4991 67.7955 73.662 67.0133 73.9878 66.3352C74.3173 65.6534 74.7756 65.1212 75.3628 64.7386C75.9537 64.3523 76.6431 64.1591 77.4309 64.1591C78.0446 64.1591 78.5976 64.2727 79.09 64.5C79.5825 64.7273 79.9859 65.0455 80.3003 65.4545C80.6147 65.8636 80.8097 66.3409 80.8855 66.8864H79.5446C79.4423 66.4886 79.215 66.1364 78.8628 65.8295C78.5143 65.5189 78.0446 65.3636 77.4537 65.3636C76.9309 65.3636 76.4726 65.5 76.0787 65.7727C75.6885 66.0417 75.3836 66.4223 75.1639 66.9148C74.948 67.4034 74.84 67.9773 74.84 68.6364C74.84 69.3106 74.9461 69.8977 75.1582 70.3977C75.3741 70.8977 75.6772 71.286 76.0673 71.5625C76.4612 71.839 76.9234 71.9773 77.4537 71.9773C77.8022 71.9773 78.1184 71.9167 78.4025 71.7955C78.6866 71.6742 78.9272 71.5 79.1241 71.2727C79.3211 71.0455 79.4612 70.7727 79.5446 70.4545H80.8855C80.8097 70.9697 80.6222 71.4337 80.323 71.8466C80.0275 72.2557 79.6355 72.5814 79.1468 72.8239C78.662 73.0625 78.0976 73.1818 77.4537 73.1818ZM87.0312 73.1818C86.213 73.1818 85.5084 72.9886 84.9175 72.6023C84.3266 72.2159 83.8721 71.6837 83.5539 71.0057C83.2357 70.3277 83.0766 69.553 83.0766 68.6818C83.0766 67.7955 83.2395 67.0133 83.5653 66.3352C83.8948 65.6534 84.3531 65.1212 84.9403 64.7386C85.5312 64.3523 86.2206 64.1591 87.0084 64.1591C87.6221 64.1591 88.1751 64.2727 88.6675 64.5C89.16 64.7273 89.5634 65.0455 89.8778 65.4545C90.1922 65.8636 90.3872 66.3409 90.463 66.8864H89.1221C89.0198 66.4886 88.7925 66.1364 88.4403 65.8295C88.0918 65.5189 87.6221 65.3636 87.0312 65.3636C86.5084 65.3636 86.0501 65.5 85.6562 65.7727C85.266 66.0417 84.9611 66.4223 84.7414 66.9148C84.5255 67.4034 84.4175 67.9773 84.4175 68.6364C84.4175 69.3106 84.5236 69.8977 84.7357 70.3977C84.9516 70.8977 85.2547 71.286 85.6448 71.5625C86.0387 71.839 86.5009 71.9773 87.0312 71.9773C87.3797 71.9773 87.6959 71.9167 87.98 71.7955C88.2641 71.6742 88.5047 71.5 88.7016 71.2727C88.8986 71.0455 89.0387 70.7727 89.1221 70.4545H90.463C90.3872 70.9697 90.1997 71.4337 89.9005 71.8466C89.605 72.2557 89.213 72.5814 88.7243 72.8239C88.2395 73.0625 87.6751 73.1818 87.0312 73.1818ZM96.6087 73.1818C95.8208 73.1818 95.1295 72.9943 94.5348 72.6193C93.9439 72.2443 93.4818 71.7197 93.1484 71.0455C92.8189 70.3712 92.6541 69.5833 92.6541 68.6818C92.6541 67.7727 92.8189 66.9792 93.1484 66.3011C93.4818 65.6231 93.9439 65.0966 94.5348 64.7216C95.1295 64.3466 95.8208 64.1591 96.6087 64.1591C97.3965 64.1591 98.0859 64.3466 98.6768 64.7216C99.2715 65.0966 99.7337 65.6231 100.063 66.3011C100.397 66.9792 100.563 67.7727 100.563 68.6818C100.563 69.5833 100.397 70.3712 100.063 71.0455C99.7337 71.7197 99.2715 72.2443 98.6768 72.6193C98.0859 72.9943 97.3965 73.1818 96.6087 73.1818ZM96.6087 71.9773C97.2072 71.9773 97.6996 71.8239 98.0859 71.517C98.4723 71.2102 98.7583 70.8068 98.9439 70.3068C99.1295 69.8068 99.2223 69.2652 99.2223 68.6818C99.2223 68.0985 99.1295 67.5549 98.9439 67.0511C98.7583 66.5473 98.4723 66.1402 98.0859 65.8295C97.6996 65.5189 97.2072 65.3636 96.6087 65.3636C96.0102 65.3636 95.5178 65.5189 95.1314 65.8295C94.745 66.1402 94.459 66.5473 94.2734 67.0511C94.0878 67.5549 93.995 68.0985 93.995 68.6818C93.995 69.2652 94.0878 69.8068 94.2734 70.3068C94.459 70.8068 94.745 71.2102 95.1314 71.517C95.5178 71.8239 96.0102 71.9773 96.6087 71.9773ZM108.75 69.4318V64.2727H110.091V73H108.75V71.5227H108.659C108.455 71.9659 108.136 72.3428 107.705 72.6534C107.273 72.9602 106.727 73.1136 106.068 73.1136C105.523 73.1136 105.038 72.9943 104.614 72.7557C104.189 72.5133 103.856 72.1496 103.614 71.6648C103.371 71.1761 103.25 70.5606 103.25 69.8182V64.2727H104.591V69.7273C104.591 70.3636 104.769 70.8712 105.125 71.25C105.485 71.6288 105.943 71.8182 106.5 71.8182C106.833 71.8182 107.172 71.733 107.517 71.5625C107.866 71.392 108.157 71.1307 108.392 70.7784C108.631 70.4261 108.75 69.9773 108.75 69.4318ZM114.528 67.75V73H113.187V64.2727H114.482V65.6364H114.596C114.801 65.1932 115.111 64.8371 115.528 64.5682C115.945 64.2955 116.482 64.1591 117.142 64.1591C117.732 64.1591 118.249 64.2803 118.693 64.5227C119.136 64.7614 119.481 65.125 119.727 65.6136C119.973 66.0985 120.096 66.7121 120.096 67.4545V73H118.755V67.5455C118.755 66.8598 118.577 66.3258 118.221 65.9432C117.865 65.5568 117.376 65.3636 116.755 65.3636C116.327 65.3636 115.945 65.4564 115.607 65.642C115.274 65.8277 115.011 66.0985 114.818 66.4545C114.624 66.8106 114.528 67.2424 114.528 67.75ZM126.982 64.2727V65.4091H122.459V64.2727H126.982ZM123.777 62.1818H125.118V70.5C125.118 70.8788 125.173 71.1629 125.283 71.3523C125.397 71.5379 125.541 71.6629 125.715 71.7273C125.893 71.7879 126.08 71.8182 126.277 71.8182C126.425 71.8182 126.546 71.8106 126.641 71.7955C126.736 71.7765 126.811 71.7614 126.868 71.75L127.141 72.9545C127.05 72.9886 126.923 73.0227 126.76 73.0568C126.597 73.0947 126.391 73.1136 126.141 73.1136C125.762 73.1136 125.391 73.0322 125.027 72.8693C124.667 72.7064 124.368 72.4583 124.13 72.125C123.895 71.7917 123.777 71.3712 123.777 70.8636V62.1818Z" fill="#1F2937"/>
<rect x="18.5" y="28.5" width="152" height="77" rx="15.5" stroke="#9CA3AF"/>
<path d="M167 67C167 69.2091 168.791 71 171 71C173.209 71 175 69.2091 175 67C175 64.7909 173.209 63 171 63C168.791 63 167 64.7909 167 67ZM262 67L254.5 62.6699V71.3301L262 67ZM171 67.75L255.25 67.75V66.25L171 66.25V67.75Z" fill="#6B7280"/>
<path d="M196.906 59H194.213V50.2727H197.026C197.872 50.2727 198.597 50.4474 199.199 50.7969C199.801 51.1435 200.263 51.642 200.584 52.2926C200.905 52.9403 201.065 53.7159 201.065 54.6193C201.065 55.5284 200.903 56.3111 200.58 56.9673C200.256 57.6207 199.784 58.1236 199.165 58.4759C198.545 58.8253 197.793 59 196.906 59ZM195.27 58.0625H196.838C197.56 58.0625 198.158 57.9233 198.632 57.6449C199.107 57.3665 199.46 56.9702 199.693 56.456C199.926 55.9418 200.043 55.3295 200.043 54.6193C200.043 53.9148 199.928 53.3082 199.697 52.7997C199.467 52.2884 199.124 51.8963 198.666 51.6236C198.209 51.348 197.639 51.2102 196.957 51.2102H195.27V58.0625ZM205.446 59.1364C204.815 59.1364 204.271 58.9972 203.814 58.7188C203.359 58.4375 203.009 58.0455 202.761 57.5426C202.517 57.0369 202.395 56.4489 202.395 55.7784C202.395 55.108 202.517 54.517 202.761 54.0057C203.009 53.4915 203.352 53.0909 203.793 52.804C204.236 52.5142 204.753 52.3693 205.344 52.3693C205.685 52.3693 206.021 52.4261 206.354 52.5398C206.686 52.6534 206.989 52.8381 207.261 53.0938C207.534 53.3466 207.751 53.6818 207.913 54.0994C208.075 54.517 208.156 55.0312 208.156 55.642V56.0682H203.111V55.1989H207.134C207.134 54.8295 207.06 54.5 206.912 54.2102C206.767 53.9205 206.56 53.6918 206.29 53.5241C206.023 53.3565 205.707 53.2727 205.344 53.2727C204.943 53.2727 204.597 53.3722 204.304 53.571C204.014 53.767 203.791 54.0227 203.635 54.3381C203.479 54.6534 203.401 54.9915 203.401 55.3523V55.9318C203.401 56.4261 203.486 56.8452 203.656 57.1889C203.83 57.5298 204.07 57.7898 204.376 57.9688C204.683 58.1449 205.04 58.233 205.446 58.233C205.71 58.233 205.949 58.196 206.162 58.1222C206.378 58.0455 206.564 57.9318 206.72 57.7812C206.876 57.6278 206.997 57.4375 207.082 57.2102L208.054 57.483C207.952 57.8125 207.78 58.1023 207.538 58.3523C207.297 58.5994 206.999 58.7926 206.643 58.9318C206.288 59.0682 205.889 59.1364 205.446 59.1364ZM212.601 52.4545V53.3068H209.072V52.4545H212.601ZM210.129 59V51.5511C210.129 51.1761 210.217 50.8636 210.393 50.6136C210.57 50.3636 210.798 50.1761 211.08 50.0511C211.361 49.9261 211.658 49.8636 211.97 49.8636C212.217 49.8636 212.419 49.8835 212.575 49.9233C212.732 49.9631 212.848 50 212.925 50.0341L212.635 50.9034C212.584 50.8864 212.513 50.8651 212.422 50.8395C212.334 50.8139 212.217 50.8011 212.072 50.8011C211.74 50.8011 211.5 50.8849 211.352 51.0526C211.207 51.2202 211.135 51.4659 211.135 51.7898V59H210.129ZM215.749 59.1534C215.334 59.1534 214.958 59.0753 214.62 58.919C214.282 58.7599 214.013 58.5312 213.814 58.233C213.615 57.9318 213.516 57.5682 213.516 57.142C213.516 56.767 213.59 56.4631 213.738 56.2301C213.885 55.9943 214.083 55.8097 214.33 55.6761C214.577 55.5426 214.85 55.4432 215.148 55.3778C215.449 55.3097 215.752 55.2557 216.056 55.2159C216.453 55.1648 216.776 55.1264 217.023 55.1009C217.273 55.0724 217.455 55.0256 217.569 54.9602C217.685 54.8949 217.743 54.7812 217.743 54.6193V54.5852C217.743 54.1648 217.628 53.8381 217.398 53.6051C217.171 53.3722 216.826 53.2557 216.363 53.2557C215.882 53.2557 215.506 53.3608 215.233 53.571C214.961 53.7812 214.769 54.0057 214.658 54.2443L213.703 53.9034C213.874 53.5057 214.101 53.196 214.385 52.9744C214.672 52.75 214.985 52.5937 215.323 52.5057C215.664 52.4148 215.999 52.3693 216.328 52.3693C216.539 52.3693 216.78 52.3949 217.053 52.446C217.328 52.4943 217.594 52.5952 217.85 52.7486C218.108 52.902 218.323 53.1335 218.493 53.4432C218.664 53.7528 218.749 54.1676 218.749 54.6875V59H217.743V58.1136H217.692C217.624 58.2557 217.51 58.4077 217.351 58.5696C217.192 58.7315 216.98 58.8693 216.716 58.983C216.452 59.0966 216.13 59.1534 215.749 59.1534ZM215.902 58.25C216.3 58.25 216.635 58.1719 216.908 58.0156C217.184 57.8594 217.391 57.6577 217.53 57.4105C217.672 57.1634 217.743 56.9034 217.743 56.6307V55.7102C217.701 55.7614 217.607 55.8082 217.462 55.8509C217.32 55.8906 217.155 55.9261 216.968 55.9574C216.783 55.9858 216.603 56.0114 216.426 56.0341C216.253 56.054 216.113 56.071 216.005 56.0852C215.743 56.1193 215.499 56.1747 215.272 56.2514C215.047 56.3253 214.865 56.4375 214.726 56.5881C214.59 56.7358 214.522 56.9375 214.522 57.1932C214.522 57.5426 214.651 57.8068 214.909 57.9858C215.171 58.1619 215.502 58.25 215.902 58.25ZM224.71 56.3239V52.4545H225.715V59H224.71V57.892H224.641C224.488 58.2244 224.249 58.5071 223.925 58.7401C223.602 58.9702 223.192 59.0852 222.698 59.0852C222.289 59.0852 221.925 58.9957 221.607 58.8168C221.289 58.6349 221.039 58.3622 220.857 57.9986C220.675 57.6321 220.585 57.1705 220.585 56.6136V52.4545H221.59V56.5455C221.59 57.0227 221.724 57.4034 221.991 57.6875C222.261 57.9716 222.604 58.1136 223.022 58.1136C223.272 58.1136 223.526 58.0497 223.785 57.9219C224.046 57.794 224.265 57.598 224.441 57.3338C224.62 57.0696 224.71 56.733 224.71 56.3239ZM228.563 50.2727V59H227.557V50.2727H228.563ZM233.251 52.4545V53.3068H229.859V52.4545H233.251ZM230.848 50.8864H231.854V57.125C231.854 57.4091 231.895 57.6222 231.977 57.7642C232.063 57.9034 232.17 57.9972 232.301 58.0455C232.435 58.0909 232.575 58.1136 232.723 58.1136C232.834 58.1136 232.925 58.108 232.996 58.0966C233.067 58.0824 233.124 58.071 233.166 58.0625L233.371 58.9659C233.303 58.9915 233.207 59.017 233.085 59.0426C232.963 59.071 232.808 59.0852 232.621 59.0852C232.337 59.0852 232.058 59.0241 231.786 58.902C231.516 58.7798 231.291 58.5938 231.112 58.3438C230.936 58.0938 230.848 57.7784 230.848 57.3977V50.8864Z" fill="#374151"/>
<rect x="263.689" y="29" width="141.311" height="76" rx="15" fill="#E8F2F8"/>
<path d="M280.409 61V49.3636H284.341C285.254 49.3636 286 49.5284 286.58 49.858C287.163 50.1837 287.595 50.625 287.875 51.1818C288.155 51.7386 288.295 52.3598 288.295 53.0455C288.295 53.7311 288.155 54.3542 287.875 54.9148C287.598 55.4754 287.17 55.9223 286.591 56.2557C286.011 56.5852 285.269 56.75 284.364 56.75H281.545V55.5H284.318C284.943 55.5 285.445 55.392 285.824 55.1761C286.203 54.9602 286.477 54.6686 286.648 54.3011C286.822 53.9299 286.909 53.5114 286.909 53.0455C286.909 52.5795 286.822 52.1629 286.648 51.7955C286.477 51.428 286.201 51.1402 285.818 50.9318C285.436 50.7197 284.928 50.6136 284.295 50.6136H281.818V61H280.409ZM292.952 61.2045C292.399 61.2045 291.897 61.1004 291.446 60.892C290.995 60.6799 290.637 60.375 290.372 59.9773C290.107 59.5758 289.974 59.0909 289.974 58.5227C289.974 58.0227 290.073 57.6174 290.27 57.3068C290.467 56.9924 290.73 56.7462 291.06 56.5682C291.389 56.3902 291.753 56.2576 292.151 56.1705C292.552 56.0795 292.955 56.0076 293.361 55.9545C293.891 55.8864 294.321 55.8352 294.651 55.8011C294.984 55.7633 295.226 55.7008 295.378 55.6136C295.533 55.5265 295.611 55.375 295.611 55.1591V55.1136C295.611 54.553 295.457 54.1174 295.151 53.8068C294.848 53.4962 294.387 53.3409 293.77 53.3409C293.13 53.3409 292.628 53.4811 292.264 53.7614C291.901 54.0417 291.645 54.3409 291.497 54.6591L290.224 54.2045C290.452 53.6742 290.755 53.2614 291.134 52.9659C291.516 52.6667 291.933 52.4583 292.384 52.3409C292.838 52.2197 293.285 52.1591 293.724 52.1591C294.005 52.1591 294.327 52.1932 294.69 52.2614C295.058 52.3258 295.412 52.4602 295.753 52.6648C296.098 52.8693 296.384 53.178 296.611 53.5909C296.838 54.0038 296.952 54.5568 296.952 55.25V61H295.611V59.8182H295.543C295.452 60.0076 295.3 60.2102 295.088 60.4261C294.876 60.642 294.594 60.8258 294.241 60.9773C293.889 61.1288 293.459 61.2045 292.952 61.2045ZM293.156 60C293.687 60 294.134 59.8958 294.497 59.6875C294.865 59.4792 295.141 59.2102 295.327 58.8807C295.516 58.5511 295.611 58.2045 295.611 57.8409V56.6136C295.554 56.6818 295.429 56.7443 295.236 56.8011C295.046 56.8542 294.827 56.9015 294.577 56.9432C294.33 56.9811 294.09 57.0152 293.855 57.0455C293.624 57.072 293.437 57.0947 293.293 57.1136C292.944 57.1591 292.618 57.233 292.315 57.3352C292.016 57.4337 291.774 57.5833 291.588 57.7841C291.406 57.9811 291.315 58.25 291.315 58.5909C291.315 59.0568 291.488 59.4091 291.832 59.6477C292.181 59.8826 292.622 60 293.156 60ZM299.95 64.2727C299.723 64.2727 299.52 64.2538 299.342 64.2159C299.164 64.1818 299.041 64.1477 298.973 64.1136L299.314 62.9318C299.64 63.0152 299.928 63.0455 300.178 63.0227C300.428 63 300.649 62.8883 300.842 62.6875C301.039 62.4905 301.219 62.1705 301.382 61.7273L301.632 61.0455L298.405 52.2727H299.859L302.268 59.2273H302.359L304.768 52.2727H306.223L302.518 62.2727C302.352 62.7235 302.145 63.0966 301.899 63.392C301.653 63.6913 301.367 63.9129 301.041 64.0568C300.719 64.2008 300.356 64.2727 299.95 64.2727ZM307.993 61V52.2727H309.288V53.6364H309.402C309.584 53.1705 309.877 52.8087 310.283 52.5511C310.688 52.2898 311.175 52.1591 311.743 52.1591C312.319 52.1591 312.798 52.2898 313.18 52.5511C313.567 52.8087 313.868 53.1705 314.084 53.6364H314.175C314.398 53.1856 314.733 52.8277 315.18 52.5625C315.627 52.2936 316.163 52.1591 316.788 52.1591C317.569 52.1591 318.207 52.4034 318.703 52.892C319.199 53.3769 319.447 54.1326 319.447 55.1591V61H318.107V55.1591C318.107 54.5152 317.93 54.0549 317.578 53.7784C317.226 53.5019 316.811 53.3636 316.334 53.3636C315.72 53.3636 315.245 53.5492 314.908 53.9205C314.571 54.2879 314.402 54.7538 314.402 55.3182V61H313.038V55.0227C313.038 54.5265 312.877 54.1269 312.555 53.8239C312.233 53.517 311.819 53.3636 311.311 53.3636C310.963 53.3636 310.637 53.4564 310.334 53.642C310.035 53.8277 309.792 54.0852 309.607 54.4148C309.425 54.7405 309.334 55.1174 309.334 55.5455V61H307.993ZM325.558 61.1818C324.717 61.1818 323.992 60.9962 323.382 60.625C322.776 60.25 322.308 59.7273 321.979 59.0568C321.653 58.3826 321.49 57.5985 321.49 56.7045C321.49 55.8106 321.653 55.0227 321.979 54.3409C322.308 53.6553 322.767 53.1212 323.354 52.7386C323.945 52.3523 324.634 52.1591 325.422 52.1591C325.876 52.1591 326.325 52.2348 326.768 52.3864C327.212 52.5379 327.615 52.7841 327.979 53.125C328.342 53.4621 328.632 53.9091 328.848 54.4659C329.064 55.0227 329.172 55.7083 329.172 56.5227V57.0909H322.445V55.9318H327.808C327.808 55.4394 327.71 55 327.513 54.6136C327.32 54.2273 327.043 53.9223 326.683 53.6989C326.327 53.4754 325.907 53.3636 325.422 53.3636C324.888 53.3636 324.426 53.4962 324.036 53.7614C323.649 54.0227 323.352 54.3636 323.143 54.7841C322.935 55.2045 322.831 55.6553 322.831 56.1364V56.9091C322.831 57.5682 322.945 58.1269 323.172 58.5852C323.403 59.0398 323.723 59.3864 324.132 59.625C324.541 59.8598 325.017 59.9773 325.558 59.9773C325.911 59.9773 326.229 59.928 326.513 59.8295C326.801 59.7273 327.049 59.5758 327.257 59.375C327.465 59.1705 327.626 58.9167 327.74 58.6136L329.036 58.9773C328.899 59.4167 328.67 59.803 328.348 60.1364C328.026 60.4659 327.628 60.7235 327.155 60.9091C326.681 61.0909 326.149 61.1818 325.558 61.1818ZM332.553 55.75V61H331.212V52.2727H332.507V53.6364H332.621C332.825 53.1932 333.136 52.8371 333.553 52.5682C333.969 52.2955 334.507 52.1591 335.166 52.1591C335.757 52.1591 336.274 52.2803 336.717 52.5227C337.161 52.7614 337.505 53.125 337.751 53.6136C337.998 54.0985 338.121 54.7121 338.121 55.4545V61H336.78V55.5455C336.78 54.8598 336.602 54.3258 336.246 53.9432C335.89 53.5568 335.401 53.3636 334.78 53.3636C334.352 53.3636 333.969 53.4564 333.632 53.642C333.299 53.8277 333.036 54.0985 332.842 54.4545C332.649 54.8106 332.553 55.2424 332.553 55.75ZM344.366 52.2727V53.4091H339.844V52.2727H344.366ZM341.162 50.1818H342.503V58.5C342.503 58.8788 342.558 59.1629 342.668 59.3523C342.781 59.5379 342.925 59.6629 343.099 59.7273C343.277 59.7879 343.465 59.8182 343.662 59.8182C343.81 59.8182 343.931 59.8106 344.026 59.7955C344.12 59.7765 344.196 59.7614 344.253 59.75L344.526 60.9545C344.435 60.9886 344.308 61.0227 344.145 61.0568C343.982 61.0947 343.776 61.1136 343.526 61.1136C343.147 61.1136 342.776 61.0322 342.412 60.8693C342.052 60.7064 341.753 60.4583 341.514 60.125C341.279 59.7917 341.162 59.3712 341.162 58.8636V50.1818ZM280.409 73.3636H282.091L286.045 83.0227H286.182L290.136 73.3636H291.818V85H290.5V76.1591H290.386L286.75 85H285.477L281.841 76.1591H281.727V85H280.409V73.3636ZM298.121 85.1818C297.28 85.1818 296.554 84.9962 295.945 84.625C295.339 84.25 294.871 83.7273 294.541 83.0568C294.215 82.3826 294.053 81.5985 294.053 80.7045C294.053 79.8106 294.215 79.0227 294.541 78.3409C294.871 77.6553 295.329 77.1212 295.916 76.7386C296.507 76.3523 297.196 76.1591 297.984 76.1591C298.439 76.1591 298.888 76.2348 299.331 76.3864C299.774 76.5379 300.178 76.7841 300.541 77.125C300.905 77.4621 301.195 77.9091 301.411 78.4659C301.626 79.0227 301.734 79.7083 301.734 80.5227V81.0909H295.007V79.9318H300.371C300.371 79.4394 300.272 79 300.075 78.6136C299.882 78.2273 299.606 77.9223 299.246 77.6989C298.89 77.4754 298.469 77.3636 297.984 77.3636C297.45 77.3636 296.988 77.4962 296.598 77.7614C296.212 78.0227 295.914 78.3636 295.706 78.7841C295.498 79.2045 295.393 79.6553 295.393 80.1364V80.9091C295.393 81.5682 295.507 82.1269 295.734 82.5852C295.965 83.0398 296.286 83.3864 296.695 83.625C297.104 83.8598 297.579 83.9773 298.121 83.9773C298.473 83.9773 298.791 83.928 299.075 83.8295C299.363 83.7273 299.611 83.5758 299.82 83.375C300.028 83.1705 300.189 82.9167 300.303 82.6136L301.598 82.9773C301.462 83.4167 301.232 83.803 300.911 84.1364C300.589 84.4659 300.191 84.7235 299.717 84.9091C299.244 85.0909 298.712 85.1818 298.121 85.1818ZM307.57 76.2727V77.4091H303.047V76.2727H307.57ZM304.365 74.1818H305.706V82.5C305.706 82.8788 305.761 83.1629 305.871 83.3523C305.984 83.5379 306.128 83.6629 306.303 83.7273C306.481 83.7879 306.668 83.8182 306.865 83.8182C307.013 83.8182 307.134 83.8106 307.229 83.7955C307.323 83.7765 307.399 83.7614 307.456 83.75L307.729 84.9545C307.638 84.9886 307.511 85.0227 307.348 85.0568C307.185 85.0947 306.979 85.1136 306.729 85.1136C306.35 85.1136 305.979 85.0322 305.615 84.8693C305.255 84.7064 304.956 84.4583 304.717 84.125C304.482 83.7917 304.365 83.3712 304.365 82.8636V74.1818ZM311.115 79.75V85H309.774V73.3636H311.115V77.6364H311.229C311.433 77.1856 311.74 76.8277 312.149 76.5625C312.562 76.2936 313.111 76.1591 313.797 76.1591C314.392 76.1591 314.912 76.2784 315.359 76.517C315.806 76.7519 316.153 77.1136 316.399 77.6023C316.649 78.0871 316.774 78.7045 316.774 79.4545V85H315.433V79.5455C315.433 78.8523 315.253 78.3163 314.893 77.9375C314.537 77.5549 314.043 77.3636 313.411 77.3636C312.971 77.3636 312.577 77.4564 312.229 77.642C311.884 77.8277 311.611 78.0985 311.411 78.4545C311.214 78.8106 311.115 79.2424 311.115 79.75ZM322.773 85.1818C321.985 85.1818 321.294 84.9943 320.699 84.6193C320.108 84.2443 319.646 83.7197 319.312 83.0455C318.983 82.3712 318.818 81.5833 318.818 80.6818C318.818 79.7727 318.983 78.9792 319.312 78.3011C319.646 77.6231 320.108 77.0966 320.699 76.7216C321.294 76.3466 321.985 76.1591 322.773 76.1591C323.561 76.1591 324.25 76.3466 324.841 76.7216C325.436 77.0966 325.898 77.6231 326.227 78.3011C326.561 78.9792 326.727 79.7727 326.727 80.6818C326.727 81.5833 326.561 82.3712 326.227 83.0455C325.898 83.7197 325.436 84.2443 324.841 84.6193C324.25 84.9943 323.561 85.1818 322.773 85.1818ZM322.773 83.9773C323.371 83.9773 323.864 83.8239 324.25 83.517C324.636 83.2102 324.922 82.8068 325.108 82.3068C325.294 81.8068 325.386 81.2652 325.386 80.6818C325.386 80.0985 325.294 79.5549 325.108 79.0511C324.922 78.5473 324.636 78.1402 324.25 77.8295C323.864 77.5189 323.371 77.3636 322.773 77.3636C322.174 77.3636 321.682 77.5189 321.295 77.8295C320.909 78.1402 320.623 78.5473 320.438 79.0511C320.252 79.5549 320.159 80.0985 320.159 80.6818C320.159 81.2652 320.252 81.8068 320.438 82.3068C320.623 82.8068 320.909 83.2102 321.295 83.517C321.682 83.8239 322.174 83.9773 322.773 83.9773ZM332.07 85.1818C331.342 85.1818 330.7 84.9981 330.143 84.6307C329.587 84.2595 329.151 83.7367 328.837 83.0625C328.522 82.3845 328.365 81.5833 328.365 80.6591C328.365 79.7424 328.522 78.947 328.837 78.2727C329.151 77.5985 329.589 77.0777 330.149 76.7102C330.71 76.3428 331.357 76.1591 332.092 76.1591C332.661 76.1591 333.109 76.2538 333.439 76.4432C333.772 76.6288 334.026 76.8409 334.2 77.0795C334.378 77.3144 334.517 77.5076 334.615 77.6591H334.729V73.3636H336.07V85H334.774V83.6591H334.615C334.517 83.8182 334.376 84.0189 334.195 84.2614C334.013 84.5 333.753 84.714 333.416 84.9034C333.079 85.089 332.63 85.1818 332.07 85.1818ZM332.251 83.9773C332.789 83.9773 333.244 83.8371 333.615 83.5568C333.986 83.2727 334.268 82.8807 334.462 82.3807C334.655 81.8769 334.751 81.2955 334.751 80.6364C334.751 79.9848 334.657 79.4148 334.467 78.9261C334.278 78.4337 333.998 78.0511 333.626 77.7784C333.255 77.5019 332.797 77.3636 332.251 77.3636C331.683 77.3636 331.21 77.5095 330.831 77.8011C330.456 78.089 330.174 78.4811 329.984 78.9773C329.799 79.4697 329.706 80.0227 329.706 80.6364C329.706 81.2576 329.801 81.822 329.99 82.3295C330.183 82.8333 330.467 83.2348 330.842 83.5341C331.221 83.8295 331.691 83.9773 332.251 83.9773ZM342.757 77V75.9773C342.757 75.6667 342.812 75.3371 342.922 74.9886C343.036 74.6364 343.198 74.2973 343.411 73.9716C343.626 73.642 343.886 73.3561 344.189 73.1136L344.916 73.7045C344.678 74.0455 344.469 74.4015 344.291 74.7727C344.117 75.1402 344.03 75.5341 344.03 75.9545V77H342.757ZM345.666 77V75.9773C345.666 75.6667 345.721 75.3371 345.831 74.9886C345.945 74.6364 346.107 74.2973 346.32 73.9716C346.536 73.642 346.795 73.3561 347.098 73.1136L347.825 73.7045C347.587 74.0455 347.378 74.4015 347.2 74.7727C347.026 75.1402 346.939 75.5341 346.939 75.9545V77H345.666ZM350.169 73.3636L353.169 78.2045H353.26L356.26 73.3636H357.919L354.26 79.1818L357.919 85H356.26L353.26 80.25H353.169L350.169 85H348.51L352.26 79.1818L348.51 73.3636H350.169ZM360.753 73.3636V74.3864C360.753 74.697 360.696 75.0284 360.582 75.3807C360.473 75.7292 360.31 76.0682 360.094 76.3977C359.882 76.7235 359.624 77.0076 359.321 77.25L358.594 76.6591C358.832 76.3182 359.039 75.964 359.213 75.5966C359.391 75.2254 359.48 74.8295 359.48 74.4091V73.3636H360.753ZM363.662 73.3636V74.3864C363.662 74.697 363.605 75.0284 363.491 75.3807C363.382 75.7292 363.219 76.0682 363.003 76.3977C362.791 76.7235 362.533 77.0076 362.23 77.25L361.503 76.6591C361.741 76.3182 361.948 75.964 362.122 75.5966C362.3 75.2254 362.389 74.8295 362.389 74.4091V73.3636H363.662Z" fill="#374151"/>
<rect x="263.689" y="29" width="141.311" height="76" rx="15" stroke="#F3F4F6" stroke-width="2"/>
<rect x="262" y="54.5532" width="2.75598" height="24.8936" rx="1.37799" fill="#167BB7"/>
<path d="M404 67C404 69.2091 405.791 71 408 71C410.209 71 412 69.2091 412 67C412 64.7909 410.209 63 408 63C405.791 63 404 64.7909 404 67ZM436 67L428.5 62.6699V71.3301L436 67ZM408 67.75H429.25V66.25H408V67.75Z" fill="#6B7280"/>
<rect x="439.689" y="29" width="141.311" height="76" rx="15" fill="#E8F2F8"/>
<path d="M454.409 73V61.3636H458.341C459.254 61.3636 460 61.5284 460.58 61.858C461.163 62.1837 461.595 62.625 461.875 63.1818C462.155 63.7386 462.295 64.3598 462.295 65.0455C462.295 65.7311 462.155 66.3542 461.875 66.9148C461.598 67.4754 461.17 67.9223 460.591 68.2557C460.011 68.5852 459.269 68.75 458.364 68.75H455.545V67.5H458.318C458.943 67.5 459.445 67.392 459.824 67.1761C460.203 66.9602 460.477 66.6686 460.648 66.3011C460.822 65.9299 460.909 65.5114 460.909 65.0455C460.909 64.5795 460.822 64.1629 460.648 63.7955C460.477 63.428 460.201 63.1402 459.818 62.9318C459.436 62.7197 458.928 62.6136 458.295 62.6136H455.818V73H454.409ZM465.724 61.3636V73H464.384V61.3636H465.724ZM473.68 69.4318V64.2727H475.021V73H473.68V71.5227H473.589C473.385 71.9659 473.067 72.3428 472.635 72.6534C472.203 72.9602 471.658 73.1136 470.999 73.1136C470.453 73.1136 469.968 72.9943 469.544 72.7557C469.12 72.5133 468.786 72.1496 468.544 71.6648C468.302 71.1761 468.18 70.5606 468.18 69.8182V64.2727H469.521V69.7273C469.521 70.3636 469.699 70.8712 470.055 71.25C470.415 71.6288 470.874 71.8182 471.43 71.8182C471.764 71.8182 472.103 71.733 472.447 71.5625C472.796 71.392 473.088 71.1307 473.322 70.7784C473.561 70.4261 473.68 69.9773 473.68 69.4318ZM481 76.4545C480.352 76.4545 479.795 76.3712 479.33 76.2045C478.864 76.0417 478.475 75.8258 478.165 75.5568C477.858 75.2917 477.614 75.0076 477.432 74.7045L478.5 73.9545C478.621 74.1136 478.775 74.2955 478.96 74.5C479.146 74.7083 479.4 74.8883 479.722 75.0398C480.047 75.1951 480.473 75.2727 481 75.2727C481.705 75.2727 482.286 75.1023 482.744 74.7614C483.203 74.4205 483.432 73.8864 483.432 73.1591V71.3864H483.318C483.22 71.5455 483.08 71.7424 482.898 71.9773C482.72 72.2083 482.462 72.4148 482.125 72.5966C481.792 72.7746 481.341 72.8636 480.773 72.8636C480.068 72.8636 479.436 72.697 478.875 72.3636C478.318 72.0303 477.877 71.5455 477.551 70.9091C477.229 70.2727 477.068 69.5 477.068 68.5909C477.068 67.697 477.225 66.9186 477.54 66.2557C477.854 65.589 478.292 65.0739 478.852 64.7102C479.413 64.3428 480.061 64.1591 480.795 64.1591C481.364 64.1591 481.814 64.2538 482.148 64.4432C482.485 64.6288 482.742 64.8409 482.92 65.0795C483.102 65.3144 483.242 65.5076 483.341 65.6591H483.477V64.2727H484.773V73.25C484.773 74 484.602 74.6098 484.261 75.0795C483.924 75.553 483.47 75.8996 482.898 76.1193C482.33 76.3428 481.697 76.4545 481 76.4545ZM480.955 71.6591C481.492 71.6591 481.947 71.536 482.318 71.2898C482.689 71.0436 482.972 70.6894 483.165 70.2273C483.358 69.7652 483.455 69.2121 483.455 68.5682C483.455 67.9394 483.36 67.3845 483.17 66.9034C482.981 66.4223 482.701 66.0455 482.33 65.7727C481.958 65.5 481.5 65.3636 480.955 65.3636C480.386 65.3636 479.913 65.5076 479.534 65.7955C479.159 66.0833 478.877 66.4697 478.687 66.9545C478.502 67.4394 478.409 67.9773 478.409 68.5682C478.409 69.1742 478.504 69.7102 478.693 70.1761C478.886 70.6383 479.17 71.0019 479.545 71.267C479.924 71.5284 480.394 71.6591 480.955 71.6591ZM487.227 73V64.2727H488.568V73H487.227ZM487.909 62.8182C487.648 62.8182 487.422 62.7292 487.233 62.5511C487.047 62.3731 486.955 62.1591 486.955 61.9091C486.955 61.6591 487.047 61.4451 487.233 61.267C487.422 61.089 487.648 61 487.909 61C488.17 61 488.394 61.089 488.58 61.267C488.769 61.4451 488.864 61.6591 488.864 61.9091C488.864 62.1591 488.769 62.3731 488.58 62.5511C488.394 62.7292 488.17 62.8182 487.909 62.8182ZM492.365 67.75V73H491.024V64.2727H492.32V65.6364H492.433C492.638 65.1932 492.948 64.8371 493.365 64.5682C493.782 64.2955 494.32 64.1591 494.979 64.1591C495.57 64.1591 496.087 64.2803 496.53 64.5227C496.973 64.7614 497.318 65.125 497.564 65.6136C497.81 66.0985 497.933 66.7121 497.933 67.4545V73H496.592V67.5455C496.592 66.8598 496.414 66.3258 496.058 65.9432C495.702 65.5568 495.214 65.3636 494.592 65.3636C494.164 65.3636 493.782 65.4564 493.445 65.642C493.111 65.8277 492.848 66.0985 492.655 66.4545C492.462 66.8106 492.365 67.2424 492.365 67.75ZM504.429 65V63.9773C504.429 63.6667 504.484 63.3371 504.594 62.9886C504.707 62.6364 504.87 62.2973 505.082 61.9716C505.298 61.642 505.558 61.3561 505.861 61.1136L506.588 61.7045C506.349 62.0455 506.141 62.4015 505.963 62.7727C505.789 63.1402 505.702 63.5341 505.702 63.9545V65H504.429ZM507.338 65V63.9773C507.338 63.6667 507.393 63.3371 507.503 62.9886C507.616 62.6364 507.779 62.2973 507.991 61.9716C508.207 61.642 508.467 61.3561 508.77 61.1136L509.497 61.7045C509.259 62.0455 509.05 62.4015 508.872 62.7727C508.698 63.1402 508.611 63.5341 508.611 63.9545V65H507.338ZM511.841 61.3636L514.841 66.2045H514.932L517.932 61.3636H519.591L515.932 67.1818L519.591 73H517.932L514.932 68.25H514.841L511.841 73H510.182L513.932 67.1818L510.182 61.3636H511.841ZM522.425 61.3636V62.3864C522.425 62.697 522.368 63.0284 522.254 63.3807C522.144 63.7292 521.982 64.0682 521.766 64.3977C521.553 64.7235 521.296 65.0076 520.993 65.25L520.266 64.6591C520.504 64.3182 520.711 63.964 520.885 63.5966C521.063 63.2254 521.152 62.8295 521.152 62.4091V61.3636H522.425ZM525.334 61.3636V62.3864C525.334 62.697 525.277 63.0284 525.163 63.3807C525.053 63.7292 524.891 64.0682 524.675 64.3977C524.463 64.7235 524.205 65.0076 523.902 65.25L523.175 64.6591C523.413 64.3182 523.62 63.964 523.794 63.5966C523.972 63.2254 524.061 62.8295 524.061 62.4091V61.3636H525.334Z" fill="#374151"/>
<rect x="439.689" y="29" width="141.311" height="76" rx="15" stroke="#F3F4F6" stroke-width="2"/>
<rect x="438" y="54.5532" width="2.75598" height="24.8936" rx="1.37799" fill="#167BB7"/>
<path d="M580 67C580 69.2091 581.791 71 584 71C586.209 71 588 69.2091 588 67C588 64.7909 586.209 63 584 63C581.791 63 580 64.7909 580 67ZM612 67L604.5 62.6699V71.3301L612 67ZM584 67.75H585.4V66.25H584V67.75ZM588.2 67.75H591V66.25H588.2V67.75ZM593.8 67.75H596.6V66.25H593.8V67.75ZM599.4 67.75H602.2V66.25H599.4V67.75ZM605 67.75H607.8V66.25H605V67.75Z" fill="#6B7280"/>
<rect x="615.689" y="29" width="141.311" height="76" rx="15" fill="#E8F2F8"/>
<path d="M637.364 65C637.239 64.6174 637.074 64.2746 636.869 63.9716C636.669 63.6648 636.428 63.4034 636.148 63.1875C635.871 62.9716 635.557 62.8068 635.205 62.6932C634.852 62.5795 634.466 62.5227 634.045 62.5227C633.356 62.5227 632.729 62.7008 632.165 63.0568C631.6 63.4129 631.152 63.9375 630.818 64.6307C630.485 65.3239 630.318 66.1742 630.318 67.1818C630.318 68.1894 630.487 69.0398 630.824 69.733C631.161 70.4261 631.617 70.9508 632.193 71.3068C632.769 71.6629 633.417 71.8409 634.136 71.8409C634.803 71.8409 635.39 71.6989 635.898 71.4148C636.409 71.1269 636.807 70.7216 637.091 70.1989C637.379 69.6723 637.523 69.053 637.523 68.3409L637.955 68.4318H634.455V67.1818H638.886V68.4318C638.886 69.3902 638.682 70.2235 638.273 70.9318C637.867 71.6402 637.307 72.1894 636.591 72.5795C635.879 72.9659 635.061 73.1591 634.136 73.1591C633.106 73.1591 632.201 72.9167 631.42 72.4318C630.644 71.947 630.038 71.2576 629.602 70.3636C629.17 69.4697 628.955 68.4091 628.955 67.1818C628.955 66.2614 629.078 65.4337 629.324 64.6989C629.574 63.9602 629.926 63.3314 630.381 62.8125C630.835 62.2936 631.373 61.8958 631.994 61.6193C632.616 61.3428 633.299 61.2045 634.045 61.2045C634.659 61.2045 635.231 61.2973 635.761 61.483C636.295 61.6648 636.771 61.9242 637.188 62.2614C637.608 62.5947 637.958 62.9943 638.239 63.4602C638.519 63.9223 638.712 64.4356 638.818 65H637.364ZM643.686 73.2045C643.133 73.2045 642.631 73.1004 642.18 72.892C641.73 72.6799 641.372 72.375 641.107 71.9773C640.841 71.5758 640.709 71.0909 640.709 70.5227C640.709 70.0227 640.807 69.6174 641.004 69.3068C641.201 68.9924 641.464 68.7462 641.794 68.5682C642.124 68.3902 642.487 68.2576 642.885 68.1705C643.286 68.0795 643.69 68.0076 644.095 67.9545C644.625 67.8864 645.055 67.8352 645.385 67.8011C645.718 67.7633 645.961 67.7008 646.112 67.6136C646.268 67.5265 646.345 67.375 646.345 67.1591V67.1136C646.345 66.553 646.192 66.1174 645.885 65.8068C645.582 65.4962 645.122 65.3409 644.504 65.3409C643.864 65.3409 643.362 65.4811 642.999 65.7614C642.635 66.0417 642.379 66.3409 642.232 66.6591L640.959 66.2045C641.186 65.6742 641.489 65.2614 641.868 64.9659C642.25 64.6667 642.667 64.4583 643.118 64.3409C643.572 64.2197 644.019 64.1591 644.459 64.1591C644.739 64.1591 645.061 64.1932 645.425 64.2614C645.792 64.3258 646.146 64.4602 646.487 64.6648C646.832 64.8693 647.118 65.178 647.345 65.5909C647.572 66.0038 647.686 66.5568 647.686 67.25V73H646.345V71.8182H646.277C646.186 72.0076 646.035 72.2102 645.822 72.4261C645.61 72.642 645.328 72.8258 644.976 72.9773C644.624 73.1288 644.194 73.2045 643.686 73.2045ZM643.891 72C644.421 72 644.868 71.8958 645.232 71.6875C645.599 71.4792 645.875 71.2102 646.061 70.8807C646.25 70.5511 646.345 70.2045 646.345 69.8409V68.6136C646.288 68.6818 646.163 68.7443 645.97 68.8011C645.781 68.8542 645.561 68.9015 645.311 68.9432C645.065 68.9811 644.824 69.0152 644.589 69.0455C644.358 69.072 644.171 69.0947 644.027 69.1136C643.679 69.1591 643.353 69.233 643.05 69.3352C642.75 69.4337 642.508 69.5833 642.322 69.7841C642.141 69.9811 642.05 70.25 642.05 70.5909C642.05 71.0568 642.222 71.4091 642.567 71.6477C642.915 71.8826 643.357 72 643.891 72ZM653.929 64.2727V65.4091H649.406V64.2727H653.929ZM650.724 62.1818H652.065V70.5C652.065 70.8788 652.12 71.1629 652.23 71.3523C652.344 71.5379 652.488 71.6629 652.662 71.7273C652.84 71.7879 653.027 71.8182 653.224 71.8182C653.372 71.8182 653.493 71.8106 653.588 71.7955C653.683 71.7765 653.759 71.7614 653.815 71.75L654.088 72.9545C653.997 72.9886 653.87 73.0227 653.707 73.0568C653.545 73.0947 653.338 73.1136 653.088 73.1136C652.709 73.1136 652.338 73.0322 651.974 72.8693C651.615 72.7064 651.315 72.4583 651.077 72.125C650.842 71.7917 650.724 71.3712 650.724 70.8636V62.1818ZM659.511 73.1818C658.67 73.1818 657.945 72.9962 657.335 72.625C656.729 72.25 656.261 71.7273 655.932 71.0568C655.606 70.3826 655.443 69.5985 655.443 68.7045C655.443 67.8106 655.606 67.0227 655.932 66.3409C656.261 65.6553 656.72 65.1212 657.307 64.7386C657.898 64.3523 658.587 64.1591 659.375 64.1591C659.83 64.1591 660.278 64.2348 660.722 64.3864C661.165 64.5379 661.568 64.7841 661.932 65.125C662.295 65.4621 662.585 65.9091 662.801 66.4659C663.017 67.0227 663.125 67.7083 663.125 68.5227V69.0909H656.398V67.9318H661.761C661.761 67.4394 661.663 67 661.466 66.6136C661.273 66.2273 660.996 65.9223 660.636 65.6989C660.28 65.4754 659.86 65.3636 659.375 65.3636C658.841 65.3636 658.379 65.4962 657.989 65.7614C657.602 66.0227 657.305 66.3636 657.097 66.7841C656.888 67.2045 656.784 67.6553 656.784 68.1364V68.9091C656.784 69.5682 656.898 70.1269 657.125 70.5852C657.356 71.0398 657.676 71.3864 658.085 71.625C658.494 71.8598 658.97 71.9773 659.511 71.9773C659.864 71.9773 660.182 71.928 660.466 71.8295C660.754 71.7273 661.002 71.5758 661.21 71.375C661.419 71.1705 661.58 70.9167 661.693 70.6136L662.989 70.9773C662.852 71.4167 662.623 71.803 662.301 72.1364C661.979 72.4659 661.581 72.7235 661.108 72.9091C660.634 73.0909 660.102 73.1818 659.511 73.1818ZM667.142 73L664.483 64.2727H665.892L667.778 70.9545H667.869L669.733 64.2727H671.165L673.006 70.9318H673.097L674.983 64.2727H676.392L673.733 73H672.415L670.506 66.2955H670.369L668.46 73H667.142ZM680.733 73.2045C680.18 73.2045 679.678 73.1004 679.227 72.892C678.777 72.6799 678.419 72.375 678.153 71.9773C677.888 71.5758 677.756 71.0909 677.756 70.5227C677.756 70.0227 677.854 69.6174 678.051 69.3068C678.248 68.9924 678.511 68.7462 678.841 68.5682C679.17 68.3902 679.534 68.2576 679.932 68.1705C680.333 68.0795 680.737 68.0076 681.142 67.9545C681.672 67.8864 682.102 67.8352 682.432 67.8011C682.765 67.7633 683.008 67.7008 683.159 67.6136C683.314 67.5265 683.392 67.375 683.392 67.1591V67.1136C683.392 66.553 683.239 66.1174 682.932 65.8068C682.629 65.4962 682.169 65.3409 681.551 65.3409C680.911 65.3409 680.409 65.4811 680.045 65.7614C679.682 66.0417 679.426 66.3409 679.278 66.6591L678.006 66.2045C678.233 65.6742 678.536 65.2614 678.915 64.9659C679.297 64.6667 679.714 64.4583 680.165 64.3409C680.619 64.2197 681.066 64.1591 681.506 64.1591C681.786 64.1591 682.108 64.1932 682.472 64.2614C682.839 64.3258 683.193 64.4602 683.534 64.6648C683.879 64.8693 684.165 65.178 684.392 65.5909C684.619 66.0038 684.733 66.5568 684.733 67.25V73H683.392V71.8182H683.324C683.233 72.0076 683.081 72.2102 682.869 72.4261C682.657 72.642 682.375 72.8258 682.023 72.9773C681.67 73.1288 681.241 73.2045 680.733 73.2045ZM680.938 72C681.468 72 681.915 71.8958 682.278 71.6875C682.646 71.4792 682.922 71.2102 683.108 70.8807C683.297 70.5511 683.392 70.2045 683.392 69.8409V68.6136C683.335 68.6818 683.21 68.7443 683.017 68.8011C682.828 68.8542 682.608 68.9015 682.358 68.9432C682.112 68.9811 681.871 69.0152 681.636 69.0455C681.405 69.072 681.218 69.0947 681.074 69.1136C680.725 69.1591 680.4 69.233 680.097 69.3352C679.797 69.4337 679.555 69.5833 679.369 69.7841C679.188 69.9811 679.097 70.25 679.097 70.5909C679.097 71.0568 679.269 71.4091 679.614 71.6477C679.962 71.8826 680.403 72 680.938 72ZM687.732 76.2727C687.504 76.2727 687.302 76.2538 687.124 76.2159C686.946 76.1818 686.822 76.1477 686.754 76.1136L687.095 74.9318C687.421 75.0152 687.709 75.0455 687.959 75.0227C688.209 75 688.43 74.8883 688.624 74.6875C688.821 74.4905 689 74.1705 689.163 73.7273L689.413 73.0455L686.186 64.2727H687.641L690.05 71.2273H690.141L692.55 64.2727H694.004L690.3 74.2727C690.133 74.7235 689.927 75.0966 689.68 75.392C689.434 75.6913 689.148 75.9129 688.822 76.0568C688.5 76.2008 688.137 76.2727 687.732 76.2727ZM699.82 65V63.9773C699.82 63.6667 699.875 63.3371 699.984 62.9886C700.098 62.6364 700.261 62.2973 700.473 61.9716C700.689 61.642 700.948 61.3561 701.251 61.1136L701.979 61.7045C701.74 62.0455 701.532 62.4015 701.354 62.7727C701.179 63.1402 701.092 63.5341 701.092 63.9545V65H699.82ZM702.729 65V63.9773C702.729 63.6667 702.784 63.3371 702.893 62.9886C703.007 62.6364 703.17 62.2973 703.382 61.9716C703.598 61.642 703.857 61.3561 704.161 61.1136L704.888 61.7045C704.649 62.0455 704.441 62.4015 704.263 62.7727C704.089 63.1402 704.001 63.5341 704.001 63.9545V65H702.729ZM707.232 61.3636L710.232 66.2045H710.322L713.322 61.3636H714.982L711.322 67.1818L714.982 73H713.322L710.322 68.25H710.232L707.232 73H705.572L709.322 67.1818L705.572 61.3636H707.232ZM717.815 61.3636V62.3864C717.815 62.697 717.759 63.0284 717.645 63.3807C717.535 63.7292 717.372 64.0682 717.156 64.3977C716.944 64.7235 716.687 65.0076 716.384 65.25L715.656 64.6591C715.895 64.3182 716.101 63.964 716.276 63.5966C716.454 63.2254 716.543 62.8295 716.543 62.4091V61.3636H717.815ZM720.724 61.3636V62.3864C720.724 62.697 720.668 63.0284 720.554 63.3807C720.444 63.7292 720.281 64.0682 720.065 64.3977C719.853 64.7235 719.596 65.0076 719.293 65.25L718.565 64.6591C718.804 64.3182 719.01 63.964 719.185 63.5966C719.363 63.2254 719.452 62.8295 719.452 62.4091V61.3636H720.724Z" fill="#374151"/>
<rect x="615.689" y="29" width="141.311" height="76" rx="15" stroke="#F3F4F6" stroke-width="2"/>
<rect x="614" y="54.5532" width="2.75598" height="24.8936" rx="1.37799" fill="#167BB7"/>
<rect x="264.689" y="142" width="141.311" height="76" rx="15" fill="#ECFDF5"/>
<path d="M281.409 174V162.364H285.341C286.254 162.364 287 162.528 287.58 162.858C288.163 163.184 288.595 163.625 288.875 164.182C289.155 164.739 289.295 165.36 289.295 166.045C289.295 166.731 289.155 167.354 288.875 167.915C288.598 168.475 288.17 168.922 287.591 169.256C287.011 169.585 286.269 169.75 285.364 169.75H282.545V168.5H285.318C285.943 168.5 286.445 168.392 286.824 168.176C287.203 167.96 287.477 167.669 287.648 167.301C287.822 166.93 287.909 166.511 287.909 166.045C287.909 165.58 287.822 165.163 287.648 164.795C287.477 164.428 287.201 164.14 286.818 163.932C286.436 163.72 285.928 163.614 285.295 163.614H282.818V174H281.409ZM293.952 174.205C293.399 174.205 292.897 174.1 292.446 173.892C291.995 173.68 291.637 173.375 291.372 172.977C291.107 172.576 290.974 172.091 290.974 171.523C290.974 171.023 291.073 170.617 291.27 170.307C291.467 169.992 291.73 169.746 292.06 169.568C292.389 169.39 292.753 169.258 293.151 169.17C293.552 169.08 293.955 169.008 294.361 168.955C294.891 168.886 295.321 168.835 295.651 168.801C295.984 168.763 296.226 168.701 296.378 168.614C296.533 168.527 296.611 168.375 296.611 168.159V168.114C296.611 167.553 296.457 167.117 296.151 166.807C295.848 166.496 295.387 166.341 294.77 166.341C294.13 166.341 293.628 166.481 293.264 166.761C292.901 167.042 292.645 167.341 292.497 167.659L291.224 167.205C291.452 166.674 291.755 166.261 292.134 165.966C292.516 165.667 292.933 165.458 293.384 165.341C293.838 165.22 294.285 165.159 294.724 165.159C295.005 165.159 295.327 165.193 295.69 165.261C296.058 165.326 296.412 165.46 296.753 165.665C297.098 165.869 297.384 166.178 297.611 166.591C297.838 167.004 297.952 167.557 297.952 168.25V174H296.611V172.818H296.543C296.452 173.008 296.3 173.21 296.088 173.426C295.876 173.642 295.594 173.826 295.241 173.977C294.889 174.129 294.459 174.205 293.952 174.205ZM294.156 173C294.687 173 295.134 172.896 295.497 172.688C295.865 172.479 296.141 172.21 296.327 171.881C296.516 171.551 296.611 171.205 296.611 170.841V169.614C296.554 169.682 296.429 169.744 296.236 169.801C296.046 169.854 295.827 169.902 295.577 169.943C295.33 169.981 295.09 170.015 294.855 170.045C294.624 170.072 294.437 170.095 294.293 170.114C293.944 170.159 293.618 170.233 293.315 170.335C293.016 170.434 292.774 170.583 292.588 170.784C292.406 170.981 292.315 171.25 292.315 171.591C292.315 172.057 292.488 172.409 292.832 172.648C293.181 172.883 293.622 173 294.156 173ZM300.95 177.273C300.723 177.273 300.52 177.254 300.342 177.216C300.164 177.182 300.041 177.148 299.973 177.114L300.314 175.932C300.64 176.015 300.928 176.045 301.178 176.023C301.428 176 301.649 175.888 301.842 175.688C302.039 175.491 302.219 175.17 302.382 174.727L302.632 174.045L299.405 165.273H300.859L303.268 172.227H303.359L305.768 165.273H307.223L303.518 175.273C303.352 175.723 303.145 176.097 302.899 176.392C302.653 176.691 302.367 176.913 302.041 177.057C301.719 177.201 301.356 177.273 300.95 177.273ZM308.993 174V165.273H310.288V166.636H310.402C310.584 166.17 310.877 165.809 311.283 165.551C311.688 165.29 312.175 165.159 312.743 165.159C313.319 165.159 313.798 165.29 314.18 165.551C314.567 165.809 314.868 166.17 315.084 166.636H315.175C315.398 166.186 315.733 165.828 316.18 165.562C316.627 165.294 317.163 165.159 317.788 165.159C318.569 165.159 319.207 165.403 319.703 165.892C320.199 166.377 320.447 167.133 320.447 168.159V174H319.107V168.159C319.107 167.515 318.93 167.055 318.578 166.778C318.226 166.502 317.811 166.364 317.334 166.364C316.72 166.364 316.245 166.549 315.908 166.92C315.571 167.288 315.402 167.754 315.402 168.318V174H314.038V168.023C314.038 167.527 313.877 167.127 313.555 166.824C313.233 166.517 312.819 166.364 312.311 166.364C311.963 166.364 311.637 166.456 311.334 166.642C311.035 166.828 310.792 167.085 310.607 167.415C310.425 167.741 310.334 168.117 310.334 168.545V174H308.993ZM326.558 174.182C325.717 174.182 324.992 173.996 324.382 173.625C323.776 173.25 323.308 172.727 322.979 172.057C322.653 171.383 322.49 170.598 322.49 169.705C322.49 168.811 322.653 168.023 322.979 167.341C323.308 166.655 323.767 166.121 324.354 165.739C324.945 165.352 325.634 165.159 326.422 165.159C326.876 165.159 327.325 165.235 327.768 165.386C328.212 165.538 328.615 165.784 328.979 166.125C329.342 166.462 329.632 166.909 329.848 167.466C330.064 168.023 330.172 168.708 330.172 169.523V170.091H323.445V168.932H328.808C328.808 168.439 328.71 168 328.513 167.614C328.32 167.227 328.043 166.922 327.683 166.699C327.327 166.475 326.907 166.364 326.422 166.364C325.888 166.364 325.426 166.496 325.036 166.761C324.649 167.023 324.352 167.364 324.143 167.784C323.935 168.205 323.831 168.655 323.831 169.136V169.909C323.831 170.568 323.945 171.127 324.172 171.585C324.403 172.04 324.723 172.386 325.132 172.625C325.541 172.86 326.017 172.977 326.558 172.977C326.911 172.977 327.229 172.928 327.513 172.83C327.801 172.727 328.049 172.576 328.257 172.375C328.465 172.17 328.626 171.917 328.74 171.614L330.036 171.977C329.899 172.417 329.67 172.803 329.348 173.136C329.026 173.466 328.628 173.723 328.155 173.909C327.681 174.091 327.149 174.182 326.558 174.182ZM333.553 168.75V174H332.212V165.273H333.507V166.636H333.621C333.825 166.193 334.136 165.837 334.553 165.568C334.969 165.295 335.507 165.159 336.166 165.159C336.757 165.159 337.274 165.28 337.717 165.523C338.161 165.761 338.505 166.125 338.751 166.614C338.998 167.098 339.121 167.712 339.121 168.455V174H337.78V168.545C337.78 167.86 337.602 167.326 337.246 166.943C336.89 166.557 336.401 166.364 335.78 166.364C335.352 166.364 334.969 166.456 334.632 166.642C334.299 166.828 334.036 167.098 333.842 167.455C333.649 167.811 333.553 168.242 333.553 168.75ZM345.366 165.273V166.409H340.844V165.273H345.366ZM342.162 163.182H343.503V171.5C343.503 171.879 343.558 172.163 343.668 172.352C343.781 172.538 343.925 172.663 344.099 172.727C344.277 172.788 344.465 172.818 344.662 172.818C344.81 172.818 344.931 172.811 345.026 172.795C345.12 172.777 345.196 172.761 345.253 172.75L345.526 173.955C345.435 173.989 345.308 174.023 345.145 174.057C344.982 174.095 344.776 174.114 344.526 174.114C344.147 174.114 343.776 174.032 343.412 173.869C343.052 173.706 342.753 173.458 342.514 173.125C342.279 172.792 342.162 172.371 342.162 171.864V163.182ZM281.409 186.364H283.091L287.045 196.023H287.182L291.136 186.364H292.818V198H291.5V189.159H291.386L287.75 198H286.477L282.841 189.159H282.727V198H281.409V186.364ZM299.121 198.182C298.28 198.182 297.554 197.996 296.945 197.625C296.339 197.25 295.871 196.727 295.541 196.057C295.215 195.383 295.053 194.598 295.053 193.705C295.053 192.811 295.215 192.023 295.541 191.341C295.871 190.655 296.329 190.121 296.916 189.739C297.507 189.352 298.196 189.159 298.984 189.159C299.439 189.159 299.888 189.235 300.331 189.386C300.774 189.538 301.178 189.784 301.541 190.125C301.905 190.462 302.195 190.909 302.411 191.466C302.626 192.023 302.734 192.708 302.734 193.523V194.091H296.007V192.932H301.371C301.371 192.439 301.272 192 301.075 191.614C300.882 191.227 300.606 190.922 300.246 190.699C299.89 190.475 299.469 190.364 298.984 190.364C298.45 190.364 297.988 190.496 297.598 190.761C297.212 191.023 296.914 191.364 296.706 191.784C296.498 192.205 296.393 192.655 296.393 193.136V193.909C296.393 194.568 296.507 195.127 296.734 195.585C296.965 196.04 297.286 196.386 297.695 196.625C298.104 196.86 298.579 196.977 299.121 196.977C299.473 196.977 299.791 196.928 300.075 196.83C300.363 196.727 300.611 196.576 300.82 196.375C301.028 196.17 301.189 195.917 301.303 195.614L302.598 195.977C302.462 196.417 302.232 196.803 301.911 197.136C301.589 197.466 301.191 197.723 300.717 197.909C300.244 198.091 299.712 198.182 299.121 198.182ZM308.57 189.273V190.409H304.047V189.273H308.57ZM305.365 187.182H306.706V195.5C306.706 195.879 306.761 196.163 306.871 196.352C306.984 196.538 307.128 196.663 307.303 196.727C307.481 196.788 307.668 196.818 307.865 196.818C308.013 196.818 308.134 196.811 308.229 196.795C308.323 196.777 308.399 196.761 308.456 196.75L308.729 197.955C308.638 197.989 308.511 198.023 308.348 198.057C308.185 198.095 307.979 198.114 307.729 198.114C307.35 198.114 306.979 198.032 306.615 197.869C306.255 197.706 305.956 197.458 305.717 197.125C305.482 196.792 305.365 196.371 305.365 195.864V187.182ZM312.115 192.75V198H310.774V186.364H312.115V190.636H312.229C312.433 190.186 312.74 189.828 313.149 189.562C313.562 189.294 314.111 189.159 314.797 189.159C315.392 189.159 315.912 189.278 316.359 189.517C316.806 189.752 317.153 190.114 317.399 190.602C317.649 191.087 317.774 191.705 317.774 192.455V198H316.433V192.545C316.433 191.852 316.253 191.316 315.893 190.938C315.537 190.555 315.043 190.364 314.411 190.364C313.971 190.364 313.577 190.456 313.229 190.642C312.884 190.828 312.611 191.098 312.411 191.455C312.214 191.811 312.115 192.242 312.115 192.75ZM323.773 198.182C322.985 198.182 322.294 197.994 321.699 197.619C321.108 197.244 320.646 196.72 320.312 196.045C319.983 195.371 319.818 194.583 319.818 193.682C319.818 192.773 319.983 191.979 320.312 191.301C320.646 190.623 321.108 190.097 321.699 189.722C322.294 189.347 322.985 189.159 323.773 189.159C324.561 189.159 325.25 189.347 325.841 189.722C326.436 190.097 326.898 190.623 327.227 191.301C327.561 191.979 327.727 192.773 327.727 193.682C327.727 194.583 327.561 195.371 327.227 196.045C326.898 196.72 326.436 197.244 325.841 197.619C325.25 197.994 324.561 198.182 323.773 198.182ZM323.773 196.977C324.371 196.977 324.864 196.824 325.25 196.517C325.636 196.21 325.922 195.807 326.108 195.307C326.294 194.807 326.386 194.265 326.386 193.682C326.386 193.098 326.294 192.555 326.108 192.051C325.922 191.547 325.636 191.14 325.25 190.83C324.864 190.519 324.371 190.364 323.773 190.364C323.174 190.364 322.682 190.519 322.295 190.83C321.909 191.14 321.623 191.547 321.438 192.051C321.252 192.555 321.159 193.098 321.159 193.682C321.159 194.265 321.252 194.807 321.438 195.307C321.623 195.807 321.909 196.21 322.295 196.517C322.682 196.824 323.174 196.977 323.773 196.977ZM333.07 198.182C332.342 198.182 331.7 197.998 331.143 197.631C330.587 197.259 330.151 196.737 329.837 196.062C329.522 195.384 329.365 194.583 329.365 193.659C329.365 192.742 329.522 191.947 329.837 191.273C330.151 190.598 330.589 190.078 331.149 189.71C331.71 189.343 332.357 189.159 333.092 189.159C333.661 189.159 334.109 189.254 334.439 189.443C334.772 189.629 335.026 189.841 335.2 190.08C335.378 190.314 335.517 190.508 335.615 190.659H335.729V186.364H337.07V198H335.774V196.659H335.615C335.517 196.818 335.376 197.019 335.195 197.261C335.013 197.5 334.753 197.714 334.416 197.903C334.079 198.089 333.63 198.182 333.07 198.182ZM333.251 196.977C333.789 196.977 334.244 196.837 334.615 196.557C334.986 196.273 335.268 195.881 335.462 195.381C335.655 194.877 335.751 194.295 335.751 193.636C335.751 192.985 335.657 192.415 335.467 191.926C335.278 191.434 334.998 191.051 334.626 190.778C334.255 190.502 333.797 190.364 333.251 190.364C332.683 190.364 332.21 190.509 331.831 190.801C331.456 191.089 331.174 191.481 330.984 191.977C330.799 192.47 330.706 193.023 330.706 193.636C330.706 194.258 330.801 194.822 330.99 195.33C331.183 195.833 331.467 196.235 331.842 196.534C332.221 196.83 332.691 196.977 333.251 196.977ZM343.757 190V188.977C343.757 188.667 343.812 188.337 343.922 187.989C344.036 187.636 344.198 187.297 344.411 186.972C344.626 186.642 344.886 186.356 345.189 186.114L345.916 186.705C345.678 187.045 345.469 187.402 345.291 187.773C345.117 188.14 345.03 188.534 345.03 188.955V190H343.757ZM346.666 190V188.977C346.666 188.667 346.721 188.337 346.831 187.989C346.945 187.636 347.107 187.297 347.32 186.972C347.536 186.642 347.795 186.356 348.098 186.114L348.825 186.705C348.587 187.045 348.378 187.402 348.2 187.773C348.026 188.14 347.939 188.534 347.939 188.955V190H346.666ZM349.487 186.364H351.101L354.328 191.795H354.464L357.692 186.364H359.305L355.101 193.205V198H353.692V193.205L349.487 186.364ZM362.128 186.364V187.386C362.128 187.697 362.071 188.028 361.957 188.381C361.848 188.729 361.685 189.068 361.469 189.398C361.257 189.723 360.999 190.008 360.696 190.25L359.969 189.659C360.207 189.318 360.414 188.964 360.588 188.597C360.766 188.225 360.855 187.83 360.855 187.409V186.364H362.128ZM365.037 186.364V187.386C365.037 187.697 364.98 188.028 364.866 188.381C364.757 188.729 364.594 189.068 364.378 189.398C364.166 189.723 363.908 190.008 363.605 190.25L362.878 189.659C363.116 189.318 363.323 188.964 363.497 188.597C363.675 188.225 363.764 187.83 363.764 187.409V186.364H365.037Z" fill="#374151"/>
<rect x="264.689" y="142" width="141.311" height="76" rx="15" stroke="#F3F4F6" stroke-width="2"/>
<rect x="263" y="167.553" width="2.75598" height="24.8936" rx="1.37799" fill="#10B981"/>
<path d="M405 180C405 182.209 406.791 184 409 184C411.209 184 413 182.209 413 180C413 177.791 411.209 176 409 176C406.791 176 405 177.791 405 180ZM437 180L429.5 175.67V184.33L437 180ZM409 180.75H430.25V179.25H409V180.75Z" fill="#6B7280"/>
<rect x="440.689" y="142" width="141.311" height="76" rx="15" fill="#ECFDF5"/>
<path d="M454.409 186V174.364H458.341C459.254 174.364 460 174.528 460.58 174.858C461.163 175.184 461.595 175.625 461.875 176.182C462.155 176.739 462.295 177.36 462.295 178.045C462.295 178.731 462.155 179.354 461.875 179.915C461.598 180.475 461.17 180.922 460.591 181.256C460.011 181.585 459.269 181.75 458.364 181.75H455.545V180.5H458.318C458.943 180.5 459.445 180.392 459.824 180.176C460.203 179.96 460.477 179.669 460.648 179.301C460.822 178.93 460.909 178.511 460.909 178.045C460.909 177.58 460.822 177.163 460.648 176.795C460.477 176.428 460.201 176.14 459.818 175.932C459.436 175.72 458.928 175.614 458.295 175.614H455.818V186H454.409ZM465.724 174.364V186H464.384V174.364H465.724ZM473.68 182.432V177.273H475.021V186H473.68V184.523H473.589C473.385 184.966 473.067 185.343 472.635 185.653C472.203 185.96 471.658 186.114 470.999 186.114C470.453 186.114 469.968 185.994 469.544 185.756C469.12 185.513 468.786 185.15 468.544 184.665C468.302 184.176 468.18 183.561 468.18 182.818V177.273H469.521V182.727C469.521 183.364 469.699 183.871 470.055 184.25C470.415 184.629 470.874 184.818 471.43 184.818C471.764 184.818 472.103 184.733 472.447 184.562C472.796 184.392 473.088 184.131 473.322 183.778C473.561 183.426 473.68 182.977 473.68 182.432ZM481 189.455C480.352 189.455 479.795 189.371 479.33 189.205C478.864 189.042 478.475 188.826 478.165 188.557C477.858 188.292 477.614 188.008 477.432 187.705L478.5 186.955C478.621 187.114 478.775 187.295 478.96 187.5C479.146 187.708 479.4 187.888 479.722 188.04C480.047 188.195 480.473 188.273 481 188.273C481.705 188.273 482.286 188.102 482.744 187.761C483.203 187.42 483.432 186.886 483.432 186.159V184.386H483.318C483.22 184.545 483.08 184.742 482.898 184.977C482.72 185.208 482.462 185.415 482.125 185.597C481.792 185.775 481.341 185.864 480.773 185.864C480.068 185.864 479.436 185.697 478.875 185.364C478.318 185.03 477.877 184.545 477.551 183.909C477.229 183.273 477.068 182.5 477.068 181.591C477.068 180.697 477.225 179.919 477.54 179.256C477.854 178.589 478.292 178.074 478.852 177.71C479.413 177.343 480.061 177.159 480.795 177.159C481.364 177.159 481.814 177.254 482.148 177.443C482.485 177.629 482.742 177.841 482.92 178.08C483.102 178.314 483.242 178.508 483.341 178.659H483.477V177.273H484.773V186.25C484.773 187 484.602 187.61 484.261 188.08C483.924 188.553 483.47 188.9 482.898 189.119C482.33 189.343 481.697 189.455 481 189.455ZM480.955 184.659C481.492 184.659 481.947 184.536 482.318 184.29C482.689 184.044 482.972 183.689 483.165 183.227C483.358 182.765 483.455 182.212 483.455 181.568C483.455 180.939 483.36 180.384 483.17 179.903C482.981 179.422 482.701 179.045 482.33 178.773C481.958 178.5 481.5 178.364 480.955 178.364C480.386 178.364 479.913 178.508 479.534 178.795C479.159 179.083 478.877 179.47 478.688 179.955C478.502 180.439 478.409 180.977 478.409 181.568C478.409 182.174 478.504 182.71 478.693 183.176C478.886 183.638 479.17 184.002 479.545 184.267C479.924 184.528 480.394 184.659 480.955 184.659ZM487.227 186V177.273H488.568V186H487.227ZM487.909 175.818C487.648 175.818 487.422 175.729 487.233 175.551C487.047 175.373 486.955 175.159 486.955 174.909C486.955 174.659 487.047 174.445 487.233 174.267C487.422 174.089 487.648 174 487.909 174C488.17 174 488.394 174.089 488.58 174.267C488.769 174.445 488.864 174.659 488.864 174.909C488.864 175.159 488.769 175.373 488.58 175.551C488.394 175.729 488.17 175.818 487.909 175.818ZM492.365 180.75V186H491.024V177.273H492.32V178.636H492.433C492.638 178.193 492.948 177.837 493.365 177.568C493.782 177.295 494.32 177.159 494.979 177.159C495.57 177.159 496.087 177.28 496.53 177.523C496.973 177.761 497.318 178.125 497.564 178.614C497.81 179.098 497.933 179.712 497.933 180.455V186H496.592V180.545C496.592 179.86 496.414 179.326 496.058 178.943C495.702 178.557 495.214 178.364 494.592 178.364C494.164 178.364 493.782 178.456 493.445 178.642C493.111 178.828 492.848 179.098 492.655 179.455C492.462 179.811 492.365 180.242 492.365 180.75ZM504.429 178V176.977C504.429 176.667 504.484 176.337 504.594 175.989C504.707 175.636 504.87 175.297 505.082 174.972C505.298 174.642 505.558 174.356 505.861 174.114L506.588 174.705C506.349 175.045 506.141 175.402 505.963 175.773C505.789 176.14 505.702 176.534 505.702 176.955V178H504.429ZM507.338 178V176.977C507.338 176.667 507.393 176.337 507.503 175.989C507.616 175.636 507.779 175.297 507.991 174.972C508.207 174.642 508.467 174.356 508.77 174.114L509.497 174.705C509.259 175.045 509.05 175.402 508.872 175.773C508.698 176.14 508.611 176.534 508.611 176.955V178H507.338ZM510.159 174.364H511.773L515 179.795H515.136L518.364 174.364H519.977L515.773 181.205V186H514.364V181.205L510.159 174.364ZM522.8 174.364V175.386C522.8 175.697 522.743 176.028 522.629 176.381C522.519 176.729 522.357 177.068 522.141 177.398C521.929 177.723 521.671 178.008 521.368 178.25L520.641 177.659C520.879 177.318 521.086 176.964 521.26 176.597C521.438 176.225 521.527 175.83 521.527 175.409V174.364H522.8ZM525.709 174.364V175.386C525.709 175.697 525.652 176.028 525.538 176.381C525.429 176.729 525.266 177.068 525.05 177.398C524.838 177.723 524.58 178.008 524.277 178.25L523.55 177.659C523.788 177.318 523.995 176.964 524.169 176.597C524.347 176.225 524.436 175.83 524.436 175.409V174.364H525.709Z" fill="#374151"/>
<rect x="440.689" y="142" width="141.311" height="76" rx="15" stroke="#F3F4F6" stroke-width="2"/>
<rect x="439" y="167.553" width="2.75598" height="24.8936" rx="1.37799" fill="#10B981"/>
<path d="M581 180C581 182.209 582.791 184 585 184C587.209 184 589 182.209 589 180C589 177.791 587.209 176 585 176C582.791 176 581 177.791 581 180ZM613 180L605.5 175.67V184.33L613 180ZM585 180.75H586.4V179.25H585V180.75ZM589.2 180.75H592V179.25H589.2V180.75ZM594.8 180.75H597.6V179.25H594.8V180.75ZM600.4 180.75H603.2V179.25H600.4V180.75ZM606 180.75H608.8V179.25H606V180.75Z" fill="#6B7280"/>
<rect x="616.689" y="142" width="141.311" height="76" rx="15" fill="#ECFDF5"/>
<path d="M637.364 178C637.239 177.617 637.074 177.275 636.869 176.972C636.669 176.665 636.428 176.403 636.148 176.188C635.871 175.972 635.557 175.807 635.205 175.693C634.852 175.58 634.466 175.523 634.045 175.523C633.356 175.523 632.729 175.701 632.165 176.057C631.6 176.413 631.152 176.938 630.818 177.631C630.485 178.324 630.318 179.174 630.318 180.182C630.318 181.189 630.487 182.04 630.824 182.733C631.161 183.426 631.617 183.951 632.193 184.307C632.769 184.663 633.417 184.841 634.136 184.841C634.803 184.841 635.39 184.699 635.898 184.415C636.409 184.127 636.807 183.722 637.091 183.199C637.379 182.672 637.523 182.053 637.523 181.341L637.955 181.432H634.455V180.182H638.886V181.432C638.886 182.39 638.682 183.223 638.273 183.932C637.867 184.64 637.307 185.189 636.591 185.58C635.879 185.966 635.061 186.159 634.136 186.159C633.106 186.159 632.201 185.917 631.42 185.432C630.644 184.947 630.038 184.258 629.602 183.364C629.17 182.47 628.955 181.409 628.955 180.182C628.955 179.261 629.078 178.434 629.324 177.699C629.574 176.96 629.926 176.331 630.381 175.812C630.835 175.294 631.373 174.896 631.994 174.619C632.616 174.343 633.299 174.205 634.045 174.205C634.659 174.205 635.231 174.297 635.761 174.483C636.295 174.665 636.771 174.924 637.188 175.261C637.608 175.595 637.958 175.994 638.239 176.46C638.519 176.922 638.712 177.436 638.818 178H637.364ZM643.686 186.205C643.133 186.205 642.631 186.1 642.18 185.892C641.73 185.68 641.372 185.375 641.107 184.977C640.841 184.576 640.709 184.091 640.709 183.523C640.709 183.023 640.807 182.617 641.004 182.307C641.201 181.992 641.464 181.746 641.794 181.568C642.124 181.39 642.487 181.258 642.885 181.17C643.286 181.08 643.69 181.008 644.095 180.955C644.625 180.886 645.055 180.835 645.385 180.801C645.718 180.763 645.961 180.701 646.112 180.614C646.268 180.527 646.345 180.375 646.345 180.159V180.114C646.345 179.553 646.192 179.117 645.885 178.807C645.582 178.496 645.122 178.341 644.504 178.341C643.864 178.341 643.362 178.481 642.999 178.761C642.635 179.042 642.379 179.341 642.232 179.659L640.959 179.205C641.186 178.674 641.489 178.261 641.868 177.966C642.25 177.667 642.667 177.458 643.118 177.341C643.572 177.22 644.019 177.159 644.459 177.159C644.739 177.159 645.061 177.193 645.425 177.261C645.792 177.326 646.146 177.46 646.487 177.665C646.832 177.869 647.118 178.178 647.345 178.591C647.572 179.004 647.686 179.557 647.686 180.25V186H646.345V184.818H646.277C646.186 185.008 646.035 185.21 645.822 185.426C645.61 185.642 645.328 185.826 644.976 185.977C644.624 186.129 644.194 186.205 643.686 186.205ZM643.891 185C644.421 185 644.868 184.896 645.232 184.688C645.599 184.479 645.875 184.21 646.061 183.881C646.25 183.551 646.345 183.205 646.345 182.841V181.614C646.288 181.682 646.163 181.744 645.97 181.801C645.781 181.854 645.561 181.902 645.311 181.943C645.065 181.981 644.824 182.015 644.589 182.045C644.358 182.072 644.171 182.095 644.027 182.114C643.679 182.159 643.353 182.233 643.05 182.335C642.75 182.434 642.508 182.583 642.322 182.784C642.141 182.981 642.05 183.25 642.05 183.591C642.05 184.057 642.222 184.409 642.567 184.648C642.915 184.883 643.357 185 643.891 185ZM653.929 177.273V178.409H649.406V177.273H653.929ZM650.724 175.182H652.065V183.5C652.065 183.879 652.12 184.163 652.23 184.352C652.344 184.538 652.488 184.663 652.662 184.727C652.84 184.788 653.027 184.818 653.224 184.818C653.372 184.818 653.493 184.811 653.588 184.795C653.683 184.777 653.759 184.761 653.815 184.75L654.088 185.955C653.997 185.989 653.87 186.023 653.707 186.057C653.545 186.095 653.338 186.114 653.088 186.114C652.709 186.114 652.338 186.032 651.974 185.869C651.615 185.706 651.315 185.458 651.077 185.125C650.842 184.792 650.724 184.371 650.724 183.864V175.182ZM659.511 186.182C658.67 186.182 657.945 185.996 657.335 185.625C656.729 185.25 656.261 184.727 655.932 184.057C655.606 183.383 655.443 182.598 655.443 181.705C655.443 180.811 655.606 180.023 655.932 179.341C656.261 178.655 656.72 178.121 657.307 177.739C657.898 177.352 658.587 177.159 659.375 177.159C659.83 177.159 660.278 177.235 660.722 177.386C661.165 177.538 661.568 177.784 661.932 178.125C662.295 178.462 662.585 178.909 662.801 179.466C663.017 180.023 663.125 180.708 663.125 181.523V182.091H656.398V180.932H661.761C661.761 180.439 661.663 180 661.466 179.614C661.273 179.227 660.996 178.922 660.636 178.699C660.28 178.475 659.86 178.364 659.375 178.364C658.841 178.364 658.379 178.496 657.989 178.761C657.602 179.023 657.305 179.364 657.097 179.784C656.888 180.205 656.784 180.655 656.784 181.136V181.909C656.784 182.568 656.898 183.127 657.125 183.585C657.356 184.04 657.676 184.386 658.085 184.625C658.494 184.86 658.97 184.977 659.511 184.977C659.864 184.977 660.182 184.928 660.466 184.83C660.754 184.727 661.002 184.576 661.21 184.375C661.419 184.17 661.58 183.917 661.693 183.614L662.989 183.977C662.852 184.417 662.623 184.803 662.301 185.136C661.979 185.466 661.581 185.723 661.108 185.909C660.634 186.091 660.102 186.182 659.511 186.182ZM667.142 186L664.483 177.273H665.892L667.778 183.955H667.869L669.733 177.273H671.165L673.006 183.932H673.097L674.983 177.273H676.392L673.733 186H672.415L670.506 179.295H670.369L668.46 186H667.142ZM680.733 186.205C680.18 186.205 679.678 186.1 679.227 185.892C678.777 185.68 678.419 185.375 678.153 184.977C677.888 184.576 677.756 184.091 677.756 183.523C677.756 183.023 677.854 182.617 678.051 182.307C678.248 181.992 678.511 181.746 678.841 181.568C679.17 181.39 679.534 181.258 679.932 181.17C680.333 181.08 680.737 181.008 681.142 180.955C681.672 180.886 682.102 180.835 682.432 180.801C682.765 180.763 683.008 180.701 683.159 180.614C683.314 180.527 683.392 180.375 683.392 180.159V180.114C683.392 179.553 683.239 179.117 682.932 178.807C682.629 178.496 682.169 178.341 681.551 178.341C680.911 178.341 680.409 178.481 680.045 178.761C679.682 179.042 679.426 179.341 679.278 179.659L678.006 179.205C678.233 178.674 678.536 178.261 678.915 177.966C679.297 177.667 679.714 177.458 680.165 177.341C680.619 177.22 681.066 177.159 681.506 177.159C681.786 177.159 682.108 177.193 682.472 177.261C682.839 177.326 683.193 177.46 683.534 177.665C683.879 177.869 684.165 178.178 684.392 178.591C684.619 179.004 684.733 179.557 684.733 180.25V186H683.392V184.818H683.324C683.233 185.008 683.081 185.21 682.869 185.426C682.657 185.642 682.375 185.826 682.023 185.977C681.67 186.129 681.241 186.205 680.733 186.205ZM680.938 185C681.468 185 681.915 184.896 682.278 184.688C682.646 184.479 682.922 184.21 683.108 183.881C683.297 183.551 683.392 183.205 683.392 182.841V181.614C683.335 181.682 683.21 181.744 683.017 181.801C682.828 181.854 682.608 181.902 682.358 181.943C682.112 181.981 681.871 182.015 681.636 182.045C681.405 182.072 681.218 182.095 681.074 182.114C680.725 182.159 680.4 182.233 680.097 182.335C679.797 182.434 679.555 182.583 679.369 182.784C679.188 182.981 679.097 183.25 679.097 183.591C679.097 184.057 679.269 184.409 679.614 184.648C679.962 184.883 680.403 185 680.938 185ZM687.732 189.273C687.504 189.273 687.302 189.254 687.124 189.216C686.946 189.182 686.822 189.148 686.754 189.114L687.095 187.932C687.421 188.015 687.709 188.045 687.959 188.023C688.209 188 688.43 187.888 688.624 187.688C688.821 187.491 689 187.17 689.163 186.727L689.413 186.045L686.186 177.273H687.641L690.05 184.227H690.141L692.55 177.273H694.004L690.3 187.273C690.133 187.723 689.927 188.097 689.68 188.392C689.434 188.691 689.148 188.913 688.822 189.057C688.5 189.201 688.137 189.273 687.732 189.273ZM699.82 178V176.977C699.82 176.667 699.875 176.337 699.984 175.989C700.098 175.636 700.261 175.297 700.473 174.972C700.689 174.642 700.948 174.356 701.251 174.114L701.979 174.705C701.74 175.045 701.532 175.402 701.354 175.773C701.179 176.14 701.092 176.534 701.092 176.955V178H699.82ZM702.729 178V176.977C702.729 176.667 702.784 176.337 702.893 175.989C703.007 175.636 703.17 175.297 703.382 174.972C703.598 174.642 703.857 174.356 704.161 174.114L704.888 174.705C704.649 175.045 704.441 175.402 704.263 175.773C704.089 176.14 704.001 176.534 704.001 176.955V178H702.729ZM705.55 174.364H707.163L710.391 179.795H710.527L713.754 174.364H715.368L711.163 181.205V186H709.754V181.205L705.55 174.364ZM718.19 174.364V175.386C718.19 175.697 718.134 176.028 718.02 176.381C717.91 176.729 717.747 177.068 717.531 177.398C717.319 177.723 717.062 178.008 716.759 178.25L716.031 177.659C716.27 177.318 716.476 176.964 716.651 176.597C716.829 176.225 716.918 175.83 716.918 175.409V174.364H718.19ZM721.099 174.364V175.386C721.099 175.697 721.043 176.028 720.929 176.381C720.819 176.729 720.656 177.068 720.44 177.398C720.228 177.723 719.971 178.008 719.668 178.25L718.94 177.659C719.179 177.318 719.385 176.964 719.56 176.597C719.738 176.225 719.827 175.83 719.827 175.409V174.364H721.099Z" fill="#374151"/>
<rect x="616.689" y="142" width="141.311" height="76" rx="15" stroke="#F3F4F6" stroke-width="2"/>
<rect x="615" y="167.553" width="2.75598" height="24.8936" rx="1.37799" fill="#10B981"/>
<rect x="266.689" y="263" width="141.311" height="76" rx="15" fill="#FFFBEB"/>
<path d="M281.409 295V283.364H285.341C286.254 283.364 287 283.528 287.58 283.858C288.163 284.184 288.595 284.625 288.875 285.182C289.155 285.739 289.295 286.36 289.295 287.045C289.295 287.731 289.155 288.354 288.875 288.915C288.598 289.475 288.17 289.922 287.591 290.256C287.011 290.585 286.269 290.75 285.364 290.75H282.545V289.5H285.318C285.943 289.5 286.445 289.392 286.824 289.176C287.203 288.96 287.477 288.669 287.648 288.301C287.822 287.93 287.909 287.511 287.909 287.045C287.909 286.58 287.822 286.163 287.648 285.795C287.477 285.428 287.201 285.14 286.818 284.932C286.436 284.72 285.928 284.614 285.295 284.614H282.818V295H281.409ZM293.952 295.205C293.399 295.205 292.897 295.1 292.446 294.892C291.995 294.68 291.637 294.375 291.372 293.977C291.107 293.576 290.974 293.091 290.974 292.523C290.974 292.023 291.073 291.617 291.27 291.307C291.467 290.992 291.73 290.746 292.06 290.568C292.389 290.39 292.753 290.258 293.151 290.17C293.552 290.08 293.955 290.008 294.361 289.955C294.891 289.886 295.321 289.835 295.651 289.801C295.984 289.763 296.226 289.701 296.378 289.614C296.533 289.527 296.611 289.375 296.611 289.159V289.114C296.611 288.553 296.457 288.117 296.151 287.807C295.848 287.496 295.387 287.341 294.77 287.341C294.13 287.341 293.628 287.481 293.264 287.761C292.901 288.042 292.645 288.341 292.497 288.659L291.224 288.205C291.452 287.674 291.755 287.261 292.134 286.966C292.516 286.667 292.933 286.458 293.384 286.341C293.838 286.22 294.285 286.159 294.724 286.159C295.005 286.159 295.327 286.193 295.69 286.261C296.058 286.326 296.412 286.46 296.753 286.665C297.098 286.869 297.384 287.178 297.611 287.591C297.838 288.004 297.952 288.557 297.952 289.25V295H296.611V293.818H296.543C296.452 294.008 296.3 294.21 296.088 294.426C295.876 294.642 295.594 294.826 295.241 294.977C294.889 295.129 294.459 295.205 293.952 295.205ZM294.156 294C294.687 294 295.134 293.896 295.497 293.688C295.865 293.479 296.141 293.21 296.327 292.881C296.516 292.551 296.611 292.205 296.611 291.841V290.614C296.554 290.682 296.429 290.744 296.236 290.801C296.046 290.854 295.827 290.902 295.577 290.943C295.33 290.981 295.09 291.015 294.855 291.045C294.624 291.072 294.437 291.095 294.293 291.114C293.944 291.159 293.618 291.233 293.315 291.335C293.016 291.434 292.774 291.583 292.588 291.784C292.406 291.981 292.315 292.25 292.315 292.591C292.315 293.057 292.488 293.409 292.832 293.648C293.181 293.883 293.622 294 294.156 294ZM300.95 298.273C300.723 298.273 300.52 298.254 300.342 298.216C300.164 298.182 300.041 298.148 299.973 298.114L300.314 296.932C300.64 297.015 300.928 297.045 301.178 297.023C301.428 297 301.649 296.888 301.842 296.688C302.039 296.491 302.219 296.17 302.382 295.727L302.632 295.045L299.405 286.273H300.859L303.268 293.227H303.359L305.768 286.273H307.223L303.518 296.273C303.352 296.723 303.145 297.097 302.899 297.392C302.653 297.691 302.367 297.913 302.041 298.057C301.719 298.201 301.356 298.273 300.95 298.273ZM308.993 295V286.273H310.288V287.636H310.402C310.584 287.17 310.877 286.809 311.283 286.551C311.688 286.29 312.175 286.159 312.743 286.159C313.319 286.159 313.798 286.29 314.18 286.551C314.567 286.809 314.868 287.17 315.084 287.636H315.175C315.398 287.186 315.733 286.828 316.18 286.562C316.627 286.294 317.163 286.159 317.788 286.159C318.569 286.159 319.207 286.403 319.703 286.892C320.199 287.377 320.447 288.133 320.447 289.159V295H319.107V289.159C319.107 288.515 318.93 288.055 318.578 287.778C318.226 287.502 317.811 287.364 317.334 287.364C316.72 287.364 316.245 287.549 315.908 287.92C315.571 288.288 315.402 288.754 315.402 289.318V295H314.038V289.023C314.038 288.527 313.877 288.127 313.555 287.824C313.233 287.517 312.819 287.364 312.311 287.364C311.963 287.364 311.637 287.456 311.334 287.642C311.035 287.828 310.792 288.085 310.607 288.415C310.425 288.741 310.334 289.117 310.334 289.545V295H308.993ZM326.558 295.182C325.717 295.182 324.992 294.996 324.382 294.625C323.776 294.25 323.308 293.727 322.979 293.057C322.653 292.383 322.49 291.598 322.49 290.705C322.49 289.811 322.653 289.023 322.979 288.341C323.308 287.655 323.767 287.121 324.354 286.739C324.945 286.352 325.634 286.159 326.422 286.159C326.876 286.159 327.325 286.235 327.768 286.386C328.212 286.538 328.615 286.784 328.979 287.125C329.342 287.462 329.632 287.909 329.848 288.466C330.064 289.023 330.172 289.708 330.172 290.523V291.091H323.445V289.932H328.808C328.808 289.439 328.71 289 328.513 288.614C328.32 288.227 328.043 287.922 327.683 287.699C327.327 287.475 326.907 287.364 326.422 287.364C325.888 287.364 325.426 287.496 325.036 287.761C324.649 288.023 324.352 288.364 324.143 288.784C323.935 289.205 323.831 289.655 323.831 290.136V290.909C323.831 291.568 323.945 292.127 324.172 292.585C324.403 293.04 324.723 293.386 325.132 293.625C325.541 293.86 326.017 293.977 326.558 293.977C326.911 293.977 327.229 293.928 327.513 293.83C327.801 293.727 328.049 293.576 328.257 293.375C328.465 293.17 328.626 292.917 328.74 292.614L330.036 292.977C329.899 293.417 329.67 293.803 329.348 294.136C329.026 294.466 328.628 294.723 328.155 294.909C327.681 295.091 327.149 295.182 326.558 295.182ZM333.553 289.75V295H332.212V286.273H333.507V287.636H333.621C333.825 287.193 334.136 286.837 334.553 286.568C334.969 286.295 335.507 286.159 336.166 286.159C336.757 286.159 337.274 286.28 337.717 286.523C338.161 286.761 338.505 287.125 338.751 287.614C338.998 288.098 339.121 288.712 339.121 289.455V295H337.78V289.545C337.78 288.86 337.602 288.326 337.246 287.943C336.89 287.557 336.401 287.364 335.78 287.364C335.352 287.364 334.969 287.456 334.632 287.642C334.299 287.828 334.036 288.098 333.842 288.455C333.649 288.811 333.553 289.242 333.553 289.75ZM345.366 286.273V287.409H340.844V286.273H345.366ZM342.162 284.182H343.503V292.5C343.503 292.879 343.558 293.163 343.668 293.352C343.781 293.538 343.925 293.663 344.099 293.727C344.277 293.788 344.465 293.818 344.662 293.818C344.81 293.818 344.931 293.811 345.026 293.795C345.12 293.777 345.196 293.761 345.253 293.75L345.526 294.955C345.435 294.989 345.308 295.023 345.145 295.057C344.982 295.095 344.776 295.114 344.526 295.114C344.147 295.114 343.776 295.032 343.412 294.869C343.052 294.706 342.753 294.458 342.514 294.125C342.279 293.792 342.162 293.371 342.162 292.864V284.182ZM281.409 307.364H283.091L287.045 317.023H287.182L291.136 307.364H292.818V319H291.5V310.159H291.386L287.75 319H286.477L282.841 310.159H282.727V319H281.409V307.364ZM299.121 319.182C298.28 319.182 297.554 318.996 296.945 318.625C296.339 318.25 295.871 317.727 295.541 317.057C295.215 316.383 295.053 315.598 295.053 314.705C295.053 313.811 295.215 313.023 295.541 312.341C295.871 311.655 296.329 311.121 296.916 310.739C297.507 310.352 298.196 310.159 298.984 310.159C299.439 310.159 299.888 310.235 300.331 310.386C300.774 310.538 301.178 310.784 301.541 311.125C301.905 311.462 302.195 311.909 302.411 312.466C302.626 313.023 302.734 313.708 302.734 314.523V315.091H296.007V313.932H301.371C301.371 313.439 301.272 313 301.075 312.614C300.882 312.227 300.606 311.922 300.246 311.699C299.89 311.475 299.469 311.364 298.984 311.364C298.45 311.364 297.988 311.496 297.598 311.761C297.212 312.023 296.914 312.364 296.706 312.784C296.498 313.205 296.393 313.655 296.393 314.136V314.909C296.393 315.568 296.507 316.127 296.734 316.585C296.965 317.04 297.286 317.386 297.695 317.625C298.104 317.86 298.579 317.977 299.121 317.977C299.473 317.977 299.791 317.928 300.075 317.83C300.363 317.727 300.611 317.576 300.82 317.375C301.028 317.17 301.189 316.917 301.303 316.614L302.598 316.977C302.462 317.417 302.232 317.803 301.911 318.136C301.589 318.466 301.191 318.723 300.717 318.909C300.244 319.091 299.712 319.182 299.121 319.182ZM308.57 310.273V311.409H304.047V310.273H308.57ZM305.365 308.182H306.706V316.5C306.706 316.879 306.761 317.163 306.871 317.352C306.984 317.538 307.128 317.663 307.303 317.727C307.481 317.788 307.668 317.818 307.865 317.818C308.013 317.818 308.134 317.811 308.229 317.795C308.323 317.777 308.399 317.761 308.456 317.75L308.729 318.955C308.638 318.989 308.511 319.023 308.348 319.057C308.185 319.095 307.979 319.114 307.729 319.114C307.35 319.114 306.979 319.032 306.615 318.869C306.255 318.706 305.956 318.458 305.717 318.125C305.482 317.792 305.365 317.371 305.365 316.864V308.182ZM312.115 313.75V319H310.774V307.364H312.115V311.636H312.229C312.433 311.186 312.74 310.828 313.149 310.562C313.562 310.294 314.111 310.159 314.797 310.159C315.392 310.159 315.912 310.278 316.359 310.517C316.806 310.752 317.153 311.114 317.399 311.602C317.649 312.087 317.774 312.705 317.774 313.455V319H316.433V313.545C316.433 312.852 316.253 312.316 315.893 311.938C315.537 311.555 315.043 311.364 314.411 311.364C313.971 311.364 313.577 311.456 313.229 311.642C312.884 311.828 312.611 312.098 312.411 312.455C312.214 312.811 312.115 313.242 312.115 313.75ZM323.773 319.182C322.985 319.182 322.294 318.994 321.699 318.619C321.108 318.244 320.646 317.72 320.312 317.045C319.983 316.371 319.818 315.583 319.818 314.682C319.818 313.773 319.983 312.979 320.312 312.301C320.646 311.623 321.108 311.097 321.699 310.722C322.294 310.347 322.985 310.159 323.773 310.159C324.561 310.159 325.25 310.347 325.841 310.722C326.436 311.097 326.898 311.623 327.227 312.301C327.561 312.979 327.727 313.773 327.727 314.682C327.727 315.583 327.561 316.371 327.227 317.045C326.898 317.72 326.436 318.244 325.841 318.619C325.25 318.994 324.561 319.182 323.773 319.182ZM323.773 317.977C324.371 317.977 324.864 317.824 325.25 317.517C325.636 317.21 325.922 316.807 326.108 316.307C326.294 315.807 326.386 315.265 326.386 314.682C326.386 314.098 326.294 313.555 326.108 313.051C325.922 312.547 325.636 312.14 325.25 311.83C324.864 311.519 324.371 311.364 323.773 311.364C323.174 311.364 322.682 311.519 322.295 311.83C321.909 312.14 321.623 312.547 321.438 313.051C321.252 313.555 321.159 314.098 321.159 314.682C321.159 315.265 321.252 315.807 321.438 316.307C321.623 316.807 321.909 317.21 322.295 317.517C322.682 317.824 323.174 317.977 323.773 317.977ZM333.07 319.182C332.342 319.182 331.7 318.998 331.143 318.631C330.587 318.259 330.151 317.737 329.837 317.062C329.522 316.384 329.365 315.583 329.365 314.659C329.365 313.742 329.522 312.947 329.837 312.273C330.151 311.598 330.589 311.078 331.149 310.71C331.71 310.343 332.357 310.159 333.092 310.159C333.661 310.159 334.109 310.254 334.439 310.443C334.772 310.629 335.026 310.841 335.2 311.08C335.378 311.314 335.517 311.508 335.615 311.659H335.729V307.364H337.07V319H335.774V317.659H335.615C335.517 317.818 335.376 318.019 335.195 318.261C335.013 318.5 334.753 318.714 334.416 318.903C334.079 319.089 333.63 319.182 333.07 319.182ZM333.251 317.977C333.789 317.977 334.244 317.837 334.615 317.557C334.986 317.273 335.268 316.881 335.462 316.381C335.655 315.877 335.751 315.295 335.751 314.636C335.751 313.985 335.657 313.415 335.467 312.926C335.278 312.434 334.998 312.051 334.626 311.778C334.255 311.502 333.797 311.364 333.251 311.364C332.683 311.364 332.21 311.509 331.831 311.801C331.456 312.089 331.174 312.481 330.984 312.977C330.799 313.47 330.706 314.023 330.706 314.636C330.706 315.258 330.801 315.822 330.99 316.33C331.183 316.833 331.467 317.235 331.842 317.534C332.221 317.83 332.691 317.977 333.251 317.977ZM343.757 311V309.977C343.757 309.667 343.812 309.337 343.922 308.989C344.036 308.636 344.198 308.297 344.411 307.972C344.626 307.642 344.886 307.356 345.189 307.114L345.916 307.705C345.678 308.045 345.469 308.402 345.291 308.773C345.117 309.14 345.03 309.534 345.03 309.955V311H343.757ZM346.666 311V309.977C346.666 309.667 346.721 309.337 346.831 308.989C346.945 308.636 347.107 308.297 347.32 307.972C347.536 307.642 347.795 307.356 348.098 307.114L348.825 307.705C348.587 308.045 348.378 308.402 348.2 308.773C348.026 309.14 347.939 309.534 347.939 309.955V311H346.666ZM350.101 319V317.977L356.374 308.614H350.033V307.364H358.055V308.386L351.783 317.75H358.124V319H350.101ZM361.487 307.364V308.386C361.487 308.697 361.43 309.028 361.317 309.381C361.207 309.729 361.044 310.068 360.828 310.398C360.616 310.723 360.358 311.008 360.055 311.25L359.328 310.659C359.567 310.318 359.773 309.964 359.947 309.597C360.125 309.225 360.214 308.83 360.214 308.409V307.364H361.487ZM364.396 307.364V308.386C364.396 308.697 364.339 309.028 364.226 309.381C364.116 309.729 363.953 310.068 363.737 310.398C363.525 310.723 363.268 311.008 362.964 311.25L362.237 310.659C362.476 310.318 362.682 309.964 362.857 309.597C363.035 309.225 363.124 308.83 363.124 308.409V307.364H364.396Z" fill="#374151"/>
<rect x="266.689" y="263" width="141.311" height="76" rx="15" stroke="#F3F4F6" stroke-width="2"/>
<rect x="265" y="288.553" width="2.75598" height="24.8936" rx="1.37799" fill="#F59E0B"/>
<path d="M407 301C407 303.209 408.791 305 411 305C413.209 305 415 303.209 415 301C415 298.791 413.209 297 411 297C408.791 297 407 298.791 407 301ZM439 301L431.5 296.67V305.33L439 301ZM411 301.75H432.25V300.25H411V301.75Z" fill="#6B7280"/>
<rect x="442.689" y="263" width="141.311" height="76" rx="15" fill="#FFFBEB"/>
<path d="M454.409 307V295.364H458.341C459.254 295.364 460 295.528 460.58 295.858C461.163 296.184 461.595 296.625 461.875 297.182C462.155 297.739 462.295 298.36 462.295 299.045C462.295 299.731 462.155 300.354 461.875 300.915C461.598 301.475 461.17 301.922 460.591 302.256C460.011 302.585 459.269 302.75 458.364 302.75H455.545V301.5H458.318C458.943 301.5 459.445 301.392 459.824 301.176C460.203 300.96 460.477 300.669 460.648 300.301C460.822 299.93 460.909 299.511 460.909 299.045C460.909 298.58 460.822 298.163 460.648 297.795C460.477 297.428 460.201 297.14 459.818 296.932C459.436 296.72 458.928 296.614 458.295 296.614H455.818V307H454.409ZM465.724 295.364V307H464.384V295.364H465.724ZM473.68 303.432V298.273H475.021V307H473.68V305.523H473.589C473.385 305.966 473.067 306.343 472.635 306.653C472.203 306.96 471.658 307.114 470.999 307.114C470.453 307.114 469.968 306.994 469.544 306.756C469.12 306.513 468.786 306.15 468.544 305.665C468.302 305.176 468.18 304.561 468.18 303.818V298.273H469.521V303.727C469.521 304.364 469.699 304.871 470.055 305.25C470.415 305.629 470.874 305.818 471.43 305.818C471.764 305.818 472.103 305.733 472.447 305.562C472.796 305.392 473.088 305.131 473.322 304.778C473.561 304.426 473.68 303.977 473.68 303.432ZM481 310.455C480.352 310.455 479.795 310.371 479.33 310.205C478.864 310.042 478.475 309.826 478.165 309.557C477.858 309.292 477.614 309.008 477.432 308.705L478.5 307.955C478.621 308.114 478.775 308.295 478.96 308.5C479.146 308.708 479.4 308.888 479.722 309.04C480.047 309.195 480.473 309.273 481 309.273C481.705 309.273 482.286 309.102 482.744 308.761C483.203 308.42 483.432 307.886 483.432 307.159V305.386H483.318C483.22 305.545 483.08 305.742 482.898 305.977C482.72 306.208 482.462 306.415 482.125 306.597C481.792 306.775 481.341 306.864 480.773 306.864C480.068 306.864 479.436 306.697 478.875 306.364C478.318 306.03 477.877 305.545 477.551 304.909C477.229 304.273 477.068 303.5 477.068 302.591C477.068 301.697 477.225 300.919 477.54 300.256C477.854 299.589 478.292 299.074 478.852 298.71C479.413 298.343 480.061 298.159 480.795 298.159C481.364 298.159 481.814 298.254 482.148 298.443C482.485 298.629 482.742 298.841 482.92 299.08C483.102 299.314 483.242 299.508 483.341 299.659H483.477V298.273H484.773V307.25C484.773 308 484.602 308.61 484.261 309.08C483.924 309.553 483.47 309.9 482.898 310.119C482.33 310.343 481.697 310.455 481 310.455ZM480.955 305.659C481.492 305.659 481.947 305.536 482.318 305.29C482.689 305.044 482.972 304.689 483.165 304.227C483.358 303.765 483.455 303.212 483.455 302.568C483.455 301.939 483.36 301.384 483.17 300.903C482.981 300.422 482.701 300.045 482.33 299.773C481.958 299.5 481.5 299.364 480.955 299.364C480.386 299.364 479.913 299.508 479.534 299.795C479.159 300.083 478.877 300.47 478.688 300.955C478.502 301.439 478.409 301.977 478.409 302.568C478.409 303.174 478.504 303.71 478.693 304.176C478.886 304.638 479.17 305.002 479.545 305.267C479.924 305.528 480.394 305.659 480.955 305.659ZM487.227 307V298.273H488.568V307H487.227ZM487.909 296.818C487.648 296.818 487.422 296.729 487.233 296.551C487.047 296.373 486.955 296.159 486.955 295.909C486.955 295.659 487.047 295.445 487.233 295.267C487.422 295.089 487.648 295 487.909 295C488.17 295 488.394 295.089 488.58 295.267C488.769 295.445 488.864 295.659 488.864 295.909C488.864 296.159 488.769 296.373 488.58 296.551C488.394 296.729 488.17 296.818 487.909 296.818ZM492.365 301.75V307H491.024V298.273H492.32V299.636H492.433C492.638 299.193 492.948 298.837 493.365 298.568C493.782 298.295 494.32 298.159 494.979 298.159C495.57 298.159 496.087 298.28 496.53 298.523C496.973 298.761 497.318 299.125 497.564 299.614C497.81 300.098 497.933 300.712 497.933 301.455V307H496.592V301.545C496.592 300.86 496.414 300.326 496.058 299.943C495.702 299.557 495.214 299.364 494.592 299.364C494.164 299.364 493.782 299.456 493.445 299.642C493.111 299.828 492.848 300.098 492.655 300.455C492.462 300.811 492.365 301.242 492.365 301.75ZM504.429 299V297.977C504.429 297.667 504.484 297.337 504.594 296.989C504.707 296.636 504.87 296.297 505.082 295.972C505.298 295.642 505.558 295.356 505.861 295.114L506.588 295.705C506.349 296.045 506.141 296.402 505.963 296.773C505.789 297.14 505.702 297.534 505.702 297.955V299H504.429ZM507.338 299V297.977C507.338 297.667 507.393 297.337 507.503 296.989C507.616 296.636 507.779 296.297 507.991 295.972C508.207 295.642 508.467 295.356 508.77 295.114L509.497 295.705C509.259 296.045 509.05 296.402 508.872 296.773C508.698 297.14 508.611 297.534 508.611 297.955V299H507.338ZM510.773 307V305.977L517.045 296.614H510.705V295.364H518.727V296.386L512.455 305.75H518.795V307H510.773ZM522.159 295.364V296.386C522.159 296.697 522.102 297.028 521.989 297.381C521.879 297.729 521.716 298.068 521.5 298.398C521.288 298.723 521.03 299.008 520.727 299.25L520 298.659C520.239 298.318 520.445 297.964 520.619 297.597C520.797 297.225 520.886 296.83 520.886 296.409V295.364H522.159ZM525.068 295.364V296.386C525.068 296.697 525.011 297.028 524.898 297.381C524.788 297.729 524.625 298.068 524.409 298.398C524.197 298.723 523.939 299.008 523.636 299.25L522.909 298.659C523.148 298.318 523.354 297.964 523.528 297.597C523.706 297.225 523.795 296.83 523.795 296.409V295.364H525.068Z" fill="#374151"/>
<rect x="442.689" y="263" width="141.311" height="76" rx="15" stroke="#F3F4F6" stroke-width="2"/>
<rect x="441" y="288.553" width="2.75598" height="24.8936" rx="1.37799" fill="#F59E0B"/>
<path d="M583 301C583 303.209 584.791 305 587 305C589.209 305 591 303.209 591 301C591 298.791 589.209 297 587 297C584.791 297 583 298.791 583 301ZM615 301L607.5 296.67V305.33L615 301ZM587 301.75H588.4V300.25H587V301.75ZM591.2 301.75H594V300.25H591.2V301.75ZM596.8 301.75H599.6V300.25H596.8V301.75ZM602.4 301.75H605.2V300.25H602.4V301.75ZM608 301.75H610.8V300.25H608V301.75Z" fill="#6B7280"/>
<rect x="618.689" y="263" width="141.311" height="76" rx="15" fill="#FFFBEB"/>
<path d="M637.364 299C637.239 298.617 637.074 298.275 636.869 297.972C636.669 297.665 636.428 297.403 636.148 297.188C635.871 296.972 635.557 296.807 635.205 296.693C634.852 296.58 634.466 296.523 634.045 296.523C633.356 296.523 632.729 296.701 632.165 297.057C631.6 297.413 631.152 297.938 630.818 298.631C630.485 299.324 630.318 300.174 630.318 301.182C630.318 302.189 630.487 303.04 630.824 303.733C631.161 304.426 631.617 304.951 632.193 305.307C632.769 305.663 633.417 305.841 634.136 305.841C634.803 305.841 635.39 305.699 635.898 305.415C636.409 305.127 636.807 304.722 637.091 304.199C637.379 303.672 637.523 303.053 637.523 302.341L637.955 302.432H634.455V301.182H638.886V302.432C638.886 303.39 638.682 304.223 638.273 304.932C637.867 305.64 637.307 306.189 636.591 306.58C635.879 306.966 635.061 307.159 634.136 307.159C633.106 307.159 632.201 306.917 631.42 306.432C630.644 305.947 630.038 305.258 629.602 304.364C629.17 303.47 628.955 302.409 628.955 301.182C628.955 300.261 629.078 299.434 629.324 298.699C629.574 297.96 629.926 297.331 630.381 296.812C630.835 296.294 631.373 295.896 631.994 295.619C632.616 295.343 633.299 295.205 634.045 295.205C634.659 295.205 635.231 295.297 635.761 295.483C636.295 295.665 636.771 295.924 637.188 296.261C637.608 296.595 637.958 296.994 638.239 297.46C638.519 297.922 638.712 298.436 638.818 299H637.364ZM643.686 307.205C643.133 307.205 642.631 307.1 642.18 306.892C641.73 306.68 641.372 306.375 641.107 305.977C640.841 305.576 640.709 305.091 640.709 304.523C640.709 304.023 640.807 303.617 641.004 303.307C641.201 302.992 641.464 302.746 641.794 302.568C642.124 302.39 642.487 302.258 642.885 302.17C643.286 302.08 643.69 302.008 644.095 301.955C644.625 301.886 645.055 301.835 645.385 301.801C645.718 301.763 645.961 301.701 646.112 301.614C646.268 301.527 646.345 301.375 646.345 301.159V301.114C646.345 300.553 646.192 300.117 645.885 299.807C645.582 299.496 645.122 299.341 644.504 299.341C643.864 299.341 643.362 299.481 642.999 299.761C642.635 300.042 642.379 300.341 642.232 300.659L640.959 300.205C641.186 299.674 641.489 299.261 641.868 298.966C642.25 298.667 642.667 298.458 643.118 298.341C643.572 298.22 644.019 298.159 644.459 298.159C644.739 298.159 645.061 298.193 645.425 298.261C645.792 298.326 646.146 298.46 646.487 298.665C646.832 298.869 647.118 299.178 647.345 299.591C647.572 300.004 647.686 300.557 647.686 301.25V307H646.345V305.818H646.277C646.186 306.008 646.035 306.21 645.822 306.426C645.61 306.642 645.328 306.826 644.976 306.977C644.624 307.129 644.194 307.205 643.686 307.205ZM643.891 306C644.421 306 644.868 305.896 645.232 305.688C645.599 305.479 645.875 305.21 646.061 304.881C646.25 304.551 646.345 304.205 646.345 303.841V302.614C646.288 302.682 646.163 302.744 645.97 302.801C645.781 302.854 645.561 302.902 645.311 302.943C645.065 302.981 644.824 303.015 644.589 303.045C644.358 303.072 644.171 303.095 644.027 303.114C643.679 303.159 643.353 303.233 643.05 303.335C642.75 303.434 642.508 303.583 642.322 303.784C642.141 303.981 642.05 304.25 642.05 304.591C642.05 305.057 642.222 305.409 642.567 305.648C642.915 305.883 643.357 306 643.891 306ZM653.929 298.273V299.409H649.406V298.273H653.929ZM650.724 296.182H652.065V304.5C652.065 304.879 652.12 305.163 652.23 305.352C652.344 305.538 652.488 305.663 652.662 305.727C652.84 305.788 653.027 305.818 653.224 305.818C653.372 305.818 653.493 305.811 653.588 305.795C653.683 305.777 653.759 305.761 653.815 305.75L654.088 306.955C653.997 306.989 653.87 307.023 653.707 307.057C653.545 307.095 653.338 307.114 653.088 307.114C652.709 307.114 652.338 307.032 651.974 306.869C651.615 306.706 651.315 306.458 651.077 306.125C650.842 305.792 650.724 305.371 650.724 304.864V296.182ZM659.511 307.182C658.67 307.182 657.945 306.996 657.335 306.625C656.729 306.25 656.261 305.727 655.932 305.057C655.606 304.383 655.443 303.598 655.443 302.705C655.443 301.811 655.606 301.023 655.932 300.341C656.261 299.655 656.72 299.121 657.307 298.739C657.898 298.352 658.587 298.159 659.375 298.159C659.83 298.159 660.278 298.235 660.722 298.386C661.165 298.538 661.568 298.784 661.932 299.125C662.295 299.462 662.585 299.909 662.801 300.466C663.017 301.023 663.125 301.708 663.125 302.523V303.091H656.398V301.932H661.761C661.761 301.439 661.663 301 661.466 300.614C661.273 300.227 660.996 299.922 660.636 299.699C660.28 299.475 659.86 299.364 659.375 299.364C658.841 299.364 658.379 299.496 657.989 299.761C657.602 300.023 657.305 300.364 657.097 300.784C656.888 301.205 656.784 301.655 656.784 302.136V302.909C656.784 303.568 656.898 304.127 657.125 304.585C657.356 305.04 657.676 305.386 658.085 305.625C658.494 305.86 658.97 305.977 659.511 305.977C659.864 305.977 660.182 305.928 660.466 305.83C660.754 305.727 661.002 305.576 661.21 305.375C661.419 305.17 661.58 304.917 661.693 304.614L662.989 304.977C662.852 305.417 662.623 305.803 662.301 306.136C661.979 306.466 661.581 306.723 661.108 306.909C660.634 307.091 660.102 307.182 659.511 307.182ZM667.142 307L664.483 298.273H665.892L667.778 304.955H667.869L669.733 298.273H671.165L673.006 304.932H673.097L674.983 298.273H676.392L673.733 307H672.415L670.506 300.295H670.369L668.46 307H667.142ZM680.733 307.205C680.18 307.205 679.678 307.1 679.227 306.892C678.777 306.68 678.419 306.375 678.153 305.977C677.888 305.576 677.756 305.091 677.756 304.523C677.756 304.023 677.854 303.617 678.051 303.307C678.248 302.992 678.511 302.746 678.841 302.568C679.17 302.39 679.534 302.258 679.932 302.17C680.333 302.08 680.737 302.008 681.142 301.955C681.672 301.886 682.102 301.835 682.432 301.801C682.765 301.763 683.008 301.701 683.159 301.614C683.314 301.527 683.392 301.375 683.392 301.159V301.114C683.392 300.553 683.239 300.117 682.932 299.807C682.629 299.496 682.169 299.341 681.551 299.341C680.911 299.341 680.409 299.481 680.045 299.761C679.682 300.042 679.426 300.341 679.278 300.659L678.006 300.205C678.233 299.674 678.536 299.261 678.915 298.966C679.297 298.667 679.714 298.458 680.165 298.341C680.619 298.22 681.066 298.159 681.506 298.159C681.786 298.159 682.108 298.193 682.472 298.261C682.839 298.326 683.193 298.46 683.534 298.665C683.879 298.869 684.165 299.178 684.392 299.591C684.619 300.004 684.733 300.557 684.733 301.25V307H683.392V305.818H683.324C683.233 306.008 683.081 306.21 682.869 306.426C682.657 306.642 682.375 306.826 682.023 306.977C681.67 307.129 681.241 307.205 680.733 307.205ZM680.938 306C681.468 306 681.915 305.896 682.278 305.688C682.646 305.479 682.922 305.21 683.108 304.881C683.297 304.551 683.392 304.205 683.392 303.841V302.614C683.335 302.682 683.21 302.744 683.017 302.801C682.828 302.854 682.608 302.902 682.358 302.943C682.112 302.981 681.871 303.015 681.636 303.045C681.405 303.072 681.218 303.095 681.074 303.114C680.725 303.159 680.4 303.233 680.097 303.335C679.797 303.434 679.555 303.583 679.369 303.784C679.188 303.981 679.097 304.25 679.097 304.591C679.097 305.057 679.269 305.409 679.614 305.648C679.962 305.883 680.403 306 680.938 306ZM687.732 310.273C687.504 310.273 687.302 310.254 687.124 310.216C686.946 310.182 686.822 310.148 686.754 310.114L687.095 308.932C687.421 309.015 687.709 309.045 687.959 309.023C688.209 309 688.43 308.888 688.624 308.688C688.821 308.491 689 308.17 689.163 307.727L689.413 307.045L686.186 298.273H687.641L690.05 305.227H690.141L692.55 298.273H694.004L690.3 308.273C690.133 308.723 689.927 309.097 689.68 309.392C689.434 309.691 689.148 309.913 688.822 310.057C688.5 310.201 688.137 310.273 687.732 310.273ZM699.82 299V297.977C699.82 297.667 699.875 297.337 699.984 296.989C700.098 296.636 700.261 296.297 700.473 295.972C700.689 295.642 700.948 295.356 701.251 295.114L701.979 295.705C701.74 296.045 701.532 296.402 701.354 296.773C701.179 297.14 701.092 297.534 701.092 297.955V299H699.82ZM702.729 299V297.977C702.729 297.667 702.784 297.337 702.893 296.989C703.007 296.636 703.17 296.297 703.382 295.972C703.598 295.642 703.857 295.356 704.161 295.114L704.888 295.705C704.649 296.045 704.441 296.402 704.263 296.773C704.089 297.14 704.001 297.534 704.001 297.955V299H702.729ZM706.163 307V305.977L712.436 296.614H706.095V295.364H714.118V296.386L707.845 305.75H714.186V307H706.163ZM717.55 295.364V296.386C717.55 296.697 717.493 297.028 717.379 297.381C717.269 297.729 717.107 298.068 716.891 298.398C716.679 298.723 716.421 299.008 716.118 299.25L715.391 298.659C715.629 298.318 715.836 297.964 716.01 297.597C716.188 297.225 716.277 296.83 716.277 296.409V295.364H717.55ZM720.459 295.364V296.386C720.459 296.697 720.402 297.028 720.288 297.381C720.179 297.729 720.016 298.068 719.8 298.398C719.588 298.723 719.33 299.008 719.027 299.25L718.3 298.659C718.538 298.318 718.745 297.964 718.919 297.597C719.097 297.225 719.186 296.83 719.186 296.409V295.364H720.459Z" fill="#374151"/>
<rect x="618.689" y="263" width="141.311" height="76" rx="15" stroke="#F3F4F6" stroke-width="2"/>
<rect x="617" y="288.553" width="2.75598" height="24.8936" rx="1.37799" fill="#F59E0B"/>
<rect x="0.5" y="0.5" width="599" height="371" rx="7.5" stroke="#6B7280" stroke-dasharray="9 9"/>
</svg>
