<svg width="993" height="684" viewBox="0 0 993 684" fill="none" xmlns="http://www.w3.org/2000/svg">
<rect x="0.5" y="277.566" width="127" height="117.036" rx="29.5" fill="white" stroke="#6B7280"/>
<path d="M50.2569 319.614V318.364H58.9842V319.614H55.3251V330H53.916V319.614H50.2569ZM62.318 324.75V330H60.9771V318.364H62.318V322.636H62.4316C62.6362 322.186 62.943 321.828 63.3521 321.562C63.765 321.294 64.3142 321.159 64.9998 321.159C65.5945 321.159 66.1153 321.278 66.5623 321.517C67.0093 321.752 67.3559 322.114 67.6021 322.602C67.8521 323.087 67.9771 323.705 67.9771 324.455V330H66.6362V324.545C66.6362 323.852 66.4563 323.316 66.0964 322.938C65.7403 322.555 65.246 322.364 64.6135 322.364C64.1741 322.364 63.7801 322.456 63.4316 322.642C63.0869 322.828 62.8142 323.098 62.6135 323.455C62.4165 323.811 62.318 324.242 62.318 324.75ZM74.0893 330.182C73.2484 330.182 72.523 329.996 71.9132 329.625C71.3071 329.25 70.8393 328.727 70.5098 328.057C70.184 327.383 70.0211 326.598 70.0211 325.705C70.0211 324.811 70.184 324.023 70.5098 323.341C70.8393 322.655 71.2976 322.121 71.8848 321.739C72.4757 321.352 73.1651 321.159 73.9529 321.159C74.4075 321.159 74.8564 321.235 75.2995 321.386C75.7427 321.538 76.1461 321.784 76.5098 322.125C76.8734 322.462 77.1632 322.909 77.3791 323.466C77.595 324.023 77.7029 324.708 77.7029 325.523V326.091H70.9757V324.932H76.3393C76.3393 324.439 76.2408 324 76.0439 323.614C75.8507 323.227 75.5742 322.922 75.2143 322.699C74.8582 322.475 74.4378 322.364 73.9529 322.364C73.4189 322.364 72.9567 322.496 72.5666 322.761C72.1802 323.023 71.8829 323.364 71.6745 323.784C71.4662 324.205 71.362 324.655 71.362 325.136V325.909C71.362 326.568 71.4757 327.127 71.7029 327.585C71.934 328.04 72.2541 328.386 72.6632 328.625C73.0723 328.86 73.5476 328.977 74.0893 328.977C74.4416 328.977 74.7598 328.928 75.0439 328.83C75.3317 328.727 75.5798 328.576 75.7882 328.375C75.9965 328.17 76.1575 327.917 76.2711 327.614L77.5666 327.977C77.4302 328.417 77.201 328.803 76.8791 329.136C76.5571 329.466 76.1594 329.723 75.6859 329.909C75.2124 330.091 74.6802 330.182 74.0893 330.182ZM45.7179 354L42.536 342.364H43.9679L46.3997 351.841H46.5133L48.9906 342.364H50.5815L53.0588 351.841H53.1724L55.6042 342.364H57.036L53.8542 354H52.3997L49.8315 344.727H49.7406L47.1724 354H45.7179ZM61.3429 354.182C60.555 354.182 59.8637 353.994 59.269 353.619C58.6781 353.244 58.216 352.72 57.8826 352.045C57.5531 351.371 57.3883 350.583 57.3883 349.682C57.3883 348.773 57.5531 347.979 57.8826 347.301C58.216 346.623 58.6781 346.097 59.269 345.722C59.8637 345.347 60.555 345.159 61.3429 345.159C62.1307 345.159 62.8201 345.347 63.411 345.722C64.0057 346.097 64.4679 346.623 64.7974 347.301C65.1307 347.979 65.2974 348.773 65.2974 349.682C65.2974 350.583 65.1307 351.371 64.7974 352.045C64.4679 352.72 64.0057 353.244 63.411 353.619C62.8201 353.994 62.1307 354.182 61.3429 354.182ZM61.3429 352.977C61.9413 352.977 62.4338 352.824 62.8201 352.517C63.2065 352.21 63.4925 351.807 63.6781 351.307C63.8637 350.807 63.9565 350.265 63.9565 349.682C63.9565 349.098 63.8637 348.555 63.6781 348.051C63.4925 347.547 63.2065 347.14 62.8201 346.83C62.4338 346.519 61.9413 346.364 61.3429 346.364C60.7444 346.364 60.2519 346.519 59.8656 346.83C59.4792 347.14 59.1932 347.547 59.0076 348.051C58.822 348.555 58.7292 349.098 58.7292 349.682C58.7292 350.265 58.822 350.807 59.0076 351.307C59.1932 351.807 59.4792 352.21 59.8656 352.517C60.2519 352.824 60.7444 352.977 61.3429 352.977ZM67.3443 354V345.273H68.6397V346.591H68.7306C68.8897 346.159 69.1776 345.809 69.5943 345.54C70.0109 345.271 70.4806 345.136 71.0034 345.136C71.1019 345.136 71.225 345.138 71.3727 345.142C71.5204 345.146 71.6322 345.152 71.7079 345.159V346.523C71.6625 346.511 71.5583 346.494 71.3954 346.472C71.2363 346.445 71.0678 346.432 70.8897 346.432C70.4655 346.432 70.0867 346.521 69.7534 346.699C69.4238 346.873 69.1625 347.116 68.9693 347.426C68.7799 347.733 68.6852 348.083 68.6852 348.477V354H67.3443ZM74.6383 342.364V354H73.2974V342.364H74.6383ZM80.3897 354.182C79.6625 354.182 79.0204 353.998 78.4636 353.631C77.9068 353.259 77.4712 352.737 77.1568 352.062C76.8424 351.384 76.6852 350.583 76.6852 349.659C76.6852 348.742 76.8424 347.947 77.1568 347.273C77.4712 346.598 77.9087 346.078 78.4693 345.71C79.0299 345.343 79.6776 345.159 80.4125 345.159C80.9806 345.159 81.4295 345.254 81.759 345.443C82.0924 345.629 82.3462 345.841 82.5204 346.08C82.6984 346.314 82.8367 346.508 82.9352 346.659H83.0488V342.364H84.3897V354H83.0943V352.659H82.9352C82.8367 352.818 82.6966 353.019 82.5147 353.261C82.3329 353.5 82.0734 353.714 81.7363 353.903C81.3992 354.089 80.9503 354.182 80.3897 354.182ZM80.5715 352.977C81.1094 352.977 81.564 352.837 81.9352 352.557C82.3064 352.273 82.5886 351.881 82.7818 351.381C82.975 350.877 83.0715 350.295 83.0715 349.636C83.0715 348.985 82.9769 348.415 82.7875 347.926C82.5981 347.434 82.3178 347.051 81.9465 346.778C81.5753 346.502 81.117 346.364 80.5715 346.364C80.0034 346.364 79.5299 346.509 79.1511 346.801C78.7761 347.089 78.4939 347.481 78.3045 347.977C78.1189 348.47 78.0261 349.023 78.0261 349.636C78.0261 350.258 78.1208 350.822 78.3102 351.33C78.5034 351.833 78.7875 352.235 79.1625 352.534C79.5412 352.83 80.0109 352.977 80.5715 352.977Z" fill="#167BB7"/>
<rect x="48.2872" y="274" width="32.1916" height="6.13174" rx="3.06587" fill="#167BB7"/>
<rect x="810" y="253" width="137" height="150" rx="16" fill="#29A9C9"/>
<path d="M860.8 335V320.455H865.715C866.852 320.455 867.784 320.649 868.513 321.037C869.243 321.42 869.782 321.948 870.133 322.621C870.483 323.293 870.658 324.058 870.658 324.915C870.658 325.772 870.483 326.532 870.133 327.195C869.782 327.857 869.245 328.378 868.521 328.757C867.796 329.131 866.871 329.318 865.744 329.318H861.766V327.727H865.687C866.463 327.727 867.088 327.614 867.562 327.386C868.04 327.159 868.386 326.837 868.599 326.42C868.817 325.999 868.925 325.497 868.925 324.915C868.925 324.332 868.817 323.823 868.599 323.388C868.381 322.952 868.033 322.616 867.555 322.379C867.076 322.138 866.444 322.017 865.658 322.017H862.562V335H860.8ZM867.647 328.466L871.227 335H869.181L865.658 328.466H867.647ZM878.082 335H873.593V320.455H878.281C879.692 320.455 880.899 320.746 881.903 321.328C882.907 321.906 883.676 322.737 884.211 323.821C884.746 324.901 885.014 326.193 885.014 327.699C885.014 329.214 884.744 330.518 884.204 331.612C883.664 332.701 882.878 333.539 881.846 334.126C880.814 334.709 879.559 335 878.082 335ZM875.355 333.438H877.968C879.171 333.438 880.168 333.205 880.958 332.741C881.749 332.277 882.339 331.617 882.727 330.76C883.115 329.903 883.309 328.883 883.309 327.699C883.309 326.525 883.118 325.514 882.734 324.666C882.35 323.814 881.778 323.161 881.015 322.706C880.253 322.247 879.304 322.017 878.167 322.017H875.355V333.438ZM895.923 324.091C895.838 323.371 895.492 322.812 894.886 322.415C894.28 322.017 893.537 321.818 892.656 321.818C892.012 321.818 891.449 321.922 890.966 322.131C890.487 322.339 890.113 322.625 889.843 322.99C889.578 323.355 889.446 323.769 889.446 324.233C889.446 324.621 889.538 324.955 889.723 325.234C889.912 325.509 890.154 325.739 890.447 325.923C890.741 326.103 891.048 326.252 891.37 326.371C891.692 326.484 891.988 326.577 892.258 326.648L893.735 327.045C894.114 327.145 894.536 327.282 895 327.457C895.468 327.633 895.916 327.872 896.342 328.175C896.773 328.473 897.128 328.857 897.407 329.325C897.687 329.794 897.826 330.369 897.826 331.051C897.826 331.837 897.62 332.547 897.208 333.182C896.801 333.816 896.205 334.321 895.419 334.695C894.637 335.069 893.688 335.256 892.571 335.256C891.529 335.256 890.627 335.088 889.865 334.751C889.107 334.415 888.511 333.946 888.075 333.345C887.644 332.744 887.4 332.045 887.343 331.25H889.162C889.209 331.799 889.394 332.254 889.716 332.614C890.042 332.969 890.454 333.234 890.951 333.409C891.453 333.58 891.993 333.665 892.571 333.665C893.243 333.665 893.847 333.556 894.382 333.338C894.917 333.116 895.341 332.808 895.653 332.415C895.966 332.017 896.122 331.553 896.122 331.023C896.122 330.54 895.987 330.147 895.717 329.844C895.447 329.541 895.092 329.295 894.652 329.105C894.211 328.916 893.735 328.75 893.224 328.608L891.434 328.097C890.298 327.77 889.398 327.304 888.735 326.697C888.073 326.091 887.741 325.298 887.741 324.318C887.741 323.504 887.961 322.794 888.402 322.188C888.847 321.577 889.443 321.103 890.191 320.767C890.944 320.426 891.785 320.256 892.713 320.256C893.65 320.256 894.484 320.424 895.213 320.76C895.942 321.091 896.52 321.546 896.946 322.124C897.377 322.701 897.604 323.357 897.627 324.091H895.923Z" fill="white"/>
<rect x="562" y="403" width="116" height="92" rx="16" fill="#167BB7"/>
<path d="M591.841 456V441.455H593.603V448.67H593.773L600.307 441.455H602.608L596.501 448.017L602.608 456H600.478L595.421 449.239L593.603 451.284V456H591.841ZM605.345 456V445.091H607.021V456H605.345ZM606.197 443.273C605.87 443.273 605.588 443.161 605.352 442.939C605.12 442.716 605.004 442.449 605.004 442.136C605.004 441.824 605.12 441.556 605.352 441.334C605.588 441.111 605.87 441 606.197 441C606.524 441 606.803 441.111 607.035 441.334C607.272 441.556 607.39 441.824 607.39 442.136C607.39 442.449 607.272 442.716 607.035 442.939C606.803 443.161 606.524 443.273 606.197 443.273ZM611.767 441.455V456H610.091V441.455H611.767ZM616.513 441.455V456H614.837V441.455H616.513ZM625.435 456V441.455H630.52C631.534 441.455 632.369 441.63 633.028 441.98C633.686 442.326 634.176 442.792 634.498 443.379C634.82 443.962 634.981 444.608 634.981 445.318C634.981 445.943 634.869 446.459 634.647 446.866C634.429 447.274 634.14 447.596 633.78 447.832C633.425 448.069 633.039 448.244 632.623 448.358V448.5C633.068 448.528 633.515 448.685 633.965 448.969C634.415 449.253 634.791 449.66 635.094 450.19C635.397 450.721 635.549 451.369 635.549 452.136C635.549 452.866 635.383 453.521 635.052 454.104C634.72 454.686 634.197 455.148 633.482 455.489C632.767 455.83 631.837 456 630.691 456H625.435ZM627.197 454.438H630.691C631.841 454.438 632.658 454.215 633.141 453.77C633.629 453.32 633.873 452.776 633.873 452.136C633.873 451.644 633.747 451.189 633.496 450.773C633.245 450.351 632.888 450.015 632.424 449.764C631.96 449.509 631.411 449.381 630.776 449.381H627.197V454.438ZM627.197 447.847H630.464C630.994 447.847 631.472 447.742 631.898 447.534C632.329 447.326 632.67 447.032 632.921 446.653C633.177 446.275 633.305 445.83 633.305 445.318C633.305 444.679 633.082 444.137 632.637 443.692C632.192 443.242 631.486 443.017 630.52 443.017H627.197V447.847ZM638.216 456V445.091H639.892V456H638.216ZM639.068 443.273C638.741 443.273 638.46 443.161 638.223 442.939C637.991 442.716 637.875 442.449 637.875 442.136C637.875 441.824 637.991 441.556 638.223 441.334C638.46 441.111 638.741 441 639.068 441C639.395 441 639.674 441.111 639.906 441.334C640.143 441.556 640.261 441.824 640.261 442.136C640.261 442.449 640.143 442.716 639.906 442.939C639.674 443.161 639.395 443.273 639.068 443.273ZM644.638 441.455V456H642.962V441.455H644.638ZM649.384 441.455V456H647.708V441.455H649.384Z" fill="white"/>
<rect x="562" y="507" width="116" height="92" rx="16" fill="#167BB7"/>
<path d="M601.92 560V545.455H603.681V552.67H603.851L610.385 545.455H612.687L606.579 552.017L612.687 560H610.556L605.499 553.239L603.681 555.284V560H601.92ZM617.949 560.256C617.258 560.256 616.631 560.125 616.067 559.865C615.504 559.6 615.056 559.219 614.725 558.722C614.394 558.22 614.228 557.614 614.228 556.903C614.228 556.278 614.351 555.772 614.597 555.384C614.843 554.991 615.172 554.683 615.584 554.46C615.996 554.238 616.451 554.072 616.948 553.963C617.45 553.849 617.954 553.759 618.461 553.693C619.124 553.608 619.661 553.544 620.073 553.501C620.49 553.454 620.793 553.376 620.982 553.267C621.176 553.158 621.273 552.969 621.273 552.699V552.642C621.273 551.941 621.081 551.397 620.698 551.009C620.319 550.62 619.744 550.426 618.972 550.426C618.172 550.426 617.545 550.601 617.09 550.952C616.635 551.302 616.316 551.676 616.131 552.074L614.54 551.506C614.824 550.843 615.203 550.327 615.677 549.957C616.155 549.583 616.676 549.323 617.239 549.176C617.807 549.025 618.366 548.949 618.915 548.949C619.266 548.949 619.668 548.991 620.123 549.077C620.582 549.157 621.025 549.325 621.451 549.581C621.882 549.837 622.239 550.223 622.523 550.739C622.807 551.255 622.949 551.946 622.949 552.812V560H621.273V558.523H621.188C621.074 558.759 620.885 559.013 620.62 559.283C620.355 559.553 620.002 559.782 619.562 559.972C619.121 560.161 618.584 560.256 617.949 560.256ZM618.205 558.75C618.868 558.75 619.427 558.62 619.881 558.359C620.34 558.099 620.686 557.763 620.918 557.351C621.155 556.939 621.273 556.506 621.273 556.051V554.517C621.202 554.602 621.046 554.68 620.805 554.751C620.568 554.818 620.293 554.877 619.981 554.929C619.673 554.976 619.372 555.019 619.079 555.057C618.79 555.09 618.555 555.118 618.376 555.142C617.94 555.199 617.533 555.291 617.154 555.419C616.78 555.542 616.477 555.729 616.245 555.98C616.018 556.226 615.904 556.562 615.904 556.989C615.904 557.571 616.119 558.011 616.55 558.31C616.986 558.603 617.537 558.75 618.205 558.75ZM632.884 555.54V549.091H634.56V560H632.884V558.153H632.77C632.514 558.707 632.117 559.179 631.577 559.567C631.037 559.95 630.355 560.142 629.531 560.142C628.85 560.142 628.244 559.993 627.713 559.695C627.183 559.392 626.766 558.937 626.463 558.331C626.16 557.72 626.009 556.951 626.009 556.023V549.091H627.685V555.909C627.685 556.705 627.907 557.339 628.352 557.812C628.802 558.286 629.375 558.523 630.071 558.523C630.488 558.523 630.912 558.416 631.343 558.203C631.778 557.99 632.143 557.663 632.436 557.223C632.735 556.783 632.884 556.222 632.884 555.54ZM637.63 560V549.091H639.306V560H637.63ZM638.482 547.273C638.155 547.273 637.874 547.161 637.637 546.939C637.405 546.716 637.289 546.449 637.289 546.136C637.289 545.824 637.405 545.556 637.637 545.334C637.874 545.111 638.155 545 638.482 545C638.809 545 639.088 545.111 639.32 545.334C639.557 545.556 639.675 545.824 639.675 546.136C639.675 546.449 639.557 546.716 639.32 546.939C639.088 547.161 638.809 547.273 638.482 547.273Z" fill="white"/>
<rect x="522.5" y="383.5" width="196" height="234" rx="23.5" stroke="#9CA3AF" stroke-dasharray="4 4"/>
<rect x="506.5" y="364.5" width="228" height="272" rx="23.5" stroke="#9CA3AF"/>
<rect x="562" y="90" width="116" height="92" rx="16" fill="#167BB7"/>
<path d="M591.841 143V128.455H593.603V135.67H593.773L600.307 128.455H602.608L596.501 135.017L602.608 143H600.478L595.421 136.239L593.603 138.284V143H591.841ZM605.345 143V132.091H607.021V143H605.345ZM606.197 130.273C605.87 130.273 605.588 130.161 605.352 129.939C605.12 129.716 605.004 129.449 605.004 129.136C605.004 128.824 605.12 128.556 605.352 128.334C605.588 128.111 605.87 128 606.197 128C606.524 128 606.803 128.111 607.035 128.334C607.272 128.556 607.39 128.824 607.39 129.136C607.39 129.449 607.272 129.716 607.035 129.939C606.803 130.161 606.524 130.273 606.197 130.273ZM611.767 128.455V143H610.091V128.455H611.767ZM616.513 128.455V143H614.837V128.455H616.513ZM625.435 143V128.455H630.52C631.534 128.455 632.369 128.63 633.028 128.98C633.686 129.326 634.176 129.792 634.498 130.379C634.82 130.962 634.981 131.608 634.981 132.318C634.981 132.943 634.869 133.459 634.647 133.866C634.429 134.274 634.14 134.596 633.78 134.832C633.425 135.069 633.039 135.244 632.623 135.358V135.5C633.068 135.528 633.515 135.685 633.965 135.969C634.415 136.253 634.791 136.66 635.094 137.19C635.397 137.721 635.549 138.369 635.549 139.136C635.549 139.866 635.383 140.521 635.052 141.104C634.72 141.686 634.197 142.148 633.482 142.489C632.767 142.83 631.837 143 630.691 143H625.435ZM627.197 141.438H630.691C631.841 141.438 632.658 141.215 633.141 140.77C633.629 140.32 633.873 139.776 633.873 139.136C633.873 138.644 633.747 138.189 633.496 137.773C633.245 137.351 632.888 137.015 632.424 136.764C631.96 136.509 631.411 136.381 630.776 136.381H627.197V141.438ZM627.197 134.847H630.464C630.994 134.847 631.472 134.742 631.898 134.534C632.329 134.326 632.67 134.032 632.921 133.653C633.177 133.275 633.305 132.83 633.305 132.318C633.305 131.679 633.082 131.137 632.637 130.692C632.192 130.242 631.486 130.017 630.52 130.017H627.197V134.847ZM638.216 143V132.091H639.892V143H638.216ZM639.068 130.273C638.741 130.273 638.46 130.161 638.223 129.939C637.991 129.716 637.875 129.449 637.875 129.136C637.875 128.824 637.991 128.556 638.223 128.334C638.46 128.111 638.741 128 639.068 128C639.395 128 639.674 128.111 639.906 128.334C640.143 128.556 640.261 128.824 640.261 129.136C640.261 129.449 640.143 129.716 639.906 129.939C639.674 130.161 639.395 130.273 639.068 130.273ZM644.638 128.455V143H642.962V128.455H644.638ZM649.384 128.455V143H647.708V128.455H649.384Z" fill="white"/>
<rect x="562" y="194" width="116" height="92" rx="16" fill="#167BB7"/>
<path d="M601.92 247V232.455H603.681V239.67H603.851L610.385 232.455H612.687L606.579 239.017L612.687 247H610.556L605.499 240.239L603.681 242.284V247H601.92ZM617.949 247.256C617.258 247.256 616.631 247.125 616.067 246.865C615.504 246.6 615.056 246.219 614.725 245.722C614.394 245.22 614.228 244.614 614.228 243.903C614.228 243.278 614.351 242.772 614.597 242.384C614.843 241.991 615.172 241.683 615.584 241.46C615.996 241.238 616.451 241.072 616.948 240.963C617.45 240.849 617.954 240.759 618.461 240.693C619.124 240.608 619.661 240.544 620.073 240.501C620.49 240.454 620.793 240.376 620.982 240.267C621.176 240.158 621.273 239.969 621.273 239.699V239.642C621.273 238.941 621.081 238.397 620.698 238.009C620.319 237.62 619.744 237.426 618.972 237.426C618.172 237.426 617.545 237.601 617.09 237.952C616.635 238.302 616.316 238.676 616.131 239.074L614.54 238.506C614.824 237.843 615.203 237.327 615.677 236.957C616.155 236.583 616.676 236.323 617.239 236.176C617.807 236.025 618.366 235.949 618.915 235.949C619.266 235.949 619.668 235.991 620.123 236.077C620.582 236.157 621.025 236.325 621.451 236.581C621.882 236.837 622.239 237.223 622.523 237.739C622.807 238.255 622.949 238.946 622.949 239.812V247H621.273V245.523H621.188C621.074 245.759 620.885 246.013 620.62 246.283C620.355 246.553 620.002 246.782 619.562 246.972C619.121 247.161 618.584 247.256 617.949 247.256ZM618.205 245.75C618.868 245.75 619.427 245.62 619.881 245.359C620.34 245.099 620.686 244.763 620.918 244.351C621.155 243.939 621.273 243.506 621.273 243.051V241.517C621.202 241.602 621.046 241.68 620.805 241.751C620.568 241.818 620.293 241.877 619.981 241.929C619.673 241.976 619.372 242.019 619.079 242.057C618.79 242.09 618.555 242.118 618.376 242.142C617.94 242.199 617.533 242.291 617.154 242.419C616.78 242.542 616.477 242.729 616.245 242.98C616.018 243.226 615.904 243.562 615.904 243.989C615.904 244.571 616.119 245.011 616.55 245.31C616.986 245.603 617.537 245.75 618.205 245.75ZM632.884 242.54V236.091H634.56V247H632.884V245.153H632.77C632.514 245.707 632.117 246.179 631.577 246.567C631.037 246.95 630.355 247.142 629.531 247.142C628.85 247.142 628.244 246.993 627.713 246.695C627.183 246.392 626.766 245.937 626.463 245.331C626.16 244.72 626.009 243.951 626.009 243.023V236.091H627.685V242.909C627.685 243.705 627.907 244.339 628.352 244.812C628.802 245.286 629.375 245.523 630.071 245.523C630.488 245.523 630.912 245.416 631.343 245.203C631.778 244.99 632.143 244.663 632.436 244.223C632.735 243.783 632.884 243.222 632.884 242.54ZM637.63 247V236.091H639.306V247H637.63ZM638.482 234.273C638.155 234.273 637.874 234.161 637.637 233.939C637.405 233.716 637.289 233.449 637.289 233.136C637.289 232.824 637.405 232.556 637.637 232.334C637.874 232.111 638.155 232 638.482 232C638.809 232 639.088 232.111 639.32 232.334C639.557 232.556 639.675 232.824 639.675 233.136C639.675 233.449 639.557 233.716 639.32 233.939C639.088 234.161 638.809 234.273 638.482 234.273Z" fill="white"/>
<rect x="522.5" y="70.5" width="196" height="234" rx="23.5" stroke="#9CA3AF" stroke-dasharray="4 4"/>
<rect x="506.5" y="47.5" width="228" height="272" rx="23.5" stroke="#6B7280"/>
<rect x="497" y="99" width="52" height="37" rx="8" fill="#E5E7EB"/>
<path d="M509.537 123.139C508.824 123.139 508.195 123.017 507.648 122.771C507.104 122.526 506.678 122.188 506.37 121.757C506.062 121.326 505.909 120.836 505.913 120.286C505.909 119.855 505.997 119.459 506.176 119.097C506.358 118.733 506.605 118.429 506.917 118.188C507.228 117.942 507.576 117.786 507.961 117.72V117.661C507.454 117.538 507.048 117.266 506.743 116.845C506.438 116.424 506.287 115.94 506.29 115.393C506.287 114.873 506.425 114.409 506.703 114.001C506.985 113.59 507.371 113.267 507.862 113.032C508.352 112.797 508.911 112.679 509.537 112.679C510.157 112.679 510.71 112.798 511.197 113.037C511.688 113.272 512.074 113.595 512.356 114.006C512.638 114.414 512.78 114.876 512.783 115.393C512.78 115.94 512.624 116.424 512.316 116.845C512.008 117.266 511.607 117.538 511.113 117.661V117.72C511.494 117.786 511.837 117.942 512.142 118.188C512.45 118.429 512.696 118.733 512.878 119.097C513.063 119.459 513.158 119.855 513.161 120.286C513.158 120.836 513.002 121.326 512.694 121.757C512.386 122.188 511.958 122.526 511.411 122.771C510.868 123.017 510.243 123.139 509.537 123.139ZM509.537 121.881C509.958 121.881 510.322 121.812 510.631 121.673C510.939 121.53 511.178 121.333 511.347 121.081C511.516 120.826 511.602 120.527 511.605 120.186C511.602 119.831 511.509 119.518 511.327 119.246C511.148 118.975 510.904 118.761 510.596 118.605C510.288 118.449 509.935 118.371 509.537 118.371C509.136 118.371 508.78 118.449 508.468 118.605C508.156 118.761 507.911 118.975 507.732 119.246C507.553 119.518 507.465 119.831 507.469 120.186C507.465 120.527 507.547 120.826 507.712 121.081C507.881 121.333 508.122 121.53 508.433 121.673C508.745 121.812 509.113 121.881 509.537 121.881ZM509.537 117.143C509.875 117.143 510.175 117.076 510.437 116.94C510.699 116.804 510.904 116.615 511.053 116.373C511.206 116.131 511.284 115.848 511.287 115.523C511.284 115.205 511.207 114.926 511.058 114.688C510.912 114.449 510.709 114.265 510.447 114.136C510.185 114.003 509.882 113.937 509.537 113.937C509.186 113.937 508.877 114.003 508.612 114.136C508.35 114.265 508.147 114.449 508.001 114.688C507.855 114.926 507.784 115.205 507.787 115.523C507.784 115.848 507.857 116.131 508.006 116.373C508.155 116.615 508.36 116.804 508.622 116.94C508.887 117.076 509.192 117.143 509.537 117.143ZM518.487 123.169C517.702 123.166 517.03 122.959 516.474 122.548C515.917 122.137 515.491 121.538 515.196 120.753C514.901 119.967 514.753 119.021 514.753 117.914C514.753 116.81 514.901 115.867 515.196 115.085C515.494 114.303 515.922 113.706 516.479 113.295C517.039 112.884 517.708 112.679 518.487 112.679C519.266 112.679 519.934 112.886 520.491 113.3C521.047 113.711 521.473 114.308 521.768 115.09C522.067 115.869 522.216 116.81 522.216 117.914C522.216 119.024 522.068 119.972 521.773 120.758C521.478 121.54 521.052 122.138 520.496 122.553C519.939 122.964 519.269 123.169 518.487 123.169ZM518.487 121.842C519.176 121.842 519.715 121.505 520.103 120.832C520.494 120.16 520.689 119.187 520.689 117.914C520.689 117.069 520.6 116.355 520.421 115.771C520.245 115.185 519.992 114.741 519.66 114.439C519.332 114.134 518.941 113.982 518.487 113.982C517.801 113.982 517.262 114.32 516.871 114.996C516.48 115.672 516.283 116.645 516.28 117.914C516.28 118.763 516.367 119.48 516.543 120.067C516.722 120.65 516.976 121.093 517.304 121.394C517.632 121.692 518.026 121.842 518.487 121.842ZM527.42 123.139C526.707 123.139 526.077 123.017 525.531 122.771C524.987 122.526 524.561 122.188 524.253 121.757C523.945 121.326 523.792 120.836 523.795 120.286C523.792 119.855 523.88 119.459 524.059 119.097C524.241 118.733 524.488 118.429 524.8 118.188C525.111 117.942 525.459 117.786 525.844 117.72V117.661C525.337 117.538 524.931 117.266 524.626 116.845C524.321 116.424 524.17 115.94 524.173 115.393C524.17 114.873 524.308 114.409 524.586 114.001C524.868 113.59 525.254 113.267 525.744 113.032C526.235 112.797 526.793 112.679 527.42 112.679C528.04 112.679 528.593 112.798 529.08 113.037C529.571 113.272 529.957 113.595 530.239 114.006C530.52 114.414 530.663 114.876 530.666 115.393C530.663 115.94 530.507 116.424 530.199 116.845C529.891 117.266 529.49 117.538 528.996 117.661V117.72C529.377 117.786 529.72 117.942 530.025 118.188C530.333 118.429 530.578 118.733 530.761 119.097C530.946 119.459 531.041 119.855 531.044 120.286C531.041 120.836 530.885 121.326 530.577 121.757C530.268 122.188 529.841 122.526 529.294 122.771C528.75 123.017 528.126 123.139 527.42 123.139ZM527.42 121.881C527.841 121.881 528.205 121.812 528.513 121.673C528.822 121.53 529.06 121.333 529.229 121.081C529.398 120.826 529.485 120.527 529.488 120.186C529.485 119.831 529.392 119.518 529.21 119.246C529.031 118.975 528.787 118.761 528.479 118.605C528.17 118.449 527.817 118.371 527.42 118.371C527.019 118.371 526.662 118.449 526.351 118.605C526.039 118.761 525.794 118.975 525.615 119.246C525.436 119.518 525.348 119.831 525.352 120.186C525.348 120.527 525.429 120.826 525.595 121.081C525.764 121.333 526.004 121.53 526.316 121.673C526.628 121.812 526.996 121.881 527.42 121.881ZM527.42 117.143C527.758 117.143 528.058 117.076 528.32 116.94C528.581 116.804 528.787 116.615 528.936 116.373C529.089 116.131 529.166 115.848 529.17 115.523C529.166 115.205 529.09 114.926 528.941 114.688C528.795 114.449 528.591 114.265 528.33 114.136C528.068 114.003 527.764 113.937 527.42 113.937C527.068 113.937 526.76 114.003 526.495 114.136C526.233 114.265 526.029 114.449 525.884 114.688C525.738 114.926 525.666 115.205 525.67 115.523C525.666 115.848 525.739 116.131 525.888 116.373C526.038 116.615 526.243 116.804 526.505 116.94C526.77 117.076 527.075 117.143 527.42 117.143ZM536.37 123.169C535.584 123.166 534.913 122.959 534.356 122.548C533.8 122.137 533.374 121.538 533.079 120.753C532.784 119.967 532.636 119.021 532.636 117.914C532.636 116.81 532.784 115.867 533.079 115.085C533.377 114.303 533.805 113.706 534.361 113.295C534.921 112.884 535.591 112.679 536.37 112.679C537.149 112.679 537.817 112.886 538.373 113.3C538.93 113.711 539.356 114.308 539.651 115.09C539.949 115.869 540.099 116.81 540.099 117.914C540.099 119.024 539.951 119.972 539.656 120.758C539.361 121.54 538.935 122.138 538.378 122.553C537.822 122.964 537.152 123.169 536.37 123.169ZM536.37 121.842C537.059 121.842 537.598 121.505 537.986 120.832C538.377 120.16 538.572 119.187 538.572 117.914C538.572 117.069 538.483 116.355 538.304 115.771C538.128 115.185 537.875 114.741 537.543 114.439C537.215 114.134 536.824 113.982 536.37 113.982C535.684 113.982 535.145 114.32 534.754 114.996C534.363 115.672 534.166 116.645 534.162 117.914C534.162 118.763 534.25 119.48 534.426 120.067C534.605 120.65 534.858 121.093 535.187 121.394C535.515 121.692 535.909 121.842 536.37 121.842Z" fill="black"/>
<rect x="505" y="458" width="52" height="37" rx="8" fill="#E5E7EB"/>
<path d="M517.537 482.139C516.824 482.139 516.195 482.017 515.648 481.771C515.104 481.526 514.678 481.188 514.37 480.757C514.062 480.326 513.909 479.836 513.913 479.286C513.909 478.855 513.997 478.459 514.176 478.097C514.358 477.733 514.605 477.429 514.917 477.188C515.228 476.942 515.576 476.786 515.961 476.72V476.661C515.454 476.538 515.048 476.266 514.743 475.845C514.438 475.424 514.287 474.94 514.29 474.393C514.287 473.873 514.425 473.409 514.703 473.001C514.985 472.59 515.371 472.267 515.862 472.032C516.352 471.797 516.911 471.679 517.537 471.679C518.157 471.679 518.71 471.798 519.197 472.037C519.688 472.272 520.074 472.595 520.356 473.006C520.638 473.414 520.78 473.876 520.783 474.393C520.78 474.94 520.624 475.424 520.316 475.845C520.008 476.266 519.607 476.538 519.113 476.661V476.72C519.494 476.786 519.837 476.942 520.142 477.188C520.45 477.429 520.696 477.733 520.878 478.097C521.063 478.459 521.158 478.855 521.161 479.286C521.158 479.836 521.002 480.326 520.694 480.757C520.386 481.188 519.958 481.526 519.411 481.771C518.868 482.017 518.243 482.139 517.537 482.139ZM517.537 480.881C517.958 480.881 518.322 480.812 518.631 480.673C518.939 480.53 519.178 480.333 519.347 480.081C519.516 479.826 519.602 479.527 519.605 479.186C519.602 478.831 519.509 478.518 519.327 478.246C519.148 477.975 518.904 477.761 518.596 477.605C518.288 477.449 517.935 477.371 517.537 477.371C517.136 477.371 516.78 477.449 516.468 477.605C516.156 477.761 515.911 477.975 515.732 478.246C515.553 478.518 515.465 478.831 515.469 479.186C515.465 479.527 515.547 479.826 515.712 480.081C515.881 480.333 516.122 480.53 516.433 480.673C516.745 480.812 517.113 480.881 517.537 480.881ZM517.537 476.143C517.875 476.143 518.175 476.076 518.437 475.94C518.699 475.804 518.904 475.615 519.053 475.373C519.206 475.131 519.284 474.848 519.287 474.523C519.284 474.205 519.207 473.926 519.058 473.688C518.912 473.449 518.709 473.265 518.447 473.136C518.185 473.003 517.882 472.937 517.537 472.937C517.186 472.937 516.877 473.003 516.612 473.136C516.35 473.265 516.147 473.449 516.001 473.688C515.855 473.926 515.784 474.205 515.787 474.523C515.784 474.848 515.857 475.131 516.006 475.373C516.155 475.615 516.36 475.804 516.622 475.94C516.887 476.076 517.192 476.143 517.537 476.143ZM526.487 482.169C525.702 482.166 525.03 481.959 524.474 481.548C523.917 481.137 523.491 480.538 523.196 479.753C522.901 478.967 522.753 478.021 522.753 476.914C522.753 475.81 522.901 474.867 523.196 474.085C523.494 473.303 523.922 472.706 524.479 472.295C525.039 471.884 525.708 471.679 526.487 471.679C527.266 471.679 527.934 471.886 528.491 472.3C529.047 472.711 529.473 473.308 529.768 474.09C530.067 474.869 530.216 475.81 530.216 476.914C530.216 478.024 530.068 478.972 529.773 479.758C529.478 480.54 529.052 481.138 528.496 481.553C527.939 481.964 527.269 482.169 526.487 482.169ZM526.487 480.842C527.176 480.842 527.715 480.505 528.103 479.832C528.494 479.16 528.689 478.187 528.689 476.914C528.689 476.069 528.6 475.355 528.421 474.771C528.245 474.185 527.992 473.741 527.66 473.439C527.332 473.134 526.941 472.982 526.487 472.982C525.801 472.982 525.262 473.32 524.871 473.996C524.48 474.672 524.283 475.645 524.28 476.914C524.28 477.763 524.367 478.48 524.543 479.067C524.722 479.65 524.976 480.093 525.304 480.394C525.632 480.692 526.026 480.842 526.487 480.842ZM535.42 482.139C534.707 482.139 534.077 482.017 533.531 481.771C532.987 481.526 532.561 481.188 532.253 480.757C531.945 480.326 531.792 479.836 531.795 479.286C531.792 478.855 531.88 478.459 532.059 478.097C532.241 477.733 532.488 477.429 532.8 477.188C533.111 476.942 533.459 476.786 533.844 476.72V476.661C533.337 476.538 532.931 476.266 532.626 475.845C532.321 475.424 532.17 474.94 532.173 474.393C532.17 473.873 532.308 473.409 532.586 473.001C532.868 472.59 533.254 472.267 533.744 472.032C534.235 471.797 534.793 471.679 535.42 471.679C536.04 471.679 536.593 471.798 537.08 472.037C537.571 472.272 537.957 472.595 538.239 473.006C538.52 473.414 538.663 473.876 538.666 474.393C538.663 474.94 538.507 475.424 538.199 475.845C537.891 476.266 537.49 476.538 536.996 476.661V476.72C537.377 476.786 537.72 476.942 538.025 477.188C538.333 477.429 538.578 477.733 538.761 478.097C538.946 478.459 539.041 478.855 539.044 479.286C539.041 479.836 538.885 480.326 538.577 480.757C538.268 481.188 537.841 481.526 537.294 481.771C536.75 482.017 536.126 482.139 535.42 482.139ZM535.42 480.881C535.841 480.881 536.205 480.812 536.513 480.673C536.822 480.53 537.06 480.333 537.229 480.081C537.398 479.826 537.485 479.527 537.488 479.186C537.485 478.831 537.392 478.518 537.21 478.246C537.031 477.975 536.787 477.761 536.479 477.605C536.17 477.449 535.817 477.371 535.42 477.371C535.019 477.371 534.662 477.449 534.351 477.605C534.039 477.761 533.794 477.975 533.615 478.246C533.436 478.518 533.348 478.831 533.352 479.186C533.348 479.527 533.429 479.826 533.595 480.081C533.764 480.333 534.004 480.53 534.316 480.673C534.628 480.812 534.996 480.881 535.42 480.881ZM535.42 476.143C535.758 476.143 536.058 476.076 536.32 475.94C536.581 475.804 536.787 475.615 536.936 475.373C537.089 475.131 537.166 474.848 537.17 474.523C537.166 474.205 537.09 473.926 536.941 473.688C536.795 473.449 536.591 473.265 536.33 473.136C536.068 473.003 535.764 472.937 535.42 472.937C535.068 472.937 534.76 473.003 534.495 473.136C534.233 473.265 534.029 473.449 533.884 473.688C533.738 473.926 533.666 474.205 533.67 474.523C533.666 474.848 533.739 475.131 533.888 475.373C534.038 475.615 534.243 475.804 534.505 475.94C534.77 476.076 535.075 476.143 535.42 476.143ZM544.37 482.169C543.584 482.166 542.913 481.959 542.356 481.548C541.8 481.137 541.374 480.538 541.079 479.753C540.784 478.967 540.636 478.021 540.636 476.914C540.636 475.81 540.784 474.867 541.079 474.085C541.377 473.303 541.805 472.706 542.361 472.295C542.921 471.884 543.591 471.679 544.37 471.679C545.149 471.679 545.817 471.886 546.373 472.3C546.93 472.711 547.356 473.308 547.651 474.09C547.949 474.869 548.099 475.81 548.099 476.914C548.099 478.024 547.951 478.972 547.656 479.758C547.361 480.54 546.935 481.138 546.378 481.553C545.822 481.964 545.152 482.169 544.37 482.169ZM544.37 480.842C545.059 480.842 545.598 480.505 545.986 479.832C546.377 479.16 546.572 478.187 546.572 476.914C546.572 476.069 546.483 475.355 546.304 474.771C546.128 474.185 545.875 473.741 545.543 473.439C545.215 473.134 544.824 472.982 544.37 472.982C543.684 472.982 543.145 473.32 542.754 473.996C542.363 474.672 542.166 475.645 542.162 476.914C542.162 477.763 542.25 478.48 542.426 479.067C542.605 479.65 542.858 480.093 543.187 480.394C543.515 480.692 543.909 480.842 544.37 480.842Z" fill="black"/>
<rect x="496" y="216" width="53" height="37" rx="8" fill="#E5E7EB"/>
<path d="M508.957 240.139C508.274 240.139 507.664 240.022 507.127 239.786C506.594 239.551 506.171 239.224 505.859 238.807C505.551 238.386 505.386 237.899 505.362 237.345H506.923C506.943 237.647 507.044 237.909 507.227 238.131C507.412 238.349 507.654 238.518 507.953 238.638C508.251 238.757 508.582 238.817 508.947 238.817C509.348 238.817 509.703 238.747 510.011 238.608C510.322 238.469 510.566 238.275 510.742 238.026C510.917 237.774 511.005 237.484 511.005 237.156C511.005 236.815 510.917 236.515 510.742 236.256C510.569 235.995 510.316 235.789 509.981 235.64C509.649 235.491 509.248 235.416 508.778 235.416H507.918V234.163H508.778C509.156 234.163 509.487 234.095 509.772 233.96C510.06 233.824 510.286 233.635 510.448 233.393C510.611 233.147 510.692 232.861 510.692 232.533C510.692 232.218 510.621 231.944 510.478 231.712C510.339 231.477 510.14 231.293 509.881 231.161C509.626 231.028 509.325 230.962 508.977 230.962C508.645 230.962 508.335 231.023 508.047 231.146C507.762 231.265 507.53 231.437 507.351 231.663C507.172 231.885 507.076 232.152 507.063 232.463H505.576C505.593 231.913 505.755 231.429 506.063 231.011C506.375 230.594 506.786 230.267 507.296 230.032C507.807 229.797 508.373 229.679 508.997 229.679C509.649 229.679 510.213 229.807 510.687 230.062C511.164 230.314 511.532 230.65 511.791 231.071C512.052 231.492 512.182 231.953 512.178 232.453C512.182 233.023 512.023 233.507 511.701 233.905C511.383 234.303 510.959 234.569 510.428 234.705V234.785C511.104 234.888 511.628 235.156 511.999 235.59C512.374 236.024 512.56 236.563 512.556 237.206C512.56 237.766 512.404 238.268 512.089 238.712C511.777 239.156 511.351 239.506 510.811 239.761C510.271 240.013 509.653 240.139 508.957 240.139ZM517.98 240.169C517.195 240.166 516.524 239.959 515.967 239.548C515.41 239.137 514.984 238.538 514.689 237.753C514.394 236.967 514.247 236.021 514.247 234.914C514.247 233.81 514.394 232.867 514.689 232.085C514.987 231.303 515.415 230.706 515.972 230.295C516.532 229.884 517.201 229.679 517.98 229.679C518.759 229.679 519.427 229.886 519.984 230.3C520.541 230.711 520.966 231.308 521.261 232.09C521.56 232.869 521.709 233.81 521.709 234.914C521.709 236.024 521.561 236.972 521.266 237.758C520.971 238.54 520.546 239.138 519.989 239.553C519.432 239.964 518.762 240.169 517.98 240.169ZM517.98 238.842C518.67 238.842 519.208 238.505 519.596 237.832C519.987 237.16 520.183 236.187 520.183 234.914C520.183 234.069 520.093 233.355 519.914 232.771C519.738 232.185 519.485 231.741 519.153 231.439C518.825 231.134 518.434 230.982 517.98 230.982C517.294 230.982 516.756 231.32 516.364 231.996C515.973 232.672 515.776 233.645 515.773 234.914C515.773 235.763 515.861 236.48 516.036 237.067C516.215 237.65 516.469 238.093 516.797 238.394C517.125 238.692 517.52 238.842 517.98 238.842ZM527.017 240.169C526.232 240.166 525.561 239.959 525.004 239.548C524.447 239.137 524.021 238.538 523.726 237.753C523.431 236.967 523.284 236.021 523.284 234.914C523.284 233.81 523.431 232.867 523.726 232.085C524.024 231.303 524.452 230.706 525.009 230.295C525.569 229.884 526.238 229.679 527.017 229.679C527.796 229.679 528.464 229.886 529.021 230.3C529.578 230.711 530.004 231.308 530.299 232.09C530.597 232.869 530.746 233.81 530.746 234.914C530.746 236.024 530.599 236.972 530.304 237.758C530.009 238.54 529.583 239.138 529.026 239.553C528.469 239.964 527.8 240.169 527.017 240.169ZM527.017 238.842C527.707 238.842 528.245 238.505 528.633 237.832C529.024 237.16 529.22 236.187 529.22 234.914C529.22 234.069 529.13 233.355 528.951 232.771C528.776 232.185 528.522 231.741 528.191 231.439C527.862 231.134 527.471 230.982 527.017 230.982C526.331 230.982 525.793 231.32 525.402 231.996C525.01 232.672 524.813 233.645 524.81 234.914C524.81 235.763 524.898 236.48 525.073 237.067C525.252 237.65 525.506 238.093 525.834 238.394C526.162 238.692 526.557 238.842 527.017 238.842ZM536.054 240.169C535.269 240.166 534.598 239.959 534.041 239.548C533.484 239.137 533.058 238.538 532.763 237.753C532.468 236.967 532.321 236.021 532.321 234.914C532.321 233.81 532.468 232.867 532.763 232.085C533.062 231.303 533.489 230.706 534.046 230.295C534.606 229.884 535.276 229.679 536.054 229.679C536.833 229.679 537.501 229.886 538.058 230.3C538.615 230.711 539.041 231.308 539.336 232.09C539.634 232.869 539.783 233.81 539.783 234.914C539.783 236.024 539.636 236.972 539.341 237.758C539.046 238.54 538.62 239.138 538.063 239.553C537.506 239.964 536.837 240.169 536.054 240.169ZM536.054 238.842C536.744 238.842 537.282 238.505 537.67 237.832C538.061 237.16 538.257 236.187 538.257 234.914C538.257 234.069 538.167 233.355 537.988 232.771C537.813 232.185 537.559 231.741 537.228 231.439C536.9 231.134 536.508 230.982 536.054 230.982C535.368 230.982 534.83 231.32 534.439 231.996C534.048 232.672 533.85 233.645 533.847 234.914C533.847 235.763 533.935 236.48 534.111 237.067C534.29 237.65 534.543 238.093 534.871 238.394C535.199 238.692 535.594 238.842 536.054 238.842Z" fill="black"/>
<rect x="504" y="562" width="53" height="37" rx="8" fill="#E5E7EB"/>
<path d="M516.957 586.139C516.274 586.139 515.664 586.022 515.127 585.786C514.594 585.551 514.171 585.224 513.859 584.807C513.551 584.386 513.386 583.899 513.362 583.345H514.923C514.943 583.647 515.044 583.909 515.227 584.131C515.412 584.349 515.654 584.518 515.953 584.638C516.251 584.757 516.582 584.817 516.947 584.817C517.348 584.817 517.703 584.747 518.011 584.608C518.322 584.469 518.566 584.275 518.742 584.026C518.917 583.774 519.005 583.484 519.005 583.156C519.005 582.815 518.917 582.515 518.742 582.256C518.569 581.995 518.316 581.789 517.981 581.64C517.649 581.491 517.248 581.416 516.778 581.416H515.918V580.163H516.778C517.156 580.163 517.487 580.095 517.772 579.96C518.06 579.824 518.286 579.635 518.448 579.393C518.611 579.147 518.692 578.861 518.692 578.533C518.692 578.218 518.621 577.944 518.478 577.712C518.339 577.477 518.14 577.293 517.881 577.161C517.626 577.028 517.325 576.962 516.977 576.962C516.645 576.962 516.335 577.023 516.047 577.146C515.762 577.265 515.53 577.437 515.351 577.663C515.172 577.885 515.076 578.152 515.063 578.463H513.576C513.593 577.913 513.755 577.429 514.063 577.011C514.375 576.594 514.786 576.267 515.296 576.032C515.807 575.797 516.373 575.679 516.997 575.679C517.649 575.679 518.213 575.807 518.687 576.062C519.164 576.314 519.532 576.65 519.791 577.071C520.052 577.492 520.182 577.953 520.178 578.453C520.182 579.023 520.023 579.507 519.701 579.905C519.383 580.303 518.959 580.569 518.428 580.705V580.785C519.104 580.888 519.628 581.156 519.999 581.59C520.374 582.024 520.56 582.563 520.556 583.206C520.56 583.766 520.404 584.268 520.089 584.712C519.777 585.156 519.351 585.506 518.811 585.761C518.271 586.013 517.653 586.139 516.957 586.139ZM525.98 586.169C525.195 586.166 524.524 585.959 523.967 585.548C523.41 585.137 522.984 584.538 522.689 583.753C522.394 582.967 522.247 582.021 522.247 580.914C522.247 579.81 522.394 578.867 522.689 578.085C522.987 577.303 523.415 576.706 523.972 576.295C524.532 575.884 525.201 575.679 525.98 575.679C526.759 575.679 527.427 575.886 527.984 576.3C528.541 576.711 528.966 577.308 529.261 578.09C529.56 578.869 529.709 579.81 529.709 580.914C529.709 582.024 529.561 582.972 529.266 583.758C528.971 584.54 528.546 585.138 527.989 585.553C527.432 585.964 526.762 586.169 525.98 586.169ZM525.98 584.842C526.67 584.842 527.208 584.505 527.596 583.832C527.987 583.16 528.183 582.187 528.183 580.914C528.183 580.069 528.093 579.355 527.914 578.771C527.738 578.185 527.485 577.741 527.153 577.439C526.825 577.134 526.434 576.982 525.98 576.982C525.294 576.982 524.756 577.32 524.364 577.996C523.973 578.672 523.776 579.645 523.773 580.914C523.773 581.763 523.861 582.48 524.036 583.067C524.215 583.65 524.469 584.093 524.797 584.394C525.125 584.692 525.52 584.842 525.98 584.842ZM535.017 586.169C534.232 586.166 533.561 585.959 533.004 585.548C532.447 585.137 532.021 584.538 531.726 583.753C531.431 582.967 531.284 582.021 531.284 580.914C531.284 579.81 531.431 578.867 531.726 578.085C532.024 577.303 532.452 576.706 533.009 576.295C533.569 575.884 534.238 575.679 535.017 575.679C535.796 575.679 536.464 575.886 537.021 576.3C537.578 576.711 538.004 577.308 538.299 578.09C538.597 578.869 538.746 579.81 538.746 580.914C538.746 582.024 538.599 582.972 538.304 583.758C538.009 584.54 537.583 585.138 537.026 585.553C536.469 585.964 535.8 586.169 535.017 586.169ZM535.017 584.842C535.707 584.842 536.245 584.505 536.633 583.832C537.024 583.16 537.22 582.187 537.22 580.914C537.22 580.069 537.13 579.355 536.951 578.771C536.776 578.185 536.522 577.741 536.191 577.439C535.862 577.134 535.471 576.982 535.017 576.982C534.331 576.982 533.793 577.32 533.402 577.996C533.01 578.672 532.813 579.645 532.81 580.914C532.81 581.763 532.898 582.48 533.073 583.067C533.252 583.65 533.506 584.093 533.834 584.394C534.162 584.692 534.557 584.842 535.017 584.842ZM544.054 586.169C543.269 586.166 542.598 585.959 542.041 585.548C541.484 585.137 541.058 584.538 540.763 583.753C540.468 582.967 540.321 582.021 540.321 580.914C540.321 579.81 540.468 578.867 540.763 578.085C541.062 577.303 541.489 576.706 542.046 576.295C542.606 575.884 543.276 575.679 544.054 575.679C544.833 575.679 545.501 575.886 546.058 576.3C546.615 576.711 547.041 577.308 547.336 578.09C547.634 578.869 547.783 579.81 547.783 580.914C547.783 582.024 547.636 582.972 547.341 583.758C547.046 584.54 546.62 585.138 546.063 585.553C545.506 585.964 544.837 586.169 544.054 586.169ZM544.054 584.842C544.744 584.842 545.282 584.505 545.67 583.832C546.061 583.16 546.257 582.187 546.257 580.914C546.257 580.069 546.167 579.355 545.988 578.771C545.813 578.185 545.559 577.741 545.228 577.439C544.9 577.134 544.508 576.982 544.054 576.982C543.368 576.982 542.83 577.32 542.439 577.996C542.048 578.672 541.85 579.645 541.847 580.914C541.847 581.763 541.935 582.48 542.111 583.067C542.29 583.65 542.543 584.093 542.871 584.394C543.199 584.692 543.594 584.842 544.054 584.842Z" fill="black"/>
<rect x="547" y="57" width="43" height="26" rx="8" fill="white"/>
<path d="M552.415 67.4545V68.3068H549.023V67.4545H552.415ZM550.012 65.8864H551.018V72.125C551.018 72.4091 551.059 72.6222 551.141 72.7642C551.227 72.9034 551.335 72.9972 551.465 73.0455C551.599 73.0909 551.739 73.1136 551.887 73.1136C551.998 73.1136 552.089 73.108 552.16 73.0966C552.231 73.0824 552.288 73.071 552.33 73.0625L552.535 73.9659C552.467 73.9915 552.371 74.017 552.249 74.0426C552.127 74.071 551.972 74.0852 551.785 74.0852C551.501 74.0852 551.222 74.0241 550.95 73.902C550.68 73.7798 550.455 73.5938 550.276 73.3438C550.1 73.0938 550.012 72.7784 550.012 72.3977V65.8864ZM556.517 74.1364C555.926 74.1364 555.408 73.9957 554.962 73.7145C554.518 73.4332 554.172 73.0398 553.922 72.5341C553.675 72.0284 553.551 71.4375 553.551 70.7614C553.551 70.0795 553.675 69.4844 553.922 68.9759C554.172 68.4673 554.518 68.0724 554.962 67.7912C555.408 67.5099 555.926 67.3693 556.517 67.3693C557.108 67.3693 557.625 67.5099 558.068 67.7912C558.514 68.0724 558.861 68.4673 559.108 68.9759C559.358 69.4844 559.483 70.0795 559.483 70.7614C559.483 71.4375 559.358 72.0284 559.108 72.5341C558.861 73.0398 558.514 73.4332 558.068 73.7145C557.625 73.9957 557.108 74.1364 556.517 74.1364ZM556.517 73.233C556.966 73.233 557.335 73.1179 557.625 72.8878C557.915 72.6577 558.129 72.3551 558.268 71.9801C558.408 71.6051 558.477 71.1989 558.477 70.7614C558.477 70.3239 558.408 69.9162 558.268 69.5384C558.129 69.1605 557.915 68.8551 557.625 68.6222C557.335 68.3892 556.966 68.2727 556.517 68.2727C556.068 68.2727 555.699 68.3892 555.409 68.6222C555.119 68.8551 554.905 69.1605 554.766 69.5384C554.626 69.9162 554.557 70.3239 554.557 70.7614C554.557 71.1989 554.626 71.6051 554.766 71.9801C554.905 72.3551 555.119 72.6577 555.409 72.8878C555.699 73.1179 556.068 73.233 556.517 73.233ZM561.018 74V67.4545H561.99V68.4773H562.075C562.211 68.1278 562.431 67.8565 562.735 67.6634C563.039 67.4673 563.404 67.3693 563.831 67.3693C564.262 67.3693 564.622 67.4673 564.909 67.6634C565.199 67.8565 565.424 68.1278 565.586 68.4773H565.654C565.822 68.1392 566.074 67.8707 566.409 67.6719C566.744 67.4702 567.146 67.3693 567.615 67.3693C568.2 67.3693 568.679 67.5526 569.051 67.919C569.423 68.2827 569.609 68.8494 569.609 69.6193V74H568.603V69.6193C568.603 69.1364 568.471 68.7912 568.207 68.5838C567.943 68.3764 567.632 68.2727 567.274 68.2727C566.814 68.2727 566.457 68.4119 566.204 68.6903C565.951 68.9659 565.825 69.3153 565.825 69.7386V74H564.802V69.517C564.802 69.1449 564.681 68.8452 564.44 68.6179C564.199 68.3878 563.887 68.2727 563.507 68.2727C563.245 68.2727 563.001 68.3423 562.774 68.4815C562.549 68.6207 562.368 68.8139 562.228 69.0611C562.092 69.3054 562.024 69.5881 562.024 69.9091V74H561.018ZM574.107 74.1364C573.493 74.1364 572.965 73.9915 572.522 73.7017C572.078 73.4119 571.738 73.0128 571.499 72.5043C571.26 71.9957 571.141 71.4148 571.141 70.7614C571.141 70.0966 571.263 69.5099 571.507 69.0014C571.755 68.4901 572.098 68.0909 572.539 67.804C572.982 67.5142 573.499 67.3693 574.09 67.3693C574.55 67.3693 574.965 67.4545 575.334 67.625C575.703 67.7955 576.006 68.0341 576.242 68.3409C576.478 68.6477 576.624 69.0057 576.681 69.4148H575.675C575.598 69.1165 575.428 68.8523 575.164 68.6222C574.902 68.3892 574.55 68.2727 574.107 68.2727C573.715 68.2727 573.371 68.375 573.076 68.5795C572.783 68.7812 572.554 69.0668 572.39 69.4361C572.228 69.8026 572.147 70.233 572.147 70.7273C572.147 71.233 572.226 71.6733 572.385 72.0483C572.547 72.4233 572.775 72.7145 573.067 72.9219C573.363 73.1293 573.709 73.233 574.107 73.233C574.368 73.233 574.605 73.1875 574.819 73.0966C575.032 73.0057 575.212 72.875 575.36 72.7045C575.507 72.5341 575.613 72.3295 575.675 72.0909H576.681C576.624 72.4773 576.483 72.8253 576.259 73.1349C576.037 73.4418 575.743 73.6861 575.377 73.8679C575.013 74.0469 574.59 74.1364 574.107 74.1364ZM580.077 74.1534C579.662 74.1534 579.286 74.0753 578.948 73.919C578.61 73.7599 578.341 73.5312 578.142 73.233C577.944 72.9318 577.844 72.5682 577.844 72.142C577.844 71.767 577.918 71.4631 578.066 71.2301C578.213 70.9943 578.411 70.8097 578.658 70.6761C578.905 70.5426 579.178 70.4432 579.476 70.3778C579.777 70.3097 580.08 70.2557 580.384 70.2159C580.782 70.1648 581.104 70.1264 581.351 70.1009C581.601 70.0724 581.783 70.0256 581.897 69.9602C582.013 69.8949 582.071 69.7812 582.071 69.6193V69.5852C582.071 69.1648 581.956 68.8381 581.726 68.6051C581.499 68.3722 581.154 68.2557 580.691 68.2557C580.211 68.2557 579.834 68.3608 579.561 68.571C579.289 68.7812 579.097 69.0057 578.986 69.2443L578.032 68.9034C578.202 68.5057 578.429 68.196 578.713 67.9744C579 67.75 579.313 67.5937 579.651 67.5057C579.992 67.4148 580.327 67.3693 580.657 67.3693C580.867 67.3693 581.108 67.3949 581.381 67.446C581.657 67.4943 581.922 67.5952 582.178 67.7486C582.436 67.902 582.651 68.1335 582.821 68.4432C582.992 68.7528 583.077 69.1676 583.077 69.6875V74H582.071V73.1136H582.02C581.952 73.2557 581.838 73.4077 581.679 73.5696C581.52 73.7315 581.309 73.8693 581.044 73.983C580.78 74.0966 580.458 74.1534 580.077 74.1534ZM580.23 73.25C580.628 73.25 580.963 73.1719 581.236 73.0156C581.512 72.8594 581.719 72.6577 581.858 72.4105C582 72.1634 582.071 71.9034 582.071 71.6307V70.7102C582.029 70.7614 581.935 70.8082 581.79 70.8509C581.648 70.8906 581.483 70.9261 581.296 70.9574C581.111 70.9858 580.931 71.0114 580.755 71.0341C580.581 71.054 580.441 71.071 580.333 71.0852C580.071 71.1193 579.827 71.1747 579.6 71.2514C579.375 71.3253 579.194 71.4375 579.054 71.5881C578.918 71.7358 578.85 71.9375 578.85 72.1932C578.85 72.5426 578.979 72.8068 579.238 72.9858C579.499 73.1619 579.83 73.25 580.23 73.25ZM587.759 67.4545V68.3068H584.367V67.4545H587.759ZM585.356 65.8864H586.362V72.125C586.362 72.4091 586.403 72.6222 586.485 72.7642C586.57 72.9034 586.678 72.9972 586.809 73.0455C586.942 73.0909 587.083 73.1136 587.231 73.1136C587.342 73.1136 587.433 73.108 587.504 73.0966C587.575 73.0824 587.631 73.071 587.674 73.0625L587.879 73.9659C587.81 73.9915 587.715 74.017 587.593 74.0426C587.471 74.071 587.316 74.0852 587.129 74.0852C586.844 74.0852 586.566 74.0241 586.293 73.902C586.023 73.7798 585.799 73.5938 585.62 73.3438C585.444 73.0938 585.356 72.7784 585.356 72.3977V65.8864Z" fill="#4B5563"/>
<rect x="549" y="370" width="43" height="26" rx="8" fill="white"/>
<path d="M554.415 380.455V381.307H551.023V380.455H554.415ZM552.012 378.886H553.018V385.125C553.018 385.409 553.059 385.622 553.141 385.764C553.227 385.903 553.335 385.997 553.465 386.045C553.599 386.091 553.739 386.114 553.887 386.114C553.998 386.114 554.089 386.108 554.16 386.097C554.231 386.082 554.288 386.071 554.33 386.062L554.535 386.966C554.467 386.991 554.371 387.017 554.249 387.043C554.127 387.071 553.972 387.085 553.785 387.085C553.501 387.085 553.222 387.024 552.95 386.902C552.68 386.78 552.455 386.594 552.276 386.344C552.1 386.094 552.012 385.778 552.012 385.398V378.886ZM558.517 387.136C557.926 387.136 557.408 386.996 556.962 386.714C556.518 386.433 556.172 386.04 555.922 385.534C555.675 385.028 555.551 384.437 555.551 383.761C555.551 383.08 555.675 382.484 555.922 381.976C556.172 381.467 556.518 381.072 556.962 380.791C557.408 380.51 557.926 380.369 558.517 380.369C559.108 380.369 559.625 380.51 560.068 380.791C560.514 381.072 560.861 381.467 561.108 381.976C561.358 382.484 561.483 383.08 561.483 383.761C561.483 384.437 561.358 385.028 561.108 385.534C560.861 386.04 560.514 386.433 560.068 386.714C559.625 386.996 559.108 387.136 558.517 387.136ZM558.517 386.233C558.966 386.233 559.335 386.118 559.625 385.888C559.915 385.658 560.129 385.355 560.268 384.98C560.408 384.605 560.477 384.199 560.477 383.761C560.477 383.324 560.408 382.916 560.268 382.538C560.129 382.161 559.915 381.855 559.625 381.622C559.335 381.389 558.966 381.273 558.517 381.273C558.068 381.273 557.699 381.389 557.409 381.622C557.119 381.855 556.905 382.161 556.766 382.538C556.626 382.916 556.557 383.324 556.557 383.761C556.557 384.199 556.626 384.605 556.766 384.98C556.905 385.355 557.119 385.658 557.409 385.888C557.699 386.118 558.068 386.233 558.517 386.233ZM563.018 387V380.455H563.99V381.477H564.075C564.211 381.128 564.431 380.857 564.735 380.663C565.039 380.467 565.404 380.369 565.831 380.369C566.262 380.369 566.622 380.467 566.909 380.663C567.199 380.857 567.424 381.128 567.586 381.477H567.654C567.822 381.139 568.074 380.871 568.409 380.672C568.744 380.47 569.146 380.369 569.615 380.369C570.2 380.369 570.679 380.553 571.051 380.919C571.423 381.283 571.609 381.849 571.609 382.619V387H570.603V382.619C570.603 382.136 570.471 381.791 570.207 381.584C569.943 381.376 569.632 381.273 569.274 381.273C568.814 381.273 568.457 381.412 568.204 381.69C567.951 381.966 567.825 382.315 567.825 382.739V387H566.802V382.517C566.802 382.145 566.681 381.845 566.44 381.618C566.199 381.388 565.887 381.273 565.507 381.273C565.245 381.273 565.001 381.342 564.774 381.482C564.549 381.621 564.368 381.814 564.228 382.061C564.092 382.305 564.024 382.588 564.024 382.909V387H563.018ZM576.107 387.136C575.493 387.136 574.965 386.991 574.522 386.702C574.078 386.412 573.738 386.013 573.499 385.504C573.26 384.996 573.141 384.415 573.141 383.761C573.141 383.097 573.263 382.51 573.507 382.001C573.755 381.49 574.098 381.091 574.539 380.804C574.982 380.514 575.499 380.369 576.09 380.369C576.55 380.369 576.965 380.455 577.334 380.625C577.703 380.795 578.006 381.034 578.242 381.341C578.478 381.648 578.624 382.006 578.681 382.415H577.675C577.598 382.116 577.428 381.852 577.164 381.622C576.902 381.389 576.55 381.273 576.107 381.273C575.715 381.273 575.371 381.375 575.076 381.58C574.783 381.781 574.554 382.067 574.39 382.436C574.228 382.803 574.147 383.233 574.147 383.727C574.147 384.233 574.226 384.673 574.385 385.048C574.547 385.423 574.775 385.714 575.067 385.922C575.363 386.129 575.709 386.233 576.107 386.233C576.368 386.233 576.605 386.188 576.819 386.097C577.032 386.006 577.212 385.875 577.36 385.705C577.507 385.534 577.613 385.33 577.675 385.091H578.681C578.624 385.477 578.483 385.825 578.259 386.135C578.037 386.442 577.743 386.686 577.377 386.868C577.013 387.047 576.59 387.136 576.107 387.136ZM582.077 387.153C581.662 387.153 581.286 387.075 580.948 386.919C580.61 386.76 580.341 386.531 580.142 386.233C579.944 385.932 579.844 385.568 579.844 385.142C579.844 384.767 579.918 384.463 580.066 384.23C580.213 383.994 580.411 383.81 580.658 383.676C580.905 383.543 581.178 383.443 581.476 383.378C581.777 383.31 582.08 383.256 582.384 383.216C582.782 383.165 583.104 383.126 583.351 383.101C583.601 383.072 583.783 383.026 583.897 382.96C584.013 382.895 584.071 382.781 584.071 382.619V382.585C584.071 382.165 583.956 381.838 583.726 381.605C583.499 381.372 583.154 381.256 582.691 381.256C582.211 381.256 581.834 381.361 581.561 381.571C581.289 381.781 581.097 382.006 580.986 382.244L580.032 381.903C580.202 381.506 580.429 381.196 580.713 380.974C581 380.75 581.313 380.594 581.651 380.506C581.992 380.415 582.327 380.369 582.657 380.369C582.867 380.369 583.108 380.395 583.381 380.446C583.657 380.494 583.922 380.595 584.178 380.749C584.436 380.902 584.651 381.134 584.821 381.443C584.992 381.753 585.077 382.168 585.077 382.688V387H584.071V386.114H584.02C583.952 386.256 583.838 386.408 583.679 386.57C583.52 386.732 583.309 386.869 583.044 386.983C582.78 387.097 582.458 387.153 582.077 387.153ZM582.23 386.25C582.628 386.25 582.963 386.172 583.236 386.016C583.512 385.859 583.719 385.658 583.858 385.411C584 385.163 584.071 384.903 584.071 384.631V383.71C584.029 383.761 583.935 383.808 583.79 383.851C583.648 383.891 583.483 383.926 583.296 383.957C583.111 383.986 582.931 384.011 582.755 384.034C582.581 384.054 582.441 384.071 582.333 384.085C582.071 384.119 581.827 384.175 581.6 384.251C581.375 384.325 581.194 384.437 581.054 384.588C580.918 384.736 580.85 384.937 580.85 385.193C580.85 385.543 580.979 385.807 581.238 385.986C581.499 386.162 581.83 386.25 582.23 386.25ZM589.759 380.455V381.307H586.367V380.455H589.759ZM587.356 378.886H588.362V385.125C588.362 385.409 588.403 385.622 588.485 385.764C588.57 385.903 588.678 385.997 588.809 386.045C588.942 386.091 589.083 386.114 589.231 386.114C589.342 386.114 589.433 386.108 589.504 386.097C589.575 386.082 589.631 386.071 589.674 386.062L589.879 386.966C589.81 386.991 589.715 387.017 589.593 387.043C589.471 387.071 589.316 387.085 589.129 387.085C588.844 387.085 588.566 387.024 588.293 386.902C588.023 386.78 587.799 386.594 587.62 386.344C587.444 386.094 587.356 385.778 587.356 385.398V378.886Z" fill="#4B5563"/>
<rect x="570" y="309" width="100" height="22" rx="8" fill="white"/>
<path d="M579.162 324V315.273H584.429V316.21H580.219V319.159H584.157V320.097H580.219V323.062H584.498V324H579.162ZM593.357 318H592.3C592.238 317.696 592.128 317.429 591.972 317.199C591.819 316.969 591.631 316.776 591.409 316.619C591.191 316.46 590.948 316.341 590.681 316.261C590.414 316.182 590.135 316.142 589.846 316.142C589.317 316.142 588.838 316.276 588.409 316.543C587.983 316.81 587.644 317.203 587.391 317.723C587.141 318.243 587.016 318.881 587.016 319.636C587.016 320.392 587.141 321.03 587.391 321.55C587.644 322.07 587.983 322.463 588.409 322.73C588.838 322.997 589.317 323.131 589.846 323.131C590.135 323.131 590.414 323.091 590.681 323.011C590.948 322.932 591.191 322.814 591.409 322.658C591.631 322.499 591.819 322.304 591.972 322.074C592.128 321.841 592.238 321.574 592.3 321.273H593.357C593.277 321.719 593.132 322.118 592.922 322.47C592.712 322.822 592.451 323.122 592.138 323.369C591.826 323.614 591.475 323.8 591.086 323.928C590.699 324.055 590.286 324.119 589.846 324.119C589.101 324.119 588.439 323.938 587.86 323.574C587.28 323.21 586.824 322.693 586.492 322.023C586.159 321.352 585.993 320.557 585.993 319.636C585.993 318.716 586.159 317.92 586.492 317.25C586.824 316.58 587.28 316.062 587.86 315.699C588.439 315.335 589.101 315.153 589.846 315.153C590.286 315.153 590.699 315.217 591.086 315.345C591.475 315.473 591.826 315.661 592.138 315.908C592.451 316.152 592.712 316.45 592.922 316.803C593.132 317.152 593.277 317.551 593.357 318ZM594.911 324V323.233L597.792 320.08C598.13 319.71 598.408 319.389 598.627 319.116C598.846 318.841 599.008 318.582 599.113 318.341C599.221 318.097 599.275 317.841 599.275 317.574C599.275 317.267 599.201 317.001 599.053 316.777C598.908 316.553 598.71 316.379 598.457 316.257C598.204 316.135 597.92 316.074 597.604 316.074C597.269 316.074 596.977 316.143 596.727 316.283C596.479 316.419 596.288 316.611 596.151 316.858C596.018 317.105 595.951 317.395 595.951 317.727H594.945C594.945 317.216 595.063 316.767 595.299 316.381C595.535 315.994 595.856 315.693 596.262 315.477C596.671 315.261 597.13 315.153 597.638 315.153C598.15 315.153 598.603 315.261 598.998 315.477C599.393 315.693 599.702 315.984 599.927 316.351C600.151 316.717 600.263 317.125 600.263 317.574C600.263 317.895 600.205 318.209 600.089 318.516C599.975 318.82 599.776 319.159 599.492 319.534C599.211 319.906 598.82 320.361 598.32 320.898L596.36 322.994V323.062H600.417V324H594.911ZM606.762 315.273V324H605.705V315.273H606.762ZM609.75 320.062V324H608.745V317.455H609.716V318.477H609.801C609.955 318.145 610.188 317.878 610.5 317.676C610.813 317.472 611.216 317.369 611.711 317.369C612.154 317.369 612.542 317.46 612.874 317.642C613.206 317.821 613.465 318.094 613.65 318.46C613.834 318.824 613.926 319.284 613.926 319.841V324H612.921V319.909C612.921 319.395 612.787 318.994 612.52 318.707C612.253 318.418 611.887 318.273 611.421 318.273C611.1 318.273 610.813 318.342 610.56 318.482C610.31 318.621 610.113 318.824 609.968 319.091C609.823 319.358 609.75 319.682 609.75 320.062ZM620.401 318.92L619.497 319.176C619.44 319.026 619.357 318.879 619.246 318.737C619.138 318.592 618.99 318.473 618.803 318.379C618.615 318.286 618.375 318.239 618.082 318.239C617.682 318.239 617.348 318.331 617.081 318.516C616.817 318.697 616.685 318.929 616.685 319.21C616.685 319.46 616.776 319.658 616.957 319.803C617.139 319.947 617.423 320.068 617.81 320.165L618.781 320.403C619.366 320.545 619.803 320.763 620.089 321.055C620.376 321.345 620.52 321.719 620.52 322.176C620.52 322.551 620.412 322.886 620.196 323.182C619.983 323.477 619.685 323.71 619.301 323.881C618.918 324.051 618.472 324.136 617.963 324.136C617.295 324.136 616.743 323.991 616.305 323.702C615.868 323.412 615.591 322.989 615.474 322.432L616.429 322.193C616.52 322.545 616.692 322.81 616.945 322.986C617.2 323.162 617.534 323.25 617.946 323.25C618.415 323.25 618.787 323.151 619.062 322.952C619.341 322.75 619.48 322.509 619.48 322.227C619.48 322 619.401 321.81 619.241 321.656C619.082 321.5 618.838 321.384 618.509 321.307L617.418 321.051C616.818 320.909 616.378 320.689 616.097 320.391C615.818 320.089 615.679 319.713 615.679 319.261C615.679 318.892 615.783 318.565 615.99 318.281C616.2 317.997 616.486 317.774 616.847 317.612C617.21 317.45 617.622 317.369 618.082 317.369C618.73 317.369 619.239 317.511 619.608 317.795C619.98 318.08 620.244 318.455 620.401 318.92ZM624.88 317.455V318.307H621.488V317.455H624.88ZM622.477 315.886H623.483V322.125C623.483 322.409 623.524 322.622 623.606 322.764C623.691 322.903 623.799 322.997 623.93 323.045C624.064 323.091 624.204 323.114 624.352 323.114C624.463 323.114 624.554 323.108 624.625 323.097C624.696 323.082 624.752 323.071 624.795 323.062L625 323.966C624.931 323.991 624.836 324.017 624.714 324.043C624.592 324.071 624.437 324.085 624.25 324.085C623.966 324.085 623.687 324.024 623.414 323.902C623.145 323.78 622.92 323.594 622.741 323.344C622.565 323.094 622.477 322.778 622.477 322.398V315.886ZM628.319 324.153C627.904 324.153 627.528 324.075 627.19 323.919C626.852 323.76 626.583 323.531 626.385 323.233C626.186 322.932 626.086 322.568 626.086 322.142C626.086 321.767 626.16 321.463 626.308 321.23C626.456 320.994 626.653 320.81 626.9 320.676C627.147 320.543 627.42 320.443 627.718 320.378C628.02 320.31 628.322 320.256 628.626 320.216C629.024 320.165 629.346 320.126 629.593 320.101C629.843 320.072 630.025 320.026 630.139 319.96C630.255 319.895 630.314 319.781 630.314 319.619V319.585C630.314 319.165 630.199 318.838 629.968 318.605C629.741 318.372 629.396 318.256 628.933 318.256C628.453 318.256 628.076 318.361 627.804 318.571C627.531 318.781 627.339 319.006 627.228 319.244L626.274 318.903C626.444 318.506 626.672 318.196 626.956 317.974C627.243 317.75 627.555 317.594 627.893 317.506C628.234 317.415 628.569 317.369 628.899 317.369C629.109 317.369 629.35 317.395 629.623 317.446C629.899 317.494 630.164 317.595 630.42 317.749C630.679 317.902 630.893 318.134 631.064 318.443C631.234 318.753 631.319 319.168 631.319 319.688V324H630.314V323.114H630.262C630.194 323.256 630.081 323.408 629.922 323.57C629.762 323.732 629.551 323.869 629.287 323.983C629.022 324.097 628.7 324.153 628.319 324.153ZM628.473 323.25C628.87 323.25 629.206 323.172 629.478 323.016C629.754 322.859 629.961 322.658 630.1 322.411C630.243 322.163 630.314 321.903 630.314 321.631V320.71C630.271 320.761 630.177 320.808 630.032 320.851C629.89 320.891 629.725 320.926 629.538 320.957C629.353 320.986 629.173 321.011 628.997 321.034C628.824 321.054 628.683 321.071 628.575 321.085C628.314 321.119 628.069 321.175 627.842 321.251C627.618 321.325 627.436 321.437 627.297 321.588C627.16 321.736 627.092 321.937 627.092 322.193C627.092 322.543 627.221 322.807 627.48 322.986C627.741 323.162 628.072 323.25 628.473 323.25ZM634.161 320.062V324H633.155V317.455H634.126V318.477H634.212C634.365 318.145 634.598 317.878 634.911 317.676C635.223 317.472 635.626 317.369 636.121 317.369C636.564 317.369 636.952 317.46 637.284 317.642C637.616 317.821 637.875 318.094 638.06 318.46C638.244 318.824 638.337 319.284 638.337 319.841V324H637.331V319.909C637.331 319.395 637.197 318.994 636.93 318.707C636.663 318.418 636.297 318.273 635.831 318.273C635.51 318.273 635.223 318.342 634.97 318.482C634.72 318.621 634.523 318.824 634.378 319.091C634.233 319.358 634.161 319.682 634.161 320.062ZM642.833 324.136C642.22 324.136 641.691 323.991 641.248 323.702C640.805 323.412 640.464 323.013 640.225 322.504C639.987 321.996 639.868 321.415 639.868 320.761C639.868 320.097 639.99 319.51 640.234 319.001C640.481 318.49 640.825 318.091 641.265 317.804C641.708 317.514 642.225 317.369 642.816 317.369C643.277 317.369 643.691 317.455 644.061 317.625C644.43 317.795 644.733 318.034 644.968 318.341C645.204 318.648 645.35 319.006 645.407 319.415H644.402C644.325 319.116 644.154 318.852 643.89 318.622C643.629 318.389 643.277 318.273 642.833 318.273C642.441 318.273 642.098 318.375 641.802 318.58C641.51 318.781 641.281 319.067 641.116 319.436C640.954 319.803 640.873 320.233 640.873 320.727C640.873 321.233 640.953 321.673 641.112 322.048C641.274 322.423 641.501 322.714 641.794 322.922C642.089 323.129 642.436 323.233 642.833 323.233C643.095 323.233 643.332 323.188 643.545 323.097C643.758 323.006 643.939 322.875 644.086 322.705C644.234 322.534 644.339 322.33 644.402 322.091H645.407C645.35 322.477 645.21 322.825 644.985 323.135C644.764 323.442 644.47 323.686 644.103 323.868C643.74 324.047 643.316 324.136 642.833 324.136ZM649.622 324.136C648.991 324.136 648.447 323.997 647.99 323.719C647.535 323.438 647.184 323.045 646.937 322.543C646.693 322.037 646.571 321.449 646.571 320.778C646.571 320.108 646.693 319.517 646.937 319.006C647.184 318.491 647.528 318.091 647.968 317.804C648.412 317.514 648.929 317.369 649.52 317.369C649.86 317.369 650.197 317.426 650.529 317.54C650.862 317.653 651.164 317.838 651.437 318.094C651.71 318.347 651.927 318.682 652.089 319.099C652.251 319.517 652.332 320.031 652.332 320.642V321.068H647.287V320.199H651.309C651.309 319.83 651.235 319.5 651.088 319.21C650.943 318.92 650.735 318.692 650.466 318.524C650.199 318.357 649.883 318.273 649.52 318.273C649.119 318.273 648.772 318.372 648.48 318.571C648.19 318.767 647.967 319.023 647.811 319.338C647.654 319.653 647.576 319.991 647.576 320.352V320.932C647.576 321.426 647.662 321.845 647.832 322.189C648.005 322.53 648.245 322.79 648.552 322.969C648.859 323.145 649.216 323.233 649.622 323.233C649.886 323.233 650.125 323.196 650.338 323.122C650.554 323.045 650.74 322.932 650.896 322.781C651.052 322.628 651.173 322.437 651.258 322.21L652.23 322.483C652.127 322.812 651.956 323.102 651.714 323.352C651.473 323.599 651.174 323.793 650.819 323.932C650.464 324.068 650.065 324.136 649.622 324.136ZM660.288 315.273V324H659.231V316.381H659.18L657.049 317.795V316.722L659.231 315.273H660.288Z" fill="#4B5563"/>
<rect x="570" y="626" width="102" height="22" rx="8" fill="white"/>
<path d="M579.319 641V632.273H584.586V633.21H580.375V636.159H584.313V637.097H580.375V640.062H584.654V641H579.319ZM593.513 635H592.456C592.394 634.696 592.284 634.429 592.128 634.199C591.975 633.969 591.787 633.776 591.566 633.619C591.347 633.46 591.104 633.341 590.837 633.261C590.57 633.182 590.292 633.142 590.002 633.142C589.473 633.142 588.995 633.276 588.566 633.543C588.14 633.81 587.8 634.203 587.547 634.723C587.297 635.243 587.172 635.881 587.172 636.636C587.172 637.392 587.297 638.03 587.547 638.55C587.8 639.07 588.14 639.463 588.566 639.73C588.995 639.997 589.473 640.131 590.002 640.131C590.292 640.131 590.57 640.091 590.837 640.011C591.104 639.932 591.347 639.814 591.566 639.658C591.787 639.499 591.975 639.304 592.128 639.074C592.284 638.841 592.394 638.574 592.456 638.273H593.513C593.434 638.719 593.289 639.118 593.078 639.47C592.868 639.822 592.607 640.122 592.294 640.369C591.982 640.614 591.631 640.8 591.242 640.928C590.855 641.055 590.442 641.119 590.002 641.119C589.257 641.119 588.596 640.938 588.016 640.574C587.436 640.21 586.98 639.693 586.648 639.023C586.316 638.352 586.15 637.557 586.15 636.636C586.15 635.716 586.316 634.92 586.648 634.25C586.98 633.58 587.436 633.062 588.016 632.699C588.596 632.335 589.257 632.153 590.002 632.153C590.442 632.153 590.855 632.217 591.242 632.345C591.631 632.473 591.982 632.661 592.294 632.908C592.607 633.152 592.868 633.45 593.078 633.803C593.289 634.152 593.434 634.551 593.513 635ZM595.067 641V640.233L597.948 637.08C598.286 636.71 598.565 636.389 598.783 636.116C599.002 635.841 599.164 635.582 599.269 635.341C599.377 635.097 599.431 634.841 599.431 634.574C599.431 634.267 599.357 634.001 599.21 633.777C599.065 633.553 598.866 633.379 598.613 633.257C598.36 633.135 598.076 633.074 597.761 633.074C597.425 633.074 597.133 633.143 596.883 633.283C596.636 633.419 596.444 633.611 596.308 633.858C596.174 634.105 596.107 634.395 596.107 634.727H595.102C595.102 634.216 595.219 633.767 595.455 633.381C595.691 632.994 596.012 632.693 596.418 632.477C596.827 632.261 597.286 632.153 597.795 632.153C598.306 632.153 598.759 632.261 599.154 632.477C599.549 632.693 599.859 632.984 600.083 633.351C600.308 633.717 600.42 634.125 600.42 634.574C600.42 634.895 600.362 635.209 600.245 635.516C600.131 635.82 599.933 636.159 599.648 636.534C599.367 636.906 598.977 637.361 598.477 637.898L596.516 639.994V640.062H600.573V641H595.067ZM606.918 632.273V641H605.862V632.273H606.918ZM609.907 637.062V641H608.901V634.455H609.873V635.477H609.958C610.111 635.145 610.344 634.878 610.657 634.676C610.969 634.472 611.373 634.369 611.867 634.369C612.31 634.369 612.698 634.46 613.03 634.642C613.363 634.821 613.621 635.094 613.806 635.46C613.99 635.824 614.083 636.284 614.083 636.841V641H613.077V636.909C613.077 636.395 612.944 635.994 612.676 635.707C612.409 635.418 612.043 635.273 611.577 635.273C611.256 635.273 610.969 635.342 610.716 635.482C610.466 635.621 610.269 635.824 610.124 636.091C609.979 636.358 609.907 636.682 609.907 637.062ZM620.557 635.92L619.653 636.176C619.597 636.026 619.513 635.879 619.402 635.737C619.294 635.592 619.146 635.473 618.959 635.379C618.771 635.286 618.531 635.239 618.239 635.239C617.838 635.239 617.504 635.331 617.237 635.516C616.973 635.697 616.841 635.929 616.841 636.21C616.841 636.46 616.932 636.658 617.114 636.803C617.295 636.947 617.58 637.068 617.966 637.165L618.938 637.403C619.523 637.545 619.959 637.763 620.246 638.055C620.533 638.345 620.676 638.719 620.676 639.176C620.676 639.551 620.568 639.886 620.352 640.182C620.139 640.477 619.841 640.71 619.457 640.881C619.074 641.051 618.628 641.136 618.119 641.136C617.452 641.136 616.899 640.991 616.462 640.702C616.024 640.412 615.747 639.989 615.631 639.432L616.585 639.193C616.676 639.545 616.848 639.81 617.101 639.986C617.357 640.162 617.69 640.25 618.102 640.25C618.571 640.25 618.943 640.151 619.219 639.952C619.497 639.75 619.636 639.509 619.636 639.227C619.636 639 619.557 638.81 619.398 638.656C619.239 638.5 618.994 638.384 618.665 638.307L617.574 638.051C616.974 637.909 616.534 637.689 616.253 637.391C615.974 637.089 615.835 636.713 615.835 636.261C615.835 635.892 615.939 635.565 616.146 635.281C616.357 634.997 616.642 634.774 617.003 634.612C617.366 634.45 617.778 634.369 618.239 634.369C618.886 634.369 619.395 634.511 619.764 634.795C620.136 635.08 620.401 635.455 620.557 635.92ZM625.037 634.455V635.307H621.645V634.455H625.037ZM622.633 632.886H623.639V639.125C623.639 639.409 623.68 639.622 623.762 639.764C623.848 639.903 623.956 639.997 624.086 640.045C624.22 640.091 624.36 640.114 624.508 640.114C624.619 640.114 624.71 640.108 624.781 640.097C624.852 640.082 624.909 640.071 624.951 640.062L625.156 640.966C625.088 640.991 624.993 641.017 624.87 641.043C624.748 641.071 624.593 641.085 624.406 641.085C624.122 641.085 623.843 641.024 623.571 640.902C623.301 640.78 623.076 640.594 622.897 640.344C622.721 640.094 622.633 639.778 622.633 639.398V632.886ZM628.475 641.153C628.061 641.153 627.684 641.075 627.346 640.919C627.008 640.76 626.74 640.531 626.541 640.233C626.342 639.932 626.243 639.568 626.243 639.142C626.243 638.767 626.316 638.463 626.464 638.23C626.612 637.994 626.809 637.81 627.056 637.676C627.304 637.543 627.576 637.443 627.875 637.378C628.176 637.31 628.478 637.256 628.782 637.216C629.18 637.165 629.502 637.126 629.75 637.101C630 637.072 630.181 637.026 630.295 636.96C630.412 636.895 630.47 636.781 630.47 636.619V636.585C630.47 636.165 630.355 635.838 630.125 635.605C629.897 635.372 629.552 635.256 629.089 635.256C628.609 635.256 628.233 635.361 627.96 635.571C627.687 635.781 627.495 636.006 627.385 636.244L626.43 635.903C626.6 635.506 626.828 635.196 627.112 634.974C627.399 634.75 627.711 634.594 628.049 634.506C628.39 634.415 628.725 634.369 629.055 634.369C629.265 634.369 629.507 634.395 629.779 634.446C630.055 634.494 630.321 634.595 630.576 634.749C630.835 634.902 631.049 635.134 631.22 635.443C631.39 635.753 631.475 636.168 631.475 636.688V641H630.47V640.114H630.419C630.35 640.256 630.237 640.408 630.078 640.57C629.919 640.732 629.707 640.869 629.443 640.983C629.179 641.097 628.856 641.153 628.475 641.153ZM628.629 640.25C629.027 640.25 629.362 640.172 629.635 640.016C629.91 639.859 630.118 639.658 630.257 639.411C630.399 639.163 630.47 638.903 630.47 638.631V637.71C630.427 637.761 630.333 637.808 630.189 637.851C630.047 637.891 629.882 637.926 629.694 637.957C629.51 637.986 629.329 638.011 629.153 638.034C628.98 638.054 628.839 638.071 628.731 638.085C628.47 638.119 628.225 638.175 627.998 638.251C627.774 638.325 627.592 638.437 627.453 638.588C627.316 638.736 627.248 638.937 627.248 639.193C627.248 639.543 627.377 639.807 627.636 639.986C627.897 640.162 628.228 640.25 628.629 640.25ZM634.317 637.062V641H633.311V634.455H634.283V635.477H634.368C634.521 635.145 634.754 634.878 635.067 634.676C635.379 634.472 635.783 634.369 636.277 634.369C636.72 634.369 637.108 634.46 637.44 634.642C637.773 634.821 638.031 635.094 638.216 635.46C638.401 635.824 638.493 636.284 638.493 636.841V641H637.487V636.909C637.487 636.395 637.354 635.994 637.087 635.707C636.82 635.418 636.453 635.273 635.987 635.273C635.666 635.273 635.379 635.342 635.126 635.482C634.876 635.621 634.679 635.824 634.534 636.091C634.389 636.358 634.317 636.682 634.317 637.062ZM642.99 641.136C642.376 641.136 641.848 640.991 641.404 640.702C640.961 640.412 640.62 640.013 640.382 639.504C640.143 638.996 640.024 638.415 640.024 637.761C640.024 637.097 640.146 636.51 640.39 636.001C640.637 635.49 640.981 635.091 641.422 634.804C641.865 634.514 642.382 634.369 642.973 634.369C643.433 634.369 643.848 634.455 644.217 634.625C644.586 634.795 644.889 635.034 645.125 635.341C645.36 635.648 645.507 636.006 645.564 636.415H644.558C644.481 636.116 644.311 635.852 644.047 635.622C643.785 635.389 643.433 635.273 642.99 635.273C642.598 635.273 642.254 635.375 641.958 635.58C641.666 635.781 641.437 636.067 641.272 636.436C641.11 636.803 641.029 637.233 641.029 637.727C641.029 638.233 641.109 638.673 641.268 639.048C641.43 639.423 641.657 639.714 641.95 639.922C642.245 640.129 642.592 640.233 642.99 640.233C643.251 640.233 643.488 640.188 643.701 640.097C643.914 640.006 644.095 639.875 644.243 639.705C644.39 639.534 644.495 639.33 644.558 639.091H645.564C645.507 639.477 645.366 639.825 645.142 640.135C644.92 640.442 644.626 640.686 644.26 640.868C643.896 641.047 643.473 641.136 642.99 641.136ZM649.778 641.136C649.147 641.136 648.603 640.997 648.146 640.719C647.691 640.438 647.341 640.045 647.093 639.543C646.849 639.037 646.727 638.449 646.727 637.778C646.727 637.108 646.849 636.517 647.093 636.006C647.341 635.491 647.684 635.091 648.125 634.804C648.568 634.514 649.085 634.369 649.676 634.369C650.017 634.369 650.353 634.426 650.686 634.54C651.018 634.653 651.321 634.838 651.593 635.094C651.866 635.347 652.083 635.682 652.245 636.099C652.407 636.517 652.488 637.031 652.488 637.642V638.068H647.443V637.199H651.466C651.466 636.83 651.392 636.5 651.244 636.21C651.099 635.92 650.892 635.692 650.622 635.524C650.355 635.357 650.039 635.273 649.676 635.273C649.275 635.273 648.929 635.372 648.636 635.571C648.346 635.767 648.123 636.023 647.967 636.338C647.811 636.653 647.733 636.991 647.733 637.352V637.932C647.733 638.426 647.818 638.845 647.988 639.189C648.162 639.53 648.402 639.79 648.708 639.969C649.015 640.145 649.372 640.233 649.778 640.233C650.042 640.233 650.281 640.196 650.494 640.122C650.71 640.045 650.896 639.932 651.052 639.781C651.208 639.628 651.329 639.437 651.414 639.21L652.386 639.483C652.284 639.812 652.112 640.102 651.87 640.352C651.629 640.599 651.331 640.793 650.975 640.932C650.62 641.068 650.221 641.136 649.778 641.136ZM657.376 641V640.233L660.257 637.08C660.595 636.71 660.873 636.389 661.092 636.116C661.311 635.841 661.473 635.582 661.578 635.341C661.686 635.097 661.74 634.841 661.74 634.574C661.74 634.267 661.666 634.001 661.518 633.777C661.373 633.553 661.174 633.379 660.922 633.257C660.669 633.135 660.385 633.074 660.069 633.074C659.734 633.074 659.441 633.143 659.191 633.283C658.944 633.419 658.752 633.611 658.616 633.858C658.483 634.105 658.416 634.395 658.416 634.727H657.41C657.41 634.216 657.528 633.767 657.764 633.381C658 632.994 658.321 632.693 658.727 632.477C659.136 632.261 659.595 632.153 660.103 632.153C660.615 632.153 661.068 632.261 661.463 632.477C661.858 632.693 662.167 632.984 662.392 633.351C662.616 633.717 662.728 634.125 662.728 634.574C662.728 634.895 662.67 635.209 662.554 635.516C662.44 635.82 662.241 636.159 661.957 636.534C661.676 636.906 661.285 637.361 660.785 637.898L658.825 639.994V640.062H662.882V641H657.376Z" fill="#4B5563"/>
<rect x="164.5" y="0.5" width="828" height="683" rx="7.5" stroke="#167BB7" stroke-dasharray="10 10"/>
<path d="M127.935 340L298.065 340" stroke="#6B7280" stroke-linecap="round"/>
<path d="M299 340L292 335L292 345L299 340Z" fill="#6B7280"/>
<path d="M407.821 291.035L557.299 130.88" stroke="#6B7280" stroke-linecap="round"/>
<path d="M558.121 130.001L550.165 131.259L556.524 138.977L558.121 130.001Z" fill="#6B7280"/>
<path d="M678.755 131.625L816.245 245.375" stroke="#6B7280" stroke-linecap="round"/>
<path d="M817 246L814.794 237.686L808.419 245.391L817 246Z" fill="#6B7280"/>
<path d="M678.739 553.195L813.261 406.804" stroke="#6B7280" stroke-linecap="round"/>
<path d="M814 406L805.582 407.771L812.945 414.537L814 406Z" fill="#6B7280"/>
<path d="M678.674 237.256L801.326 283.745" stroke="#6B7280" stroke-linecap="round"/>
<path d="M802 284.001L797.227 276.844L793.682 286.195L802 284.001Z" fill="#6B7280"/>
<path d="M679.668 446.543L801.332 363.456" stroke="#6B7280" stroke-linecap="round"/>
<path d="M802 362.999L793.4 362.818L799.039 371.076L802 362.999Z" fill="#6B7280"/>
<path d="M429.701 316.641L557.299 251.225" stroke="#6B7280" stroke-linecap="round"/>
<path d="M558 250.866L549.937 249.408L553.605 258.711L558 250.866Z" fill="#6B7280"/>
<path d="M377.803 271.01L439.99 333.197C442.919 336.126 442.919 340.874 439.99 343.803L377.803 405.99C374.874 408.919 370.126 408.919 367.197 405.99L305.01 343.803C302.081 340.874 302.081 336.126 305.01 333.197L367.197 271.01C370.126 268.081 374.874 268.081 377.803 271.01Z" fill="#E8F2F8" stroke="#167BB7"/>
<path d="M419.739 369.436L554.261 448.566" stroke="#6B7280" stroke-linecap="round"/>
<path d="M555 448.999L551.502 441.14L546.431 449.76L555 448.999Z" fill="#6B7280"/>
<path d="M395.88 391.863L556.12 549.135" stroke="#6B7280" stroke-linecap="round"/>
<path d="M557 550.001L555.507 541.529L548.502 548.666L557 550.001Z" fill="#6B7280"/>
<path d="M359.598 347.219V335.582H366.621V336.832H361.008V340.764H366.258V342.014H361.008V345.969H366.712V347.219H359.598ZM369.161 347.219V335.582H370.57V345.969H375.979V347.219H369.161ZM378.161 347.219V335.582H382.229C383.04 335.582 383.708 335.723 384.235 336.003C384.761 336.279 385.153 336.652 385.411 337.122C385.668 337.588 385.797 338.105 385.797 338.673C385.797 339.173 385.708 339.586 385.53 339.912C385.356 340.238 385.125 340.495 384.837 340.685C384.553 340.874 384.244 341.014 383.911 341.105V341.219C384.267 341.241 384.625 341.366 384.985 341.594C385.345 341.821 385.646 342.147 385.888 342.571C386.131 342.995 386.252 343.514 386.252 344.128C386.252 344.711 386.119 345.236 385.854 345.702C385.589 346.168 385.17 346.537 384.598 346.81C384.026 347.082 383.282 347.219 382.365 347.219H378.161ZM379.57 345.969H382.365C383.286 345.969 383.939 345.791 384.326 345.435C384.716 345.075 384.911 344.639 384.911 344.128C384.911 343.734 384.811 343.37 384.61 343.037C384.409 342.7 384.123 342.431 383.752 342.23C383.381 342.026 382.941 341.923 382.434 341.923H379.57V345.969ZM379.57 340.696H382.184C382.608 340.696 382.99 340.613 383.331 340.446C383.676 340.279 383.949 340.045 384.15 339.741C384.354 339.438 384.456 339.082 384.456 338.673C384.456 338.162 384.278 337.728 383.922 337.372C383.566 337.012 383.002 336.832 382.229 336.832H379.57V340.696Z" fill="#167BB7"/>
<path d="M187.096 325.614V324.455L192.21 316.364H193.05V318.159H192.482L188.619 324.273V324.364H195.505V325.614H187.096ZM192.573 328V325.261V324.722V316.364H193.914V328H192.573ZM197.362 325.614V324.455L202.475 316.364H203.316V318.159H202.748L198.884 324.273V324.364H205.771V325.614H197.362ZM202.839 328V325.261V324.722V316.364H204.18V328H202.839ZM211.832 328.159C211.082 328.159 210.413 328.03 209.826 327.773C209.243 327.515 208.779 327.157 208.434 326.699C208.093 326.237 207.907 325.701 207.877 325.091H209.309C209.339 325.466 209.468 325.79 209.695 326.062C209.923 326.331 210.22 326.54 210.587 326.688C210.955 326.835 211.362 326.909 211.809 326.909C212.309 326.909 212.752 326.822 213.138 326.648C213.525 326.473 213.828 326.231 214.048 325.92C214.267 325.61 214.377 325.25 214.377 324.841C214.377 324.413 214.271 324.036 214.059 323.71C213.847 323.381 213.536 323.123 213.127 322.938C212.718 322.752 212.218 322.659 211.627 322.659H210.695V321.409H211.627C212.089 321.409 212.495 321.326 212.843 321.159C213.195 320.992 213.47 320.758 213.667 320.455C213.868 320.152 213.968 319.795 213.968 319.386C213.968 318.992 213.881 318.65 213.707 318.358C213.532 318.066 213.286 317.839 212.968 317.676C212.654 317.513 212.282 317.432 211.854 317.432C211.453 317.432 211.074 317.506 210.718 317.653C210.366 317.797 210.078 318.008 209.854 318.284C209.631 318.557 209.51 318.886 209.491 319.273H208.127C208.15 318.663 208.334 318.129 208.678 317.67C209.023 317.208 209.474 316.848 210.031 316.591C210.591 316.333 211.207 316.205 211.877 316.205C212.597 316.205 213.214 316.35 213.729 316.642C214.245 316.93 214.64 317.311 214.917 317.784C215.193 318.258 215.332 318.769 215.332 319.318C215.332 319.973 215.159 320.532 214.815 320.994C214.474 321.456 214.01 321.777 213.423 321.955V322.045C214.157 322.167 214.731 322.479 215.144 322.983C215.557 323.483 215.763 324.102 215.763 324.841C215.763 325.473 215.591 326.042 215.246 326.545C214.906 327.045 214.44 327.439 213.849 327.727C213.258 328.015 212.585 328.159 211.832 328.159ZM218.587 323.091C218.587 321.659 218.773 320.343 219.144 319.142C219.519 317.937 220.053 316.83 220.746 315.818H221.928C221.656 316.193 221.4 316.655 221.161 317.205C220.926 317.75 220.72 318.35 220.542 319.006C220.364 319.657 220.224 320.331 220.121 321.028C220.023 321.725 219.974 322.413 219.974 323.091C219.974 323.992 220.061 324.907 220.235 325.835C220.409 326.763 220.644 327.625 220.94 328.42C221.235 329.216 221.565 329.864 221.928 330.364H220.746C220.053 329.352 219.519 328.246 219.144 327.045C218.773 325.841 218.587 324.523 218.587 323.091ZM225.157 324.818L225.134 323.159H225.407L229.225 319.273H230.884L226.816 323.386H226.702L225.157 324.818ZM223.907 328V316.364H225.248V328H223.907ZM229.452 328L226.043 323.682L226.998 322.75L231.157 328H229.452ZM235.178 328.205C234.625 328.205 234.123 328.1 233.673 327.892C233.222 327.68 232.864 327.375 232.599 326.977C232.334 326.576 232.201 326.091 232.201 325.523C232.201 325.023 232.299 324.617 232.496 324.307C232.693 323.992 232.957 323.746 233.286 323.568C233.616 323.39 233.979 323.258 234.377 323.17C234.779 323.08 235.182 323.008 235.587 322.955C236.118 322.886 236.548 322.835 236.877 322.801C237.21 322.763 237.453 322.701 237.604 322.614C237.76 322.527 237.837 322.375 237.837 322.159V322.114C237.837 321.553 237.684 321.117 237.377 320.807C237.074 320.496 236.614 320.341 235.996 320.341C235.356 320.341 234.854 320.481 234.491 320.761C234.127 321.042 233.871 321.341 233.724 321.659L232.451 321.205C232.678 320.674 232.981 320.261 233.36 319.966C233.743 319.667 234.159 319.458 234.61 319.341C235.065 319.22 235.512 319.159 235.951 319.159C236.231 319.159 236.553 319.193 236.917 319.261C237.284 319.326 237.638 319.46 237.979 319.665C238.324 319.869 238.61 320.178 238.837 320.591C239.065 321.004 239.178 321.557 239.178 322.25V328H237.837V326.818H237.769C237.678 327.008 237.527 327.21 237.315 327.426C237.103 327.642 236.82 327.826 236.468 327.977C236.116 328.129 235.686 328.205 235.178 328.205ZM235.383 327C235.913 327 236.36 326.896 236.724 326.688C237.091 326.479 237.368 326.21 237.553 325.881C237.743 325.551 237.837 325.205 237.837 324.841V323.614C237.781 323.682 237.656 323.744 237.462 323.801C237.273 323.854 237.053 323.902 236.803 323.943C236.557 323.981 236.317 324.015 236.082 324.045C235.851 324.072 235.663 324.095 235.519 324.114C235.171 324.159 234.845 324.233 234.542 324.335C234.243 324.434 234 324.583 233.815 324.784C233.633 324.981 233.542 325.25 233.542 325.591C233.542 326.057 233.714 326.409 234.059 326.648C234.407 326.883 234.849 327 235.383 327ZM247.126 324.432V319.273H248.467V328H247.126V326.523H247.035C246.83 326.966 246.512 327.343 246.08 327.653C245.648 327.96 245.103 328.114 244.444 328.114C243.898 328.114 243.414 327.994 242.989 327.756C242.565 327.513 242.232 327.15 241.989 326.665C241.747 326.176 241.626 325.561 241.626 324.818V319.273H242.967V324.727C242.967 325.364 243.145 325.871 243.501 326.25C243.861 326.629 244.319 326.818 244.876 326.818C245.209 326.818 245.548 326.733 245.893 326.562C246.241 326.392 246.533 326.131 246.768 325.778C247.006 325.426 247.126 324.977 247.126 324.432ZM250.923 328V319.273H252.263V328H250.923ZM251.604 317.818C251.343 317.818 251.118 317.729 250.928 317.551C250.743 317.373 250.65 317.159 250.65 316.909C250.65 316.659 250.743 316.445 250.928 316.267C251.118 316.089 251.343 316 251.604 316C251.866 316 252.089 316.089 252.275 316.267C252.464 316.445 252.559 316.659 252.559 316.909C252.559 317.159 252.464 317.373 252.275 317.551C252.089 317.729 251.866 317.818 251.604 317.818ZM258.13 323.091C258.13 324.523 257.942 325.841 257.567 327.045C257.196 328.246 256.664 329.352 255.971 330.364H254.789C255.062 329.989 255.316 329.527 255.55 328.977C255.789 328.432 255.997 327.833 256.175 327.182C256.353 326.527 256.492 325.85 256.59 325.153C256.692 324.453 256.744 323.765 256.744 323.091C256.744 322.189 256.656 321.275 256.482 320.347C256.308 319.419 256.073 318.557 255.778 317.761C255.482 316.966 255.153 316.318 254.789 315.818H255.971C256.664 316.83 257.196 317.937 257.567 319.142C257.942 320.343 258.13 321.659 258.13 323.091Z" fill="#4B5563"/>
<path d="M182.135 364.159C181.355 364.159 180.665 364.021 180.067 363.744C179.472 363.464 179.008 363.08 178.675 362.591C178.341 362.098 178.177 361.538 178.18 360.909C178.177 360.417 178.273 359.962 178.47 359.545C178.667 359.125 178.936 358.775 179.277 358.494C179.622 358.21 180.006 358.03 180.43 357.955V357.886C179.874 357.742 179.43 357.43 179.101 356.949C178.771 356.464 178.608 355.913 178.612 355.295C178.608 354.705 178.758 354.176 179.061 353.71C179.364 353.244 179.781 352.877 180.311 352.608C180.845 352.339 181.453 352.205 182.135 352.205C182.809 352.205 183.411 352.339 183.942 352.608C184.472 352.877 184.889 353.244 185.192 353.71C185.499 354.176 185.654 354.705 185.658 355.295C185.654 355.913 185.485 356.464 185.152 356.949C184.822 357.43 184.385 357.742 183.839 357.886V357.955C184.26 358.03 184.639 358.21 184.976 358.494C185.313 358.775 185.582 359.125 185.783 359.545C185.983 359.962 186.086 360.417 186.089 360.909C186.086 361.538 185.915 362.098 185.578 362.591C185.245 363.08 184.781 363.464 184.186 363.744C183.595 364.021 182.911 364.159 182.135 364.159ZM182.135 362.909C182.661 362.909 183.116 362.824 183.499 362.653C183.881 362.483 184.177 362.242 184.385 361.932C184.593 361.621 184.699 361.258 184.703 360.841C184.699 360.402 184.586 360.013 184.362 359.676C184.139 359.339 183.834 359.074 183.447 358.881C183.065 358.687 182.627 358.591 182.135 358.591C181.639 358.591 181.196 358.687 180.805 358.881C180.419 359.074 180.114 359.339 179.891 359.676C179.671 360.013 179.563 360.402 179.567 360.841C179.563 361.258 179.663 361.621 179.868 361.932C180.076 362.242 180.374 362.483 180.76 362.653C181.146 362.824 181.605 362.909 182.135 362.909ZM182.135 357.386C182.552 357.386 182.921 357.303 183.243 357.136C183.569 356.97 183.824 356.737 184.01 356.438C184.196 356.138 184.29 355.788 184.294 355.386C184.29 354.992 184.197 354.65 184.016 354.358C183.834 354.062 183.582 353.835 183.26 353.676C182.938 353.513 182.563 353.432 182.135 353.432C181.699 353.432 181.319 353.513 180.993 353.676C180.667 353.835 180.415 354.062 180.237 354.358C180.059 354.65 179.972 354.992 179.976 355.386C179.972 355.788 180.061 356.138 180.243 356.438C180.429 356.737 180.684 356.97 181.01 357.136C181.336 357.303 181.711 357.386 182.135 357.386ZM187.994 361.614V360.455L193.108 352.364H193.949V354.159H193.381L189.517 360.273V360.364H196.403V361.614H187.994ZM193.472 364V361.261V360.722V352.364H194.812V364H193.472ZM198.26 361.614V360.455L203.374 352.364H204.214V354.159H203.646L199.783 360.273V360.364H206.669V361.614H198.26ZM203.737 364V361.261V360.722V352.364H205.078V364H203.737ZM212.73 364.159C211.98 364.159 211.312 364.03 210.724 363.773C210.141 363.515 209.677 363.157 209.332 362.699C208.991 362.237 208.806 361.701 208.776 361.091H210.207C210.238 361.466 210.366 361.79 210.594 362.062C210.821 362.331 211.118 362.54 211.486 362.688C211.853 362.835 212.26 362.909 212.707 362.909C213.207 362.909 213.651 362.822 214.037 362.648C214.423 362.473 214.726 362.231 214.946 361.92C215.166 361.61 215.276 361.25 215.276 360.841C215.276 360.413 215.17 360.036 214.957 359.71C214.745 359.381 214.435 359.123 214.026 358.938C213.616 358.752 213.116 358.659 212.526 358.659H211.594V357.409H212.526C212.988 357.409 213.393 357.326 213.741 357.159C214.094 356.992 214.368 356.758 214.565 356.455C214.766 356.152 214.866 355.795 214.866 355.386C214.866 354.992 214.779 354.65 214.605 354.358C214.431 354.066 214.185 353.839 213.866 353.676C213.552 353.513 213.181 353.432 212.753 353.432C212.351 353.432 211.973 353.506 211.616 353.653C211.264 353.797 210.976 354.008 210.753 354.284C210.529 354.557 210.408 354.886 210.389 355.273H209.026C209.048 354.663 209.232 354.129 209.577 353.67C209.921 353.208 210.372 352.848 210.929 352.591C211.49 352.333 212.105 352.205 212.776 352.205C213.495 352.205 214.113 352.35 214.628 352.642C215.143 352.93 215.539 353.311 215.815 353.784C216.092 354.258 216.23 354.769 216.23 355.318C216.23 355.973 216.058 356.532 215.713 356.994C215.372 357.456 214.908 357.777 214.321 357.955V358.045C215.056 358.167 215.63 358.479 216.043 358.983C216.455 359.483 216.662 360.102 216.662 360.841C216.662 361.473 216.49 362.042 216.145 362.545C215.804 363.045 215.338 363.439 214.747 363.727C214.156 364.015 213.484 364.159 212.73 364.159ZM219.486 359.091C219.486 357.659 219.671 356.343 220.043 355.142C220.418 353.937 220.952 352.83 221.645 351.818H222.827C222.554 352.193 222.298 352.655 222.06 353.205C221.825 353.75 221.618 354.35 221.44 355.006C221.262 355.657 221.122 356.331 221.02 357.028C220.921 357.725 220.872 358.413 220.872 359.091C220.872 359.992 220.959 360.907 221.134 361.835C221.308 362.763 221.543 363.625 221.838 364.42C222.134 365.216 222.463 365.864 222.827 366.364H221.645C220.952 365.352 220.418 364.246 220.043 363.045C219.671 361.841 219.486 360.523 219.486 359.091ZM226.055 360.818L226.033 359.159H226.305L230.124 355.273H231.783L227.714 359.386H227.601L226.055 360.818ZM224.805 364V352.364H226.146V364H224.805ZM230.351 364L226.942 359.682L227.896 358.75L232.055 364H230.351ZM233.509 364V355.273H234.849V364H233.509ZM234.19 353.818C233.929 353.818 233.704 353.729 233.514 353.551C233.329 353.373 233.236 353.159 233.236 352.909C233.236 352.659 233.329 352.445 233.514 352.267C233.704 352.089 233.929 352 234.19 352C234.452 352 234.675 352.089 234.861 352.267C235.05 352.445 235.145 352.659 235.145 352.909C235.145 353.159 235.05 353.373 234.861 353.551C234.675 353.729 234.452 353.818 234.19 353.818ZM238.646 352.364V364H237.305V352.364H238.646ZM242.443 352.364V364H241.102V352.364H242.443ZM245.081 364V352.364H246.422V356.659H246.536C246.634 356.508 246.77 356.314 246.945 356.08C247.123 355.841 247.376 355.629 247.706 355.443C248.039 355.254 248.49 355.159 249.058 355.159C249.793 355.159 250.441 355.343 251.001 355.71C251.562 356.078 252 356.598 252.314 357.273C252.628 357.947 252.786 358.742 252.786 359.659C252.786 360.583 252.628 361.384 252.314 362.062C252 362.737 251.564 363.259 251.007 363.631C250.45 363.998 249.808 364.182 249.081 364.182C248.52 364.182 248.071 364.089 247.734 363.903C247.397 363.714 247.138 363.5 246.956 363.261C246.774 363.019 246.634 362.818 246.536 362.659H246.376V364H245.081ZM246.399 359.636C246.399 360.295 246.496 360.877 246.689 361.381C246.882 361.881 247.164 362.273 247.536 362.557C247.907 362.837 248.361 362.977 248.899 362.977C249.46 362.977 249.928 362.83 250.303 362.534C250.681 362.235 250.965 361.833 251.155 361.33C251.348 360.822 251.445 360.258 251.445 359.636C251.445 359.023 251.35 358.47 251.161 357.977C250.975 357.481 250.693 357.089 250.314 356.801C249.939 356.509 249.467 356.364 248.899 356.364C248.354 356.364 247.895 356.502 247.524 356.778C247.153 357.051 246.873 357.434 246.683 357.926C246.494 358.415 246.399 358.985 246.399 359.636ZM254.837 364V355.273H256.178V364H254.837ZM255.518 353.818C255.257 353.818 255.032 353.729 254.842 353.551C254.657 353.373 254.564 353.159 254.564 352.909C254.564 352.659 254.657 352.445 254.842 352.267C255.032 352.089 255.257 352 255.518 352C255.78 352 256.003 352.089 256.189 352.267C256.378 352.445 256.473 352.659 256.473 352.909C256.473 353.159 256.378 353.373 256.189 353.551C256.003 353.729 255.78 353.818 255.518 353.818ZM259.974 352.364V364H258.634V352.364H259.974ZM263.771 352.364V364H262.43V352.364H263.771ZM269.091 359.091C269.091 360.523 268.903 361.841 268.528 363.045C268.157 364.246 267.625 365.352 266.932 366.364H265.75C266.023 365.989 266.277 365.527 266.511 364.977C266.75 364.432 266.958 363.833 267.136 363.182C267.314 362.527 267.453 361.85 267.551 361.153C267.653 360.453 267.705 359.765 267.705 359.091C267.705 358.189 267.617 357.275 267.443 356.347C267.269 355.419 267.034 354.557 266.739 353.761C266.443 352.966 266.114 352.318 265.75 351.818H266.932C267.625 352.83 268.157 353.937 268.528 355.142C268.903 356.343 269.091 357.659 269.091 359.091Z" fill="#4B5563"/>
</svg>
