<svg width="932" height="419" viewBox="0 0 932 419" fill="none" xmlns="http://www.w3.org/2000/svg">
<rect x="488" y="361" width="192" height="22" rx="8" fill="white"/>
<path d="M497.166 376V367.273H502.433V368.21H498.223V371.159H502.161V372.097H498.223V375.062H502.501V376H497.166ZM511.361 370H510.304C510.241 369.696 510.132 369.429 509.976 369.199C509.822 368.969 509.635 368.776 509.413 368.619C509.195 368.46 508.952 368.341 508.685 368.261C508.418 368.182 508.139 368.142 507.849 368.142C507.321 368.142 506.842 368.276 506.413 368.543C505.987 368.81 505.648 369.203 505.395 369.723C505.145 370.243 505.02 370.881 505.02 371.636C505.02 372.392 505.145 373.03 505.395 373.55C505.648 374.07 505.987 374.463 506.413 374.73C506.842 374.997 507.321 375.131 507.849 375.131C508.139 375.131 508.418 375.091 508.685 375.011C508.952 374.932 509.195 374.814 509.413 374.658C509.635 374.499 509.822 374.304 509.976 374.074C510.132 373.841 510.241 373.574 510.304 373.273H511.361C511.281 373.719 511.136 374.118 510.926 374.47C510.716 374.822 510.455 375.122 510.142 375.369C509.83 375.614 509.479 375.8 509.089 375.928C508.703 376.055 508.29 376.119 507.849 376.119C507.105 376.119 506.443 375.938 505.864 375.574C505.284 375.21 504.828 374.693 504.496 374.023C504.163 373.352 503.997 372.557 503.997 371.636C503.997 370.716 504.163 369.92 504.496 369.25C504.828 368.58 505.284 368.062 505.864 367.699C506.443 367.335 507.105 367.153 507.849 367.153C508.29 367.153 508.703 367.217 509.089 367.345C509.479 367.473 509.83 367.661 510.142 367.908C510.455 368.152 510.716 368.45 510.926 368.803C511.136 369.152 511.281 369.551 511.361 370ZM512.915 376V375.233L515.796 372.08C516.134 371.71 516.412 371.389 516.631 371.116C516.85 370.841 517.012 370.582 517.117 370.341C517.225 370.097 517.279 369.841 517.279 369.574C517.279 369.267 517.205 369.001 517.057 368.777C516.912 368.553 516.713 368.379 516.461 368.257C516.208 368.135 515.924 368.074 515.608 368.074C515.273 368.074 514.98 368.143 514.73 368.283C514.483 368.419 514.292 368.611 514.155 368.858C514.022 369.105 513.955 369.395 513.955 369.727H512.949C512.949 369.216 513.067 368.767 513.303 368.381C513.539 367.994 513.86 367.693 514.266 367.477C514.675 367.261 515.134 367.153 515.642 367.153C516.154 367.153 516.607 367.261 517.002 367.477C517.397 367.693 517.706 367.984 517.931 368.351C518.155 368.717 518.267 369.125 518.267 369.574C518.267 369.895 518.209 370.209 518.093 370.516C517.979 370.82 517.78 371.159 517.496 371.534C517.215 371.906 516.824 372.361 516.324 372.898L514.364 374.994V375.062H518.421V376H512.915ZM524.766 367.273V376H523.709V367.273H524.766ZM527.754 372.062V376H526.749V369.455H527.72V370.477H527.805C527.959 370.145 528.192 369.878 528.504 369.676C528.817 369.472 529.22 369.369 529.714 369.369C530.158 369.369 530.545 369.46 530.878 369.642C531.21 369.821 531.469 370.094 531.653 370.46C531.838 370.824 531.93 371.284 531.93 371.841V376H530.925V371.909C530.925 371.395 530.791 370.994 530.524 370.707C530.257 370.418 529.891 370.273 529.425 370.273C529.104 370.273 528.817 370.342 528.564 370.482C528.314 370.621 528.116 370.824 527.972 371.091C527.827 371.358 527.754 371.682 527.754 372.062ZM538.404 370.92L537.501 371.176C537.444 371.026 537.36 370.879 537.25 370.737C537.142 370.592 536.994 370.473 536.806 370.379C536.619 370.286 536.379 370.239 536.086 370.239C535.686 370.239 535.352 370.331 535.085 370.516C534.821 370.697 534.689 370.929 534.689 371.21C534.689 371.46 534.779 371.658 534.961 371.803C535.143 371.947 535.427 372.068 535.814 372.165L536.785 372.403C537.37 372.545 537.806 372.763 538.093 373.055C538.38 373.345 538.524 373.719 538.524 374.176C538.524 374.551 538.416 374.886 538.2 375.182C537.987 375.477 537.689 375.71 537.305 375.881C536.922 376.051 536.475 376.136 535.967 376.136C535.299 376.136 534.747 375.991 534.309 375.702C533.872 375.412 533.595 374.989 533.478 374.432L534.433 374.193C534.524 374.545 534.696 374.81 534.949 374.986C535.204 375.162 535.538 375.25 535.95 375.25C536.419 375.25 536.791 375.151 537.066 374.952C537.345 374.75 537.484 374.509 537.484 374.227C537.484 374 537.404 373.81 537.245 373.656C537.086 373.5 536.842 373.384 536.512 373.307L535.422 373.051C534.822 372.909 534.382 372.689 534.1 372.391C533.822 372.089 533.683 371.713 533.683 371.261C533.683 370.892 533.787 370.565 533.994 370.281C534.204 369.997 534.49 369.774 534.85 369.612C535.214 369.45 535.626 369.369 536.086 369.369C536.734 369.369 537.243 369.511 537.612 369.795C537.984 370.08 538.248 370.455 538.404 370.92ZM542.884 369.455V370.307H539.492V369.455H542.884ZM540.481 367.886H541.487V374.125C541.487 374.409 541.528 374.622 541.61 374.764C541.695 374.903 541.803 374.997 541.934 375.045C542.067 375.091 542.208 375.114 542.356 375.114C542.467 375.114 542.558 375.108 542.629 375.097C542.7 375.082 542.756 375.071 542.799 375.062L543.004 375.966C542.935 375.991 542.84 376.017 542.718 376.043C542.596 376.071 542.441 376.085 542.254 376.085C541.969 376.085 541.691 376.024 541.418 375.902C541.148 375.78 540.924 375.594 540.745 375.344C540.569 375.094 540.481 374.778 540.481 374.398V367.886ZM546.323 376.153C545.908 376.153 545.532 376.075 545.194 375.919C544.856 375.76 544.587 375.531 544.388 375.233C544.19 374.932 544.09 374.568 544.09 374.142C544.09 373.767 544.164 373.463 544.312 373.23C544.46 372.994 544.657 372.81 544.904 372.676C545.151 372.543 545.424 372.443 545.722 372.378C546.023 372.31 546.326 372.256 546.63 372.216C547.028 372.165 547.35 372.126 547.597 372.101C547.847 372.072 548.029 372.026 548.143 371.96C548.259 371.895 548.317 371.781 548.317 371.619V371.585C548.317 371.165 548.202 370.838 547.972 370.605C547.745 370.372 547.4 370.256 546.937 370.256C546.457 370.256 546.08 370.361 545.808 370.571C545.535 370.781 545.343 371.006 545.232 371.244L544.278 370.903C544.448 370.506 544.675 370.196 544.96 369.974C545.246 369.75 545.559 369.594 545.897 369.506C546.238 369.415 546.573 369.369 546.903 369.369C547.113 369.369 547.354 369.395 547.627 369.446C547.903 369.494 548.168 369.595 548.424 369.749C548.683 369.902 548.897 370.134 549.067 370.443C549.238 370.753 549.323 371.168 549.323 371.688V376H548.317V375.114H548.266C548.198 375.256 548.085 375.408 547.925 375.57C547.766 375.732 547.555 375.869 547.29 375.983C547.026 376.097 546.704 376.153 546.323 376.153ZM546.477 375.25C546.874 375.25 547.21 375.172 547.482 375.016C547.758 374.859 547.965 374.658 548.104 374.411C548.246 374.163 548.317 373.903 548.317 373.631V372.71C548.275 372.761 548.181 372.808 548.036 372.851C547.894 372.891 547.729 372.926 547.542 372.957C547.357 372.986 547.177 373.011 547.001 373.034C546.827 373.054 546.687 373.071 546.579 373.085C546.317 373.119 546.073 373.175 545.846 373.251C545.621 373.325 545.44 373.437 545.3 373.588C545.164 373.736 545.096 373.937 545.096 374.193C545.096 374.543 545.225 374.807 545.484 374.986C545.745 375.162 546.076 375.25 546.477 375.25ZM552.164 372.062V376H551.159V369.455H552.13V370.477H552.216C552.369 370.145 552.602 369.878 552.914 369.676C553.227 369.472 553.63 369.369 554.125 369.369C554.568 369.369 554.956 369.46 555.288 369.642C555.62 369.821 555.879 370.094 556.064 370.46C556.248 370.824 556.341 371.284 556.341 371.841V376H555.335V371.909C555.335 371.395 555.201 370.994 554.934 370.707C554.667 370.418 554.301 370.273 553.835 370.273C553.514 370.273 553.227 370.342 552.974 370.482C552.724 370.621 552.527 370.824 552.382 371.091C552.237 371.358 552.164 371.682 552.164 372.062ZM560.837 376.136C560.224 376.136 559.695 375.991 559.252 375.702C558.809 375.412 558.468 375.013 558.229 374.504C557.991 373.996 557.871 373.415 557.871 372.761C557.871 372.097 557.994 371.51 558.238 371.001C558.485 370.49 558.829 370.091 559.269 369.804C559.712 369.514 560.229 369.369 560.82 369.369C561.281 369.369 561.695 369.455 562.065 369.625C562.434 369.795 562.737 370.034 562.972 370.341C563.208 370.648 563.354 371.006 563.411 371.415H562.406C562.329 371.116 562.158 370.852 561.894 370.622C561.633 370.389 561.281 370.273 560.837 370.273C560.445 370.273 560.102 370.375 559.806 370.58C559.513 370.781 559.285 371.067 559.12 371.436C558.958 371.803 558.877 372.233 558.877 372.727C558.877 373.233 558.957 373.673 559.116 374.048C559.278 374.423 559.505 374.714 559.798 374.922C560.093 375.129 560.44 375.233 560.837 375.233C561.099 375.233 561.336 375.188 561.549 375.097C561.762 375.006 561.942 374.875 562.09 374.705C562.238 374.534 562.343 374.33 562.406 374.091H563.411C563.354 374.477 563.214 374.825 562.989 375.135C562.768 375.442 562.474 375.686 562.107 375.868C561.744 376.047 561.32 376.136 560.837 376.136ZM567.626 376.136C566.995 376.136 566.451 375.997 565.994 375.719C565.539 375.438 565.188 375.045 564.941 374.543C564.697 374.037 564.575 373.449 564.575 372.778C564.575 372.108 564.697 371.517 564.941 371.006C565.188 370.491 565.532 370.091 565.972 369.804C566.415 369.514 566.933 369.369 567.523 369.369C567.864 369.369 568.201 369.426 568.533 369.54C568.866 369.653 569.168 369.838 569.441 370.094C569.714 370.347 569.931 370.682 570.093 371.099C570.255 371.517 570.336 372.031 570.336 372.642V373.068H565.29V372.199H569.313C569.313 371.83 569.239 371.5 569.092 371.21C568.947 370.92 568.739 370.692 568.469 370.524C568.202 370.357 567.887 370.273 567.523 370.273C567.123 370.273 566.776 370.372 566.484 370.571C566.194 370.767 565.971 371.023 565.815 371.338C565.658 371.653 565.58 371.991 565.58 372.352V372.932C565.58 373.426 565.665 373.845 565.836 374.189C566.009 374.53 566.249 374.79 566.556 374.969C566.863 375.145 567.219 375.233 567.626 375.233C567.89 375.233 568.129 375.196 568.342 375.122C568.558 375.045 568.744 374.932 568.9 374.781C569.056 374.628 569.177 374.437 569.262 374.21L570.234 374.483C570.131 374.812 569.96 375.102 569.718 375.352C569.477 375.599 569.178 375.793 568.823 375.932C568.468 376.068 568.069 376.136 567.626 376.136ZM572.599 376.068C572.388 376.068 572.208 375.993 572.058 375.842C571.907 375.692 571.832 375.511 571.832 375.301C571.832 375.091 571.907 374.911 572.058 374.76C572.208 374.609 572.388 374.534 572.599 374.534C572.809 374.534 572.989 374.609 573.14 374.76C573.29 374.911 573.366 375.091 573.366 375.301C573.366 375.44 573.33 375.568 573.259 375.685C573.191 375.801 573.099 375.895 572.982 375.966C572.869 376.034 572.741 376.068 572.599 376.068ZM572.599 371.21C572.388 371.21 572.208 371.135 572.058 370.984C571.907 370.834 571.832 370.653 571.832 370.443C571.832 370.233 571.907 370.053 572.058 369.902C572.208 369.751 572.388 369.676 572.599 369.676C572.809 369.676 572.989 369.751 573.14 369.902C573.29 370.053 573.366 370.233 573.366 370.443C573.366 370.582 573.33 370.71 573.259 370.827C573.191 370.943 573.099 371.037 572.982 371.108C572.869 371.176 572.741 371.21 572.599 371.21ZM583.455 369.455C583.403 369.023 583.196 368.688 582.832 368.449C582.469 368.21 582.023 368.091 581.494 368.091C581.108 368.091 580.77 368.153 580.48 368.278C580.193 368.403 579.969 368.575 579.807 368.794C579.648 369.013 579.568 369.261 579.568 369.54C579.568 369.773 579.624 369.973 579.734 370.141C579.848 370.305 579.993 370.443 580.169 370.554C580.345 370.662 580.53 370.751 580.723 370.822C580.916 370.891 581.094 370.946 581.256 370.989L582.142 371.227C582.369 371.287 582.622 371.369 582.901 371.474C583.182 371.58 583.45 371.723 583.706 371.905C583.964 372.084 584.178 372.314 584.345 372.595C584.513 372.876 584.597 373.222 584.597 373.631C584.597 374.102 584.473 374.528 584.226 374.909C583.982 375.29 583.624 375.592 583.152 375.817C582.683 376.041 582.114 376.153 581.443 376.153C580.818 376.153 580.277 376.053 579.82 375.851C579.365 375.649 579.007 375.368 578.746 375.007C578.487 374.646 578.341 374.227 578.307 373.75H579.398C579.426 374.08 579.537 374.352 579.73 374.568C579.926 374.781 580.173 374.94 580.472 375.045C580.773 375.148 581.097 375.199 581.443 375.199C581.847 375.199 582.209 375.134 582.53 375.003C582.851 374.869 583.105 374.685 583.293 374.449C583.48 374.21 583.574 373.932 583.574 373.614C583.574 373.324 583.493 373.088 583.331 372.906C583.169 372.724 582.956 372.577 582.692 372.463C582.428 372.349 582.142 372.25 581.835 372.165L580.761 371.858C580.08 371.662 579.54 371.382 579.142 371.018C578.744 370.655 578.545 370.179 578.545 369.591C578.545 369.102 578.678 368.676 578.942 368.312C579.209 367.946 579.567 367.662 580.016 367.46C580.467 367.256 580.972 367.153 581.528 367.153C582.091 367.153 582.591 367.254 583.028 367.456C583.466 367.655 583.813 367.928 584.068 368.274C584.327 368.621 584.463 369.014 584.477 369.455H583.455ZM586.198 376V369.455H587.203V376H586.198ZM586.709 368.364C586.513 368.364 586.344 368.297 586.202 368.163C586.063 368.03 585.993 367.869 585.993 367.682C585.993 367.494 586.063 367.334 586.202 367.2C586.344 367.067 586.513 367 586.709 367C586.905 367 587.073 367.067 587.212 367.2C587.354 367.334 587.425 367.494 587.425 367.682C587.425 367.869 587.354 368.03 587.212 368.163C587.073 368.297 586.905 368.364 586.709 368.364ZM590.051 372.062V376H589.045V369.455H590.017V370.477H590.102C590.256 370.145 590.489 369.878 590.801 369.676C591.114 369.472 591.517 369.369 592.011 369.369C592.455 369.369 592.842 369.46 593.175 369.642C593.507 369.821 593.766 370.094 593.95 370.46C594.135 370.824 594.227 371.284 594.227 371.841V376H593.222V371.909C593.222 371.395 593.088 370.994 592.821 370.707C592.554 370.418 592.188 370.273 591.722 370.273C591.401 370.273 591.114 370.342 590.861 370.482C590.611 370.621 590.413 370.824 590.268 371.091C590.124 371.358 590.051 371.682 590.051 372.062ZM598.707 378.591C598.221 378.591 597.804 378.528 597.454 378.403C597.105 378.281 596.814 378.119 596.581 377.918C596.35 377.719 596.167 377.506 596.031 377.278L596.832 376.716C596.923 376.835 597.038 376.972 597.177 377.125C597.316 377.281 597.507 377.416 597.748 377.53C597.993 377.646 598.312 377.705 598.707 377.705C599.235 377.705 599.672 377.577 600.015 377.321C600.359 377.065 600.531 376.665 600.531 376.119V374.79H600.446C600.372 374.909 600.267 375.057 600.13 375.233C599.997 375.406 599.804 375.561 599.551 375.697C599.301 375.831 598.963 375.898 598.537 375.898C598.008 375.898 597.534 375.773 597.113 375.523C596.696 375.273 596.365 374.909 596.12 374.432C595.879 373.955 595.758 373.375 595.758 372.693C595.758 372.023 595.876 371.439 596.112 370.942C596.348 370.442 596.676 370.055 597.096 369.783C597.517 369.507 598.002 369.369 598.554 369.369C598.98 369.369 599.318 369.44 599.568 369.582C599.821 369.722 600.014 369.881 600.147 370.06C600.284 370.236 600.389 370.381 600.463 370.494H600.565V369.455H601.537V376.188C601.537 376.75 601.409 377.207 601.153 377.56C600.9 377.915 600.559 378.175 600.13 378.339C599.704 378.507 599.23 378.591 598.707 378.591ZM598.673 374.994C599.076 374.994 599.417 374.902 599.696 374.717C599.974 374.533 600.186 374.267 600.331 373.92C600.475 373.574 600.548 373.159 600.548 372.676C600.548 372.205 600.477 371.788 600.335 371.428C600.193 371.067 599.983 370.784 599.704 370.58C599.426 370.375 599.082 370.273 598.673 370.273C598.247 370.273 597.892 370.381 597.608 370.597C597.326 370.812 597.115 371.102 596.973 371.466C596.833 371.83 596.764 372.233 596.764 372.676C596.764 373.131 596.835 373.533 596.977 373.882C597.122 374.229 597.335 374.501 597.616 374.7C597.9 374.896 598.252 374.994 598.673 374.994ZM604.383 367.273V376H603.377V367.273H604.383ZM608.969 376.136C608.339 376.136 607.795 375.997 607.337 375.719C606.883 375.438 606.532 375.045 606.285 374.543C606.04 374.037 605.918 373.449 605.918 372.778C605.918 372.108 606.04 371.517 606.285 371.006C606.532 370.491 606.876 370.091 607.316 369.804C607.759 369.514 608.276 369.369 608.867 369.369C609.208 369.369 609.545 369.426 609.877 369.54C610.21 369.653 610.512 369.838 610.785 370.094C611.058 370.347 611.275 370.682 611.437 371.099C611.599 371.517 611.68 372.031 611.68 372.642V373.068H606.634V372.199H610.657C610.657 371.83 610.583 371.5 610.435 371.21C610.29 370.92 610.083 370.692 609.813 370.524C609.546 370.357 609.231 370.273 608.867 370.273C608.467 370.273 608.12 370.372 607.827 370.571C607.538 370.767 607.315 371.023 607.158 371.338C607.002 371.653 606.924 371.991 606.924 372.352V372.932C606.924 373.426 607.009 373.845 607.18 374.189C607.353 374.53 607.593 374.79 607.9 374.969C608.207 375.145 608.563 375.233 608.969 375.233C609.234 375.233 609.472 375.196 609.685 375.122C609.901 375.045 610.087 374.932 610.244 374.781C610.4 374.628 610.521 374.437 610.606 374.21L611.577 374.483C611.475 374.812 611.303 375.102 611.062 375.352C610.82 375.599 610.522 375.793 610.167 375.932C609.812 376.068 609.413 376.136 608.969 376.136ZM620.335 371.168V372.105H616.516V371.168H620.335ZM625.138 368.21V367.273H631.684V368.21H628.939V376H627.882V368.21H625.138ZM633.178 376V369.455H634.184V376H633.178ZM633.69 368.364C633.494 368.364 633.325 368.297 633.183 368.163C633.043 368.03 632.974 367.869 632.974 367.682C632.974 367.494 633.043 367.334 633.183 367.2C633.325 367.067 633.494 367 633.69 367C633.886 367 634.053 367.067 634.192 367.2C634.335 367.334 634.406 367.494 634.406 367.682C634.406 367.869 634.335 368.03 634.192 368.163C634.053 368.297 633.886 368.364 633.69 368.364ZM638.77 376.136C638.14 376.136 637.596 375.997 637.138 375.719C636.684 375.438 636.333 375.045 636.086 374.543C635.841 374.037 635.719 373.449 635.719 372.778C635.719 372.108 635.841 371.517 636.086 371.006C636.333 370.491 636.676 370.091 637.117 369.804C637.56 369.514 638.077 369.369 638.668 369.369C639.009 369.369 639.346 369.426 639.678 369.54C640.01 369.653 640.313 369.838 640.586 370.094C640.858 370.347 641.076 370.682 641.238 371.099C641.4 371.517 641.48 372.031 641.48 372.642V373.068H636.435V372.199H640.458C640.458 371.83 640.384 371.5 640.236 371.21C640.091 370.92 639.884 370.692 639.614 370.524C639.347 370.357 639.032 370.273 638.668 370.273C638.267 370.273 637.921 370.372 637.628 370.571C637.338 370.767 637.115 371.023 636.959 371.338C636.803 371.653 636.725 371.991 636.725 372.352V372.932C636.725 373.426 636.81 373.845 636.98 374.189C637.154 374.53 637.394 374.79 637.701 374.969C638.007 375.145 638.364 375.233 638.77 375.233C639.034 375.233 639.273 375.196 639.486 375.122C639.702 375.045 639.888 374.932 640.044 374.781C640.201 374.628 640.321 374.437 640.407 374.21L641.378 374.483C641.276 374.812 641.104 375.102 640.863 375.352C640.621 375.599 640.323 375.793 639.968 375.932C639.613 376.068 639.213 376.136 638.77 376.136ZM643.01 376V369.455H643.982V370.443H644.05C644.169 370.119 644.385 369.857 644.698 369.655C645.01 369.453 645.363 369.352 645.755 369.352C645.828 369.352 645.921 369.354 646.032 369.357C646.142 369.359 646.226 369.364 646.283 369.369V370.392C646.249 370.384 646.171 370.371 646.049 370.354C645.929 370.334 645.803 370.324 645.669 370.324C645.351 370.324 645.067 370.391 644.817 370.524C644.57 370.655 644.374 370.837 644.229 371.07C644.087 371.3 644.016 371.562 644.016 371.858V376H643.01ZM651.344 376H650.237L653.441 367.273H654.532L657.737 376H656.629L654.021 368.653H653.952L651.344 376ZM651.754 372.591H656.219V373.528H651.754V372.591ZM659.096 367.273H660.357L663.323 374.517H663.425L666.391 367.273H667.653V376H666.664V369.369H666.579L663.852 376H662.897L660.17 369.369H660.085V376H659.096V367.273ZM670.828 367.273V376H669.772V367.273H670.828Z" fill="#4B5563"/>
<rect x="165.5" y="0.5" width="766" height="418" rx="7.5" stroke="#167BB7" stroke-dasharray="10 10"/>
<rect x="0.5" y="139.566" width="127" height="117.036" rx="29.5" fill="white" stroke="#6B7280"/>
<path d="M50.2569 181.614V180.364H58.9842V181.614H55.3251V192H53.916V181.614H50.2569ZM62.318 186.75V192H60.9771V180.364H62.318V184.636H62.4316C62.6362 184.186 62.943 183.828 63.3521 183.562C63.765 183.294 64.3142 183.159 64.9998 183.159C65.5945 183.159 66.1153 183.278 66.5623 183.517C67.0093 183.752 67.3559 184.114 67.6021 184.602C67.8521 185.087 67.9771 185.705 67.9771 186.455V192H66.6362V186.545C66.6362 185.852 66.4563 185.316 66.0964 184.938C65.7403 184.555 65.246 184.364 64.6135 184.364C64.1741 184.364 63.7801 184.456 63.4316 184.642C63.0869 184.828 62.8142 185.098 62.6135 185.455C62.4165 185.811 62.318 186.242 62.318 186.75ZM74.0893 192.182C73.2484 192.182 72.523 191.996 71.9132 191.625C71.3071 191.25 70.8393 190.727 70.5098 190.057C70.184 189.383 70.0211 188.598 70.0211 187.705C70.0211 186.811 70.184 186.023 70.5098 185.341C70.8393 184.655 71.2976 184.121 71.8848 183.739C72.4757 183.352 73.1651 183.159 73.9529 183.159C74.4075 183.159 74.8564 183.235 75.2995 183.386C75.7427 183.538 76.1461 183.784 76.5098 184.125C76.8734 184.462 77.1632 184.909 77.3791 185.466C77.595 186.023 77.7029 186.708 77.7029 187.523V188.091H70.9757V186.932H76.3393C76.3393 186.439 76.2408 186 76.0439 185.614C75.8507 185.227 75.5742 184.922 75.2143 184.699C74.8582 184.475 74.4378 184.364 73.9529 184.364C73.4189 184.364 72.9567 184.496 72.5666 184.761C72.1802 185.023 71.8829 185.364 71.6745 185.784C71.4662 186.205 71.362 186.655 71.362 187.136V187.909C71.362 188.568 71.4757 189.127 71.7029 189.585C71.934 190.04 72.2541 190.386 72.6632 190.625C73.0723 190.86 73.5476 190.977 74.0893 190.977C74.4416 190.977 74.7598 190.928 75.0439 190.83C75.3317 190.727 75.5798 190.576 75.7882 190.375C75.9965 190.17 76.1575 189.917 76.2711 189.614L77.5666 189.977C77.4302 190.417 77.201 190.803 76.8791 191.136C76.5571 191.466 76.1594 191.723 75.6859 191.909C75.2124 192.091 74.6802 192.182 74.0893 192.182ZM45.7179 216L42.536 204.364H43.9679L46.3997 213.841H46.5133L48.9906 204.364H50.5815L53.0588 213.841H53.1724L55.6042 204.364H57.036L53.8542 216H52.3997L49.8315 206.727H49.7406L47.1724 216H45.7179ZM61.3429 216.182C60.555 216.182 59.8637 215.994 59.269 215.619C58.6781 215.244 58.216 214.72 57.8826 214.045C57.5531 213.371 57.3883 212.583 57.3883 211.682C57.3883 210.773 57.5531 209.979 57.8826 209.301C58.216 208.623 58.6781 208.097 59.269 207.722C59.8637 207.347 60.555 207.159 61.3429 207.159C62.1307 207.159 62.8201 207.347 63.411 207.722C64.0057 208.097 64.4679 208.623 64.7974 209.301C65.1307 209.979 65.2974 210.773 65.2974 211.682C65.2974 212.583 65.1307 213.371 64.7974 214.045C64.4679 214.72 64.0057 215.244 63.411 215.619C62.8201 215.994 62.1307 216.182 61.3429 216.182ZM61.3429 214.977C61.9413 214.977 62.4338 214.824 62.8201 214.517C63.2065 214.21 63.4925 213.807 63.6781 213.307C63.8637 212.807 63.9565 212.265 63.9565 211.682C63.9565 211.098 63.8637 210.555 63.6781 210.051C63.4925 209.547 63.2065 209.14 62.8201 208.83C62.4338 208.519 61.9413 208.364 61.3429 208.364C60.7444 208.364 60.2519 208.519 59.8656 208.83C59.4792 209.14 59.1932 209.547 59.0076 210.051C58.822 210.555 58.7292 211.098 58.7292 211.682C58.7292 212.265 58.822 212.807 59.0076 213.307C59.1932 213.807 59.4792 214.21 59.8656 214.517C60.2519 214.824 60.7444 214.977 61.3429 214.977ZM67.3443 216V207.273H68.6397V208.591H68.7306C68.8897 208.159 69.1776 207.809 69.5943 207.54C70.0109 207.271 70.4806 207.136 71.0034 207.136C71.1019 207.136 71.225 207.138 71.3727 207.142C71.5204 207.146 71.6322 207.152 71.7079 207.159V208.523C71.6625 208.511 71.5583 208.494 71.3954 208.472C71.2363 208.445 71.0678 208.432 70.8897 208.432C70.4655 208.432 70.0867 208.521 69.7534 208.699C69.4238 208.873 69.1625 209.116 68.9693 209.426C68.7799 209.733 68.6852 210.083 68.6852 210.477V216H67.3443ZM74.6383 204.364V216H73.2974V204.364H74.6383ZM80.3897 216.182C79.6625 216.182 79.0204 215.998 78.4636 215.631C77.9068 215.259 77.4712 214.737 77.1568 214.062C76.8424 213.384 76.6852 212.583 76.6852 211.659C76.6852 210.742 76.8424 209.947 77.1568 209.273C77.4712 208.598 77.9087 208.078 78.4693 207.71C79.0299 207.343 79.6776 207.159 80.4125 207.159C80.9806 207.159 81.4295 207.254 81.759 207.443C82.0924 207.629 82.3462 207.841 82.5204 208.08C82.6984 208.314 82.8367 208.508 82.9352 208.659H83.0488V204.364H84.3897V216H83.0943V214.659H82.9352C82.8367 214.818 82.6966 215.019 82.5147 215.261C82.3329 215.5 82.0734 215.714 81.7363 215.903C81.3992 216.089 80.9503 216.182 80.3897 216.182ZM80.5715 214.977C81.1094 214.977 81.564 214.837 81.9352 214.557C82.3064 214.273 82.5886 213.881 82.7818 213.381C82.975 212.877 83.0715 212.295 83.0715 211.636C83.0715 210.985 82.9769 210.415 82.7875 209.926C82.5981 209.434 82.3178 209.051 81.9465 208.778C81.5753 208.502 81.117 208.364 80.5715 208.364C80.0034 208.364 79.5299 208.509 79.1511 208.801C78.7761 209.089 78.4939 209.481 78.3045 209.977C78.1189 210.47 78.0261 211.023 78.0261 211.636C78.0261 212.258 78.1208 212.822 78.3102 213.33C78.5034 213.833 78.7875 214.235 79.1625 214.534C79.5412 214.83 80.0109 214.977 80.5715 214.977Z" fill="#167BB7"/>
<rect x="48.2872" y="136" width="32.1916" height="6.13174" rx="3.06587" fill="#167BB7"/>
<rect x="749" y="120" width="137" height="150" rx="16" fill="#29A9C9"/>
<path d="M791.78 202V191.091H793.4V192.795H793.542C793.769 192.213 794.136 191.761 794.642 191.439C795.149 191.112 795.757 190.949 796.468 190.949C797.187 190.949 797.786 191.112 798.265 191.439C798.748 191.761 799.124 192.213 799.394 192.795H799.507C799.787 192.232 800.206 191.785 800.765 191.453C801.323 191.117 801.993 190.949 802.775 190.949C803.75 190.949 804.548 191.254 805.168 191.865C805.788 192.471 806.098 193.416 806.098 194.699V202H804.422V194.699C804.422 193.894 804.202 193.319 803.762 192.973C803.321 192.627 802.803 192.455 802.206 192.455C801.439 192.455 800.845 192.687 800.424 193.151C800.002 193.61 799.792 194.192 799.792 194.898V202H798.087V194.528C798.087 193.908 797.886 193.409 797.483 193.03C797.081 192.646 796.562 192.455 795.928 192.455C795.492 192.455 795.085 192.571 794.706 192.803C794.332 193.035 794.029 193.357 793.797 193.768C793.57 194.176 793.456 194.647 793.456 195.182V202H791.78ZM809.852 206.091C809.568 206.091 809.315 206.067 809.092 206.02C808.869 205.977 808.716 205.935 808.63 205.892L809.056 204.415C809.464 204.519 809.824 204.557 810.136 204.528C810.449 204.5 810.725 204.36 810.967 204.109C811.213 203.863 811.438 203.463 811.642 202.909L811.954 202.057L807.92 191.091H809.738L812.75 199.784H812.863L815.875 191.091H817.693L813.062 203.591C812.854 204.154 812.596 204.621 812.288 204.99C811.98 205.364 811.623 205.641 811.216 205.821C810.813 206.001 810.359 206.091 809.852 206.091ZM827.632 193.534L826.127 193.96C826.032 193.709 825.892 193.465 825.708 193.229C825.528 192.987 825.282 192.788 824.969 192.632C824.657 192.476 824.257 192.398 823.769 192.398C823.101 192.398 822.545 192.552 822.1 192.859C821.659 193.162 821.439 193.548 821.439 194.017C821.439 194.434 821.591 194.763 821.894 195.004C822.197 195.246 822.67 195.447 823.314 195.608L824.934 196.006C825.909 196.242 826.636 196.605 827.114 197.092C827.592 197.575 827.831 198.198 827.831 198.96C827.831 199.585 827.651 200.144 827.292 200.636C826.936 201.129 826.439 201.517 825.8 201.801C825.161 202.085 824.417 202.227 823.57 202.227C822.457 202.227 821.536 201.986 820.807 201.503C820.078 201.02 819.616 200.314 819.422 199.386L821.013 198.989C821.165 199.576 821.451 200.016 821.873 200.31C822.299 200.603 822.855 200.75 823.542 200.75C824.323 200.75 824.943 200.584 825.402 200.253C825.866 199.917 826.098 199.514 826.098 199.045C826.098 198.667 825.966 198.349 825.701 198.094C825.435 197.833 825.028 197.639 824.479 197.511L822.661 197.085C821.662 196.848 820.928 196.482 820.459 195.984C819.995 195.482 819.763 194.855 819.763 194.102C819.763 193.487 819.936 192.942 820.282 192.469C820.632 191.995 821.108 191.624 821.709 191.354C822.315 191.084 823.002 190.949 823.769 190.949C824.848 190.949 825.696 191.186 826.311 191.659C826.932 192.133 827.372 192.758 827.632 193.534ZM837.798 206.091V200.324H837.656C837.532 200.523 837.357 200.774 837.13 201.077C836.903 201.375 836.578 201.643 836.157 201.879C835.736 202.111 835.174 202.227 834.474 202.227C833.565 202.227 832.762 201.998 832.066 201.538C831.37 201.074 830.826 200.421 830.433 199.578C830.04 198.731 829.843 197.729 829.843 196.574C829.843 195.428 830.04 194.434 830.433 193.591C830.826 192.748 831.372 192.097 832.073 191.638C832.774 191.179 833.584 190.949 834.502 190.949C835.212 190.949 835.773 191.067 836.185 191.304C836.602 191.536 836.919 191.801 837.137 192.099C837.36 192.393 837.532 192.634 837.656 192.824H837.854V191.091H839.474V206.091H837.798ZM834.701 200.722C835.373 200.722 835.942 200.546 836.406 200.196C836.87 199.841 837.222 199.351 837.464 198.726C837.705 198.096 837.826 197.369 837.826 196.545C837.826 195.731 837.708 195.018 837.471 194.408C837.234 193.792 836.884 193.314 836.42 192.973C835.956 192.627 835.383 192.455 834.701 192.455C833.991 192.455 833.399 192.637 832.925 193.001C832.457 193.361 832.104 193.851 831.867 194.472C831.635 195.087 831.519 195.778 831.519 196.545C831.519 197.322 831.638 198.027 831.874 198.662C832.116 199.292 832.471 199.794 832.94 200.168C833.413 200.537 834 200.722 834.701 200.722ZM844.218 187.455V202H842.542V187.455H844.218Z" fill="white"/>
<rect x="520" y="215" width="116" height="92" rx="16" fill="#167BB7"/>
<path d="M559.92 268V253.455H561.681V260.67H561.851L568.385 253.455H570.687L564.579 260.017L570.687 268H568.556L563.499 261.239L561.681 263.284V268H559.92ZM575.949 268.256C575.258 268.256 574.631 268.125 574.067 267.865C573.504 267.6 573.056 267.219 572.725 266.722C572.394 266.22 572.228 265.614 572.228 264.903C572.228 264.278 572.351 263.772 572.597 263.384C572.843 262.991 573.172 262.683 573.584 262.46C573.996 262.238 574.451 262.072 574.948 261.963C575.45 261.849 575.954 261.759 576.461 261.693C577.124 261.608 577.661 261.544 578.073 261.501C578.49 261.454 578.793 261.376 578.982 261.267C579.176 261.158 579.273 260.969 579.273 260.699V260.642C579.273 259.941 579.081 259.397 578.698 259.009C578.319 258.62 577.744 258.426 576.972 258.426C576.172 258.426 575.545 258.601 575.09 258.952C574.635 259.302 574.316 259.676 574.131 260.074L572.54 259.506C572.824 258.843 573.203 258.327 573.677 257.957C574.155 257.583 574.676 257.323 575.239 257.176C575.807 257.025 576.366 256.949 576.915 256.949C577.266 256.949 577.668 256.991 578.123 257.077C578.582 257.157 579.025 257.325 579.451 257.581C579.882 257.837 580.239 258.223 580.523 258.739C580.807 259.255 580.949 259.946 580.949 260.812V268H579.273V266.523H579.188C579.074 266.759 578.885 267.013 578.62 267.283C578.355 267.553 578.002 267.782 577.562 267.972C577.121 268.161 576.584 268.256 575.949 268.256ZM576.205 266.75C576.868 266.75 577.427 266.62 577.881 266.359C578.34 266.099 578.686 265.763 578.918 265.351C579.155 264.939 579.273 264.506 579.273 264.051V262.517C579.202 262.602 579.046 262.68 578.805 262.751C578.568 262.818 578.293 262.877 577.981 262.929C577.673 262.976 577.372 263.019 577.079 263.057C576.79 263.09 576.555 263.118 576.376 263.142C575.94 263.199 575.533 263.291 575.154 263.419C574.78 263.542 574.477 263.729 574.245 263.98C574.018 264.226 573.904 264.562 573.904 264.989C573.904 265.571 574.119 266.011 574.55 266.31C574.986 266.603 575.537 266.75 576.205 266.75ZM590.884 263.54V257.091H592.56V268H590.884V266.153H590.77C590.514 266.707 590.117 267.179 589.577 267.567C589.037 267.95 588.355 268.142 587.531 268.142C586.85 268.142 586.244 267.993 585.713 267.695C585.183 267.392 584.766 266.937 584.463 266.331C584.16 265.72 584.009 264.951 584.009 264.023V257.091H585.685V263.909C585.685 264.705 585.907 265.339 586.352 265.812C586.802 266.286 587.375 266.523 588.071 266.523C588.488 266.523 588.912 266.416 589.343 266.203C589.778 265.99 590.143 265.663 590.436 265.223C590.735 264.783 590.884 264.222 590.884 263.54ZM595.63 268V257.091H597.306V268H595.63ZM596.482 255.273C596.155 255.273 595.874 255.161 595.637 254.939C595.405 254.716 595.289 254.449 595.289 254.136C595.289 253.824 595.405 253.556 595.637 253.334C595.874 253.111 596.155 253 596.482 253C596.809 253 597.088 253.111 597.32 253.334C597.557 253.556 597.675 253.824 597.675 254.136C597.675 254.449 597.557 254.716 597.32 254.939C597.088 255.161 596.809 255.273 596.482 255.273Z" fill="white"/>
<rect x="520" y="83" width="116" height="92" rx="16" fill="#167BB7"/>
<path d="M549.841 136V121.455H551.603V128.67H551.773L558.307 121.455H560.608L554.501 128.017L560.608 136H558.478L553.421 129.239L551.603 131.284V136H549.841ZM563.345 136V125.091H565.021V136H563.345ZM564.197 123.273C563.87 123.273 563.588 123.161 563.352 122.939C563.12 122.716 563.004 122.449 563.004 122.136C563.004 121.824 563.12 121.556 563.352 121.334C563.588 121.111 563.87 121 564.197 121C564.524 121 564.803 121.111 565.035 121.334C565.272 121.556 565.39 121.824 565.39 122.136C565.39 122.449 565.272 122.716 565.035 122.939C564.803 123.161 564.524 123.273 564.197 123.273ZM569.767 121.455V136H568.091V121.455H569.767ZM574.513 121.455V136H572.837V121.455H574.513ZM583.435 136V121.455H588.52C589.534 121.455 590.369 121.63 591.028 121.98C591.686 122.326 592.176 122.792 592.498 123.379C592.82 123.962 592.981 124.608 592.981 125.318C592.981 125.943 592.869 126.459 592.647 126.866C592.429 127.274 592.14 127.596 591.78 127.832C591.425 128.069 591.039 128.244 590.623 128.358V128.5C591.068 128.528 591.515 128.685 591.965 128.969C592.415 129.253 592.791 129.66 593.094 130.19C593.397 130.721 593.549 131.369 593.549 132.136C593.549 132.866 593.383 133.521 593.052 134.104C592.72 134.686 592.197 135.148 591.482 135.489C590.767 135.83 589.837 136 588.691 136H583.435ZM585.197 134.438H588.691C589.841 134.438 590.658 134.215 591.141 133.77C591.629 133.32 591.873 132.776 591.873 132.136C591.873 131.644 591.747 131.189 591.496 130.773C591.245 130.351 590.888 130.015 590.424 129.764C589.96 129.509 589.411 129.381 588.776 129.381H585.197V134.438ZM585.197 127.847H588.464C588.994 127.847 589.472 127.742 589.898 127.534C590.329 127.326 590.67 127.032 590.921 126.653C591.177 126.275 591.305 125.83 591.305 125.318C591.305 124.679 591.082 124.137 590.637 123.692C590.192 123.242 589.486 123.017 588.52 123.017H585.197V127.847ZM596.216 136V125.091H597.892V136H596.216ZM597.068 123.273C596.741 123.273 596.46 123.161 596.223 122.939C595.991 122.716 595.875 122.449 595.875 122.136C595.875 121.824 595.991 121.556 596.223 121.334C596.46 121.111 596.741 121 597.068 121C597.395 121 597.674 121.111 597.906 121.334C598.143 121.556 598.261 121.824 598.261 122.136C598.261 122.449 598.143 122.716 597.906 122.939C597.674 123.161 597.395 123.273 597.068 123.273ZM602.638 121.455V136H600.962V121.455H602.638ZM607.384 121.455V136H605.708V121.455H607.384Z" fill="white"/>
<rect x="473.5" y="53.5" width="213" height="283" rx="23.5" stroke="#9CA3AF" stroke-dasharray="4 4"/>
<rect x="462" y="90" width="52" height="37" rx="8" fill="#E5E7EB"/>
<path d="M474.537 114.139C473.824 114.139 473.195 114.017 472.648 113.771C472.104 113.526 471.678 113.188 471.37 112.757C471.062 112.326 470.909 111.836 470.913 111.286C470.909 110.855 470.997 110.459 471.176 110.097C471.358 109.733 471.605 109.429 471.917 109.188C472.228 108.942 472.576 108.786 472.961 108.72V108.661C472.454 108.538 472.048 108.266 471.743 107.845C471.438 107.424 471.287 106.94 471.29 106.393C471.287 105.873 471.425 105.409 471.703 105.001C471.985 104.59 472.371 104.267 472.862 104.032C473.352 103.797 473.911 103.679 474.537 103.679C475.157 103.679 475.71 103.798 476.197 104.037C476.688 104.272 477.074 104.595 477.356 105.006C477.638 105.414 477.78 105.876 477.783 106.393C477.78 106.94 477.624 107.424 477.316 107.845C477.008 108.266 476.607 108.538 476.113 108.661V108.72C476.494 108.786 476.837 108.942 477.142 109.188C477.45 109.429 477.696 109.733 477.878 110.097C478.063 110.459 478.158 110.855 478.161 111.286C478.158 111.836 478.002 112.326 477.694 112.757C477.386 113.188 476.958 113.526 476.411 113.771C475.868 114.017 475.243 114.139 474.537 114.139ZM474.537 112.881C474.958 112.881 475.322 112.812 475.631 112.673C475.939 112.53 476.178 112.333 476.347 112.081C476.516 111.826 476.602 111.527 476.605 111.186C476.602 110.831 476.509 110.518 476.327 110.246C476.148 109.975 475.904 109.761 475.596 109.605C475.288 109.449 474.935 109.371 474.537 109.371C474.136 109.371 473.78 109.449 473.468 109.605C473.156 109.761 472.911 109.975 472.732 110.246C472.553 110.518 472.465 110.831 472.469 111.186C472.465 111.527 472.547 111.826 472.712 112.081C472.881 112.333 473.122 112.53 473.433 112.673C473.745 112.812 474.113 112.881 474.537 112.881ZM474.537 108.143C474.875 108.143 475.175 108.076 475.437 107.94C475.699 107.804 475.904 107.615 476.053 107.373C476.206 107.131 476.284 106.848 476.287 106.523C476.284 106.205 476.207 105.926 476.058 105.688C475.912 105.449 475.709 105.265 475.447 105.136C475.185 105.003 474.882 104.937 474.537 104.937C474.186 104.937 473.877 105.003 473.612 105.136C473.35 105.265 473.147 105.449 473.001 105.688C472.855 105.926 472.784 106.205 472.787 106.523C472.784 106.848 472.857 107.131 473.006 107.373C473.155 107.615 473.36 107.804 473.622 107.94C473.887 108.076 474.192 108.143 474.537 108.143ZM483.487 114.169C482.702 114.166 482.03 113.959 481.474 113.548C480.917 113.137 480.491 112.538 480.196 111.753C479.901 110.967 479.753 110.021 479.753 108.914C479.753 107.81 479.901 106.867 480.196 106.085C480.494 105.303 480.922 104.706 481.479 104.295C482.039 103.884 482.708 103.679 483.487 103.679C484.266 103.679 484.934 103.886 485.491 104.3C486.047 104.711 486.473 105.308 486.768 106.09C487.067 106.869 487.216 107.81 487.216 108.914C487.216 110.024 487.068 110.972 486.773 111.758C486.478 112.54 486.052 113.138 485.496 113.553C484.939 113.964 484.269 114.169 483.487 114.169ZM483.487 112.842C484.176 112.842 484.715 112.505 485.103 111.832C485.494 111.16 485.689 110.187 485.689 108.914C485.689 108.069 485.6 107.355 485.421 106.771C485.245 106.185 484.992 105.741 484.66 105.439C484.332 105.134 483.941 104.982 483.487 104.982C482.801 104.982 482.262 105.32 481.871 105.996C481.48 106.672 481.283 107.645 481.28 108.914C481.28 109.763 481.367 110.48 481.543 111.067C481.722 111.65 481.976 112.093 482.304 112.394C482.632 112.692 483.026 112.842 483.487 112.842ZM492.42 114.139C491.707 114.139 491.077 114.017 490.531 113.771C489.987 113.526 489.561 113.188 489.253 112.757C488.945 112.326 488.792 111.836 488.795 111.286C488.792 110.855 488.88 110.459 489.059 110.097C489.241 109.733 489.488 109.429 489.8 109.188C490.111 108.942 490.459 108.786 490.844 108.72V108.661C490.337 108.538 489.931 108.266 489.626 107.845C489.321 107.424 489.17 106.94 489.173 106.393C489.17 105.873 489.308 105.409 489.586 105.001C489.868 104.59 490.254 104.267 490.744 104.032C491.235 103.797 491.793 103.679 492.42 103.679C493.04 103.679 493.593 103.798 494.08 104.037C494.571 104.272 494.957 104.595 495.239 105.006C495.52 105.414 495.663 105.876 495.666 106.393C495.663 106.94 495.507 107.424 495.199 107.845C494.891 108.266 494.49 108.538 493.996 108.661V108.72C494.377 108.786 494.72 108.942 495.025 109.188C495.333 109.429 495.578 109.733 495.761 110.097C495.946 110.459 496.041 110.855 496.044 111.286C496.041 111.836 495.885 112.326 495.577 112.757C495.268 113.188 494.841 113.526 494.294 113.771C493.75 114.017 493.126 114.139 492.42 114.139ZM492.42 112.881C492.841 112.881 493.205 112.812 493.513 112.673C493.822 112.53 494.06 112.333 494.229 112.081C494.398 111.826 494.485 111.527 494.488 111.186C494.485 110.831 494.392 110.518 494.21 110.246C494.031 109.975 493.787 109.761 493.479 109.605C493.17 109.449 492.817 109.371 492.42 109.371C492.019 109.371 491.662 109.449 491.351 109.605C491.039 109.761 490.794 109.975 490.615 110.246C490.436 110.518 490.348 110.831 490.352 111.186C490.348 111.527 490.429 111.826 490.595 112.081C490.764 112.333 491.004 112.53 491.316 112.673C491.628 112.812 491.996 112.881 492.42 112.881ZM492.42 108.143C492.758 108.143 493.058 108.076 493.32 107.94C493.581 107.804 493.787 107.615 493.936 107.373C494.089 107.131 494.166 106.848 494.17 106.523C494.166 106.205 494.09 105.926 493.941 105.688C493.795 105.449 493.591 105.265 493.33 105.136C493.068 105.003 492.764 104.937 492.42 104.937C492.068 104.937 491.76 105.003 491.495 105.136C491.233 105.265 491.029 105.449 490.884 105.688C490.738 105.926 490.666 106.205 490.67 106.523C490.666 106.848 490.739 107.131 490.888 107.373C491.038 107.615 491.243 107.804 491.505 107.94C491.77 108.076 492.075 108.143 492.42 108.143ZM501.37 114.169C500.584 114.166 499.913 113.959 499.356 113.548C498.8 113.137 498.374 112.538 498.079 111.753C497.784 110.967 497.636 110.021 497.636 108.914C497.636 107.81 497.784 106.867 498.079 106.085C498.377 105.303 498.805 104.706 499.361 104.295C499.921 103.884 500.591 103.679 501.37 103.679C502.149 103.679 502.817 103.886 503.373 104.3C503.93 104.711 504.356 105.308 504.651 106.09C504.949 106.869 505.099 107.81 505.099 108.914C505.099 110.024 504.951 110.972 504.656 111.758C504.361 112.54 503.935 113.138 503.378 113.553C502.822 113.964 502.152 114.169 501.37 114.169ZM501.37 112.842C502.059 112.842 502.598 112.505 502.986 111.832C503.377 111.16 503.572 110.187 503.572 108.914C503.572 108.069 503.483 107.355 503.304 106.771C503.128 106.185 502.875 105.741 502.543 105.439C502.215 105.134 501.824 104.982 501.37 104.982C500.684 104.982 500.145 105.32 499.754 105.996C499.363 106.672 499.166 107.645 499.162 108.914C499.162 109.763 499.25 110.48 499.426 111.067C499.605 111.65 499.858 112.093 500.187 112.394C500.515 112.692 500.909 112.842 501.37 112.842Z" fill="black"/>
<rect x="694" y="172" width="52" height="37" rx="8" fill="#E5E7EB"/>
<path d="M706.532 196.139C705.849 196.139 705.239 196.022 704.702 195.786C704.169 195.551 703.746 195.224 703.435 194.807C703.126 194.386 702.961 193.899 702.938 193.345H704.499C704.518 193.647 704.62 193.909 704.802 194.131C704.987 194.349 705.229 194.518 705.528 194.638C705.826 194.757 706.157 194.817 706.522 194.817C706.923 194.817 707.278 194.747 707.586 194.608C707.897 194.469 708.141 194.275 708.317 194.026C708.492 193.774 708.58 193.484 708.58 193.156C708.58 192.815 708.492 192.515 708.317 192.256C708.144 191.995 707.891 191.789 707.556 191.64C707.225 191.491 706.824 191.416 706.353 191.416H705.493V190.163H706.353C706.731 190.163 707.062 190.095 707.347 189.96C707.636 189.824 707.861 189.635 708.023 189.393C708.186 189.147 708.267 188.861 708.267 188.533C708.267 188.218 708.196 187.944 708.053 187.712C707.914 187.477 707.715 187.293 707.457 187.161C707.201 187.028 706.9 186.962 706.552 186.962C706.22 186.962 705.911 187.023 705.622 187.146C705.337 187.265 705.105 187.437 704.926 187.663C704.747 187.885 704.651 188.152 704.638 188.463H703.151C703.168 187.913 703.33 187.429 703.638 187.011C703.95 186.594 704.361 186.267 704.871 186.032C705.382 185.797 705.949 185.679 706.572 185.679C707.225 185.679 707.788 185.807 708.262 186.062C708.739 186.314 709.107 186.65 709.366 187.071C709.628 187.492 709.757 187.953 709.754 188.453C709.757 189.023 709.598 189.507 709.276 189.905C708.958 190.303 708.534 190.569 708.004 190.705V190.785C708.68 190.888 709.203 191.156 709.575 191.59C709.949 192.024 710.135 192.563 710.131 193.206C710.135 193.766 709.979 194.268 709.664 194.712C709.353 195.156 708.927 195.506 708.386 195.761C707.846 196.013 707.228 196.139 706.532 196.139ZM715.555 196.139C714.873 196.139 714.263 196.022 713.726 195.786C713.192 195.551 712.77 195.224 712.458 194.807C712.15 194.386 711.984 193.899 711.961 193.345H713.522C713.542 193.647 713.643 193.909 713.825 194.131C714.011 194.349 714.253 194.518 714.551 194.638C714.849 194.757 715.181 194.817 715.545 194.817C715.946 194.817 716.301 194.747 716.609 194.608C716.921 194.469 717.165 194.275 717.34 194.026C717.516 193.774 717.604 193.484 717.604 193.156C717.604 192.815 717.516 192.515 717.34 192.256C717.168 191.995 716.914 191.789 716.58 191.64C716.248 191.491 715.847 191.416 715.376 191.416H714.516V190.163H715.376C715.754 190.163 716.086 190.095 716.371 189.96C716.659 189.824 716.884 189.635 717.047 189.393C717.209 189.147 717.29 188.861 717.29 188.533C717.29 188.218 717.219 187.944 717.077 187.712C716.938 187.477 716.739 187.293 716.48 187.161C716.225 187.028 715.923 186.962 715.575 186.962C715.244 186.962 714.934 187.023 714.646 187.146C714.361 187.265 714.129 187.437 713.95 187.663C713.771 187.885 713.674 188.152 713.661 188.463H712.175C712.191 187.913 712.354 187.429 712.662 187.011C712.973 186.594 713.384 186.267 713.895 186.032C714.405 185.797 714.972 185.679 715.595 185.679C716.248 185.679 716.812 185.807 717.286 186.062C717.763 186.314 718.131 186.65 718.389 187.071C718.651 187.492 718.78 187.953 718.777 188.453C718.78 189.023 718.621 189.507 718.3 189.905C717.982 190.303 717.557 190.569 717.027 190.705V190.785C717.703 190.888 718.227 191.156 718.598 191.59C718.973 192.024 719.158 192.563 719.155 193.206C719.158 193.766 719.002 194.268 718.688 194.712C718.376 195.156 717.95 195.506 717.41 195.761C716.87 196.013 716.251 196.139 715.555 196.139ZM724.579 196.169C723.793 196.166 723.122 195.959 722.565 195.548C722.009 195.137 721.583 194.538 721.288 193.753C720.993 192.967 720.845 192.021 720.845 190.914C720.845 189.81 720.993 188.867 721.288 188.085C721.586 187.303 722.013 186.706 722.57 186.295C723.13 185.884 723.8 185.679 724.579 185.679C725.358 185.679 726.026 185.886 726.582 186.3C727.139 186.711 727.565 187.308 727.86 188.09C728.158 188.869 728.308 189.81 728.308 190.914C728.308 192.024 728.16 192.972 727.865 193.758C727.57 194.54 727.144 195.138 726.587 195.553C726.031 195.964 725.361 196.169 724.579 196.169ZM724.579 194.842C725.268 194.842 725.807 194.505 726.195 193.832C726.586 193.16 726.781 192.187 726.781 190.914C726.781 190.069 726.692 189.355 726.513 188.771C726.337 188.185 726.084 187.741 725.752 187.439C725.424 187.134 725.033 186.982 724.579 186.982C723.893 186.982 723.354 187.32 722.963 187.996C722.572 188.672 722.375 189.645 722.371 190.914C722.371 191.763 722.459 192.48 722.635 193.067C722.814 193.65 723.067 194.093 723.396 194.394C723.724 194.692 724.118 194.842 724.579 194.842ZM733.626 196.139C733.172 196.133 732.724 196.05 732.284 195.891C731.846 195.732 731.448 195.466 731.09 195.095C730.732 194.724 730.446 194.225 730.23 193.599C730.018 192.972 729.912 192.19 729.912 191.252C729.912 190.364 730 189.575 730.176 188.886C730.355 188.196 730.611 187.615 730.946 187.141C731.281 186.663 731.685 186.3 732.159 186.052C732.633 185.803 733.165 185.679 733.755 185.679C734.362 185.679 734.9 185.798 735.371 186.037C735.842 186.276 736.223 186.605 736.514 187.026C736.809 187.447 736.997 187.926 737.076 188.463H735.56C735.457 188.039 735.253 187.692 734.948 187.424C734.643 187.156 734.246 187.021 733.755 187.021C733.009 187.021 732.428 187.346 732.01 187.996C731.596 188.645 731.387 189.549 731.384 190.705H731.458C731.634 190.417 731.849 190.172 732.105 189.969C732.363 189.764 732.651 189.607 732.97 189.497C733.291 189.384 733.629 189.328 733.984 189.328C734.574 189.328 735.107 189.472 735.585 189.761C736.065 190.046 736.448 190.44 736.733 190.944C737.018 191.448 737.161 192.024 737.161 192.674C737.161 193.324 737.013 193.912 736.718 194.439C736.427 194.966 736.016 195.384 735.485 195.692C734.955 195.997 734.335 196.146 733.626 196.139ZM733.621 194.847C734.012 194.847 734.362 194.75 734.67 194.558C734.978 194.366 735.222 194.107 735.401 193.783C735.58 193.458 735.669 193.095 735.669 192.694C735.669 192.303 735.581 191.946 735.406 191.625C735.233 191.304 734.995 191.048 734.69 190.859C734.388 190.67 734.044 190.576 733.656 190.576C733.361 190.576 733.087 190.632 732.835 190.745C732.587 190.858 732.368 191.013 732.179 191.212C731.99 191.411 731.841 191.64 731.732 191.898C731.626 192.154 731.573 192.424 731.573 192.709C731.573 193.09 731.66 193.443 731.836 193.768C732.015 194.093 732.259 194.354 732.567 194.553C732.878 194.749 733.23 194.847 733.621 194.847Z" fill="black"/>
<rect x="463" y="279" width="53" height="37" rx="8" fill="#E5E7EB"/>
<path d="M475.957 303.139C475.274 303.139 474.664 303.022 474.127 302.786C473.594 302.551 473.171 302.224 472.859 301.807C472.551 301.386 472.386 300.899 472.362 300.345H473.923C473.943 300.647 474.044 300.909 474.227 301.131C474.412 301.349 474.654 301.518 474.953 301.638C475.251 301.757 475.582 301.817 475.947 301.817C476.348 301.817 476.703 301.747 477.011 301.608C477.322 301.469 477.566 301.275 477.742 301.026C477.917 300.774 478.005 300.484 478.005 300.156C478.005 299.815 477.917 299.515 477.742 299.256C477.569 298.995 477.316 298.789 476.981 298.64C476.649 298.491 476.248 298.416 475.778 298.416H474.918V297.163H475.778C476.156 297.163 476.487 297.095 476.772 296.96C477.06 296.824 477.286 296.635 477.448 296.393C477.611 296.147 477.692 295.861 477.692 295.533C477.692 295.218 477.621 294.944 477.478 294.712C477.339 294.477 477.14 294.293 476.881 294.161C476.626 294.028 476.325 293.962 475.977 293.962C475.645 293.962 475.335 294.023 475.047 294.146C474.762 294.265 474.53 294.437 474.351 294.663C474.172 294.885 474.076 295.152 474.063 295.463H472.576C472.593 294.913 472.755 294.429 473.063 294.011C473.375 293.594 473.786 293.267 474.296 293.032C474.807 292.797 475.373 292.679 475.997 292.679C476.649 292.679 477.213 292.807 477.687 293.062C478.164 293.314 478.532 293.65 478.791 294.071C479.052 294.492 479.182 294.953 479.178 295.453C479.182 296.023 479.023 296.507 478.701 296.905C478.383 297.303 477.959 297.569 477.428 297.705V297.785C478.104 297.888 478.628 298.156 478.999 298.59C479.374 299.024 479.56 299.563 479.556 300.206C479.56 300.766 479.404 301.268 479.089 301.712C478.777 302.156 478.351 302.506 477.811 302.761C477.271 303.013 476.653 303.139 475.957 303.139ZM484.98 303.169C484.195 303.166 483.524 302.959 482.967 302.548C482.41 302.137 481.984 301.538 481.689 300.753C481.394 299.967 481.247 299.021 481.247 297.914C481.247 296.81 481.394 295.867 481.689 295.085C481.987 294.303 482.415 293.706 482.972 293.295C483.532 292.884 484.201 292.679 484.98 292.679C485.759 292.679 486.427 292.886 486.984 293.3C487.541 293.711 487.966 294.308 488.261 295.09C488.56 295.869 488.709 296.81 488.709 297.914C488.709 299.024 488.561 299.972 488.266 300.758C487.971 301.54 487.546 302.138 486.989 302.553C486.432 302.964 485.762 303.169 484.98 303.169ZM484.98 301.842C485.67 301.842 486.208 301.505 486.596 300.832C486.987 300.16 487.183 299.187 487.183 297.914C487.183 297.069 487.093 296.355 486.914 295.771C486.738 295.185 486.485 294.741 486.153 294.439C485.825 294.134 485.434 293.982 484.98 293.982C484.294 293.982 483.756 294.32 483.364 294.996C482.973 295.672 482.776 296.645 482.773 297.914C482.773 298.763 482.861 299.48 483.036 300.067C483.215 300.65 483.469 301.093 483.797 301.394C484.125 301.692 484.52 301.842 484.98 301.842ZM494.017 303.169C493.232 303.166 492.561 302.959 492.004 302.548C491.447 302.137 491.021 301.538 490.726 300.753C490.431 299.967 490.284 299.021 490.284 297.914C490.284 296.81 490.431 295.867 490.726 295.085C491.024 294.303 491.452 293.706 492.009 293.295C492.569 292.884 493.238 292.679 494.017 292.679C494.796 292.679 495.464 292.886 496.021 293.3C496.578 293.711 497.004 294.308 497.299 295.09C497.597 295.869 497.746 296.81 497.746 297.914C497.746 299.024 497.599 299.972 497.304 300.758C497.009 301.54 496.583 302.138 496.026 302.553C495.469 302.964 494.8 303.169 494.017 303.169ZM494.017 301.842C494.707 301.842 495.245 301.505 495.633 300.832C496.024 300.16 496.22 299.187 496.22 297.914C496.22 297.069 496.13 296.355 495.951 295.771C495.776 295.185 495.522 294.741 495.191 294.439C494.862 294.134 494.471 293.982 494.017 293.982C493.331 293.982 492.793 294.32 492.402 294.996C492.01 295.672 491.813 296.645 491.81 297.914C491.81 298.763 491.898 299.48 492.073 300.067C492.252 300.65 492.506 301.093 492.834 301.394C493.162 301.692 493.557 301.842 494.017 301.842ZM503.054 303.169C502.269 303.166 501.598 302.959 501.041 302.548C500.484 302.137 500.058 301.538 499.763 300.753C499.468 299.967 499.321 299.021 499.321 297.914C499.321 296.81 499.468 295.867 499.763 295.085C500.062 294.303 500.489 293.706 501.046 293.295C501.606 292.884 502.276 292.679 503.054 292.679C503.833 292.679 504.501 292.886 505.058 293.3C505.615 293.711 506.041 294.308 506.336 295.09C506.634 295.869 506.783 296.81 506.783 297.914C506.783 299.024 506.636 299.972 506.341 300.758C506.046 301.54 505.62 302.138 505.063 302.553C504.506 302.964 503.837 303.169 503.054 303.169ZM503.054 301.842C503.744 301.842 504.282 301.505 504.67 300.832C505.061 300.16 505.257 299.187 505.257 297.914C505.257 297.069 505.167 296.355 504.988 295.771C504.813 295.185 504.559 294.741 504.228 294.439C503.9 294.134 503.508 293.982 503.054 293.982C502.368 293.982 501.83 294.32 501.439 294.996C501.048 295.672 500.85 296.645 500.847 297.914C500.847 298.763 500.935 299.48 501.111 300.067C501.29 300.65 501.543 301.093 501.871 301.394C502.199 301.692 502.594 301.842 503.054 301.842Z" fill="black"/>
<rect x="557" y="40" width="43" height="26" rx="8" fill="white"/>
<path d="M562.415 50.4545V51.3068H559.023V50.4545H562.415ZM560.012 48.8864H561.018V55.125C561.018 55.4091 561.059 55.6222 561.141 55.7642C561.227 55.9034 561.335 55.9972 561.465 56.0455C561.599 56.0909 561.739 56.1136 561.887 56.1136C561.998 56.1136 562.089 56.108 562.16 56.0966C562.231 56.0824 562.288 56.071 562.33 56.0625L562.535 56.9659C562.467 56.9915 562.371 57.017 562.249 57.0426C562.127 57.071 561.972 57.0852 561.785 57.0852C561.501 57.0852 561.222 57.0241 560.95 56.902C560.68 56.7798 560.455 56.5938 560.276 56.3438C560.1 56.0938 560.012 55.7784 560.012 55.3977V48.8864ZM566.517 57.1364C565.926 57.1364 565.408 56.9957 564.962 56.7145C564.518 56.4332 564.172 56.0398 563.922 55.5341C563.675 55.0284 563.551 54.4375 563.551 53.7614C563.551 53.0795 563.675 52.4844 563.922 51.9759C564.172 51.4673 564.518 51.0724 564.962 50.7912C565.408 50.5099 565.926 50.3693 566.517 50.3693C567.108 50.3693 567.625 50.5099 568.068 50.7912C568.514 51.0724 568.861 51.4673 569.108 51.9759C569.358 52.4844 569.483 53.0795 569.483 53.7614C569.483 54.4375 569.358 55.0284 569.108 55.5341C568.861 56.0398 568.514 56.4332 568.068 56.7145C567.625 56.9957 567.108 57.1364 566.517 57.1364ZM566.517 56.233C566.966 56.233 567.335 56.1179 567.625 55.8878C567.915 55.6577 568.129 55.3551 568.268 54.9801C568.408 54.6051 568.477 54.1989 568.477 53.7614C568.477 53.3239 568.408 52.9162 568.268 52.5384C568.129 52.1605 567.915 51.8551 567.625 51.6222C567.335 51.3892 566.966 51.2727 566.517 51.2727C566.068 51.2727 565.699 51.3892 565.409 51.6222C565.119 51.8551 564.905 52.1605 564.766 52.5384C564.626 52.9162 564.557 53.3239 564.557 53.7614C564.557 54.1989 564.626 54.6051 564.766 54.9801C564.905 55.3551 565.119 55.6577 565.409 55.8878C565.699 56.1179 566.068 56.233 566.517 56.233ZM571.018 57V50.4545H571.99V51.4773H572.075C572.211 51.1278 572.431 50.8565 572.735 50.6634C573.039 50.4673 573.404 50.3693 573.831 50.3693C574.262 50.3693 574.622 50.4673 574.909 50.6634C575.199 50.8565 575.424 51.1278 575.586 51.4773H575.654C575.822 51.1392 576.074 50.8707 576.409 50.6719C576.744 50.4702 577.146 50.3693 577.615 50.3693C578.2 50.3693 578.679 50.5526 579.051 50.919C579.423 51.2827 579.609 51.8494 579.609 52.6193V57H578.603V52.6193C578.603 52.1364 578.471 51.7912 578.207 51.5838C577.943 51.3764 577.632 51.2727 577.274 51.2727C576.814 51.2727 576.457 51.4119 576.204 51.6903C575.951 51.9659 575.825 52.3153 575.825 52.7386V57H574.802V52.517C574.802 52.1449 574.681 51.8452 574.44 51.6179C574.199 51.3878 573.887 51.2727 573.507 51.2727C573.245 51.2727 573.001 51.3423 572.774 51.4815C572.549 51.6207 572.368 51.8139 572.228 52.0611C572.092 52.3054 572.024 52.5881 572.024 52.9091V57H571.018ZM584.107 57.1364C583.493 57.1364 582.965 56.9915 582.522 56.7017C582.078 56.4119 581.738 56.0128 581.499 55.5043C581.26 54.9957 581.141 54.4148 581.141 53.7614C581.141 53.0966 581.263 52.5099 581.507 52.0014C581.755 51.4901 582.098 51.0909 582.539 50.804C582.982 50.5142 583.499 50.3693 584.09 50.3693C584.55 50.3693 584.965 50.4545 585.334 50.625C585.703 50.7955 586.006 51.0341 586.242 51.3409C586.478 51.6477 586.624 52.0057 586.681 52.4148H585.675C585.598 52.1165 585.428 51.8523 585.164 51.6222C584.902 51.3892 584.55 51.2727 584.107 51.2727C583.715 51.2727 583.371 51.375 583.076 51.5795C582.783 51.7812 582.554 52.0668 582.39 52.4361C582.228 52.8026 582.147 53.233 582.147 53.7273C582.147 54.233 582.226 54.6733 582.385 55.0483C582.547 55.4233 582.775 55.7145 583.067 55.9219C583.363 56.1293 583.709 56.233 584.107 56.233C584.368 56.233 584.605 56.1875 584.819 56.0966C585.032 56.0057 585.212 55.875 585.36 55.7045C585.507 55.5341 585.613 55.3295 585.675 55.0909H586.681C586.624 55.4773 586.483 55.8253 586.259 56.1349C586.037 56.4418 585.743 56.6861 585.377 56.8679C585.013 57.0469 584.59 57.1364 584.107 57.1364ZM590.077 57.1534C589.662 57.1534 589.286 57.0753 588.948 56.919C588.61 56.7599 588.341 56.5312 588.142 56.233C587.944 55.9318 587.844 55.5682 587.844 55.142C587.844 54.767 587.918 54.4631 588.066 54.2301C588.213 53.9943 588.411 53.8097 588.658 53.6761C588.905 53.5426 589.178 53.4432 589.476 53.3778C589.777 53.3097 590.08 53.2557 590.384 53.2159C590.782 53.1648 591.104 53.1264 591.351 53.1009C591.601 53.0724 591.783 53.0256 591.897 52.9602C592.013 52.8949 592.071 52.7812 592.071 52.6193V52.5852C592.071 52.1648 591.956 51.8381 591.726 51.6051C591.499 51.3722 591.154 51.2557 590.691 51.2557C590.211 51.2557 589.834 51.3608 589.561 51.571C589.289 51.7812 589.097 52.0057 588.986 52.2443L588.032 51.9034C588.202 51.5057 588.429 51.196 588.713 50.9744C589 50.75 589.313 50.5937 589.651 50.5057C589.992 50.4148 590.327 50.3693 590.657 50.3693C590.867 50.3693 591.108 50.3949 591.381 50.446C591.657 50.4943 591.922 50.5952 592.178 50.7486C592.436 50.902 592.651 51.1335 592.821 51.4432C592.992 51.7528 593.077 52.1676 593.077 52.6875V57H592.071V56.1136H592.02C591.952 56.2557 591.838 56.4077 591.679 56.5696C591.52 56.7315 591.309 56.8693 591.044 56.983C590.78 57.0966 590.458 57.1534 590.077 57.1534ZM590.23 56.25C590.628 56.25 590.963 56.1719 591.236 56.0156C591.512 55.8594 591.719 55.6577 591.858 55.4105C592 55.1634 592.071 54.9034 592.071 54.6307V53.7102C592.029 53.7614 591.935 53.8082 591.79 53.8509C591.648 53.8906 591.483 53.9261 591.296 53.9574C591.111 53.9858 590.931 54.0114 590.755 54.0341C590.581 54.054 590.441 54.071 590.333 54.0852C590.071 54.1193 589.827 54.1747 589.6 54.2514C589.375 54.3253 589.194 54.4375 589.054 54.5881C588.918 54.7358 588.85 54.9375 588.85 55.1932C588.85 55.5426 588.979 55.8068 589.238 55.9858C589.499 56.1619 589.83 56.25 590.23 56.25ZM597.759 50.4545V51.3068H594.367V50.4545H597.759ZM595.356 48.8864H596.362V55.125C596.362 55.4091 596.403 55.6222 596.485 55.7642C596.57 55.9034 596.678 55.9972 596.809 56.0455C596.942 56.0909 597.083 56.1136 597.231 56.1136C597.342 56.1136 597.433 56.108 597.504 56.0966C597.575 56.0824 597.631 56.071 597.674 56.0625L597.879 56.9659C597.81 56.9915 597.715 57.017 597.593 57.0426C597.471 57.071 597.316 57.0852 597.129 57.0852C596.844 57.0852 596.566 57.0241 596.293 56.902C596.023 56.7798 595.799 56.5938 595.62 56.3438C595.444 56.0938 595.356 55.7784 595.356 55.3977V48.8864Z" fill="#4B5563"/>
<path d="M127.935 202L298.065 202" stroke="#6B7280" stroke-linecap="round"/>
<path d="M299 202L292 197L292 207L299 202Z" fill="#6B7280"/>
<path d="M750 230L741.564 228.041L744.086 236.326L750 230ZM635.218 265.718L743.761 232.683L743.324 231.248L634.782 264.282L635.218 265.718Z" fill="#6B7280"/>
<path d="M520 131L511.564 129.041L514.086 137.326L520 131ZM405.218 166.718L513.761 133.683L513.324 132.248L404.782 165.282L405.218 166.718Z" fill="#6B7280"/>
<path d="M750 166L741.564 167.959L744.086 159.674L750 166ZM635.218 130.282L743.761 163.317L743.324 164.752L634.782 131.718L635.218 130.282Z" fill="#6B7280"/>
<path d="M520 274L511.564 275.959L514.086 267.674L520 274ZM405.218 238.282L513.761 271.317L513.324 272.752L404.782 239.718L405.218 238.282Z" fill="#6B7280"/>
<path d="M377.803 133.01L439.99 195.197C442.919 198.126 442.919 202.874 439.99 205.803L377.803 267.99C374.874 270.919 370.126 270.919 367.197 267.99L305.01 205.803C302.081 202.874 302.081 198.126 305.01 195.197L367.197 133.01C370.126 130.081 374.874 130.081 377.803 133.01Z" fill="#E8F2F8" stroke="#167BB7"/>
<path d="M354.789 203.969V209.219H353.448V200.491H354.743V201.855H354.857C355.061 201.412 355.372 201.056 355.789 200.787C356.205 200.514 356.743 200.378 357.402 200.378C357.993 200.378 358.51 200.499 358.954 200.741C359.397 200.98 359.741 201.344 359.988 201.832C360.234 202.317 360.357 202.931 360.357 203.673V209.219H359.016V203.764C359.016 203.079 358.838 202.545 358.482 202.162C358.126 201.776 357.637 201.582 357.016 201.582C356.588 201.582 356.205 201.675 355.868 201.861C355.535 202.046 355.272 202.317 355.079 202.673C354.885 203.029 354.789 203.461 354.789 203.969ZM366.33 212.673C365.682 212.673 365.125 212.59 364.66 212.423C364.194 212.26 363.805 212.045 363.495 211.776C363.188 211.51 362.944 211.226 362.762 210.923L363.83 210.173C363.951 210.332 364.105 210.514 364.29 210.719C364.476 210.927 364.73 211.107 365.052 211.259C365.377 211.414 365.803 211.491 366.33 211.491C367.035 211.491 367.616 211.321 368.074 210.98C368.533 210.639 368.762 210.105 368.762 209.378V207.605H368.648C368.55 207.764 368.41 207.961 368.228 208.196C368.05 208.427 367.792 208.634 367.455 208.815C367.122 208.993 366.671 209.082 366.103 209.082C365.398 209.082 364.766 208.916 364.205 208.582C363.648 208.249 363.207 207.764 362.881 207.128C362.559 206.491 362.398 205.719 362.398 204.81C362.398 203.916 362.555 203.137 362.87 202.474C363.184 201.808 363.622 201.293 364.182 200.929C364.743 200.562 365.391 200.378 366.125 200.378C366.694 200.378 367.144 200.473 367.478 200.662C367.815 200.848 368.072 201.06 368.25 201.298C368.432 201.533 368.572 201.726 368.671 201.878H368.807V200.491H370.103V209.469C370.103 210.219 369.932 210.829 369.591 211.298C369.254 211.772 368.8 212.118 368.228 212.338C367.66 212.562 367.027 212.673 366.33 212.673ZM366.285 207.878C366.822 207.878 367.277 207.755 367.648 207.509C368.019 207.262 368.302 206.908 368.495 206.446C368.688 205.984 368.785 205.431 368.785 204.787C368.785 204.158 368.69 203.603 368.5 203.122C368.311 202.641 368.031 202.264 367.66 201.991C367.288 201.719 366.83 201.582 366.285 201.582C365.716 201.582 365.243 201.726 364.864 202.014C364.489 202.302 364.207 202.688 364.017 203.173C363.832 203.658 363.739 204.196 363.739 204.787C363.739 205.393 363.834 205.929 364.023 206.395C364.216 206.857 364.5 207.221 364.875 207.486C365.254 207.747 365.724 207.878 366.285 207.878ZM372.557 209.219V200.491H373.898V209.219H372.557ZM373.239 199.037C372.978 199.037 372.752 198.948 372.563 198.77C372.377 198.592 372.285 198.378 372.285 198.128C372.285 197.878 372.377 197.664 372.563 197.486C372.752 197.308 372.978 197.219 373.239 197.219C373.5 197.219 373.724 197.308 373.91 197.486C374.099 197.664 374.194 197.878 374.194 198.128C374.194 198.378 374.099 198.592 373.91 198.77C373.724 198.948 373.5 199.037 373.239 199.037ZM377.695 203.969V209.219H376.354V200.491H377.65V201.855H377.763C377.968 201.412 378.278 201.056 378.695 200.787C379.112 200.514 379.65 200.378 380.309 200.378C380.9 200.378 381.417 200.499 381.86 200.741C382.303 200.98 382.648 201.344 382.894 201.832C383.14 202.317 383.263 202.931 383.263 203.673V209.219H381.922V203.764C381.922 203.079 381.744 202.545 381.388 202.162C381.032 201.776 380.543 201.582 379.922 201.582C379.494 201.582 379.112 201.675 378.775 201.861C378.441 202.046 378.178 202.317 377.985 202.673C377.792 203.029 377.695 203.461 377.695 203.969ZM386.713 200.491L388.804 204.06L390.895 200.491H392.441L389.623 204.855L392.441 209.219H390.895L388.804 205.832L386.713 209.219H385.168L387.941 204.855L385.168 200.491H386.713Z" fill="#167BB7"/>
<path d="M187.096 187.614V186.455L192.21 178.364H193.05V180.159H192.482L188.619 186.273V186.364H195.505V187.614H187.096ZM192.573 190V187.261V186.722V178.364H193.914V190H192.573ZM197.362 187.614V186.455L202.475 178.364H203.316V180.159H202.748L198.884 186.273V186.364H205.771V187.614H197.362ZM202.839 190V187.261V186.722V178.364H204.18V190H202.839ZM211.832 190.159C211.082 190.159 210.413 190.03 209.826 189.773C209.243 189.515 208.779 189.157 208.434 188.699C208.093 188.237 207.907 187.701 207.877 187.091H209.309C209.339 187.466 209.468 187.79 209.695 188.062C209.923 188.331 210.22 188.54 210.587 188.688C210.955 188.835 211.362 188.909 211.809 188.909C212.309 188.909 212.752 188.822 213.138 188.648C213.525 188.473 213.828 188.231 214.048 187.92C214.267 187.61 214.377 187.25 214.377 186.841C214.377 186.413 214.271 186.036 214.059 185.71C213.847 185.381 213.536 185.123 213.127 184.938C212.718 184.752 212.218 184.659 211.627 184.659H210.695V183.409H211.627C212.089 183.409 212.495 183.326 212.843 183.159C213.195 182.992 213.47 182.758 213.667 182.455C213.868 182.152 213.968 181.795 213.968 181.386C213.968 180.992 213.881 180.65 213.707 180.358C213.532 180.066 213.286 179.839 212.968 179.676C212.654 179.513 212.282 179.432 211.854 179.432C211.453 179.432 211.074 179.506 210.718 179.653C210.366 179.797 210.078 180.008 209.854 180.284C209.631 180.557 209.51 180.886 209.491 181.273H208.127C208.15 180.663 208.334 180.129 208.678 179.67C209.023 179.208 209.474 178.848 210.031 178.591C210.591 178.333 211.207 178.205 211.877 178.205C212.597 178.205 213.214 178.35 213.729 178.642C214.245 178.93 214.64 179.311 214.917 179.784C215.193 180.258 215.332 180.769 215.332 181.318C215.332 181.973 215.159 182.532 214.815 182.994C214.474 183.456 214.01 183.777 213.423 183.955V184.045C214.157 184.167 214.731 184.479 215.144 184.983C215.557 185.483 215.763 186.102 215.763 186.841C215.763 187.473 215.591 188.042 215.246 188.545C214.906 189.045 214.44 189.439 213.849 189.727C213.258 190.015 212.585 190.159 211.832 190.159ZM218.587 185.091C218.587 183.659 218.773 182.343 219.144 181.142C219.519 179.937 220.053 178.83 220.746 177.818H221.928C221.656 178.193 221.4 178.655 221.161 179.205C220.926 179.75 220.72 180.35 220.542 181.006C220.364 181.657 220.224 182.331 220.121 183.028C220.023 183.725 219.974 184.413 219.974 185.091C219.974 185.992 220.061 186.907 220.235 187.835C220.409 188.763 220.644 189.625 220.94 190.42C221.235 191.216 221.565 191.864 221.928 192.364H220.746C220.053 191.352 219.519 190.246 219.144 189.045C218.773 187.841 218.587 186.523 218.587 185.091ZM225.157 186.818L225.134 185.159H225.407L229.225 181.273H230.884L226.816 185.386H226.702L225.157 186.818ZM223.907 190V178.364H225.248V190H223.907ZM229.452 190L226.043 185.682L226.998 184.75L231.157 190H229.452ZM235.178 190.205C234.625 190.205 234.123 190.1 233.673 189.892C233.222 189.68 232.864 189.375 232.599 188.977C232.334 188.576 232.201 188.091 232.201 187.523C232.201 187.023 232.299 186.617 232.496 186.307C232.693 185.992 232.957 185.746 233.286 185.568C233.616 185.39 233.979 185.258 234.377 185.17C234.779 185.08 235.182 185.008 235.587 184.955C236.118 184.886 236.548 184.835 236.877 184.801C237.21 184.763 237.453 184.701 237.604 184.614C237.76 184.527 237.837 184.375 237.837 184.159V184.114C237.837 183.553 237.684 183.117 237.377 182.807C237.074 182.496 236.614 182.341 235.996 182.341C235.356 182.341 234.854 182.481 234.491 182.761C234.127 183.042 233.871 183.341 233.724 183.659L232.451 183.205C232.678 182.674 232.981 182.261 233.36 181.966C233.743 181.667 234.159 181.458 234.61 181.341C235.065 181.22 235.512 181.159 235.951 181.159C236.231 181.159 236.553 181.193 236.917 181.261C237.284 181.326 237.638 181.46 237.979 181.665C238.324 181.869 238.61 182.178 238.837 182.591C239.065 183.004 239.178 183.557 239.178 184.25V190H237.837V188.818H237.769C237.678 189.008 237.527 189.21 237.315 189.426C237.103 189.642 236.82 189.826 236.468 189.977C236.116 190.129 235.686 190.205 235.178 190.205ZM235.383 189C235.913 189 236.36 188.896 236.724 188.688C237.091 188.479 237.368 188.21 237.553 187.881C237.743 187.551 237.837 187.205 237.837 186.841V185.614C237.781 185.682 237.656 185.744 237.462 185.801C237.273 185.854 237.053 185.902 236.803 185.943C236.557 185.981 236.317 186.015 236.082 186.045C235.851 186.072 235.663 186.095 235.519 186.114C235.171 186.159 234.845 186.233 234.542 186.335C234.243 186.434 234 186.583 233.815 186.784C233.633 186.981 233.542 187.25 233.542 187.591C233.542 188.057 233.714 188.409 234.059 188.648C234.407 188.883 234.849 189 235.383 189ZM247.126 186.432V181.273H248.467V190H247.126V188.523H247.035C246.83 188.966 246.512 189.343 246.08 189.653C245.648 189.96 245.103 190.114 244.444 190.114C243.898 190.114 243.414 189.994 242.989 189.756C242.565 189.513 242.232 189.15 241.989 188.665C241.747 188.176 241.626 187.561 241.626 186.818V181.273H242.967V186.727C242.967 187.364 243.145 187.871 243.501 188.25C243.861 188.629 244.319 188.818 244.876 188.818C245.209 188.818 245.548 188.733 245.893 188.562C246.241 188.392 246.533 188.131 246.768 187.778C247.006 187.426 247.126 186.977 247.126 186.432ZM250.923 190V181.273H252.263V190H250.923ZM251.604 179.818C251.343 179.818 251.118 179.729 250.928 179.551C250.743 179.373 250.65 179.159 250.65 178.909C250.65 178.659 250.743 178.445 250.928 178.267C251.118 178.089 251.343 178 251.604 178C251.866 178 252.089 178.089 252.275 178.267C252.464 178.445 252.559 178.659 252.559 178.909C252.559 179.159 252.464 179.373 252.275 179.551C252.089 179.729 251.866 179.818 251.604 179.818ZM258.13 185.091C258.13 186.523 257.942 187.841 257.567 189.045C257.196 190.246 256.664 191.352 255.971 192.364H254.789C255.062 191.989 255.316 191.527 255.55 190.977C255.789 190.432 255.997 189.833 256.175 189.182C256.353 188.527 256.492 187.85 256.59 187.153C256.692 186.453 256.744 185.765 256.744 185.091C256.744 184.189 256.656 183.275 256.482 182.347C256.308 181.419 256.073 180.557 255.778 179.761C255.482 178.966 255.153 178.318 254.789 177.818H255.971C256.664 178.83 257.196 179.937 257.567 181.142C257.942 182.343 258.13 183.659 258.13 185.091Z" fill="#4B5563"/>
<path d="M182.135 226.159C181.355 226.159 180.665 226.021 180.067 225.744C179.472 225.464 179.008 225.08 178.675 224.591C178.341 224.098 178.177 223.538 178.18 222.909C178.177 222.417 178.273 221.962 178.47 221.545C178.667 221.125 178.936 220.775 179.277 220.494C179.622 220.21 180.006 220.03 180.43 219.955V219.886C179.874 219.742 179.43 219.43 179.101 218.949C178.771 218.464 178.608 217.913 178.612 217.295C178.608 216.705 178.758 216.176 179.061 215.71C179.364 215.244 179.781 214.877 180.311 214.608C180.845 214.339 181.453 214.205 182.135 214.205C182.809 214.205 183.411 214.339 183.942 214.608C184.472 214.877 184.889 215.244 185.192 215.71C185.499 216.176 185.654 216.705 185.658 217.295C185.654 217.913 185.485 218.464 185.152 218.949C184.822 219.43 184.385 219.742 183.839 219.886V219.955C184.26 220.03 184.639 220.21 184.976 220.494C185.313 220.775 185.582 221.125 185.783 221.545C185.983 221.962 186.086 222.417 186.089 222.909C186.086 223.538 185.915 224.098 185.578 224.591C185.245 225.08 184.781 225.464 184.186 225.744C183.595 226.021 182.911 226.159 182.135 226.159ZM182.135 224.909C182.661 224.909 183.116 224.824 183.499 224.653C183.881 224.483 184.177 224.242 184.385 223.932C184.593 223.621 184.699 223.258 184.703 222.841C184.699 222.402 184.586 222.013 184.362 221.676C184.139 221.339 183.834 221.074 183.447 220.881C183.065 220.687 182.627 220.591 182.135 220.591C181.639 220.591 181.196 220.687 180.805 220.881C180.419 221.074 180.114 221.339 179.891 221.676C179.671 222.013 179.563 222.402 179.567 222.841C179.563 223.258 179.663 223.621 179.868 223.932C180.076 224.242 180.374 224.483 180.76 224.653C181.146 224.824 181.605 224.909 182.135 224.909ZM182.135 219.386C182.552 219.386 182.921 219.303 183.243 219.136C183.569 218.97 183.824 218.737 184.01 218.438C184.196 218.138 184.29 217.788 184.294 217.386C184.29 216.992 184.197 216.65 184.016 216.358C183.834 216.062 183.582 215.835 183.26 215.676C182.938 215.513 182.563 215.432 182.135 215.432C181.699 215.432 181.319 215.513 180.993 215.676C180.667 215.835 180.415 216.062 180.237 216.358C180.059 216.65 179.972 216.992 179.976 217.386C179.972 217.788 180.061 218.138 180.243 218.438C180.429 218.737 180.684 218.97 181.01 219.136C181.336 219.303 181.711 219.386 182.135 219.386ZM187.994 223.614V222.455L193.108 214.364H193.949V216.159H193.381L189.517 222.273V222.364H196.403V223.614H187.994ZM193.472 226V223.261V222.722V214.364H194.812V226H193.472ZM198.26 223.614V222.455L203.374 214.364H204.214V216.159H203.646L199.783 222.273V222.364H206.669V223.614H198.26ZM203.737 226V223.261V222.722V214.364H205.078V226H203.737ZM212.73 226.159C211.98 226.159 211.312 226.03 210.724 225.773C210.141 225.515 209.677 225.157 209.332 224.699C208.991 224.237 208.806 223.701 208.776 223.091H210.207C210.238 223.466 210.366 223.79 210.594 224.062C210.821 224.331 211.118 224.54 211.486 224.688C211.853 224.835 212.26 224.909 212.707 224.909C213.207 224.909 213.651 224.822 214.037 224.648C214.423 224.473 214.726 224.231 214.946 223.92C215.166 223.61 215.276 223.25 215.276 222.841C215.276 222.413 215.17 222.036 214.957 221.71C214.745 221.381 214.435 221.123 214.026 220.938C213.616 220.752 213.116 220.659 212.526 220.659H211.594V219.409H212.526C212.988 219.409 213.393 219.326 213.741 219.159C214.094 218.992 214.368 218.758 214.565 218.455C214.766 218.152 214.866 217.795 214.866 217.386C214.866 216.992 214.779 216.65 214.605 216.358C214.431 216.066 214.185 215.839 213.866 215.676C213.552 215.513 213.181 215.432 212.753 215.432C212.351 215.432 211.973 215.506 211.616 215.653C211.264 215.797 210.976 216.008 210.753 216.284C210.529 216.557 210.408 216.886 210.389 217.273H209.026C209.048 216.663 209.232 216.129 209.577 215.67C209.921 215.208 210.372 214.848 210.929 214.591C211.49 214.333 212.105 214.205 212.776 214.205C213.495 214.205 214.113 214.35 214.628 214.642C215.143 214.93 215.539 215.311 215.815 215.784C216.092 216.258 216.23 216.769 216.23 217.318C216.23 217.973 216.058 218.532 215.713 218.994C215.372 219.456 214.908 219.777 214.321 219.955V220.045C215.056 220.167 215.63 220.479 216.043 220.983C216.455 221.483 216.662 222.102 216.662 222.841C216.662 223.473 216.49 224.042 216.145 224.545C215.804 225.045 215.338 225.439 214.747 225.727C214.156 226.015 213.484 226.159 212.73 226.159ZM219.486 221.091C219.486 219.659 219.671 218.343 220.043 217.142C220.418 215.937 220.952 214.83 221.645 213.818H222.827C222.554 214.193 222.298 214.655 222.06 215.205C221.825 215.75 221.618 216.35 221.44 217.006C221.262 217.657 221.122 218.331 221.02 219.028C220.921 219.725 220.872 220.413 220.872 221.091C220.872 221.992 220.959 222.907 221.134 223.835C221.308 224.763 221.543 225.625 221.838 226.42C222.134 227.216 222.463 227.864 222.827 228.364H221.645C220.952 227.352 220.418 226.246 220.043 225.045C219.671 223.841 219.486 222.523 219.486 221.091ZM226.055 222.818L226.033 221.159H226.305L230.124 217.273H231.783L227.714 221.386H227.601L226.055 222.818ZM224.805 226V214.364H226.146V226H224.805ZM230.351 226L226.942 221.682L227.896 220.75L232.055 226H230.351ZM233.509 226V217.273H234.849V226H233.509ZM234.19 215.818C233.929 215.818 233.704 215.729 233.514 215.551C233.329 215.373 233.236 215.159 233.236 214.909C233.236 214.659 233.329 214.445 233.514 214.267C233.704 214.089 233.929 214 234.19 214C234.452 214 234.675 214.089 234.861 214.267C235.05 214.445 235.145 214.659 235.145 214.909C235.145 215.159 235.05 215.373 234.861 215.551C234.675 215.729 234.452 215.818 234.19 215.818ZM238.646 214.364V226H237.305V214.364H238.646ZM242.443 214.364V226H241.102V214.364H242.443ZM245.081 226V214.364H246.422V218.659H246.536C246.634 218.508 246.77 218.314 246.945 218.08C247.123 217.841 247.376 217.629 247.706 217.443C248.039 217.254 248.49 217.159 249.058 217.159C249.793 217.159 250.441 217.343 251.001 217.71C251.562 218.078 252 218.598 252.314 219.273C252.628 219.947 252.786 220.742 252.786 221.659C252.786 222.583 252.628 223.384 252.314 224.062C252 224.737 251.564 225.259 251.007 225.631C250.45 225.998 249.808 226.182 249.081 226.182C248.52 226.182 248.071 226.089 247.734 225.903C247.397 225.714 247.138 225.5 246.956 225.261C246.774 225.019 246.634 224.818 246.536 224.659H246.376V226H245.081ZM246.399 221.636C246.399 222.295 246.496 222.877 246.689 223.381C246.882 223.881 247.164 224.273 247.536 224.557C247.907 224.837 248.361 224.977 248.899 224.977C249.46 224.977 249.928 224.83 250.303 224.534C250.681 224.235 250.965 223.833 251.155 223.33C251.348 222.822 251.445 222.258 251.445 221.636C251.445 221.023 251.35 220.47 251.161 219.977C250.975 219.481 250.693 219.089 250.314 218.801C249.939 218.509 249.467 218.364 248.899 218.364C248.354 218.364 247.895 218.502 247.524 218.778C247.153 219.051 246.873 219.434 246.683 219.926C246.494 220.415 246.399 220.985 246.399 221.636ZM254.837 226V217.273H256.178V226H254.837ZM255.518 215.818C255.257 215.818 255.032 215.729 254.842 215.551C254.657 215.373 254.564 215.159 254.564 214.909C254.564 214.659 254.657 214.445 254.842 214.267C255.032 214.089 255.257 214 255.518 214C255.78 214 256.003 214.089 256.189 214.267C256.378 214.445 256.473 214.659 256.473 214.909C256.473 215.159 256.378 215.373 256.189 215.551C256.003 215.729 255.78 215.818 255.518 215.818ZM259.974 214.364V226H258.634V214.364H259.974ZM263.771 214.364V226H262.43V214.364H263.771ZM269.091 221.091C269.091 222.523 268.903 223.841 268.528 225.045C268.157 226.246 267.625 227.352 266.932 228.364H265.75C266.023 227.989 266.277 227.527 266.511 226.977C266.75 226.432 266.958 225.833 267.136 225.182C267.314 224.527 267.453 223.85 267.551 223.153C267.653 222.453 267.705 221.765 267.705 221.091C267.705 220.189 267.617 219.275 267.443 218.347C267.269 217.419 267.034 216.557 266.739 215.761C266.443 214.966 266.114 214.318 265.75 213.818H266.932C267.625 214.83 268.157 215.937 268.528 217.142C268.903 218.343 269.091 219.659 269.091 221.091Z" fill="#4B5563"/>
</svg>
