<?xml version="1.0" encoding="UTF-8" standalone="no"?>
<!DOCTYPE svg PUBLIC "-//W3C//DTD SVG 1.1//EN"
 "http://www.w3.org/Graphics/SVG/1.1/DTD/svg11.dtd">
<!-- Generated by graphviz version 2.36.0 (20140111.2315)
 -->
<!-- Title: Payment Pages: 1 -->
<svg width="1772pt" height="904pt"
 viewBox="0.00 0.00 1772.00 904.00" xmlns="http://www.w3.org/2000/svg" xmlns:xlink="http://www.w3.org/1999/xlink">
<g id="graph0" class="graph" transform="scale(1 1) rotate(0) translate(4 900)">
<title>Payment</title>
<polygon fill="white" stroke="none" points="-4,4 -4,-900 1768,-900 1768,4 -4,4"/>
<g id="clust1" class="cluster"><title>cluster_0</title>
<polygon fill="none" stroke="black" points="1063,-814 1063,-888 1341,-888 1341,-814 1063,-814"/>
<text text-anchor="middle" x="1202" y="-872.8" font-family="Times,serif" font-size="14.00">BIG_BANG</text>
</g>
<g id="clust2" class="cluster"><title>cluster_1</title>
<polygon fill="none" stroke="black" points="220,-548 220,-794 867,-794 867,-548 220,-548"/>
<text text-anchor="middle" x="543.5" y="-778.8" font-family="Times,serif" font-size="14.00">AUTHORIZE</text>
</g>
<g id="clust3" class="cluster"><title>cluster_2</title>
<polygon fill="none" stroke="black" points="508,-368 508,-528 1110,-528 1110,-368 508,-368"/>
<text text-anchor="middle" x="809" y="-512.8" font-family="Times,serif" font-size="14.00">CAPTURE</text>
</g>
<g id="clust4" class="cluster"><title>cluster_3</title>
<polygon fill="none" stroke="black" points="1118,-368 1118,-528 1756,-528 1756,-368 1118,-368"/>
<text text-anchor="middle" x="1437" y="-512.8" font-family="Times,serif" font-size="14.00">PURCHASE</text>
</g>
<g id="clust5" class="cluster"><title>cluster_4</title>
<polygon fill="none" stroke="black" points="841,-188 841,-348 1413,-348 1413,-188 841,-188"/>
<text text-anchor="middle" x="1127" y="-332.8" font-family="Times,serif" font-size="14.00">REFUND</text>
</g>
<g id="clust6" class="cluster"><title>cluster_5</title>
<polygon fill="none" stroke="black" points="875,-634 875,-794 1427,-794 1427,-634 875,-634"/>
<text text-anchor="middle" x="1151" y="-778.8" font-family="Times,serif" font-size="14.00">CREDIT</text>
</g>
<g id="clust7" class="cluster"><title>cluster_6</title>
<polygon fill="none" stroke="black" points="8,-368 8,-528 500,-528 500,-368 8,-368"/>
<text text-anchor="middle" x="254" y="-512.8" font-family="Times,serif" font-size="14.00">VOID</text>
</g>
<g id="clust8" class="cluster"><title>cluster_7</title>
<polygon fill="none" stroke="black" points="717,-8 717,-168 1443,-168 1443,-8 717,-8"/>
<text text-anchor="middle" x="1080" y="-152.8" font-family="Times,serif" font-size="14.00">CHARGEBACK</text>
</g>
<!-- node_0 -->
<g id="node1" class="node"><title>node_0</title>
<ellipse fill="none" stroke="black" cx="1148" cy="-840" rx="76.3753" ry="18"/>
<text text-anchor="middle" x="1148" y="-835.8" font-family="Times,serif" font-size="14.00">BIG_BANG_INIT</text>
</g>
<!-- node_0&#45;&gt;node_0 -->
<g id="edge1" class="edge"><title>node_0&#45;&gt;node_0</title>
<path fill="none" stroke="green" d="M1219.72,-846.379C1232.82,-845.572 1242,-843.445 1242,-840 1242,-837.524 1237.26,-835.729 1229.73,-834.615"/>
<polygon fill="green" stroke="green" points="1230.02,-831.127 1219.72,-833.621 1229.33,-838.093 1230.02,-831.127"/>
<text text-anchor="start" x="1242" y="-836.8" font-family="Times,serif" font-size="14.00">OP_DUMMY</text>
<text text-anchor="start" x="1322.12" y="-836.8" font-family="Times,serif" baseline-shift="sub" font-size="14.00">|S</text>
</g>
<!-- node_1 -->
<g id="node2" class="node"><title>node_1</title>
<ellipse fill="grey" stroke="grey" cx="647" cy="-746" rx="56.1548" ry="18"/>
<text text-anchor="middle" x="647" y="-741.8" font-family="Times,serif" font-size="14.00">AUTH_INIT</text>
</g>
<!-- node_0&#45;&gt;node_1 -->
<g id="edge27" class="edge"><title>node_0&#45;&gt;node_1</title>
<path fill="none" stroke="black" stroke-dasharray="1,5" d="M1085.15,-829.629C1028.91,-821.045 944.285,-807.634 871,-794 813.072,-783.223 747.096,-769.162 701.832,-759.237"/>
<polygon fill="black" stroke="black" points="702.448,-755.789 691.93,-757.059 700.944,-762.625 702.448,-755.789"/>
</g>
<!-- node_10 -->
<g id="node11" class="node"><title>node_10</title>
<ellipse fill="grey" stroke="grey" cx="1447" cy="-480" rx="78.1032" ry="18"/>
<text text-anchor="middle" x="1447" y="-475.8" font-family="Times,serif" font-size="14.00">PURCHASE_INIT</text>
</g>
<!-- node_0&#45;&gt;node_10 -->
<g id="edge28" class="edge"><title>node_0&#45;&gt;node_10</title>
<path fill="none" stroke="black" stroke-dasharray="1,5" d="M1222.32,-835.735C1295.37,-831.054 1400.23,-819.926 1431,-794 1447.87,-779.782 1447,-769.066 1447,-747 1447,-747 1447,-747 1447,-573 1447,-551.338 1447,-526.808 1447,-508.527"/>
<polygon fill="black" stroke="black" points="1450.5,-508.295 1447,-498.295 1443.5,-508.295 1450.5,-508.295"/>
</g>
<!-- node_18 -->
<g id="node19" class="node"><title>node_18</title>
<ellipse fill="grey" stroke="grey" cx="1148" cy="-746" rx="64.2089" ry="18"/>
<text text-anchor="middle" x="1148" y="-741.8" font-family="Times,serif" font-size="14.00">CREDIT_INIT</text>
</g>
<!-- node_0&#45;&gt;node_18 -->
<g id="edge29" class="edge"><title>node_0&#45;&gt;node_18</title>
<path fill="none" stroke="black" stroke-dasharray="1,5" d="M1148,-821.696C1148,-808.46 1148,-789.947 1148,-774.663"/>
<polygon fill="black" stroke="black" points="1151.5,-774.227 1148,-764.227 1144.5,-774.227 1151.5,-774.227"/>
</g>
<!-- node_2 -->
<g id="node3" class="node"><title>node_2</title>
<ellipse fill="none" stroke="black" cx="457" cy="-660" rx="77.3522" ry="18"/>
<text text-anchor="middle" x="457" y="-655.8" font-family="Times,serif" font-size="14.00">AUTH_PENDING</text>
</g>
<!-- node_1&#45;&gt;node_2 -->
<g id="edge4" class="edge"><title>node_1&#45;&gt;node_2</title>
<path fill="none" stroke="black" d="M591.34,-742.832C539.662,-739.511 468.115,-731.126 450.418,-710 445.302,-703.893 444.761,-695.774 446.15,-687.904"/>
<polygon fill="black" stroke="black" points="449.532,-688.804 448.742,-678.239 442.771,-686.991 449.532,-688.804"/>
<text text-anchor="start" x="451" y="-699.8" font-family="Times,serif" font-size="14.00">OP_AUTHORIZE</text>
<text text-anchor="start" x="555.993" y="-699.8" font-family="Times,serif" baseline-shift="sub" font-size="14.00">|P</text>
</g>
<!-- node_3 -->
<g id="node4" class="node"><title>node_3</title>
<ellipse fill="grey" stroke="grey" cx="723" cy="-574" rx="77.1457" ry="18"/>
<text text-anchor="middle" x="723" y="-569.8" font-family="Times,serif" font-size="14.00">AUTH_SUCCESS</text>
</g>
<!-- node_1&#45;&gt;node_3 -->
<g id="edge2" class="edge"><title>node_1&#45;&gt;node_3</title>
<path fill="none" stroke="green" d="M659.784,-728.426C669.413,-715.318 682.384,-696.246 691,-678 702.628,-653.375 711.371,-623.488 716.755,-602.265"/>
<polygon fill="green" stroke="green" points="720.212,-602.862 719.194,-592.317 713.414,-601.196 720.212,-602.862"/>
<text text-anchor="start" x="708" y="-656.8" font-family="Times,serif" font-size="14.00">OP_AUTHORIZE</text>
<text text-anchor="start" x="812.993" y="-656.8" font-family="Times,serif" baseline-shift="sub" font-size="14.00">|S</text>
</g>
<!-- node_4 -->
<g id="node5" class="node"><title>node_4</title>
<ellipse fill="grey" stroke="grey" cx="298" cy="-574" rx="69.3179" ry="18"/>
<text text-anchor="middle" x="298" y="-569.8" font-family="Times,serif" font-size="14.00">AUTH_FAILED</text>
</g>
<!-- node_1&#45;&gt;node_4 -->
<g id="edge3" class="edge"><title>node_1&#45;&gt;node_4</title>
<path fill="none" stroke="red" d="M590.62,-743.947C492.51,-740.792 296.778,-728.201 254.418,-678 234.902,-654.871 255.304,-621.726 274.252,-599.334"/>
<polygon fill="red" stroke="red" points="277.082,-601.417 281.09,-591.61 271.841,-596.777 277.082,-601.417"/>
<text text-anchor="start" x="255" y="-656.8" font-family="Times,serif" font-size="14.00">OP_AUTHORIZE</text>
<text text-anchor="start" x="359.993" y="-656.8" font-family="Times,serif" baseline-shift="sub" font-size="14.00">|F</text>
</g>
<!-- node_5 -->
<g id="node6" class="node"><title>node_5</title>
<ellipse fill="grey" stroke="grey" cx="507" cy="-574" rx="80.044" ry="18"/>
<text text-anchor="middle" x="507" y="-569.8" font-family="Times,serif" font-size="14.00">AUTH_ERRORED</text>
</g>
<!-- node_1&#45;&gt;node_5 -->
<g id="edge8" class="edge"><title>node_1&#45;&gt;node_5</title>
<path fill="none" stroke="red" d="M623.099,-729.549C591.407,-707.226 542.574,-665.212 570.652,-634 584.753,-618.326 650.899,-639.674 665,-624 669.161,-619.374 668.895,-614.852 665,-610 654.919,-597.441 622.182,-589.112 589.101,-583.742"/>
<polygon fill="red" stroke="red" points="589.264,-580.226 578.849,-582.169 588.202,-587.145 589.264,-580.226"/>
<text text-anchor="start" x="571" y="-656.8" font-family="Times,serif" font-size="14.00">OP_AUTHORIZE</text>
<text text-anchor="start" x="675.993" y="-656.8" font-family="Times,serif" baseline-shift="sub" font-size="14.00">|E</text>
</g>
<!-- node_2&#45;&gt;node_3 -->
<g id="edge5" class="edge"><title>node_2&#45;&gt;node_3</title>
<path fill="none" stroke="green" d="M497.904,-644.699C526.961,-634.667 566.955,-621.116 602.418,-610 623.064,-603.528 645.827,-596.814 665.962,-591.017"/>
<polygon fill="green" stroke="green" points="666.966,-594.37 675.615,-588.25 665.038,-587.641 666.966,-594.37"/>
<text text-anchor="start" x="603" y="-613.8" font-family="Times,serif" font-size="14.00">OP_AUTHORIZE</text>
<text text-anchor="start" x="707.993" y="-613.8" font-family="Times,serif" baseline-shift="sub" font-size="14.00">|S</text>
</g>
<!-- node_2&#45;&gt;node_4 -->
<g id="edge6" class="edge"><title>node_2&#45;&gt;node_4</title>
<path fill="none" stroke="red" d="M411.433,-645.291C396.715,-641.22 380.258,-637.042 365,-634 347.952,-630.602 298.897,-637.054 287.418,-624 281.943,-617.774 282.008,-609.396 284.248,-601.33"/>
<polygon fill="red" stroke="red" points="287.584,-602.404 287.834,-591.812 281.033,-599.936 287.584,-602.404"/>
<text text-anchor="start" x="288" y="-613.8" font-family="Times,serif" font-size="14.00">OP_AUTHORIZE</text>
<text text-anchor="start" x="392.993" y="-613.8" font-family="Times,serif" baseline-shift="sub" font-size="14.00">|F</text>
</g>
<!-- node_2&#45;&gt;node_5 -->
<g id="edge7" class="edge"><title>node_2&#45;&gt;node_5</title>
<path fill="none" stroke="red" d="M426.139,-643.358C412.415,-634.254 401.079,-622.193 409.652,-610 415.98,-601.001 424.852,-594.305 434.689,-589.325"/>
<polygon fill="red" stroke="red" points="436.227,-592.471 443.949,-585.217 433.389,-586.073 436.227,-592.471"/>
<text text-anchor="start" x="410" y="-613.8" font-family="Times,serif" font-size="14.00">OP_AUTHORIZE</text>
<text text-anchor="start" x="514.993" y="-613.8" font-family="Times,serif" baseline-shift="sub" font-size="14.00">|E</text>
</g>
<!-- node_3&#45;&gt;node_1 -->
<g id="edge30" class="edge"><title>node_3&#45;&gt;node_1</title>
<path fill="none" stroke="black" stroke-dasharray="1,5" d="M768.446,-588.697C790.236,-597.808 814.307,-612.205 827,-634 836.842,-650.899 838.158,-661.94 827,-678 801.129,-715.235 751.958,-731.818 711.538,-739.182"/>
<polygon fill="black" stroke="black" points="710.757,-735.764 701.469,-740.862 711.909,-742.668 710.757,-735.764"/>
</g>
<!-- node_6 -->
<g id="node7" class="node"><title>node_6</title>
<ellipse fill="grey" stroke="grey" cx="724" cy="-480" rx="72.2485" ry="18"/>
<text text-anchor="middle" x="724" y="-475.8" font-family="Times,serif" font-size="14.00">CAPTURE_INIT</text>
</g>
<!-- node_3&#45;&gt;node_6 -->
<g id="edge31" class="edge"><title>node_3&#45;&gt;node_6</title>
<path fill="none" stroke="black" stroke-dasharray="1,5" d="M723.188,-555.696C723.332,-542.46 723.533,-523.947 723.699,-508.663"/>
<polygon fill="black" stroke="black" points="727.204,-508.264 723.813,-498.227 720.204,-508.188 727.204,-508.264"/>
</g>
<!-- node_22 -->
<g id="node23" class="node"><title>node_22</title>
<ellipse fill="grey" stroke="grey" cx="344" cy="-480" rx="53.968" ry="18"/>
<text text-anchor="middle" x="344" y="-475.8" font-family="Times,serif" font-size="14.00">VOID_INIT</text>
</g>
<!-- node_3&#45;&gt;node_22 -->
<g id="edge32" class="edge"><title>node_3&#45;&gt;node_22</title>
<path fill="none" stroke="black" stroke-dasharray="1,5" d="M665.909,-561.828C611.658,-551.111 534.037,-535.484 504,-528 465.85,-518.495 423.15,-505.848 391.463,-496.067"/>
<polygon fill="black" stroke="black" points="392.17,-492.622 381.582,-493 390.095,-499.308 392.17,-492.622"/>
</g>
<!-- node_7 -->
<g id="node8" class="node"><title>node_7</title>
<ellipse fill="grey" stroke="grey" cx="799" cy="-394" rx="93.2418" ry="18"/>
<text text-anchor="middle" x="799" y="-389.8" font-family="Times,serif" font-size="14.00">CAPTURE_SUCCESS</text>
</g>
<!-- node_6&#45;&gt;node_7 -->
<g id="edge9" class="edge"><title>node_6&#45;&gt;node_7</title>
<path fill="none" stroke="green" d="M720,-461.83C718.641,-451.786 718.735,-439.296 724.729,-430 728.711,-423.823 734.102,-418.714 740.173,-414.494"/>
<polygon fill="green" stroke="green" points="742.06,-417.443 748.805,-409.273 738.437,-411.454 742.06,-417.443"/>
<text text-anchor="start" x="725" y="-433.8" font-family="Times,serif" font-size="14.00">OP_CAPTURE</text>
<text text-anchor="start" x="813.683" y="-433.8" font-family="Times,serif" baseline-shift="sub" font-size="14.00">|S</text>
</g>
<!-- node_8 -->
<g id="node9" class="node"><title>node_8</title>
<ellipse fill="grey" stroke="grey" cx="602" cy="-394" rx="85.4129" ry="18"/>
<text text-anchor="middle" x="602" y="-389.8" font-family="Times,serif" font-size="14.00">CAPTURE_FAILED</text>
</g>
<!-- node_6&#45;&gt;node_8 -->
<g id="edge10" class="edge"><title>node_6&#45;&gt;node_8</title>
<path fill="none" stroke="red" d="M663.56,-470.1C646.53,-464.95 629.254,-456.822 616.729,-444 611.031,-438.168 607.526,-430.219 605.373,-422.422"/>
<polygon fill="red" stroke="red" points="608.756,-421.501 603.252,-412.448 601.909,-422.958 608.756,-421.501"/>
<text text-anchor="start" x="617" y="-433.8" font-family="Times,serif" font-size="14.00">OP_CAPTURE</text>
<text text-anchor="start" x="705.683" y="-433.8" font-family="Times,serif" baseline-shift="sub" font-size="14.00">|F</text>
</g>
<!-- node_9 -->
<g id="node10" class="node"><title>node_9</title>
<ellipse fill="grey" stroke="grey" cx="1006" cy="-394" rx="96.1397" ry="18"/>
<text text-anchor="middle" x="1006" y="-389.8" font-family="Times,serif" font-size="14.00">CAPTURE_ERRORED</text>
</g>
<!-- node_6&#45;&gt;node_9 -->
<g id="edge11" class="edge"><title>node_6&#45;&gt;node_9</title>
<path fill="none" stroke="red" d="M768.373,-465.783C816.705,-451.386 894.224,-428.295 947.501,-412.425"/>
<polygon fill="red" stroke="red" points="948.57,-415.759 957.154,-409.55 946.571,-409.05 948.57,-415.759"/>
<text text-anchor="start" x="882" y="-433.8" font-family="Times,serif" font-size="14.00">OP_CAPTURE</text>
<text text-anchor="start" x="970.683" y="-433.8" font-family="Times,serif" baseline-shift="sub" font-size="14.00">|E</text>
</g>
<!-- node_7&#45;&gt;node_6 -->
<g id="edge34" class="edge"><title>node_7&#45;&gt;node_6</title>
<path fill="none" stroke="black" stroke-dasharray="1,5" d="M816.805,-412.023C824.823,-421.78 831.073,-434.03 824,-444 816.735,-454.239 806.236,-461.506 794.743,-466.659"/>
<polygon fill="black" stroke="black" points="793.379,-463.434 785.356,-470.354 795.943,-469.948 793.379,-463.434"/>
</g>
<!-- node_14 -->
<g id="node15" class="node"><title>node_14</title>
<ellipse fill="grey" stroke="grey" cx="1146" cy="-300" rx="67.3773" ry="18"/>
<text text-anchor="middle" x="1146" y="-295.8" font-family="Times,serif" font-size="14.00">REFUND_INIT</text>
</g>
<!-- node_7&#45;&gt;node_14 -->
<g id="edge33" class="edge"><title>node_7&#45;&gt;node_14</title>
<path fill="none" stroke="black" stroke-dasharray="1,5" d="M851.702,-379.027C916.082,-361.958 1024.52,-333.209 1090.25,-315.781"/>
<polygon fill="black" stroke="black" points="1091.26,-319.135 1100.02,-313.189 1089.46,-312.369 1091.26,-319.135"/>
</g>
<!-- node_26 -->
<g id="node27" class="node"><title>node_26</title>
<ellipse fill="grey" stroke="grey" cx="1117" cy="-120" rx="93.2029" ry="18"/>
<text text-anchor="middle" x="1117" y="-115.8" font-family="Times,serif" font-size="14.00">CHARGEBACK_INIT</text>
</g>
<!-- node_7&#45;&gt;node_26 -->
<g id="edge35" class="edge"><title>node_7&#45;&gt;node_26</title>
<path fill="none" stroke="black" stroke-dasharray="1,5" d="M796.571,-375.984C792.046,-337.045 786.898,-240.755 837,-188 863.217,-160.394 957.379,-141.918 1029.34,-131.482"/>
<polygon fill="black" stroke="black" points="1029.93,-134.933 1039.34,-130.062 1028.95,-128.003 1029.93,-134.933"/>
</g>
<!-- node_11 -->
<g id="node12" class="node"><title>node_11</title>
<ellipse fill="grey" stroke="grey" cx="1447" cy="-394" rx="99.096" ry="18"/>
<text text-anchor="middle" x="1447" y="-389.8" font-family="Times,serif" font-size="14.00">PURCHASE_SUCCESS</text>
</g>
<!-- node_10&#45;&gt;node_11 -->
<g id="edge12" class="edge"><title>node_10&#45;&gt;node_11</title>
<path fill="none" stroke="green" d="M1447,-461.595C1447,-450.257 1447,-435.227 1447,-422.315"/>
<polygon fill="green" stroke="green" points="1450.5,-422.095 1447,-412.095 1443.5,-422.095 1450.5,-422.095"/>
<text text-anchor="start" x="1447" y="-433.8" font-family="Times,serif" font-size="14.00">OP_PURCHASE</text>
<text text-anchor="start" x="1545.03" y="-433.8" font-family="Times,serif" baseline-shift="sub" font-size="14.00">|S</text>
</g>
<!-- node_12 -->
<g id="node13" class="node"><title>node_12</title>
<ellipse fill="grey" stroke="grey" cx="1656" cy="-394" rx="91.2674" ry="18"/>
<text text-anchor="middle" x="1656" y="-389.8" font-family="Times,serif" font-size="14.00">PURCHASE_FAILED</text>
</g>
<!-- node_10&#45;&gt;node_12 -->
<g id="edge13" class="edge"><title>node_10&#45;&gt;node_12</title>
<path fill="none" stroke="red" d="M1495.3,-465.806C1515.28,-459.86 1538.52,-452.308 1559,-444 1578.95,-435.908 1600.39,-425.294 1618.02,-416.015"/>
<polygon fill="red" stroke="red" points="1619.69,-419.093 1626.87,-411.304 1616.4,-412.915 1619.69,-419.093"/>
<text text-anchor="start" x="1588" y="-433.8" font-family="Times,serif" font-size="14.00">OP_PURCHASE</text>
<text text-anchor="start" x="1686.03" y="-433.8" font-family="Times,serif" baseline-shift="sub" font-size="14.00">|F</text>
</g>
<!-- node_13 -->
<g id="node14" class="node"><title>node_13</title>
<ellipse fill="grey" stroke="grey" cx="1228" cy="-394" rx="101.494" ry="18"/>
<text text-anchor="middle" x="1228" y="-389.8" font-family="Times,serif" font-size="14.00">PURCHASE_ERRORED</text>
</g>
<!-- node_10&#45;&gt;node_13 -->
<g id="edge14" class="edge"><title>node_10&#45;&gt;node_13</title>
<path fill="none" stroke="red" d="M1399.07,-465.765C1378.68,-459.734 1354.77,-452.129 1333.62,-444 1311.89,-435.65 1288.34,-424.897 1269,-415.593"/>
<polygon fill="red" stroke="red" points="1270.4,-412.38 1259.87,-411.158 1267.34,-418.676 1270.4,-412.38"/>
<text text-anchor="start" x="1334" y="-433.8" font-family="Times,serif" font-size="14.00">OP_PURCHASE</text>
<text text-anchor="start" x="1432.03" y="-433.8" font-family="Times,serif" baseline-shift="sub" font-size="14.00">|E</text>
</g>
<!-- node_11&#45;&gt;node_14 -->
<g id="edge38" class="edge"><title>node_11&#45;&gt;node_14</title>
<path fill="none" stroke="black" stroke-dasharray="1,5" d="M1398.64,-378.219C1343.93,-361.496 1255.11,-334.35 1198.68,-317.101"/>
<polygon fill="black" stroke="black" points="1199.46,-313.682 1188.88,-314.106 1197.42,-320.376 1199.46,-313.682"/>
</g>
<!-- node_11&#45;&gt;node_26 -->
<g id="edge39" class="edge"><title>node_11&#45;&gt;node_26</title>
<path fill="none" stroke="black" stroke-dasharray="1,5" d="M1450.3,-375.725C1456.68,-336.667 1466.06,-240.857 1417,-188 1389.03,-157.867 1286.05,-139.735 1208.49,-130.074"/>
<polygon fill="black" stroke="black" points="1208.55,-126.557 1198.2,-128.824 1207.71,-133.505 1208.55,-126.557"/>
</g>
<!-- node_15 -->
<g id="node16" class="node"><title>node_15</title>
<ellipse fill="grey" stroke="grey" cx="1117" cy="-214" rx="88.371" ry="18"/>
<text text-anchor="middle" x="1117" y="-209.8" font-family="Times,serif" font-size="14.00">REFUND_SUCCESS</text>
</g>
<!-- node_14&#45;&gt;node_15 -->
<g id="edge15" class="edge"><title>node_14&#45;&gt;node_15</title>
<path fill="none" stroke="green" d="M1116.24,-283.597C1109.14,-278.391 1102.48,-271.862 1098.51,-264 1094.88,-256.81 1095.97,-248.728 1098.96,-241.233"/>
<polygon fill="green" stroke="green" points="1102.16,-242.667 1103.54,-232.163 1095.91,-239.511 1102.16,-242.667"/>
<text text-anchor="start" x="1099" y="-253.8" font-family="Times,serif" font-size="14.00">OP_REFUND</text>
<text text-anchor="start" x="1179.9" y="-253.8" font-family="Times,serif" baseline-shift="sub" font-size="14.00">|S</text>
</g>
<!-- node_16 -->
<g id="node17" class="node"><title>node_16</title>
<ellipse fill="grey" stroke="grey" cx="930" cy="-214" rx="80.5418" ry="18"/>
<text text-anchor="middle" x="930" y="-209.8" font-family="Times,serif" font-size="14.00">REFUND_FAILED</text>
</g>
<!-- node_14&#45;&gt;node_16 -->
<g id="edge16" class="edge"><title>node_14&#45;&gt;node_16</title>
<path fill="none" stroke="red" d="M1089.21,-290.191C1061.92,-284.73 1029.21,-276.344 1001.51,-264 986.206,-257.181 970.692,-247.028 958.043,-237.73"/>
<polygon fill="red" stroke="red" points="959.868,-234.722 949.781,-231.48 955.645,-240.304 959.868,-234.722"/>
<text text-anchor="start" x="1002" y="-253.8" font-family="Times,serif" font-size="14.00">OP_REFUND</text>
<text text-anchor="start" x="1082.9" y="-253.8" font-family="Times,serif" baseline-shift="sub" font-size="14.00">|F</text>
</g>
<!-- node_17 -->
<g id="node18" class="node"><title>node_17</title>
<ellipse fill="grey" stroke="grey" cx="1314" cy="-214" rx="91.2689" ry="18"/>
<text text-anchor="middle" x="1314" y="-209.8" font-family="Times,serif" font-size="14.00">REFUND_ERRORED</text>
</g>
<!-- node_14&#45;&gt;node_17 -->
<g id="edge17" class="edge"><title>node_14&#45;&gt;node_17</title>
<path fill="none" stroke="red" d="M1176.42,-283.788C1203.39,-270.307 1242.99,-250.507 1272.79,-235.607"/>
<polygon fill="red" stroke="red" points="1274.71,-238.558 1282.09,-230.956 1271.58,-232.297 1274.71,-238.558"/>
<text text-anchor="start" x="1241" y="-253.8" font-family="Times,serif" font-size="14.00">OP_REFUND</text>
<text text-anchor="start" x="1321.9" y="-253.8" font-family="Times,serif" baseline-shift="sub" font-size="14.00">|E</text>
</g>
<!-- node_15&#45;&gt;node_14 -->
<g id="edge36" class="edge"><title>node_15&#45;&gt;node_14</title>
<path fill="none" stroke="black" stroke-dasharray="1,5" d="M1166.08,-229.17C1175.56,-234.203 1184.31,-240.96 1190,-250 1196.04,-259.6 1190.79,-269.119 1182.1,-277.178"/>
<polygon fill="black" stroke="black" points="1179.75,-274.576 1174.15,-283.573 1184.14,-280.029 1179.75,-274.576"/>
</g>
<!-- node_15&#45;&gt;node_26 -->
<g id="edge37" class="edge"><title>node_15&#45;&gt;node_26</title>
<path fill="none" stroke="black" stroke-dasharray="1,5" d="M1117,-195.696C1117,-182.46 1117,-163.947 1117,-148.663"/>
<polygon fill="black" stroke="black" points="1120.5,-148.227 1117,-138.227 1113.5,-148.227 1120.5,-148.227"/>
</g>
<!-- node_19 -->
<g id="node20" class="node"><title>node_19</title>
<ellipse fill="grey" stroke="grey" cx="968" cy="-660" rx="84.2033" ry="18"/>
<text text-anchor="middle" x="968" y="-655.8" font-family="Times,serif" font-size="14.00">CREDIT_SUCCESS</text>
</g>
<!-- node_18&#45;&gt;node_19 -->
<g id="edge18" class="edge"><title>node_18&#45;&gt;node_19</title>
<path fill="none" stroke="green" d="M1109.87,-731.415C1093.67,-725.325 1074.69,-717.77 1057.96,-710 1040.03,-701.672 1020.7,-691.335 1004.58,-682.306"/>
<polygon fill="green" stroke="green" points="1005.92,-679.042 995.489,-677.166 1002.47,-685.135 1005.92,-679.042"/>
<text text-anchor="start" x="1058" y="-699.8" font-family="Times,serif" font-size="14.00">OP_CREDIT</text>
<text text-anchor="start" x="1133.45" y="-699.8" font-family="Times,serif" baseline-shift="sub" font-size="14.00">|S</text>
</g>
<!-- node_20 -->
<g id="node21" class="node"><title>node_20</title>
<ellipse fill="grey" stroke="grey" cx="1148" cy="-660" rx="77.3738" ry="18"/>
<text text-anchor="middle" x="1148" y="-655.8" font-family="Times,serif" font-size="14.00">CREDIT_FAILED</text>
</g>
<!-- node_18&#45;&gt;node_20 -->
<g id="edge19" class="edge"><title>node_18&#45;&gt;node_20</title>
<path fill="none" stroke="red" d="M1148,-727.595C1148,-716.257 1148,-701.227 1148,-688.315"/>
<polygon fill="red" stroke="red" points="1151.5,-688.095 1148,-678.095 1144.5,-688.095 1151.5,-688.095"/>
<text text-anchor="start" x="1148" y="-699.8" font-family="Times,serif" font-size="14.00">OP_CREDIT</text>
<text text-anchor="start" x="1223.45" y="-699.8" font-family="Times,serif" baseline-shift="sub" font-size="14.00">|F</text>
</g>
<!-- node_21 -->
<g id="node22" class="node"><title>node_21</title>
<ellipse fill="grey" stroke="grey" cx="1331" cy="-660" rx="87.5996" ry="18"/>
<text text-anchor="middle" x="1331" y="-655.8" font-family="Times,serif" font-size="14.00">CREDIT_ERRORED</text>
</g>
<!-- node_18&#45;&gt;node_21 -->
<g id="edge20" class="edge"><title>node_18&#45;&gt;node_21</title>
<path fill="none" stroke="red" d="M1186.06,-731.3C1202.24,-725.191 1221.22,-717.653 1238,-710 1256.63,-701.502 1276.8,-691.038 1293.58,-681.966"/>
<polygon fill="red" stroke="red" points="1295.41,-684.951 1302.52,-677.09 1292.06,-678.805 1295.41,-684.951"/>
<text text-anchor="start" x="1267" y="-699.8" font-family="Times,serif" font-size="14.00">OP_CREDIT</text>
<text text-anchor="start" x="1342.45" y="-699.8" font-family="Times,serif" baseline-shift="sub" font-size="14.00">|E</text>
</g>
<!-- node_23 -->
<g id="node24" class="node"><title>node_23</title>
<ellipse fill="grey" stroke="grey" cx="265" cy="-394" rx="74.4601" ry="18"/>
<text text-anchor="middle" x="265" y="-389.8" font-family="Times,serif" font-size="14.00">VOID_SUCCESS</text>
</g>
<!-- node_22&#45;&gt;node_23 -->
<g id="edge21" class="edge"><title>node_22&#45;&gt;node_23</title>
<path fill="none" stroke="green" d="M328.392,-462.404C316.782,-450.06 300.761,-433.025 287.731,-419.169"/>
<polygon fill="green" stroke="green" points="290.246,-416.735 280.846,-411.849 285.147,-421.531 290.246,-416.735"/>
<text text-anchor="start" x="310" y="-433.8" font-family="Times,serif" font-size="14.00">OP_VOID</text>
<text text-anchor="start" x="369.89" y="-433.8" font-family="Times,serif" baseline-shift="sub" font-size="14.00">|S</text>
</g>
<!-- node_24 -->
<g id="node25" class="node"><title>node_24</title>
<ellipse fill="grey" stroke="grey" cx="425" cy="-394" rx="67.1318" ry="18"/>
<text text-anchor="middle" x="425" y="-389.8" font-family="Times,serif" font-size="14.00">VOID_FAILED</text>
</g>
<!-- node_22&#45;&gt;node_24 -->
<g id="edge22" class="edge"><title>node_22&#45;&gt;node_24</title>
<path fill="none" stroke="red" d="M363.676,-462.848C370.333,-457.109 377.677,-450.465 384,-444 391.368,-436.467 398.914,-427.777 405.491,-419.826"/>
<polygon fill="red" stroke="red" points="408.353,-421.855 411.946,-411.888 402.922,-417.438 408.353,-421.855"/>
<text text-anchor="start" x="396" y="-433.8" font-family="Times,serif" font-size="14.00">OP_VOID</text>
<text text-anchor="start" x="455.89" y="-433.8" font-family="Times,serif" baseline-shift="sub" font-size="14.00">|F</text>
</g>
<!-- node_25 -->
<g id="node26" class="node"><title>node_25</title>
<ellipse fill="grey" stroke="grey" cx="94" cy="-394" rx="77.3586" ry="18"/>
<text text-anchor="middle" x="94" y="-389.8" font-family="Times,serif" font-size="14.00">VOID_ERRORED</text>
</g>
<!-- node_22&#45;&gt;node_25 -->
<g id="edge23" class="edge"><title>node_22&#45;&gt;node_25</title>
<path fill="none" stroke="red" d="M303.479,-467.901C280.298,-461.354 250.748,-452.672 224.756,-444 196.74,-434.653 165.777,-423.105 141.016,-413.568"/>
<polygon fill="red" stroke="red" points="142.094,-410.232 131.505,-409.886 139.567,-416.76 142.094,-410.232"/>
<text text-anchor="start" x="225" y="-433.8" font-family="Times,serif" font-size="14.00">OP_VOID</text>
<text text-anchor="start" x="284.89" y="-433.8" font-family="Times,serif" baseline-shift="sub" font-size="14.00">|E</text>
</g>
<!-- node_27 -->
<g id="node28" class="node"><title>node_27</title>
<ellipse fill="grey" stroke="grey" cx="1069" cy="-34" rx="113.197" ry="18"/>
<text text-anchor="middle" x="1069" y="-29.8" font-family="Times,serif" font-size="14.00">CHARGEBACK_SUCCESS</text>
</g>
<!-- node_26&#45;&gt;node_27 -->
<g id="edge24" class="edge"><title>node_26&#45;&gt;node_27</title>
<path fill="none" stroke="green" d="M1071.25,-104.192C1062.43,-99.1921 1054.31,-92.6097 1049.06,-84 1044.66,-76.7857 1046,-68.4283 1049.52,-60.6811"/>
<polygon fill="green" stroke="green" points="1052.57,-62.4001 1054.44,-51.972 1046.47,-58.9565 1052.57,-62.4001"/>
<text text-anchor="start" x="1050" y="-73.8" font-family="Times,serif" font-size="14.00">OP_CHARGEBACK</text>
<text text-anchor="start" x="1171.35" y="-73.8" font-family="Times,serif" baseline-shift="sub" font-size="14.00">|S</text>
</g>
<!-- node_28 -->
<g id="node29" class="node"><title>node_28</title>
<ellipse fill="grey" stroke="grey" cx="831" cy="-34" rx="106.368" ry="18"/>
<text text-anchor="middle" x="831" y="-29.8" font-family="Times,serif" font-size="14.00">CHARGEBACK_FAILED</text>
</g>
<!-- node_26&#45;&gt;node_28 -->
<g id="edge25" class="edge"><title>node_26&#45;&gt;node_28</title>
<path fill="none" stroke="red" d="M1032.94,-112.04C994.843,-107.046 949.77,-98.5173 911.06,-84 893.749,-77.5081 876.057,-67.1464 861.722,-57.6201"/>
<polygon fill="red" stroke="red" points="863.495,-54.5922 853.264,-51.8385 859.545,-60.3711 863.495,-54.5922"/>
<text text-anchor="start" x="912" y="-73.8" font-family="Times,serif" font-size="14.00">OP_CHARGEBACK</text>
<text text-anchor="start" x="1033.35" y="-73.8" font-family="Times,serif" baseline-shift="sub" font-size="14.00">|F</text>
</g>
<!-- node_29 -->
<g id="node30" class="node"><title>node_29</title>
<ellipse fill="grey" stroke="grey" cx="1318" cy="-34" rx="116.594" ry="18"/>
<text text-anchor="middle" x="1318" y="-29.8" font-family="Times,serif" font-size="14.00">CHARGEBACK_ERRORED</text>
</g>
<!-- node_26&#45;&gt;node_29 -->
<g id="edge26" class="edge"><title>node_26&#45;&gt;node_29</title>
<path fill="none" stroke="red" d="M1154.34,-103.397C1186.92,-89.7795 1234.4,-69.9357 1269.84,-55.1256"/>
<polygon fill="red" stroke="red" points="1271.62,-58.1766 1279.5,-51.0912 1268.92,-51.7179 1271.62,-58.1766"/>
<text text-anchor="start" x="1230" y="-73.8" font-family="Times,serif" font-size="14.00">OP_CHARGEBACK</text>
<text text-anchor="start" x="1351.35" y="-73.8" font-family="Times,serif" baseline-shift="sub" font-size="14.00">|E</text>
</g>
<!-- node_27&#45;&gt;node_26 -->
<g id="edge40" class="edge"><title>node_27&#45;&gt;node_26</title>
<path fill="none" stroke="black" stroke-dasharray="1,5" d="M1150.19,-46.6822C1162.25,-51.9396 1173.22,-59.4134 1181,-70 1189.23,-81.191 1181.45,-91.0701 1168.85,-98.9723"/>
<polygon fill="black" stroke="black" points="1167.05,-95.9704 1159.99,-103.874 1170.43,-102.096 1167.05,-95.9704"/>
</g>
</g>
</svg>
