<?xml version="1.0" encoding="UTF-8" standalone="no"?>
<!DOCTYPE svg PUBLIC "-//W3C//DTD SVG 1.1//EN"
 "http://www.w3.org/Graphics/SVG/1.1/DTD/svg11.dtd">
<!-- Generated by graphviz version 2.36.0 (20140111.2315)
 -->
<!-- Title: G Pages: 1 -->
<svg width="536pt" height="256pt"
 viewBox="0.00 0.00 536.00 256.00" xmlns="http://www.w3.org/2000/svg" xmlns:xlink="http://www.w3.org/1999/xlink">
<g id="graph0" class="graph" transform="scale(1 1) rotate(0) translate(4 252)">
<title>G</title>
<polygon fill="white" stroke="none" points="-4,4 -4,-252 532,-252 532,4 -4,4"/>
<!-- SETUP -->
<g id="node1" class="node"><title>SETUP</title>
<polygon fill="none" stroke="black" points="53,-120 0.469751,-102 53,-84 105.53,-102 53,-120"/>
<text text-anchor="middle" x="53" y="-97.8" font-family="Times,serif" font-size="14.00">SETUP</text>
</g>
<!-- SETUP&#45;&gt;SETUP -->
<g id="edge1" class="edge"><title>SETUP&#45;&gt;SETUP</title>
<path fill="none" stroke="black" d="M31.3438,-112.688C16.9062,-124.5 24.125,-138 53,-138 75.5586,-138 84.8993,-129.76 81.022,-120.523"/>
<polygon fill="black" stroke="black" points="83.6785,-118.242 74.6562,-112.688 78.2455,-122.656 83.6785,-118.242"/>
</g>
<!-- PENDING -->
<g id="node2" class="node"><title>PENDING</title>
<polygon fill="none" stroke="black" points="246.943,-120 169.057,-120 169.057,-84 246.943,-84 246.943,-120"/>
<text text-anchor="middle" x="208" y="-97.8" font-family="Times,serif" font-size="14.00">PENDING</text>
</g>
<!-- SETUP&#45;&gt;PENDING -->
<g id="edge2" class="edge"><title>SETUP&#45;&gt;PENDING</title>
<path fill="none" stroke="black" d="M105.799,-102C123.029,-102 142.132,-102 159.057,-102"/>
<polygon fill="black" stroke="black" points="159.278,-105.5 169.278,-102 159.278,-98.5001 159.278,-105.5"/>
</g>
<!-- PLUGIN_FAILURE -->
<g id="node3" class="node"><title>PLUGIN_FAILURE</title>
<polygon fill="none" stroke="black" points="274.41,-230 141.59,-230 141.59,-194 274.41,-194 274.41,-230"/>
<text text-anchor="middle" x="208" y="-207.8" font-family="Times,serif" font-size="14.00">PLUGIN_FAILURE</text>
</g>
<!-- SETUP&#45;&gt;PLUGIN_FAILURE -->
<g id="edge3" class="edge"><title>SETUP&#45;&gt;PLUGIN_FAILURE</title>
<path fill="none" stroke="black" d="M66.7902,-115.36C83.1447,-131.943 112.848,-160.424 142,-180 146.816,-183.234 152.007,-186.342 157.282,-189.264"/>
<polygon fill="black" stroke="black" points="155.712,-192.393 166.185,-193.994 158.996,-186.211 155.712,-192.393"/>
</g>
<!-- SUCCESS -->
<g id="node4" class="node"><title>SUCCESS</title>
<polygon fill="none" stroke="black" points="457.197,-180 380.803,-180 380.803,-144 457.197,-144 457.197,-180"/>
<text text-anchor="middle" x="419" y="-157.8" font-family="Times,serif" font-size="14.00">SUCCESS</text>
</g>
<!-- SETUP&#45;&gt;SUCCESS -->
<g id="edge9" class="edge"><title>SETUP&#45;&gt;SUCCESS</title>
<path fill="none" stroke="green" d="M71.633,-113.836C88.7845,-124.648 115.99,-139.983 142,-147 219.911,-168.018 314.558,-167.896 370.336,-165.337"/>
<polygon fill="green" stroke="green" points="370.81,-168.818 380.621,-164.817 370.457,-161.827 370.81,-168.818"/>
</g>
<!-- SETUP_ABORTED -->
<g id="node5" class="node"><title>SETUP_ABORTED</title>
<polygon fill="none" stroke="black" points="484.563,-36 353.437,-36 353.437,-0 484.563,-0 484.563,-36"/>
<text text-anchor="middle" x="419" y="-13.8" font-family="Times,serif" font-size="14.00">SETUP_ABORTED</text>
</g>
<!-- SETUP&#45;&gt;SETUP_ABORTED -->
<g id="edge4" class="edge"><title>SETUP&#45;&gt;SETUP_ABORTED</title>
<path fill="none" stroke="black" d="M75.197,-91.462C92.7172,-83.1523 118.45,-71.8573 142,-65 208.67,-45.5873 286.88,-33.2045 342.988,-26.051"/>
<polygon fill="black" stroke="black" points="343.711,-29.488 353.2,-24.7756 342.843,-22.542 343.711,-29.488"/>
</g>
<!-- PAYMENT_FAILURE_ABORTED -->
<g id="node6" class="node"><title>PAYMENT_FAILURE_ABORTED</title>
<polygon fill="none" stroke="black" points="528.454,-105 309.546,-105 309.546,-69 528.454,-69 528.454,-105"/>
<text text-anchor="middle" x="419" y="-82.8" font-family="Times,serif" font-size="14.00">PAYMENT_FAILURE_ABORTED</text>
</g>
<!-- SETUP&#45;&gt;PAYMENT_FAILURE_ABORTED -->
<g id="edge12" class="edge"><title>SETUP&#45;&gt;PAYMENT_FAILURE_ABORTED</title>
<path fill="none" stroke="red" d="M78.202,-92.4366C95.6303,-86.0818 119.874,-78.3179 142,-75 193.363,-67.2976 250.659,-68.2587 299.677,-71.9321"/>
<polygon fill="red" stroke="red" points="299.439,-75.4242 309.685,-72.728 299.994,-68.4462 299.439,-75.4242"/>
</g>
<!-- PENDING&#45;&gt;PENDING -->
<g id="edge5" class="edge"><title>PENDING&#45;&gt;PENDING</title>
<path fill="none" stroke="black" d="M180.14,-120.153C175.854,-129.539 185.141,-138 208,-138 221.93,-138 230.82,-134.858 234.67,-130.28"/>
<polygon fill="black" stroke="black" points="238.168,-130.493 235.86,-120.153 231.216,-129.676 238.168,-130.493"/>
</g>
<!-- PENDING&#45;&gt;PLUGIN_FAILURE -->
<g id="edge6" class="edge"><title>PENDING&#45;&gt;PLUGIN_FAILURE</title>
<path fill="none" stroke="black" d="M223.931,-120.047C239.305,-141.715 241.157,-163.384 229.486,-185.052"/>
<polygon fill="black" stroke="black" points="226.429,-183.34 224.123,-193.681 232.374,-187.035 226.429,-183.34"/>
</g>
<!-- PENDING&#45;&gt;SUCCESS -->
<g id="edge10" class="edge"><title>PENDING&#45;&gt;SUCCESS</title>
<path fill="none" stroke="green" d="M246.848,-112.866C281.727,-122.879 333.607,-137.772 371.1,-148.536"/>
<polygon fill="green" stroke="green" points="370.207,-151.921 380.785,-151.316 372.139,-145.193 370.207,-151.921"/>
</g>
<!-- PENDING&#45;&gt;PAYMENT_FAILURE_ABORTED -->
<g id="edge13" class="edge"><title>PENDING&#45;&gt;PAYMENT_FAILURE_ABORTED</title>
<path fill="none" stroke="red" d="M246.848,-99.2836C262.074,-98.1908 280.541,-96.8655 299.635,-95.4951"/>
<polygon fill="red" stroke="red" points="299.941,-98.9823 309.664,-94.7753 299.439,-92.0002 299.941,-98.9823"/>
</g>
<!-- PLUGIN_FAILURE&#45;&gt;PENDING -->
<g id="edge7" class="edge"><title>PLUGIN_FAILURE&#45;&gt;PENDING</title>
<path fill="none" stroke="black" d="M191.877,-193.681C176.616,-172.013 174.877,-150.344 186.661,-128.676"/>
<polygon fill="black" stroke="black" points="189.724,-130.379 192.069,-120.047 183.793,-126.662 189.724,-130.379"/>
</g>
<!-- PLUGIN_FAILURE&#45;&gt;PLUGIN_FAILURE -->
<g id="edge8" class="edge"><title>PLUGIN_FAILURE&#45;&gt;PLUGIN_FAILURE</title>
<path fill="none" stroke="black" d="M180.14,-230.153C175.854,-239.539 185.141,-248 208,-248 221.93,-248 230.82,-244.858 234.67,-240.28"/>
<polygon fill="black" stroke="black" points="238.168,-240.493 235.86,-230.153 231.216,-239.676 238.168,-240.493"/>
</g>
<!-- PLUGIN_FAILURE&#45;&gt;SUCCESS -->
<g id="edge11" class="edge"><title>PLUGIN_FAILURE&#45;&gt;SUCCESS</title>
<path fill="none" stroke="green" d="M274.269,-196.385C305.417,-188.934 342.005,-180.181 370.471,-173.371"/>
<polygon fill="green" stroke="green" points="371.654,-176.686 380.565,-170.956 370.025,-169.878 371.654,-176.686"/>
</g>
<!-- PLUGIN_FAILURE_ABORTED -->
<g id="node7" class="node"><title>PLUGIN_FAILURE_ABORTED</title>
<polygon fill="none" stroke="black" points="521.186,-234 316.814,-234 316.814,-198 521.186,-198 521.186,-234"/>
<text text-anchor="middle" x="419" y="-211.8" font-family="Times,serif" font-size="14.00">PLUGIN_FAILURE_ABORTED</text>
</g>
<!-- PLUGIN_FAILURE&#45;&gt;PLUGIN_FAILURE_ABORTED -->
<g id="edge14" class="edge"><title>PLUGIN_FAILURE&#45;&gt;PLUGIN_FAILURE_ABORTED</title>
<path fill="none" stroke="red" d="M274.269,-213.249C284.54,-213.446 295.401,-213.654 306.369,-213.864"/>
<polygon fill="red" stroke="red" points="306.391,-217.364 316.456,-214.057 306.525,-210.366 306.391,-217.364"/>
</g>
</g>
</svg>
