<?xml version="1.0" encoding="UTF-8" standalone="no"?>
<!DOCTYPE svg PUBLIC "-//W3C//DTD SVG 1.1//EN"
 "http://www.w3.org/Graphics/SVG/1.1/DTD/svg11.dtd">
<!-- Generated by graphviz version 2.36.0 (20140111.2315)
 -->
<!-- Title: G Pages: 1 -->
<svg width="538pt" height="152pt"
 viewBox="0.00 0.00 538.00 152.00" xmlns="http://www.w3.org/2000/svg" xmlns:xlink="http://www.w3.org/1999/xlink">
<g id="graph0" class="graph" transform="scale(1 1) rotate(0) translate(4 148)">
<title>G</title>
<polygon fill="white" stroke="none" points="-4,4 -4,-148 534,-148 534,4 -4,4"/>
<!-- UNKNOWN -->
<g id="node1" class="node"><title>UNKNOWN</title>
<polygon fill="none" stroke="black" points="81,-90 0.92253,-72 81,-54 161.077,-72 81,-90"/>
<text text-anchor="middle" x="81" y="-67.8" font-family="Times,serif" font-size="14.00">UNKNOWN</text>
</g>
<!-- PENDING -->
<g id="node5" class="node"><title>PENDING</title>
<polygon fill="none" stroke="black" points="275.943,-90 198.057,-90 198.057,-54 275.943,-54 275.943,-90"/>
<text text-anchor="middle" x="237" y="-67.8" font-family="Times,serif" font-size="14.00">PENDING</text>
</g>
<!-- UNKNOWN&#45;&gt;PENDING -->
<g id="edge1" class="edge"><title>UNKNOWN&#45;&gt;PENDING</title>
<path fill="none" stroke="black" d="M161.256,-72C170.372,-72 179.447,-72 187.967,-72"/>
<polygon fill="black" stroke="black" points="188.051,-75.5001 198.051,-72 188.051,-68.5001 188.051,-75.5001"/>
</g>
<!-- SUCCESS -->
<g id="node2" class="node"><title>SUCCESS</title>
<polygon fill="none" stroke="black" points="459.197,-144 382.803,-144 382.803,-108 459.197,-108 459.197,-144"/>
<text text-anchor="middle" x="421" y="-121.8" font-family="Times,serif" font-size="14.00">SUCCESS</text>
</g>
<!-- PAYMENT_FAILURE_ABORTED -->
<g id="node3" class="node"><title>PAYMENT_FAILURE_ABORTED</title>
<polygon fill="none" stroke="black" points="530.454,-90 311.546,-90 311.546,-54 530.454,-54 530.454,-90"/>
<text text-anchor="middle" x="421" y="-67.8" font-family="Times,serif" font-size="14.00">PAYMENT_FAILURE_ABORTED</text>
</g>
<!-- PLUGIN_FAILURE_ABORTED -->
<g id="node4" class="node"><title>PLUGIN_FAILURE_ABORTED</title>
<polygon fill="none" stroke="black" points="523.186,-36 318.814,-36 318.814,-0 523.186,-0 523.186,-36"/>
<text text-anchor="middle" x="421" y="-13.8" font-family="Times,serif" font-size="14.00">PLUGIN_FAILURE_ABORTED</text>
</g>
<!-- PENDING&#45;&gt;SUCCESS -->
<g id="edge2" class="edge"><title>PENDING&#45;&gt;SUCCESS</title>
<path fill="none" stroke="green" d="M275.768,-86.6454C287.312,-90.8871 300.102,-95.353 312,-99 331.736,-105.049 353.803,-110.751 372.82,-115.341"/>
<polygon fill="green" stroke="green" points="372.208,-118.793 382.747,-117.705 373.829,-111.984 372.208,-118.793"/>
</g>
<!-- PENDING&#45;&gt;PAYMENT_FAILURE_ABORTED -->
<g id="edge3" class="edge"><title>PENDING&#45;&gt;PAYMENT_FAILURE_ABORTED</title>
<path fill="none" stroke="red" d="M276.153,-72C283.878,-72 292.38,-72 301.273,-72"/>
<polygon fill="red" stroke="red" points="301.459,-75.5001 311.459,-72 301.459,-68.5001 301.459,-75.5001"/>
</g>
<!-- PENDING&#45;&gt;PLUGIN_FAILURE_ABORTED -->
<g id="edge4" class="edge"><title>PENDING&#45;&gt;PLUGIN_FAILURE_ABORTED</title>
<path fill="none" stroke="red" d="M275.768,-57.3546C287.312,-53.1129 300.102,-48.647 312,-45 319.067,-42.834 326.432,-40.7127 333.849,-38.6709"/>
<polygon fill="red" stroke="red" points="334.867,-42.0215 343.609,-36.0356 333.042,-35.2635 334.867,-42.0215"/>
</g>
</g>
</svg>
