<svg width="562" height="137" viewBox="0 0 562 137" fill="none" xmlns="http://www.w3.org/2000/svg">
<path d="M199 7C199 3.13401 202.134 0 206 0H488.039C489.794 0 491.485 0.659303 492.777 1.84727L556.637 60.5684C559.563 63.2595 559.664 67.845 556.858 70.6616L492.82 134.94C491.506 136.259 489.722 137 487.86 137H206C202.134 137 199 133.866 199 130V7Z" fill="#167BB7"/>
<path d="M0 7C0 3.13401 3.13401 0 7 0H209.618C211.754 0 213.772 0.97491 215.1 2.6475L261.692 61.333C263.647 63.7957 263.72 67.2599 261.871 69.8028L215.095 134.117C213.778 135.928 211.673 137 209.434 137H7C3.13401 137 0 133.866 0 130V7Z" fill="#F9FAFB"/>
<path d="M116.205 39.875V38.3636H125.21V39.875H121.58V50H119.83V39.875H116.205ZM126.158 50V41.2727H127.8V42.6591H127.891C128.05 42.1894 128.33 41.8201 128.732 41.5511C129.137 41.2784 129.595 41.142 130.107 41.142C130.213 41.142 130.338 41.1458 130.482 41.1534C130.629 41.161 130.745 41.1705 130.828 41.1818V42.8068C130.76 42.7879 130.639 42.767 130.464 42.7443C130.29 42.7178 130.116 42.7045 129.942 42.7045C129.54 42.7045 129.182 42.7898 128.868 42.9602C128.557 43.1269 128.311 43.3598 128.129 43.6591C127.947 43.9545 127.857 44.2917 127.857 44.6705V50H126.158ZM132.298 50V41.2727H133.997V50H132.298ZM133.156 39.9261C132.861 39.9261 132.607 39.8277 132.395 39.6307C132.187 39.4299 132.082 39.1913 132.082 38.9148C132.082 38.6345 132.187 38.3958 132.395 38.1989C132.607 37.9981 132.861 37.8977 133.156 37.8977C133.452 37.8977 133.704 37.9981 133.912 38.1989C134.124 38.3958 134.23 38.6345 134.23 38.9148C134.23 39.1913 134.124 39.4299 133.912 39.6307C133.704 39.8277 133.452 39.9261 133.156 39.9261ZM138.822 50.1932C138.269 50.1932 137.769 50.0909 137.322 49.8864C136.875 49.678 136.521 49.3769 136.26 48.983C136.002 48.589 135.874 48.1061 135.874 47.5341C135.874 47.0417 135.968 46.6364 136.158 46.3182C136.347 46 136.603 45.7481 136.925 45.5625C137.247 45.3769 137.607 45.2367 138.004 45.142C138.402 45.0473 138.807 44.9754 139.22 44.9261C139.743 44.8655 140.167 44.8163 140.493 44.7784C140.819 44.7367 141.055 44.6705 141.203 44.5795C141.351 44.4886 141.425 44.3409 141.425 44.1364V44.0966C141.425 43.6004 141.285 43.2159 141.004 42.9432C140.728 42.6705 140.315 42.5341 139.766 42.5341C139.194 42.5341 138.743 42.661 138.413 42.9148C138.088 43.1648 137.862 43.4432 137.737 43.75L136.141 43.3864C136.33 42.8561 136.607 42.428 136.97 42.1023C137.338 41.7727 137.76 41.5341 138.237 41.3864C138.714 41.2348 139.216 41.1591 139.743 41.1591C140.091 41.1591 140.461 41.2008 140.851 41.2841C141.245 41.3636 141.612 41.5114 141.953 41.7273C142.298 41.9432 142.58 42.2519 142.8 42.6534C143.019 43.0511 143.129 43.5682 143.129 44.2045V50H141.47V48.8068H141.402C141.292 49.0265 141.127 49.2424 140.908 49.4545C140.688 49.6667 140.406 49.8428 140.061 49.983C139.716 50.1231 139.304 50.1932 138.822 50.1932ZM139.192 48.8295C139.661 48.8295 140.063 48.7367 140.396 48.5511C140.733 48.3655 140.989 48.1231 141.163 47.8239C141.341 47.5208 141.43 47.197 141.43 46.8523V45.7273C141.37 45.7879 141.252 45.8447 141.078 45.8977C140.908 45.947 140.713 45.9905 140.493 46.0284C140.273 46.0625 140.059 46.0947 139.851 46.125C139.643 46.1515 139.468 46.1742 139.328 46.1932C138.999 46.2348 138.697 46.3049 138.425 46.4034C138.156 46.5019 137.94 46.6439 137.777 46.8295C137.618 47.0114 137.538 47.2538 137.538 47.5568C137.538 47.9773 137.694 48.2955 138.004 48.5114C138.315 48.7235 138.711 48.8295 139.192 48.8295ZM147.091 38.3636V50H145.392V38.3636H147.091Z" fill="#1F2937"/>
<path d="M148.21 95.1591C147.392 95.1591 146.665 95.0189 146.028 94.7386C145.396 94.4583 144.896 94.0682 144.528 93.5682C144.161 93.0682 143.966 92.4905 143.943 91.8352H146.08C146.098 92.1496 146.203 92.4242 146.392 92.6591C146.581 92.8902 146.833 93.0701 147.148 93.1989C147.462 93.3277 147.814 93.392 148.205 93.392C148.621 93.392 148.991 93.3201 149.312 93.1761C149.634 93.0284 149.886 92.8239 150.068 92.5625C150.25 92.3011 150.339 92 150.335 91.6591C150.339 91.3068 150.248 90.9962 150.062 90.7273C149.877 90.4583 149.608 90.2481 149.256 90.0966C148.907 89.9451 148.487 89.8693 147.994 89.8693H146.966V88.2443H147.994C148.4 88.2443 148.754 88.1742 149.057 88.0341C149.364 87.8939 149.604 87.697 149.778 87.4432C149.953 87.1856 150.038 86.8883 150.034 86.5511C150.038 86.2216 149.964 85.9356 149.812 85.6932C149.665 85.447 149.455 85.2557 149.182 85.1193C148.913 84.983 148.597 84.9148 148.233 84.9148C147.877 84.9148 147.547 84.9792 147.244 85.108C146.941 85.2367 146.697 85.4205 146.511 85.6591C146.326 85.8939 146.227 86.1742 146.216 86.5H144.188C144.203 85.8485 144.39 85.2765 144.75 84.7841C145.114 84.2879 145.598 83.9015 146.205 83.625C146.811 83.3447 147.491 83.2045 148.244 83.2045C149.021 83.2045 149.695 83.3504 150.267 83.642C150.843 83.9299 151.288 84.3182 151.602 84.8068C151.917 85.2955 152.074 85.8352 152.074 86.4261C152.078 87.0814 151.884 87.6307 151.494 88.0739C151.108 88.517 150.6 88.8068 149.972 88.9432V89.0341C150.79 89.1477 151.417 89.4508 151.852 89.9432C152.292 90.4318 152.509 91.0398 152.506 91.767C152.506 92.4186 152.32 93.0019 151.949 93.517C151.581 94.0284 151.074 94.4299 150.426 94.7216C149.782 95.0133 149.044 95.1591 148.21 95.1591ZM158.757 95.2216C157.821 95.2216 157.018 94.9848 156.348 94.5114C155.681 94.0341 155.168 93.3466 154.808 92.4489C154.452 91.5473 154.274 90.4621 154.274 89.1932C154.278 87.9242 154.458 86.8447 154.814 85.9545C155.174 85.0606 155.687 84.3788 156.354 83.9091C157.024 83.4394 157.825 83.2045 158.757 83.2045C159.689 83.2045 160.49 83.4394 161.161 83.9091C161.831 84.3788 162.344 85.0606 162.7 85.9545C163.06 86.8485 163.24 87.928 163.24 89.1932C163.24 90.4659 163.06 91.553 162.7 92.4545C162.344 93.3523 161.831 94.0379 161.161 94.5114C160.494 94.9848 159.693 95.2216 158.757 95.2216ZM158.757 93.4432C159.484 93.4432 160.058 93.0852 160.479 92.3693C160.903 91.6496 161.115 90.5909 161.115 89.1932C161.115 88.2689 161.018 87.4924 160.825 86.8636C160.632 86.2348 160.359 85.7614 160.007 85.4432C159.655 85.1212 159.238 84.9602 158.757 84.9602C158.034 84.9602 157.462 85.3201 157.041 86.0398C156.621 86.7557 156.409 87.8068 156.405 89.1932C156.401 90.1212 156.494 90.9015 156.683 91.5341C156.876 92.1667 157.149 92.6439 157.501 92.9659C157.854 93.2841 158.272 93.4432 158.757 93.4432ZM172.358 95.1534C171.672 95.1534 171.059 94.9773 170.517 94.625C169.975 94.2727 169.547 93.7614 169.233 93.0909C168.919 92.4205 168.761 91.6061 168.761 90.6477C168.761 89.678 168.92 88.8598 169.239 88.1932C169.561 87.5227 169.994 87.017 170.54 86.6761C171.085 86.3314 171.693 86.1591 172.364 86.1591C172.875 86.1591 173.295 86.2462 173.625 86.4205C173.955 86.5909 174.216 86.7973 174.409 87.0398C174.602 87.2784 174.752 87.5038 174.858 87.7159H174.943V83.3636H177.006V95H174.983V93.625H174.858C174.752 93.8371 174.598 94.0625 174.398 94.3011C174.197 94.536 173.932 94.7367 173.602 94.9034C173.273 95.0701 172.858 95.1534 172.358 95.1534ZM172.932 93.4659C173.367 93.4659 173.739 93.3485 174.045 93.1136C174.352 92.875 174.585 92.5436 174.744 92.1193C174.903 91.6951 174.983 91.2008 174.983 90.6364C174.983 90.072 174.903 89.5814 174.744 89.1648C174.589 88.7481 174.358 88.4242 174.051 88.1932C173.748 87.9621 173.375 87.8466 172.932 87.8466C172.473 87.8466 172.091 87.9659 171.784 88.2045C171.477 88.4432 171.246 88.7727 171.091 89.1932C170.936 89.6136 170.858 90.0947 170.858 90.6364C170.858 91.1818 170.936 91.6686 171.091 92.0966C171.25 92.5208 171.483 92.8561 171.79 93.1023C172.1 93.3447 172.481 93.4659 172.932 93.4659ZM181.709 95.1761C181.156 95.1761 180.658 95.0777 180.214 94.8807C179.775 94.6799 179.427 94.3845 179.169 93.9943C178.915 93.6042 178.788 93.1231 178.788 92.5511C178.788 92.0587 178.879 91.6515 179.061 91.3295C179.243 91.0076 179.491 90.75 179.805 90.5568C180.12 90.3636 180.474 90.2178 180.868 90.1193C181.266 90.017 181.677 89.9432 182.101 89.8977C182.612 89.8447 183.027 89.7973 183.345 89.7557C183.663 89.7102 183.894 89.642 184.038 89.5511C184.186 89.4564 184.26 89.3106 184.26 89.1136V89.0795C184.26 88.6515 184.133 88.3201 183.879 88.0852C183.625 87.8504 183.26 87.733 182.783 87.733C182.279 87.733 181.879 87.8428 181.584 88.0625C181.292 88.2822 181.095 88.5417 180.993 88.8409L179.072 88.5682C179.224 88.0379 179.474 87.5947 179.822 87.2386C180.171 86.8788 180.597 86.6098 181.101 86.4318C181.605 86.25 182.161 86.1591 182.771 86.1591C183.192 86.1591 183.61 86.2083 184.027 86.3068C184.444 86.4053 184.824 86.5682 185.169 86.7955C185.514 87.0189 185.79 87.3239 185.999 87.7102C186.211 88.0966 186.317 88.5795 186.317 89.1591V95H184.339V93.8011H184.271C184.146 94.0436 183.97 94.2708 183.743 94.483C183.519 94.6913 183.237 94.8598 182.896 94.9886C182.559 95.1136 182.163 95.1761 181.709 95.1761ZM182.243 93.6648C182.656 93.6648 183.014 93.5833 183.317 93.4205C183.62 93.2538 183.853 93.0341 184.016 92.7614C184.182 92.4886 184.266 92.1913 184.266 91.8693V90.8409C184.201 90.8939 184.091 90.9432 183.936 90.9886C183.785 91.0341 183.614 91.0739 183.425 91.108C183.235 91.142 183.048 91.1723 182.862 91.1989C182.677 91.2254 182.516 91.2481 182.379 91.267C182.072 91.3087 181.798 91.3769 181.555 91.4716C181.313 91.5663 181.122 91.6989 180.982 91.8693C180.841 92.036 180.771 92.2519 180.771 92.517C180.771 92.8958 180.91 93.1818 181.186 93.375C181.463 93.5682 181.815 93.6648 182.243 93.6648ZM189.351 98.2727C189.071 98.2727 188.811 98.25 188.572 98.2045C188.338 98.1629 188.15 98.1136 188.01 98.0568L188.487 96.4545C188.786 96.5417 189.054 96.5833 189.288 96.5795C189.523 96.5758 189.73 96.5019 189.908 96.358C190.089 96.2178 190.243 95.983 190.368 95.6534L190.544 95.1818L187.379 86.2727H189.561L191.572 92.8636H191.663L193.68 86.2727H195.868L192.374 96.0568C192.211 96.5189 191.995 96.9148 191.726 97.2443C191.457 97.5777 191.127 97.8314 190.737 98.0057C190.351 98.1837 189.889 98.2727 189.351 98.2727ZM204.189 88.5795L202.314 88.7841C202.261 88.5947 202.168 88.4167 202.036 88.25C201.907 88.0833 201.732 87.9489 201.513 87.8466C201.293 87.7443 201.024 87.6932 200.706 87.6932C200.278 87.6932 199.918 87.786 199.626 87.9716C199.339 88.1572 199.196 88.3977 199.2 88.6932C199.196 88.947 199.289 89.1534 199.479 89.3125C199.672 89.4716 199.99 89.6023 200.433 89.7045L201.922 90.0227C202.748 90.2008 203.361 90.483 203.763 90.8693C204.168 91.2557 204.373 91.7614 204.376 92.3864C204.373 92.9356 204.212 93.4205 203.893 93.8409C203.579 94.2576 203.142 94.5833 202.581 94.8182C202.02 95.053 201.376 95.1705 200.649 95.1705C199.581 95.1705 198.721 94.947 198.07 94.5C197.418 94.0492 197.03 93.4223 196.905 92.6193L198.911 92.4261C199.001 92.8201 199.195 93.1174 199.49 93.3182C199.786 93.5189 200.17 93.6193 200.643 93.6193C201.132 93.6193 201.524 93.5189 201.82 93.3182C202.119 93.1174 202.268 92.8693 202.268 92.5739C202.268 92.3239 202.172 92.1174 201.979 91.9545C201.789 91.7917 201.494 91.6667 201.092 91.5795L199.604 91.267C198.767 91.0928 198.147 90.7992 197.746 90.3864C197.344 89.9697 197.145 89.4432 197.149 88.8068C197.145 88.2689 197.291 87.803 197.587 87.4091C197.886 87.0114 198.301 86.7045 198.831 86.4886C199.365 86.2689 199.981 86.1591 200.678 86.1591C201.7 86.1591 202.505 86.3769 203.092 86.8125C203.683 87.2481 204.049 87.8371 204.189 88.5795Z" fill="#9CA3AF"/>
<path d="M66.0732 97.4545V72.9091H67.6456V97.4545H66.0732ZM70.6083 80.7617C70.5188 79.9244 70.1417 79.2724 69.4769 78.8058C68.8185 78.3391 67.962 78.1058 66.9073 78.1058C66.1658 78.1058 65.5298 78.2177 64.9993 78.4414C64.4688 78.6651 64.0629 78.9687 63.7816 79.3523C63.5004 79.7358 63.3565 80.1737 63.3501 80.6658C63.3501 81.0749 63.4428 81.4297 63.6282 81.7301C63.82 82.0305 64.0788 82.2862 64.4048 82.4972C64.7308 82.7017 65.092 82.8743 65.4883 83.0149C65.8846 83.1555 66.2841 83.2738 66.6868 83.3697L68.5277 83.8299C69.2692 84.0025 69.9819 84.2358 70.6658 84.5298C71.3562 84.8239 71.973 85.1946 72.5163 85.642C73.0661 86.0895 73.5007 86.6296 73.8203 87.2624C74.1399 87.8952 74.2997 88.6367 74.2997 89.4869C74.2997 90.6374 74.0057 91.6506 73.4176 92.5263C72.8295 93.3956 71.9794 94.0763 70.8672 94.5685C69.7614 95.0543 68.4222 95.2972 66.8498 95.2972C65.3221 95.2972 63.9957 95.0607 62.8707 94.5877C61.7521 94.1147 60.8764 93.4244 60.2436 92.5167C59.6172 91.609 59.2784 90.5032 59.2273 89.1992H62.7269C62.7781 89.8832 62.989 90.4521 63.3597 90.9059C63.7305 91.3597 64.2131 91.6985 64.8075 91.9222C65.4084 92.146 66.0795 92.2578 66.821 92.2578C67.5945 92.2578 68.272 92.1428 68.8537 91.9126C69.4418 91.6761 69.902 91.3501 70.2344 90.9347C70.5668 90.5128 70.7362 90.0206 70.7425 89.4581C70.7362 88.9467 70.5859 88.5249 70.2919 88.1925C69.9979 87.8537 69.5856 87.5724 69.055 87.3487C68.5309 87.1186 67.9173 86.9141 67.2141 86.7351L64.9801 86.1598C63.3629 85.7443 62.0845 85.1147 61.1449 84.271C60.2116 83.4208 59.745 82.2926 59.745 80.8864C59.745 79.7294 60.0582 78.7163 60.6847 77.8469C61.3175 76.9776 62.1772 76.3033 63.2638 75.8239C64.3505 75.3381 65.581 75.0952 66.9553 75.0952C68.3487 75.0952 69.5696 75.3381 70.6179 75.8239C71.6726 76.3033 72.5004 76.9712 73.1012 77.8278C73.7021 78.6779 74.0121 79.6559 74.0312 80.7617H70.6083ZM84.5374 95.3739C82.9585 95.3739 81.6034 94.9744 80.472 94.1754C79.347 93.37 78.4809 92.2099 77.8737 90.695C77.2728 89.1737 76.9724 87.3423 76.9724 85.201C76.9788 83.0597 77.2824 81.2379 77.8833 79.7358C78.4905 78.2273 79.3566 77.0767 80.4816 76.2841C81.613 75.4915 82.9649 75.0952 84.5374 75.0952C86.1098 75.0952 87.4617 75.4915 88.5931 76.2841C89.7245 77.0767 90.5906 78.2273 91.1915 79.7358C91.7987 81.2443 92.1024 83.0661 92.1024 85.201C92.1024 87.3487 91.7987 89.1832 91.1915 90.7045C90.5906 92.2195 89.7245 93.3764 88.5931 94.1754C87.4681 94.9744 86.1162 95.3739 84.5374 95.3739ZM84.5374 92.3729C85.7646 92.3729 86.733 91.7688 87.4426 90.5607C88.1585 89.3462 88.5164 87.5597 88.5164 85.201C88.5164 83.6413 88.3534 82.331 88.0274 81.2699C87.7014 80.2088 87.2412 79.4098 86.6468 78.8729C86.0523 78.3295 85.3492 78.0579 84.5374 78.0579C83.3165 78.0579 82.3513 78.6651 81.6418 79.8796C80.9323 81.0877 80.5743 82.8615 80.5679 85.201C80.5615 86.767 80.7181 88.0838 81.0377 89.1513C81.3637 90.2187 81.824 91.0241 82.4184 91.5675C83.0129 92.1044 83.7192 92.3729 84.5374 92.3729ZM103.342 74.4432L97.0138 97.9531H93.9744L100.303 74.4432H103.342ZM111.847 97.4545V72.9091H113.419V97.4545H111.847ZM116.382 80.7617C116.292 79.9244 115.915 79.2724 115.25 78.8058C114.592 78.3391 113.735 78.1058 112.681 78.1058C111.939 78.1058 111.303 78.2177 110.773 78.4414C110.242 78.6651 109.836 78.9687 109.555 79.3523C109.274 79.7358 109.13 80.1737 109.124 80.6658C109.124 81.0749 109.216 81.4297 109.402 81.7301C109.593 82.0305 109.852 82.2862 110.178 82.4972C110.504 82.7017 110.865 82.8743 111.262 83.0149C111.658 83.1555 112.058 83.2738 112.46 83.3697L114.301 83.8299C115.043 84.0025 115.755 84.2358 116.439 84.5298C117.13 84.8239 117.746 85.1946 118.29 85.642C118.839 86.0895 119.274 86.6296 119.594 87.2624C119.913 87.8952 120.073 88.6367 120.073 89.4869C120.073 90.6374 119.779 91.6506 119.191 92.5263C118.603 93.3956 117.753 94.0763 116.641 94.5685C115.535 95.0543 114.196 95.2972 112.623 95.2972C111.096 95.2972 109.769 95.0607 108.644 94.5877C107.526 94.1147 106.65 93.4244 106.017 92.5167C105.391 91.609 105.052 90.5032 105.001 89.1992H108.5C108.551 89.8832 108.762 90.4521 109.133 90.9059C109.504 91.3597 109.987 91.6985 110.581 91.9222C111.182 92.146 111.853 92.2578 112.594 92.2578C113.368 92.2578 114.045 92.1428 114.627 91.9126C115.215 91.6761 115.675 91.3501 116.008 90.9347C116.34 90.5128 116.51 90.0206 116.516 89.4581C116.51 88.9467 116.359 88.5249 116.065 88.1925C115.771 87.8537 115.359 87.5724 114.828 87.3487C114.304 87.1186 113.691 86.9141 112.988 86.7351L110.754 86.1598C109.136 85.7443 107.858 85.1147 106.918 84.271C105.985 83.4208 105.518 82.2926 105.518 80.8864C105.518 79.7294 105.832 78.7163 106.458 77.8469C107.091 76.9776 107.951 76.3033 109.037 75.8239C110.124 75.3381 111.354 75.0952 112.729 75.0952C114.122 75.0952 115.343 75.3381 116.391 75.8239C117.446 76.3033 118.274 76.9712 118.875 77.8278C119.475 78.6779 119.786 79.6559 119.805 80.7617H116.382ZM130.311 95.3739C128.732 95.3739 127.377 94.9744 126.245 94.1754C125.12 93.37 124.254 92.2099 123.647 90.695C123.046 89.1737 122.746 87.3423 122.746 85.201C122.752 83.0597 123.056 81.2379 123.657 79.7358C124.264 78.2273 125.13 77.0767 126.255 76.2841C127.386 75.4915 128.738 75.0952 130.311 75.0952C131.883 75.0952 133.235 75.4915 134.367 76.2841C135.498 77.0767 136.364 78.2273 136.965 79.7358C137.572 81.2443 137.876 83.0661 137.876 85.201C137.876 87.3487 137.572 89.1832 136.965 90.7045C136.364 92.2195 135.498 93.3764 134.367 94.1754C133.242 94.9744 131.89 95.3739 130.311 95.3739ZM130.311 92.3729C131.538 92.3729 132.506 91.7688 133.216 90.5607C133.932 89.3462 134.29 87.5597 134.29 85.201C134.29 83.6413 134.127 82.331 133.801 81.2699C133.475 80.2088 133.015 79.4098 132.42 78.8729C131.826 78.3295 131.123 78.0579 130.311 78.0579C129.09 78.0579 128.125 78.6651 127.415 79.8796C126.706 81.0877 126.348 82.8615 126.341 85.201C126.335 86.767 126.492 88.0838 126.811 89.1513C127.137 90.2187 127.597 91.0241 128.192 91.5675C128.786 92.1044 129.493 92.3729 130.311 92.3729Z" fill="#167BB7"/>
<path d="M353.278 50V38.3636H360.574V39.875H355.034V43.4205H360.193V44.9261H355.034V48.4886H360.642V50H353.278ZM370.249 41.2727L367.084 50H365.266L362.095 41.2727H363.919L366.129 47.9886H366.22L368.425 41.2727H370.249ZM375.31 50.1761C374.45 50.1761 373.709 49.9924 373.088 49.625C372.471 49.2538 371.993 48.733 371.656 48.0625C371.323 47.3883 371.156 46.5985 371.156 45.6932C371.156 44.7992 371.323 44.0114 371.656 43.3295C371.993 42.6477 372.463 42.1155 373.065 41.733C373.671 41.3504 374.38 41.1591 375.19 41.1591C375.683 41.1591 376.16 41.2405 376.622 41.4034C377.084 41.5663 377.499 41.822 377.866 42.1705C378.234 42.5189 378.524 42.9716 378.736 43.5284C378.948 44.0814 379.054 44.7538 379.054 45.5455V46.1477H372.116V44.875H377.389C377.389 44.428 377.298 44.0322 377.116 43.6875C376.935 43.339 376.679 43.0644 376.349 42.8636C376.024 42.6629 375.641 42.5625 375.202 42.5625C374.724 42.5625 374.308 42.6799 373.952 42.9148C373.599 43.1458 373.327 43.4489 373.134 43.8239C372.944 44.1951 372.849 44.5985 372.849 45.0341V46.0284C372.849 46.6117 372.952 47.108 373.156 47.517C373.365 47.9261 373.654 48.2386 374.026 48.4545C374.397 48.6667 374.83 48.7727 375.327 48.7727C375.649 48.7727 375.942 48.7273 376.207 48.6364C376.473 48.5417 376.702 48.4015 376.895 48.2159C377.088 48.0303 377.236 47.8011 377.338 47.5284L378.946 47.8182C378.817 48.2917 378.586 48.7064 378.253 49.0625C377.923 49.4148 377.509 49.6894 377.009 49.8864C376.512 50.0795 375.946 50.1761 375.31 50.1761ZM380.939 50V41.2727H382.581V42.6591H382.672C382.831 42.1894 383.111 41.8201 383.513 41.5511C383.918 41.2784 384.376 41.142 384.888 41.142C384.994 41.142 385.119 41.1458 385.263 41.1534C385.411 41.161 385.526 41.1705 385.609 41.1818V42.8068C385.541 42.7879 385.42 42.767 385.246 42.7443C385.071 42.7178 384.897 42.7045 384.723 42.7045C384.321 42.7045 383.964 42.7898 383.649 42.9602C383.339 43.1269 383.092 43.3598 382.911 43.6591C382.729 43.9545 382.638 44.2917 382.638 44.6705V50H380.939ZM390.426 53.4545C389.733 53.4545 389.136 53.3636 388.636 53.1818C388.14 53 387.735 52.7595 387.42 52.4602C387.106 52.161 386.871 51.8333 386.716 51.4773L388.176 50.875C388.278 51.0417 388.415 51.2178 388.585 51.4034C388.759 51.5928 388.994 51.7538 389.29 51.8864C389.589 52.0189 389.973 52.0852 390.443 52.0852C391.087 52.0852 391.619 51.928 392.04 51.6136C392.46 51.303 392.67 50.8068 392.67 50.125V48.4091H392.562C392.46 48.5947 392.313 48.8011 392.119 49.0284C391.93 49.2557 391.669 49.4527 391.335 49.6193C391.002 49.786 390.568 49.8693 390.034 49.8693C389.345 49.8693 388.723 49.7083 388.17 49.3864C387.621 49.0606 387.186 48.5814 386.864 47.9489C386.545 47.3125 386.386 46.5303 386.386 45.6023C386.386 44.6742 386.544 43.8788 386.858 43.2159C387.176 42.553 387.612 42.0455 388.165 41.6932C388.718 41.3371 389.345 41.1591 390.045 41.1591C390.587 41.1591 391.025 41.25 391.358 41.4318C391.691 41.6098 391.951 41.8182 392.136 42.0568C392.326 42.2955 392.472 42.5057 392.574 42.6875H392.699V41.2727H394.364V50.1932C394.364 50.9432 394.189 51.5587 393.841 52.0398C393.492 52.5208 393.021 52.8769 392.426 53.108C391.835 53.339 391.169 53.4545 390.426 53.4545ZM390.409 48.4602C390.898 48.4602 391.311 48.3466 391.648 48.1193C391.989 47.8883 392.246 47.5587 392.42 47.1307C392.598 46.6989 392.688 46.1818 392.688 45.5795C392.688 44.9924 392.6 44.4754 392.426 44.0284C392.252 43.5814 391.996 43.233 391.659 42.983C391.322 42.7292 390.905 42.6023 390.409 42.6023C389.898 42.6023 389.472 42.7348 389.131 43C388.79 43.2614 388.532 43.6174 388.358 44.0682C388.188 44.5189 388.102 45.0227 388.102 45.5795C388.102 46.1515 388.189 46.6534 388.364 47.0852C388.538 47.517 388.795 47.8542 389.136 48.0966C389.481 48.339 389.905 48.4602 390.409 48.4602ZM396.642 50V41.2727H398.284V42.6591H398.375C398.534 42.1894 398.814 41.8201 399.216 41.5511C399.621 41.2784 400.08 41.142 400.591 41.142C400.697 41.142 400.822 41.1458 400.966 41.1534C401.114 41.161 401.229 41.1705 401.312 41.1818V42.8068C401.244 42.7879 401.123 42.767 400.949 42.7443C400.775 42.7178 400.6 42.7045 400.426 42.7045C400.025 42.7045 399.667 42.7898 399.352 42.9602C399.042 43.1269 398.795 43.3598 398.614 43.6591C398.432 43.9545 398.341 44.2917 398.341 44.6705V50H396.642ZM406.232 50.1761C405.372 50.1761 404.631 49.9924 404.01 49.625C403.393 49.2538 402.915 48.733 402.578 48.0625C402.245 47.3883 402.078 46.5985 402.078 45.6932C402.078 44.7992 402.245 44.0114 402.578 43.3295C402.915 42.6477 403.385 42.1155 403.987 41.733C404.593 41.3504 405.302 41.1591 406.112 41.1591C406.605 41.1591 407.082 41.2405 407.544 41.4034C408.006 41.5663 408.421 41.822 408.788 42.1705C409.156 42.5189 409.446 42.9716 409.658 43.5284C409.87 44.0814 409.976 44.7538 409.976 45.5455V46.1477H403.038V44.875H408.311C408.311 44.428 408.22 44.0322 408.038 43.6875C407.857 43.339 407.601 43.0644 407.271 42.8636C406.946 42.6629 406.563 42.5625 406.124 42.5625C405.646 42.5625 405.23 42.6799 404.874 42.9148C404.521 43.1458 404.249 43.4489 404.055 43.8239C403.866 44.1951 403.771 44.5985 403.771 45.0341V46.0284C403.771 46.6117 403.874 47.108 404.078 47.517C404.286 47.9261 404.576 48.2386 404.947 48.4545C405.319 48.6667 405.752 48.7727 406.249 48.7727C406.571 48.7727 406.864 48.7273 407.129 48.6364C407.394 48.5417 407.624 48.4015 407.817 48.2159C408.01 48.0303 408.158 47.8011 408.26 47.5284L409.868 47.8182C409.739 48.2917 409.508 48.7064 409.175 49.0625C408.845 49.4148 408.43 49.6894 407.93 49.8864C407.434 50.0795 406.868 50.1761 406.232 50.1761ZM415.622 50.1761C414.762 50.1761 414.022 49.9924 413.401 49.625C412.783 49.2538 412.306 48.733 411.969 48.0625C411.635 47.3883 411.469 46.5985 411.469 45.6932C411.469 44.7992 411.635 44.0114 411.969 43.3295C412.306 42.6477 412.776 42.1155 413.378 41.733C413.984 41.3504 414.692 41.1591 415.503 41.1591C415.995 41.1591 416.473 41.2405 416.935 41.4034C417.397 41.5663 417.812 41.822 418.179 42.1705C418.546 42.5189 418.836 42.9716 419.048 43.5284C419.26 44.0814 419.366 44.7538 419.366 45.5455V46.1477H412.429V44.875H417.702C417.702 44.428 417.611 44.0322 417.429 43.6875C417.247 43.339 416.991 43.0644 416.662 42.8636C416.336 42.6629 415.954 42.5625 415.514 42.5625C415.037 42.5625 414.62 42.6799 414.264 42.9148C413.912 43.1458 413.639 43.4489 413.446 43.8239C413.257 44.1951 413.162 44.5985 413.162 45.0341V46.0284C413.162 46.6117 413.264 47.108 413.469 47.517C413.677 47.9261 413.967 48.2386 414.338 48.4545C414.709 48.6667 415.143 48.7727 415.639 48.7727C415.961 48.7727 416.255 48.7273 416.52 48.6364C416.785 48.5417 417.014 48.4015 417.207 48.2159C417.401 48.0303 417.548 47.8011 417.651 47.5284L419.259 47.8182C419.13 48.2917 418.899 48.7064 418.565 49.0625C418.236 49.4148 417.821 49.6894 417.321 49.8864C416.825 50.0795 416.259 50.1761 415.622 50.1761ZM422.95 44.8182V50H421.251V41.2727H422.882V42.6932H422.99C423.191 42.2311 423.505 41.8598 423.933 41.5795C424.365 41.2992 424.909 41.1591 425.564 41.1591C426.159 41.1591 426.679 41.2841 427.126 41.5341C427.573 41.7803 427.92 42.1477 428.166 42.6364C428.412 43.125 428.536 43.7292 428.536 44.4489V50H426.837V44.6534C426.837 44.0208 426.672 43.5265 426.342 43.1705C426.013 42.8106 425.56 42.6307 424.984 42.6307C424.59 42.6307 424.24 42.7159 423.933 42.8864C423.63 43.0568 423.39 43.3068 423.212 43.6364C423.037 43.9621 422.95 44.3561 422.95 44.8182Z" fill="white"/>
<path d="M421.619 91.3295V86.2727H423.676V95H421.682V93.4489H421.591C421.394 93.9375 421.07 94.3371 420.619 94.6477C420.172 94.9583 419.621 95.1136 418.966 95.1136C418.394 95.1136 417.888 94.9867 417.449 94.733C417.013 94.4754 416.672 94.1023 416.426 93.6136C416.18 93.1212 416.057 92.5265 416.057 91.8295V86.2727H418.114V91.5114C418.114 92.0644 418.265 92.5038 418.568 92.8295C418.871 93.1553 419.269 93.3182 419.761 93.3182C420.064 93.3182 420.358 93.2443 420.642 93.0966C420.926 92.9489 421.159 92.7292 421.341 92.4375C421.527 92.142 421.619 91.7727 421.619 91.3295ZM427.848 89.8864V95H425.791V86.2727H427.757V87.7557H427.859C428.06 87.267 428.38 86.8788 428.82 86.5909C429.263 86.303 429.81 86.1591 430.462 86.1591C431.064 86.1591 431.589 86.2879 432.036 86.5455C432.486 86.803 432.835 87.1761 433.081 87.6648C433.331 88.1534 433.454 88.7462 433.45 89.4432V95H431.393V89.7614C431.393 89.178 431.242 88.7216 430.939 88.392C430.64 88.0625 430.225 87.8977 429.695 87.8977C429.335 87.8977 429.015 87.9773 428.734 88.1364C428.458 88.2917 428.24 88.517 428.081 88.8125C427.926 89.108 427.848 89.4659 427.848 89.8864ZM435.632 95V83.3636H437.689V87.7159H437.774C437.88 87.5038 438.03 87.2784 438.223 87.0398C438.416 86.7973 438.678 86.5909 439.007 86.4205C439.337 86.2462 439.757 86.1591 440.268 86.1591C440.943 86.1591 441.551 86.3314 442.092 86.6761C442.638 87.017 443.07 87.5227 443.388 88.1932C443.71 88.8598 443.871 89.678 443.871 90.6477C443.871 91.6061 443.714 92.4205 443.399 93.0909C443.085 93.7614 442.657 94.2727 442.115 94.625C441.573 94.9773 440.96 95.1534 440.274 95.1534C439.774 95.1534 439.359 95.0701 439.03 94.9034C438.7 94.7367 438.435 94.536 438.234 94.3011C438.037 94.0625 437.884 93.8371 437.774 93.625H437.655V95H435.632ZM437.649 90.6364C437.649 91.2008 437.729 91.6951 437.888 92.1193C438.051 92.5436 438.284 92.875 438.587 93.1136C438.893 93.3485 439.265 93.4659 439.7 93.4659C440.155 93.4659 440.536 93.3447 440.842 93.1023C441.149 92.8561 441.38 92.5208 441.536 92.0966C441.695 91.6686 441.774 91.1818 441.774 90.6364C441.774 90.0947 441.696 89.6136 441.541 89.1932C441.386 88.7727 441.155 88.4432 440.848 88.2045C440.541 87.9659 440.159 87.8466 439.7 87.8466C439.261 87.8466 438.888 87.9621 438.581 88.1932C438.274 88.4242 438.041 88.7481 437.882 89.1648C437.727 89.5814 437.649 90.072 437.649 90.6364ZM449.426 95.1705C448.574 95.1705 447.835 94.983 447.21 94.608C446.585 94.233 446.1 93.7083 445.756 93.0341C445.415 92.3598 445.244 91.572 445.244 90.6705C445.244 89.7689 445.415 88.9792 445.756 88.3011C446.1 87.6231 446.585 87.0966 447.21 86.7216C447.835 86.3466 448.574 86.1591 449.426 86.1591C450.278 86.1591 451.017 86.3466 451.642 86.7216C452.267 87.0966 452.75 87.6231 453.091 88.3011C453.436 88.9792 453.608 89.7689 453.608 90.6705C453.608 91.572 453.436 92.3598 453.091 93.0341C452.75 93.7083 452.267 94.233 451.642 94.608C451.017 94.983 450.278 95.1705 449.426 95.1705ZM449.438 93.5227C449.9 93.5227 450.286 93.3958 450.597 93.142C450.907 92.8845 451.138 92.5398 451.29 92.108C451.445 91.6761 451.523 91.1951 451.523 90.6648C451.523 90.1307 451.445 89.6477 451.29 89.2159C451.138 88.7803 450.907 88.4337 450.597 88.1761C450.286 87.9186 449.9 87.7898 449.438 87.7898C448.964 87.7898 448.57 87.9186 448.256 88.1761C447.945 88.4337 447.712 88.7803 447.557 89.2159C447.405 89.6477 447.33 90.1307 447.33 90.6648C447.33 91.1951 447.405 91.6761 447.557 92.108C447.712 92.5398 447.945 92.8845 448.256 93.142C448.57 93.3958 448.964 93.5227 449.438 93.5227ZM460.916 91.3295V86.2727H462.973V95H460.979V93.4489H460.888C460.691 93.9375 460.367 94.3371 459.916 94.6477C459.469 94.9583 458.918 95.1136 458.263 95.1136C457.691 95.1136 457.185 94.9867 456.746 94.733C456.31 94.4754 455.969 94.1023 455.723 93.6136C455.477 93.1212 455.354 92.5265 455.354 91.8295V86.2727H457.411V91.5114C457.411 92.0644 457.562 92.5038 457.865 92.8295C458.168 93.1553 458.566 93.3182 459.058 93.3182C459.361 93.3182 459.655 93.2443 459.939 93.0966C460.223 92.9489 460.456 92.7292 460.638 92.4375C460.823 92.142 460.916 91.7727 460.916 91.3295ZM467.145 89.8864V95H465.088V86.2727H467.054V87.7557H467.156C467.357 87.267 467.677 86.8788 468.116 86.5909C468.56 86.303 469.107 86.1591 469.759 86.1591C470.361 86.1591 470.885 86.2879 471.332 86.5455C471.783 86.803 472.132 87.1761 472.378 87.6648C472.628 88.1534 472.751 88.7462 472.747 89.4432V95H470.69V89.7614C470.69 89.178 470.539 88.7216 470.236 88.392C469.937 88.0625 469.522 87.8977 468.991 87.8977C468.632 87.8977 468.312 87.9773 468.031 88.1364C467.755 88.2917 467.537 88.517 467.378 88.8125C467.223 89.108 467.145 89.4659 467.145 89.8864ZM478.077 95.1534C477.391 95.1534 476.777 94.9773 476.236 94.625C475.694 94.2727 475.266 93.7614 474.952 93.0909C474.637 92.4205 474.48 91.6061 474.48 90.6477C474.48 89.678 474.639 88.8598 474.957 88.1932C475.279 87.5227 475.713 87.017 476.259 86.6761C476.804 86.3314 477.412 86.1591 478.082 86.1591C478.594 86.1591 479.014 86.2462 479.344 86.4205C479.673 86.5909 479.935 86.7973 480.128 87.0398C480.321 87.2784 480.471 87.5038 480.577 87.7159H480.662V83.3636H482.724V95H480.702V93.625H480.577C480.471 93.8371 480.317 94.0625 480.116 94.3011C479.916 94.536 479.651 94.7367 479.321 94.9034C478.991 95.0701 478.577 95.1534 478.077 95.1534ZM478.651 93.4659C479.086 93.4659 479.457 93.3485 479.764 93.1136C480.071 92.875 480.304 92.5436 480.463 92.1193C480.622 91.6951 480.702 91.2008 480.702 90.6364C480.702 90.072 480.622 89.5814 480.463 89.1648C480.308 88.7481 480.077 88.4242 479.77 88.1932C479.467 87.9621 479.094 87.8466 478.651 87.8466C478.192 87.8466 477.81 87.9659 477.503 88.2045C477.196 88.4432 476.965 88.7727 476.81 89.1932C476.654 89.6136 476.577 90.0947 476.577 90.6364C476.577 91.1818 476.654 91.6686 476.81 92.0966C476.969 92.5208 477.202 92.8561 477.509 93.1023C477.819 93.3447 478.2 93.4659 478.651 93.4659ZM488.78 95.1705C487.905 95.1705 487.149 94.9886 486.513 94.625C485.88 94.2576 485.393 93.7386 485.053 93.0682C484.712 92.3939 484.541 91.6004 484.541 90.6875C484.541 89.7898 484.712 89.0019 485.053 88.3239C485.397 87.642 485.878 87.1117 486.496 86.733C487.113 86.3504 487.839 86.1591 488.672 86.1591C489.21 86.1591 489.717 86.2462 490.195 86.4205C490.676 86.5909 491.1 86.8561 491.467 87.2159C491.839 87.5758 492.13 88.0341 492.342 88.5909C492.554 89.1439 492.661 89.803 492.661 90.5682V91.1989H485.507V89.8125H490.689C490.685 89.4186 490.6 89.0682 490.433 88.7614C490.267 88.4508 490.034 88.2064 489.734 88.0284C489.439 87.8504 489.094 87.7614 488.7 87.7614C488.28 87.7614 487.911 87.8636 487.592 88.0682C487.274 88.2689 487.026 88.5341 486.848 88.8636C486.674 89.1894 486.585 89.5473 486.581 89.9375V91.1477C486.581 91.6553 486.674 92.0909 486.859 92.4545C487.045 92.8144 487.304 93.0909 487.638 93.2841C487.971 93.4735 488.361 93.5682 488.808 93.5682C489.107 93.5682 489.378 93.5265 489.621 93.4432C489.863 93.3561 490.073 93.2292 490.251 93.0625C490.429 92.8958 490.564 92.6894 490.655 92.4432L492.575 92.6591C492.454 93.1667 492.223 93.6098 491.882 93.9886C491.545 94.3636 491.113 94.6553 490.587 94.8636C490.06 95.0682 489.458 95.1705 488.78 95.1705ZM497.639 95.1534C496.954 95.1534 496.34 94.9773 495.798 94.625C495.257 94.2727 494.829 93.7614 494.514 93.0909C494.2 92.4205 494.043 91.6061 494.043 90.6477C494.043 89.678 494.202 88.8598 494.52 88.1932C494.842 87.5227 495.276 87.017 495.821 86.6761C496.366 86.3314 496.974 86.1591 497.645 86.1591C498.156 86.1591 498.577 86.2462 498.906 86.4205C499.236 86.5909 499.497 86.7973 499.69 87.0398C499.884 87.2784 500.033 87.5038 500.139 87.7159H500.224V83.3636H502.287V95H500.264V93.625H500.139C500.033 93.8371 499.88 94.0625 499.679 94.3011C499.478 94.536 499.213 94.7367 498.884 94.9034C498.554 95.0701 498.139 95.1534 497.639 95.1534ZM498.213 93.4659C498.649 93.4659 499.02 93.3485 499.327 93.1136C499.634 92.875 499.866 92.5436 500.026 92.1193C500.185 91.6951 500.264 91.2008 500.264 90.6364C500.264 90.072 500.185 89.5814 500.026 89.1648C499.87 88.7481 499.639 88.4242 499.332 88.1932C499.029 87.9621 498.656 87.8466 498.213 87.8466C497.755 87.8466 497.372 87.9659 497.065 88.2045C496.759 88.4432 496.527 88.7727 496.372 89.1932C496.217 89.6136 496.139 90.0947 496.139 90.6364C496.139 91.1818 496.217 91.6686 496.372 92.0966C496.531 92.5208 496.764 92.8561 497.071 93.1023C497.382 93.3447 497.762 93.4659 498.213 93.4659Z" fill="#E5E7EB"/>
<path d="M286.073 97.4545V72.9091H287.646V97.4545H286.073ZM290.608 80.7617C290.519 79.9244 290.142 79.2724 289.477 78.8058C288.819 78.3391 287.962 78.1058 286.907 78.1058C286.166 78.1058 285.53 78.2177 284.999 78.4414C284.469 78.6651 284.063 78.9687 283.782 79.3523C283.5 79.7358 283.357 80.1737 283.35 80.6658C283.35 81.0749 283.443 81.4297 283.628 81.7301C283.82 82.0305 284.079 82.2862 284.405 82.4972C284.731 82.7017 285.092 82.8743 285.488 83.0149C285.885 83.1555 286.284 83.2738 286.687 83.3697L288.528 83.8299C289.269 84.0025 289.982 84.2358 290.666 84.5298C291.356 84.8239 291.973 85.1946 292.516 85.642C293.066 86.0895 293.501 86.6296 293.82 87.2624C294.14 87.8952 294.3 88.6367 294.3 89.4869C294.3 90.6374 294.006 91.6506 293.418 92.5263C292.83 93.3956 291.979 94.0763 290.867 94.5685C289.761 95.0543 288.422 95.2972 286.85 95.2972C285.322 95.2972 283.996 95.0607 282.871 94.5877C281.752 94.1147 280.876 93.4244 280.244 92.5167C279.617 91.609 279.278 90.5032 279.227 89.1992H282.727C282.778 89.8832 282.989 90.4521 283.36 90.9059C283.73 91.3597 284.213 91.6985 284.808 91.9222C285.408 92.146 286.08 92.2578 286.821 92.2578C287.594 92.2578 288.272 92.1428 288.854 91.9126C289.442 91.6761 289.902 91.3501 290.234 90.9347C290.567 90.5128 290.736 90.0206 290.743 89.4581C290.736 88.9467 290.586 88.5249 290.292 88.1925C289.998 87.8537 289.586 87.5724 289.055 87.3487C288.531 87.1186 287.917 86.9141 287.214 86.7351L284.98 86.1598C283.363 85.7443 282.085 85.1147 281.145 84.271C280.212 83.4208 279.745 82.2926 279.745 80.8864C279.745 79.7294 280.058 78.7163 280.685 77.8469C281.317 76.9776 282.177 76.3033 283.264 75.8239C284.35 75.3381 285.581 75.0952 286.955 75.0952C288.349 75.0952 289.57 75.3381 290.618 75.8239C291.673 76.3033 292.5 76.9712 293.101 77.8278C293.702 78.6779 294.012 79.6559 294.031 80.7617H290.608ZM297.998 95L306.35 78.4702V78.3359H296.656V75.3636H310.031V78.4031L301.69 95H297.998ZM319.689 95.2685C318.411 95.2685 317.266 95.0288 316.256 94.5494C315.246 94.0636 314.444 93.3988 313.85 92.555C313.262 91.7113 312.949 90.7461 312.91 89.6594H316.362C316.426 90.4648 316.774 91.1232 317.407 91.6346C318.04 92.1396 318.8 92.392 319.689 92.392C320.386 92.392 321.006 92.2322 321.549 91.9126C322.092 91.593 322.521 91.1488 322.834 90.5799C323.147 90.011 323.3 89.3622 323.294 88.6335C323.3 87.892 323.144 87.2337 322.824 86.6584C322.505 86.0831 322.067 85.6325 321.511 85.3065C320.955 84.9741 320.315 84.8079 319.593 84.8079C319.005 84.8015 318.426 84.9102 317.858 85.1339C317.289 85.3576 316.838 85.6516 316.506 86.016L313.294 85.4886L314.32 75.3636H325.71V78.3359H317.263L316.697 83.5423H316.812C317.177 83.114 317.691 82.7592 318.356 82.478C319.021 82.1903 319.75 82.0465 320.542 82.0465C321.731 82.0465 322.792 82.3278 323.725 82.8903C324.659 83.4464 325.394 84.2134 325.931 85.1914C326.468 86.1694 326.736 87.288 326.736 88.5472C326.736 89.8448 326.436 91.0018 325.835 92.0181C325.24 93.0281 324.413 93.8239 323.352 94.4055C322.297 94.9808 321.076 95.2685 319.689 95.2685ZM338.002 74.4432L331.674 97.9531H328.635L334.963 74.4432H338.002ZM346.507 97.4545V72.9091H348.079V97.4545H346.507ZM351.042 80.7617C350.952 79.9244 350.575 79.2724 349.911 78.8058C349.252 78.3391 348.396 78.1058 347.341 78.1058C346.599 78.1058 345.963 78.2177 345.433 78.4414C344.902 78.6651 344.496 78.9687 344.215 79.3523C343.934 79.7358 343.79 80.1737 343.784 80.6658C343.784 81.0749 343.876 81.4297 344.062 81.7301C344.254 82.0305 344.512 82.2862 344.838 82.4972C345.164 82.7017 345.526 82.8743 345.922 83.0149C346.318 83.1555 346.718 83.2738 347.12 83.3697L348.961 83.8299C349.703 84.0025 350.415 84.2358 351.099 84.5298C351.79 84.8239 352.407 85.1946 352.95 85.642C353.5 86.0895 353.934 86.6296 354.254 87.2624C354.574 87.8952 354.733 88.6367 354.733 89.4869C354.733 90.6374 354.439 91.6506 353.851 92.5263C353.263 93.3956 352.413 94.0763 351.301 94.5685C350.195 95.0543 348.856 95.2972 347.283 95.2972C345.756 95.2972 344.429 95.0607 343.304 94.5877C342.186 94.1147 341.31 93.4244 340.677 92.5167C340.051 91.609 339.712 90.5032 339.661 89.1992H343.161C343.212 89.8832 343.423 90.4521 343.793 90.9059C344.164 91.3597 344.647 91.6985 345.241 91.9222C345.842 92.146 346.513 92.2578 347.255 92.2578C348.028 92.2578 348.706 92.1428 349.287 91.9126C349.875 91.6761 350.336 91.3501 350.668 90.9347C351 90.5128 351.17 90.0206 351.176 89.4581C351.17 88.9467 351.02 88.5249 350.725 88.1925C350.431 87.8537 350.019 87.5724 349.489 87.3487C348.964 87.1186 348.351 86.9141 347.648 86.7351L345.414 86.1598C343.797 85.7443 342.518 85.1147 341.578 84.271C340.645 83.4208 340.179 82.2926 340.179 80.8864C340.179 79.7294 340.492 78.7163 341.118 77.8469C341.751 76.9776 342.611 76.3033 343.697 75.8239C344.784 75.3381 346.015 75.0952 347.389 75.0952C348.782 75.0952 350.003 75.3381 351.051 75.8239C352.106 76.3033 352.934 76.9712 353.535 77.8278C354.136 78.6779 354.446 79.6559 354.465 80.7617H351.042ZM365.7 75.3636V95H362.142V78.8249H362.027L357.435 81.7589V78.4989L362.315 75.3636H365.7ZM377.944 95.3739C376.365 95.3739 375.01 94.9744 373.878 94.1754C372.753 93.37 371.887 92.2099 371.28 90.695C370.679 89.1737 370.379 87.3423 370.379 85.201C370.385 83.0597 370.689 81.2379 371.29 79.7358C371.897 78.2273 372.763 77.0767 373.888 76.2841C375.019 75.4915 376.371 75.0952 377.944 75.0952C379.516 75.0952 380.868 75.4915 381.999 76.2841C383.131 77.0767 383.997 78.2273 384.598 79.7358C385.205 81.2443 385.509 83.0661 385.509 85.201C385.509 87.3487 385.205 89.1832 384.598 90.7045C383.997 92.2195 383.131 93.3764 381.999 94.1754C380.874 94.9744 379.522 95.3739 377.944 95.3739ZM377.944 92.3729C379.171 92.3729 380.139 91.7688 380.849 90.5607C381.565 89.3462 381.923 87.5597 381.923 85.201C381.923 83.6413 381.76 82.331 381.434 81.2699C381.108 80.2088 380.647 79.4098 380.053 78.8729C379.459 78.3295 378.755 78.0579 377.944 78.0579C376.723 78.0579 375.758 78.6651 375.048 79.8796C374.339 81.0877 373.981 82.8615 373.974 85.201C373.968 86.767 374.124 88.0838 374.444 89.1513C374.77 90.2187 375.23 91.0241 375.825 91.5675C376.419 92.1044 377.125 92.3729 377.944 92.3729ZM395.952 95.3739C394.374 95.3739 393.018 94.9744 391.887 94.1754C390.762 93.37 389.896 92.2099 389.289 90.695C388.688 89.1737 388.387 87.3423 388.387 85.201C388.394 83.0597 388.697 81.2379 389.298 79.7358C389.906 78.2273 390.772 77.0767 391.897 76.2841C393.028 75.4915 394.38 75.0952 395.952 75.0952C397.525 75.0952 398.877 75.4915 400.008 76.2841C401.14 77.0767 402.006 78.2273 402.607 79.7358C403.214 81.2443 403.517 83.0661 403.517 85.201C403.517 87.3487 403.214 89.1832 402.607 90.7045C402.006 92.2195 401.14 93.3764 400.008 94.1754C398.883 94.9744 397.531 95.3739 395.952 95.3739ZM395.952 92.3729C397.18 92.3729 398.148 91.7688 398.858 90.5607C399.574 89.3462 399.931 87.5597 399.931 85.201C399.931 83.6413 399.768 82.331 399.442 81.2699C399.116 80.2088 398.656 79.4098 398.062 78.8729C397.467 78.3295 396.764 78.0579 395.952 78.0579C394.732 78.0579 393.766 78.6651 393.057 79.8796C392.347 81.0877 391.989 82.8615 391.983 85.201C391.977 86.767 392.133 88.0838 392.453 89.1513C392.779 90.2187 393.239 91.0241 393.833 91.5675C394.428 92.1044 395.134 92.3729 395.952 92.3729Z" fill="white"/>
</svg>
