<svg width="568" height="315" viewBox="0 0 568 315" fill="none" xmlns="http://www.w3.org/2000/svg">
<rect width="2" height="271" fill="#9CA3AF"/>
<rect x="2" y="67" width="2" height="429" transform="rotate(-90 2 67)" fill="#10B981"/>
<rect x="2" y="137" width="2" height="319" transform="rotate(-90 2 137)" fill="#10B981"/>
<rect y="207" width="2" height="201" transform="rotate(-90 0 207)" fill="#10B981"/>
<rect x="201.5" y="206.5" width="1" height="231" transform="rotate(-90 201.5 206.5)" fill="#29A9C9" stroke="#29A9C9"/>
<rect x="320.5" y="136.5" width="1" height="110" transform="rotate(-90 320.5 136.5)" fill="#29A9C9" stroke="#29A9C9"/>
<path d="M201 207L201 65" stroke="#6B7280" stroke-width="1.5" stroke-dasharray="2 2"/>
<path d="M321 136V51" stroke="#6B7280" stroke-width="1.5" stroke-dasharray="2 2"/>
<rect x="95" y="48" width="4" height="30" rx="2" fill="#10B981"/>
<rect x="319" y="48" width="4" height="17" rx="2" fill="#10B981"/>
<rect x="95" y="120" width="4" height="30" rx="2" fill="#10B981"/>
<rect x="319" y="121" width="4" height="30" rx="2" fill="#10B981"/>
<rect x="319" y="157" width="4" height="9" rx="2" fill="#10B981"/>
<rect x="319" y="172" width="4" height="9" rx="2" fill="#10B981"/>
<rect x="319" y="192" width="4" height="30" rx="2" fill="#10B981"/>
<rect x="95" y="192" width="4" height="30" rx="2" fill="#10B981"/>
<path d="M436 66L426 60.2265V71.7735L436 66ZM417 67H427V65H417V67Z" fill="#10B981"/>
<path d="M436 206L426 200.226V211.774L436 206ZM417 207H427V205H417V207Z" fill="#29A9C9"/>
<path d="M436 136L426 130.226V141.774L436 136ZM417 137H427V135H417V137Z" fill="#29A9C9"/>
<path d="M201 78L206.774 68L195.226 68L201 78ZM200 58L200 69L202 69L202 58L200 58Z" fill="#9CA3AF"/>
<rect x="159" y="26" width="85" height="32" rx="4" fill="#9CA3AF"/>
<path d="M177.943 40.1477H176.17C176.102 39.7689 175.975 39.4356 175.79 39.1477C175.604 38.8598 175.377 38.6155 175.108 38.4148C174.839 38.214 174.538 38.0625 174.205 37.9602C173.875 37.858 173.525 37.8068 173.153 37.8068C172.483 37.8068 171.883 37.9754 171.352 38.3125C170.826 38.6496 170.409 39.1439 170.102 39.7955C169.799 40.447 169.648 41.2424 169.648 42.1818C169.648 43.1288 169.799 43.928 170.102 44.5795C170.409 45.2311 170.828 45.7235 171.358 46.0568C171.888 46.3902 172.485 46.5568 173.148 46.5568C173.515 46.5568 173.864 46.5076 174.193 46.4091C174.527 46.3068 174.828 46.1572 175.097 45.9602C175.366 45.7633 175.593 45.5227 175.778 45.2386C175.968 44.9508 176.098 44.6212 176.17 44.25L177.943 44.2557C177.848 44.8277 177.665 45.3542 177.392 45.8352C177.123 46.3125 176.777 46.7254 176.352 47.0739C175.932 47.4186 175.451 47.6856 174.909 47.875C174.367 48.0644 173.777 48.1591 173.136 48.1591C172.129 48.1591 171.231 47.9205 170.443 47.4432C169.655 46.9621 169.034 46.2746 168.58 45.3807C168.129 44.4867 167.903 43.4205 167.903 42.1818C167.903 40.9394 168.131 39.8731 168.585 38.983C169.04 38.089 169.661 37.4034 170.449 36.9261C171.237 36.4451 172.133 36.2045 173.136 36.2045C173.754 36.2045 174.33 36.2936 174.864 36.4716C175.402 36.6458 175.884 36.9034 176.312 37.2443C176.741 37.5814 177.095 37.9943 177.375 38.483C177.655 38.9678 177.845 39.5227 177.943 40.1477ZM180.044 48V36.3636H181.8V41.4205H187.601V36.3636H189.362V48H187.601V42.9261H181.8V48H180.044ZM192.902 48H191.038L195.226 36.3636H197.254L201.442 48H199.578L196.288 38.4773H196.197L192.902 48ZM193.214 43.4432H199.26V44.9205H193.214V43.4432ZM212.514 36.3636V48H210.901L204.986 39.4659H204.878V48H203.122V36.3636H204.747L210.668 44.9091H210.776V36.3636H212.514ZM222.95 40.0398C222.84 39.6951 222.693 39.3864 222.507 39.1136C222.325 38.8371 222.107 38.6023 221.854 38.4091C221.6 38.2121 221.31 38.0625 220.984 37.9602C220.662 37.858 220.308 37.8068 219.922 37.8068C219.267 37.8068 218.676 37.9754 218.149 38.3125C217.623 38.6496 217.206 39.1439 216.899 39.7955C216.596 40.4432 216.445 41.2367 216.445 42.1761C216.445 43.1193 216.598 43.9167 216.905 44.5682C217.212 45.2197 217.632 45.714 218.166 46.0511C218.7 46.3883 219.308 46.5568 219.99 46.5568C220.623 46.5568 221.174 46.428 221.643 46.1705C222.117 45.9129 222.482 45.5492 222.74 45.0795C223.001 44.6061 223.132 44.0492 223.132 43.4091L223.587 43.4943H220.257V42.0455H224.831V43.3693C224.831 44.3466 224.623 45.1951 224.206 45.9148C223.793 46.6307 223.221 47.1837 222.49 47.5739C221.763 47.964 220.929 48.1591 219.99 48.1591C218.937 48.1591 218.013 47.9167 217.217 47.4318C216.426 46.947 215.808 46.2595 215.365 45.3693C214.922 44.4754 214.7 43.4148 214.7 42.1875C214.7 41.2595 214.829 40.4261 215.087 39.6875C215.344 38.9489 215.706 38.322 216.172 37.8068C216.642 37.2879 217.193 36.892 217.825 36.6193C218.462 36.3428 219.157 36.2045 219.911 36.2045C220.539 36.2045 221.125 36.2973 221.666 36.483C222.212 36.6686 222.696 36.9318 223.121 37.2727C223.549 37.6136 223.903 38.0189 224.183 38.4886C224.464 38.9545 224.653 39.4716 224.751 40.0398H222.95ZM227.06 48V36.3636H234.355V37.875H228.815V41.4205H233.974V42.9261H228.815V46.4886H234.423V48H227.06Z" fill="#374151"/>
<path d="M451.409 143V131.364H458.432V132.614H452.818V136.545H458.068V137.795H452.818V141.75H458.523V143H451.409ZM462.131 137.75V143H460.79V134.273H462.085V135.636H462.199C462.403 135.193 462.714 134.837 463.131 134.568C463.547 134.295 464.085 134.159 464.744 134.159C465.335 134.159 465.852 134.28 466.295 134.523C466.739 134.761 467.083 135.125 467.33 135.614C467.576 136.098 467.699 136.712 467.699 137.455V143H466.358V137.545C466.358 136.86 466.18 136.326 465.824 135.943C465.468 135.557 464.979 135.364 464.358 135.364C463.93 135.364 463.547 135.456 463.21 135.642C462.877 135.828 462.614 136.098 462.42 136.455C462.227 136.811 462.131 137.242 462.131 137.75ZM473.445 143.182C472.717 143.182 472.075 142.998 471.518 142.631C470.962 142.259 470.526 141.737 470.212 141.062C469.897 140.384 469.74 139.583 469.74 138.659C469.74 137.742 469.897 136.947 470.212 136.273C470.526 135.598 470.964 135.078 471.524 134.71C472.085 134.343 472.732 134.159 473.467 134.159C474.036 134.159 474.484 134.254 474.814 134.443C475.147 134.629 475.401 134.841 475.575 135.08C475.753 135.314 475.892 135.508 475.99 135.659H476.104V131.364H477.445V143H476.149V141.659H475.99C475.892 141.818 475.751 142.019 475.57 142.261C475.388 142.5 475.128 142.714 474.791 142.903C474.454 143.089 474.005 143.182 473.445 143.182ZM473.626 141.977C474.164 141.977 474.619 141.837 474.99 141.557C475.361 141.273 475.643 140.881 475.837 140.381C476.03 139.877 476.126 139.295 476.126 138.636C476.126 137.985 476.032 137.415 475.842 136.926C475.653 136.434 475.373 136.051 475.001 135.778C474.63 135.502 474.172 135.364 473.626 135.364C473.058 135.364 472.585 135.509 472.206 135.801C471.831 136.089 471.549 136.481 471.359 136.977C471.174 137.47 471.081 138.023 471.081 138.636C471.081 139.258 471.176 139.822 471.365 140.33C471.558 140.833 471.842 141.235 472.217 141.534C472.596 141.83 473.066 141.977 473.626 141.977ZM489.587 136.557V137.807H484.496V136.557H489.587ZM506.446 137.182C506.446 138.409 506.224 139.47 505.781 140.364C505.338 141.258 504.73 141.947 503.957 142.432C503.185 142.917 502.302 143.159 501.31 143.159C500.317 143.159 499.435 142.917 498.662 142.432C497.889 141.947 497.281 141.258 496.838 140.364C496.395 139.47 496.173 138.409 496.173 137.182C496.173 135.955 496.395 134.894 496.838 134C497.281 133.106 497.889 132.417 498.662 131.932C499.435 131.447 500.317 131.205 501.31 131.205C502.302 131.205 503.185 131.447 503.957 131.932C504.73 132.417 505.338 133.106 505.781 134C506.224 134.894 506.446 135.955 506.446 137.182ZM505.082 137.182C505.082 136.174 504.914 135.324 504.577 134.631C504.243 133.938 503.791 133.413 503.219 133.057C502.651 132.701 502.014 132.523 501.31 132.523C500.605 132.523 499.967 132.701 499.395 133.057C498.827 133.413 498.374 133.938 498.037 134.631C497.704 135.324 497.537 136.174 497.537 137.182C497.537 138.189 497.704 139.04 498.037 139.733C498.374 140.426 498.827 140.951 499.395 141.307C499.967 141.663 500.605 141.841 501.31 141.841C502.014 141.841 502.651 141.663 503.219 141.307C503.791 140.951 504.243 140.426 504.577 139.733C504.914 139.04 505.082 138.189 505.082 137.182ZM512.52 134.273V135.409H507.815V134.273H512.52ZM509.224 143V133.068C509.224 132.568 509.342 132.152 509.577 131.818C509.812 131.485 510.116 131.235 510.491 131.068C510.866 130.902 511.262 130.818 511.679 130.818C512.009 130.818 512.277 130.845 512.486 130.898C512.694 130.951 512.849 131 512.952 131.045L512.565 132.205C512.497 132.182 512.402 132.153 512.281 132.119C512.164 132.085 512.009 132.068 511.815 132.068C511.372 132.068 511.052 132.18 510.855 132.403C510.662 132.627 510.565 132.955 510.565 133.386V143H509.224ZM523.899 136.557V137.807H518.808V136.557H523.899ZM530.304 132.614V131.364H539.031V132.614H535.372V143H533.963V132.614H530.304ZM543.418 143.182C542.577 143.182 541.851 142.996 541.241 142.625C540.635 142.25 540.168 141.727 539.838 141.057C539.512 140.383 539.349 139.598 539.349 138.705C539.349 137.811 539.512 137.023 539.838 136.341C540.168 135.655 540.626 135.121 541.213 134.739C541.804 134.352 542.493 134.159 543.281 134.159C543.736 134.159 544.185 134.235 544.628 134.386C545.071 134.538 545.474 134.784 545.838 135.125C546.202 135.462 546.491 135.909 546.707 136.466C546.923 137.023 547.031 137.708 547.031 138.523V139.091H540.304V137.932H545.668C545.668 137.439 545.569 137 545.372 136.614C545.179 136.227 544.902 135.922 544.543 135.699C544.187 135.475 543.766 135.364 543.281 135.364C542.747 135.364 542.285 135.496 541.895 135.761C541.509 136.023 541.211 136.364 541.003 136.784C540.795 137.205 540.69 137.655 540.69 138.136V138.909C540.69 139.568 540.804 140.127 541.031 140.585C541.262 141.04 541.582 141.386 541.991 141.625C542.401 141.86 542.876 141.977 543.418 141.977C543.77 141.977 544.088 141.928 544.372 141.83C544.66 141.727 544.908 141.576 545.116 141.375C545.325 141.17 545.486 140.917 545.599 140.614L546.895 140.977C546.759 141.417 546.529 141.803 546.207 142.136C545.885 142.466 545.488 142.723 545.014 142.909C544.541 143.091 544.009 143.182 543.418 143.182ZM549.071 143V134.273H550.366V135.591H550.457C550.616 135.159 550.904 134.809 551.321 134.54C551.738 134.271 552.207 134.136 552.73 134.136C552.829 134.136 552.952 134.138 553.099 134.142C553.247 134.146 553.359 134.152 553.435 134.159V135.523C553.389 135.511 553.285 135.494 553.122 135.472C552.963 135.445 552.795 135.432 552.616 135.432C552.192 135.432 551.813 135.521 551.48 135.699C551.151 135.873 550.889 136.116 550.696 136.426C550.507 136.733 550.412 137.083 550.412 137.477V143H549.071ZM555.024 143V134.273H556.32V135.636H556.433C556.615 135.17 556.909 134.809 557.314 134.551C557.719 134.29 558.206 134.159 558.774 134.159C559.35 134.159 559.829 134.29 560.212 134.551C560.598 134.809 560.899 135.17 561.115 135.636H561.206C561.429 135.186 561.765 134.828 562.212 134.562C562.659 134.294 563.195 134.159 563.82 134.159C564.6 134.159 565.238 134.403 565.734 134.892C566.231 135.377 566.479 136.133 566.479 137.159V143H565.138V137.159C565.138 136.515 564.962 136.055 564.609 135.778C564.257 135.502 563.842 135.364 563.365 135.364C562.751 135.364 562.276 135.549 561.939 135.92C561.602 136.288 561.433 136.754 561.433 137.318V143H560.07V137.023C560.07 136.527 559.909 136.127 559.587 135.824C559.265 135.517 558.85 135.364 558.342 135.364C557.994 135.364 557.668 135.456 557.365 135.642C557.066 135.828 556.823 136.085 556.638 136.415C556.456 136.741 556.365 137.117 556.365 137.545V143H555.024Z" fill="#374151"/>
<path d="M452.818 199.364V211H451.409V199.364H452.818ZM455.462 211V202.273H456.757V203.636H456.871C457.053 203.17 457.346 202.809 457.751 202.551C458.157 202.29 458.643 202.159 459.212 202.159C459.787 202.159 460.267 202.29 460.649 202.551C461.036 202.809 461.337 203.17 461.553 203.636H461.643C461.867 203.186 462.202 202.828 462.649 202.562C463.096 202.294 463.632 202.159 464.257 202.159C465.037 202.159 465.676 202.403 466.172 202.892C466.668 203.377 466.916 204.133 466.916 205.159V211H465.575V205.159C465.575 204.515 465.399 204.055 465.047 203.778C464.695 203.502 464.28 203.364 463.803 203.364C463.189 203.364 462.714 203.549 462.376 203.92C462.039 204.288 461.871 204.754 461.871 205.318V211H460.507V205.023C460.507 204.527 460.346 204.127 460.024 203.824C459.702 203.517 459.287 203.364 458.78 203.364C458.431 203.364 458.106 203.456 457.803 203.642C457.503 203.828 457.261 204.085 457.075 204.415C456.893 204.741 456.803 205.117 456.803 205.545V211H455.462ZM469.368 211V202.273H470.663V203.636H470.777C470.959 203.17 471.252 202.809 471.658 202.551C472.063 202.29 472.55 202.159 473.118 202.159C473.694 202.159 474.173 202.29 474.555 202.551C474.942 202.809 475.243 203.17 475.459 203.636H475.55C475.773 203.186 476.108 202.828 476.555 202.562C477.002 202.294 477.538 202.159 478.163 202.159C478.944 202.159 479.582 202.403 480.078 202.892C480.574 203.377 480.822 204.133 480.822 205.159V211H479.482V205.159C479.482 204.515 479.305 204.055 478.953 203.778C478.601 203.502 478.186 203.364 477.709 203.364C477.095 203.364 476.62 203.549 476.283 203.92C475.946 204.288 475.777 204.754 475.777 205.318V211H474.413V205.023C474.413 204.527 474.252 204.127 473.93 203.824C473.608 203.517 473.194 203.364 472.686 203.364C472.338 203.364 472.012 203.456 471.709 203.642C471.41 203.828 471.167 204.085 470.982 204.415C470.8 204.741 470.709 205.117 470.709 205.545V211H469.368ZM486.933 211.182C486.092 211.182 485.367 210.996 484.757 210.625C484.151 210.25 483.683 209.727 483.354 209.057C483.028 208.383 482.865 207.598 482.865 206.705C482.865 205.811 483.028 205.023 483.354 204.341C483.683 203.655 484.142 203.121 484.729 202.739C485.32 202.352 486.009 202.159 486.797 202.159C487.251 202.159 487.7 202.235 488.143 202.386C488.587 202.538 488.99 202.784 489.354 203.125C489.717 203.462 490.007 203.909 490.223 204.466C490.439 205.023 490.547 205.708 490.547 206.523V207.091H483.82V205.932H489.183C489.183 205.439 489.085 205 488.888 204.614C488.695 204.227 488.418 203.922 488.058 203.699C487.702 203.475 487.282 203.364 486.797 203.364C486.263 203.364 485.801 203.496 485.411 203.761C485.024 204.023 484.727 204.364 484.518 204.784C484.31 205.205 484.206 205.655 484.206 206.136V206.909C484.206 207.568 484.32 208.127 484.547 208.585C484.778 209.04 485.098 209.386 485.507 209.625C485.916 209.86 486.392 209.977 486.933 209.977C487.286 209.977 487.604 209.928 487.888 209.83C488.176 209.727 488.424 209.576 488.632 209.375C488.84 209.17 489.001 208.917 489.115 208.614L490.411 208.977C490.274 209.417 490.045 209.803 489.723 210.136C489.401 210.466 489.003 210.723 488.53 210.909C488.056 211.091 487.524 211.182 486.933 211.182ZM495.882 211.182C495.155 211.182 494.513 210.998 493.956 210.631C493.399 210.259 492.964 209.737 492.649 209.062C492.335 208.384 492.178 207.583 492.178 206.659C492.178 205.742 492.335 204.947 492.649 204.273C492.964 203.598 493.401 203.078 493.962 202.71C494.522 202.343 495.17 202.159 495.905 202.159C496.473 202.159 496.922 202.254 497.251 202.443C497.585 202.629 497.839 202.841 498.013 203.08C498.191 203.314 498.329 203.508 498.428 203.659H498.541V199.364H499.882V211H498.587V209.659H498.428C498.329 209.818 498.189 210.019 498.007 210.261C497.825 210.5 497.566 210.714 497.229 210.903C496.892 211.089 496.443 211.182 495.882 211.182ZM496.064 209.977C496.602 209.977 497.056 209.837 497.428 209.557C497.799 209.273 498.081 208.881 498.274 208.381C498.467 207.877 498.564 207.295 498.564 206.636C498.564 205.985 498.469 205.415 498.28 204.926C498.09 204.434 497.81 204.051 497.439 203.778C497.068 203.502 496.609 203.364 496.064 203.364C495.496 203.364 495.022 203.509 494.643 203.801C494.268 204.089 493.986 204.481 493.797 204.977C493.611 205.47 493.518 206.023 493.518 206.636C493.518 207.258 493.613 207.822 493.803 208.33C493.996 208.833 494.28 209.235 494.655 209.534C495.034 209.83 495.503 209.977 496.064 209.977ZM502.524 211V202.273H503.865V211H502.524ZM503.206 200.818C502.945 200.818 502.719 200.729 502.53 200.551C502.344 200.373 502.251 200.159 502.251 199.909C502.251 199.659 502.344 199.445 502.53 199.267C502.719 199.089 502.945 199 503.206 199C503.467 199 503.691 199.089 503.876 199.267C504.066 199.445 504.161 199.659 504.161 199.909C504.161 200.159 504.066 200.373 503.876 200.551C503.691 200.729 503.467 200.818 503.206 200.818ZM508.889 211.205C508.336 211.205 507.834 211.1 507.384 210.892C506.933 210.68 506.575 210.375 506.31 209.977C506.045 209.576 505.912 209.091 505.912 208.523C505.912 208.023 506.01 207.617 506.207 207.307C506.404 206.992 506.668 206.746 506.997 206.568C507.327 206.39 507.69 206.258 508.088 206.17C508.49 206.08 508.893 206.008 509.298 205.955C509.829 205.886 510.259 205.835 510.588 205.801C510.921 205.763 511.164 205.701 511.315 205.614C511.471 205.527 511.548 205.375 511.548 205.159V205.114C511.548 204.553 511.395 204.117 511.088 203.807C510.785 203.496 510.325 203.341 509.707 203.341C509.067 203.341 508.565 203.481 508.202 203.761C507.838 204.042 507.582 204.341 507.435 204.659L506.162 204.205C506.389 203.674 506.692 203.261 507.071 202.966C507.454 202.667 507.87 202.458 508.321 202.341C508.776 202.22 509.223 202.159 509.662 202.159C509.942 202.159 510.264 202.193 510.628 202.261C510.995 202.326 511.349 202.46 511.69 202.665C512.035 202.869 512.321 203.178 512.548 203.591C512.776 204.004 512.889 204.557 512.889 205.25V211H511.548V209.818H511.48C511.389 210.008 511.238 210.21 511.026 210.426C510.813 210.642 510.531 210.826 510.179 210.977C509.827 211.129 509.397 211.205 508.889 211.205ZM509.094 210C509.624 210 510.071 209.896 510.435 209.688C510.802 209.479 511.079 209.21 511.264 208.881C511.454 208.551 511.548 208.205 511.548 207.841V206.614C511.491 206.682 511.366 206.744 511.173 206.801C510.984 206.854 510.764 206.902 510.514 206.943C510.268 206.981 510.027 207.015 509.793 207.045C509.562 207.072 509.374 207.095 509.23 207.114C508.882 207.159 508.556 207.233 508.253 207.335C507.954 207.434 507.711 207.583 507.526 207.784C507.344 207.981 507.253 208.25 507.253 208.591C507.253 209.057 507.425 209.409 507.77 209.648C508.118 209.883 508.56 210 509.094 210ZM519.132 202.273V203.409H514.609V202.273H519.132ZM515.928 200.182H517.268V208.5C517.268 208.879 517.323 209.163 517.433 209.352C517.547 209.538 517.691 209.663 517.865 209.727C518.043 209.788 518.231 209.818 518.428 209.818C518.575 209.818 518.696 209.811 518.791 209.795C518.886 209.777 518.962 209.761 519.018 209.75L519.291 210.955C519.2 210.989 519.073 211.023 518.911 211.057C518.748 211.095 518.541 211.114 518.291 211.114C517.912 211.114 517.541 211.032 517.178 210.869C516.818 210.706 516.518 210.458 516.28 210.125C516.045 209.792 515.928 209.371 515.928 208.864V200.182ZM524.714 211.182C523.874 211.182 523.148 210.996 522.538 210.625C521.932 210.25 521.464 209.727 521.135 209.057C520.809 208.383 520.646 207.598 520.646 206.705C520.646 205.811 520.809 205.023 521.135 204.341C521.464 203.655 521.923 203.121 522.51 202.739C523.101 202.352 523.79 202.159 524.578 202.159C525.033 202.159 525.482 202.235 525.925 202.386C526.368 202.538 526.771 202.784 527.135 203.125C527.499 203.462 527.788 203.909 528.004 204.466C528.22 205.023 528.328 205.708 528.328 206.523V207.091H521.601V205.932H526.964C526.964 205.439 526.866 205 526.669 204.614C526.476 204.227 526.199 203.922 525.839 203.699C525.483 203.475 525.063 203.364 524.578 203.364C524.044 203.364 523.582 203.496 523.192 203.761C522.805 204.023 522.508 204.364 522.3 204.784C522.091 205.205 521.987 205.655 521.987 206.136V206.909C521.987 207.568 522.101 208.127 522.328 208.585C522.559 209.04 522.879 209.386 523.288 209.625C523.697 209.86 524.173 209.977 524.714 209.977C525.067 209.977 525.385 209.928 525.669 209.83C525.957 209.727 526.205 209.576 526.413 209.375C526.622 209.17 526.783 208.917 526.896 208.614L528.192 208.977C528.055 209.417 527.826 209.803 527.504 210.136C527.182 210.466 526.785 210.723 526.311 210.909C525.838 211.091 525.305 211.182 524.714 211.182Z" fill="#374151"/>
<rect x="0.0246582" y="305" width="4" height="30" rx="2" transform="rotate(-90 0.0246582 305)" fill="#167BB7"/>
<path d="M53.2519 303.182C53.2519 304.409 53.0303 305.47 52.5872 306.364C52.144 307.258 51.536 307.947 50.7633 308.432C49.9906 308.917 49.108 309.159 48.1156 309.159C47.1231 309.159 46.2406 308.917 45.4678 308.432C44.6951 307.947 44.0872 307.258 43.644 306.364C43.2008 305.47 42.9792 304.409 42.9792 303.182C42.9792 301.955 43.2008 300.894 43.644 300C44.0872 299.106 44.6951 298.417 45.4678 297.932C46.2406 297.447 47.1231 297.205 48.1156 297.205C49.108 297.205 49.9906 297.447 50.7633 297.932C51.536 298.417 52.144 299.106 52.5872 300C53.0303 300.894 53.2519 301.955 53.2519 303.182ZM51.8883 303.182C51.8883 302.174 51.7197 301.324 51.3826 300.631C51.0493 299.938 50.5966 299.413 50.0247 299.057C49.4565 298.701 48.8201 298.523 48.1156 298.523C47.411 298.523 46.7728 298.701 46.2008 299.057C45.6326 299.413 45.18 299.938 44.8428 300.631C44.5095 301.324 44.3428 302.174 44.3428 303.182C44.3428 304.189 44.5095 305.04 44.8428 305.733C45.18 306.426 45.6326 306.951 46.2008 307.307C46.7728 307.663 47.411 307.841 48.1156 307.841C48.8201 307.841 49.4565 307.663 50.0247 307.307C50.5966 306.951 51.0493 306.426 51.3826 305.733C51.7197 305.04 51.8883 304.189 51.8883 303.182ZM56.7803 297.364V309H55.4394V297.364H56.7803ZM62.5318 309.182C61.8045 309.182 61.1624 308.998 60.6056 308.631C60.0488 308.259 59.6132 307.737 59.2988 307.062C58.9844 306.384 58.8272 305.583 58.8272 304.659C58.8272 303.742 58.9844 302.947 59.2988 302.273C59.6132 301.598 60.0507 301.078 60.6113 300.71C61.1719 300.343 61.8196 300.159 62.5545 300.159C63.1227 300.159 63.5715 300.254 63.9011 300.443C64.2344 300.629 64.4882 300.841 64.6624 301.08C64.8405 301.314 64.9787 301.508 65.0772 301.659H65.1909V297.364H66.5318V309H65.2363V307.659H65.0772C64.9787 307.818 64.8386 308.019 64.6568 308.261C64.4749 308.5 64.2155 308.714 63.8784 308.903C63.5412 309.089 63.0924 309.182 62.5318 309.182ZM62.7136 307.977C63.2515 307.977 63.706 307.837 64.0772 307.557C64.4484 307.273 64.7306 306.881 64.9238 306.381C65.117 305.877 65.2136 305.295 65.2136 304.636C65.2136 303.985 65.1189 303.415 64.9295 302.926C64.7401 302.434 64.4598 302.051 64.0886 301.778C63.7174 301.502 63.259 301.364 62.7136 301.364C62.1454 301.364 61.6719 301.509 61.2931 301.801C60.9181 302.089 60.6359 302.481 60.4465 302.977C60.2609 303.47 60.1681 304.023 60.1681 304.636C60.1681 305.258 60.2628 305.822 60.4522 306.33C60.6454 306.833 60.9295 307.235 61.3045 307.534C61.6833 307.83 62.153 307.977 62.7136 307.977ZM73.8556 309V297.364H77.7874C78.7003 297.364 79.4465 297.528 80.0261 297.858C80.6094 298.184 81.0412 298.625 81.3215 299.182C81.6018 299.739 81.742 300.36 81.742 301.045C81.742 301.731 81.6018 302.354 81.3215 302.915C81.045 303.475 80.617 303.922 80.0374 304.256C79.4579 304.585 78.7155 304.75 77.8102 304.75H74.992V303.5H77.7647C78.3897 303.5 78.8916 303.392 79.2704 303.176C79.6492 302.96 79.9238 302.669 80.0943 302.301C80.2685 301.93 80.3556 301.511 80.3556 301.045C80.3556 300.58 80.2685 300.163 80.0943 299.795C79.9238 299.428 79.6473 299.14 79.2647 298.932C78.8821 298.72 78.3746 298.614 77.742 298.614H75.2647V309H73.8556ZM85.171 297.364V309H83.8301V297.364H85.171ZM90.1951 309.205C89.6421 309.205 89.1402 309.1 88.6894 308.892C88.2387 308.68 87.8807 308.375 87.6156 307.977C87.3504 307.576 87.2178 307.091 87.2178 306.523C87.2178 306.023 87.3163 305.617 87.5133 305.307C87.7103 304.992 87.9735 304.746 88.3031 304.568C88.6326 304.39 88.9962 304.258 89.394 304.17C89.7955 304.08 90.1989 304.008 90.6042 303.955C91.1345 303.886 91.5644 303.835 91.894 303.801C92.2273 303.763 92.4697 303.701 92.6212 303.614C92.7766 303.527 92.8542 303.375 92.8542 303.159V303.114C92.8542 302.553 92.7008 302.117 92.394 301.807C92.0909 301.496 91.6307 301.341 91.0133 301.341C90.3731 301.341 89.8712 301.481 89.5076 301.761C89.144 302.042 88.8883 302.341 88.7406 302.659L87.4678 302.205C87.6951 301.674 87.9981 301.261 88.3769 300.966C88.7595 300.667 89.1762 300.458 89.6269 300.341C90.0815 300.22 90.5284 300.159 90.9678 300.159C91.2481 300.159 91.5701 300.193 91.9337 300.261C92.3012 300.326 92.6553 300.46 92.9962 300.665C93.3409 300.869 93.6269 301.178 93.8542 301.591C94.0815 302.004 94.1951 302.557 94.1951 303.25V309H92.8542V307.818H92.786C92.6951 308.008 92.5436 308.21 92.3315 308.426C92.1194 308.642 91.8372 308.826 91.4849 308.977C91.1326 309.129 90.7027 309.205 90.1951 309.205ZM90.3997 308C90.93 308 91.3769 307.896 91.7406 307.688C92.108 307.479 92.3845 307.21 92.5701 306.881C92.7595 306.551 92.8542 306.205 92.8542 305.841V304.614C92.7974 304.682 92.6724 304.744 92.4792 304.801C92.2898 304.854 92.0701 304.902 91.8201 304.943C91.5739 304.981 91.3334 305.015 91.0985 305.045C90.8675 305.072 90.68 305.095 90.536 305.114C90.1875 305.159 89.8618 305.233 89.5587 305.335C89.2595 305.434 89.0171 305.583 88.8315 305.784C88.6497 305.981 88.5587 306.25 88.5587 306.591C88.5587 307.057 88.7311 307.409 89.0758 307.648C89.4243 307.883 89.8656 308 90.3997 308ZM97.9835 303.75V309H96.6426V300.273H97.938V301.636H98.0516C98.2562 301.193 98.5668 300.837 98.9835 300.568C99.4001 300.295 99.938 300.159 100.597 300.159C101.188 300.159 101.705 300.28 102.148 300.523C102.591 300.761 102.936 301.125 103.182 301.614C103.429 302.098 103.552 302.712 103.552 303.455V309H102.211V303.545C102.211 302.86 102.033 302.326 101.677 301.943C101.321 301.557 100.832 301.364 100.211 301.364C99.7827 301.364 99.4001 301.456 99.063 301.642C98.7297 301.828 98.4664 302.098 98.2732 302.455C98.0801 302.811 97.9835 303.242 97.9835 303.75Z" fill="#374151"/>
<rect x="129.025" y="305" width="4" height="30" rx="2" transform="rotate(-90 129.025 305)" fill="#10B981"/>
<path d="M181.661 297.364V309H180.297L173.956 299.864H173.843V309H172.434V297.364H173.797L180.161 306.523H180.275V297.364H181.661ZM187.958 309.182C187.117 309.182 186.392 308.996 185.782 308.625C185.176 308.25 184.708 307.727 184.378 307.057C184.053 306.383 183.89 305.598 183.89 304.705C183.89 303.811 184.053 303.023 184.378 302.341C184.708 301.655 185.166 301.121 185.753 300.739C186.344 300.352 187.034 300.159 187.822 300.159C188.276 300.159 188.725 300.235 189.168 300.386C189.611 300.538 190.015 300.784 190.378 301.125C190.742 301.462 191.032 301.909 191.248 302.466C191.464 303.023 191.572 303.708 191.572 304.523V305.091H184.844V303.932H190.208C190.208 303.439 190.109 303 189.912 302.614C189.719 302.227 189.443 301.922 189.083 301.699C188.727 301.475 188.306 301.364 187.822 301.364C187.287 301.364 186.825 301.496 186.435 301.761C186.049 302.023 185.751 302.364 185.543 302.784C185.335 303.205 185.231 303.655 185.231 304.136V304.909C185.231 305.568 185.344 306.127 185.572 306.585C185.803 307.04 186.123 307.386 186.532 307.625C186.941 307.86 187.416 307.977 187.958 307.977C188.31 307.977 188.628 307.928 188.912 307.83C189.2 307.727 189.448 307.576 189.657 307.375C189.865 307.17 190.026 306.917 190.14 306.614L191.435 306.977C191.299 307.417 191.07 307.803 190.748 308.136C190.426 308.466 190.028 308.723 189.554 308.909C189.081 309.091 188.549 309.182 187.958 309.182ZM195.589 309L192.929 300.273H194.339L196.225 306.955H196.316L198.179 300.273H199.611L201.452 306.932H201.543L203.429 300.273H204.839L202.179 309H200.861L198.952 302.295H198.816L196.907 309H195.589ZM211.293 309V297.364H215.225C216.138 297.364 216.884 297.528 217.464 297.858C218.047 298.184 218.479 298.625 218.759 299.182C219.039 299.739 219.179 300.36 219.179 301.045C219.179 301.731 219.039 302.354 218.759 302.915C218.483 303.475 218.054 303.922 217.475 304.256C216.895 304.585 216.153 304.75 215.248 304.75H212.429V303.5H215.202C215.827 303.5 216.329 303.392 216.708 303.176C217.087 302.96 217.361 302.669 217.532 302.301C217.706 301.93 217.793 301.511 217.793 301.045C217.793 300.58 217.706 300.163 217.532 299.795C217.361 299.428 217.085 299.14 216.702 298.932C216.32 298.72 215.812 298.614 215.179 298.614H212.702V309H211.293ZM222.608 297.364V309H221.268V297.364H222.608ZM227.633 309.205C227.08 309.205 226.578 309.1 226.127 308.892C225.676 308.68 225.318 308.375 225.053 307.977C224.788 307.576 224.655 307.091 224.655 306.523C224.655 306.023 224.754 305.617 224.951 305.307C225.148 304.992 225.411 304.746 225.741 304.568C226.07 304.39 226.434 304.258 226.831 304.17C227.233 304.08 227.636 304.008 228.042 303.955C228.572 303.886 229.002 303.835 229.331 303.801C229.665 303.763 229.907 303.701 230.059 303.614C230.214 303.527 230.292 303.375 230.292 303.159V303.114C230.292 302.553 230.138 302.117 229.831 301.807C229.528 301.496 229.068 301.341 228.451 301.341C227.811 301.341 227.309 301.481 226.945 301.761C226.581 302.042 226.326 302.341 226.178 302.659L224.905 302.205C225.133 301.674 225.436 301.261 225.814 300.966C226.197 300.667 226.614 300.458 227.064 300.341C227.519 300.22 227.966 300.159 228.405 300.159C228.686 300.159 229.008 300.193 229.371 300.261C229.739 300.326 230.093 300.46 230.434 300.665C230.778 300.869 231.064 301.178 231.292 301.591C231.519 302.004 231.633 302.557 231.633 303.25V309H230.292V307.818H230.224C230.133 308.008 229.981 308.21 229.769 308.426C229.557 308.642 229.275 308.826 228.922 308.977C228.57 309.129 228.14 309.205 227.633 309.205ZM227.837 308C228.367 308 228.814 307.896 229.178 307.688C229.545 307.479 229.822 307.21 230.008 306.881C230.197 306.551 230.292 306.205 230.292 305.841V304.614C230.235 304.682 230.11 304.744 229.917 304.801C229.727 304.854 229.508 304.902 229.258 304.943C229.011 304.981 228.771 305.015 228.536 305.045C228.305 305.072 228.117 305.095 227.974 305.114C227.625 305.159 227.299 305.233 226.996 305.335C226.697 305.434 226.455 305.583 226.269 305.784C226.087 305.981 225.996 306.25 225.996 306.591C225.996 307.057 226.169 307.409 226.513 307.648C226.862 307.883 227.303 308 227.837 308ZM235.421 303.75V309H234.08V300.273H235.376V301.636H235.489C235.694 301.193 236.004 300.837 236.421 300.568C236.838 300.295 237.376 300.159 238.035 300.159C238.626 300.159 239.143 300.28 239.586 300.523C240.029 300.761 240.374 301.125 240.62 301.614C240.866 302.098 240.989 302.712 240.989 303.455V309H239.648V303.545C239.648 302.86 239.47 302.326 239.114 301.943C238.758 301.557 238.269 301.364 237.648 301.364C237.22 301.364 236.838 301.456 236.501 301.642C236.167 301.828 235.904 302.098 235.711 302.455C235.518 302.811 235.421 303.242 235.421 303.75Z" fill="#374151"/>
</svg>
