<svg width="294" height="290" viewBox="0 0 294 290" fill="none" xmlns="http://www.w3.org/2000/svg">
<rect width="293.909" height="290" rx="16" fill="#F9FAFB"/>
<path d="M232.892 166.302L229.665 168.444C229.665 168.444 226.389 166.689 224.596 166.758C222.803 166.827 200.303 167.391 200.303 167.391L195.745 167.724L188.554 158.531L189.011 143.151L207.33 136.557L223.773 137.826L231.546 144.525L236.554 154.866L232.892 166.302Z" fill="black"/>
<path d="M37.1374 154.457L37.3134 155.248C37.3134 155.248 40.9159 160.287 45.6027 161.136C50.2895 161.985 49.9376 162.161 49.9376 162.161C49.9376 162.161 57.5825 163.978 60.367 162.425C63.1491 160.872 86.4096 164.33 86.4096 164.33L89.5437 165.618L92.8822 166.263C92.8822 166.263 99.4452 160.052 99.4452 159.964C99.4452 159.876 99.6806 153.841 99.6806 153.841L93.441 136.791L80.4055 129.115L73.9305 128.119C73.9305 128.119 54.4508 134.739 54.4508 134.887C54.4508 135.034 52.0492 141.038 52.0492 141.038L46.542 149.182L42.0026 151.439L37.1374 154.457Z" fill="#070707"/>
<path d="M34.5599 149.916C34.5599 149.916 33.856 154.106 34.2674 155.043C34.2674 155.043 41.2132 156.141 42.1192 155.958C43.0251 155.775 44.7657 153.11 44.7657 153.11L34.5599 149.916Z" fill="#332C2B"/>
<path d="M38.1243 137.856C38.053 137.707 37.9816 137.54 37.9269 137.355C37.7224 136.689 38.3906 136.073 38.3906 136.073L46.0403 135.512C46.0403 135.512 51.5451 142.99 51.6474 143.169C51.7496 143.347 48.587 147.394 48.587 147.394H45.4601L42.735 137.711L38.1243 137.856Z" fill="#473D3C"/>
<path d="M36.7451 145.779L38.3835 144.01L38.5119 138.505C38.5119 138.505 38.3122 138.248 38.1219 137.854L42.735 137.711L45.4601 147.394H39.3822L36.7451 145.779Z" fill="#332C2B"/>
<path d="M35.0021 128.958C35.0021 128.958 34.7976 130.623 35.7963 131.876C36.795 133.131 37.7462 135.407 37.7462 135.407L44.7063 135.64L45.013 131.698L41.1489 128.602L35.0021 128.958Z" fill="#3D000D"/>
<path d="M207.28 133.24L209.216 133.666L210.887 133.452C210.887 133.452 193.274 124.514 167.657 118.773L167.136 123.529L205.285 135.942L207.28 133.24Z" fill="#636363"/>
<path d="M254.562 163.932L259.95 167.152C259.047 167.72 256.635 168.077 252.165 168.15C247.048 168.236 229.665 168.443 229.665 168.443C229.665 168.443 229.577 168.357 229.663 167.891C229.684 167.77 230.284 165.656 230.697 162.617L247.464 162.443L254.562 163.932Z" fill="#167BB7"/>
<path d="M32.0297 146.065C32.6052 143.832 33.6086 144.552 33.6086 144.552L37.7842 144.407L38.5023 143.038L38.5737 145.054L37.4204 145.92L42.6066 146.207L46.7845 144.046L44.5517 136.408L38.2836 136.48L37.5631 135.039L44.1902 135.11L42.8943 131.22C42.8943 131.22 35.977 129.13 35.2565 129.346C34.536 129.562 34.0319 128.842 34.3196 128.625C34.6097 128.414 93.6859 118.329 113.211 117.105C132.736 115.88 157.373 114.727 169.621 119.195L169.189 120.06C169.189 120.06 200.068 127.729 208.814 133.317C208.814 133.317 228.193 132.451 250.31 145.565C250.31 145.565 257.082 147.656 261.909 153.85C261.909 153.85 258.607 159.742 256.547 160.867C256.547 160.867 260.799 166.177 260.25 166.895C260.181 166.985 260.081 167.073 259.95 167.154L254.559 163.935L247.461 162.446L230.695 162.62C231.865 154.028 231.565 138.032 212.63 138.648C188.278 139.44 196.059 167.97 196.059 167.97L92.604 166.381L95.7737 156.44C95.7737 156.44 95.8641 135.041 76.627 134.323C57.3899 133.602 55.6088 149.596 55.6088 149.596V158.746L50.0065 155.072C50.0065 155.072 43.4959 156.368 41.4794 155.864C39.463 155.36 31.4519 148.298 32.0297 146.065Z" fill="#167BB7"/>
<path d="M260.478 153.775C260.478 153.775 251.421 149.512 235.035 148.035C235.035 148.035 253.456 151.657 253.482 152.551C253.511 153.442 247.464 162.638 247.464 162.638C247.464 162.638 260.338 158.959 260.478 153.775Z" fill="#146FA5"/>
<path d="M105.48 125.722L99.6996 126.487C99.6996 126.487 114.072 119.841 116.989 119.518C119.907 119.194 157.137 116.265 169.999 121.451C182.861 126.637 143.034 125.111 143.034 125.111L105.48 125.722Z" fill="black"/>
<path d="M123.873 120.633C123.873 120.633 150.603 116.598 169.334 121.282C188.064 125.964 203.842 134.106 203.842 134.106C203.183 134.266 202.538 134.413 201.911 134.556C198.41 133.058 181.478 125.841 179.347 125.389C176.969 124.885 156.652 118.762 134.895 120.345C134.895 120.345 124.161 120.778 122.791 124.597C122.337 125.867 122.463 126.999 122.834 127.948C119.978 127.522 118.252 127.263 118.252 127.263L123.873 120.633Z" fill="#484949"/>
<path d="M122.791 124.597C123.481 122.671 126.553 121.608 129.43 121.025L128.893 128.853C126.567 128.506 124.508 128.197 122.836 127.947C122.463 127.001 122.337 125.867 122.791 124.597Z" fill="#636363"/>
<path d="M134.895 120.347C156.652 118.761 176.969 124.887 179.347 125.391C181.478 125.843 198.41 133.06 201.911 134.558C184.749 138.429 178.876 136.467 175.889 135.946C173.949 135.609 151.828 132.287 135.568 129.854L134.407 120.376C134.719 120.355 134.895 120.347 134.895 120.347Z" fill="#636363"/>
<path d="M134.407 120.377L135.568 129.855C133.19 129.499 130.938 129.163 128.893 128.856L129.43 121.028C131.525 120.603 133.518 120.434 134.407 120.377Z" fill="#484949"/>
<path d="M102.475 125.821L117.172 119.77L120.846 120.086L123.008 121.501L118.456 127.296C118.456 127.291 109.247 125.243 102.475 125.821Z" fill="#484949"/>
<path d="M120.775 120.373L115.156 124.936L117.46 126.786L122.142 121.424L120.775 120.373Z" fill="#050505"/>
<path d="M237.237 140.262C237.237 140.262 245.514 142.212 248.803 144.385C252.091 146.558 253.791 148.789 253.791 148.789C253.791 148.789 251.506 148.734 250.864 148.232C250.222 147.731 242.782 142.407 237.237 140.262Z" fill="#221411"/>
<path d="M253.287 153.777L256.854 155.478C256.854 155.478 255.461 156.229 255.211 156.9C254.959 157.568 254.262 158.738 254.402 159.463C254.543 160.188 255.294 164.228 255.294 164.228L250.89 164.813L247.461 162.445C247.464 162.445 252.117 152.969 253.287 153.777Z" fill="#221411"/>
<path d="M230.062 149.455C230.062 149.455 237.374 149.985 237.237 151.267C237.096 152.549 230.502 151.155 230.502 151.155L230.062 149.455Z" fill="#FDD8C5"/>
<path d="M89.206 128.121C89.206 128.121 137.246 133.64 149.973 135.642C162.699 137.645 197.095 143.147 197.095 143.147C197.095 143.147 100.444 130.865 89.206 128.121Z" fill="#146FA5"/>
<path d="M128.075 132.943C128.075 132.943 112.597 133.096 106.405 135.944C106.405 135.944 115.463 151.741 117.239 152.949C119.015 154.156 133.982 158.054 136.129 158.399C138.278 158.743 193.885 161.495 193.885 161.495L137.361 157.711C137.361 157.711 127.64 156.335 125.963 154.96C124.289 153.583 113.51 144.184 116.15 140.629C118.787 137.069 128.075 132.943 128.075 132.943Z" fill="#146FA5"/>
<path d="M114.338 134.174L112.302 136.561C112.302 136.561 119.115 152.771 125.381 155.278C125.381 155.278 119.781 154.593 118.254 153.428C116.728 152.262 106.408 136.473 106.408 136.209C106.405 135.943 111.794 134.29 114.338 134.174Z" fill="#121117"/>
<path d="M189.881 161.112C190.371 161.112 190.585 161.105 190.597 161.105L190.837 161.095L190.804 160.857C190.349 157.673 194.059 142.188 194.097 142.032L194.133 141.886L186.426 136.665L186.183 137.024L193.643 142.077C193.248 143.725 190.085 157.124 190.352 160.677C188.673 160.698 177.261 160.672 136.291 157.317L128.158 134.441L128.13 134.41C127.362 133.54 126.741 132.629 126.753 132.394C127.01 132.092 129.3 130.28 130.707 129.186L130.443 128.844C130.06 129.141 126.684 131.761 126.396 132.147C126.082 132.565 126.967 133.74 127.778 134.662L135.974 157.721L136.112 157.733C174.446 160.876 186.989 161.112 189.881 161.112Z" fill="#0F0503"/>
<path d="M188.554 162.691L182.754 166.758L140.649 166.208L182.207 165.98L188.554 162.691Z" fill="#0F0503"/>
<path d="M195.745 157.125C195.745 166.444 203.299 173.999 212.618 173.999C221.937 173.999 229.492 166.444 229.492 157.125C229.492 147.806 221.937 140.252 212.618 140.252C203.299 140.254 195.745 147.806 195.745 157.125Z" fill="#27262C"/>
<path d="M225.323 157.124C225.323 164.163 219.616 169.87 212.578 169.87C205.539 169.87 199.832 164.163 199.832 157.124C199.832 150.086 205.537 144.379 212.578 144.379C219.616 144.379 225.323 150.086 225.323 157.124Z" fill="#C3BFBE"/>
<path d="M217.001 148.582L214.052 151.935C214.052 151.935 213.543 152.739 212.847 152.739C212.15 152.739 211.639 152.175 211.639 152.175L208.555 148.582C208.555 148.582 208.126 148.073 208.555 147.724C208.983 147.374 210.488 146.865 212.578 146.865C214.668 146.865 217.752 147.429 217.001 148.582Z" fill="#27262C"/>
<path d="M217.001 165.672L214.052 162.319C214.052 162.319 213.541 161.516 212.844 161.516C212.147 161.516 211.636 162.079 211.636 162.079L208.552 165.672C208.552 165.672 208.122 166.181 208.552 166.531C208.98 166.88 210.485 167.389 212.575 167.389C214.668 167.389 217.752 166.825 217.001 165.672Z" fill="#27262C"/>
<path d="M203.927 152.863L207.278 155.812C207.278 155.812 208.084 156.321 208.084 157.018C208.084 157.717 207.52 158.226 207.52 158.226L203.927 161.31C203.927 161.31 203.418 161.74 203.069 161.31C202.719 160.882 202.21 159.377 202.21 157.286C202.21 155.196 202.774 152.112 203.927 152.863Z" fill="#27262C"/>
<path d="M221.017 152.863L217.664 155.812C217.664 155.812 216.86 156.321 216.86 157.018C216.86 157.714 217.424 158.223 217.424 158.223L221.017 161.307C221.017 161.307 221.528 161.738 221.875 161.307C222.223 160.877 222.734 159.374 222.734 157.284C222.734 155.196 222.17 152.112 221.017 152.863Z" fill="#27262C"/>
<path d="M58.0129 154.047C58.0129 163.516 65.6887 171.191 75.1574 171.191C84.6262 171.191 92.2996 163.516 92.2996 154.047C92.2996 144.578 84.6238 136.902 75.1574 136.902C65.6887 136.902 58.0129 144.578 58.0129 154.047Z" fill="#27262C"/>
<path d="M88.067 154.048C88.067 161.2 82.2697 166.998 75.1147 166.998C67.962 166.998 62.1647 161.2 62.1647 154.048C62.1647 146.895 67.962 141.098 75.1147 141.098C82.2674 141.095 88.067 146.895 88.067 154.048Z" fill="#C3BFBE"/>
<path d="M79.6089 145.365L76.6127 148.77C76.6127 148.77 76.0944 149.588 75.3857 149.588C74.6771 149.588 74.1587 149.015 74.1587 149.015L71.0247 145.365C71.0247 145.365 70.5895 144.846 71.0247 144.492C71.4599 144.138 72.9888 143.619 75.1123 143.619C77.2381 143.622 80.3722 144.195 79.6089 145.365Z" fill="#27262C"/>
<path d="M79.6088 162.731L76.6127 159.326C76.6127 159.326 76.0943 158.508 75.3857 158.508C74.6771 158.508 74.1587 159.081 74.1587 159.081L71.0271 162.733C71.0271 162.733 70.5919 163.252 71.0271 163.606C71.4622 163.96 72.9912 164.479 75.1147 164.479C77.2405 164.474 80.3721 163.903 79.6088 162.731Z" fill="#27262C"/>
<path d="M66.326 149.719L69.7311 152.715C69.7311 152.715 70.5491 153.233 70.5491 153.942C70.5491 154.651 69.9761 155.169 69.9761 155.169L66.326 158.303C66.326 158.303 65.8076 158.738 65.4557 158.303C65.1014 157.868 64.583 156.336 64.583 154.213C64.583 152.09 65.1561 148.955 66.326 149.719Z" fill="#27262C"/>
<path d="M83.6917 149.719L80.2866 152.715C80.2866 152.715 79.4686 153.233 79.4686 153.942C79.4686 154.651 80.0416 155.169 80.0416 155.169L83.6917 158.303C83.6917 158.303 84.2101 158.738 84.5644 158.303C84.9187 157.868 85.4347 156.339 85.4347 154.215C85.4371 152.09 84.864 148.955 83.6917 149.719Z" fill="#27262C"/>
<path d="M93.7977 144.723L96.6536 145.748L102.32 154.948L98.5583 163.651L94.2067 164.012L97.5596 162.787L100.099 155.276L96.1994 146.199L93.7977 144.723Z" fill="#030400"/>
<path d="M61.437 137.716L54.2915 135.346C54.2915 135.346 53.5282 136.242 53.8349 136.532C54.1417 136.82 60.4407 138.996 60.4407 138.996C60.4407 138.996 61.1659 137.888 61.437 137.716Z" fill="#FFD5BE"/>
</svg>
