<svg width="490" height="271" viewBox="0 0 490 271" fill="none" xmlns="http://www.w3.org/2000/svg">
<rect width="2" height="271" fill="#9CA3AF"/>
<rect x="2" y="67" width="2" height="429" transform="rotate(-90 2 67)" fill="#9CA3AF"/>
<rect x="2" y="137" width="2" height="319" transform="rotate(-90 2 137)" fill="#9CA3AF"/>
<rect y="207" width="2" height="201" transform="rotate(-90 0 207)" fill="#9CA3AF"/>
<path d="M201 207L201 65" stroke="#6B7280" stroke-width="1.5" stroke-dasharray="2 2"/>
<path d="M321 136V51" stroke="#6B7280" stroke-width="1.5" stroke-dasharray="2 2"/>
<rect x="95" y="48" width="4" height="30" rx="2" fill="#167BB7"/>
<rect x="319" y="48" width="4" height="17" rx="2" fill="#167BB7"/>
<rect x="95" y="120" width="4" height="30" rx="2" fill="#167BB7"/>
<rect x="319" y="121" width="4" height="30" rx="2" fill="#167BB7"/>
<rect x="95" y="192" width="4" height="30" rx="2" fill="#167BB7"/>
<path d="M436 66L426 60.2265V71.7735L436 66ZM417 67H427V65H417V67Z" fill="#9CA3AF"/>
<path d="M201 78L206.774 68L195.226 68L201 78ZM200 58L200 69L202 69L202 58L200 58Z" fill="#9CA3AF"/>
<rect x="188" y="185" width="27" height="40" rx="3" fill="#EF4444"/>
<path d="M196.562 195.591L201.087 202.987H201.234L205.759 195.591H209.064L203.173 205.045L209.101 214.5H205.777L201.234 207.206H201.087L196.544 214.5H193.22L199.249 205.045L193.257 195.591H196.562Z" fill="white"/>
<rect x="306" y="117" width="27" height="40" rx="3" fill="#EF4444"/>
<path d="M314.562 127.591L319.087 134.987H319.234L323.759 127.591H327.064L321.173 137.045L327.101 146.5H323.777L319.234 139.206H319.087L314.544 146.5H311.22L317.249 137.045L311.257 127.591H314.562Z" fill="white"/>
<rect x="160" y="26" width="82" height="32" rx="4" fill="#9CA3AF"/>
<path d="M178.943 40.1477H177.17C177.102 39.7689 176.975 39.4356 176.79 39.1477C176.604 38.8598 176.377 38.6155 176.108 38.4148C175.839 38.214 175.538 38.0625 175.205 37.9602C174.875 37.858 174.525 37.8068 174.153 37.8068C173.483 37.8068 172.883 37.9754 172.352 38.3125C171.826 38.6496 171.409 39.1439 171.102 39.7955C170.799 40.447 170.648 41.2424 170.648 42.1818C170.648 43.1288 170.799 43.928 171.102 44.5795C171.409 45.2311 171.828 45.7235 172.358 46.0568C172.888 46.3902 173.485 46.5568 174.148 46.5568C174.515 46.5568 174.864 46.5076 175.193 46.4091C175.527 46.3068 175.828 46.1572 176.097 45.9602C176.366 45.7633 176.593 45.5227 176.778 45.2386C176.968 44.9508 177.098 44.6212 177.17 44.25L178.943 44.2557C178.848 44.8277 178.665 45.3542 178.392 45.8352C178.123 46.3125 177.777 46.7254 177.352 47.0739C176.932 47.4186 176.451 47.6856 175.909 47.875C175.367 48.0644 174.777 48.1591 174.136 48.1591C173.129 48.1591 172.231 47.9205 171.443 47.4432C170.655 46.9621 170.034 46.2746 169.58 45.3807C169.129 44.4867 168.903 43.4205 168.903 42.1818C168.903 40.9394 169.131 39.8731 169.585 38.983C170.04 38.089 170.661 37.4034 171.449 36.9261C172.237 36.4451 173.133 36.2045 174.136 36.2045C174.754 36.2045 175.33 36.2936 175.864 36.4716C176.402 36.6458 176.884 36.9034 177.312 37.2443C177.741 37.5814 178.095 37.9943 178.375 38.483C178.655 38.9678 178.845 39.5227 178.943 40.1477ZM181.949 48H180.085L184.273 36.3636H186.301L190.489 48H188.625L185.335 38.4773H185.244L181.949 48ZM182.261 43.4432H188.307V44.9205H182.261V43.4432ZM201.561 36.3636V48H199.947L194.033 39.4659H193.925V48H192.169V36.3636H193.794L199.714 44.9091H199.822V36.3636H201.561ZM213.787 40.1477H212.014C211.946 39.7689 211.819 39.4356 211.634 39.1477C211.448 38.8598 211.221 38.6155 210.952 38.4148C210.683 38.214 210.382 38.0625 210.048 37.9602C209.719 37.858 209.368 37.8068 208.997 37.8068C208.327 37.8068 207.726 37.9754 207.196 38.3125C206.67 38.6496 206.253 39.1439 205.946 39.7955C205.643 40.447 205.491 41.2424 205.491 42.1818C205.491 43.1288 205.643 43.928 205.946 44.5795C206.253 45.2311 206.671 45.7235 207.202 46.0568C207.732 46.3902 208.329 46.5568 208.991 46.5568C209.359 46.5568 209.707 46.5076 210.037 46.4091C210.37 46.3068 210.671 46.1572 210.94 45.9602C211.209 45.7633 211.437 45.5227 211.622 45.2386C211.812 44.9508 211.942 44.6212 212.014 44.25L213.787 44.2557C213.692 44.8277 213.509 45.3542 213.236 45.8352C212.967 46.3125 212.62 46.7254 212.196 47.0739C211.776 47.4186 211.295 47.6856 210.753 47.875C210.211 48.0644 209.62 48.1591 208.98 48.1591C207.973 48.1591 207.075 47.9205 206.287 47.4432C205.499 46.9621 204.878 46.2746 204.423 45.3807C203.973 44.4867 203.747 43.4205 203.747 42.1818C203.747 40.9394 203.974 39.8731 204.429 38.983C204.884 38.089 205.505 37.4034 206.293 36.9261C207.08 36.4451 207.976 36.2045 208.98 36.2045C209.598 36.2045 210.173 36.2936 210.707 36.4716C211.245 36.6458 211.728 36.9034 212.156 37.2443C212.584 37.5814 212.938 37.9943 213.219 38.483C213.499 38.9678 213.688 39.5227 213.787 40.1477ZM215.888 48V36.3636H223.183V37.875H217.643V41.4205H222.803V42.9261H217.643V46.4886H223.251V48H215.888ZM225.528 48V36.3636H227.284V46.4886H232.557V48H225.528Z" fill="#374151"/>
<path d="M373.409 143V131.364H380.432V132.614H374.818V136.545H380.068V137.795H374.818V141.75H380.523V143H373.409ZM384.131 137.75V143H382.79V134.273H384.085V135.636H384.199C384.403 135.193 384.714 134.837 385.131 134.568C385.547 134.295 386.085 134.159 386.744 134.159C387.335 134.159 387.852 134.28 388.295 134.523C388.739 134.761 389.083 135.125 389.33 135.614C389.576 136.098 389.699 136.712 389.699 137.455V143H388.358V137.545C388.358 136.86 388.18 136.326 387.824 135.943C387.468 135.557 386.979 135.364 386.358 135.364C385.93 135.364 385.547 135.456 385.21 135.642C384.877 135.828 384.614 136.098 384.42 136.455C384.227 136.811 384.131 137.242 384.131 137.75ZM395.445 143.182C394.717 143.182 394.075 142.998 393.518 142.631C392.962 142.259 392.526 141.737 392.212 141.062C391.897 140.384 391.74 139.583 391.74 138.659C391.74 137.742 391.897 136.947 392.212 136.273C392.526 135.598 392.964 135.078 393.524 134.71C394.085 134.343 394.732 134.159 395.467 134.159C396.036 134.159 396.484 134.254 396.814 134.443C397.147 134.629 397.401 134.841 397.575 135.08C397.753 135.314 397.892 135.508 397.99 135.659H398.104V131.364H399.445V143H398.149V141.659H397.99C397.892 141.818 397.751 142.019 397.57 142.261C397.388 142.5 397.128 142.714 396.791 142.903C396.454 143.089 396.005 143.182 395.445 143.182ZM395.626 141.977C396.164 141.977 396.619 141.837 396.99 141.557C397.361 141.273 397.643 140.881 397.837 140.381C398.03 139.877 398.126 139.295 398.126 138.636C398.126 137.985 398.032 137.415 397.842 136.926C397.653 136.434 397.373 136.051 397.001 135.778C396.63 135.502 396.172 135.364 395.626 135.364C395.058 135.364 394.585 135.509 394.206 135.801C393.831 136.089 393.549 136.481 393.359 136.977C393.174 137.47 393.081 138.023 393.081 138.636C393.081 139.258 393.176 139.822 393.365 140.33C393.558 140.833 393.842 141.235 394.217 141.534C394.596 141.83 395.066 141.977 395.626 141.977ZM411.587 136.557V137.807H406.496V136.557H411.587ZM428.446 137.182C428.446 138.409 428.224 139.47 427.781 140.364C427.338 141.258 426.73 141.947 425.957 142.432C425.185 142.917 424.302 143.159 423.31 143.159C422.317 143.159 421.435 142.917 420.662 142.432C419.889 141.947 419.281 141.258 418.838 140.364C418.395 139.47 418.173 138.409 418.173 137.182C418.173 135.955 418.395 134.894 418.838 134C419.281 133.106 419.889 132.417 420.662 131.932C421.435 131.447 422.317 131.205 423.31 131.205C424.302 131.205 425.185 131.447 425.957 131.932C426.73 132.417 427.338 133.106 427.781 134C428.224 134.894 428.446 135.955 428.446 137.182ZM427.082 137.182C427.082 136.174 426.914 135.324 426.577 134.631C426.243 133.938 425.791 133.413 425.219 133.057C424.651 132.701 424.014 132.523 423.31 132.523C422.605 132.523 421.967 132.701 421.395 133.057C420.827 133.413 420.374 133.938 420.037 134.631C419.704 135.324 419.537 136.174 419.537 137.182C419.537 138.189 419.704 139.04 420.037 139.733C420.374 140.426 420.827 140.951 421.395 141.307C421.967 141.663 422.605 141.841 423.31 141.841C424.014 141.841 424.651 141.663 425.219 141.307C425.791 140.951 426.243 140.426 426.577 139.733C426.914 139.04 427.082 138.189 427.082 137.182ZM434.52 134.273V135.409H429.815V134.273H434.52ZM431.224 143V133.068C431.224 132.568 431.342 132.152 431.577 131.818C431.812 131.485 432.116 131.235 432.491 131.068C432.866 130.902 433.262 130.818 433.679 130.818C434.009 130.818 434.277 130.845 434.486 130.898C434.694 130.951 434.849 131 434.952 131.045L434.565 132.205C434.497 132.182 434.402 132.153 434.281 132.119C434.164 132.085 434.009 132.068 433.815 132.068C433.372 132.068 433.052 132.18 432.855 132.403C432.662 132.627 432.565 132.955 432.565 133.386V143H431.224ZM445.899 136.557V137.807H440.808V136.557H445.899ZM452.304 132.614V131.364H461.031V132.614H457.372V143H455.963V132.614H452.304ZM465.418 143.182C464.577 143.182 463.851 142.996 463.241 142.625C462.635 142.25 462.168 141.727 461.838 141.057C461.512 140.383 461.349 139.598 461.349 138.705C461.349 137.811 461.512 137.023 461.838 136.341C462.168 135.655 462.626 135.121 463.213 134.739C463.804 134.352 464.493 134.159 465.281 134.159C465.736 134.159 466.185 134.235 466.628 134.386C467.071 134.538 467.474 134.784 467.838 135.125C468.202 135.462 468.491 135.909 468.707 136.466C468.923 137.023 469.031 137.708 469.031 138.523V139.091H462.304V137.932H467.668C467.668 137.439 467.569 137 467.372 136.614C467.179 136.227 466.902 135.922 466.543 135.699C466.187 135.475 465.766 135.364 465.281 135.364C464.747 135.364 464.285 135.496 463.895 135.761C463.509 136.023 463.211 136.364 463.003 136.784C462.795 137.205 462.69 137.655 462.69 138.136V138.909C462.69 139.568 462.804 140.127 463.031 140.585C463.262 141.04 463.582 141.386 463.991 141.625C464.401 141.86 464.876 141.977 465.418 141.977C465.77 141.977 466.088 141.928 466.372 141.83C466.66 141.727 466.908 141.576 467.116 141.375C467.325 141.17 467.486 140.917 467.599 140.614L468.895 140.977C468.759 141.417 468.529 141.803 468.207 142.136C467.885 142.466 467.488 142.723 467.014 142.909C466.541 143.091 466.009 143.182 465.418 143.182ZM471.071 143V134.273H472.366V135.591H472.457C472.616 135.159 472.904 134.809 473.321 134.54C473.738 134.271 474.207 134.136 474.73 134.136C474.829 134.136 474.952 134.138 475.099 134.142C475.247 134.146 475.359 134.152 475.435 134.159V135.523C475.389 135.511 475.285 135.494 475.122 135.472C474.963 135.445 474.795 135.432 474.616 135.432C474.192 135.432 473.813 135.521 473.48 135.699C473.151 135.873 472.889 136.116 472.696 136.426C472.507 136.733 472.412 137.083 472.412 137.477V143H471.071ZM477.024 143V134.273H478.32V135.636H478.433C478.615 135.17 478.909 134.809 479.314 134.551C479.719 134.29 480.206 134.159 480.774 134.159C481.35 134.159 481.829 134.29 482.212 134.551C482.598 134.809 482.899 135.17 483.115 135.636H483.206C483.429 135.186 483.765 134.828 484.212 134.562C484.659 134.294 485.195 134.159 485.82 134.159C486.6 134.159 487.238 134.403 487.734 134.892C488.231 135.377 488.479 136.133 488.479 137.159V143H487.138V137.159C487.138 136.515 486.962 136.055 486.609 135.778C486.257 135.502 485.842 135.364 485.365 135.364C484.751 135.364 484.276 135.549 483.939 135.92C483.602 136.288 483.433 136.754 483.433 137.318V143H482.07V137.023C482.07 136.527 481.909 136.127 481.587 135.824C481.265 135.517 480.85 135.364 480.342 135.364C479.994 135.364 479.668 135.456 479.365 135.642C479.066 135.828 478.823 136.085 478.638 136.415C478.456 136.741 478.365 137.117 478.365 137.545V143H477.024Z" fill="#374151"/>
<path d="M374.818 199.364V211H373.409V199.364H374.818ZM377.462 211V202.273H378.757V203.636H378.871C379.053 203.17 379.346 202.809 379.751 202.551C380.157 202.29 380.643 202.159 381.212 202.159C381.787 202.159 382.267 202.29 382.649 202.551C383.036 202.809 383.337 203.17 383.553 203.636H383.643C383.867 203.186 384.202 202.828 384.649 202.562C385.096 202.294 385.632 202.159 386.257 202.159C387.037 202.159 387.676 202.403 388.172 202.892C388.668 203.377 388.916 204.133 388.916 205.159V211H387.575V205.159C387.575 204.515 387.399 204.055 387.047 203.778C386.695 203.502 386.28 203.364 385.803 203.364C385.189 203.364 384.714 203.549 384.376 203.92C384.039 204.288 383.871 204.754 383.871 205.318V211H382.507V205.023C382.507 204.527 382.346 204.127 382.024 203.824C381.702 203.517 381.287 203.364 380.78 203.364C380.431 203.364 380.106 203.456 379.803 203.642C379.503 203.828 379.261 204.085 379.075 204.415C378.893 204.741 378.803 205.117 378.803 205.545V211H377.462ZM391.368 211V202.273H392.663V203.636H392.777C392.959 203.17 393.252 202.809 393.658 202.551C394.063 202.29 394.55 202.159 395.118 202.159C395.694 202.159 396.173 202.29 396.555 202.551C396.942 202.809 397.243 203.17 397.459 203.636H397.55C397.773 203.186 398.108 202.828 398.555 202.562C399.002 202.294 399.538 202.159 400.163 202.159C400.944 202.159 401.582 202.403 402.078 202.892C402.574 203.377 402.822 204.133 402.822 205.159V211H401.482V205.159C401.482 204.515 401.305 204.055 400.953 203.778C400.601 203.502 400.186 203.364 399.709 203.364C399.095 203.364 398.62 203.549 398.283 203.92C397.946 204.288 397.777 204.754 397.777 205.318V211H396.413V205.023C396.413 204.527 396.252 204.127 395.93 203.824C395.608 203.517 395.194 203.364 394.686 203.364C394.338 203.364 394.012 203.456 393.709 203.642C393.41 203.828 393.167 204.085 392.982 204.415C392.8 204.741 392.709 205.117 392.709 205.545V211H391.368ZM408.933 211.182C408.092 211.182 407.367 210.996 406.757 210.625C406.151 210.25 405.683 209.727 405.354 209.057C405.028 208.383 404.865 207.598 404.865 206.705C404.865 205.811 405.028 205.023 405.354 204.341C405.683 203.655 406.142 203.121 406.729 202.739C407.32 202.352 408.009 202.159 408.797 202.159C409.251 202.159 409.7 202.235 410.143 202.386C410.587 202.538 410.99 202.784 411.354 203.125C411.717 203.462 412.007 203.909 412.223 204.466C412.439 205.023 412.547 205.708 412.547 206.523V207.091H405.82V205.932H411.183C411.183 205.439 411.085 205 410.888 204.614C410.695 204.227 410.418 203.922 410.058 203.699C409.702 203.475 409.282 203.364 408.797 203.364C408.263 203.364 407.801 203.496 407.411 203.761C407.024 204.023 406.727 204.364 406.518 204.784C406.31 205.205 406.206 205.655 406.206 206.136V206.909C406.206 207.568 406.32 208.127 406.547 208.585C406.778 209.04 407.098 209.386 407.507 209.625C407.916 209.86 408.392 209.977 408.933 209.977C409.286 209.977 409.604 209.928 409.888 209.83C410.176 209.727 410.424 209.576 410.632 209.375C410.84 209.17 411.001 208.917 411.115 208.614L412.411 208.977C412.274 209.417 412.045 209.803 411.723 210.136C411.401 210.466 411.003 210.723 410.53 210.909C410.056 211.091 409.524 211.182 408.933 211.182ZM417.882 211.182C417.155 211.182 416.513 210.998 415.956 210.631C415.399 210.259 414.964 209.737 414.649 209.062C414.335 208.384 414.178 207.583 414.178 206.659C414.178 205.742 414.335 204.947 414.649 204.273C414.964 203.598 415.401 203.078 415.962 202.71C416.522 202.343 417.17 202.159 417.905 202.159C418.473 202.159 418.922 202.254 419.251 202.443C419.585 202.629 419.839 202.841 420.013 203.08C420.191 203.314 420.329 203.508 420.428 203.659H420.541V199.364H421.882V211H420.587V209.659H420.428C420.329 209.818 420.189 210.019 420.007 210.261C419.825 210.5 419.566 210.714 419.229 210.903C418.892 211.089 418.443 211.182 417.882 211.182ZM418.064 209.977C418.602 209.977 419.056 209.837 419.428 209.557C419.799 209.273 420.081 208.881 420.274 208.381C420.467 207.877 420.564 207.295 420.564 206.636C420.564 205.985 420.469 205.415 420.28 204.926C420.09 204.434 419.81 204.051 419.439 203.778C419.068 203.502 418.609 203.364 418.064 203.364C417.496 203.364 417.022 203.509 416.643 203.801C416.268 204.089 415.986 204.481 415.797 204.977C415.611 205.47 415.518 206.023 415.518 206.636C415.518 207.258 415.613 207.822 415.803 208.33C415.996 208.833 416.28 209.235 416.655 209.534C417.034 209.83 417.503 209.977 418.064 209.977ZM424.524 211V202.273H425.865V211H424.524ZM425.206 200.818C424.945 200.818 424.719 200.729 424.53 200.551C424.344 200.373 424.251 200.159 424.251 199.909C424.251 199.659 424.344 199.445 424.53 199.267C424.719 199.089 424.945 199 425.206 199C425.467 199 425.691 199.089 425.876 199.267C426.066 199.445 426.161 199.659 426.161 199.909C426.161 200.159 426.066 200.373 425.876 200.551C425.691 200.729 425.467 200.818 425.206 200.818ZM430.889 211.205C430.336 211.205 429.834 211.1 429.384 210.892C428.933 210.68 428.575 210.375 428.31 209.977C428.045 209.576 427.912 209.091 427.912 208.523C427.912 208.023 428.01 207.617 428.207 207.307C428.404 206.992 428.668 206.746 428.997 206.568C429.327 206.39 429.69 206.258 430.088 206.17C430.49 206.08 430.893 206.008 431.298 205.955C431.829 205.886 432.259 205.835 432.588 205.801C432.921 205.763 433.164 205.701 433.315 205.614C433.471 205.527 433.548 205.375 433.548 205.159V205.114C433.548 204.553 433.395 204.117 433.088 203.807C432.785 203.496 432.325 203.341 431.707 203.341C431.067 203.341 430.565 203.481 430.202 203.761C429.838 204.042 429.582 204.341 429.435 204.659L428.162 204.205C428.389 203.674 428.692 203.261 429.071 202.966C429.454 202.667 429.87 202.458 430.321 202.341C430.776 202.22 431.223 202.159 431.662 202.159C431.942 202.159 432.264 202.193 432.628 202.261C432.995 202.326 433.349 202.46 433.69 202.665C434.035 202.869 434.321 203.178 434.548 203.591C434.776 204.004 434.889 204.557 434.889 205.25V211H433.548V209.818H433.48C433.389 210.008 433.238 210.21 433.026 210.426C432.813 210.642 432.531 210.826 432.179 210.977C431.827 211.129 431.397 211.205 430.889 211.205ZM431.094 210C431.624 210 432.071 209.896 432.435 209.688C432.802 209.479 433.079 209.21 433.264 208.881C433.454 208.551 433.548 208.205 433.548 207.841V206.614C433.491 206.682 433.366 206.744 433.173 206.801C432.984 206.854 432.764 206.902 432.514 206.943C432.268 206.981 432.027 207.015 431.793 207.045C431.562 207.072 431.374 207.095 431.23 207.114C430.882 207.159 430.556 207.233 430.253 207.335C429.954 207.434 429.711 207.583 429.526 207.784C429.344 207.981 429.253 208.25 429.253 208.591C429.253 209.057 429.425 209.409 429.77 209.648C430.118 209.883 430.56 210 431.094 210ZM441.132 202.273V203.409H436.609V202.273H441.132ZM437.928 200.182H439.268V208.5C439.268 208.879 439.323 209.163 439.433 209.352C439.547 209.538 439.691 209.663 439.865 209.727C440.043 209.788 440.231 209.818 440.428 209.818C440.575 209.818 440.696 209.811 440.791 209.795C440.886 209.777 440.962 209.761 441.018 209.75L441.291 210.955C441.2 210.989 441.073 211.023 440.911 211.057C440.748 211.095 440.541 211.114 440.291 211.114C439.912 211.114 439.541 211.032 439.178 210.869C438.818 210.706 438.518 210.458 438.28 210.125C438.045 209.792 437.928 209.371 437.928 208.864V200.182ZM446.714 211.182C445.874 211.182 445.148 210.996 444.538 210.625C443.932 210.25 443.464 209.727 443.135 209.057C442.809 208.383 442.646 207.598 442.646 206.705C442.646 205.811 442.809 205.023 443.135 204.341C443.464 203.655 443.923 203.121 444.51 202.739C445.101 202.352 445.79 202.159 446.578 202.159C447.033 202.159 447.482 202.235 447.925 202.386C448.368 202.538 448.771 202.784 449.135 203.125C449.499 203.462 449.788 203.909 450.004 204.466C450.22 205.023 450.328 205.708 450.328 206.523V207.091H443.601V205.932H448.964C448.964 205.439 448.866 205 448.669 204.614C448.476 204.227 448.199 203.922 447.839 203.699C447.483 203.475 447.063 203.364 446.578 203.364C446.044 203.364 445.582 203.496 445.192 203.761C444.805 204.023 444.508 204.364 444.3 204.784C444.091 205.205 443.987 205.655 443.987 206.136V206.909C443.987 207.568 444.101 208.127 444.328 208.585C444.559 209.04 444.879 209.386 445.288 209.625C445.697 209.86 446.173 209.977 446.714 209.977C447.067 209.977 447.385 209.928 447.669 209.83C447.957 209.727 448.205 209.576 448.413 209.375C448.622 209.17 448.783 208.917 448.896 208.614L450.192 208.977C450.055 209.417 449.826 209.803 449.504 210.136C449.182 210.466 448.785 210.723 448.311 210.909C447.838 211.091 447.305 211.182 446.714 211.182Z" fill="#374151"/>
</svg>
