<svg width="895" height="313" viewBox="0 0 895 313" fill="none" xmlns="http://www.w3.org/2000/svg">
<rect x="760.5" y="0.5" width="134" height="89" rx="9.5" fill="white"/>
<path d="M782.372 45.1364C782.372 46.0568 782.205 46.8523 781.873 47.5227C781.541 48.1932 781.085 48.7102 780.505 49.0739C779.926 49.4375 779.264 49.6193 778.519 49.6193C777.775 49.6193 777.113 49.4375 776.534 49.0739C775.954 48.7102 775.498 48.1932 775.166 47.5227C774.833 46.8523 774.667 46.0568 774.667 45.1364C774.667 44.2159 774.833 43.4205 775.166 42.75C775.498 42.0795 775.954 41.5625 776.534 41.1989C777.113 40.8352 777.775 40.6534 778.519 40.6534C779.264 40.6534 779.926 40.8352 780.505 41.1989C781.085 41.5625 781.541 42.0795 781.873 42.75C782.205 43.4205 782.372 44.2159 782.372 45.1364ZM781.349 45.1364C781.349 44.3807 781.222 43.7429 780.97 43.223C780.72 42.7031 780.38 42.3097 779.951 42.0426C779.525 41.7756 779.048 41.642 778.519 41.642C777.991 41.642 777.512 41.7756 777.083 42.0426C776.657 42.3097 776.318 42.7031 776.065 43.223C775.815 43.7429 775.69 44.3807 775.69 45.1364C775.69 45.892 775.815 46.5298 776.065 47.0497C776.318 47.5696 776.657 47.9631 777.083 48.2301C777.512 48.4972 777.991 48.6307 778.519 48.6307C779.048 48.6307 779.525 48.4972 779.951 48.2301C780.38 47.9631 780.72 47.5696 780.97 47.0497C781.222 46.5298 781.349 45.892 781.349 45.1364ZM784.149 49.5V40.7727H785.205V48.5625H789.262V49.5H784.149ZM793.592 49.5H790.899V40.7727H793.711C794.558 40.7727 795.282 40.9474 795.884 41.2969C796.487 41.6435 796.948 42.142 797.269 42.7926C797.59 43.4403 797.751 44.2159 797.751 45.1193C797.751 46.0284 797.589 46.8111 797.265 47.4673C796.941 48.1207 796.47 48.6236 795.85 48.9759C795.231 49.3253 794.478 49.5 793.592 49.5ZM791.955 48.5625H793.524C794.245 48.5625 794.843 48.4233 795.318 48.1449C795.792 47.8665 796.146 47.4702 796.379 46.956C796.612 46.4418 796.728 45.8295 796.728 45.1193C796.728 44.4148 796.613 43.8082 796.383 43.2997C796.153 42.7884 795.809 42.3963 795.352 42.1236C794.894 41.848 794.325 41.7102 793.643 41.7102H791.955V48.5625ZM802.899 49.5V40.7727H805.95C806.558 40.7727 807.059 40.8778 807.454 41.0881C807.849 41.2955 808.143 41.5753 808.336 41.9276C808.529 42.277 808.626 42.6648 808.626 43.0909C808.626 43.4659 808.559 43.7756 808.426 44.0199C808.295 44.2642 808.122 44.4574 807.906 44.5994C807.693 44.7415 807.461 44.8466 807.211 44.9148V45C807.478 45.017 807.747 45.1108 808.017 45.2812C808.286 45.4517 808.512 45.696 808.694 46.0142C808.876 46.3324 808.967 46.7216 808.967 47.1818C808.967 47.6193 808.867 48.0128 808.669 48.3622C808.47 48.7116 808.156 48.9886 807.727 49.1932C807.298 49.3977 806.74 49.5 806.052 49.5H802.899ZM803.955 48.5625H806.052C806.742 48.5625 807.232 48.429 807.522 48.1619C807.815 47.892 807.961 47.5653 807.961 47.1818C807.961 46.8864 807.886 46.6136 807.735 46.3636C807.585 46.1108 807.37 45.9091 807.092 45.7585C806.813 45.6051 806.484 45.5284 806.103 45.5284H803.955V48.5625ZM803.955 44.608H805.916C806.234 44.608 806.521 44.5455 806.776 44.4205C807.035 44.2955 807.24 44.1193 807.39 43.892C807.544 43.6648 807.62 43.3977 807.62 43.0909C807.62 42.7074 807.487 42.3821 807.22 42.1151C806.953 41.8452 806.529 41.7102 805.95 41.7102H803.955V44.608ZM810.567 49.5V42.9545H811.573V49.5H810.567ZM811.078 41.8636C810.882 41.8636 810.713 41.7969 810.571 41.6634C810.432 41.5298 810.362 41.3693 810.362 41.1818C810.362 40.9943 810.432 40.8338 810.571 40.7003C810.713 40.5668 810.882 40.5 811.078 40.5C811.274 40.5 811.442 40.5668 811.581 40.7003C811.723 40.8338 811.794 40.9943 811.794 41.1818C811.794 41.3693 811.723 41.5298 811.581 41.6634C811.442 41.7969 811.274 41.8636 811.078 41.8636ZM814.42 40.7727V49.5H813.415V40.7727H814.42ZM817.268 40.7727V49.5H816.262V40.7727H817.268ZM819.11 49.5V42.9545H820.116V49.5H819.11ZM819.621 41.8636C819.425 41.8636 819.256 41.7969 819.114 41.6634C818.975 41.5298 818.905 41.3693 818.905 41.1818C818.905 40.9943 818.975 40.8338 819.114 40.7003C819.256 40.5668 819.425 40.5 819.621 40.5C819.817 40.5 819.985 40.5668 820.124 40.7003C820.266 40.8338 820.337 40.9943 820.337 41.1818C820.337 41.3693 820.266 41.5298 820.124 41.6634C819.985 41.7969 819.817 41.8636 819.621 41.8636ZM822.963 45.5625V49.5H821.958V42.9545H822.929V43.9773H823.014C823.168 43.6449 823.401 43.3778 823.713 43.1761C824.026 42.9716 824.429 42.8693 824.923 42.8693C825.367 42.8693 825.754 42.9602 826.087 43.142C826.419 43.321 826.678 43.5938 826.862 43.9602C827.047 44.3239 827.139 44.7841 827.139 45.3409V49.5H826.134V45.4091C826.134 44.8949 826 44.4943 825.733 44.2074C825.466 43.9176 825.1 43.7727 824.634 43.7727C824.313 43.7727 824.026 43.8423 823.773 43.9815C823.523 44.1207 823.325 44.3239 823.181 44.5909C823.036 44.858 822.963 45.1818 822.963 45.5625ZM831.619 52.0909C831.133 52.0909 830.716 52.0284 830.366 51.9034C830.017 51.7812 829.726 51.6193 829.493 51.4176C829.263 51.2188 829.079 51.0057 828.943 50.7784L829.744 50.2159C829.835 50.3352 829.95 50.4716 830.089 50.625C830.229 50.7812 830.419 50.9162 830.66 51.0298C830.905 51.1463 831.224 51.2045 831.619 51.2045C832.148 51.2045 832.584 51.0767 832.927 50.821C833.271 50.5653 833.443 50.1648 833.443 49.6193V48.2898H833.358C833.284 48.4091 833.179 48.5568 833.042 48.733C832.909 48.9062 832.716 49.0611 832.463 49.1974C832.213 49.331 831.875 49.3977 831.449 49.3977C830.92 49.3977 830.446 49.2727 830.025 49.0227C829.608 48.7727 829.277 48.4091 829.032 47.9318C828.791 47.4545 828.67 46.875 828.67 46.1932C828.67 45.5227 828.788 44.9389 829.024 44.4418C829.26 43.9418 829.588 43.5554 830.008 43.2827C830.429 43.0071 830.915 42.8693 831.466 42.8693C831.892 42.8693 832.23 42.9403 832.48 43.0824C832.733 43.2216 832.926 43.3807 833.059 43.5597C833.196 43.7358 833.301 43.8807 833.375 43.9943H833.477V42.9545H834.449V49.6875C834.449 50.25 834.321 50.7074 834.065 51.0597C833.812 51.4148 833.471 51.6747 833.042 51.8395C832.616 52.0071 832.142 52.0909 831.619 52.0909ZM831.585 48.4943C831.988 48.4943 832.329 48.402 832.608 48.2173C832.886 48.0327 833.098 47.767 833.243 47.4205C833.388 47.0739 833.46 46.6591 833.46 46.1761C833.46 45.7045 833.389 45.2884 833.247 44.9276C833.105 44.5668 832.895 44.2841 832.616 44.0795C832.338 43.875 831.994 43.7727 831.585 43.7727C831.159 43.7727 830.804 43.8807 830.52 44.0966C830.238 44.3125 830.027 44.6023 829.885 44.9659C829.746 45.3295 829.676 45.733 829.676 46.1761C829.676 46.6307 829.747 47.0327 829.889 47.3821C830.034 47.7287 830.247 48.0014 830.528 48.2003C830.812 48.3963 831.165 48.4943 831.585 48.4943ZM844.574 42.9545C844.523 42.5227 844.315 42.1875 843.952 41.9489C843.588 41.7102 843.142 41.5909 842.613 41.5909C842.227 41.5909 841.889 41.6534 841.599 41.7784C841.312 41.9034 841.088 42.0753 840.926 42.294C840.767 42.5128 840.687 42.7614 840.687 43.0398C840.687 43.2727 840.743 43.473 840.854 43.6406C840.967 43.8054 841.112 43.9432 841.288 44.054C841.464 44.1619 841.649 44.2514 841.842 44.3224C842.035 44.3906 842.213 44.446 842.375 44.4886L843.261 44.7273C843.488 44.7869 843.741 44.8693 844.02 44.9744C844.301 45.0795 844.569 45.223 844.825 45.4048C845.084 45.5838 845.297 45.8139 845.464 46.0952C845.632 46.3764 845.716 46.7216 845.716 47.1307C845.716 47.6023 845.592 48.0284 845.345 48.4091C845.101 48.7898 844.743 49.0923 844.271 49.3168C843.802 49.5412 843.233 49.6534 842.562 49.6534C841.937 49.6534 841.396 49.5526 840.939 49.3509C840.484 49.1491 840.126 48.8679 839.865 48.5071C839.606 48.1463 839.46 47.7273 839.426 47.25H840.517C840.545 47.5795 840.656 47.8523 840.849 48.0682C841.045 48.2812 841.292 48.4403 841.591 48.5455C841.892 48.6477 842.216 48.6989 842.562 48.6989C842.966 48.6989 843.328 48.6335 843.649 48.5028C843.97 48.3693 844.224 48.1847 844.412 47.9489C844.599 47.7102 844.693 47.4318 844.693 47.1136C844.693 46.8239 844.612 46.5881 844.45 46.4062C844.288 46.2244 844.075 46.0767 843.811 45.9631C843.547 45.8494 843.261 45.75 842.954 45.6648L841.881 45.358C841.199 45.1619 840.659 44.8821 840.261 44.5185C839.863 44.1548 839.665 43.679 839.665 43.0909C839.665 42.6023 839.797 42.1761 840.061 41.8125C840.328 41.446 840.686 41.1619 841.135 40.9602C841.586 40.7557 842.091 40.6534 842.648 40.6534C843.21 40.6534 843.71 40.7543 844.148 40.956C844.585 41.1548 844.932 41.4276 845.187 41.7741C845.446 42.1207 845.582 42.5142 845.596 42.9545H844.574ZM847.965 51.9545C847.794 51.9545 847.642 51.9403 847.509 51.9119C847.375 51.8864 847.283 51.8608 847.232 51.8352L847.487 50.9489C847.732 51.0114 847.948 51.0341 848.135 51.017C848.323 51 848.489 50.9162 848.634 50.7656C848.781 50.6179 848.916 50.3778 849.039 50.0455L849.226 49.5341L846.806 42.9545H847.896L849.703 48.1705H849.771L851.578 42.9545H852.669L849.891 50.4545C849.766 50.7926 849.611 51.0724 849.426 51.294C849.242 51.5185 849.027 51.6847 848.783 51.7926C848.541 51.9006 848.269 51.9545 847.965 51.9545ZM858.633 44.4205L857.73 44.6761C857.673 44.5256 857.589 44.3793 857.478 44.2372C857.37 44.0923 857.222 43.973 857.035 43.8793C856.847 43.7855 856.607 43.7386 856.315 43.7386C855.914 43.7386 855.58 43.831 855.313 44.0156C855.049 44.1974 854.917 44.429 854.917 44.7102C854.917 44.9602 855.008 45.1577 855.19 45.3026C855.372 45.4474 855.656 45.5682 856.042 45.6648L857.014 45.9034C857.599 46.0455 858.035 46.2628 858.322 46.5554C858.609 46.8452 858.752 47.2187 858.752 47.6761C858.752 48.0511 858.644 48.3864 858.428 48.6818C858.215 48.9773 857.917 49.2102 857.534 49.3807C857.15 49.5511 856.704 49.6364 856.195 49.6364C855.528 49.6364 854.975 49.4915 854.538 49.2017C854.1 48.9119 853.823 48.4886 853.707 47.9318L854.661 47.6932C854.752 48.0455 854.924 48.3097 855.177 48.4858C855.433 48.6619 855.767 48.75 856.178 48.75C856.647 48.75 857.019 48.6506 857.295 48.4517C857.573 48.25 857.713 48.0085 857.713 47.7273C857.713 47.5 857.633 47.3097 857.474 47.1562C857.315 47 857.07 46.8835 856.741 46.8068L855.65 46.5511C855.051 46.4091 854.61 46.1889 854.329 45.8906C854.051 45.5895 853.911 45.2131 853.911 44.7614C853.911 44.392 854.015 44.0653 854.222 43.7812C854.433 43.4972 854.718 43.2741 855.079 43.1122C855.443 42.9503 855.855 42.8693 856.315 42.8693C856.963 42.8693 857.471 43.0114 857.84 43.2955C858.213 43.5795 858.477 43.9545 858.633 44.4205ZM863.113 42.9545V43.8068H859.721V42.9545H863.113ZM860.709 41.3864H861.715V47.625C861.715 47.9091 861.756 48.1222 861.839 48.2642C861.924 48.4034 862.032 48.4972 862.162 48.5455C862.296 48.5909 862.437 48.6136 862.584 48.6136C862.695 48.6136 862.786 48.608 862.857 48.5966C862.928 48.5824 862.985 48.571 863.028 48.5625L863.232 49.4659C863.164 49.4915 863.069 49.517 862.947 49.5426C862.824 49.571 862.67 49.5852 862.482 49.5852C862.198 49.5852 861.92 49.5241 861.647 49.402C861.377 49.2798 861.153 49.0938 860.974 48.8438C860.797 48.5938 860.709 48.2784 860.709 47.8977V41.3864ZM867.3 49.6364C866.669 49.6364 866.125 49.4972 865.667 49.2188C865.213 48.9375 864.862 48.5455 864.615 48.0426C864.371 47.5369 864.248 46.9489 864.248 46.2784C864.248 45.608 864.371 45.017 864.615 44.5057C864.862 43.9915 865.206 43.5909 865.646 43.304C866.089 43.0142 866.606 42.8693 867.197 42.8693C867.538 42.8693 867.875 42.9261 868.207 43.0398C868.54 43.1534 868.842 43.3381 869.115 43.5938C869.388 43.8466 869.605 44.1818 869.767 44.5994C869.929 45.017 870.01 45.5312 870.01 46.142V46.5682H864.964V45.6989H868.987C868.987 45.3295 868.913 45 868.765 44.7102C868.621 44.4205 868.413 44.1918 868.143 44.0241C867.876 43.8565 867.561 43.7727 867.197 43.7727C866.797 43.7727 866.45 43.8722 866.157 44.071C865.868 44.267 865.645 44.5227 865.488 44.8381C865.332 45.1534 865.254 45.4915 865.254 45.8523V46.4318C865.254 46.9261 865.339 47.3452 865.51 47.6889C865.683 48.0298 865.923 48.2898 866.23 48.4688C866.537 48.6449 866.893 48.733 867.3 48.733C867.564 48.733 867.802 48.696 868.015 48.6222C868.231 48.5455 868.417 48.4318 868.574 48.2812C868.73 48.1278 868.851 47.9375 868.936 47.7102L869.907 47.983C869.805 48.3125 869.633 48.6023 869.392 48.8523C869.15 49.0994 868.852 49.2926 868.497 49.4318C868.142 49.5682 867.743 49.6364 867.3 49.6364ZM871.54 49.5V42.9545H872.511V43.9773H872.596C872.733 43.6278 872.953 43.3565 873.257 43.1634C873.561 42.9673 873.926 42.8693 874.352 42.8693C874.784 42.8693 875.143 42.9673 875.43 43.1634C875.72 43.3565 875.946 43.6278 876.108 43.9773H876.176C876.344 43.6392 876.595 43.3707 876.93 43.1719C877.265 42.9702 877.667 42.8693 878.136 42.8693C878.721 42.8693 879.2 43.0526 879.572 43.419C879.944 43.7827 880.131 44.3494 880.131 45.1193V49.5H879.125V45.1193C879.125 44.6364 878.993 44.2912 878.729 44.0838C878.464 43.8764 878.153 43.7727 877.795 43.7727C877.335 43.7727 876.979 43.9119 876.726 44.1903C876.473 44.4659 876.346 44.8153 876.346 45.2386V49.5H875.324V45.017C875.324 44.6449 875.203 44.3452 874.961 44.1179C874.72 43.8878 874.409 43.7727 874.028 43.7727C873.767 43.7727 873.523 43.8423 873.295 43.9815C873.071 44.1207 872.889 44.3139 872.75 44.5611C872.613 44.8054 872.545 45.0881 872.545 45.4091V49.5H871.54Z" fill="#374151"/>
<rect x="760.5" y="0.5" width="134" height="89" rx="9.5" stroke="#9CA3AF"/>
<rect x="760.5" y="127.5" width="134" height="89" rx="9.5" fill="white"/>
<path d="M810.305 176.5V167.773H811.362V172.102H811.464L815.384 167.773H816.765L813.1 171.71L816.765 176.5H815.487L812.453 172.443L811.362 173.67V176.5H810.305ZM818.407 176.5V169.955H819.412V176.5H818.407ZM818.918 168.864C818.722 168.864 818.553 168.797 818.411 168.663C818.272 168.53 818.202 168.369 818.202 168.182C818.202 167.994 818.272 167.834 818.411 167.7C818.553 167.567 818.722 167.5 818.918 167.5C819.114 167.5 819.282 167.567 819.421 167.7C819.563 167.834 819.634 167.994 819.634 168.182C819.634 168.369 819.563 168.53 819.421 168.663C819.282 168.797 819.114 168.864 818.918 168.864ZM822.26 167.773V176.5H821.254V167.773H822.26ZM825.108 167.773V176.5H824.102V167.773H825.108ZM830.461 176.5V167.773H833.512C834.12 167.773 834.622 167.878 835.017 168.088C835.411 168.295 835.705 168.575 835.899 168.928C836.092 169.277 836.188 169.665 836.188 170.091C836.188 170.466 836.122 170.776 835.988 171.02C835.857 171.264 835.684 171.457 835.468 171.599C835.255 171.741 835.024 171.847 834.774 171.915V172C835.041 172.017 835.309 172.111 835.579 172.281C835.849 172.452 836.075 172.696 836.257 173.014C836.438 173.332 836.529 173.722 836.529 174.182C836.529 174.619 836.43 175.013 836.231 175.362C836.032 175.712 835.718 175.989 835.289 176.193C834.86 176.398 834.302 176.5 833.615 176.5H830.461ZM831.518 175.562H833.615C834.305 175.562 834.795 175.429 835.085 175.162C835.377 174.892 835.524 174.565 835.524 174.182C835.524 173.886 835.448 173.614 835.298 173.364C835.147 173.111 834.933 172.909 834.654 172.759C834.376 172.605 834.046 172.528 833.666 172.528H831.518V175.562ZM831.518 171.608H833.478C833.796 171.608 834.083 171.545 834.339 171.42C834.597 171.295 834.802 171.119 834.953 170.892C835.106 170.665 835.183 170.398 835.183 170.091C835.183 169.707 835.049 169.382 834.782 169.115C834.515 168.845 834.092 168.71 833.512 168.71H831.518V171.608ZM838.129 176.5V169.955H839.135V176.5H838.129ZM838.641 168.864C838.445 168.864 838.276 168.797 838.134 168.663C837.994 168.53 837.925 168.369 837.925 168.182C837.925 167.994 837.994 167.834 838.134 167.7C838.276 167.567 838.445 167.5 838.641 167.5C838.837 167.5 839.004 167.567 839.144 167.7C839.286 167.834 839.357 167.994 839.357 168.182C839.357 168.369 839.286 168.53 839.144 168.663C839.004 168.797 838.837 168.864 838.641 168.864ZM841.983 167.773V176.5H840.977V167.773H841.983ZM844.83 167.773V176.5H843.825V167.773H844.83Z" fill="#374151"/>
<rect x="760.5" y="127.5" width="134" height="89" rx="9.5" stroke="#9CA3AF"/>
<rect x="471.5" y="223.5" width="134" height="89" rx="9.5" fill="white"/>
<path d="M496.121 263.773H497.383L500.349 271.017H500.451L503.417 263.773H504.678V272.5H503.689V265.869H503.604L500.877 272.5H499.922L497.195 265.869H497.11V272.5H496.121V263.773ZM506.661 272.5V265.955H507.666V272.5H506.661ZM507.172 264.864C506.976 264.864 506.807 264.797 506.665 264.663C506.526 264.53 506.456 264.369 506.456 264.182C506.456 263.994 506.526 263.834 506.665 263.7C506.807 263.567 506.976 263.5 507.172 263.5C507.368 263.5 507.536 263.567 507.675 263.7C507.817 263.834 507.888 263.994 507.888 264.182C507.888 264.369 507.817 264.53 507.675 264.663C507.536 264.797 507.368 264.864 507.172 264.864ZM512.15 275.091C511.665 275.091 511.247 275.028 510.898 274.903C510.548 274.781 510.257 274.619 510.024 274.418C509.794 274.219 509.611 274.006 509.474 273.778L510.275 273.216C510.366 273.335 510.481 273.472 510.621 273.625C510.76 273.781 510.95 273.916 511.192 274.03C511.436 274.146 511.756 274.205 512.15 274.205C512.679 274.205 513.115 274.077 513.459 273.821C513.802 273.565 513.974 273.165 513.974 272.619V271.29H513.889C513.815 271.409 513.71 271.557 513.574 271.733C513.44 271.906 513.247 272.061 512.994 272.197C512.744 272.331 512.406 272.398 511.98 272.398C511.452 272.398 510.977 272.273 510.557 272.023C510.139 271.773 509.808 271.409 509.564 270.932C509.322 270.455 509.202 269.875 509.202 269.193C509.202 268.523 509.319 267.939 509.555 267.442C509.791 266.942 510.119 266.555 510.54 266.283C510.96 266.007 511.446 265.869 511.997 265.869C512.423 265.869 512.761 265.94 513.011 266.082C513.264 266.222 513.457 266.381 513.591 266.56C513.727 266.736 513.832 266.881 513.906 266.994H514.008V265.955H514.98V272.688C514.98 273.25 514.852 273.707 514.596 274.06C514.344 274.415 514.003 274.675 513.574 274.839C513.148 275.007 512.673 275.091 512.15 275.091ZM512.116 271.494C512.52 271.494 512.861 271.402 513.139 271.217C513.417 271.033 513.629 270.767 513.774 270.42C513.919 270.074 513.991 269.659 513.991 269.176C513.991 268.705 513.92 268.288 513.778 267.928C513.636 267.567 513.426 267.284 513.148 267.08C512.869 266.875 512.525 266.773 512.116 266.773C511.69 266.773 511.335 266.881 511.051 267.097C510.77 267.312 510.558 267.602 510.416 267.966C510.277 268.33 510.207 268.733 510.207 269.176C510.207 269.631 510.278 270.033 510.42 270.382C510.565 270.729 510.778 271.001 511.059 271.2C511.344 271.396 511.696 271.494 512.116 271.494ZM516.821 272.5V265.955H517.792V266.943H517.861C517.98 266.619 518.196 266.357 518.508 266.155C518.821 265.953 519.173 265.852 519.565 265.852C519.639 265.852 519.731 265.854 519.842 265.857C519.953 265.859 520.037 265.864 520.094 265.869V266.892C520.059 266.884 519.981 266.871 519.859 266.854C519.74 266.834 519.613 266.824 519.48 266.824C519.162 266.824 518.878 266.891 518.628 267.024C518.381 267.155 518.184 267.337 518.04 267.57C517.898 267.8 517.827 268.062 517.827 268.358V272.5H516.821ZM523.212 272.653C522.797 272.653 522.421 272.575 522.083 272.419C521.744 272.26 521.476 272.031 521.277 271.733C521.078 271.432 520.979 271.068 520.979 270.642C520.979 270.267 521.053 269.963 521.2 269.73C521.348 269.494 521.546 269.31 521.793 269.176C522.04 269.043 522.313 268.943 522.611 268.878C522.912 268.81 523.215 268.756 523.519 268.716C523.916 268.665 524.239 268.626 524.486 268.601C524.736 268.572 524.918 268.526 525.031 268.46C525.148 268.395 525.206 268.281 525.206 268.119V268.085C525.206 267.665 525.091 267.338 524.861 267.105C524.634 266.872 524.289 266.756 523.825 266.756C523.345 266.756 522.969 266.861 522.696 267.071C522.423 267.281 522.232 267.506 522.121 267.744L521.166 267.403C521.337 267.006 521.564 266.696 521.848 266.474C522.135 266.25 522.448 266.094 522.786 266.006C523.127 265.915 523.462 265.869 523.791 265.869C524.002 265.869 524.243 265.895 524.516 265.946C524.791 265.994 525.057 266.095 525.313 266.249C525.571 266.402 525.786 266.634 525.956 266.943C526.127 267.253 526.212 267.668 526.212 268.188V272.5H525.206V271.614H525.155C525.087 271.756 524.973 271.908 524.814 272.07C524.655 272.232 524.443 272.369 524.179 272.483C523.915 272.597 523.593 272.653 523.212 272.653ZM523.365 271.75C523.763 271.75 524.098 271.672 524.371 271.516C524.646 271.359 524.854 271.158 524.993 270.911C525.135 270.663 525.206 270.403 525.206 270.131V269.21C525.164 269.261 525.07 269.308 524.925 269.351C524.783 269.391 524.618 269.426 524.431 269.457C524.246 269.486 524.066 269.511 523.889 269.534C523.716 269.554 523.575 269.571 523.468 269.585C523.206 269.619 522.962 269.675 522.735 269.751C522.51 269.825 522.328 269.937 522.189 270.088C522.053 270.236 521.985 270.437 521.985 270.693C521.985 271.043 522.114 271.307 522.372 271.486C522.634 271.662 522.965 271.75 523.365 271.75ZM530.894 265.955V266.807H527.502V265.955H530.894ZM528.491 264.386H529.496V270.625C529.496 270.909 529.537 271.122 529.62 271.264C529.705 271.403 529.813 271.497 529.944 271.545C530.077 271.591 530.218 271.614 530.366 271.614C530.476 271.614 530.567 271.608 530.638 271.597C530.709 271.582 530.766 271.571 530.809 271.562L531.013 272.466C530.945 272.491 530.85 272.517 530.728 272.543C530.606 272.571 530.451 272.585 530.263 272.585C529.979 272.585 529.701 272.524 529.428 272.402C529.158 272.28 528.934 272.094 528.755 271.844C528.579 271.594 528.491 271.278 528.491 270.898V264.386ZM532.407 272.5V265.955H533.412V272.5H532.407ZM532.918 264.864C532.722 264.864 532.553 264.797 532.411 264.663C532.272 264.53 532.202 264.369 532.202 264.182C532.202 263.994 532.272 263.834 532.411 263.7C532.553 263.567 532.722 263.5 532.918 263.5C533.114 263.5 533.282 263.567 533.421 263.7C533.563 263.834 533.634 263.994 533.634 264.182C533.634 264.369 533.563 264.53 533.421 264.663C533.282 264.797 533.114 264.864 532.918 264.864ZM537.914 272.636C537.323 272.636 536.804 272.496 536.358 272.214C535.915 271.933 535.568 271.54 535.318 271.034C535.071 270.528 534.948 269.937 534.948 269.261C534.948 268.58 535.071 267.984 535.318 267.476C535.568 266.967 535.915 266.572 536.358 266.291C536.804 266.01 537.323 265.869 537.914 265.869C538.504 265.869 539.021 266.01 539.465 266.291C539.911 266.572 540.257 266.967 540.504 267.476C540.754 267.984 540.879 268.58 540.879 269.261C540.879 269.937 540.754 270.528 540.504 271.034C540.257 271.54 539.911 271.933 539.465 272.214C539.021 272.496 538.504 272.636 537.914 272.636ZM537.914 271.733C538.362 271.733 538.732 271.618 539.021 271.388C539.311 271.158 539.526 270.855 539.665 270.48C539.804 270.105 539.874 269.699 539.874 269.261C539.874 268.824 539.804 268.416 539.665 268.038C539.526 267.661 539.311 267.355 539.021 267.122C538.732 266.889 538.362 266.773 537.914 266.773C537.465 266.773 537.095 266.889 536.806 267.122C536.516 267.355 536.301 267.661 536.162 268.038C536.023 268.416 535.953 268.824 535.953 269.261C535.953 269.699 536.023 270.105 536.162 270.48C536.301 270.855 536.516 271.158 536.806 271.388C537.095 271.618 537.465 271.733 537.914 271.733ZM543.42 268.562V272.5H542.415V265.955H543.386V266.977H543.471C543.625 266.645 543.858 266.378 544.17 266.176C544.483 265.972 544.886 265.869 545.381 265.869C545.824 265.869 546.211 265.96 546.544 266.142C546.876 266.321 547.135 266.594 547.319 266.96C547.504 267.324 547.596 267.784 547.596 268.341V272.5H546.591V268.409C546.591 267.895 546.457 267.494 546.19 267.207C545.923 266.918 545.557 266.773 545.091 266.773C544.77 266.773 544.483 266.842 544.23 266.982C543.98 267.121 543.782 267.324 543.638 267.591C543.493 267.858 543.42 268.182 543.42 268.562ZM557.718 265.955C557.667 265.523 557.46 265.188 557.096 264.949C556.732 264.71 556.286 264.591 555.758 264.591C555.372 264.591 555.034 264.653 554.744 264.778C554.457 264.903 554.232 265.075 554.07 265.294C553.911 265.513 553.832 265.761 553.832 266.04C553.832 266.273 553.887 266.473 553.998 266.641C554.112 266.805 554.257 266.943 554.433 267.054C554.609 267.162 554.794 267.251 554.987 267.322C555.18 267.391 555.357 267.446 555.519 267.489L556.406 267.727C556.633 267.787 556.886 267.869 557.164 267.974C557.445 268.08 557.714 268.223 557.97 268.405C558.228 268.584 558.441 268.814 558.609 269.095C558.776 269.376 558.86 269.722 558.86 270.131C558.86 270.602 558.737 271.028 558.49 271.409C558.245 271.79 557.887 272.092 557.416 272.317C556.947 272.541 556.377 272.653 555.707 272.653C555.082 272.653 554.541 272.553 554.083 272.351C553.629 272.149 553.271 271.868 553.009 271.507C552.751 271.146 552.605 270.727 552.57 270.25H553.661C553.69 270.58 553.801 270.852 553.994 271.068C554.19 271.281 554.437 271.44 554.735 271.545C555.036 271.648 555.36 271.699 555.707 271.699C556.11 271.699 556.472 271.634 556.794 271.503C557.115 271.369 557.369 271.185 557.556 270.949C557.744 270.71 557.838 270.432 557.838 270.114C557.838 269.824 557.757 269.588 557.595 269.406C557.433 269.224 557.22 269.077 556.955 268.963C556.691 268.849 556.406 268.75 556.099 268.665L555.025 268.358C554.343 268.162 553.803 267.882 553.406 267.518C553.008 267.155 552.809 266.679 552.809 266.091C552.809 265.602 552.941 265.176 553.205 264.812C553.472 264.446 553.83 264.162 554.279 263.96C554.731 263.756 555.235 263.653 555.792 263.653C556.355 263.653 556.855 263.754 557.292 263.956C557.73 264.155 558.076 264.428 558.332 264.774C558.59 265.121 558.727 265.514 558.741 265.955H557.718ZM563.308 265.955V266.807H559.916V265.955H563.308ZM560.905 264.386H561.91V270.625C561.91 270.909 561.952 271.122 562.034 271.264C562.119 271.403 562.227 271.497 562.358 271.545C562.491 271.591 562.632 271.614 562.78 271.614C562.89 271.614 562.981 271.608 563.052 271.597C563.123 271.582 563.18 271.571 563.223 271.562L563.427 272.466C563.359 272.491 563.264 272.517 563.142 272.543C563.02 272.571 562.865 272.585 562.677 272.585C562.393 272.585 562.115 272.524 561.842 272.402C561.572 272.28 561.348 272.094 561.169 271.844C560.993 271.594 560.905 271.278 560.905 270.898V264.386ZM566.747 272.653C566.332 272.653 565.956 272.575 565.618 272.419C565.28 272.26 565.011 272.031 564.812 271.733C564.613 271.432 564.514 271.068 564.514 270.642C564.514 270.267 564.588 269.963 564.736 269.73C564.883 269.494 565.081 269.31 565.328 269.176C565.575 269.043 565.848 268.943 566.146 268.878C566.447 268.81 566.75 268.756 567.054 268.716C567.452 268.665 567.774 268.626 568.021 268.601C568.271 268.572 568.453 268.526 568.567 268.46C568.683 268.395 568.741 268.281 568.741 268.119V268.085C568.741 267.665 568.626 267.338 568.396 267.105C568.169 266.872 567.824 266.756 567.361 266.756C566.881 266.756 566.504 266.861 566.231 267.071C565.959 267.281 565.767 267.506 565.656 267.744L564.702 267.403C564.872 267.006 565.099 266.696 565.383 266.474C565.67 266.25 565.983 266.094 566.321 266.006C566.662 265.915 566.997 265.869 567.327 265.869C567.537 265.869 567.778 265.895 568.051 265.946C568.327 265.994 568.592 266.095 568.848 266.249C569.106 266.402 569.321 266.634 569.491 266.943C569.662 267.253 569.747 267.668 569.747 268.188V272.5H568.741V271.614H568.69C568.622 271.756 568.508 271.908 568.349 272.07C568.19 272.232 567.979 272.369 567.714 272.483C567.45 272.597 567.128 272.653 566.747 272.653ZM566.9 271.75C567.298 271.75 567.633 271.672 567.906 271.516C568.182 271.359 568.389 271.158 568.528 270.911C568.67 270.663 568.741 270.403 568.741 270.131V269.21C568.699 269.261 568.605 269.308 568.46 269.351C568.318 269.391 568.153 269.426 567.966 269.457C567.781 269.486 567.601 269.511 567.425 269.534C567.251 269.554 567.111 269.571 567.003 269.585C566.741 269.619 566.497 269.675 566.27 269.751C566.045 269.825 565.863 269.937 565.724 270.088C565.588 270.236 565.52 270.437 565.52 270.693C565.52 271.043 565.649 271.307 565.907 271.486C566.169 271.662 566.5 271.75 566.9 271.75ZM574.429 265.955V266.807H571.037V265.955H574.429ZM572.026 264.386H573.031V270.625C573.031 270.909 573.073 271.122 573.155 271.264C573.24 271.403 573.348 271.497 573.479 271.545C573.612 271.591 573.753 271.614 573.901 271.614C574.012 271.614 574.102 271.608 574.173 271.597C574.244 271.582 574.301 271.571 574.344 271.562L574.548 272.466C574.48 272.491 574.385 272.517 574.263 272.543C574.141 272.571 573.986 272.585 573.798 272.585C573.514 272.585 573.236 272.524 572.963 272.402C572.693 272.28 572.469 272.094 572.29 271.844C572.114 271.594 572.026 271.278 572.026 270.898V264.386ZM578.616 272.636C577.985 272.636 577.441 272.497 576.984 272.219C576.529 271.938 576.178 271.545 575.931 271.043C575.687 270.537 575.565 269.949 575.565 269.278C575.565 268.608 575.687 268.017 575.931 267.506C576.178 266.991 576.522 266.591 576.963 266.304C577.406 266.014 577.923 265.869 578.514 265.869C578.855 265.869 579.191 265.926 579.524 266.04C579.856 266.153 580.159 266.338 580.431 266.594C580.704 266.847 580.921 267.182 581.083 267.599C581.245 268.017 581.326 268.531 581.326 269.142V269.568H576.281V268.699H580.303C580.303 268.33 580.23 268 580.082 267.71C579.937 267.42 579.73 267.192 579.46 267.024C579.193 266.857 578.877 266.773 578.514 266.773C578.113 266.773 577.767 266.872 577.474 267.071C577.184 267.267 576.961 267.523 576.805 267.838C576.649 268.153 576.57 268.491 576.57 268.852V269.432C576.57 269.926 576.656 270.345 576.826 270.689C576.999 271.03 577.24 271.29 577.546 271.469C577.853 271.645 578.21 271.733 578.616 271.733C578.88 271.733 579.119 271.696 579.332 271.622C579.548 271.545 579.734 271.432 579.89 271.281C580.046 271.128 580.167 270.937 580.252 270.71L581.224 270.983C581.122 271.312 580.95 271.602 580.708 271.852C580.467 272.099 580.169 272.293 579.813 272.432C579.458 272.568 579.059 272.636 578.616 272.636Z" fill="#374151"/>
<rect x="471.5" y="223.5" width="134" height="89" rx="9.5" stroke="#9CA3AF"/>
<rect x="20" y="26" width="299" height="140" rx="16" fill="#E5E7EB"/>
<circle cx="57.0159" cy="54.0159" r="7.01588" fill="#D1D5DB"/>
<circle cx="79.3016" cy="54.0159" r="7.01588" fill="#D1D5DB"/>
<circle cx="100.762" cy="54.0159" r="7.01588" fill="#D1D5DB"/>
<rect x="10" y="39" width="299" height="140" rx="16" fill="#F3F4F6"/>
<circle cx="47.0159" cy="67.0159" r="7.01588" fill="#D1D5DB"/>
<circle cx="69.3016" cy="67.0159" r="7.01588" fill="#D1D5DB"/>
<circle cx="90.762" cy="67.0159" r="7.01588" fill="#D1D5DB"/>
<rect y="52" width="299" height="140" rx="16" fill="#F9FAFB"/>
<path d="M64.7073 122V108.909H69.284C70.1959 108.909 70.9481 109.067 71.5404 109.382C72.1327 109.693 72.5738 110.113 72.8635 110.641C73.1533 111.165 73.2982 111.747 73.2982 112.386C73.2982 112.949 73.1981 113.413 72.9978 113.78C72.8018 114.146 72.5418 114.436 72.218 114.649C71.8983 114.862 71.551 115.02 71.176 115.122V115.25C71.5766 115.276 71.9793 115.416 72.3841 115.672C72.789 115.928 73.1278 116.294 73.4005 116.771C73.6732 117.249 73.8096 117.832 73.8096 118.523C73.8096 119.179 73.6604 119.769 73.3621 120.293C73.0638 120.817 72.593 121.233 71.9495 121.54C71.306 121.847 70.4687 122 69.4374 122H64.7073ZM66.2925 120.594H69.4374C70.4729 120.594 71.208 120.393 71.6427 119.993C72.0816 119.588 72.301 119.098 72.301 118.523C72.301 118.08 72.1881 117.67 71.9623 117.295C71.7364 116.916 71.4147 116.614 70.9971 116.388C70.5795 116.158 70.0851 116.043 69.5141 116.043H66.2925V120.594ZM66.2925 114.662H69.2329C69.7101 114.662 70.1405 114.568 70.5241 114.381C70.9118 114.193 71.2187 113.929 71.4445 113.588C71.6746 113.247 71.7897 112.847 71.7897 112.386C71.7897 111.811 71.5894 111.323 71.1888 110.923C70.7883 110.518 70.1533 110.315 69.284 110.315H66.2925V114.662ZM76.2098 122V112.182H77.7183V122H76.2098ZM76.9768 110.545C76.6828 110.545 76.4292 110.445 76.2162 110.245C76.0074 110.045 75.903 109.804 75.903 109.523C75.903 109.241 76.0074 109.001 76.2162 108.8C76.4292 108.6 76.6828 108.5 76.9768 108.5C77.2709 108.5 77.5223 108.6 77.7311 108.8C77.9442 109.001 78.0507 109.241 78.0507 109.523C78.0507 109.804 77.9442 110.045 77.7311 110.245C77.5223 110.445 77.2709 110.545 76.9768 110.545ZM81.9898 108.909V122H80.4813V108.909H81.9898ZM86.2613 108.909V122H84.7528V108.909H86.2613ZM89.0242 122V112.182H90.5328V122H89.0242ZM89.7913 110.545C89.4972 110.545 89.2437 110.445 89.0306 110.245C88.8218 110.045 88.7174 109.804 88.7174 109.523C88.7174 109.241 88.8218 109.001 89.0306 108.8C89.2437 108.6 89.4972 108.5 89.7913 108.5C90.0853 108.5 90.3367 108.6 90.5455 108.8C90.7586 109.001 90.8651 109.241 90.8651 109.523C90.8651 109.804 90.7586 110.045 90.5455 110.245C90.3367 110.445 90.0853 110.545 89.7913 110.545ZM94.8042 116.094V122H93.2957V112.182H94.7531V113.716H94.8809C95.1111 113.217 95.4605 112.817 95.9292 112.514C96.398 112.207 97.0031 112.054 97.7446 112.054C98.4094 112.054 98.991 112.19 99.4896 112.463C99.9882 112.732 100.376 113.141 100.653 113.69C100.93 114.236 101.068 114.926 101.068 115.761V122H99.5599V115.864C99.5599 115.092 99.3596 114.491 98.9591 114.061C98.5585 113.626 98.0088 113.409 97.3099 113.409C96.8284 113.409 96.398 113.513 96.0187 113.722C95.6437 113.931 95.3476 114.236 95.1302 114.636C94.9129 115.037 94.8042 115.523 94.8042 116.094ZM107.788 125.886C107.059 125.886 106.433 125.793 105.909 125.605C105.385 125.422 104.948 125.179 104.598 124.876C104.253 124.578 103.978 124.259 103.774 123.918L104.976 123.074C105.112 123.253 105.285 123.457 105.493 123.688C105.702 123.922 105.988 124.124 106.35 124.295C106.716 124.469 107.196 124.557 107.788 124.557C108.581 124.557 109.235 124.365 109.75 123.982C110.266 123.598 110.524 122.997 110.524 122.179V120.185H110.396C110.285 120.364 110.128 120.585 109.923 120.849C109.723 121.109 109.433 121.342 109.054 121.546C108.679 121.746 108.172 121.847 107.532 121.847C106.74 121.847 106.028 121.659 105.397 121.284C104.771 120.909 104.275 120.364 103.908 119.648C103.546 118.932 103.365 118.062 103.365 117.04C103.365 116.034 103.542 115.158 103.895 114.413C104.249 113.663 104.741 113.083 105.372 112.674C106.003 112.261 106.731 112.054 107.558 112.054C108.197 112.054 108.704 112.161 109.079 112.374C109.459 112.582 109.748 112.821 109.949 113.089C110.153 113.354 110.311 113.571 110.422 113.741H110.575V112.182H112.032V122.281C112.032 123.125 111.841 123.811 111.457 124.339C111.078 124.872 110.566 125.262 109.923 125.509C109.284 125.761 108.572 125.886 107.788 125.886ZM107.737 120.491C108.342 120.491 108.853 120.353 109.271 120.076C109.689 119.799 110.006 119.401 110.223 118.881C110.441 118.361 110.549 117.739 110.549 117.014C110.549 116.307 110.443 115.683 110.23 115.141C110.017 114.6 109.701 114.176 109.284 113.869C108.866 113.562 108.351 113.409 107.737 113.409C107.098 113.409 106.565 113.571 106.139 113.895C105.717 114.219 105.4 114.653 105.187 115.199C104.978 115.744 104.873 116.349 104.873 117.014C104.873 117.696 104.98 118.299 105.193 118.823C105.41 119.343 105.73 119.752 106.152 120.05C106.578 120.344 107.106 120.491 107.737 120.491ZM122.745 122.23C122.123 122.23 121.559 122.113 121.052 121.879C120.544 121.64 120.142 121.297 119.843 120.849C119.545 120.398 119.396 119.852 119.396 119.213C119.396 118.651 119.507 118.195 119.728 117.845C119.95 117.491 120.246 117.214 120.617 117.014C120.988 116.814 121.397 116.665 121.844 116.567C122.296 116.464 122.75 116.384 123.206 116.324C123.802 116.247 124.286 116.19 124.657 116.151C125.032 116.109 125.304 116.038 125.475 115.94C125.65 115.842 125.737 115.672 125.737 115.429V115.378C125.737 114.747 125.564 114.257 125.219 113.908C124.878 113.558 124.361 113.384 123.666 113.384C122.946 113.384 122.381 113.541 121.972 113.857C121.563 114.172 121.275 114.509 121.109 114.866L119.677 114.355C119.933 113.759 120.274 113.294 120.7 112.962C121.13 112.625 121.599 112.391 122.106 112.259C122.618 112.122 123.12 112.054 123.615 112.054C123.93 112.054 124.292 112.092 124.701 112.169C125.115 112.241 125.513 112.393 125.897 112.623C126.285 112.853 126.606 113.2 126.862 113.665C127.118 114.129 127.245 114.751 127.245 115.531V122H125.737V120.67H125.66C125.558 120.884 125.388 121.112 125.149 121.354C124.91 121.597 124.593 121.804 124.196 121.974C123.8 122.145 123.316 122.23 122.745 122.23ZM122.976 120.875C123.572 120.875 124.075 120.758 124.484 120.523C124.897 120.289 125.209 119.987 125.417 119.616C125.63 119.245 125.737 118.855 125.737 118.446V117.065C125.673 117.142 125.532 117.212 125.315 117.276C125.102 117.336 124.855 117.389 124.574 117.436C124.297 117.479 124.026 117.517 123.762 117.551C123.502 117.581 123.291 117.607 123.129 117.628C122.737 117.679 122.37 117.762 122.03 117.877C121.693 117.988 121.42 118.156 121.211 118.382C121.007 118.604 120.905 118.906 120.905 119.29C120.905 119.814 121.098 120.21 121.486 120.479C121.878 120.743 122.375 120.875 122.976 120.875ZM131.507 116.094V122H129.999V112.182H131.456V113.716H131.584C131.814 113.217 132.164 112.817 132.632 112.514C133.101 112.207 133.706 112.054 134.448 112.054C135.112 112.054 135.694 112.19 136.193 112.463C136.691 112.732 137.079 113.141 137.356 113.69C137.633 114.236 137.772 114.926 137.772 115.761V122H136.263V115.864C136.263 115.092 136.063 114.491 135.662 114.061C135.262 113.626 134.712 113.409 134.013 113.409C133.532 113.409 133.101 113.513 132.722 113.722C132.347 113.931 132.051 114.236 131.833 114.636C131.616 115.037 131.507 115.523 131.507 116.094ZM144.236 122.205C143.417 122.205 142.695 121.998 142.069 121.585C141.442 121.167 140.952 120.579 140.598 119.82C140.245 119.058 140.068 118.156 140.068 117.116C140.068 116.085 140.245 115.19 140.598 114.432C140.952 113.673 141.444 113.087 142.075 112.674C142.706 112.261 143.434 112.054 144.261 112.054C144.9 112.054 145.405 112.161 145.776 112.374C146.151 112.582 146.437 112.821 146.633 113.089C146.833 113.354 146.988 113.571 147.099 113.741H147.227V108.909H148.736V122H147.278V120.491H147.099C146.988 120.67 146.831 120.896 146.626 121.169C146.422 121.437 146.13 121.678 145.75 121.891C145.371 122.1 144.866 122.205 144.236 122.205ZM144.44 120.849C145.045 120.849 145.557 120.692 145.974 120.376C146.392 120.057 146.709 119.616 146.927 119.053C147.144 118.487 147.253 117.832 147.253 117.091C147.253 116.358 147.146 115.717 146.933 115.167C146.72 114.613 146.405 114.183 145.987 113.876C145.569 113.565 145.054 113.409 144.44 113.409C143.801 113.409 143.268 113.573 142.842 113.901C142.42 114.225 142.103 114.666 141.89 115.224C141.681 115.778 141.576 116.401 141.576 117.091C141.576 117.79 141.683 118.425 141.896 118.996C142.113 119.562 142.433 120.014 142.855 120.351C143.281 120.683 143.809 120.849 144.44 120.849ZM156.975 122V108.909H161.398C162.425 108.909 163.265 109.094 163.917 109.465C164.573 109.832 165.059 110.328 165.374 110.955C165.689 111.581 165.847 112.28 165.847 113.051C165.847 113.822 165.689 114.523 165.374 115.154C165.063 115.785 164.581 116.288 163.929 116.663C163.277 117.033 162.442 117.219 161.424 117.219H158.253V115.812H161.373C162.076 115.812 162.64 115.691 163.066 115.448C163.493 115.205 163.802 114.877 163.993 114.464C164.189 114.046 164.287 113.575 164.287 113.051C164.287 112.527 164.189 112.058 163.993 111.645C163.802 111.232 163.491 110.908 163.06 110.673C162.63 110.435 162.059 110.315 161.347 110.315H158.56V122H156.975ZM171.085 122.23C170.463 122.23 169.899 122.113 169.391 121.879C168.884 121.64 168.482 121.297 168.183 120.849C167.885 120.398 167.736 119.852 167.736 119.213C167.736 118.651 167.847 118.195 168.068 117.845C168.29 117.491 168.586 117.214 168.957 117.014C169.328 116.814 169.737 116.665 170.184 116.567C170.636 116.464 171.09 116.384 171.546 116.324C172.142 116.247 172.626 116.19 172.997 116.151C173.372 116.109 173.644 116.038 173.815 115.94C173.989 115.842 174.077 115.672 174.077 115.429V115.378C174.077 114.747 173.904 114.257 173.559 113.908C173.218 113.558 172.7 113.384 172.006 113.384C171.286 113.384 170.721 113.541 170.312 113.857C169.903 114.172 169.615 114.509 169.449 114.866L168.017 114.355C168.273 113.759 168.614 113.294 169.04 112.962C169.47 112.625 169.939 112.391 170.446 112.259C170.957 112.122 171.46 112.054 171.955 112.054C172.27 112.054 172.632 112.092 173.041 112.169C173.455 112.241 173.853 112.393 174.237 112.623C174.624 112.853 174.946 113.2 175.202 113.665C175.457 114.129 175.585 114.751 175.585 115.531V122H174.077V120.67H174C173.898 120.884 173.727 121.112 173.489 121.354C173.25 121.597 172.933 121.804 172.536 121.974C172.14 122.145 171.656 122.23 171.085 122.23ZM171.315 120.875C171.912 120.875 172.415 120.758 172.824 120.523C173.237 120.289 173.548 119.987 173.757 119.616C173.97 119.245 174.077 118.855 174.077 118.446V117.065C174.013 117.142 173.872 117.212 173.655 117.276C173.442 117.336 173.195 117.389 172.913 117.436C172.636 117.479 172.366 117.517 172.102 117.551C171.842 117.581 171.631 117.607 171.469 117.628C171.077 117.679 170.71 117.762 170.369 117.877C170.033 117.988 169.76 118.156 169.551 118.382C169.347 118.604 169.244 118.906 169.244 119.29C169.244 119.814 169.438 120.21 169.826 120.479C170.218 120.743 170.715 120.875 171.315 120.875ZM178.959 125.682C178.703 125.682 178.475 125.661 178.275 125.618C178.074 125.58 177.936 125.541 177.859 125.503L178.243 124.173C178.609 124.267 178.933 124.301 179.214 124.276C179.496 124.25 179.745 124.124 179.962 123.898C180.184 123.677 180.386 123.317 180.57 122.818L180.851 122.051L177.22 112.182H178.856L181.567 120.006H181.669L184.379 112.182H186.016L181.848 123.432C181.66 123.939 181.428 124.359 181.151 124.691C180.874 125.028 180.552 125.277 180.186 125.439C179.824 125.601 179.415 125.682 178.959 125.682ZM188.007 122V112.182H189.464V113.716H189.592C189.796 113.192 190.127 112.785 190.583 112.495C191.039 112.201 191.586 112.054 192.225 112.054C192.873 112.054 193.412 112.201 193.843 112.495C194.277 112.785 194.616 113.192 194.859 113.716H194.961C195.213 113.209 195.59 112.806 196.093 112.508C196.595 112.205 197.198 112.054 197.902 112.054C198.779 112.054 199.497 112.329 200.056 112.879C200.614 113.424 200.893 114.274 200.893 115.429V122H199.384V115.429C199.384 114.705 199.186 114.187 198.79 113.876C198.394 113.565 197.927 113.409 197.39 113.409C196.7 113.409 196.165 113.618 195.786 114.036C195.407 114.449 195.217 114.973 195.217 115.608V122H193.683V115.276C193.683 114.717 193.502 114.268 193.139 113.927C192.777 113.582 192.311 113.409 191.74 113.409C191.348 113.409 190.981 113.513 190.64 113.722C190.304 113.931 190.031 114.221 189.822 114.592C189.617 114.958 189.515 115.382 189.515 115.864V122H188.007ZM207.768 122.205C206.822 122.205 206.006 121.996 205.32 121.578C204.638 121.156 204.111 120.568 203.741 119.814C203.374 119.055 203.191 118.173 203.191 117.168C203.191 116.162 203.374 115.276 203.741 114.509C204.111 113.737 204.627 113.136 205.288 112.706C205.952 112.271 206.728 112.054 207.614 112.054C208.126 112.054 208.631 112.139 209.129 112.31C209.628 112.48 210.082 112.757 210.491 113.141C210.9 113.52 211.226 114.023 211.469 114.649C211.712 115.276 211.833 116.047 211.833 116.963V117.602H204.265V116.298H210.299C210.299 115.744 210.188 115.25 209.967 114.815C209.749 114.381 209.438 114.038 209.033 113.786C208.633 113.535 208.16 113.409 207.614 113.409C207.013 113.409 206.494 113.558 206.055 113.857C205.62 114.151 205.285 114.534 205.051 115.007C204.817 115.48 204.699 115.987 204.699 116.528V117.398C204.699 118.139 204.827 118.768 205.083 119.283C205.343 119.795 205.703 120.185 206.163 120.453C206.623 120.717 207.158 120.849 207.768 120.849C208.164 120.849 208.522 120.794 208.842 120.683C209.165 120.568 209.445 120.398 209.679 120.172C209.913 119.942 210.094 119.656 210.222 119.315L211.68 119.724C211.526 120.219 211.268 120.653 210.906 121.028C210.544 121.399 210.097 121.689 209.564 121.898C209.031 122.102 208.432 122.205 207.768 122.205ZM215.636 116.094V122H214.128V112.182H215.585V113.716H215.713C215.943 113.217 216.293 112.817 216.761 112.514C217.23 112.207 217.835 112.054 218.577 112.054C219.241 112.054 219.823 112.19 220.322 112.463C220.82 112.732 221.208 113.141 221.485 113.69C221.762 114.236 221.9 114.926 221.9 115.761V122H220.392V115.864C220.392 115.092 220.192 114.491 219.791 114.061C219.391 113.626 218.841 113.409 218.142 113.409C217.66 113.409 217.23 113.513 216.851 113.722C216.476 113.931 216.18 114.236 215.962 114.636C215.745 115.037 215.636 115.523 215.636 116.094ZM228.927 112.182V113.46H223.839V112.182H228.927ZM225.322 109.83H226.83V119.188C226.83 119.614 226.892 119.933 227.016 120.146C227.144 120.355 227.305 120.496 227.502 120.568C227.702 120.636 227.913 120.67 228.134 120.67C228.301 120.67 228.437 120.662 228.543 120.645C228.65 120.624 228.735 120.607 228.799 120.594L229.106 121.949C229.004 121.987 228.861 122.026 228.678 122.064C228.494 122.107 228.262 122.128 227.981 122.128C227.555 122.128 227.137 122.036 226.728 121.853C226.323 121.67 225.987 121.391 225.718 121.016C225.454 120.641 225.322 120.168 225.322 119.597V109.83ZM70.0487 149V139.182H71.506V140.665H71.6083C71.7873 140.179 72.1112 139.785 72.5799 139.482C73.0487 139.18 73.5771 139.028 74.1651 139.028C74.2759 139.028 74.4144 139.031 74.5806 139.035C74.7468 139.039 74.8725 139.045 74.9577 139.054V140.588C74.9066 140.575 74.7894 140.556 74.6062 140.531C74.4272 140.501 74.2376 140.486 74.0373 140.486C73.56 140.486 73.1339 140.586 72.7589 140.786C72.3881 140.982 72.0941 141.255 71.8768 141.604C71.6637 141.95 71.5572 142.344 71.5572 142.787V149H70.0487ZM80.5636 149.205C79.6175 149.205 78.8015 148.996 78.1154 148.578C77.4336 148.156 76.9073 147.568 76.5366 146.814C76.1701 146.055 75.9869 145.173 75.9869 144.168C75.9869 143.162 76.1701 142.276 76.5366 141.509C76.9073 140.737 77.4229 140.136 78.0835 139.706C78.7482 139.271 79.5238 139.054 80.4102 139.054C80.9215 139.054 81.4265 139.139 81.9251 139.31C82.4237 139.48 82.8775 139.757 83.2866 140.141C83.6957 140.52 84.0217 141.023 84.2646 141.649C84.5075 142.276 84.6289 143.047 84.6289 143.963V144.602H77.0607V143.298H83.0948C83.0948 142.744 82.984 142.25 82.7624 141.815C82.5451 141.381 82.234 141.038 81.8292 140.786C81.4286 140.535 80.9556 140.409 80.4102 140.409C79.8093 140.409 79.2894 140.558 78.8505 140.857C78.4158 141.151 78.0813 141.534 77.8469 142.007C77.6126 142.48 77.4954 142.987 77.4954 143.528V144.398C77.4954 145.139 77.6232 145.768 77.8789 146.283C78.1388 146.795 78.4989 147.185 78.9592 147.453C79.4194 147.717 79.9542 147.849 80.5636 147.849C80.9599 147.849 81.3178 147.794 81.6374 147.683C81.9613 147.568 82.2404 147.398 82.4748 147.172C82.7092 146.942 82.8903 146.656 83.0181 146.315L84.4755 146.724C84.3221 147.219 84.0643 147.653 83.7021 148.028C83.3398 148.399 82.8924 148.689 82.3597 148.898C81.8271 149.102 81.2283 149.205 80.5636 149.205ZM88.4322 135.909V149H86.9237V135.909H88.4322ZM94.0843 149.23C93.4622 149.23 92.8975 149.113 92.3904 148.879C91.8833 148.64 91.4806 148.297 91.1824 147.849C90.8841 147.398 90.7349 146.852 90.7349 146.213C90.7349 145.651 90.8457 145.195 91.0673 144.845C91.2889 144.491 91.585 144.214 91.9558 144.014C92.3265 143.814 92.7356 143.665 93.1831 143.567C93.6348 143.464 94.0886 143.384 94.5446 143.324C95.1412 143.247 95.6248 143.19 95.9956 143.151C96.3706 143.109 96.6433 143.038 96.8137 142.94C96.9885 142.842 97.0758 142.672 97.0758 142.429V142.378C97.0758 141.747 96.9032 141.257 96.5581 140.908C96.2172 140.558 95.6994 140.384 95.0048 140.384C94.2846 140.384 93.72 140.541 93.3109 140.857C92.9018 141.172 92.6142 141.509 92.448 141.866L91.0162 141.355C91.2718 140.759 91.6127 140.294 92.0389 139.962C92.4693 139.625 92.938 139.391 93.4451 139.259C93.9565 139.122 94.4593 139.054 94.9537 139.054C95.269 139.054 95.6312 139.092 96.0403 139.169C96.4537 139.241 96.8521 139.393 97.2356 139.623C97.6234 139.853 97.9451 140.2 98.2008 140.665C98.4565 141.129 98.5843 141.751 98.5843 142.531V149H97.0758V147.67H96.9991C96.8968 147.884 96.7264 148.112 96.4877 148.354C96.2491 148.597 95.9316 148.804 95.5353 148.974C95.139 149.145 94.6554 149.23 94.0843 149.23ZM94.3145 147.875C94.911 147.875 95.4139 147.758 95.823 147.523C96.2363 147.289 96.5474 146.987 96.7562 146.616C96.9693 146.245 97.0758 145.855 97.0758 145.446V144.065C97.0119 144.142 96.8713 144.212 96.6539 144.276C96.4409 144.336 96.1937 144.389 95.9125 144.436C95.6355 144.479 95.3649 144.517 95.1007 144.551C94.8407 144.581 94.6298 144.607 94.4679 144.628C94.0758 144.679 93.7093 144.762 93.3684 144.877C93.0318 144.988 92.7591 145.156 92.5502 145.382C92.3457 145.604 92.2434 145.906 92.2434 146.29C92.2434 146.814 92.4373 147.21 92.8251 147.479C93.2172 147.743 93.7136 147.875 94.3145 147.875ZM105.608 139.182V140.46H100.52V139.182H105.608ZM102.002 136.83H103.511V146.188C103.511 146.614 103.573 146.933 103.696 147.146C103.824 147.355 103.986 147.496 104.182 147.568C104.382 147.636 104.593 147.67 104.815 147.67C104.981 147.67 105.118 147.662 105.224 147.645C105.331 147.624 105.416 147.607 105.48 147.594L105.787 148.949C105.684 148.987 105.542 149.026 105.358 149.064C105.175 149.107 104.943 149.128 104.662 149.128C104.235 149.128 103.818 149.036 103.409 148.853C103.004 148.67 102.667 148.391 102.399 148.016C102.135 147.641 102.002 147.168 102.002 146.597V136.83ZM111.888 149.205C110.942 149.205 110.126 148.996 109.44 148.578C108.758 148.156 108.232 147.568 107.861 146.814C107.494 146.055 107.311 145.173 107.311 144.168C107.311 143.162 107.494 142.276 107.861 141.509C108.232 140.737 108.747 140.136 109.408 139.706C110.072 139.271 110.848 139.054 111.734 139.054C112.246 139.054 112.751 139.139 113.249 139.31C113.748 139.48 114.202 139.757 114.611 140.141C115.02 140.52 115.346 141.023 115.589 141.649C115.832 142.276 115.953 143.047 115.953 143.963V144.602H108.385V143.298H114.419C114.419 142.744 114.308 142.25 114.087 141.815C113.869 141.381 113.558 141.038 113.153 140.786C112.753 140.535 112.28 140.409 111.734 140.409C111.134 140.409 110.614 140.558 110.175 140.857C109.74 141.151 109.406 141.534 109.171 142.007C108.937 142.48 108.82 142.987 108.82 143.528V144.398C108.82 145.139 108.947 145.768 109.203 146.283C109.463 146.795 109.823 147.185 110.283 147.453C110.744 147.717 111.278 147.849 111.888 147.849C112.284 147.849 112.642 147.794 112.962 147.683C113.286 147.568 113.565 147.398 113.799 147.172C114.033 146.942 114.214 146.656 114.342 146.315L115.8 146.724C115.646 147.219 115.388 147.653 115.026 148.028C114.664 148.399 114.217 148.689 113.684 148.898C113.151 149.102 112.553 149.205 111.888 149.205ZM121.955 149.205C121.137 149.205 120.415 148.998 119.788 148.585C119.162 148.167 118.672 147.579 118.318 146.82C117.964 146.058 117.788 145.156 117.788 144.116C117.788 143.085 117.964 142.19 118.318 141.432C118.672 140.673 119.164 140.087 119.795 139.674C120.425 139.261 121.154 139.054 121.981 139.054C122.62 139.054 123.125 139.161 123.496 139.374C123.871 139.582 124.156 139.821 124.352 140.089C124.553 140.354 124.708 140.571 124.819 140.741H124.947V135.909H126.455V149H124.998V147.491H124.819C124.708 147.67 124.55 147.896 124.346 148.169C124.141 148.437 123.849 148.678 123.47 148.891C123.091 149.1 122.586 149.205 121.955 149.205ZM122.16 147.849C122.765 147.849 123.276 147.692 123.694 147.376C124.112 147.057 124.429 146.616 124.646 146.053C124.864 145.487 124.972 144.832 124.972 144.091C124.972 143.358 124.866 142.717 124.653 142.167C124.44 141.613 124.124 141.183 123.707 140.876C123.289 140.565 122.773 140.409 122.16 140.409C121.521 140.409 120.988 140.573 120.562 140.901C120.14 141.225 119.822 141.666 119.609 142.224C119.401 142.778 119.296 143.401 119.296 144.091C119.296 144.79 119.403 145.425 119.616 145.996C119.833 146.562 120.153 147.014 120.575 147.351C121.001 147.683 121.529 147.849 122.16 147.849ZM138.479 149.205C137.558 149.205 136.766 148.987 136.101 148.553C135.436 148.118 134.925 147.519 134.567 146.756C134.209 145.994 134.03 145.122 134.03 144.142C134.03 143.145 134.213 142.265 134.58 141.502C134.95 140.735 135.466 140.136 136.126 139.706C136.791 139.271 137.567 139.054 138.453 139.054C139.143 139.054 139.766 139.182 140.32 139.438C140.874 139.693 141.327 140.051 141.681 140.511C142.035 140.972 142.254 141.509 142.339 142.122H140.831C140.716 141.675 140.46 141.278 140.064 140.933C139.672 140.584 139.143 140.409 138.479 140.409C137.891 140.409 137.375 140.562 136.932 140.869C136.493 141.172 136.15 141.6 135.903 142.154C135.66 142.704 135.538 143.349 135.538 144.091C135.538 144.849 135.658 145.51 135.896 146.072C136.139 146.635 136.48 147.072 136.919 147.383C137.362 147.694 137.882 147.849 138.479 147.849C138.871 147.849 139.227 147.781 139.546 147.645C139.866 147.509 140.136 147.312 140.358 147.057C140.58 146.801 140.737 146.494 140.831 146.136H142.339C142.254 146.716 142.043 147.238 141.707 147.702C141.374 148.163 140.933 148.529 140.384 148.802C139.838 149.07 139.203 149.205 138.479 149.205ZM148.533 149.205C147.647 149.205 146.869 148.994 146.2 148.572C145.536 148.15 145.016 147.56 144.641 146.801C144.27 146.043 144.085 145.156 144.085 144.142C144.085 143.119 144.27 142.227 144.641 141.464C145.016 140.701 145.536 140.109 146.2 139.687C146.869 139.265 147.647 139.054 148.533 139.054C149.42 139.054 150.195 139.265 150.86 139.687C151.529 140.109 152.049 140.701 152.42 141.464C152.795 142.227 152.982 143.119 152.982 144.142C152.982 145.156 152.795 146.043 152.42 146.801C152.049 147.56 151.529 148.15 150.86 148.572C150.195 148.994 149.42 149.205 148.533 149.205ZM148.533 147.849C149.207 147.849 149.761 147.677 150.195 147.332C150.63 146.987 150.952 146.533 151.161 145.97C151.369 145.408 151.474 144.798 151.474 144.142C151.474 143.486 151.369 142.874 151.161 142.308C150.952 141.741 150.63 141.283 150.195 140.933C149.761 140.584 149.207 140.409 148.533 140.409C147.86 140.409 147.306 140.584 146.871 140.933C146.437 141.283 146.115 141.741 145.906 142.308C145.697 142.874 145.593 143.486 145.593 144.142C145.593 144.798 145.697 145.408 145.906 145.97C146.115 146.533 146.437 146.987 146.871 147.332C147.306 147.677 147.86 147.849 148.533 147.849ZM155.285 149V139.182H156.742V140.716H156.87C157.075 140.192 157.405 139.785 157.861 139.495C158.317 139.201 158.865 139.054 159.504 139.054C160.151 139.054 160.691 139.201 161.121 139.495C161.556 139.785 161.894 140.192 162.137 140.716H162.24C162.491 140.209 162.868 139.806 163.371 139.508C163.874 139.205 164.477 139.054 165.18 139.054C166.058 139.054 166.776 139.329 167.334 139.879C167.892 140.424 168.171 141.274 168.171 142.429V149H166.663V142.429C166.663 141.705 166.465 141.187 166.068 140.876C165.672 140.565 165.205 140.409 164.669 140.409C163.978 140.409 163.443 140.618 163.064 141.036C162.685 141.449 162.495 141.973 162.495 142.608V149H160.961V142.276C160.961 141.717 160.78 141.268 160.418 140.927C160.056 140.582 159.589 140.409 159.018 140.409C158.626 140.409 158.259 140.513 157.919 140.722C157.582 140.931 157.309 141.221 157.1 141.592C156.896 141.958 156.794 142.382 156.794 142.864V149H155.285ZM170.93 152.682V139.182H172.387V140.741H172.566C172.677 140.571 172.83 140.354 173.026 140.089C173.226 139.821 173.512 139.582 173.883 139.374C174.258 139.161 174.765 139.054 175.404 139.054C176.231 139.054 176.959 139.261 177.59 139.674C178.221 140.087 178.713 140.673 179.067 141.432C179.42 142.19 179.597 143.085 179.597 144.116C179.597 145.156 179.42 146.058 179.067 146.82C178.713 147.579 178.223 148.167 177.596 148.585C176.97 148.998 176.248 149.205 175.43 149.205C174.799 149.205 174.294 149.1 173.915 148.891C173.535 148.678 173.243 148.437 173.039 148.169C172.834 147.896 172.677 147.67 172.566 147.491H172.438V152.682H170.93ZM172.412 144.091C172.412 144.832 172.521 145.487 172.738 146.053C172.956 146.616 173.273 147.057 173.691 147.376C174.108 147.692 174.62 147.849 175.225 147.849C175.856 147.849 176.382 147.683 176.804 147.351C177.23 147.014 177.55 146.562 177.763 145.996C177.98 145.425 178.089 144.79 178.089 144.091C178.089 143.401 177.982 142.778 177.769 142.224C177.56 141.666 177.243 141.225 176.817 140.901C176.395 140.573 175.864 140.409 175.225 140.409C174.611 140.409 174.096 140.565 173.678 140.876C173.26 141.183 172.945 141.613 172.732 142.167C172.519 142.717 172.412 143.358 172.412 144.091ZM185.887 149.205C185.001 149.205 184.223 148.994 183.554 148.572C182.889 148.15 182.369 147.56 181.994 146.801C181.623 146.043 181.438 145.156 181.438 144.142C181.438 143.119 181.623 142.227 181.994 141.464C182.369 140.701 182.889 140.109 183.554 139.687C184.223 139.265 185.001 139.054 185.887 139.054C186.773 139.054 187.549 139.265 188.214 139.687C188.883 140.109 189.403 140.701 189.773 141.464C190.148 142.227 190.336 143.119 190.336 144.142C190.336 145.156 190.148 146.043 189.773 146.801C189.403 147.56 188.883 148.15 188.214 148.572C187.549 148.994 186.773 149.205 185.887 149.205ZM185.887 147.849C186.56 147.849 187.114 147.677 187.549 147.332C187.983 146.987 188.305 146.533 188.514 145.97C188.723 145.408 188.827 144.798 188.827 144.142C188.827 143.486 188.723 142.874 188.514 142.308C188.305 141.741 187.983 141.283 187.549 140.933C187.114 140.584 186.56 140.409 185.887 140.409C185.214 140.409 184.66 140.584 184.225 140.933C183.79 141.283 183.469 141.741 183.26 142.308C183.051 142.874 182.947 143.486 182.947 144.142C182.947 144.798 183.051 145.408 183.26 145.97C183.469 146.533 183.79 146.987 184.225 147.332C184.66 147.677 185.214 147.849 185.887 147.849ZM194.147 143.094V149H192.638V139.182H194.096V140.716H194.224C194.454 140.217 194.803 139.817 195.272 139.514C195.741 139.207 196.346 139.054 197.087 139.054C197.752 139.054 198.334 139.19 198.832 139.463C199.331 139.732 199.719 140.141 199.996 140.69C200.273 141.236 200.411 141.926 200.411 142.761V149H198.903V142.864C198.903 142.092 198.702 141.491 198.302 141.061C197.901 140.626 197.352 140.409 196.653 140.409C196.171 140.409 195.741 140.513 195.362 140.722C194.987 140.931 194.69 141.236 194.473 141.636C194.256 142.037 194.147 142.523 194.147 143.094ZM207.284 149.205C206.338 149.205 205.522 148.996 204.836 148.578C204.154 148.156 203.628 147.568 203.257 146.814C202.891 146.055 202.708 145.173 202.708 144.168C202.708 143.162 202.891 142.276 203.257 141.509C203.628 140.737 204.144 140.136 204.804 139.706C205.469 139.271 206.244 139.054 207.131 139.054C207.642 139.054 208.147 139.139 208.646 139.31C209.144 139.48 209.598 139.757 210.007 140.141C210.416 140.52 210.742 141.023 210.985 141.649C211.228 142.276 211.35 143.047 211.35 143.963V144.602H203.781V143.298H209.816C209.816 142.744 209.705 142.25 209.483 141.815C209.266 141.381 208.955 141.038 208.55 140.786C208.149 140.535 207.676 140.409 207.131 140.409C206.53 140.409 206.01 140.558 205.571 140.857C205.137 141.151 204.802 141.534 204.568 142.007C204.333 142.48 204.216 142.987 204.216 143.528V144.398C204.216 145.139 204.344 145.768 204.6 146.283C204.86 146.795 205.22 147.185 205.68 147.453C206.14 147.717 206.675 147.849 207.284 147.849C207.681 147.849 208.039 147.794 208.358 147.683C208.682 147.568 208.961 147.398 209.195 147.172C209.43 146.942 209.611 146.656 209.739 146.315L211.196 146.724C211.043 147.219 210.785 147.653 210.423 148.028C210.061 148.399 209.613 148.689 209.08 148.898C208.548 149.102 207.949 149.205 207.284 149.205ZM215.153 143.094V149H213.644V139.182H215.102V140.716H215.23C215.46 140.217 215.809 139.817 216.278 139.514C216.747 139.207 217.352 139.054 218.093 139.054C218.758 139.054 219.34 139.19 219.838 139.463C220.337 139.732 220.725 140.141 221.002 140.69C221.279 141.236 221.417 141.926 221.417 142.761V149H219.909V142.864C219.909 142.092 219.708 141.491 219.308 141.061C218.907 140.626 218.357 140.409 217.659 140.409C217.177 140.409 216.747 140.513 216.367 140.722C215.992 140.931 215.696 141.236 215.479 141.636C215.262 142.037 215.153 142.523 215.153 143.094ZM228.444 139.182V140.46H223.355V139.182H228.444ZM224.838 136.83H226.347V146.188C226.347 146.614 226.409 146.933 226.532 147.146C226.66 147.355 226.822 147.496 227.018 147.568C227.218 147.636 227.429 147.67 227.651 147.67C227.817 147.67 227.953 147.662 228.06 147.645C228.167 147.624 228.252 147.607 228.316 147.594L228.623 148.949C228.52 148.987 228.377 149.026 228.194 149.064C228.011 149.107 227.779 149.128 227.498 149.128C227.071 149.128 226.654 149.036 226.245 148.853C225.84 148.67 225.503 148.391 225.235 148.016C224.971 147.641 224.838 147.168 224.838 146.597V136.83Z" fill="#374151"/>
<rect x="374" y="39" width="326" height="140" rx="16" fill="#E5E7EB"/>
<rect x="440.722" y="87" width="194" height="44" rx="6" fill="#167BB7"/>
<path d="M466.485 101.455H468.588L473.531 113.528H473.701L478.645 101.455H480.747V116H479.099V104.949H478.957L474.412 116H472.821L468.275 104.949H468.133V116H466.485V101.455ZM484.051 116V105.091H485.727V116H484.051ZM484.903 103.273C484.577 103.273 484.295 103.161 484.058 102.939C483.826 102.716 483.71 102.449 483.71 102.136C483.71 101.824 483.826 101.556 484.058 101.334C484.295 101.111 484.577 101 484.903 101C485.23 101 485.51 101.111 485.742 101.334C485.978 101.556 486.097 101.824 486.097 102.136C486.097 102.449 485.978 102.716 485.742 102.939C485.51 103.161 485.23 103.273 484.903 103.273ZM493.201 120.318C492.391 120.318 491.695 120.214 491.113 120.006C490.53 119.802 490.045 119.532 489.657 119.196C489.273 118.865 488.968 118.509 488.74 118.131L490.076 117.193C490.227 117.392 490.419 117.619 490.651 117.875C490.883 118.135 491.2 118.36 491.603 118.55C492.01 118.744 492.543 118.841 493.201 118.841C494.081 118.841 494.808 118.628 495.381 118.202C495.954 117.776 496.24 117.108 496.24 116.199V113.983H496.098C495.975 114.182 495.8 114.428 495.573 114.722C495.35 115.01 495.028 115.268 494.607 115.496C494.19 115.718 493.627 115.83 492.917 115.83C492.036 115.83 491.245 115.621 490.544 115.205C489.848 114.788 489.297 114.182 488.89 113.386C488.487 112.591 488.286 111.625 488.286 110.489C488.286 109.371 488.482 108.398 488.875 107.57C489.268 106.736 489.815 106.092 490.516 105.638C491.217 105.179 492.026 104.949 492.945 104.949C493.655 104.949 494.219 105.067 494.635 105.304C495.057 105.536 495.379 105.801 495.601 106.099C495.829 106.393 496.004 106.634 496.127 106.824H496.297V105.091H497.917V116.312C497.917 117.25 497.704 118.012 497.277 118.599C496.856 119.191 496.288 119.625 495.573 119.899C494.863 120.179 494.072 120.318 493.201 120.318ZM493.144 114.324C493.816 114.324 494.384 114.17 494.848 113.862C495.312 113.554 495.665 113.112 495.907 112.534C496.148 111.956 496.269 111.265 496.269 110.46C496.269 109.674 496.15 108.981 495.914 108.379C495.677 107.778 495.327 107.307 494.863 106.966C494.399 106.625 493.826 106.455 493.144 106.455C492.434 106.455 491.842 106.634 491.368 106.994C490.9 107.354 490.547 107.837 490.31 108.443C490.078 109.049 489.962 109.722 489.962 110.46C489.962 111.218 490.08 111.888 490.317 112.47C490.559 113.048 490.914 113.502 491.383 113.834C491.856 114.161 492.443 114.324 493.144 114.324ZM500.985 116V105.091H502.604V106.739H502.718C502.917 106.199 503.276 105.761 503.797 105.425C504.318 105.089 504.905 104.92 505.559 104.92C505.682 104.92 505.836 104.923 506.02 104.928C506.205 104.932 506.345 104.939 506.439 104.949V106.653C506.383 106.639 506.252 106.618 506.049 106.589C505.85 106.556 505.639 106.54 505.417 106.54C504.886 106.54 504.413 106.651 503.996 106.874C503.584 107.091 503.258 107.394 503.016 107.783C502.779 108.166 502.661 108.604 502.661 109.097V116H500.985ZM511.636 116.256C510.945 116.256 510.318 116.125 509.754 115.865C509.191 115.6 508.743 115.219 508.412 114.722C508.081 114.22 507.915 113.614 507.915 112.903C507.915 112.278 508.038 111.772 508.284 111.384C508.53 110.991 508.859 110.683 509.271 110.46C509.683 110.238 510.138 110.072 510.635 109.963C511.137 109.849 511.641 109.759 512.148 109.693C512.811 109.608 513.348 109.544 513.76 109.501C514.177 109.454 514.48 109.376 514.669 109.267C514.863 109.158 514.96 108.969 514.96 108.699V108.642C514.96 107.941 514.769 107.397 514.385 107.009C514.006 106.62 513.431 106.426 512.659 106.426C511.859 106.426 511.232 106.601 510.777 106.952C510.322 107.302 510.003 107.676 509.818 108.074L508.227 107.506C508.511 106.843 508.89 106.327 509.364 105.957C509.842 105.583 510.363 105.323 510.926 105.176C511.494 105.025 512.053 104.949 512.602 104.949C512.953 104.949 513.355 104.991 513.81 105.077C514.269 105.157 514.712 105.325 515.138 105.581C515.569 105.837 515.926 106.223 516.21 106.739C516.494 107.255 516.636 107.946 516.636 108.812V116H514.96V114.523H514.875C514.761 114.759 514.572 115.013 514.307 115.283C514.042 115.553 513.689 115.782 513.249 115.972C512.808 116.161 512.271 116.256 511.636 116.256ZM511.892 114.75C512.555 114.75 513.114 114.62 513.568 114.359C514.028 114.099 514.373 113.763 514.605 113.351C514.842 112.939 514.96 112.506 514.96 112.051V110.517C514.889 110.602 514.733 110.68 514.492 110.751C514.255 110.818 513.98 110.877 513.668 110.929C513.36 110.976 513.059 111.019 512.766 111.057C512.477 111.09 512.242 111.118 512.063 111.142C511.627 111.199 511.22 111.291 510.841 111.419C510.467 111.542 510.164 111.729 509.932 111.98C509.705 112.226 509.591 112.562 509.591 112.989C509.591 113.571 509.806 114.011 510.237 114.31C510.673 114.603 511.224 114.75 511.892 114.75ZM524.44 105.091V106.511H518.787V105.091H524.44ZM520.434 102.477H522.11V112.875C522.11 113.348 522.179 113.704 522.316 113.94C522.458 114.172 522.638 114.329 522.856 114.409C523.079 114.485 523.313 114.523 523.559 114.523C523.744 114.523 523.896 114.513 524.014 114.494C524.132 114.471 524.227 114.452 524.298 114.438L524.639 115.943C524.525 115.986 524.367 116.028 524.163 116.071C523.959 116.118 523.701 116.142 523.389 116.142C522.915 116.142 522.451 116.04 521.997 115.837C521.547 115.633 521.173 115.323 520.875 114.906C520.581 114.49 520.434 113.964 520.434 113.33V102.477ZM526.961 116V105.091H528.637V116H526.961ZM527.814 103.273C527.487 103.273 527.205 103.161 526.968 102.939C526.736 102.716 526.62 102.449 526.62 102.136C526.62 101.824 526.736 101.556 526.968 101.334C527.205 101.111 527.487 101 527.814 101C528.14 101 528.42 101.111 528.652 101.334C528.888 101.556 529.007 101.824 529.007 102.136C529.007 102.449 528.888 102.716 528.652 102.939C528.42 103.161 528.14 103.273 527.814 103.273ZM536.139 116.227C535.154 116.227 534.29 115.993 533.547 115.524C532.808 115.055 532.231 114.4 531.814 113.557C531.402 112.714 531.196 111.729 531.196 110.602C531.196 109.466 531.402 108.474 531.814 107.626C532.231 106.779 532.808 106.121 533.547 105.652C534.29 105.183 535.154 104.949 536.139 104.949C537.124 104.949 537.986 105.183 538.724 105.652C539.468 106.121 540.045 106.779 540.457 107.626C540.874 108.474 541.082 109.466 541.082 110.602C541.082 111.729 540.874 112.714 540.457 113.557C540.045 114.4 539.468 115.055 538.724 115.524C537.986 115.993 537.124 116.227 536.139 116.227ZM536.139 114.722C536.887 114.722 537.503 114.53 537.986 114.146C538.469 113.763 538.826 113.259 539.058 112.634C539.29 112.009 539.406 111.331 539.406 110.602C539.406 109.873 539.29 109.194 539.058 108.564C538.826 107.934 538.469 107.425 537.986 107.037C537.503 106.649 536.887 106.455 536.139 106.455C535.391 106.455 534.776 106.649 534.293 107.037C533.81 107.425 533.452 107.934 533.22 108.564C532.988 109.194 532.872 109.873 532.872 110.602C532.872 111.331 532.988 112.009 533.22 112.634C533.452 113.259 533.81 113.763 534.293 114.146C534.776 114.53 535.391 114.722 536.139 114.722ZM545.317 109.438V116H543.641V105.091H545.26V106.795H545.402C545.658 106.241 546.046 105.796 546.567 105.46C547.088 105.119 547.76 104.949 548.584 104.949C549.323 104.949 549.969 105.1 550.523 105.403C551.077 105.702 551.508 106.156 551.816 106.767C552.124 107.373 552.277 108.14 552.277 109.068V116H550.601V109.182C550.601 108.325 550.379 107.657 549.934 107.179C549.489 106.696 548.878 106.455 548.101 106.455C547.566 106.455 547.088 106.571 546.667 106.803C546.25 107.035 545.921 107.373 545.679 107.818C545.438 108.263 545.317 108.803 545.317 109.438ZM561.193 116V101.455H562.954V114.438H569.715V116H561.193ZM576.647 116.227C575.662 116.227 574.798 115.993 574.055 115.524C573.316 115.055 572.738 114.4 572.322 113.557C571.91 112.714 571.704 111.729 571.704 110.602C571.704 109.466 571.91 108.474 572.322 107.626C572.738 106.779 573.316 106.121 574.055 105.652C574.798 105.183 575.662 104.949 576.647 104.949C577.632 104.949 578.494 105.183 579.232 105.652C579.976 106.121 580.553 106.779 580.965 107.626C581.382 108.474 581.59 109.466 581.59 110.602C581.59 111.729 581.382 112.714 580.965 113.557C580.553 114.4 579.976 115.055 579.232 115.524C578.494 115.993 577.632 116.227 576.647 116.227ZM576.647 114.722C577.395 114.722 578.011 114.53 578.494 114.146C578.977 113.763 579.334 113.259 579.566 112.634C579.798 112.009 579.914 111.331 579.914 110.602C579.914 109.873 579.798 109.194 579.566 108.564C579.334 107.934 578.977 107.425 578.494 107.037C578.011 106.649 577.395 106.455 576.647 106.455C575.899 106.455 575.283 106.649 574.8 107.037C574.318 107.425 573.96 107.934 573.728 108.564C573.496 109.194 573.38 109.873 573.38 110.602C573.38 111.331 573.496 112.009 573.728 112.634C573.96 113.259 574.318 113.763 574.8 114.146C575.283 114.53 575.899 114.722 576.647 114.722ZM588.552 120.318C587.743 120.318 587.047 120.214 586.464 120.006C585.882 119.802 585.396 119.532 585.008 119.196C584.625 118.865 584.319 118.509 584.092 118.131L585.427 117.193C585.579 117.392 585.771 117.619 586.003 117.875C586.235 118.135 586.552 118.36 586.954 118.55C587.361 118.744 587.894 118.841 588.552 118.841C589.433 118.841 590.16 118.628 590.733 118.202C591.306 117.776 591.592 117.108 591.592 116.199V113.983H591.45C591.327 114.182 591.152 114.428 590.924 114.722C590.702 115.01 590.38 115.268 589.958 115.496C589.542 115.718 588.978 115.83 588.268 115.83C587.387 115.83 586.597 115.621 585.896 115.205C585.2 114.788 584.648 114.182 584.241 113.386C583.839 112.591 583.637 111.625 583.637 110.489C583.637 109.371 583.834 108.398 584.227 107.57C584.62 106.736 585.167 106.092 585.868 105.638C586.568 105.179 587.378 104.949 588.297 104.949C589.007 104.949 589.57 105.067 589.987 105.304C590.408 105.536 590.73 105.801 590.953 106.099C591.18 106.393 591.355 106.634 591.478 106.824H591.649V105.091H593.268V116.312C593.268 117.25 593.055 118.012 592.629 118.599C592.208 119.191 591.639 119.625 590.924 119.899C590.214 120.179 589.423 120.318 588.552 120.318ZM588.495 114.324C589.168 114.324 589.736 114.17 590.2 113.862C590.664 113.554 591.017 113.112 591.258 112.534C591.5 111.956 591.62 111.265 591.62 110.46C591.62 109.674 591.502 108.981 591.265 108.379C591.029 107.778 590.678 107.307 590.214 106.966C589.75 106.625 589.177 106.455 588.495 106.455C587.785 106.455 587.193 106.634 586.72 106.994C586.251 107.354 585.898 107.837 585.662 108.443C585.43 109.049 585.314 109.722 585.314 110.46C585.314 111.218 585.432 111.888 585.669 112.47C585.91 113.048 586.265 113.502 586.734 113.834C587.208 114.161 587.795 114.324 588.495 114.324ZM596.336 116V105.091H598.012V116H596.336ZM597.189 103.273C596.862 103.273 596.58 103.161 596.343 102.939C596.111 102.716 595.995 102.449 595.995 102.136C595.995 101.824 596.111 101.556 596.343 101.334C596.58 101.111 596.862 101 597.189 101C597.515 101 597.795 101.111 598.027 101.334C598.263 101.556 598.382 101.824 598.382 102.136C598.382 102.449 598.263 102.716 598.027 102.939C597.795 103.161 597.515 103.273 597.189 103.273ZM605.514 116.227C604.492 116.227 603.611 115.986 602.872 115.503C602.134 115.02 601.565 114.355 601.168 113.507C600.77 112.66 600.571 111.691 600.571 110.602C600.571 109.494 600.775 108.517 601.182 107.669C601.594 106.817 602.167 106.152 602.901 105.673C603.639 105.19 604.501 104.949 605.486 104.949C606.253 104.949 606.944 105.091 607.56 105.375C608.175 105.659 608.679 106.057 609.072 106.568C609.465 107.08 609.709 107.676 609.804 108.358H608.128C608 107.861 607.716 107.42 607.276 107.037C606.84 106.649 606.253 106.455 605.514 106.455C604.861 106.455 604.288 106.625 603.795 106.966C603.308 107.302 602.927 107.778 602.652 108.393C602.382 109.004 602.247 109.722 602.247 110.545C602.247 111.388 602.38 112.122 602.645 112.747C602.915 113.372 603.294 113.857 603.781 114.203C604.274 114.549 604.851 114.722 605.514 114.722C605.95 114.722 606.345 114.646 606.7 114.494C607.055 114.343 607.356 114.125 607.602 113.841C607.849 113.557 608.024 113.216 608.128 112.818H609.804C609.709 113.462 609.475 114.042 609.101 114.558C608.732 115.07 608.242 115.477 607.631 115.78C607.025 116.078 606.319 116.227 605.514 116.227Z" fill="white"/>
<path d="M315.5 109C315.5 111.209 317.291 113 319.5 113C321.709 113 323.5 111.209 323.5 109C323.5 106.791 321.709 105 319.5 105C317.291 105 315.5 106.791 315.5 109ZM374.5 109L367 104.67V113.33L374.5 109ZM319.5 109.75H367.75V108.25H319.5V109.75Z" fill="#6B7280"/>
<path d="M699.5 107.5C699.5 109.709 701.291 111.5 703.5 111.5C705.709 111.5 707.5 109.709 707.5 107.5C707.5 105.291 705.709 103.5 703.5 103.5C701.291 103.5 699.5 105.291 699.5 107.5ZM730.5 107.5V108.25H731.25V107.5H730.5ZM730.5 54V53.25H729.75V54H730.5ZM757.5 54L750 49.6699V58.3301L757.5 54ZM703.5 108.25H730.5V106.75H703.5V108.25ZM731.25 107.5V54H729.75V107.5H731.25ZM730.5 54.75H750.75V53.25H730.5V54.75Z" fill="#6B7280"/>
<path d="M700 108C700 105.791 701.791 104 704 104C706.209 104 708 105.791 708 108C708 110.209 706.209 112 704 112C701.791 112 700 110.209 700 108ZM730.5 108V107.25H731.25V108H730.5ZM730.5 165V165.75H729.75V165H730.5ZM757 165L749.5 169.33V160.67L757 165ZM704 107.25H730.5V108.75H704V107.25ZM731.25 108V165H729.75V108H731.25ZM730.5 164.25H750.25V165.75H730.5V164.25Z" fill="#6B7280"/>
<path d="M532 182.5C532 184.709 533.791 186.5 536 186.5C538.209 186.5 540 184.709 540 182.5C540 180.291 538.209 178.5 536 178.5C533.791 178.5 532 180.291 532 182.5ZM536 221.5L540.33 214H531.67L536 221.5ZM535.25 182.5V214.75H536.75V182.5H535.25Z" fill="#6B7280"/>
</svg>
