<svg width="601" height="509" viewBox="0 0 601 509" fill="none" xmlns="http://www.w3.org/2000/svg">
<g clip-path="url(#clip0_3196_40334)">
<rect x="21" y="201" width="406" height="177" rx="8" fill="#E8F2F8"/>
<rect x="44.5" y="249.5" width="164" height="81" rx="15.5" fill="#A2CAE2"/>
<path d="M88.5774 285.614V284.364H97.3047V285.614H93.6456V296H92.2365V285.614H88.5774ZM100.678 296.205C100.125 296.205 99.6233 296.1 99.1726 295.892C98.7218 295.68 98.3639 295.375 98.0987 294.977C97.8336 294.576 97.701 294.091 97.701 293.523C97.701 293.023 97.7995 292.617 97.9964 292.307C98.1934 291.992 98.4567 291.746 98.7862 291.568C99.1158 291.39 99.4794 291.258 99.8771 291.17C100.279 291.08 100.682 291.008 101.087 290.955C101.618 290.886 102.048 290.835 102.377 290.801C102.71 290.763 102.953 290.701 103.104 290.614C103.26 290.527 103.337 290.375 103.337 290.159V290.114C103.337 289.553 103.184 289.117 102.877 288.807C102.574 288.496 102.114 288.341 101.496 288.341C100.856 288.341 100.354 288.481 99.9908 288.761C99.6271 289.042 99.3714 289.341 99.2237 289.659L97.951 289.205C98.1783 288.674 98.4813 288.261 98.8601 287.966C99.2427 287.667 99.6593 287.458 100.11 287.341C100.565 287.22 101.012 287.159 101.451 287.159C101.731 287.159 102.053 287.193 102.417 287.261C102.784 287.326 103.138 287.46 103.479 287.665C103.824 287.869 104.11 288.178 104.337 288.591C104.565 289.004 104.678 289.557 104.678 290.25V296H103.337V294.818H103.269C103.178 295.008 103.027 295.21 102.815 295.426C102.603 295.642 102.32 295.826 101.968 295.977C101.616 296.129 101.186 296.205 100.678 296.205ZM100.883 295C101.413 295 101.86 294.896 102.224 294.688C102.591 294.479 102.868 294.21 103.053 293.881C103.243 293.551 103.337 293.205 103.337 292.841V291.614C103.281 291.682 103.156 291.744 102.962 291.801C102.773 291.854 102.553 291.902 102.303 291.943C102.057 291.981 101.817 292.015 101.582 292.045C101.351 292.072 101.163 292.095 101.019 292.114C100.671 292.159 100.345 292.233 100.042 292.335C99.7427 292.434 99.5002 292.583 99.3146 292.784C99.1328 292.981 99.0419 293.25 99.0419 293.591C99.0419 294.057 99.2143 294.409 99.5589 294.648C99.9074 294.883 100.349 295 100.883 295ZM108.126 287.273L110.217 290.841L112.308 287.273H113.853L111.035 291.636L113.853 296H112.308L110.217 292.614L108.126 296H106.58L109.353 291.636L106.58 287.273H108.126ZM120.448 296V284.364H124.38C125.293 284.364 126.039 284.528 126.619 284.858C127.202 285.184 127.634 285.625 127.914 286.182C128.194 286.739 128.335 287.36 128.335 288.045C128.335 288.731 128.194 289.354 127.914 289.915C127.638 290.475 127.21 290.922 126.63 291.256C126.05 291.585 125.308 291.75 124.403 291.75H121.585V290.5H124.357C124.982 290.5 125.484 290.392 125.863 290.176C126.242 289.96 126.516 289.669 126.687 289.301C126.861 288.93 126.948 288.511 126.948 288.045C126.948 287.58 126.861 287.163 126.687 286.795C126.516 286.428 126.24 286.14 125.857 285.932C125.475 285.72 124.967 285.614 124.335 285.614H121.857V296H120.448ZM131.763 284.364V296H130.423V284.364H131.763ZM139.719 292.432V287.273H141.06V296H139.719V294.523H139.629C139.424 294.966 139.106 295.343 138.674 295.653C138.242 295.96 137.697 296.114 137.038 296.114C136.492 296.114 136.007 295.994 135.583 295.756C135.159 295.513 134.826 295.15 134.583 294.665C134.341 294.176 134.219 293.561 134.219 292.818V287.273H135.56V292.727C135.56 293.364 135.738 293.871 136.094 294.25C136.454 294.629 136.913 294.818 137.469 294.818C137.803 294.818 138.142 294.733 138.487 294.562C138.835 294.392 139.127 294.131 139.362 293.778C139.6 293.426 139.719 292.977 139.719 292.432ZM147.039 299.455C146.391 299.455 145.835 299.371 145.369 299.205C144.903 299.042 144.514 298.826 144.204 298.557C143.897 298.292 143.653 298.008 143.471 297.705L144.539 296.955C144.66 297.114 144.814 297.295 144.999 297.5C145.185 297.708 145.439 297.888 145.761 298.04C146.086 298.195 146.513 298.273 147.039 298.273C147.744 298.273 148.325 298.102 148.783 297.761C149.242 297.42 149.471 296.886 149.471 296.159V294.386H149.357C149.259 294.545 149.119 294.742 148.937 294.977C148.759 295.208 148.501 295.415 148.164 295.597C147.831 295.775 147.38 295.864 146.812 295.864C146.107 295.864 145.475 295.697 144.914 295.364C144.357 295.03 143.916 294.545 143.59 293.909C143.268 293.273 143.107 292.5 143.107 291.591C143.107 290.697 143.264 289.919 143.579 289.256C143.893 288.589 144.331 288.074 144.891 287.71C145.452 287.343 146.1 287.159 146.835 287.159C147.403 287.159 147.853 287.254 148.187 287.443C148.524 287.629 148.781 287.841 148.96 288.08C149.141 288.314 149.281 288.508 149.38 288.659H149.516V287.273H150.812V296.25C150.812 297 150.641 297.61 150.3 298.08C149.963 298.553 149.509 298.9 148.937 299.119C148.369 299.343 147.736 299.455 147.039 299.455ZM146.994 294.659C147.531 294.659 147.986 294.536 148.357 294.29C148.728 294.044 149.011 293.689 149.204 293.227C149.397 292.765 149.494 292.212 149.494 291.568C149.494 290.939 149.399 290.384 149.21 289.903C149.02 289.422 148.74 289.045 148.369 288.773C147.997 288.5 147.539 288.364 146.994 288.364C146.425 288.364 145.952 288.508 145.573 288.795C145.198 289.083 144.916 289.47 144.727 289.955C144.541 290.439 144.448 290.977 144.448 291.568C144.448 292.174 144.543 292.71 144.732 293.176C144.925 293.638 145.21 294.002 145.585 294.267C145.963 294.528 146.433 294.659 146.994 294.659ZM153.266 296V287.273H154.607V296H153.266ZM153.948 285.818C153.687 285.818 153.461 285.729 153.272 285.551C153.086 285.373 152.994 285.159 152.994 284.909C152.994 284.659 153.086 284.445 153.272 284.267C153.461 284.089 153.687 284 153.948 284C154.21 284 154.433 284.089 154.619 284.267C154.808 284.445 154.903 284.659 154.903 284.909C154.903 285.159 154.808 285.373 154.619 285.551C154.433 285.729 154.21 285.818 153.948 285.818ZM158.404 290.75V296H157.063V287.273H158.359V288.636H158.472C158.677 288.193 158.987 287.837 159.404 287.568C159.821 287.295 160.359 287.159 161.018 287.159C161.609 287.159 162.126 287.28 162.569 287.523C163.012 287.761 163.357 288.125 163.603 288.614C163.849 289.098 163.972 289.712 163.972 290.455V296H162.631V290.545C162.631 289.86 162.453 289.326 162.097 288.943C161.741 288.557 161.253 288.364 160.631 288.364C160.203 288.364 159.821 288.456 159.484 288.642C159.15 288.828 158.887 289.098 158.694 289.455C158.501 289.811 158.404 290.242 158.404 290.75Z" fill="#1F2937"/>
<rect x="44.5" y="249.5" width="164" height="81" rx="15.5" stroke="#F3F4F6"/>
<rect x="239.5" y="249.5" width="164" height="81" rx="15.5" fill="#D1FAE5"/>
<path d="M264.503 296V284.364H268.435C269.348 284.364 270.094 284.528 270.673 284.858C271.257 285.184 271.688 285.625 271.969 286.182C272.249 286.739 272.389 287.36 272.389 288.045C272.389 288.731 272.249 289.354 271.969 289.915C271.692 290.475 271.264 290.922 270.685 291.256C270.105 291.585 269.363 291.75 268.457 291.75H265.639V290.5H268.412C269.037 290.5 269.539 290.392 269.918 290.176C270.296 289.96 270.571 289.669 270.741 289.301C270.916 288.93 271.003 288.511 271.003 288.045C271.003 287.58 270.916 287.163 270.741 286.795C270.571 286.428 270.295 286.14 269.912 285.932C269.529 285.72 269.022 285.614 268.389 285.614H265.912V296H264.503ZM277.045 296.205C276.492 296.205 275.991 296.1 275.54 295.892C275.089 295.68 274.731 295.375 274.466 294.977C274.201 294.576 274.068 294.091 274.068 293.523C274.068 293.023 274.167 292.617 274.364 292.307C274.561 291.992 274.824 291.746 275.153 291.568C275.483 291.39 275.847 291.258 276.244 291.17C276.646 291.08 277.049 291.008 277.455 290.955C277.985 290.886 278.415 290.835 278.744 290.801C279.078 290.763 279.32 290.701 279.472 290.614C279.627 290.527 279.705 290.375 279.705 290.159V290.114C279.705 289.553 279.551 289.117 279.244 288.807C278.941 288.496 278.481 288.341 277.864 288.341C277.223 288.341 276.722 288.481 276.358 288.761C275.994 289.042 275.739 289.341 275.591 289.659L274.318 289.205C274.545 288.674 274.848 288.261 275.227 287.966C275.61 287.667 276.027 287.458 276.477 287.341C276.932 287.22 277.379 287.159 277.818 287.159C278.098 287.159 278.42 287.193 278.784 287.261C279.152 287.326 279.506 287.46 279.847 287.665C280.191 287.869 280.477 288.178 280.705 288.591C280.932 289.004 281.045 289.557 281.045 290.25V296H279.705V294.818H279.636C279.545 295.008 279.394 295.21 279.182 295.426C278.97 295.642 278.688 295.826 278.335 295.977C277.983 296.129 277.553 296.205 277.045 296.205ZM277.25 295C277.78 295 278.227 294.896 278.591 294.688C278.958 294.479 279.235 294.21 279.42 293.881C279.61 293.551 279.705 293.205 279.705 292.841V291.614C279.648 291.682 279.523 291.744 279.33 291.801C279.14 291.854 278.92 291.902 278.67 291.943C278.424 291.981 278.184 292.015 277.949 292.045C277.718 292.072 277.53 292.095 277.386 292.114C277.038 292.159 276.712 292.233 276.409 292.335C276.11 292.434 275.867 292.583 275.682 292.784C275.5 292.981 275.409 293.25 275.409 293.591C275.409 294.057 275.581 294.409 275.926 294.648C276.275 294.883 276.716 295 277.25 295ZM284.044 299.273C283.817 299.273 283.614 299.254 283.436 299.216C283.258 299.182 283.135 299.148 283.067 299.114L283.408 297.932C283.733 298.015 284.021 298.045 284.271 298.023C284.521 298 284.743 297.888 284.936 297.688C285.133 297.491 285.313 297.17 285.476 296.727L285.726 296.045L282.499 287.273H283.953L286.362 294.227H286.453L288.862 287.273H290.317L286.612 297.273C286.446 297.723 286.239 298.097 285.993 298.392C285.747 298.691 285.461 298.913 285.135 299.057C284.813 299.201 284.449 299.273 284.044 299.273ZM292.087 296V287.273H293.382V288.636H293.496C293.678 288.17 293.971 287.809 294.376 287.551C294.782 287.29 295.268 287.159 295.837 287.159C296.412 287.159 296.892 287.29 297.274 287.551C297.661 287.809 297.962 288.17 298.178 288.636H298.268C298.492 288.186 298.827 287.828 299.274 287.562C299.721 287.294 300.257 287.159 300.882 287.159C301.662 287.159 302.301 287.403 302.797 287.892C303.293 288.377 303.541 289.133 303.541 290.159V296H302.2V290.159C302.2 289.515 302.024 289.055 301.672 288.778C301.32 288.502 300.905 288.364 300.428 288.364C299.814 288.364 299.339 288.549 299.001 288.92C298.664 289.288 298.496 289.754 298.496 290.318V296H297.132V290.023C297.132 289.527 296.971 289.127 296.649 288.824C296.327 288.517 295.912 288.364 295.405 288.364C295.056 288.364 294.731 288.456 294.428 288.642C294.128 288.828 293.886 289.085 293.7 289.415C293.518 289.741 293.428 290.117 293.428 290.545V296H292.087ZM309.652 296.182C308.811 296.182 308.086 295.996 307.476 295.625C306.87 295.25 306.402 294.727 306.072 294.057C305.747 293.383 305.584 292.598 305.584 291.705C305.584 290.811 305.747 290.023 306.072 289.341C306.402 288.655 306.86 288.121 307.447 287.739C308.038 287.352 308.728 287.159 309.516 287.159C309.97 287.159 310.419 287.235 310.862 287.386C311.305 287.538 311.709 287.784 312.072 288.125C312.436 288.462 312.726 288.909 312.942 289.466C313.158 290.023 313.266 290.708 313.266 291.523V292.091H306.538V290.932H311.902C311.902 290.439 311.804 290 311.607 289.614C311.413 289.227 311.137 288.922 310.777 288.699C310.421 288.475 310 288.364 309.516 288.364C308.982 288.364 308.519 288.496 308.129 288.761C307.743 289.023 307.446 289.364 307.237 289.784C307.029 290.205 306.925 290.655 306.925 291.136V291.909C306.925 292.568 307.038 293.127 307.266 293.585C307.497 294.04 307.817 294.386 308.226 294.625C308.635 294.86 309.11 294.977 309.652 294.977C310.004 294.977 310.322 294.928 310.607 294.83C310.894 294.727 311.143 294.576 311.351 294.375C311.559 294.17 311.72 293.917 311.834 293.614L313.129 293.977C312.993 294.417 312.764 294.803 312.442 295.136C312.12 295.466 311.722 295.723 311.249 295.909C310.775 296.091 310.243 296.182 309.652 296.182ZM316.646 290.75V296H315.305V287.273H316.601V288.636H316.714C316.919 288.193 317.23 287.837 317.646 287.568C318.063 287.295 318.601 287.159 319.26 287.159C319.851 287.159 320.368 287.28 320.811 287.523C321.254 287.761 321.599 288.125 321.845 288.614C322.091 289.098 322.214 289.712 322.214 290.455V296H320.874V290.545C320.874 289.86 320.696 289.326 320.339 288.943C319.983 288.557 319.495 288.364 318.874 288.364C318.446 288.364 318.063 288.456 317.726 288.642C317.393 288.828 317.129 289.098 316.936 289.455C316.743 289.811 316.646 290.242 316.646 290.75ZM328.46 287.273V288.409H323.938V287.273H328.46ZM325.256 285.182H326.597V293.5C326.597 293.879 326.652 294.163 326.761 294.352C326.875 294.538 327.019 294.663 327.193 294.727C327.371 294.788 327.559 294.818 327.756 294.818C327.903 294.818 328.025 294.811 328.119 294.795C328.214 294.777 328.29 294.761 328.347 294.75L328.619 295.955C328.528 295.989 328.402 296.023 328.239 296.057C328.076 296.095 327.869 296.114 327.619 296.114C327.241 296.114 326.869 296.032 326.506 295.869C326.146 295.706 325.847 295.458 325.608 295.125C325.373 294.792 325.256 294.371 325.256 293.864V285.182ZM335.159 296V284.364H339.091C340.004 284.364 340.75 284.528 341.33 284.858C341.913 285.184 342.345 285.625 342.625 286.182C342.905 286.739 343.045 287.36 343.045 288.045C343.045 288.731 342.905 289.354 342.625 289.915C342.348 290.475 341.92 290.922 341.341 291.256C340.761 291.585 340.019 291.75 339.114 291.75H336.295V290.5H339.068C339.693 290.5 340.195 290.392 340.574 290.176C340.953 289.96 341.227 289.669 341.398 289.301C341.572 288.93 341.659 288.511 341.659 288.045C341.659 287.58 341.572 287.163 341.398 286.795C341.227 286.428 340.951 286.14 340.568 285.932C340.186 285.72 339.678 285.614 339.045 285.614H336.568V296H335.159ZM346.474 284.364V296H345.134V284.364H346.474ZM354.43 292.432V287.273H355.771V296H354.43V294.523H354.339C354.135 294.966 353.817 295.343 353.385 295.653C352.953 295.96 352.408 296.114 351.749 296.114C351.203 296.114 350.718 295.994 350.294 295.756C349.87 295.513 349.536 295.15 349.294 294.665C349.052 294.176 348.93 293.561 348.93 292.818V287.273H350.271V292.727C350.271 293.364 350.449 293.871 350.805 294.25C351.165 294.629 351.624 294.818 352.18 294.818C352.514 294.818 352.853 294.733 353.197 294.562C353.546 294.392 353.838 294.131 354.072 293.778C354.311 293.426 354.43 292.977 354.43 292.432ZM361.75 299.455C361.102 299.455 360.545 299.371 360.08 299.205C359.614 299.042 359.225 298.826 358.915 298.557C358.608 298.292 358.364 298.008 358.182 297.705L359.25 296.955C359.371 297.114 359.525 297.295 359.71 297.5C359.896 297.708 360.15 297.888 360.472 298.04C360.797 298.195 361.223 298.273 361.75 298.273C362.455 298.273 363.036 298.102 363.494 297.761C363.953 297.42 364.182 296.886 364.182 296.159V294.386H364.068C363.97 294.545 363.83 294.742 363.648 294.977C363.47 295.208 363.212 295.415 362.875 295.597C362.542 295.775 362.091 295.864 361.523 295.864C360.818 295.864 360.186 295.697 359.625 295.364C359.068 295.03 358.627 294.545 358.301 293.909C357.979 293.273 357.818 292.5 357.818 291.591C357.818 290.697 357.975 289.919 358.29 289.256C358.604 288.589 359.042 288.074 359.602 287.71C360.163 287.343 360.811 287.159 361.545 287.159C362.114 287.159 362.564 287.254 362.898 287.443C363.235 287.629 363.492 287.841 363.67 288.08C363.852 288.314 363.992 288.508 364.091 288.659H364.227V287.273H365.523V296.25C365.523 297 365.352 297.61 365.011 298.08C364.674 298.553 364.22 298.9 363.648 299.119C363.08 299.343 362.447 299.455 361.75 299.455ZM361.705 294.659C362.242 294.659 362.697 294.536 363.068 294.29C363.439 294.044 363.722 293.689 363.915 293.227C364.108 292.765 364.205 292.212 364.205 291.568C364.205 290.939 364.11 290.384 363.92 289.903C363.731 289.422 363.451 289.045 363.08 288.773C362.708 288.5 362.25 288.364 361.705 288.364C361.136 288.364 360.663 288.508 360.284 288.795C359.909 289.083 359.627 289.47 359.438 289.955C359.252 290.439 359.159 290.977 359.159 291.568C359.159 292.174 359.254 292.71 359.443 293.176C359.636 293.638 359.92 294.002 360.295 294.267C360.674 294.528 361.144 294.659 361.705 294.659ZM367.977 296V287.273H369.318V296H367.977ZM368.659 285.818C368.398 285.818 368.172 285.729 367.983 285.551C367.797 285.373 367.705 285.159 367.705 284.909C367.705 284.659 367.797 284.445 367.983 284.267C368.172 284.089 368.398 284 368.659 284C368.92 284 369.144 284.089 369.33 284.267C369.519 284.445 369.614 284.659 369.614 284.909C369.614 285.159 369.519 285.373 369.33 285.551C369.144 285.729 368.92 285.818 368.659 285.818ZM373.115 290.75V296H371.774V287.273H373.07V288.636H373.183C373.388 288.193 373.698 287.837 374.115 287.568C374.532 287.295 375.07 287.159 375.729 287.159C376.32 287.159 376.837 287.28 377.28 287.523C377.723 287.761 378.068 288.125 378.314 288.614C378.56 289.098 378.683 289.712 378.683 290.455V296H377.342V290.545C377.342 289.86 377.164 289.326 376.808 288.943C376.452 288.557 375.964 288.364 375.342 288.364C374.914 288.364 374.532 288.456 374.195 288.642C373.861 288.828 373.598 289.098 373.405 289.455C373.212 289.811 373.115 290.242 373.115 290.75Z" fill="#1F2937"/>
<rect x="239.5" y="249.5" width="164" height="81" rx="15.5" stroke="#F3F4F6"/>
</g>
<rect x="21.5" y="201.5" width="405" height="176" rx="7.5" stroke="#D1D5DB" stroke-dasharray="10 10"/>
<g clip-path="url(#clip1_3196_40334)">
<rect x="21" y="418" width="406" height="50" rx="8" fill="#E8F2F8"/>
<path d="M209.636 449V437.364H211.045V443.136H211.181L216.408 437.364H218.249L213.363 442.614L218.249 449H216.545L212.499 443.591L211.045 445.227V449H209.636ZM222.46 449.205C221.906 449.205 221.405 449.1 220.954 448.892C220.503 448.68 220.145 448.375 219.88 447.977C219.615 447.576 219.482 447.091 219.482 446.523C219.482 446.023 219.581 445.617 219.778 445.307C219.975 444.992 220.238 444.746 220.567 444.568C220.897 444.39 221.261 444.258 221.658 444.17C222.06 444.08 222.463 444.008 222.869 443.955C223.399 443.886 223.829 443.835 224.158 443.801C224.492 443.763 224.734 443.701 224.886 443.614C225.041 443.527 225.119 443.375 225.119 443.159V443.114C225.119 442.553 224.965 442.117 224.658 441.807C224.355 441.496 223.895 441.341 223.278 441.341C222.638 441.341 222.136 441.481 221.772 441.761C221.408 442.042 221.153 442.341 221.005 442.659L219.732 442.205C219.96 441.674 220.263 441.261 220.641 440.966C221.024 440.667 221.441 440.458 221.891 440.341C222.346 440.22 222.793 440.159 223.232 440.159C223.513 440.159 223.835 440.193 224.198 440.261C224.566 440.326 224.92 440.46 225.261 440.665C225.605 440.869 225.891 441.178 226.119 441.591C226.346 442.004 226.46 442.557 226.46 443.25V449H225.119V447.818H225.05C224.96 448.008 224.808 448.21 224.596 448.426C224.384 448.642 224.102 448.826 223.749 448.977C223.397 449.129 222.967 449.205 222.46 449.205ZM222.664 448C223.194 448 223.641 447.896 224.005 447.688C224.372 447.479 224.649 447.21 224.835 446.881C225.024 446.551 225.119 446.205 225.119 445.841V444.614C225.062 444.682 224.937 444.744 224.744 444.801C224.554 444.854 224.335 444.902 224.085 444.943C223.838 444.981 223.598 445.015 223.363 445.045C223.132 445.072 222.944 445.095 222.8 445.114C222.452 445.159 222.126 445.233 221.823 445.335C221.524 445.434 221.281 445.583 221.096 445.784C220.914 445.981 220.823 446.25 220.823 446.591C220.823 447.057 220.996 447.409 221.34 447.648C221.689 447.883 222.13 448 222.664 448ZM234.407 445.432V440.273H235.748V449H234.407V447.523H234.316C234.112 447.966 233.793 448.343 233.362 448.653C232.93 448.96 232.384 449.114 231.725 449.114C231.18 449.114 230.695 448.994 230.271 448.756C229.846 448.513 229.513 448.15 229.271 447.665C229.028 447.176 228.907 446.561 228.907 445.818V440.273H230.248V445.727C230.248 446.364 230.426 446.871 230.782 447.25C231.142 447.629 231.6 447.818 232.157 447.818C232.49 447.818 232.829 447.733 233.174 447.562C233.522 447.392 233.814 447.131 234.049 446.778C234.288 446.426 234.407 445.977 234.407 445.432ZM239.545 437.364V449H238.204V437.364H239.545Z" fill="#1F2937"/>
</g>
<rect x="21.5" y="418.5" width="405" height="49" rx="7.5" stroke="#D1D5DB" stroke-dasharray="10 10"/>
<rect x="345" y="188" width="51" height="25" rx="4" fill="#E8F2F8"/>
<path d="M350.439 206V195.818H351.672V200.869H351.791L356.365 195.818H357.976L353.7 200.412L357.976 206H356.484L352.945 201.267L351.672 202.699V206H350.439ZM359.891 206V198.364H361.065V206H359.891ZM360.488 197.091C360.259 197.091 360.062 197.013 359.896 196.857C359.734 196.701 359.653 196.514 359.653 196.295C359.653 196.077 359.734 195.889 359.896 195.734C360.062 195.578 360.259 195.5 360.488 195.5C360.717 195.5 360.912 195.578 361.074 195.734C361.24 195.889 361.323 196.077 361.323 196.295C361.323 196.514 361.24 196.701 361.074 196.857C360.912 197.013 360.717 197.091 360.488 197.091ZM364.387 195.818V206H363.214V195.818H364.387ZM367.709 195.818V206H366.536V195.818H367.709ZM373.955 206V195.818H377.514C378.224 195.818 378.809 195.941 379.269 196.186C379.73 196.428 380.073 196.754 380.298 197.165C380.524 197.573 380.636 198.026 380.636 198.523C380.636 198.96 380.559 199.321 380.403 199.607C380.25 199.892 380.048 200.117 379.796 200.283C379.548 200.448 379.278 200.571 378.986 200.651V200.75C379.297 200.77 379.611 200.879 379.926 201.078C380.24 201.277 380.504 201.562 380.716 201.933C380.928 202.304 381.034 202.759 381.034 203.295C381.034 203.806 380.918 204.265 380.686 204.673C380.454 205.08 380.088 205.403 379.587 205.642C379.087 205.881 378.436 206 377.634 206H373.955ZM375.188 204.906H377.634C378.439 204.906 379.011 204.75 379.349 204.439C379.69 204.124 379.861 203.743 379.861 203.295C379.861 202.951 379.773 202.633 379.597 202.341C379.422 202.046 379.171 201.811 378.847 201.635C378.522 201.456 378.137 201.366 377.693 201.366H375.188V204.906ZM375.188 200.293H377.475C377.846 200.293 378.18 200.22 378.479 200.074C378.78 199.928 379.019 199.723 379.195 199.457C379.374 199.192 379.463 198.881 379.463 198.523C379.463 198.075 379.307 197.696 378.996 197.384C378.684 197.069 378.19 196.912 377.514 196.912H375.188V200.293ZM382.901 206V198.364H384.074V206H382.901ZM383.498 197.091C383.269 197.091 383.072 197.013 382.906 196.857C382.744 196.701 382.662 196.514 382.662 196.295C382.662 196.077 382.744 195.889 382.906 195.734C383.072 195.578 383.269 195.5 383.498 195.5C383.726 195.5 383.922 195.578 384.084 195.734C384.25 195.889 384.333 196.077 384.333 196.295C384.333 196.514 384.25 196.701 384.084 196.857C383.922 197.013 383.726 197.091 383.498 197.091ZM387.397 195.818V206H386.223V195.818H387.397ZM390.719 195.818V206H389.546V195.818H390.719Z" fill="#4B5563"/>
<path d="M223.293 378.293C223.683 377.902 224.317 377.902 224.707 378.293L231.071 384.657C231.462 385.047 231.462 385.681 231.071 386.071C230.681 386.462 230.047 386.462 229.657 386.071L224 380.414L218.343 386.071C217.953 386.462 217.319 386.462 216.929 386.071C216.538 385.681 216.538 385.047 216.929 384.657L223.293 378.293ZM218.667 418.5C218.667 415.554 221.054 413.167 224 413.167C226.946 413.167 229.333 415.554 229.333 418.5C229.333 421.446 226.946 423.833 224 423.833C221.054 423.833 218.667 421.446 218.667 418.5ZM225 379V418.5H223V379H225Z" fill="#6B7280"/>
<path d="M467.207 442.293C467.598 442.683 467.598 443.317 467.207 443.707L460.843 450.071C460.453 450.462 459.819 450.462 459.429 450.071C459.038 449.681 459.038 449.047 459.429 448.657L465.086 443L459.429 437.343C459.038 436.953 459.038 436.319 459.429 435.929C459.819 435.538 460.453 435.538 460.843 435.929L467.207 442.293ZM427 437.667C429.946 437.667 432.333 440.054 432.333 443C432.333 445.946 429.946 448.333 427 448.333C424.054 448.333 421.667 445.946 421.667 443C421.667 440.054 424.054 437.667 427 437.667ZM466.5 444H427V442H466.5V444Z" fill="#6B7280"/>
<path d="M467.207 289.293C467.598 289.683 467.598 290.317 467.207 290.707L460.843 297.071C460.453 297.462 459.819 297.462 459.429 297.071C459.038 296.681 459.038 296.047 459.429 295.657L465.086 290L459.429 284.343C459.038 283.953 459.038 283.319 459.429 282.929C459.819 282.538 460.453 282.538 460.843 282.929L467.207 289.293ZM427 284.667C429.946 284.667 432.333 287.054 432.333 290C432.333 292.946 429.946 295.333 427 295.333C424.054 295.333 421.667 292.946 421.667 290C421.667 287.054 424.054 284.667 427 284.667ZM466.5 291H427V289H466.5V291Z" fill="#6B7280"/>
<rect x="467" y="201" width="113" height="267" rx="8" fill="#167BB7"/>
<path d="M487.523 316.625H491.289C492.143 316.625 492.865 316.755 493.453 317.016C494.047 317.276 494.497 317.661 494.805 318.172C495.117 318.677 495.273 319.299 495.273 320.039C495.273 320.56 495.167 321.036 494.953 321.469C494.745 321.896 494.443 322.26 494.047 322.562C493.656 322.859 493.188 323.081 492.641 323.227L492.219 323.391H488.68L488.664 322.164H491.336C491.878 322.164 492.328 322.07 492.688 321.883C493.047 321.69 493.318 321.432 493.5 321.109C493.682 320.786 493.773 320.43 493.773 320.039C493.773 319.602 493.688 319.219 493.516 318.891C493.344 318.562 493.073 318.31 492.703 318.133C492.339 317.951 491.867 317.859 491.289 317.859H489.031V328H487.523V316.625ZM494.172 328L491.406 322.844L492.977 322.836L495.781 327.906V328H494.172ZM500.672 328.156C500.083 328.156 499.549 328.057 499.07 327.859C498.596 327.656 498.188 327.372 497.844 327.008C497.505 326.643 497.245 326.211 497.062 325.711C496.88 325.211 496.789 324.664 496.789 324.07V323.742C496.789 323.055 496.891 322.443 497.094 321.906C497.297 321.365 497.573 320.906 497.922 320.531C498.271 320.156 498.667 319.872 499.109 319.68C499.552 319.487 500.01 319.391 500.484 319.391C501.089 319.391 501.609 319.495 502.047 319.703C502.49 319.911 502.852 320.203 503.133 320.578C503.414 320.948 503.622 321.385 503.758 321.891C503.893 322.391 503.961 322.938 503.961 323.531V324.18H497.648V323H502.516V322.891C502.495 322.516 502.417 322.151 502.281 321.797C502.151 321.443 501.943 321.151 501.656 320.922C501.37 320.693 500.979 320.578 500.484 320.578C500.156 320.578 499.854 320.648 499.578 320.789C499.302 320.924 499.065 321.128 498.867 321.398C498.669 321.669 498.516 322 498.406 322.391C498.297 322.781 498.242 323.232 498.242 323.742V324.07C498.242 324.471 498.297 324.849 498.406 325.203C498.521 325.552 498.685 325.859 498.898 326.125C499.117 326.391 499.38 326.599 499.688 326.75C500 326.901 500.354 326.977 500.75 326.977C501.26 326.977 501.693 326.872 502.047 326.664C502.401 326.456 502.711 326.177 502.977 325.828L503.852 326.523C503.669 326.799 503.438 327.062 503.156 327.312C502.875 327.562 502.529 327.766 502.117 327.922C501.711 328.078 501.229 328.156 500.672 328.156ZM507.219 316V328H505.766V316H507.219ZM514.523 326.555V322.203C514.523 321.87 514.456 321.581 514.32 321.336C514.19 321.086 513.992 320.893 513.727 320.758C513.461 320.622 513.133 320.555 512.742 320.555C512.378 320.555 512.057 320.617 511.781 320.742C511.51 320.867 511.297 321.031 511.141 321.234C510.99 321.438 510.914 321.656 510.914 321.891H509.469C509.469 321.589 509.547 321.289 509.703 320.992C509.859 320.695 510.083 320.427 510.375 320.188C510.672 319.943 511.026 319.75 511.438 319.609C511.854 319.464 512.318 319.391 512.828 319.391C513.443 319.391 513.984 319.495 514.453 319.703C514.927 319.911 515.297 320.227 515.562 320.648C515.833 321.065 515.969 321.589 515.969 322.219V326.156C515.969 326.438 515.992 326.737 516.039 327.055C516.091 327.372 516.167 327.646 516.266 327.875V328H514.758C514.685 327.833 514.628 327.612 514.586 327.336C514.544 327.055 514.523 326.794 514.523 326.555ZM514.773 322.875L514.789 323.891H513.328C512.917 323.891 512.549 323.924 512.227 323.992C511.904 324.055 511.633 324.151 511.414 324.281C511.195 324.411 511.029 324.576 510.914 324.773C510.799 324.966 510.742 325.193 510.742 325.453C510.742 325.719 510.802 325.961 510.922 326.18C511.042 326.398 511.221 326.573 511.461 326.703C511.706 326.828 512.005 326.891 512.359 326.891C512.802 326.891 513.193 326.797 513.531 326.609C513.87 326.422 514.138 326.193 514.336 325.922C514.539 325.651 514.648 325.388 514.664 325.133L515.281 325.828C515.245 326.047 515.146 326.289 514.984 326.555C514.823 326.82 514.607 327.076 514.336 327.32C514.07 327.56 513.753 327.76 513.383 327.922C513.018 328.078 512.607 328.156 512.148 328.156C511.576 328.156 511.073 328.044 510.641 327.82C510.214 327.596 509.88 327.297 509.641 326.922C509.406 326.542 509.289 326.117 509.289 325.648C509.289 325.195 509.378 324.797 509.555 324.453C509.732 324.104 509.987 323.815 510.32 323.586C510.654 323.352 511.055 323.174 511.523 323.055C511.992 322.935 512.516 322.875 513.094 322.875H514.773ZM521.781 319.547V320.656H517.211V319.547H521.781ZM518.758 317.492H520.203V325.906C520.203 326.193 520.247 326.409 520.336 326.555C520.424 326.701 520.539 326.797 520.68 326.844C520.82 326.891 520.971 326.914 521.133 326.914C521.253 326.914 521.378 326.904 521.508 326.883C521.643 326.857 521.745 326.836 521.812 326.82L521.82 328C521.706 328.036 521.555 328.07 521.367 328.102C521.185 328.138 520.964 328.156 520.703 328.156C520.349 328.156 520.023 328.086 519.727 327.945C519.43 327.805 519.193 327.57 519.016 327.242C518.844 326.909 518.758 326.461 518.758 325.898V317.492ZM525.047 319.547V328H523.594V319.547H525.047ZM523.484 317.305C523.484 317.07 523.555 316.872 523.695 316.711C523.841 316.549 524.055 316.469 524.336 316.469C524.612 316.469 524.823 316.549 524.969 316.711C525.12 316.872 525.195 317.07 525.195 317.305C525.195 317.529 525.12 317.721 524.969 317.883C524.823 318.039 524.612 318.117 524.336 318.117C524.055 318.117 523.841 318.039 523.695 317.883C523.555 317.721 523.484 317.529 523.484 317.305ZM526.984 323.867V323.688C526.984 323.078 527.073 322.513 527.25 321.992C527.427 321.466 527.682 321.01 528.016 320.625C528.349 320.234 528.753 319.932 529.227 319.719C529.701 319.5 530.232 319.391 530.82 319.391C531.414 319.391 531.948 319.5 532.422 319.719C532.901 319.932 533.307 320.234 533.641 320.625C533.979 321.01 534.237 321.466 534.414 321.992C534.591 322.513 534.68 323.078 534.68 323.688V323.867C534.68 324.477 534.591 325.042 534.414 325.562C534.237 326.083 533.979 326.539 533.641 326.93C533.307 327.315 532.904 327.617 532.43 327.836C531.961 328.049 531.43 328.156 530.836 328.156C530.242 328.156 529.708 328.049 529.234 327.836C528.76 327.617 528.354 327.315 528.016 326.93C527.682 326.539 527.427 326.083 527.25 325.562C527.073 325.042 526.984 324.477 526.984 323.867ZM528.43 323.688V323.867C528.43 324.289 528.479 324.688 528.578 325.062C528.677 325.432 528.826 325.76 529.023 326.047C529.227 326.333 529.479 326.56 529.781 326.727C530.083 326.888 530.435 326.969 530.836 326.969C531.232 326.969 531.578 326.888 531.875 326.727C532.177 326.56 532.427 326.333 532.625 326.047C532.823 325.76 532.971 325.432 533.07 325.062C533.174 324.688 533.227 324.289 533.227 323.867V323.688C533.227 323.271 533.174 322.878 533.07 322.508C532.971 322.133 532.82 321.802 532.617 321.516C532.419 321.224 532.169 320.995 531.867 320.828C531.57 320.661 531.221 320.578 530.82 320.578C530.424 320.578 530.076 320.661 529.773 320.828C529.477 320.995 529.227 321.224 529.023 321.516C528.826 321.802 528.677 322.133 528.578 322.508C528.479 322.878 528.43 323.271 528.43 323.688ZM537.938 321.352V328H536.492V319.547H537.859L537.938 321.352ZM537.594 323.453L536.992 323.43C536.997 322.852 537.083 322.318 537.25 321.828C537.417 321.333 537.651 320.904 537.953 320.539C538.255 320.174 538.615 319.893 539.031 319.695C539.453 319.492 539.919 319.391 540.43 319.391C540.846 319.391 541.221 319.448 541.555 319.562C541.888 319.672 542.172 319.849 542.406 320.094C542.646 320.339 542.828 320.656 542.953 321.047C543.078 321.432 543.141 321.904 543.141 322.461V328H541.688V322.445C541.688 322.003 541.622 321.648 541.492 321.383C541.362 321.112 541.172 320.917 540.922 320.797C540.672 320.672 540.365 320.609 540 320.609C539.641 320.609 539.312 320.685 539.016 320.836C538.724 320.987 538.471 321.195 538.258 321.461C538.049 321.727 537.885 322.031 537.766 322.375C537.651 322.714 537.594 323.073 537.594 323.453ZM550.32 326.555V322.203C550.32 321.87 550.253 321.581 550.117 321.336C549.987 321.086 549.789 320.893 549.523 320.758C549.258 320.622 548.93 320.555 548.539 320.555C548.174 320.555 547.854 320.617 547.578 320.742C547.307 320.867 547.094 321.031 546.938 321.234C546.786 321.438 546.711 321.656 546.711 321.891H545.266C545.266 321.589 545.344 321.289 545.5 320.992C545.656 320.695 545.88 320.427 546.172 320.188C546.469 319.943 546.823 319.75 547.234 319.609C547.651 319.464 548.115 319.391 548.625 319.391C549.24 319.391 549.781 319.495 550.25 319.703C550.724 319.911 551.094 320.227 551.359 320.648C551.63 321.065 551.766 321.589 551.766 322.219V326.156C551.766 326.438 551.789 326.737 551.836 327.055C551.888 327.372 551.964 327.646 552.062 327.875V328H550.555C550.482 327.833 550.424 327.612 550.383 327.336C550.341 327.055 550.32 326.794 550.32 326.555ZM550.57 322.875L550.586 323.891H549.125C548.714 323.891 548.346 323.924 548.023 323.992C547.701 324.055 547.43 324.151 547.211 324.281C546.992 324.411 546.826 324.576 546.711 324.773C546.596 324.966 546.539 325.193 546.539 325.453C546.539 325.719 546.599 325.961 546.719 326.18C546.839 326.398 547.018 326.573 547.258 326.703C547.503 326.828 547.802 326.891 548.156 326.891C548.599 326.891 548.99 326.797 549.328 326.609C549.667 326.422 549.935 326.193 550.133 325.922C550.336 325.651 550.445 325.388 550.461 325.133L551.078 325.828C551.042 326.047 550.943 326.289 550.781 326.555C550.62 326.82 550.404 327.076 550.133 327.32C549.867 327.56 549.549 327.76 549.18 327.922C548.815 328.078 548.404 328.156 547.945 328.156C547.372 328.156 546.87 328.044 546.438 327.82C546.01 327.596 545.677 327.297 545.438 326.922C545.203 326.542 545.086 326.117 545.086 325.648C545.086 325.195 545.174 324.797 545.352 324.453C545.529 324.104 545.784 323.815 546.117 323.586C546.451 323.352 546.852 323.174 547.32 323.055C547.789 322.935 548.312 322.875 548.891 322.875H550.57ZM555.609 316V328H554.156V316H555.609ZM494.109 352H491.734L491.75 350.773H494.109C494.922 350.773 495.599 350.604 496.141 350.266C496.682 349.922 497.089 349.443 497.359 348.828C497.635 348.208 497.773 347.484 497.773 346.656V345.961C497.773 345.31 497.695 344.732 497.539 344.227C497.383 343.716 497.154 343.286 496.852 342.938C496.549 342.583 496.18 342.315 495.742 342.133C495.31 341.951 494.812 341.859 494.25 341.859H491.688V340.625H494.25C494.995 340.625 495.674 340.75 496.289 341C496.904 341.245 497.432 341.602 497.875 342.07C498.323 342.534 498.667 343.096 498.906 343.758C499.146 344.414 499.266 345.154 499.266 345.977V346.656C499.266 347.479 499.146 348.221 498.906 348.883C498.667 349.539 498.32 350.099 497.867 350.562C497.419 351.026 496.878 351.383 496.242 351.633C495.612 351.878 494.901 352 494.109 352ZM492.539 340.625V352H491.031V340.625H492.539ZM506.297 350.555V346.203C506.297 345.87 506.229 345.581 506.094 345.336C505.964 345.086 505.766 344.893 505.5 344.758C505.234 344.622 504.906 344.555 504.516 344.555C504.151 344.555 503.831 344.617 503.555 344.742C503.284 344.867 503.07 345.031 502.914 345.234C502.763 345.438 502.688 345.656 502.688 345.891H501.242C501.242 345.589 501.32 345.289 501.477 344.992C501.633 344.695 501.857 344.427 502.148 344.188C502.445 343.943 502.799 343.75 503.211 343.609C503.628 343.464 504.091 343.391 504.602 343.391C505.216 343.391 505.758 343.495 506.227 343.703C506.701 343.911 507.07 344.227 507.336 344.648C507.607 345.065 507.742 345.589 507.742 346.219V350.156C507.742 350.438 507.766 350.737 507.812 351.055C507.865 351.372 507.94 351.646 508.039 351.875V352H506.531C506.458 351.833 506.401 351.612 506.359 351.336C506.318 351.055 506.297 350.794 506.297 350.555ZM506.547 346.875L506.562 347.891H505.102C504.69 347.891 504.323 347.924 504 347.992C503.677 348.055 503.406 348.151 503.188 348.281C502.969 348.411 502.802 348.576 502.688 348.773C502.573 348.966 502.516 349.193 502.516 349.453C502.516 349.719 502.576 349.961 502.695 350.18C502.815 350.398 502.995 350.573 503.234 350.703C503.479 350.828 503.779 350.891 504.133 350.891C504.576 350.891 504.966 350.797 505.305 350.609C505.643 350.422 505.911 350.193 506.109 349.922C506.312 349.651 506.422 349.388 506.438 349.133L507.055 349.828C507.018 350.047 506.919 350.289 506.758 350.555C506.596 350.82 506.38 351.076 506.109 351.32C505.844 351.56 505.526 351.76 505.156 351.922C504.792 352.078 504.38 352.156 503.922 352.156C503.349 352.156 502.846 352.044 502.414 351.82C501.987 351.596 501.654 351.297 501.414 350.922C501.18 350.542 501.062 350.117 501.062 349.648C501.062 349.195 501.151 348.797 501.328 348.453C501.505 348.104 501.76 347.815 502.094 347.586C502.427 347.352 502.828 347.174 503.297 347.055C503.766 346.935 504.289 346.875 504.867 346.875H506.547ZM513.555 343.547V344.656H508.984V343.547H513.555ZM510.531 341.492H511.977V349.906C511.977 350.193 512.021 350.409 512.109 350.555C512.198 350.701 512.312 350.797 512.453 350.844C512.594 350.891 512.745 350.914 512.906 350.914C513.026 350.914 513.151 350.904 513.281 350.883C513.417 350.857 513.518 350.836 513.586 350.82L513.594 352C513.479 352.036 513.328 352.07 513.141 352.102C512.958 352.138 512.737 352.156 512.477 352.156C512.122 352.156 511.797 352.086 511.5 351.945C511.203 351.805 510.966 351.57 510.789 351.242C510.617 350.909 510.531 350.461 510.531 349.898V341.492ZM520.234 350.555V346.203C520.234 345.87 520.167 345.581 520.031 345.336C519.901 345.086 519.703 344.893 519.438 344.758C519.172 344.622 518.844 344.555 518.453 344.555C518.089 344.555 517.768 344.617 517.492 344.742C517.221 344.867 517.008 345.031 516.852 345.234C516.701 345.438 516.625 345.656 516.625 345.891H515.18C515.18 345.589 515.258 345.289 515.414 344.992C515.57 344.695 515.794 344.427 516.086 344.188C516.383 343.943 516.737 343.75 517.148 343.609C517.565 343.464 518.029 343.391 518.539 343.391C519.154 343.391 519.695 343.495 520.164 343.703C520.638 343.911 521.008 344.227 521.273 344.648C521.544 345.065 521.68 345.589 521.68 346.219V350.156C521.68 350.438 521.703 350.737 521.75 351.055C521.802 351.372 521.878 351.646 521.977 351.875V352H520.469C520.396 351.833 520.339 351.612 520.297 351.336C520.255 351.055 520.234 350.794 520.234 350.555ZM520.484 346.875L520.5 347.891H519.039C518.628 347.891 518.26 347.924 517.938 347.992C517.615 348.055 517.344 348.151 517.125 348.281C516.906 348.411 516.74 348.576 516.625 348.773C516.51 348.966 516.453 349.193 516.453 349.453C516.453 349.719 516.513 349.961 516.633 350.18C516.753 350.398 516.932 350.573 517.172 350.703C517.417 350.828 517.716 350.891 518.07 350.891C518.513 350.891 518.904 350.797 519.242 350.609C519.581 350.422 519.849 350.193 520.047 349.922C520.25 349.651 520.359 349.388 520.375 349.133L520.992 349.828C520.956 350.047 520.857 350.289 520.695 350.555C520.534 350.82 520.318 351.076 520.047 351.32C519.781 351.56 519.464 351.76 519.094 351.922C518.729 352.078 518.318 352.156 517.859 352.156C517.286 352.156 516.784 352.044 516.352 351.82C515.924 351.596 515.591 351.297 515.352 350.922C515.117 350.542 515 350.117 515 349.648C515 349.195 515.089 348.797 515.266 348.453C515.443 348.104 515.698 347.815 516.031 347.586C516.365 347.352 516.766 347.174 517.234 347.055C517.703 346.935 518.227 346.875 518.805 346.875H520.484ZM523.945 340H525.398V350.359L525.273 352H523.945V340ZM531.109 347.703V347.867C531.109 348.482 531.036 349.052 530.891 349.578C530.745 350.099 530.531 350.552 530.25 350.938C529.969 351.323 529.625 351.622 529.219 351.836C528.812 352.049 528.346 352.156 527.82 352.156C527.284 352.156 526.812 352.065 526.406 351.883C526.005 351.695 525.667 351.427 525.391 351.078C525.115 350.729 524.893 350.307 524.727 349.812C524.565 349.318 524.453 348.76 524.391 348.141V347.422C524.453 346.797 524.565 346.237 524.727 345.742C524.893 345.247 525.115 344.826 525.391 344.477C525.667 344.122 526.005 343.854 526.406 343.672C526.807 343.484 527.273 343.391 527.805 343.391C528.336 343.391 528.807 343.495 529.219 343.703C529.63 343.906 529.974 344.198 530.25 344.578C530.531 344.958 530.745 345.414 530.891 345.945C531.036 346.471 531.109 347.057 531.109 347.703ZM529.656 347.867V347.703C529.656 347.281 529.617 346.885 529.539 346.516C529.461 346.141 529.336 345.812 529.164 345.531C528.992 345.245 528.766 345.021 528.484 344.859C528.203 344.693 527.857 344.609 527.445 344.609C527.081 344.609 526.763 344.672 526.492 344.797C526.227 344.922 526 345.091 525.812 345.305C525.625 345.513 525.471 345.753 525.352 346.023C525.237 346.289 525.151 346.565 525.094 346.852V348.734C525.177 349.099 525.312 349.451 525.5 349.789C525.693 350.122 525.948 350.396 526.266 350.609C526.589 350.823 526.987 350.93 527.461 350.93C527.852 350.93 528.185 350.852 528.461 350.695C528.742 350.534 528.969 350.312 529.141 350.031C529.318 349.75 529.448 349.424 529.531 349.055C529.615 348.685 529.656 348.289 529.656 347.867ZM537.922 350.555V346.203C537.922 345.87 537.854 345.581 537.719 345.336C537.589 345.086 537.391 344.893 537.125 344.758C536.859 344.622 536.531 344.555 536.141 344.555C535.776 344.555 535.456 344.617 535.18 344.742C534.909 344.867 534.695 345.031 534.539 345.234C534.388 345.438 534.312 345.656 534.312 345.891H532.867C532.867 345.589 532.945 345.289 533.102 344.992C533.258 344.695 533.482 344.427 533.773 344.188C534.07 343.943 534.424 343.75 534.836 343.609C535.253 343.464 535.716 343.391 536.227 343.391C536.841 343.391 537.383 343.495 537.852 343.703C538.326 343.911 538.695 344.227 538.961 344.648C539.232 345.065 539.367 345.589 539.367 346.219V350.156C539.367 350.438 539.391 350.737 539.438 351.055C539.49 351.372 539.565 351.646 539.664 351.875V352H538.156C538.083 351.833 538.026 351.612 537.984 351.336C537.943 351.055 537.922 350.794 537.922 350.555ZM538.172 346.875L538.188 347.891H536.727C536.315 347.891 535.948 347.924 535.625 347.992C535.302 348.055 535.031 348.151 534.812 348.281C534.594 348.411 534.427 348.576 534.312 348.773C534.198 348.966 534.141 349.193 534.141 349.453C534.141 349.719 534.201 349.961 534.32 350.18C534.44 350.398 534.62 350.573 534.859 350.703C535.104 350.828 535.404 350.891 535.758 350.891C536.201 350.891 536.591 350.797 536.93 350.609C537.268 350.422 537.536 350.193 537.734 349.922C537.938 349.651 538.047 349.388 538.062 349.133L538.68 349.828C538.643 350.047 538.544 350.289 538.383 350.555C538.221 350.82 538.005 351.076 537.734 351.32C537.469 351.56 537.151 351.76 536.781 351.922C536.417 352.078 536.005 352.156 535.547 352.156C534.974 352.156 534.471 352.044 534.039 351.82C533.612 351.596 533.279 351.297 533.039 350.922C532.805 350.542 532.688 350.117 532.688 349.648C532.688 349.195 532.776 348.797 532.953 348.453C533.13 348.104 533.385 347.815 533.719 347.586C534.052 347.352 534.453 347.174 534.922 347.055C535.391 346.935 535.914 346.875 536.492 346.875H538.172ZM546.562 349.758C546.562 349.549 546.516 349.357 546.422 349.18C546.333 348.997 546.148 348.833 545.867 348.688C545.591 348.536 545.174 348.406 544.617 348.297C544.148 348.198 543.724 348.081 543.344 347.945C542.969 347.81 542.648 347.646 542.383 347.453C542.122 347.26 541.922 347.034 541.781 346.773C541.641 346.513 541.57 346.208 541.57 345.859C541.57 345.526 541.643 345.211 541.789 344.914C541.94 344.617 542.151 344.354 542.422 344.125C542.698 343.896 543.029 343.716 543.414 343.586C543.799 343.456 544.229 343.391 544.703 343.391C545.38 343.391 545.958 343.51 546.438 343.75C546.917 343.99 547.284 344.31 547.539 344.711C547.794 345.107 547.922 345.547 547.922 346.031H546.477C546.477 345.797 546.406 345.57 546.266 345.352C546.13 345.128 545.93 344.943 545.664 344.797C545.404 344.651 545.083 344.578 544.703 344.578C544.302 344.578 543.977 344.641 543.727 344.766C543.482 344.885 543.302 345.039 543.188 345.227C543.078 345.414 543.023 345.612 543.023 345.82C543.023 345.977 543.049 346.117 543.102 346.242C543.159 346.362 543.258 346.474 543.398 346.578C543.539 346.677 543.737 346.771 543.992 346.859C544.247 346.948 544.573 347.036 544.969 347.125C545.661 347.281 546.232 347.469 546.68 347.688C547.128 347.906 547.461 348.174 547.68 348.492C547.898 348.81 548.008 349.195 548.008 349.648C548.008 350.018 547.93 350.357 547.773 350.664C547.622 350.971 547.401 351.237 547.109 351.461C546.823 351.68 546.479 351.852 546.078 351.977C545.682 352.096 545.237 352.156 544.742 352.156C543.997 352.156 543.367 352.023 542.852 351.758C542.336 351.492 541.945 351.148 541.68 350.727C541.414 350.305 541.281 349.859 541.281 349.391H542.734C542.755 349.786 542.87 350.102 543.078 350.336C543.286 350.565 543.542 350.729 543.844 350.828C544.146 350.922 544.445 350.969 544.742 350.969C545.138 350.969 545.469 350.917 545.734 350.812C546.005 350.708 546.211 350.565 546.352 350.383C546.492 350.201 546.562 349.992 546.562 349.758ZM553.414 352.156C552.826 352.156 552.292 352.057 551.812 351.859C551.339 351.656 550.93 351.372 550.586 351.008C550.247 350.643 549.987 350.211 549.805 349.711C549.622 349.211 549.531 348.664 549.531 348.07V347.742C549.531 347.055 549.633 346.443 549.836 345.906C550.039 345.365 550.315 344.906 550.664 344.531C551.013 344.156 551.409 343.872 551.852 343.68C552.294 343.487 552.753 343.391 553.227 343.391C553.831 343.391 554.352 343.495 554.789 343.703C555.232 343.911 555.594 344.203 555.875 344.578C556.156 344.948 556.365 345.385 556.5 345.891C556.635 346.391 556.703 346.938 556.703 347.531V348.18H550.391V347H555.258V346.891C555.237 346.516 555.159 346.151 555.023 345.797C554.893 345.443 554.685 345.151 554.398 344.922C554.112 344.693 553.721 344.578 553.227 344.578C552.898 344.578 552.596 344.648 552.32 344.789C552.044 344.924 551.807 345.128 551.609 345.398C551.411 345.669 551.258 346 551.148 346.391C551.039 346.781 550.984 347.232 550.984 347.742V348.07C550.984 348.471 551.039 348.849 551.148 349.203C551.263 349.552 551.427 349.859 551.641 350.125C551.859 350.391 552.122 350.599 552.43 350.75C552.742 350.901 553.096 350.977 553.492 350.977C554.003 350.977 554.435 350.872 554.789 350.664C555.143 350.456 555.453 350.177 555.719 349.828L556.594 350.523C556.411 350.799 556.18 351.062 555.898 351.312C555.617 351.562 555.271 351.766 554.859 351.922C554.453 352.078 553.971 352.156 553.414 352.156Z" fill="white"/>
<rect x="0.5" y="147.5" width="600" height="361" rx="7.5" stroke="#167BB7" stroke-dasharray="10 10"/>
<rect width="161" height="36" transform="translate(421 131)" fill="white"/>
<path d="M430.878 155V143.364H432.287V149.136H432.423L437.651 143.364H439.491L434.605 148.614L439.491 155H437.787L433.741 149.591L432.287 151.227V155H430.878ZM441.68 155V146.273H443.021V155H441.68ZM442.362 144.818C442.101 144.818 441.875 144.729 441.686 144.551C441.5 144.373 441.408 144.159 441.408 143.909C441.408 143.659 441.5 143.445 441.686 143.267C441.875 143.089 442.101 143 442.362 143C442.624 143 442.847 143.089 443.033 143.267C443.222 143.445 443.317 143.659 443.317 143.909C443.317 144.159 443.222 144.373 443.033 144.551C442.847 144.729 442.624 144.818 442.362 144.818ZM446.818 143.364V155H445.477V143.364H446.818ZM450.615 143.364V155H449.274V143.364H450.615ZM457.753 155V143.364H461.821C462.632 143.364 463.3 143.504 463.827 143.784C464.353 144.061 464.745 144.434 465.003 144.903C465.26 145.369 465.389 145.886 465.389 146.455C465.389 146.955 465.3 147.367 465.122 147.693C464.948 148.019 464.717 148.277 464.429 148.466C464.145 148.655 463.836 148.795 463.503 148.886V149C463.859 149.023 464.217 149.148 464.577 149.375C464.937 149.602 465.238 149.928 465.48 150.352C465.723 150.777 465.844 151.295 465.844 151.909C465.844 152.492 465.711 153.017 465.446 153.483C465.181 153.949 464.762 154.318 464.19 154.591C463.618 154.864 462.874 155 461.957 155H457.753ZM459.162 153.75H461.957C462.878 153.75 463.531 153.572 463.918 153.216C464.308 152.856 464.503 152.42 464.503 151.909C464.503 151.515 464.402 151.152 464.202 150.818C464.001 150.481 463.715 150.212 463.344 150.011C462.973 149.807 462.533 149.705 462.026 149.705H459.162V153.75ZM459.162 148.477H461.776C462.2 148.477 462.582 148.394 462.923 148.227C463.268 148.061 463.541 147.826 463.741 147.523C463.946 147.22 464.048 146.864 464.048 146.455C464.048 145.943 463.87 145.509 463.514 145.153C463.158 144.794 462.594 144.614 461.821 144.614H459.162V148.477ZM467.977 155V146.273H469.318V155H467.977ZM468.659 144.818C468.398 144.818 468.172 144.729 467.983 144.551C467.797 144.373 467.705 144.159 467.705 143.909C467.705 143.659 467.797 143.445 467.983 143.267C468.172 143.089 468.398 143 468.659 143C468.92 143 469.144 143.089 469.33 143.267C469.519 143.445 469.614 143.659 469.614 143.909C469.614 144.159 469.519 144.373 469.33 144.551C469.144 144.729 468.92 144.818 468.659 144.818ZM473.115 143.364V155H471.774V143.364H473.115ZM476.912 143.364V155H475.571V143.364H476.912ZM487.641 155H484.05V143.364H487.8C488.929 143.364 489.894 143.597 490.697 144.062C491.5 144.525 492.116 145.189 492.544 146.057C492.972 146.92 493.186 147.955 493.186 149.159C493.186 150.371 492.97 151.415 492.538 152.29C492.107 153.161 491.478 153.831 490.652 154.301C489.826 154.767 488.822 155 487.641 155ZM485.459 153.75H487.55C488.512 153.75 489.309 153.564 489.942 153.193C490.574 152.822 491.046 152.294 491.357 151.608C491.667 150.922 491.822 150.106 491.822 149.159C491.822 148.22 491.669 147.411 491.362 146.733C491.055 146.051 490.597 145.528 489.987 145.165C489.377 144.797 488.618 144.614 487.709 144.614H485.459V153.75ZM499.027 155.182C498.186 155.182 497.461 154.996 496.851 154.625C496.245 154.25 495.777 153.727 495.447 153.057C495.122 152.383 494.959 151.598 494.959 150.705C494.959 149.811 495.122 149.023 495.447 148.341C495.777 147.655 496.235 147.121 496.822 146.739C497.413 146.352 498.103 146.159 498.891 146.159C499.345 146.159 499.794 146.235 500.237 146.386C500.68 146.538 501.084 146.784 501.447 147.125C501.811 147.462 502.101 147.909 502.317 148.466C502.533 149.023 502.641 149.708 502.641 150.523V151.091H495.913V149.932H501.277C501.277 149.439 501.179 149 500.982 148.614C500.788 148.227 500.512 147.922 500.152 147.699C499.796 147.475 499.375 147.364 498.891 147.364C498.357 147.364 497.894 147.496 497.504 147.761C497.118 148.023 496.821 148.364 496.612 148.784C496.404 149.205 496.3 149.655 496.3 150.136V150.909C496.3 151.568 496.413 152.127 496.641 152.585C496.872 153.04 497.192 153.386 497.601 153.625C498.01 153.86 498.485 153.977 499.027 153.977C499.379 153.977 499.697 153.928 499.982 153.83C500.269 153.727 500.518 153.576 500.726 153.375C500.934 153.17 501.095 152.917 501.209 152.614L502.504 152.977C502.368 153.417 502.139 153.803 501.817 154.136C501.495 154.466 501.097 154.723 500.624 154.909C500.15 155.091 499.618 155.182 499.027 155.182ZM504.68 158.273V146.273H505.976V147.659H506.135C506.233 147.508 506.37 147.314 506.544 147.08C506.722 146.841 506.976 146.629 507.305 146.443C507.639 146.254 508.089 146.159 508.658 146.159C509.393 146.159 510.04 146.343 510.601 146.71C511.161 147.078 511.599 147.598 511.913 148.273C512.228 148.947 512.385 149.742 512.385 150.659C512.385 151.583 512.228 152.384 511.913 153.062C511.599 153.737 511.163 154.259 510.607 154.631C510.05 154.998 509.408 155.182 508.68 155.182C508.12 155.182 507.671 155.089 507.334 154.903C506.997 154.714 506.737 154.5 506.555 154.261C506.374 154.019 506.233 153.818 506.135 153.659H506.021V158.273H504.68ZM505.999 150.636C505.999 151.295 506.095 151.877 506.288 152.381C506.482 152.881 506.764 153.273 507.135 153.557C507.506 153.837 507.961 153.977 508.499 153.977C509.059 153.977 509.527 153.83 509.902 153.534C510.281 153.235 510.565 152.833 510.754 152.33C510.947 151.822 511.044 151.258 511.044 150.636C511.044 150.023 510.949 149.47 510.76 148.977C510.574 148.481 510.292 148.089 509.913 147.801C509.538 147.509 509.067 147.364 508.499 147.364C507.953 147.364 507.495 147.502 507.124 147.778C506.752 148.051 506.472 148.434 506.283 148.926C506.093 149.415 505.999 149.985 505.999 150.636ZM515.771 143.364V155H514.43V143.364H515.771ZM521.773 155.182C520.985 155.182 520.294 154.994 519.699 154.619C519.108 154.244 518.646 153.72 518.312 153.045C517.983 152.371 517.818 151.583 517.818 150.682C517.818 149.773 517.983 148.979 518.312 148.301C518.646 147.623 519.108 147.097 519.699 146.722C520.294 146.347 520.985 146.159 521.773 146.159C522.561 146.159 523.25 146.347 523.841 146.722C524.436 147.097 524.898 147.623 525.227 148.301C525.561 148.979 525.727 149.773 525.727 150.682C525.727 151.583 525.561 152.371 525.227 153.045C524.898 153.72 524.436 154.244 523.841 154.619C523.25 154.994 522.561 155.182 521.773 155.182ZM521.773 153.977C522.371 153.977 522.864 153.824 523.25 153.517C523.636 153.21 523.922 152.807 524.108 152.307C524.294 151.807 524.386 151.265 524.386 150.682C524.386 150.098 524.294 149.555 524.108 149.051C523.922 148.547 523.636 148.14 523.25 147.83C522.864 147.519 522.371 147.364 521.773 147.364C521.174 147.364 520.682 147.519 520.295 147.83C519.909 148.14 519.623 148.547 519.438 149.051C519.252 149.555 519.159 150.098 519.159 150.682C519.159 151.265 519.252 151.807 519.438 152.307C519.623 152.807 519.909 153.21 520.295 153.517C520.682 153.824 521.174 153.977 521.773 153.977ZM528.325 158.273C528.098 158.273 527.895 158.254 527.717 158.216C527.539 158.182 527.416 158.148 527.348 158.114L527.689 156.932C528.015 157.015 528.303 157.045 528.553 157.023C528.803 157 529.024 156.888 529.217 156.688C529.414 156.491 529.594 156.17 529.757 155.727L530.007 155.045L526.78 146.273H528.234L530.643 153.227H530.734L533.143 146.273H534.598L530.893 156.273C530.727 156.723 530.52 157.097 530.274 157.392C530.028 157.691 529.742 157.913 529.416 158.057C529.094 158.201 528.731 158.273 528.325 158.273ZM536.368 155V146.273H537.663V147.636H537.777C537.959 147.17 538.252 146.809 538.658 146.551C539.063 146.29 539.55 146.159 540.118 146.159C540.694 146.159 541.173 146.29 541.555 146.551C541.942 146.809 542.243 147.17 542.459 147.636H542.55C542.773 147.186 543.108 146.828 543.555 146.562C544.002 146.294 544.538 146.159 545.163 146.159C545.944 146.159 546.582 146.403 547.078 146.892C547.574 147.377 547.822 148.133 547.822 149.159V155H546.482V149.159C546.482 148.515 546.305 148.055 545.953 147.778C545.601 147.502 545.186 147.364 544.709 147.364C544.095 147.364 543.62 147.549 543.283 147.92C542.946 148.288 542.777 148.754 542.777 149.318V155H541.413V149.023C541.413 148.527 541.252 148.127 540.93 147.824C540.608 147.517 540.194 147.364 539.686 147.364C539.338 147.364 539.012 147.456 538.709 147.642C538.41 147.828 538.167 148.085 537.982 148.415C537.8 148.741 537.709 149.117 537.709 149.545V155H536.368ZM553.933 155.182C553.092 155.182 552.367 154.996 551.757 154.625C551.151 154.25 550.683 153.727 550.354 153.057C550.028 152.383 549.865 151.598 549.865 150.705C549.865 149.811 550.028 149.023 550.354 148.341C550.683 147.655 551.142 147.121 551.729 146.739C552.32 146.352 553.009 146.159 553.797 146.159C554.251 146.159 554.7 146.235 555.143 146.386C555.587 146.538 555.99 146.784 556.354 147.125C556.717 147.462 557.007 147.909 557.223 148.466C557.439 149.023 557.547 149.708 557.547 150.523V151.091H550.82V149.932H556.183C556.183 149.439 556.085 149 555.888 148.614C555.695 148.227 555.418 147.922 555.058 147.699C554.702 147.475 554.282 147.364 553.797 147.364C553.263 147.364 552.801 147.496 552.411 147.761C552.024 148.023 551.727 148.364 551.518 148.784C551.31 149.205 551.206 149.655 551.206 150.136V150.909C551.206 151.568 551.32 152.127 551.547 152.585C551.778 153.04 552.098 153.386 552.507 153.625C552.916 153.86 553.392 153.977 553.933 153.977C554.286 153.977 554.604 153.928 554.888 153.83C555.176 153.727 555.424 153.576 555.632 153.375C555.84 153.17 556.001 152.917 556.115 152.614L557.411 152.977C557.274 153.417 557.045 153.803 556.723 154.136C556.401 154.466 556.003 154.723 555.53 154.909C555.056 155.091 554.524 155.182 553.933 155.182ZM560.928 149.75V155H559.587V146.273H560.882V147.636H560.996C561.2 147.193 561.511 146.837 561.928 146.568C562.344 146.295 562.882 146.159 563.541 146.159C564.132 146.159 564.649 146.28 565.092 146.523C565.536 146.761 565.88 147.125 566.126 147.614C566.373 148.098 566.496 148.712 566.496 149.455V155H565.155V149.545C565.155 148.86 564.977 148.326 564.621 147.943C564.265 147.557 563.776 147.364 563.155 147.364C562.727 147.364 562.344 147.456 562.007 147.642C561.674 147.828 561.411 148.098 561.217 148.455C561.024 148.811 560.928 149.242 560.928 149.75ZM572.741 146.273V147.409H568.219V146.273H572.741ZM569.537 144.182H570.878V152.5C570.878 152.879 570.933 153.163 571.043 153.352C571.156 153.538 571.3 153.663 571.474 153.727C571.652 153.788 571.84 153.818 572.037 153.818C572.185 153.818 572.306 153.811 572.401 153.795C572.495 153.777 572.571 153.761 572.628 153.75L572.901 154.955C572.81 154.989 572.683 155.023 572.52 155.057C572.357 155.095 572.151 155.114 571.901 155.114C571.522 155.114 571.151 155.032 570.787 154.869C570.427 154.706 570.128 154.458 569.889 154.125C569.654 153.792 569.537 153.371 569.537 152.864V144.182Z" fill="#167BB7"/>
<path d="M126.707 112.293C126.317 111.902 125.683 111.902 125.293 112.293L118.929 118.657C118.538 119.047 118.538 119.681 118.929 120.071C119.319 120.462 119.953 120.462 120.343 120.071L126 114.414L131.657 120.071C132.047 120.462 132.681 120.462 133.071 120.071C133.462 119.681 133.462 119.047 133.071 118.657L126.707 112.293ZM131.333 249C131.333 246.054 128.946 243.667 126 243.667C123.054 243.667 120.667 246.054 120.667 249C120.667 251.946 123.054 254.333 126 254.333C128.946 254.333 131.333 251.946 131.333 249ZM125 113L125 249H127L127 113H125Z" fill="#6B7280"/>
<path d="M322.707 112.293C322.317 111.902 321.683 111.902 321.293 112.293L314.929 118.657C314.538 119.047 314.538 119.681 314.929 120.071C315.319 120.462 315.953 120.462 316.343 120.071L322 114.414L327.657 120.071C328.047 120.462 328.681 120.462 329.071 120.071C329.462 119.681 329.462 119.047 329.071 118.657L322.707 112.293ZM327.333 249C327.333 246.054 324.946 243.667 322 243.667C319.054 243.667 316.667 246.054 316.667 249C316.667 251.946 319.054 254.333 322 254.333C324.946 254.333 327.333 251.946 327.333 249ZM321 113V249H323V113H321Z" fill="#6B7280"/>
<path d="M132.249 6.09527L177.912 52.2237C180.805 55.1463 180.805 59.8537 177.912 62.7763L132.249 108.905C129.314 111.87 124.524 111.87 121.589 108.905L75.9266 62.7763C73.0334 59.8537 73.0334 55.1463 75.9266 52.2237L121.589 6.09526C124.524 3.13034 129.314 3.13035 132.249 6.09527Z" fill="#E8F2F8" stroke="#167BB7"/>
<path d="M121.266 44.8651V54.8182H119.967V44.8651H121.266ZM124.465 44.8651V45.9452H116.774V44.8651H124.465ZM129.332 53.5536V49.746C129.332 49.4543 129.273 49.2014 129.154 48.9872C129.04 48.7684 128.867 48.5998 128.635 48.4813C128.402 48.3628 128.115 48.3036 127.773 48.3036C127.454 48.3036 127.174 48.3583 126.933 48.4677C126.696 48.577 126.509 48.7206 126.372 48.8983C126.24 49.076 126.174 49.2675 126.174 49.4725H124.909C124.909 49.2082 124.978 48.9462 125.114 48.6864C125.251 48.4266 125.447 48.1919 125.702 47.9823C125.962 47.7681 126.272 47.5995 126.632 47.4764C126.996 47.3488 127.402 47.285 127.849 47.285C128.386 47.285 128.86 47.3762 129.271 47.5585C129.685 47.7408 130.009 48.0165 130.241 48.3856C130.478 48.7502 130.597 49.2082 130.597 49.7596V53.205C130.597 53.451 130.617 53.7131 130.658 53.9911C130.704 54.2691 130.77 54.5083 130.856 54.7089V54.8182H129.537C129.473 54.6724 129.423 54.4787 129.387 54.2372C129.35 53.9911 129.332 53.7632 129.332 53.5536ZM129.551 50.3339L129.564 51.2225H128.286C127.926 51.2225 127.605 51.2522 127.322 51.3114C127.04 51.3661 126.803 51.4504 126.611 51.5643C126.42 51.6783 126.274 51.8218 126.174 51.995C126.074 52.1636 126.023 52.3619 126.023 52.5897C126.023 52.8221 126.076 53.0341 126.181 53.2255C126.285 53.4169 126.443 53.5695 126.652 53.6835C126.867 53.7928 127.129 53.8475 127.438 53.8475C127.826 53.8475 128.168 53.7655 128.464 53.6014C128.76 53.4374 128.995 53.2369 129.168 52.9999C129.346 52.7629 129.441 52.5328 129.455 52.3094L129.995 52.9178C129.963 53.1093 129.877 53.3212 129.735 53.5536C129.594 53.786 129.405 54.0093 129.168 54.2235C128.936 54.4331 128.658 54.6086 128.334 54.7499C128.015 54.8866 127.655 54.955 127.254 54.955C126.753 54.955 126.313 54.857 125.935 54.661C125.561 54.465 125.269 54.203 125.06 53.8749C124.854 53.5422 124.752 53.1708 124.752 52.7606C124.752 52.3641 124.829 52.0155 124.984 51.7147C125.139 51.4094 125.363 51.1565 125.654 50.9559C125.946 50.7509 126.297 50.5959 126.707 50.4911C127.117 50.3863 127.575 50.3339 128.081 50.3339H129.551ZM133.44 47.4218L135.061 50.1151L136.701 47.4218H138.185L135.765 51.0721L138.26 54.8182H136.797L135.088 52.0428L133.379 54.8182H131.909L134.397 51.0721L131.984 47.4218H133.44ZM106.541 66.9149H103.882V65.8417H106.541C107.056 65.8417 107.473 65.7596 107.792 65.5956C108.111 65.4315 108.343 65.2037 108.489 64.912C108.64 64.6203 108.715 64.2876 108.715 63.9139C108.715 63.5721 108.64 63.2509 108.489 62.9501C108.343 62.6493 108.111 62.4078 107.792 62.2255C107.473 62.0386 107.056 61.9452 106.541 61.9452H104.189V70.8182H102.87V60.8651H106.541C107.293 60.8651 107.929 60.995 108.448 61.2548C108.968 61.5145 109.362 61.8746 109.631 62.3348C109.9 62.7906 110.034 63.3124 110.034 63.9003C110.034 64.5383 109.9 65.0829 109.631 65.5341C109.362 65.9852 108.968 66.3293 108.448 66.5663C107.929 66.7987 107.293 66.9149 106.541 66.9149ZM112.775 64.5839V70.8182H111.511V63.4218H112.741L112.775 64.5839ZM115.086 63.3807L115.079 64.5565C114.974 64.5337 114.874 64.5201 114.778 64.5155C114.687 64.5064 114.582 64.5018 114.464 64.5018C114.172 64.5018 113.915 64.5474 113.691 64.6385C113.468 64.7297 113.279 64.8573 113.124 65.0214C112.969 65.1854 112.846 65.3814 112.755 65.6093C112.668 65.8326 112.611 66.0787 112.584 66.3475L112.229 66.5526C112.229 66.106 112.272 65.6867 112.358 65.2948C112.45 64.9029 112.589 64.5565 112.775 64.2557C112.962 63.9504 113.199 63.7134 113.486 63.5448C113.778 63.3716 114.124 63.285 114.525 63.285C114.617 63.285 114.721 63.2964 114.84 63.3192C114.958 63.3374 115.04 63.358 115.086 63.3807ZM115.783 67.202V67.0448C115.783 66.5116 115.861 66.0171 116.016 65.5614C116.171 65.1011 116.394 64.7024 116.686 64.3651C116.977 64.0233 117.33 63.759 117.745 63.5721C118.16 63.3807 118.625 63.285 119.14 63.285C119.659 63.285 120.126 63.3807 120.541 63.5721C120.96 63.759 121.316 64.0233 121.607 64.3651C121.904 64.7024 122.129 65.1011 122.284 65.5614C122.439 66.0171 122.517 66.5116 122.517 67.0448V67.202C122.517 67.7352 122.439 68.2297 122.284 68.6854C122.129 69.1412 121.904 69.5399 121.607 69.8817C121.316 70.219 120.963 70.4833 120.548 70.6747C120.138 70.8615 119.673 70.955 119.153 70.955C118.634 70.955 118.167 70.8615 117.752 70.6747C117.337 70.4833 116.982 70.219 116.686 69.8817C116.394 69.5399 116.171 69.1412 116.016 68.6854C115.861 68.2297 115.783 67.7352 115.783 67.202ZM117.048 67.0448V67.202C117.048 67.5712 117.091 67.9198 117.178 68.2479C117.264 68.5715 117.394 68.8586 117.567 69.1093C117.745 69.3599 117.966 69.5581 118.23 69.704C118.495 69.8453 118.802 69.9159 119.153 69.9159C119.5 69.9159 119.803 69.8453 120.062 69.704C120.327 69.5581 120.546 69.3599 120.719 69.1093C120.892 68.8586 121.022 68.5715 121.108 68.2479C121.2 67.9198 121.245 67.5712 121.245 67.202V67.0448C121.245 66.6802 121.2 66.3361 121.108 66.0126C121.022 65.6844 120.89 65.3951 120.712 65.1444C120.539 64.8892 120.32 64.6887 120.056 64.5428C119.796 64.397 119.491 64.3241 119.14 64.3241C118.793 64.3241 118.488 64.397 118.224 64.5428C117.964 64.6887 117.745 64.8892 117.567 65.1444C117.394 65.3951 117.264 65.6844 117.178 66.0126C117.091 66.3361 117.048 66.6802 117.048 67.0448ZM126.242 69.6766L128.266 63.4218H129.558L126.898 70.8182H126.051L126.242 69.6766ZM124.554 63.4218L126.639 69.7108L126.782 70.8182H125.935L123.255 63.4218H124.554ZM132.148 63.4218V70.8182H130.877V63.4218H132.148ZM130.781 61.4598C130.781 61.2548 130.843 61.0816 130.966 60.9403C131.093 60.799 131.28 60.7284 131.526 60.7284C131.768 60.7284 131.952 60.799 132.08 60.9403C132.212 61.0816 132.278 61.2548 132.278 61.4598C132.278 61.6558 132.212 61.8244 132.08 61.9657C131.952 62.1024 131.768 62.1708 131.526 62.1708C131.28 62.1708 131.093 62.1024 130.966 61.9657C130.843 61.8244 130.781 61.6558 130.781 61.4598ZM138.841 69.3827V60.3182H140.112V70.8182H138.95L138.841 69.3827ZM133.864 67.202V67.0585C133.864 66.4934 133.933 65.9807 134.069 65.5204C134.211 65.0555 134.409 64.6568 134.664 64.3241C134.924 63.9914 135.231 63.7362 135.587 63.5585C135.947 63.3762 136.348 63.285 136.79 63.285C137.255 63.285 137.66 63.3671 138.007 63.5311C138.358 63.6906 138.654 63.9253 138.896 64.2352C139.142 64.5406 139.335 64.9097 139.477 65.3427C139.618 65.7756 139.716 66.2655 139.771 66.8124V67.4413C139.72 67.9836 139.622 68.4712 139.477 68.9042C139.335 69.3371 139.142 69.7063 138.896 70.0116C138.654 70.3169 138.358 70.5516 138.007 70.7157C137.656 70.8752 137.246 70.955 136.776 70.955C136.343 70.955 135.947 70.8615 135.587 70.6747C135.231 70.4878 134.924 70.2258 134.664 69.8885C134.409 69.5513 134.211 69.1548 134.069 68.6991C133.933 68.2388 133.864 67.7398 133.864 67.202ZM135.136 67.0585V67.202C135.136 67.5712 135.172 67.9175 135.245 68.2411C135.323 68.5647 135.441 68.8495 135.601 69.0956C135.76 69.3417 135.963 69.5354 136.209 69.6766C136.455 69.8134 136.749 69.8817 137.091 69.8817C137.51 69.8817 137.854 69.7928 138.123 69.6151C138.396 69.4374 138.615 69.2027 138.779 68.911C138.943 68.6193 139.071 68.3026 139.162 67.9608V66.3134C139.107 66.0627 139.028 65.8212 138.923 65.5887C138.823 65.3518 138.69 65.1421 138.526 64.9598C138.367 64.773 138.169 64.6249 137.932 64.5155C137.699 64.4061 137.423 64.3514 137.104 64.3514C136.758 64.3514 136.46 64.4244 136.209 64.5702C135.963 64.7115 135.76 64.9074 135.601 65.1581C135.441 65.4042 135.323 65.6913 135.245 66.0194C135.172 66.343 135.136 66.6893 135.136 67.0585ZM145.15 70.955C144.635 70.955 144.168 70.8684 143.749 70.6952C143.334 70.5175 142.977 70.2691 142.676 69.9501C142.38 69.6311 142.152 69.2528 141.992 68.8153C141.833 68.3778 141.753 67.8993 141.753 67.3798V67.0927C141.753 66.4911 141.842 65.9556 142.02 65.4862C142.197 65.0122 142.439 64.6112 142.744 64.2831C143.049 63.955 143.396 63.7066 143.783 63.538C144.171 63.3693 144.572 63.285 144.986 63.285C145.515 63.285 145.971 63.3762 146.354 63.5585C146.741 63.7408 147.058 63.996 147.304 64.3241C147.55 64.6477 147.732 65.0305 147.851 65.4725C147.969 65.91 148.028 66.3885 148.028 66.9081V67.4755H142.505V66.4432H146.764V66.3475C146.745 66.0194 146.677 65.7004 146.559 65.3905C146.445 65.0806 146.262 64.8254 146.012 64.6249C145.761 64.4244 145.419 64.3241 144.986 64.3241C144.699 64.3241 144.435 64.3856 144.193 64.5087C143.952 64.6272 143.744 64.8049 143.571 65.0419C143.398 65.2788 143.264 65.5682 143.168 65.91C143.072 66.2518 143.024 66.646 143.024 67.0927V67.3798C143.024 67.7307 143.072 68.0611 143.168 68.371C143.268 68.6763 143.412 68.9452 143.599 69.1776C143.79 69.41 144.02 69.5923 144.289 69.7245C144.562 69.8566 144.872 69.9227 145.219 69.9227C145.665 69.9227 146.044 69.8316 146.354 69.6493C146.663 69.467 146.935 69.2232 147.167 68.9178L147.933 69.5262C147.773 69.7678 147.57 69.9979 147.324 70.2167C147.078 70.4354 146.775 70.6132 146.415 70.7499C146.06 70.8866 145.638 70.955 145.15 70.955ZM150.77 64.5839V70.8182H149.505V63.4218H150.735L150.77 64.5839ZM153.08 63.3807L153.073 64.5565C152.968 64.5337 152.868 64.5201 152.772 64.5155C152.681 64.5064 152.576 64.5018 152.458 64.5018C152.166 64.5018 151.909 64.5474 151.686 64.6385C151.462 64.7297 151.273 64.8573 151.118 65.0214C150.963 65.1854 150.84 65.3814 150.749 65.6093C150.662 65.8326 150.605 66.0787 150.578 66.3475L150.223 66.5526C150.223 66.106 150.266 65.6867 150.353 65.2948C150.444 64.9029 150.583 64.5565 150.77 64.2557C150.956 63.9504 151.193 63.7134 151.48 63.5448C151.772 63.3716 152.118 63.285 152.52 63.285C152.611 63.285 152.715 63.2964 152.834 63.3192C152.952 63.3374 153.035 63.358 153.08 63.3807Z" fill="#374151"/>
<path d="M327.249 6.09527L372.912 52.2237C375.805 55.1463 375.805 59.8537 372.912 62.7763L327.249 108.905C324.314 111.87 319.524 111.87 316.589 108.905L270.927 62.7763C268.033 59.8537 268.033 55.1463 270.927 52.2237L316.589 6.09526C319.524 3.13034 324.314 3.13035 327.249 6.09527Z" fill="#D1FAE5" stroke="#4B5563"/>
<path d="M298.137 50.9149H295.478V49.8417H298.137C298.652 49.8417 299.069 49.7596 299.388 49.5956C299.707 49.4315 299.939 49.2037 300.085 48.912C300.235 48.6203 300.311 48.2876 300.311 47.9139C300.311 47.5721 300.235 47.2509 300.085 46.9501C299.939 46.6493 299.707 46.4078 299.388 46.2255C299.069 46.0386 298.652 45.9452 298.137 45.9452H295.785V54.8182H294.466V44.8651H298.137C298.889 44.8651 299.524 44.995 300.044 45.2548C300.563 45.5145 300.958 45.8746 301.227 46.3348C301.495 46.7906 301.63 47.3124 301.63 47.9003C301.63 48.5383 301.495 49.0829 301.227 49.5341C300.958 49.9852 300.563 50.3293 300.044 50.5663C299.524 50.7987 298.889 50.9149 298.137 50.9149ZM307.386 53.5536V49.746C307.386 49.4543 307.326 49.2014 307.208 48.9872C307.094 48.7684 306.921 48.5998 306.688 48.4813C306.456 48.3628 306.169 48.3036 305.827 48.3036C305.508 48.3036 305.228 48.3583 304.986 48.4677C304.749 48.577 304.562 48.7206 304.426 48.8983C304.294 49.076 304.228 49.2675 304.228 49.4725H302.963C302.963 49.2082 303.031 48.9462 303.168 48.6864C303.305 48.4266 303.501 48.1919 303.756 47.9823C304.016 47.7681 304.326 47.5995 304.686 47.4764C305.05 47.3488 305.456 47.285 305.902 47.285C306.44 47.285 306.914 47.3762 307.324 47.5585C307.739 47.7408 308.062 48.0165 308.295 48.3856C308.532 48.7502 308.65 49.2082 308.65 49.7596V53.205C308.65 53.451 308.671 53.7131 308.712 53.9911C308.757 54.2691 308.824 54.5083 308.91 54.7089V54.8182H307.591C307.527 54.6724 307.477 54.4787 307.44 54.2372C307.404 53.9911 307.386 53.7632 307.386 53.5536ZM307.604 50.3339L307.618 51.2225H306.34C305.98 51.2225 305.659 51.2522 305.376 51.3114C305.093 51.3661 304.856 51.4504 304.665 51.5643C304.474 51.6783 304.328 51.8218 304.228 51.995C304.127 52.1636 304.077 52.3619 304.077 52.5897C304.077 52.8221 304.13 53.0341 304.234 53.2255C304.339 53.4169 304.496 53.5695 304.706 53.6835C304.92 53.7928 305.182 53.8475 305.492 53.8475C305.88 53.8475 306.221 53.7655 306.518 53.6014C306.814 53.4374 307.048 53.2369 307.222 52.9999C307.399 52.7629 307.495 52.5328 307.509 52.3094L308.049 52.9178C308.017 53.1093 307.93 53.3212 307.789 53.5536C307.648 53.786 307.459 54.0093 307.222 54.2235C306.989 54.4331 306.711 54.6086 306.388 54.7499C306.069 54.8866 305.709 54.955 305.308 54.955C304.806 54.955 304.367 54.857 303.988 54.661C303.615 54.465 303.323 54.203 303.113 53.8749C302.908 53.5422 302.806 53.1708 302.806 52.7606C302.806 52.3641 302.883 52.0155 303.038 51.7147C303.193 51.4094 303.416 51.1565 303.708 50.9559C304 50.7509 304.351 50.5959 304.761 50.4911C305.171 50.3863 305.629 50.3339 306.135 50.3339H307.604ZM312.608 54.0526L314.666 47.4218H316.02L313.053 55.9598C312.984 56.1421 312.893 56.3381 312.779 56.5477C312.67 56.7619 312.529 56.9647 312.355 57.1561C312.182 57.3475 311.973 57.5025 311.727 57.621C311.485 57.744 311.196 57.8055 310.858 57.8055C310.758 57.8055 310.631 57.7919 310.476 57.7645C310.321 57.7372 310.211 57.7144 310.147 57.6962L310.141 56.6708C310.177 56.6753 310.234 56.6799 310.312 56.6844C310.394 56.6936 310.451 56.6981 310.482 56.6981C310.77 56.6981 311.013 56.6594 311.214 56.5819C311.414 56.509 311.583 56.3837 311.72 56.2059C311.861 56.0328 311.982 55.7935 312.082 55.4882L312.608 54.0526ZM311.098 47.4218L313.019 53.1639L313.347 54.4969L312.437 54.9618L309.717 47.4218H311.098ZM318.419 48.8915V54.8182H317.147V47.4218H318.351L318.419 48.8915ZM318.159 50.8397L317.571 50.8192C317.576 50.3134 317.642 49.8462 317.77 49.4178C317.897 48.9849 318.086 48.6089 318.337 48.2899C318.588 47.9709 318.9 47.7248 319.273 47.5516C319.647 47.3739 320.08 47.285 320.572 47.285C320.919 47.285 321.238 47.3352 321.529 47.4354C321.821 47.5311 322.074 47.6838 322.288 47.8934C322.502 48.1031 322.669 48.3719 322.787 48.7001C322.906 49.0282 322.965 49.4247 322.965 49.8895V54.8182H321.7V49.951C321.7 49.5637 321.634 49.2538 321.502 49.0214C321.374 48.7889 321.192 48.6203 320.955 48.5155C320.718 48.4061 320.44 48.3514 320.121 48.3514C319.747 48.3514 319.435 48.4175 319.185 48.5497C318.934 48.6818 318.733 48.8641 318.583 49.0966C318.433 49.329 318.323 49.5956 318.255 49.8964C318.191 50.1926 318.159 50.507 318.159 50.8397ZM322.951 50.1425L322.104 50.4022C322.108 49.9966 322.174 49.607 322.302 49.2333C322.434 48.8596 322.623 48.5269 322.869 48.2352C323.12 47.9436 323.427 47.7134 323.792 47.5448C324.157 47.3716 324.574 47.285 325.043 47.285C325.439 47.285 325.79 47.3374 326.096 47.4423C326.406 47.5471 326.665 47.7089 326.875 47.9276C327.089 48.1418 327.251 48.4175 327.36 48.7548C327.47 49.092 327.524 49.493 327.524 49.9579V54.8182H326.253V49.9442C326.253 49.5295 326.187 49.2082 326.055 48.9803C325.927 48.7479 325.745 48.5861 325.508 48.495C325.275 48.3993 324.997 48.3514 324.674 48.3514C324.396 48.3514 324.15 48.3993 323.936 48.495C323.721 48.5907 323.541 48.7229 323.396 48.8915C323.25 49.0555 323.138 49.2447 323.061 49.4589C322.988 49.6731 322.951 49.9009 322.951 50.1425ZM332.508 54.955C331.993 54.955 331.526 54.8684 331.106 54.6952C330.692 54.5175 330.334 54.2691 330.033 53.9501C329.737 53.6311 329.509 53.2528 329.35 52.8153C329.19 52.3778 329.11 51.8993 329.11 51.3798V51.0927C329.11 50.4911 329.199 49.9556 329.377 49.4862C329.555 49.0122 329.796 48.6112 330.102 48.2831C330.407 47.955 330.753 47.7066 331.141 47.538C331.528 47.3693 331.929 47.285 332.344 47.285C332.872 47.285 333.328 47.3762 333.711 47.5585C334.098 47.7408 334.415 47.996 334.661 48.3241C334.907 48.6477 335.09 49.0305 335.208 49.4725C335.326 49.91 335.386 50.3885 335.386 50.9081V51.4755H329.862V50.4432H334.121V50.3475C334.103 50.0194 334.035 49.7004 333.916 49.3905C333.802 49.0806 333.62 48.8254 333.369 48.6249C333.118 48.4244 332.777 48.3241 332.344 48.3241C332.057 48.3241 331.792 48.3856 331.551 48.5087C331.309 48.6272 331.102 48.8049 330.929 49.0419C330.756 49.2788 330.621 49.5682 330.525 49.91C330.43 50.2518 330.382 50.646 330.382 51.0927V51.3798C330.382 51.7307 330.43 52.0611 330.525 52.371C330.626 52.6763 330.769 52.9452 330.956 53.1776C331.147 53.41 331.378 53.5923 331.646 53.7245C331.92 53.8566 332.23 53.9227 332.576 53.9227C333.023 53.9227 333.401 53.8316 333.711 53.6493C334.021 53.467 334.292 53.2232 334.524 52.9178L335.29 53.5262C335.131 53.7678 334.928 53.9979 334.682 54.2167C334.436 54.4354 334.132 54.6132 333.772 54.7499C333.417 54.8866 332.995 54.955 332.508 54.955ZM338.127 49.0009V54.8182H336.862V47.4218H338.059L338.127 49.0009ZM337.826 50.8397L337.3 50.8192C337.304 50.3134 337.38 49.8462 337.525 49.4178C337.671 48.9849 337.876 48.6089 338.141 48.2899C338.405 47.9709 338.719 47.7248 339.084 47.5516C339.453 47.3739 339.861 47.285 340.308 47.285C340.672 47.285 341 47.3352 341.292 47.4354C341.584 47.5311 341.832 47.6861 342.037 47.9003C342.247 48.1145 342.406 48.3925 342.516 48.7343C342.625 49.0715 342.68 49.4839 342.68 49.9716V54.8182H341.408V49.9579C341.408 49.5705 341.351 49.2606 341.237 49.0282C341.123 48.7912 340.957 48.6203 340.738 48.5155C340.52 48.4061 340.251 48.3514 339.932 48.3514C339.617 48.3514 339.33 48.4175 339.07 48.5497C338.815 48.6818 338.594 48.8641 338.407 49.0966C338.225 49.329 338.081 49.5956 337.977 49.8964C337.876 50.1926 337.826 50.507 337.826 50.8397ZM347.697 47.4218V48.3925H343.698V47.4218H347.697ZM345.052 45.6239H346.316V52.9862C346.316 53.2369 346.355 53.426 346.433 53.5536C346.51 53.6812 346.61 53.7655 346.733 53.8065C346.856 53.8475 346.989 53.868 347.13 53.868C347.235 53.868 347.344 53.8589 347.458 53.8407C347.576 53.8179 347.665 53.7997 347.725 53.786L347.731 54.8182C347.631 54.8501 347.499 54.8798 347.335 54.9071C347.175 54.939 346.982 54.955 346.754 54.955C346.444 54.955 346.159 54.8934 345.899 54.7704C345.64 54.6473 345.432 54.4423 345.277 54.1552C345.127 53.8635 345.052 53.4716 345.052 52.9794V45.6239ZM304.098 65.8622V69.5057C303.975 69.688 303.779 69.8931 303.51 70.121C303.241 70.3443 302.869 70.5402 302.396 70.7089C301.926 70.8729 301.32 70.955 300.577 70.955C299.971 70.955 299.413 70.8501 298.902 70.6405C298.396 70.4263 297.957 70.1164 297.583 69.7108C297.214 69.3007 296.927 68.8039 296.722 68.2206C296.521 67.6327 296.421 66.9673 296.421 66.2245V65.452C296.421 64.7092 296.507 64.0461 296.681 63.4628C296.858 62.8794 297.118 62.385 297.46 61.9794C297.802 61.5692 298.221 61.2593 298.718 61.0497C299.215 60.8355 299.784 60.7284 300.427 60.7284C301.188 60.7284 301.824 60.8606 302.334 61.1249C302.849 61.3846 303.25 61.7447 303.537 62.205C303.829 62.6652 304.016 63.1893 304.098 63.7772H302.778C302.719 63.4172 302.601 63.0891 302.423 62.7928C302.25 62.4966 302.001 62.2596 301.678 62.0819C301.354 61.8996 300.937 61.8085 300.427 61.8085C299.966 61.8085 299.568 61.8928 299.23 62.0614C298.893 62.23 298.615 62.4716 298.396 62.786C298.178 63.1005 298.014 63.481 297.904 63.9276C297.799 64.3742 297.747 64.8778 297.747 65.4384V66.2245C297.747 66.7987 297.813 67.3114 297.945 67.7626C298.082 68.2137 298.276 68.5988 298.526 68.9178C298.777 69.2323 299.076 69.4716 299.422 69.6356C299.773 69.7997 300.16 69.8817 300.584 69.8817C301.053 69.8817 301.434 69.843 301.726 69.7655C302.017 69.6835 302.245 69.5878 302.409 69.4784C302.573 69.3645 302.699 69.2574 302.785 69.1571V66.9286H300.481V65.8622H304.098ZM310.455 69.5536V65.746C310.455 65.4543 310.396 65.2014 310.277 64.9872C310.163 64.7684 309.99 64.5998 309.758 64.4813C309.525 64.3628 309.238 64.3036 308.896 64.3036C308.577 64.3036 308.297 64.3583 308.056 64.4677C307.819 64.577 307.632 64.7206 307.495 64.8983C307.363 65.076 307.297 65.2675 307.297 65.4725H306.032C306.032 65.2082 306.101 64.9462 306.237 64.6864C306.374 64.4266 306.57 64.1919 306.825 63.9823C307.085 63.7681 307.395 63.5995 307.755 63.4764C308.119 63.3488 308.525 63.285 308.972 63.285C309.509 63.285 309.983 63.3762 310.394 63.5585C310.808 63.7408 311.132 64.0165 311.364 64.3856C311.601 64.7502 311.72 65.2082 311.72 65.7596V69.205C311.72 69.451 311.74 69.7131 311.781 69.9911C311.827 70.2691 311.893 70.5083 311.979 70.7089V70.8182H310.66C310.596 70.6724 310.546 70.4787 310.51 70.2372C310.473 69.9911 310.455 69.7632 310.455 69.5536ZM310.674 66.3339L310.687 67.2225H309.409C309.049 67.2225 308.728 67.2522 308.445 67.3114C308.163 67.3661 307.926 67.4504 307.734 67.5643C307.543 67.6783 307.397 67.8218 307.297 67.995C307.197 68.1636 307.146 68.3619 307.146 68.5897C307.146 68.8221 307.199 69.0341 307.304 69.2255C307.409 69.4169 307.566 69.5695 307.775 69.6835C307.99 69.7928 308.252 69.8475 308.562 69.8475C308.949 69.8475 309.291 69.7655 309.587 69.6014C309.883 69.4374 310.118 69.2369 310.291 68.9999C310.469 68.7629 310.564 68.5328 310.578 68.3094L311.118 68.9178C311.086 69.1093 311 69.3212 310.858 69.5536C310.717 69.786 310.528 70.0093 310.291 70.2235C310.059 70.4331 309.781 70.6086 309.457 70.7499C309.138 70.8866 308.778 70.955 308.377 70.955C307.876 70.955 307.436 70.857 307.058 70.661C306.684 70.465 306.392 70.203 306.183 69.8749C305.978 69.5422 305.875 69.1708 305.875 68.7606C305.875 68.3641 305.952 68.0155 306.107 67.7147C306.262 67.4094 306.486 67.1565 306.777 66.9559C307.069 66.7509 307.42 66.5959 307.83 66.4911C308.24 66.3863 308.698 66.3339 309.204 66.3339H310.674ZM316.806 63.4218V64.3925H312.807V63.4218H316.806ZM314.16 61.6239H315.425V68.9862C315.425 69.2369 315.464 69.426 315.541 69.5536C315.618 69.6812 315.719 69.7655 315.842 69.8065C315.965 69.8475 316.097 69.868 316.238 69.868C316.343 69.868 316.452 69.8589 316.566 69.8407C316.685 69.8179 316.774 69.7997 316.833 69.786L316.84 70.8182C316.74 70.8501 316.607 70.8798 316.443 70.9071C316.284 70.939 316.09 70.955 315.862 70.955C315.552 70.955 315.268 70.8934 315.008 70.7704C314.748 70.6473 314.541 70.4423 314.386 70.1552C314.235 69.8635 314.16 69.4716 314.16 68.9794V61.6239ZM321.358 70.955C320.843 70.955 320.376 70.8684 319.957 70.6952C319.542 70.5175 319.185 70.2691 318.884 69.9501C318.588 69.6311 318.36 69.2528 318.2 68.8153C318.041 68.3778 317.961 67.8993 317.961 67.3798V67.0927C317.961 66.4911 318.05 65.9556 318.228 65.4862C318.405 65.0122 318.647 64.6112 318.952 64.2831C319.257 63.955 319.604 63.7066 319.991 63.538C320.379 63.3693 320.78 63.285 321.194 63.285C321.723 63.285 322.179 63.3762 322.562 63.5585C322.949 63.7408 323.266 63.996 323.512 64.3241C323.758 64.6477 323.94 65.0305 324.059 65.4725C324.177 65.91 324.236 66.3885 324.236 66.9081V67.4755H318.713V66.4432H322.972V66.3475C322.953 66.0194 322.885 65.7004 322.767 65.3905C322.653 65.0806 322.47 64.8254 322.22 64.6249C321.969 64.4244 321.627 64.3241 321.194 64.3241C320.907 64.3241 320.643 64.3856 320.401 64.5087C320.16 64.6272 319.952 64.8049 319.779 65.0419C319.606 65.2788 319.472 65.5682 319.376 65.91C319.28 66.2518 319.232 66.646 319.232 67.0927V67.3798C319.232 67.7307 319.28 68.0611 319.376 68.371C319.476 68.6763 319.62 68.9452 319.807 69.1776C319.998 69.41 320.228 69.5923 320.497 69.7245C320.771 69.8566 321.08 69.9227 321.427 69.9227C321.873 69.9227 322.252 69.8316 322.562 69.6493C322.871 69.467 323.143 69.2232 323.375 68.9178L324.141 69.5262C323.981 69.7678 323.778 69.9979 323.532 70.2167C323.286 70.4354 322.983 70.6132 322.623 70.7499C322.268 70.8866 321.846 70.955 321.358 70.955ZM327.586 69.5057L329.486 63.4218H330.32L330.156 64.6317L328.222 70.8182H327.408L327.586 69.5057ZM326.308 63.4218L327.928 69.5741L328.044 70.8182H327.189L325.043 63.4218H326.308ZM332.139 69.5262L333.684 63.4218H334.941L332.795 70.8182H331.947L332.139 69.5262ZM330.505 63.4218L332.364 69.4032L332.576 70.8182H331.77L329.78 64.618L329.616 63.4218H330.505ZM340.602 69.5536V65.746C340.602 65.4543 340.542 65.2014 340.424 64.9872C340.31 64.7684 340.137 64.5998 339.904 64.4813C339.672 64.3628 339.385 64.3036 339.043 64.3036C338.724 64.3036 338.444 64.3583 338.202 64.4677C337.965 64.577 337.778 64.7206 337.642 64.8983C337.509 65.076 337.443 65.2675 337.443 65.4725H336.179C336.179 65.2082 336.247 64.9462 336.384 64.6864C336.521 64.4266 336.716 64.1919 336.972 63.9823C337.231 63.7681 337.541 63.5995 337.901 63.4764C338.266 63.3488 338.672 63.285 339.118 63.285C339.656 63.285 340.13 63.3762 340.54 63.5585C340.955 63.7408 341.278 64.0165 341.511 64.3856C341.748 64.7502 341.866 65.2082 341.866 65.7596V69.205C341.866 69.451 341.887 69.7131 341.928 69.9911C341.973 70.2691 342.039 70.5083 342.126 70.7089V70.8182H340.807C340.743 70.6724 340.693 70.4787 340.656 70.2372C340.62 69.9911 340.602 69.7632 340.602 69.5536ZM340.82 66.3339L340.834 67.2225H339.556C339.196 67.2225 338.874 67.2522 338.592 67.3114C338.309 67.3661 338.072 67.4504 337.881 67.5643C337.689 67.6783 337.544 67.8218 337.443 67.995C337.343 68.1636 337.293 68.3619 337.293 68.5897C337.293 68.8221 337.345 69.0341 337.45 69.2255C337.555 69.4169 337.712 69.5695 337.922 69.6835C338.136 69.7928 338.398 69.8475 338.708 69.8475C339.095 69.8475 339.437 69.7655 339.733 69.6014C340.03 69.4374 340.264 69.2369 340.437 68.9999C340.615 68.7629 340.711 68.5328 340.725 68.3094L341.265 68.9178C341.233 69.1093 341.146 69.3212 341.005 69.5536C340.864 69.786 340.674 70.0093 340.437 70.2235C340.205 70.4331 339.927 70.6086 339.604 70.7499C339.285 70.8866 338.924 70.955 338.523 70.955C338.022 70.955 337.582 70.857 337.204 70.661C336.83 70.465 336.539 70.203 336.329 69.8749C336.124 69.5422 336.021 69.1708 336.021 68.7606C336.021 68.3641 336.099 68.0155 336.254 67.7147C336.409 67.4094 336.632 67.1565 336.924 66.9559C337.215 66.7509 337.566 66.5959 337.977 66.4911C338.387 66.3863 338.845 66.3339 339.351 66.3339H340.82ZM345.824 70.0526L347.882 63.4218H349.235L346.269 71.9598C346.2 72.1421 346.109 72.3381 345.995 72.5477C345.886 72.7619 345.744 72.9647 345.571 73.1561C345.398 73.3475 345.188 73.5025 344.942 73.621C344.701 73.744 344.411 73.8055 344.074 73.8055C343.974 73.8055 343.846 73.7919 343.691 73.7645C343.536 73.7372 343.427 73.7144 343.363 73.6962L343.356 72.6708C343.393 72.6753 343.45 72.6799 343.527 72.6844C343.609 72.6936 343.666 72.6981 343.698 72.6981C343.985 72.6981 344.229 72.6594 344.43 72.5819C344.63 72.509 344.799 72.3837 344.936 72.2059C345.077 72.0328 345.198 71.7935 345.298 71.4882L345.824 70.0526ZM344.313 63.4218L346.234 69.1639L346.562 70.4969L345.653 70.9618L342.933 63.4218H344.313Z" fill="#374151"/>
<defs>
<clipPath id="clip0_3196_40334">
<rect x="21" y="201" width="406" height="177" rx="8" fill="white"/>
</clipPath>
<clipPath id="clip1_3196_40334">
<rect x="21" y="418" width="406" height="50" rx="8" fill="white"/>
</clipPath>
</defs>
</svg>
