<svg width="611" height="190" viewBox="0 0 611 190" fill="none" xmlns="http://www.w3.org/2000/svg">
<rect x="0.5" y="98.5" width="1" height="600.271" transform="rotate(-90 0.5 98.5)" fill="#D1D5DB" stroke="#6B7280"/>
<path d="M611 98L601 92.2265V103.774L611 98ZM592.514 99H602V97H592.514V99Z" fill="#6B7280"/>
<path d="M412.517 32.998V189.001" stroke="#E44C3A" stroke-width="2" stroke-dasharray="6 6"/>
<rect width="177" height="22" transform="translate(65 77)" fill="#A2CAE2"/>
<path d="M134.616 85.1406V83.8182H142.496V85.1406H139.32V94H137.788V85.1406H134.616ZM144.238 94V83.8182H147.867C148.656 83.8182 149.31 83.9541 149.831 84.2259C150.354 84.4976 150.746 84.8738 151.004 85.3544C151.263 85.8317 151.392 86.3835 151.392 87.0099C151.392 87.633 151.261 88.1816 150.999 88.6555C150.741 89.1262 150.349 89.4924 149.826 89.7543C149.305 90.0161 148.651 90.147 147.862 90.147H145.113V88.8246H147.723C148.22 88.8246 148.624 88.7533 148.936 88.6108C149.251 88.4683 149.481 88.2611 149.627 87.9893C149.773 87.7176 149.846 87.3911 149.846 87.0099C149.846 86.6255 149.771 86.2924 149.622 86.0107C149.476 85.7289 149.246 85.5135 148.931 85.3643C148.619 85.2119 148.21 85.1357 147.703 85.1357H145.774V94H144.238ZM149.264 89.4062L151.78 94H150.03L147.564 89.4062H149.264ZM154.797 83.8182V94H153.261V83.8182H154.797ZM157.895 94H156.264L159.928 83.8182H161.703L165.367 94H163.736L160.858 85.6676H160.778L157.895 94ZM158.168 90.0128H163.458V91.3054H158.168V90.0128ZM166.837 94V83.8182H168.374V92.6776H172.987V94H166.837Z" fill="#167BB7"/>
<rect width="85" height="22" transform="translate(411 129)" fill="#A2CAE2"/>
<path d="M433.616 137.141V135.818H441.496V137.141H438.32V146H436.788V137.141H433.616ZM443.238 146V135.818H446.867C447.656 135.818 448.31 135.954 448.831 136.226C449.354 136.498 449.746 136.874 450.004 137.354C450.263 137.832 450.392 138.384 450.392 139.01C450.392 139.633 450.261 140.182 449.999 140.656C449.741 141.126 449.349 141.492 448.826 141.754C448.305 142.016 447.651 142.147 446.862 142.147H444.113V140.825H446.723C447.22 140.825 447.624 140.753 447.936 140.611C448.251 140.468 448.481 140.261 448.627 139.989C448.773 139.718 448.846 139.391 448.846 139.01C448.846 138.625 448.771 138.292 448.622 138.011C448.476 137.729 448.246 137.513 447.931 137.364C447.619 137.212 447.21 137.136 446.703 137.136H444.774V146H443.238ZM448.264 141.406L450.78 146H449.03L446.564 141.406H448.264ZM453.797 135.818V146H452.261V135.818H453.797ZM456.895 146H455.264L458.928 135.818H460.703L464.367 146H462.736L459.858 137.668H459.778L456.895 146ZM457.168 142.013H462.458V143.305H457.168V142.013ZM465.837 146V135.818H467.374V144.678H471.987V146H465.837Z" fill="#167BB7"/>
<rect width="261" height="22" transform="translate(241 77)" fill="#10B981"/>
<path d="M331.119 94V83.8182H337.502V85.1406H332.655V88.2429H337.169V89.5604H332.655V92.6776H337.562V94H331.119ZM340.444 83.8182L343.278 92.1108H343.392L346.226 83.8182H347.887L344.222 94H342.448L338.784 83.8182H340.444ZM349.357 94V83.8182H355.74V85.1406H350.893V88.2429H355.407V89.5604H350.893V92.6776H355.8V94H349.357ZM357.792 94V83.8182H361.422C362.211 83.8182 362.865 83.9541 363.385 84.2259C363.909 84.4976 364.3 84.8738 364.559 85.3544C364.817 85.8317 364.947 86.3835 364.947 87.0099C364.947 87.633 364.816 88.1816 364.554 88.6555C364.295 89.1262 363.904 89.4924 363.381 89.7543C362.86 90.0161 362.206 90.147 361.417 90.147H358.667V88.8246H361.278C361.775 88.8246 362.179 88.7533 362.491 88.6108C362.805 88.4683 363.036 88.2611 363.182 87.9893C363.327 87.7176 363.4 87.3911 363.4 87.0099C363.4 86.6255 363.326 86.2924 363.177 86.0107C363.031 85.7289 362.8 85.5135 362.486 85.3643C362.174 85.2119 361.765 85.1357 361.258 85.1357H359.329V94H357.792ZM362.819 89.4062L365.334 94H363.584L361.118 89.4062H362.819ZM373.706 87.0348C373.61 86.7332 373.481 86.4631 373.319 86.2244C373.16 85.9825 372.969 85.777 372.747 85.608C372.525 85.4356 372.271 85.3047 371.986 85.2152C371.705 85.1257 371.395 85.081 371.057 85.081C370.483 85.081 369.966 85.2285 369.506 85.5234C369.045 85.8184 368.68 86.2509 368.412 86.821C368.147 87.3878 368.014 88.0821 368.014 88.9041C368.014 89.7294 368.148 90.4271 368.417 90.9972C368.685 91.5672 369.053 91.9998 369.52 92.2947C369.988 92.5897 370.52 92.7372 371.116 92.7372C371.67 92.7372 372.152 92.6245 372.563 92.3991C372.977 92.1738 373.297 91.8556 373.523 91.4446C373.751 91.0303 373.866 90.5431 373.866 89.983L374.263 90.0575H371.35V88.7898H375.352V89.9482C375.352 90.8033 375.17 91.5457 374.805 92.1754C374.444 92.8018 373.943 93.2857 373.304 93.6271C372.667 93.9685 371.938 94.1392 371.116 94.1392C370.195 94.1392 369.386 93.9271 368.69 93.5028C367.997 93.0786 367.457 92.477 367.069 91.6982C366.682 90.916 366.488 89.9879 366.488 88.9141C366.488 88.102 366.6 87.3729 366.826 86.7266C367.051 86.0803 367.368 85.5317 367.775 85.081C368.186 84.6269 368.669 84.2805 369.222 84.0419C369.779 83.8 370.387 83.679 371.047 83.679C371.597 83.679 372.109 83.7602 372.583 83.9226C373.06 84.085 373.484 84.3153 373.856 84.6136C374.23 84.9119 374.54 85.2666 374.785 85.6776C375.031 86.0852 375.196 86.5376 375.282 87.0348H373.706ZM377.302 94V83.8182H380.931C381.72 83.8182 382.375 83.9541 382.895 84.2259C383.419 84.4976 383.81 84.8738 384.069 85.3544C384.327 85.8317 384.456 86.3835 384.456 87.0099C384.456 87.633 384.325 88.1816 384.064 88.6555C383.805 89.1262 383.414 89.4924 382.89 89.7543C382.37 90.0161 381.715 90.147 380.926 90.147H378.177V88.8246H380.787C381.284 88.8246 381.689 88.7533 382 88.6108C382.315 88.4683 382.546 88.2611 382.691 87.9893C382.837 87.7176 382.91 87.3911 382.91 87.0099C382.91 86.6255 382.836 86.2924 382.686 86.0107C382.541 85.7289 382.31 85.5135 381.995 85.3643C381.684 85.2119 381.275 85.1357 380.767 85.1357H378.838V94H377.302ZM382.328 89.4062L384.844 94H383.094L380.628 89.4062H382.328ZM386.326 94V83.8182H392.709V85.1406H387.862V88.2429H392.376V89.5604H387.862V92.6776H392.769V94H386.326ZM394.761 94V83.8182H401.145V85.1406H396.297V88.2429H400.812V89.5604H396.297V92.6776H401.204V94H394.761ZM411.415 83.8182V94H410.003L404.827 86.5327H404.733V94H403.197V83.8182H404.619L409.799 91.2955H409.893V83.8182H411.415Z" fill="#ECFDF5"/>
<rect width="115" height="22" transform="translate(496 129)" fill="#10B981"/>
<path d="M513.119 146V135.818H519.433V137.141H514.655V140.243H518.98V141.56H514.655V146H513.119ZM522.858 135.818V146H521.322V135.818H522.858ZM526.164 135.818L528.6 139.8H528.68L531.116 135.818H532.896L529.724 140.909L532.915 146H531.126L528.68 142.072H528.6L526.154 146H524.364L527.611 140.909L524.384 135.818H526.164ZM534.419 146V135.818H540.803V137.141H535.956V140.243H540.47V141.56H535.956V144.678H540.863V146H534.419ZM546.151 146H542.855V135.818H546.256C547.253 135.818 548.11 136.022 548.826 136.43C549.542 136.834 550.09 137.416 550.471 138.175C550.856 138.93 551.048 139.837 551.048 140.894C551.048 141.955 550.854 142.866 550.466 143.629C550.082 144.391 549.525 144.978 548.796 145.388C548.067 145.796 547.185 146 546.151 146ZM544.391 144.658H546.067C546.842 144.658 547.487 144.512 548.001 144.22C548.514 143.925 548.899 143.499 549.154 142.942C549.409 142.382 549.537 141.7 549.537 140.894C549.537 140.095 549.409 139.418 549.154 138.861C548.902 138.304 548.526 137.881 548.025 137.593C547.525 137.305 546.903 137.161 546.161 137.161H544.391V144.658ZM552.019 137.141V135.818H559.899V137.141H556.722V146H555.191V137.141H552.019ZM561.64 146V135.818H568.024V137.141H563.176V140.243H567.691V141.56H563.176V144.678H568.083V146H561.64ZM570.076 146V135.818H573.705C574.494 135.818 575.148 135.954 575.669 136.226C576.192 136.498 576.583 136.874 576.842 137.354C577.1 137.832 577.23 138.384 577.23 139.01C577.23 139.633 577.099 140.182 576.837 140.656C576.578 141.126 576.187 141.492 575.664 141.754C575.143 142.016 574.489 142.147 573.7 142.147H570.951V140.825H573.561C574.058 140.825 574.462 140.753 574.774 140.611C575.089 140.468 575.319 140.261 575.465 139.989C575.611 139.718 575.684 139.391 575.684 139.01C575.684 138.625 575.609 138.292 575.46 138.011C575.314 137.729 575.084 137.513 574.769 137.364C574.457 137.212 574.048 137.136 573.541 137.136H571.612V146H570.076ZM575.102 141.406L577.618 146H575.868L573.402 141.406H575.102ZM579.099 135.818H580.963L584.205 143.733H584.324L587.566 135.818H589.43V146H587.968V138.632H587.874L584.871 145.985H583.658L580.655 138.627H580.561V146H579.099V135.818Z" fill="#ECFDF5"/>
<path d="M241 36V189" stroke="#6B7280" stroke-dasharray="4 4"/>
<mask id="path-9-inside-1_3307_74941" fill="white">
<path d="M240 1C240 0.447716 240.448 0 241 0H373C373.552 0 374 0.447715 374 1V28C374 28.5523 373.552 29 373 29H241C240.448 29 240 28.5523 240 28V1Z"/>
</mask>
<path d="M240 1C240 0.447716 240.448 0 241 0H373C373.552 0 374 0.447715 374 1V28C374 28.5523 373.552 29 373 29H241C240.448 29 240 28.5523 240 28V1Z" fill="#E8F2F8"/>
<path d="M254.801 12.3636C254.741 11.8598 254.5 11.4688 254.075 11.1903C253.651 10.9119 253.131 10.7727 252.514 10.7727C252.063 10.7727 251.669 10.8456 251.331 10.9915C250.996 11.1373 250.734 11.3378 250.545 11.593C250.36 11.8482 250.267 12.1383 250.267 12.4631C250.267 12.7348 250.332 12.9685 250.461 13.1641C250.594 13.3563 250.763 13.517 250.968 13.6463C251.174 13.7723 251.389 13.8767 251.614 13.9595C251.84 14.0391 252.047 14.1037 252.236 14.1534L253.27 14.4318C253.535 14.5014 253.83 14.5975 254.155 14.7202C254.483 14.8428 254.796 15.0102 255.094 15.2223C255.396 15.4311 255.645 15.6996 255.84 16.0277C256.036 16.3558 256.134 16.7585 256.134 17.2358C256.134 17.786 255.989 18.2831 255.701 18.7273C255.416 19.1714 254.998 19.5244 254.448 19.7862C253.901 20.0481 253.237 20.179 252.455 20.179C251.725 20.179 251.094 20.0613 250.56 19.826C250.03 19.5907 249.612 19.2625 249.308 18.8416C249.006 18.4207 248.835 17.9318 248.795 17.375H250.068C250.101 17.7595 250.231 18.0777 250.456 18.3295C250.685 18.5781 250.973 18.7637 251.321 18.8864C251.672 19.0057 252.05 19.0653 252.455 19.0653C252.925 19.0653 253.348 18.9891 253.722 18.8366C254.097 18.6809 254.393 18.4654 254.612 18.1903C254.831 17.9119 254.94 17.5871 254.94 17.2159C254.94 16.8778 254.846 16.6027 254.657 16.3906C254.468 16.1785 254.219 16.0062 253.911 15.8736C253.603 15.741 253.27 15.625 252.912 15.5256L251.659 15.1676C250.864 14.9389 250.234 14.6125 249.77 14.1882C249.306 13.764 249.074 13.2088 249.074 12.5227C249.074 11.9527 249.228 11.4555 249.536 11.0312C249.848 10.6037 250.265 10.2723 250.789 10.0369C251.316 9.7983 251.904 9.67898 252.554 9.67898C253.21 9.67898 253.794 9.79664 254.304 10.032C254.814 10.264 255.219 10.5821 255.517 10.9865C255.819 11.3909 255.978 11.8499 255.994 12.3636H254.801ZM262.814 16.8778V12.3636H263.987V20H262.814V18.7074H262.735C262.556 19.0952 262.277 19.425 261.899 19.6967C261.521 19.9652 261.044 20.0994 260.468 20.0994C259.99 20.0994 259.566 19.995 259.195 19.7862C258.824 19.5741 258.532 19.2559 258.32 18.8317C258.108 18.4041 258.002 17.8655 258.002 17.2159V12.3636H259.175V17.1364C259.175 17.6932 259.331 18.1373 259.642 18.4688C259.957 18.8002 260.358 18.9659 260.845 18.9659C261.137 18.9659 261.434 18.8913 261.735 18.7422C262.04 18.593 262.295 18.3643 262.501 18.0561C262.71 17.7479 262.814 17.3551 262.814 16.8778ZM266.295 20V9.81818H267.469V13.5767H267.568C267.654 13.4441 267.774 13.2751 267.926 13.0696C268.082 12.8608 268.304 12.6752 268.592 12.5128C268.884 12.3471 269.278 12.2642 269.776 12.2642C270.419 12.2642 270.985 12.425 271.476 12.7464C271.966 13.0679 272.349 13.5237 272.624 14.1136C272.899 14.7036 273.037 15.3996 273.037 16.2017C273.037 17.0104 272.899 17.7114 272.624 18.3047C272.349 18.8946 271.968 19.352 271.481 19.6768C270.994 19.9983 270.432 20.1591 269.795 20.1591C269.305 20.1591 268.912 20.0779 268.617 19.9155C268.322 19.7498 268.095 19.5625 267.936 19.3537C267.777 19.1416 267.654 18.9659 267.568 18.8267H267.429V20H266.295ZM267.449 16.1818C267.449 16.7585 267.533 17.2673 267.702 17.7081C267.871 18.1456 268.118 18.4886 268.443 18.7372C268.768 18.9825 269.166 19.1051 269.636 19.1051C270.127 19.1051 270.536 18.9759 270.864 18.7173C271.196 18.4555 271.444 18.1042 271.61 17.6634C271.779 17.2192 271.864 16.7254 271.864 16.1818C271.864 15.6449 271.781 15.161 271.615 14.7301C271.453 14.2959 271.206 13.9529 270.874 13.701C270.546 13.4458 270.134 13.3182 269.636 13.3182C269.159 13.3182 268.758 13.4392 268.433 13.6811C268.108 13.9197 267.863 14.2545 267.697 14.6854C267.532 15.1129 267.449 15.6117 267.449 16.1818ZM280.241 14.0739L279.187 14.3722C279.121 14.1965 279.023 14.0258 278.893 13.8601C278.768 13.6911 278.595 13.5518 278.376 13.4425C278.158 13.3331 277.878 13.2784 277.536 13.2784C277.069 13.2784 276.679 13.3861 276.368 13.6016C276.06 13.8137 275.906 14.0838 275.906 14.4119C275.906 14.7036 276.012 14.9339 276.224 15.103C276.436 15.272 276.767 15.4129 277.218 15.5256L278.352 15.804C279.034 15.9697 279.543 16.2232 279.878 16.5646C280.213 16.9027 280.38 17.3385 280.38 17.8722C280.38 18.3097 280.254 18.7008 280.002 19.0455C279.754 19.3902 279.406 19.6619 278.958 19.8608C278.511 20.0597 277.99 20.1591 277.397 20.1591C276.618 20.1591 275.973 19.9901 275.463 19.652C274.953 19.3139 274.629 18.8201 274.494 18.1705L275.607 17.892C275.713 18.303 275.914 18.6113 276.209 18.8168C276.507 19.0223 276.897 19.125 277.377 19.125C277.924 19.125 278.358 19.009 278.68 18.777C279.004 18.5417 279.167 18.2599 279.167 17.9318C279.167 17.6667 279.074 17.4446 278.888 17.2656C278.703 17.0833 278.418 16.9474 278.033 16.858L276.761 16.5597C276.061 16.3939 275.548 16.1371 275.219 15.7891C274.895 15.4377 274.732 14.9986 274.732 14.4716C274.732 14.0407 274.853 13.6596 275.095 13.3281C275.34 12.9967 275.674 12.7365 276.094 12.5476C276.519 12.3587 276.999 12.2642 277.536 12.2642C278.292 12.2642 278.885 12.4299 279.316 12.7614C279.75 13.0928 280.058 13.5303 280.241 14.0739ZM285.248 20.1591C284.532 20.1591 283.916 19.9901 283.399 19.652C282.882 19.3139 282.484 18.8482 282.206 18.255C281.927 17.6617 281.788 16.9839 281.788 16.2216C281.788 15.446 281.931 14.7616 282.216 14.1683C282.504 13.5717 282.905 13.1061 283.419 12.7713C283.936 12.4332 284.539 12.2642 285.229 12.2642C285.765 12.2642 286.249 12.3636 286.68 12.5625C287.111 12.7614 287.464 13.0398 287.739 13.3977C288.014 13.7557 288.185 14.1733 288.251 14.6506H287.078C286.988 14.3026 286.79 13.9943 286.481 13.7259C286.176 13.4541 285.765 13.3182 285.248 13.3182C284.791 13.3182 284.39 13.4375 284.045 13.6761C283.704 13.9115 283.437 14.2446 283.245 14.6754C283.056 15.103 282.961 15.6051 282.961 16.1818C282.961 16.7718 283.054 17.2855 283.24 17.723C283.429 18.1605 283.694 18.5002 284.035 18.7422C284.38 18.9841 284.784 19.1051 285.248 19.1051C285.553 19.1051 285.83 19.0521 286.079 18.946C286.327 18.84 286.538 18.6875 286.71 18.4886C286.882 18.2898 287.005 18.0511 287.078 17.7727H288.251C288.185 18.2235 288.021 18.6295 287.759 18.9908C287.501 19.3487 287.157 19.6338 286.73 19.8459C286.306 20.0547 285.812 20.1591 285.248 20.1591ZM289.966 20V12.3636H291.1V13.517H291.18C291.319 13.1392 291.571 12.8326 291.935 12.5973C292.3 12.362 292.711 12.2443 293.168 12.2443C293.254 12.2443 293.362 12.246 293.491 12.2493C293.621 12.2526 293.718 12.2576 293.785 12.2642V13.4574C293.745 13.4474 293.654 13.4325 293.511 13.4126C293.372 13.3894 293.224 13.3778 293.069 13.3778C292.698 13.3778 292.366 13.4557 292.074 13.6115C291.786 13.764 291.557 13.9761 291.388 14.2479C291.223 14.5163 291.14 14.8229 291.14 15.1676V20H289.966ZM295.175 20V12.3636H296.349V20H295.175ZM295.772 11.0909C295.543 11.0909 295.346 11.013 295.18 10.8572C295.018 10.7015 294.937 10.5142 294.937 10.2955C294.937 10.0767 295.018 9.88944 295.18 9.73366C295.346 9.57789 295.543 9.5 295.772 9.5C296.001 9.5 296.196 9.57789 296.359 9.73366C296.524 9.88944 296.607 10.0767 296.607 10.2955C296.607 10.5142 296.524 10.7015 296.359 10.8572C296.196 11.013 296.001 11.0909 295.772 11.0909ZM298.498 22.8636V12.3636H299.631V13.5767H299.77C299.857 13.4441 299.976 13.2751 300.128 13.0696C300.284 12.8608 300.506 12.6752 300.795 12.5128C301.086 12.3471 301.481 12.2642 301.978 12.2642C302.621 12.2642 303.188 12.425 303.678 12.7464C304.169 13.0679 304.551 13.5237 304.827 14.1136C305.102 14.7036 305.239 15.3996 305.239 16.2017C305.239 17.0104 305.102 17.7114 304.827 18.3047C304.551 18.8946 304.17 19.352 303.683 19.6768C303.196 19.9983 302.634 20.1591 301.998 20.1591C301.507 20.1591 301.114 20.0779 300.819 19.9155C300.524 19.7498 300.297 19.5625 300.138 19.3537C299.979 19.1416 299.857 18.9659 299.77 18.8267H299.671V22.8636H298.498ZM299.651 16.1818C299.651 16.7585 299.736 17.2673 299.905 17.7081C300.074 18.1456 300.321 18.4886 300.645 18.7372C300.97 18.9825 301.368 19.1051 301.839 19.1051C302.329 19.1051 302.738 18.9759 303.067 18.7173C303.398 18.4555 303.647 18.1042 303.812 17.6634C303.981 17.2192 304.066 16.7254 304.066 16.1818C304.066 15.6449 303.983 15.161 303.817 14.7301C303.655 14.2959 303.408 13.9529 303.077 13.701C302.748 13.4458 302.336 13.3182 301.839 13.3182C301.361 13.3182 300.96 13.4392 300.635 13.6811C300.311 13.9197 300.065 14.2545 299.9 14.6854C299.734 15.1129 299.651 15.6117 299.651 16.1818ZM310.35 12.3636V13.358H306.393V12.3636H310.35ZM307.546 10.5341H308.719V17.8125C308.719 18.1439 308.767 18.3925 308.863 18.5582C308.963 18.7206 309.089 18.83 309.241 18.8864C309.397 18.9394 309.561 18.9659 309.733 18.9659C309.863 18.9659 309.969 18.9593 310.052 18.946C310.135 18.9295 310.201 18.9162 310.251 18.9062L310.489 19.9602C310.41 19.9901 310.299 20.0199 310.156 20.0497C310.014 20.0829 309.833 20.0994 309.614 20.0994C309.283 20.0994 308.958 20.0282 308.64 19.8857C308.325 19.7431 308.063 19.526 307.854 19.2344C307.649 18.9427 307.546 18.5748 307.546 18.1307V10.5341ZM312.115 20V12.3636H313.288V20H312.115ZM312.711 11.0909C312.483 11.0909 312.286 11.013 312.12 10.8572C311.957 10.7015 311.876 10.5142 311.876 10.2955C311.876 10.0767 311.957 9.88944 312.12 9.73366C312.286 9.57789 312.483 9.5 312.711 9.5C312.94 9.5 313.136 9.57789 313.298 9.73366C313.464 9.88944 313.547 10.0767 313.547 10.2955C313.547 10.5142 313.464 10.7015 313.298 10.8572C313.136 11.013 312.94 11.0909 312.711 11.0909ZM318.539 20.1591C317.85 20.1591 317.245 19.995 316.725 19.6669C316.208 19.3388 315.803 18.8797 315.512 18.2898C315.223 17.6998 315.079 17.0104 315.079 16.2216C315.079 15.4261 315.223 14.7318 315.512 14.1385C315.803 13.5452 316.208 13.0845 316.725 12.7564C317.245 12.4283 317.85 12.2642 318.539 12.2642C319.229 12.2642 319.832 12.4283 320.349 12.7564C320.869 13.0845 321.274 13.5452 321.562 14.1385C321.854 14.7318 322 15.4261 322 16.2216C322 17.0104 321.854 17.6998 321.562 18.2898C321.274 18.8797 320.869 19.3388 320.349 19.6669C319.832 19.995 319.229 20.1591 318.539 20.1591ZM318.539 19.1051C319.063 19.1051 319.494 18.9709 319.832 18.7024C320.17 18.4339 320.42 18.081 320.583 17.6435C320.745 17.206 320.826 16.732 320.826 16.2216C320.826 15.7112 320.745 15.2356 320.583 14.7947C320.42 14.3539 320.17 13.9976 319.832 13.7259C319.494 13.4541 319.063 13.3182 318.539 13.3182C318.016 13.3182 317.585 13.4541 317.247 13.7259C316.909 13.9976 316.658 14.3539 316.496 14.7947C316.334 15.2356 316.252 15.7112 316.252 16.2216C316.252 16.732 316.334 17.206 316.496 17.6435C316.658 18.081 316.909 18.4339 317.247 18.7024C317.585 18.9709 318.016 19.1051 318.539 19.1051ZM324.964 15.4062V20H323.791V12.3636H324.924V13.5568H325.024C325.203 13.169 325.474 12.8575 325.839 12.6222C326.204 12.3835 326.674 12.2642 327.251 12.2642C327.768 12.2642 328.22 12.3703 328.608 12.5824C328.996 12.7912 329.298 13.1094 329.513 13.5369C329.728 13.9612 329.836 14.4981 329.836 15.1477V20H328.663V15.2273C328.663 14.6274 328.507 14.16 328.195 13.8253C327.884 13.4872 327.456 13.3182 326.913 13.3182C326.538 13.3182 326.204 13.3994 325.909 13.5618C325.617 13.7242 325.387 13.9612 325.218 14.2727C325.048 14.5843 324.964 14.9621 324.964 15.4062ZM341.327 14.0739L340.273 14.3722C340.206 14.1965 340.109 14.0258 339.979 13.8601C339.853 13.6911 339.681 13.5518 339.462 13.4425C339.244 13.3331 338.964 13.2784 338.622 13.2784C338.155 13.2784 337.765 13.3861 337.454 13.6016C337.146 13.8137 336.991 14.0838 336.991 14.4119C336.991 14.7036 337.098 14.9339 337.31 15.103C337.522 15.272 337.853 15.4129 338.304 15.5256L339.438 15.804C340.12 15.9697 340.629 16.2232 340.964 16.5646C341.299 16.9027 341.466 17.3385 341.466 17.8722C341.466 18.3097 341.34 18.7008 341.088 19.0455C340.839 19.3902 340.491 19.6619 340.044 19.8608C339.597 20.0597 339.076 20.1591 338.483 20.1591C337.704 20.1591 337.059 19.9901 336.549 19.652C336.039 19.3139 335.715 18.8201 335.58 18.1705L336.693 17.892C336.799 18.303 337 18.6113 337.295 18.8168C337.593 19.0223 337.982 19.125 338.463 19.125C339.01 19.125 339.444 19.009 339.766 18.777C340.09 18.5417 340.253 18.2599 340.253 17.9318C340.253 17.6667 340.16 17.4446 339.974 17.2656C339.789 17.0833 339.504 16.9474 339.119 16.858L337.847 16.5597C337.147 16.3939 336.634 16.1371 336.305 15.7891C335.981 15.4377 335.818 14.9986 335.818 14.4716C335.818 14.0407 335.939 13.6596 336.181 13.3281C336.426 12.9967 336.759 12.7365 337.18 12.5476C337.605 12.3587 338.085 12.2642 338.622 12.2642C339.378 12.2642 339.971 12.4299 340.402 12.7614C340.836 13.0928 341.144 13.5303 341.327 14.0739ZM346.553 12.3636V13.358H342.596V12.3636H346.553ZM343.749 10.5341H344.922V17.8125C344.922 18.1439 344.97 18.3925 345.067 18.5582C345.166 18.7206 345.292 18.83 345.444 18.8864C345.6 18.9394 345.764 18.9659 345.937 18.9659C346.066 18.9659 346.172 18.9593 346.255 18.946C346.338 18.9295 346.404 18.9162 346.454 18.9062L346.692 19.9602C346.613 19.9901 346.502 20.0199 346.359 20.0497C346.217 20.0829 346.036 20.0994 345.817 20.0994C345.486 20.0994 345.161 20.0282 344.843 19.8857C344.528 19.7431 344.266 19.526 344.057 19.2344C343.852 18.9427 343.749 18.5748 343.749 18.1307V10.5341ZM350.565 20.179C350.081 20.179 349.642 20.0878 349.248 19.9055C348.853 19.7199 348.54 19.4531 348.308 19.1051C348.076 18.7538 347.96 18.3295 347.96 17.8324C347.96 17.3949 348.046 17.0402 348.219 16.7685C348.391 16.4934 348.621 16.2779 348.91 16.1222C349.198 15.9664 349.516 15.8504 349.864 15.7741C350.215 15.6946 350.568 15.6316 350.923 15.5852C351.387 15.5256 351.763 15.4808 352.052 15.451C352.343 15.4179 352.555 15.3632 352.688 15.2869C352.824 15.2107 352.892 15.0781 352.892 14.8892V14.8494C352.892 14.3589 352.758 13.9777 352.489 13.706C352.224 13.4342 351.821 13.2983 351.281 13.2983C350.721 13.2983 350.282 13.4209 349.964 13.6662C349.645 13.9115 349.422 14.1733 349.292 14.4517L348.179 14.054C348.378 13.59 348.643 13.2287 348.974 12.9702C349.309 12.7083 349.674 12.526 350.068 12.4233C350.466 12.3172 350.857 12.2642 351.241 12.2642C351.487 12.2642 351.768 12.294 352.086 12.3537C352.408 12.41 352.718 12.5277 353.016 12.7067C353.318 12.8857 353.568 13.1558 353.767 13.517C353.966 13.8783 354.065 14.3622 354.065 14.9688V20H352.892V18.9659H352.832C352.753 19.1316 352.62 19.3089 352.434 19.4979C352.249 19.6868 352.002 19.8475 351.694 19.9801C351.385 20.1127 351.009 20.179 350.565 20.179ZM350.744 19.125C351.208 19.125 351.599 19.0339 351.917 18.8516C352.239 18.6693 352.481 18.4339 352.643 18.1456C352.809 17.8572 352.892 17.554 352.892 17.2358V16.1619C352.842 16.2216 352.733 16.2763 352.564 16.326C352.398 16.3724 352.206 16.4138 351.987 16.4503C351.772 16.4834 351.561 16.5133 351.356 16.5398C351.153 16.563 350.989 16.5829 350.863 16.5994C350.559 16.6392 350.273 16.7038 350.008 16.7933C349.747 16.8795 349.534 17.0104 349.372 17.1861C349.213 17.3584 349.133 17.5937 349.133 17.892C349.133 18.2997 349.284 18.608 349.586 18.8168C349.891 19.0223 350.277 19.125 350.744 19.125ZM356.207 20V12.3636H357.34V13.517H357.42C357.559 13.1392 357.811 12.8326 358.175 12.5973C358.54 12.362 358.951 12.2443 359.408 12.2443C359.495 12.2443 359.602 12.246 359.732 12.2493C359.861 12.2526 359.959 12.2576 360.025 12.2642V13.4574C359.985 13.4474 359.894 13.4325 359.751 13.4126C359.612 13.3894 359.465 13.3778 359.309 13.3778C358.938 13.3778 358.606 13.4557 358.315 13.6115C358.026 13.764 357.798 13.9761 357.629 14.2479C357.463 14.5163 357.38 14.8229 357.38 15.1676V20H356.207ZM365.215 12.3636V13.358H361.258V12.3636H365.215ZM362.411 10.5341H363.585V17.8125C363.585 18.1439 363.633 18.3925 363.729 18.5582C363.828 18.7206 363.954 18.83 364.107 18.8864C364.262 18.9394 364.426 18.9659 364.599 18.9659C364.728 18.9659 364.834 18.9593 364.917 18.946C365 18.9295 365.066 18.9162 365.116 18.9062L365.354 19.9602C365.275 19.9901 365.164 20.0199 365.021 20.0497C364.879 20.0829 364.698 20.0994 364.479 20.0994C364.148 20.0994 363.823 20.0282 363.505 19.8857C363.19 19.7431 362.928 19.526 362.719 19.2344C362.514 18.9427 362.411 18.5748 362.411 18.1307V10.5341Z" fill="#167BB7"/>
<path d="M240 0H374H240ZM374 29H240H374ZM241 29C239.343 29 238 27.6569 238 26V3C238 1.34315 239.343 0 241 0H242C242 0 242 0.447715 242 1V28C242 28.5523 242 29 242 29H241ZM374 0V29V0Z" fill="#167BB7" mask="url(#path-9-inside-1_3307_74941)"/>
<mask id="path-12-inside-2_3307_74941" fill="white">
<path d="M411 1C411 0.447716 411.448 0 412 0H506C506.552 0 507 0.447715 507 1V28C507 28.5523 506.552 29 506 29H412C411.448 29 411 28.5523 411 28V1Z"/>
</mask>
<path d="M411 1C411 0.447716 411.448 0 412 0H506C506.552 0 507 0.447715 507 1V28C507 28.5523 506.552 29 506 29H412C411.448 29 411 28.5523 411 28V1Z" fill="#FEF2F2"/>
<path d="M428.426 13H427.193C427.12 12.6454 426.993 12.3338 426.81 12.0653C426.631 11.7969 426.413 11.5715 426.154 11.3892C425.899 11.2036 425.616 11.0644 425.304 10.9716C424.992 10.8788 424.668 10.8324 424.33 10.8324C423.713 10.8324 423.155 10.9882 422.654 11.2997C422.157 11.6113 421.761 12.0703 421.466 12.6768C421.174 13.2834 421.028 14.0275 421.028 14.9091C421.028 15.7907 421.174 16.5348 421.466 17.1413C421.761 17.7479 422.157 18.2069 422.654 18.5185C423.155 18.83 423.713 18.9858 424.33 18.9858C424.668 18.9858 424.992 18.9394 425.304 18.8466C425.616 18.7538 425.899 18.6162 426.154 18.4339C426.413 18.2483 426.631 18.0213 426.81 17.7528C426.993 17.4811 427.12 17.1695 427.193 16.8182H428.426C428.333 17.3385 428.164 17.8042 427.919 18.2152C427.674 18.6262 427.369 18.9759 427.004 19.2642C426.64 19.5492 426.23 19.7663 425.776 19.9155C425.326 20.0646 424.843 20.1392 424.33 20.1392C423.461 20.1392 422.689 19.9271 422.013 19.5028C421.337 19.0786 420.805 18.4754 420.417 17.6932C420.029 16.911 419.835 15.983 419.835 14.9091C419.835 13.8352 420.029 12.9072 420.417 12.125C420.805 11.3428 421.337 10.7396 422.013 10.3153C422.689 9.8911 423.461 9.67898 424.33 9.67898C424.843 9.67898 425.326 9.75355 425.776 9.9027C426.23 10.0518 426.64 10.2706 427.004 10.5589C427.369 10.844 427.674 11.192 427.919 11.603C428.164 12.0107 428.333 12.4763 428.426 13ZM431.433 15.4062V20H430.259V9.81818H431.433V13.5568H431.532C431.711 13.1624 431.98 12.8492 432.338 12.6172C432.699 12.3819 433.179 12.2642 433.779 12.2642C434.3 12.2642 434.755 12.3686 435.146 12.5774C435.538 12.7829 435.841 13.0994 436.056 13.527C436.275 13.9512 436.384 14.4915 436.384 15.1477V20H435.211V15.2273C435.211 14.6207 435.054 14.1518 434.739 13.8203C434.427 13.4856 433.995 13.3182 433.441 13.3182C433.057 13.3182 432.712 13.3994 432.407 13.5618C432.106 13.7242 431.867 13.9612 431.691 14.2727C431.519 14.5843 431.433 14.9621 431.433 15.4062ZM440.778 20.179C440.294 20.179 439.855 20.0878 439.461 19.9055C439.066 19.7199 438.753 19.4531 438.521 19.1051C438.289 18.7538 438.173 18.3295 438.173 17.8324C438.173 17.3949 438.259 17.0402 438.431 16.7685C438.604 16.4934 438.834 16.2779 439.123 16.1222C439.411 15.9664 439.729 15.8504 440.077 15.7741C440.428 15.6946 440.781 15.6316 441.136 15.5852C441.6 15.5256 441.976 15.4808 442.265 15.451C442.556 15.4179 442.768 15.3632 442.901 15.2869C443.037 15.2107 443.105 15.0781 443.105 14.8892V14.8494C443.105 14.3589 442.971 13.9777 442.702 13.706C442.437 13.4342 442.034 13.2983 441.494 13.2983C440.934 13.2983 440.495 13.4209 440.176 13.6662C439.858 13.9115 439.635 14.1733 439.505 14.4517L438.392 14.054C438.591 13.59 438.856 13.2287 439.187 12.9702C439.522 12.7083 439.886 12.526 440.281 12.4233C440.679 12.3172 441.07 12.2642 441.454 12.2642C441.699 12.2642 441.981 12.294 442.299 12.3537C442.621 12.41 442.931 12.5277 443.229 12.7067C443.531 12.8857 443.781 13.1558 443.98 13.517C444.179 13.8783 444.278 14.3622 444.278 14.9688V20H443.105V18.9659H443.045C442.966 19.1316 442.833 19.3089 442.647 19.4979C442.462 19.6868 442.215 19.8475 441.907 19.9801C441.598 20.1127 441.222 20.179 440.778 20.179ZM440.957 19.125C441.421 19.125 441.812 19.0339 442.13 18.8516C442.452 18.6693 442.694 18.4339 442.856 18.1456C443.022 17.8572 443.105 17.554 443.105 17.2358V16.1619C443.055 16.2216 442.946 16.2763 442.777 16.326C442.611 16.3724 442.419 16.4138 442.2 16.4503C441.984 16.4834 441.774 16.5133 441.569 16.5398C441.366 16.563 441.202 16.5829 441.076 16.5994C440.771 16.6392 440.486 16.7038 440.221 16.7933C439.959 16.8795 439.747 17.0104 439.585 17.1861C439.426 17.3584 439.346 17.5937 439.346 17.892C439.346 18.2997 439.497 18.608 439.799 18.8168C440.104 19.0223 440.49 19.125 440.957 19.125ZM447.593 15.4062V20H446.42V12.3636H447.553V13.5568H447.653C447.831 13.169 448.103 12.8575 448.468 12.6222C448.832 12.3835 449.303 12.2642 449.88 12.2642C450.397 12.2642 450.849 12.3703 451.237 12.5824C451.625 12.7912 451.926 13.1094 452.142 13.5369C452.357 13.9612 452.465 14.4981 452.465 15.1477V20H451.292V15.2273C451.292 14.6274 451.136 14.16 450.824 13.8253C450.513 13.4872 450.085 13.3182 449.542 13.3182C449.167 13.3182 448.832 13.3994 448.537 13.5618C448.246 13.7242 448.015 13.9612 447.846 14.2727C447.677 14.5843 447.593 14.9621 447.593 15.4062ZM457.691 23.0227C457.125 23.0227 456.637 22.9498 456.23 22.804C455.822 22.6615 455.482 22.4725 455.211 22.2372C454.942 22.0052 454.728 21.7566 454.569 21.4915L455.504 20.8352C455.61 20.9744 455.744 21.1335 455.907 21.3125C456.069 21.4948 456.291 21.6522 456.573 21.7848C456.858 21.9207 457.231 21.9886 457.691 21.9886C458.308 21.9886 458.817 21.8395 459.218 21.5412C459.619 21.2429 459.819 20.7756 459.819 20.1392V18.5881H459.72C459.634 18.7273 459.511 18.8996 459.352 19.1051C459.196 19.3073 458.971 19.4879 458.676 19.647C458.384 19.8028 457.99 19.8807 457.493 19.8807C456.876 19.8807 456.323 19.7348 455.832 19.4432C455.345 19.1515 454.959 18.7273 454.674 18.1705C454.392 17.6136 454.251 16.9375 454.251 16.142C454.251 15.3598 454.389 14.6787 454.664 14.0987C454.939 13.5154 455.322 13.0646 455.812 12.7464C456.303 12.425 456.869 12.2642 457.512 12.2642C458.01 12.2642 458.404 12.3471 458.696 12.5128C458.991 12.6752 459.216 12.8608 459.372 13.0696C459.531 13.2751 459.654 13.4441 459.74 13.5767H459.859V12.3636H460.993V20.2188C460.993 20.875 460.843 21.4086 460.545 21.8196C460.25 22.2339 459.852 22.5372 459.352 22.7294C458.855 22.925 458.301 23.0227 457.691 23.0227ZM457.652 18.8267C458.122 18.8267 458.52 18.719 458.845 18.5036C459.17 18.2881 459.417 17.9782 459.586 17.5739C459.755 17.1695 459.839 16.6856 459.839 16.1222C459.839 15.572 459.756 15.0864 459.591 14.6655C459.425 14.2446 459.18 13.9148 458.855 13.6761C458.53 13.4375 458.129 13.3182 457.652 13.3182C457.154 13.3182 456.74 13.4441 456.409 13.696C456.081 13.9479 455.834 14.286 455.668 14.7102C455.506 15.1345 455.424 15.6051 455.424 16.1222C455.424 16.6525 455.507 17.1214 455.673 17.5291C455.842 17.9335 456.091 18.2517 456.419 18.4837C456.75 18.7124 457.161 18.8267 457.652 18.8267ZM466.342 20.1591C465.606 20.1591 464.971 19.9967 464.438 19.6719C463.908 19.3438 463.498 18.8864 463.21 18.2997C462.925 17.7098 462.782 17.0237 462.782 16.2415C462.782 15.4593 462.925 14.7699 463.21 14.1733C463.498 13.5734 463.899 13.1061 464.413 12.7713C464.93 12.4332 465.533 12.2642 466.223 12.2642C466.62 12.2642 467.013 12.3305 467.401 12.4631C467.789 12.5956 468.142 12.8111 468.46 13.1094C468.778 13.4044 469.032 13.7955 469.221 14.2827C469.409 14.7699 469.504 15.3698 469.504 16.0824V16.5795H463.618V15.5653H468.311C468.311 15.1345 468.225 14.75 468.052 14.4119C467.883 14.0739 467.641 13.8071 467.326 13.6115C467.015 13.416 466.647 13.3182 466.223 13.3182C465.755 13.3182 465.351 13.4342 465.01 13.6662C464.672 13.8949 464.411 14.1932 464.229 14.5611C464.047 14.929 463.956 15.3234 463.956 15.7443V16.4205C463.956 16.9972 464.055 17.486 464.254 17.8871C464.456 18.2848 464.736 18.5881 465.094 18.7969C465.452 19.0024 465.868 19.1051 466.342 19.1051C466.65 19.1051 466.929 19.062 467.177 18.9759C467.429 18.8864 467.646 18.7538 467.828 18.5781C468.011 18.3991 468.152 18.1771 468.251 17.9119L469.385 18.2301C469.265 18.6146 469.065 18.9527 468.783 19.2443C468.501 19.5327 468.153 19.758 467.739 19.9205C467.325 20.0795 466.859 20.1591 466.342 20.1591ZM475.385 20V9.81818H478.826C479.624 9.81818 480.277 9.96236 480.784 10.2507C481.295 10.5357 481.673 10.9219 481.918 11.4091C482.163 11.8963 482.286 12.4399 482.286 13.0398C482.286 13.6397 482.163 14.1849 481.918 14.6754C481.676 15.166 481.301 15.5571 480.794 15.8487C480.287 16.1371 479.638 16.2812 478.846 16.2812H476.38V15.1875H478.806C479.353 15.1875 479.792 15.093 480.123 14.9041C480.455 14.7152 480.695 14.46 480.844 14.1385C480.997 13.8137 481.073 13.4474 481.073 13.0398C481.073 12.6321 480.997 12.2675 480.844 11.946C480.695 11.6245 480.453 11.3726 480.118 11.1903C479.783 11.0047 479.339 10.9119 478.786 10.9119H476.618V20H475.385ZM485.286 9.81818V20H484.113V9.81818H485.286ZM489.682 20.179C489.198 20.179 488.759 20.0878 488.365 19.9055C487.97 19.7199 487.657 19.4531 487.425 19.1051C487.193 18.7538 487.077 18.3295 487.077 17.8324C487.077 17.3949 487.163 17.0402 487.336 16.7685C487.508 16.4934 487.738 16.2779 488.027 16.1222C488.315 15.9664 488.633 15.8504 488.981 15.7741C489.333 15.6946 489.686 15.6316 490.04 15.5852C490.504 15.5256 490.881 15.4808 491.169 15.451C491.461 15.4179 491.673 15.3632 491.805 15.2869C491.941 15.2107 492.009 15.0781 492.009 14.8892V14.8494C492.009 14.3589 491.875 13.9777 491.606 13.706C491.341 13.4342 490.939 13.2983 490.398 13.2983C489.838 13.2983 489.399 13.4209 489.081 13.6662C488.763 13.9115 488.539 14.1733 488.41 14.4517L487.296 14.054C487.495 13.59 487.76 13.2287 488.091 12.9702C488.426 12.7083 488.791 12.526 489.185 12.4233C489.583 12.3172 489.974 12.2642 490.358 12.2642C490.604 12.2642 490.885 12.294 491.204 12.3537C491.525 12.41 491.835 12.5277 492.133 12.7067C492.435 12.8857 492.685 13.1558 492.884 13.517C493.083 13.8783 493.182 14.3622 493.182 14.9688V20H492.009V18.9659H491.949C491.87 19.1316 491.737 19.3089 491.552 19.4979C491.366 19.6868 491.119 19.8475 490.811 19.9801C490.503 20.1127 490.126 20.179 489.682 20.179ZM489.861 19.125C490.325 19.125 490.716 19.0339 491.035 18.8516C491.356 18.6693 491.598 18.4339 491.76 18.1456C491.926 17.8572 492.009 17.554 492.009 17.2358V16.1619C491.959 16.2216 491.85 16.2763 491.681 16.326C491.515 16.3724 491.323 16.4138 491.104 16.4503C490.889 16.4834 490.678 16.5133 490.473 16.5398C490.271 16.563 490.107 16.5829 489.981 16.5994C489.676 16.6392 489.391 16.7038 489.126 16.7933C488.864 16.8795 488.652 17.0104 488.489 17.1861C488.33 17.3584 488.251 17.5937 488.251 17.892C488.251 18.2997 488.401 18.608 488.703 18.8168C489.008 19.0223 489.394 19.125 489.861 19.125ZM496.497 15.4062V20H495.324V12.3636H496.457V13.5568H496.557C496.736 13.169 497.008 12.8575 497.372 12.6222C497.737 12.3835 498.207 12.2642 498.784 12.2642C499.301 12.2642 499.754 12.3703 500.141 12.5824C500.529 12.7912 500.831 13.1094 501.046 13.5369C501.262 13.9612 501.369 14.4981 501.369 15.1477V20H500.196V15.2273C500.196 14.6274 500.04 14.16 499.729 13.8253C499.417 13.4872 498.99 13.3182 498.446 13.3182C498.071 13.3182 497.737 13.3994 497.442 13.5618C497.15 13.7242 496.92 13.9612 496.751 14.2727C496.582 14.5843 496.497 14.9621 496.497 15.4062Z" fill="#E44C3A"/>
<path d="M411 0H507H411ZM507 29H411H507ZM412 29C410.343 29 409 27.6569 409 26V3C409 1.34315 410.343 0 412 0H413C413 0 413 0.447715 413 1V28C413 28.5523 413 29 413 29H412ZM507 0V29V0Z" fill="#E44C3A" mask="url(#path-12-inside-2_3307_74941)"/>
</svg>
