<svg width="730" height="190" viewBox="0 0 730 190" fill="none" xmlns="http://www.w3.org/2000/svg">
<rect x="0.5" y="98.5" width="1" height="718" transform="rotate(-90 0.5 98.5)" fill="#D1D5DB" stroke="#6B7280"/>
<path d="M730 98L720 92.2265V103.774L730 98ZM711.514 99H721V97H711.514V99Z" fill="#6B7280"/>
<path d="M412.517 32.998V189.001" stroke="#E44C3A" stroke-width="2" stroke-dasharray="6 6"/>
<rect width="89" height="22" transform="translate(241 77)" fill="#A2CAE2"/>
<path d="M265.616 85.1406V83.8182H273.496V85.1406H270.32V94H268.788V85.1406H265.616ZM275.238 94V83.8182H278.867C279.656 83.8182 280.31 83.9541 280.831 84.2259C281.354 84.4976 281.746 84.8738 282.004 85.3544C282.263 85.8317 282.392 86.3835 282.392 87.0099C282.392 87.633 282.261 88.1816 281.999 88.6555C281.741 89.1262 281.349 89.4924 280.826 89.7543C280.305 90.0161 279.651 90.147 278.862 90.147H276.113V88.8246H278.723C279.22 88.8246 279.624 88.7533 279.936 88.6108C280.251 88.4683 280.481 88.2611 280.627 87.9893C280.773 87.7176 280.846 87.3911 280.846 87.0099C280.846 86.6255 280.771 86.2924 280.622 86.0107C280.476 85.7289 280.246 85.5135 279.931 85.3643C279.619 85.2119 279.21 85.1357 278.703 85.1357H276.774V94H275.238ZM280.264 89.4062L282.78 94H281.03L278.564 89.4062H280.264ZM285.797 83.8182V94H284.261V83.8182H285.797ZM288.895 94H287.264L290.928 83.8182H292.703L296.367 94H294.736L291.858 85.6676H291.778L288.895 94ZM289.168 90.0128H294.458V91.3054H289.168V90.0128ZM297.837 94V83.8182H299.374V92.6776H303.987V94H297.837Z" fill="#167BB7"/>
<rect width="89" height="22" transform="translate(324 129)" fill="#A2CAE2"/>
<path d="M348.616 137.141V135.818H356.496V137.141H353.32V146H351.788V137.141H348.616ZM358.238 146V135.818H361.867C362.656 135.818 363.31 135.954 363.831 136.226C364.354 136.498 364.746 136.874 365.004 137.354C365.263 137.832 365.392 138.384 365.392 139.01C365.392 139.633 365.261 140.182 364.999 140.656C364.741 141.126 364.349 141.492 363.826 141.754C363.305 142.016 362.651 142.147 361.862 142.147H359.113V140.825H361.723C362.22 140.825 362.624 140.753 362.936 140.611C363.251 140.468 363.481 140.261 363.627 139.989C363.773 139.718 363.846 139.391 363.846 139.01C363.846 138.625 363.771 138.292 363.622 138.011C363.476 137.729 363.246 137.513 362.931 137.364C362.619 137.212 362.21 137.136 361.703 137.136H359.774V146H358.238ZM363.264 141.406L365.78 146H364.03L361.564 141.406H363.264ZM368.797 135.818V146H367.261V135.818H368.797ZM371.895 146H370.264L373.928 135.818H375.703L379.367 146H377.736L374.858 137.668H374.778L371.895 146ZM372.168 142.013H377.458V143.305H372.168V142.013ZM380.837 146V135.818H382.374V144.678H386.987V146H380.837Z" fill="#167BB7"/>
<rect width="134" height="22" transform="translate(412 129)" fill="#FDE68A"/>
<path d="M446.415 146H443.119V135.818H446.519C447.517 135.818 448.374 136.022 449.089 136.43C449.805 136.834 450.354 137.416 450.735 138.175C451.12 138.93 451.312 139.837 451.312 140.894C451.312 141.955 451.118 142.866 450.73 143.629C450.346 144.391 449.789 144.978 449.06 145.388C448.33 145.796 447.449 146 446.415 146ZM444.655 144.658H446.33C447.106 144.658 447.75 144.512 448.264 144.22C448.778 143.925 449.162 143.499 449.418 142.942C449.673 142.382 449.8 141.7 449.8 140.894C449.8 140.095 449.673 139.418 449.418 138.861C449.166 138.304 448.79 137.881 448.289 137.593C447.789 137.305 447.167 137.161 446.425 137.161H444.655V144.658ZM454.758 135.818V146H453.222V135.818H454.758ZM462.549 138.493C462.496 138.022 462.277 137.658 461.893 137.399C461.508 137.137 461.024 137.006 460.441 137.006C460.023 137.006 459.662 137.073 459.357 137.205C459.052 137.335 458.815 137.513 458.646 137.742C458.48 137.968 458.398 138.224 458.398 138.513C458.398 138.755 458.454 138.964 458.567 139.139C458.683 139.315 458.833 139.462 459.019 139.582C459.208 139.698 459.41 139.795 459.626 139.875C459.841 139.951 460.048 140.014 460.247 140.064L461.241 140.322C461.566 140.402 461.899 140.51 462.241 140.646C462.582 140.781 462.898 140.96 463.19 141.183C463.482 141.405 463.717 141.68 463.896 142.008C464.078 142.336 464.17 142.729 464.17 143.186C464.17 143.763 464.02 144.275 463.722 144.722C463.427 145.17 462.998 145.523 462.434 145.781C461.874 146.04 461.197 146.169 460.401 146.169C459.639 146.169 458.979 146.048 458.422 145.806C457.866 145.564 457.43 145.221 457.115 144.777C456.8 144.33 456.626 143.799 456.593 143.186H458.134C458.164 143.554 458.283 143.861 458.492 144.106C458.704 144.348 458.974 144.528 459.302 144.648C459.634 144.764 459.997 144.822 460.391 144.822C460.825 144.822 461.211 144.754 461.55 144.618C461.891 144.479 462.159 144.286 462.355 144.041C462.55 143.793 462.648 143.503 462.648 143.171C462.648 142.87 462.562 142.623 462.39 142.43C462.221 142.238 461.99 142.079 461.699 141.953C461.41 141.827 461.084 141.716 460.719 141.62L459.516 141.292C458.701 141.07 458.055 140.743 457.577 140.312C457.103 139.882 456.866 139.312 456.866 138.602C456.866 138.016 457.025 137.504 457.344 137.066C457.662 136.629 458.093 136.289 458.636 136.047C459.18 135.802 459.793 135.679 460.476 135.679C461.165 135.679 461.773 135.8 462.3 136.042C462.831 136.284 463.248 136.617 463.553 137.041C463.858 137.462 464.017 137.946 464.03 138.493H462.549ZM474.462 139.129H472.911C472.851 138.798 472.74 138.506 472.578 138.254C472.415 138.002 472.217 137.789 471.981 137.613C471.746 137.437 471.482 137.305 471.191 137.215C470.902 137.126 470.596 137.081 470.271 137.081C469.684 137.081 469.159 137.228 468.695 137.523C468.234 137.818 467.87 138.251 467.601 138.821C467.336 139.391 467.203 140.087 467.203 140.909C467.203 141.738 467.336 142.437 467.601 143.007C467.87 143.577 468.236 144.008 468.7 144.3C469.164 144.591 469.686 144.737 470.266 144.737C470.587 144.737 470.892 144.694 471.181 144.608C471.472 144.518 471.736 144.388 471.971 144.215C472.207 144.043 472.405 143.832 472.568 143.584C472.734 143.332 472.848 143.044 472.911 142.719L474.462 142.724C474.379 143.224 474.218 143.685 473.98 144.106C473.744 144.523 473.441 144.885 473.07 145.19C472.702 145.491 472.281 145.725 471.807 145.891C471.333 146.056 470.816 146.139 470.256 146.139C469.374 146.139 468.589 145.93 467.9 145.513C467.21 145.092 466.667 144.49 466.269 143.708C465.874 142.926 465.677 141.993 465.677 140.909C465.677 139.822 465.876 138.889 466.274 138.11C466.672 137.328 467.215 136.728 467.904 136.31C468.594 135.889 469.378 135.679 470.256 135.679C470.796 135.679 471.3 135.757 471.767 135.913C472.238 136.065 472.661 136.29 473.035 136.589C473.41 136.884 473.72 137.245 473.965 137.673C474.21 138.097 474.376 138.582 474.462 139.129ZM485.145 140.909C485.145 141.996 484.946 142.931 484.548 143.713C484.15 144.492 483.605 145.092 482.912 145.513C482.223 145.93 481.439 146.139 480.561 146.139C479.679 146.139 478.892 145.93 478.199 145.513C477.51 145.092 476.966 144.49 476.569 143.708C476.171 142.926 475.972 141.993 475.972 140.909C475.972 139.822 476.171 138.889 476.569 138.11C476.966 137.328 477.51 136.728 478.199 136.31C478.892 135.889 479.679 135.679 480.561 135.679C481.439 135.679 482.223 135.889 482.912 136.31C483.605 136.728 484.15 137.328 484.548 138.11C484.946 138.889 485.145 139.822 485.145 140.909ZM483.623 140.909C483.623 140.08 483.489 139.383 483.221 138.816C482.956 138.246 482.591 137.815 482.127 137.523C481.666 137.228 481.144 137.081 480.561 137.081C479.974 137.081 479.451 137.228 478.99 137.523C478.529 137.815 478.165 138.246 477.896 138.816C477.631 139.383 477.498 140.08 477.498 140.909C477.498 141.738 477.631 142.437 477.896 143.007C478.165 143.574 478.529 144.005 478.99 144.3C479.451 144.591 479.974 144.737 480.561 144.737C481.144 144.737 481.666 144.591 482.127 144.3C482.591 144.005 482.956 143.574 483.221 143.007C483.489 142.437 483.623 141.738 483.623 140.909ZM493.608 135.818H495.149V142.515C495.149 143.228 494.981 143.859 494.647 144.409C494.312 144.956 493.841 145.387 493.235 145.702C492.628 146.013 491.917 146.169 491.102 146.169C490.29 146.169 489.581 146.013 488.974 145.702C488.368 145.387 487.897 144.956 487.562 144.409C487.227 143.859 487.06 143.228 487.06 142.515V135.818H488.596V142.391C488.596 142.851 488.697 143.261 488.9 143.619C489.105 143.977 489.395 144.258 489.77 144.464C490.144 144.666 490.588 144.767 491.102 144.767C491.619 144.767 492.065 144.666 492.439 144.464C492.817 144.258 493.105 143.977 493.304 143.619C493.507 143.261 493.608 142.851 493.608 142.391V135.818ZM505.6 135.818V146H504.188L499.013 138.533H498.919V146H497.382V135.818H498.804L503.985 143.295H504.079V135.818H505.6ZM507.339 137.141V135.818H515.219V137.141H512.042V146H510.511V137.141H507.339Z" fill="#F59E0B"/>
<rect width="172" height="22" transform="translate(330 77)" fill="#10B981"/>
<path d="M375.119 94V83.8182H381.502V85.1406H376.655V88.2429H381.169V89.5604H376.655V92.6776H381.562V94H375.119ZM384.444 83.8182L387.278 92.1108H387.392L390.226 83.8182H391.887L388.222 94H386.448L382.784 83.8182H384.444ZM393.357 94V83.8182H399.74V85.1406H394.893V88.2429H399.407V89.5604H394.893V92.6776H399.8V94H393.357ZM401.792 94V83.8182H405.422C406.211 83.8182 406.865 83.9541 407.385 84.2259C407.909 84.4976 408.3 84.8738 408.559 85.3544C408.817 85.8317 408.947 86.3835 408.947 87.0099C408.947 87.633 408.816 88.1816 408.554 88.6555C408.295 89.1262 407.904 89.4924 407.381 89.7543C406.86 90.0161 406.206 90.147 405.417 90.147H402.667V88.8246H405.278C405.775 88.8246 406.179 88.7533 406.491 88.6108C406.805 88.4683 407.036 88.2611 407.182 87.9893C407.327 87.7176 407.4 87.3911 407.4 87.0099C407.4 86.6255 407.326 86.2924 407.177 86.0107C407.031 85.7289 406.8 85.5135 406.486 85.3643C406.174 85.2119 405.765 85.1357 405.258 85.1357H403.329V94H401.792ZM406.819 89.4062L409.334 94H407.584L405.118 89.4062H406.819ZM417.706 87.0348C417.61 86.7332 417.481 86.4631 417.319 86.2244C417.16 85.9825 416.969 85.777 416.747 85.608C416.525 85.4356 416.271 85.3047 415.986 85.2152C415.705 85.1257 415.395 85.081 415.057 85.081C414.483 85.081 413.966 85.2285 413.506 85.5234C413.045 85.8184 412.68 86.2509 412.412 86.821C412.147 87.3878 412.014 88.0821 412.014 88.9041C412.014 89.7294 412.148 90.4271 412.417 90.9972C412.685 91.5672 413.053 91.9998 413.52 92.2947C413.988 92.5897 414.52 92.7372 415.116 92.7372C415.67 92.7372 416.152 92.6245 416.563 92.3991C416.977 92.1738 417.297 91.8556 417.523 91.4446C417.751 91.0303 417.866 90.5431 417.866 89.983L418.263 90.0575H415.35V88.7898H419.352V89.9482C419.352 90.8033 419.17 91.5457 418.805 92.1754C418.444 92.8018 417.943 93.2857 417.304 93.6271C416.667 93.9685 415.938 94.1392 415.116 94.1392C414.195 94.1392 413.386 93.9271 412.69 93.5028C411.997 93.0786 411.457 92.477 411.069 91.6982C410.682 90.916 410.488 89.9879 410.488 88.9141C410.488 88.102 410.6 87.3729 410.826 86.7266C411.051 86.0803 411.368 85.5317 411.775 85.081C412.186 84.6269 412.669 84.2805 413.222 84.0419C413.779 83.8 414.387 83.679 415.047 83.679C415.597 83.679 416.109 83.7602 416.583 83.9226C417.06 84.085 417.484 84.3153 417.856 84.6136C418.23 84.9119 418.54 85.2666 418.785 85.6776C419.031 86.0852 419.196 86.5376 419.282 87.0348H417.706ZM421.302 94V83.8182H424.931C425.72 83.8182 426.375 83.9541 426.895 84.2259C427.419 84.4976 427.81 84.8738 428.069 85.3544C428.327 85.8317 428.456 86.3835 428.456 87.0099C428.456 87.633 428.325 88.1816 428.064 88.6555C427.805 89.1262 427.414 89.4924 426.89 89.7543C426.37 90.0161 425.715 90.147 424.926 90.147H422.177V88.8246H424.787C425.284 88.8246 425.689 88.7533 426 88.6108C426.315 88.4683 426.546 88.2611 426.691 87.9893C426.837 87.7176 426.91 87.3911 426.91 87.0099C426.91 86.6255 426.836 86.2924 426.686 86.0107C426.541 85.7289 426.31 85.5135 425.995 85.3643C425.684 85.2119 425.275 85.1357 424.767 85.1357H422.838V94H421.302ZM426.328 89.4062L428.844 94H427.094L424.628 89.4062H426.328ZM430.326 94V83.8182H436.709V85.1406H431.862V88.2429H436.376V89.5604H431.862V92.6776H436.769V94H430.326ZM438.761 94V83.8182H445.145V85.1406H440.297V88.2429H444.812V89.5604H440.297V92.6776H445.204V94H438.761ZM455.415 83.8182V94H454.003L448.827 86.5327H448.733V94H447.197V83.8182H448.619L453.799 91.2955H453.893V83.8182H455.415Z" fill="#ECFDF5"/>
<rect width="172" height="22" transform="translate(547 129)" fill="#10B981"/>
<path d="M592.119 146V135.818H598.502V137.141H593.655V140.243H598.169V141.56H593.655V144.678H598.562V146H592.119ZM601.444 135.818L604.278 144.111H604.392L607.226 135.818H608.887L605.222 146H603.448L599.784 135.818H601.444ZM610.357 146V135.818H616.74V137.141H611.893V140.243H616.407V141.56H611.893V144.678H616.8V146H610.357ZM618.792 146V135.818H622.422C623.211 135.818 623.865 135.954 624.385 136.226C624.909 136.498 625.3 136.874 625.559 137.354C625.817 137.832 625.947 138.384 625.947 139.01C625.947 139.633 625.816 140.182 625.554 140.656C625.295 141.126 624.904 141.492 624.381 141.754C623.86 142.016 623.206 142.147 622.417 142.147H619.667V140.825H622.278C622.775 140.825 623.179 140.753 623.491 140.611C623.805 140.468 624.036 140.261 624.182 139.989C624.327 139.718 624.4 139.391 624.4 139.01C624.4 138.625 624.326 138.292 624.177 138.011C624.031 137.729 623.8 137.513 623.486 137.364C623.174 137.212 622.765 137.136 622.258 137.136H620.329V146H618.792ZM623.819 141.406L626.334 146H624.584L622.118 141.406H623.819ZM634.706 139.035C634.61 138.733 634.481 138.463 634.319 138.224C634.16 137.982 633.969 137.777 633.747 137.608C633.525 137.436 633.271 137.305 632.986 137.215C632.705 137.126 632.395 137.081 632.057 137.081C631.483 137.081 630.966 137.228 630.506 137.523C630.045 137.818 629.68 138.251 629.412 138.821C629.147 139.388 629.014 140.082 629.014 140.904C629.014 141.729 629.148 142.427 629.417 142.997C629.685 143.567 630.053 144 630.52 144.295C630.988 144.59 631.52 144.737 632.116 144.737C632.67 144.737 633.152 144.625 633.563 144.399C633.977 144.174 634.297 143.856 634.523 143.445C634.751 143.03 634.866 142.543 634.866 141.983L635.263 142.058H632.35V140.79H636.352V141.948C636.352 142.803 636.17 143.546 635.805 144.175C635.444 144.802 634.943 145.286 634.304 145.627C633.667 145.969 632.938 146.139 632.116 146.139C631.195 146.139 630.386 145.927 629.69 145.503C628.997 145.079 628.457 144.477 628.069 143.698C627.682 142.916 627.488 141.988 627.488 140.914C627.488 140.102 627.6 139.373 627.826 138.727C628.051 138.08 628.368 137.532 628.775 137.081C629.186 136.627 629.669 136.281 630.222 136.042C630.779 135.8 631.387 135.679 632.047 135.679C632.597 135.679 633.109 135.76 633.583 135.923C634.06 136.085 634.484 136.315 634.856 136.614C635.23 136.912 635.54 137.267 635.785 137.678C636.031 138.085 636.196 138.538 636.282 139.035H634.706ZM638.302 146V135.818H641.931C642.72 135.818 643.375 135.954 643.895 136.226C644.419 136.498 644.81 136.874 645.069 137.354C645.327 137.832 645.456 138.384 645.456 139.01C645.456 139.633 645.325 140.182 645.064 140.656C644.805 141.126 644.414 141.492 643.89 141.754C643.37 142.016 642.715 142.147 641.926 142.147H639.177V140.825H641.787C642.284 140.825 642.689 140.753 643 140.611C643.315 140.468 643.546 140.261 643.691 139.989C643.837 139.718 643.91 139.391 643.91 139.01C643.91 138.625 643.836 138.292 643.686 138.011C643.541 137.729 643.31 137.513 642.995 137.364C642.684 137.212 642.275 137.136 641.767 137.136H639.838V146H638.302ZM643.328 141.406L645.844 146H644.094L641.628 141.406H643.328ZM647.326 146V135.818H653.709V137.141H648.862V140.243H653.376V141.56H648.862V144.678H653.769V146H647.326ZM655.761 146V135.818H662.145V137.141H657.297V140.243H661.812V141.56H657.297V144.678H662.204V146H655.761ZM672.415 135.818V146H671.003L665.827 138.533H665.733V146H664.197V135.818H665.619L670.799 143.295H670.893V135.818H672.415Z" fill="#ECFDF5"/>
<path d="M241 36V189" stroke="#6B7280" stroke-dasharray="4 4"/>
<mask id="path-10-inside-1_3307_74921" fill="white">
<path d="M240 1C240 0.447716 240.448 0 241 0H373C373.552 0 374 0.447715 374 1V28C374 28.5523 373.552 29 373 29H241C240.448 29 240 28.5523 240 28V1Z"/>
</mask>
<path d="M240 1C240 0.447716 240.448 0 241 0H373C373.552 0 374 0.447715 374 1V28C374 28.5523 373.552 29 373 29H241C240.448 29 240 28.5523 240 28V1Z" fill="#E8F2F8"/>
<path d="M254.801 12.3636C254.741 11.8598 254.5 11.4688 254.075 11.1903C253.651 10.9119 253.131 10.7727 252.514 10.7727C252.063 10.7727 251.669 10.8456 251.331 10.9915C250.996 11.1373 250.734 11.3378 250.545 11.593C250.36 11.8482 250.267 12.1383 250.267 12.4631C250.267 12.7348 250.332 12.9685 250.461 13.1641C250.594 13.3563 250.763 13.517 250.968 13.6463C251.174 13.7723 251.389 13.8767 251.614 13.9595C251.84 14.0391 252.047 14.1037 252.236 14.1534L253.27 14.4318C253.535 14.5014 253.83 14.5975 254.155 14.7202C254.483 14.8428 254.796 15.0102 255.094 15.2223C255.396 15.4311 255.645 15.6996 255.84 16.0277C256.036 16.3558 256.134 16.7585 256.134 17.2358C256.134 17.786 255.989 18.2831 255.701 18.7273C255.416 19.1714 254.998 19.5244 254.448 19.7862C253.901 20.0481 253.237 20.179 252.455 20.179C251.725 20.179 251.094 20.0613 250.56 19.826C250.03 19.5907 249.612 19.2625 249.308 18.8416C249.006 18.4207 248.835 17.9318 248.795 17.375H250.068C250.101 17.7595 250.231 18.0777 250.456 18.3295C250.685 18.5781 250.973 18.7637 251.321 18.8864C251.672 19.0057 252.05 19.0653 252.455 19.0653C252.925 19.0653 253.348 18.9891 253.722 18.8366C254.097 18.6809 254.393 18.4654 254.612 18.1903C254.831 17.9119 254.94 17.5871 254.94 17.2159C254.94 16.8778 254.846 16.6027 254.657 16.3906C254.468 16.1785 254.219 16.0062 253.911 15.8736C253.603 15.741 253.27 15.625 252.912 15.5256L251.659 15.1676C250.864 14.9389 250.234 14.6125 249.77 14.1882C249.306 13.764 249.074 13.2088 249.074 12.5227C249.074 11.9527 249.228 11.4555 249.536 11.0312C249.848 10.6037 250.265 10.2723 250.789 10.0369C251.316 9.7983 251.904 9.67898 252.554 9.67898C253.21 9.67898 253.794 9.79664 254.304 10.032C254.814 10.264 255.219 10.5821 255.517 10.9865C255.819 11.3909 255.978 11.8499 255.994 12.3636H254.801ZM262.814 16.8778V12.3636H263.987V20H262.814V18.7074H262.735C262.556 19.0952 262.277 19.425 261.899 19.6967C261.521 19.9652 261.044 20.0994 260.468 20.0994C259.99 20.0994 259.566 19.995 259.195 19.7862C258.824 19.5741 258.532 19.2559 258.32 18.8317C258.108 18.4041 258.002 17.8655 258.002 17.2159V12.3636H259.175V17.1364C259.175 17.6932 259.331 18.1373 259.642 18.4688C259.957 18.8002 260.358 18.9659 260.845 18.9659C261.137 18.9659 261.434 18.8913 261.735 18.7422C262.04 18.593 262.295 18.3643 262.501 18.0561C262.71 17.7479 262.814 17.3551 262.814 16.8778ZM266.295 20V9.81818H267.469V13.5767H267.568C267.654 13.4441 267.774 13.2751 267.926 13.0696C268.082 12.8608 268.304 12.6752 268.592 12.5128C268.884 12.3471 269.278 12.2642 269.776 12.2642C270.419 12.2642 270.985 12.425 271.476 12.7464C271.966 13.0679 272.349 13.5237 272.624 14.1136C272.899 14.7036 273.037 15.3996 273.037 16.2017C273.037 17.0104 272.899 17.7114 272.624 18.3047C272.349 18.8946 271.968 19.352 271.481 19.6768C270.994 19.9983 270.432 20.1591 269.795 20.1591C269.305 20.1591 268.912 20.0779 268.617 19.9155C268.322 19.7498 268.095 19.5625 267.936 19.3537C267.777 19.1416 267.654 18.9659 267.568 18.8267H267.429V20H266.295ZM267.449 16.1818C267.449 16.7585 267.533 17.2673 267.702 17.7081C267.871 18.1456 268.118 18.4886 268.443 18.7372C268.768 18.9825 269.166 19.1051 269.636 19.1051C270.127 19.1051 270.536 18.9759 270.864 18.7173C271.196 18.4555 271.444 18.1042 271.61 17.6634C271.779 17.2192 271.864 16.7254 271.864 16.1818C271.864 15.6449 271.781 15.161 271.615 14.7301C271.453 14.2959 271.206 13.9529 270.874 13.701C270.546 13.4458 270.134 13.3182 269.636 13.3182C269.159 13.3182 268.758 13.4392 268.433 13.6811C268.108 13.9197 267.863 14.2545 267.697 14.6854C267.532 15.1129 267.449 15.6117 267.449 16.1818ZM280.241 14.0739L279.187 14.3722C279.121 14.1965 279.023 14.0258 278.893 13.8601C278.768 13.6911 278.595 13.5518 278.376 13.4425C278.158 13.3331 277.878 13.2784 277.536 13.2784C277.069 13.2784 276.679 13.3861 276.368 13.6016C276.06 13.8137 275.906 14.0838 275.906 14.4119C275.906 14.7036 276.012 14.9339 276.224 15.103C276.436 15.272 276.767 15.4129 277.218 15.5256L278.352 15.804C279.034 15.9697 279.543 16.2232 279.878 16.5646C280.213 16.9027 280.38 17.3385 280.38 17.8722C280.38 18.3097 280.254 18.7008 280.002 19.0455C279.754 19.3902 279.406 19.6619 278.958 19.8608C278.511 20.0597 277.99 20.1591 277.397 20.1591C276.618 20.1591 275.973 19.9901 275.463 19.652C274.953 19.3139 274.629 18.8201 274.494 18.1705L275.607 17.892C275.713 18.303 275.914 18.6113 276.209 18.8168C276.507 19.0223 276.897 19.125 277.377 19.125C277.924 19.125 278.358 19.009 278.68 18.777C279.004 18.5417 279.167 18.2599 279.167 17.9318C279.167 17.6667 279.074 17.4446 278.888 17.2656C278.703 17.0833 278.418 16.9474 278.033 16.858L276.761 16.5597C276.061 16.3939 275.548 16.1371 275.219 15.7891C274.895 15.4377 274.732 14.9986 274.732 14.4716C274.732 14.0407 274.853 13.6596 275.095 13.3281C275.34 12.9967 275.674 12.7365 276.094 12.5476C276.519 12.3587 276.999 12.2642 277.536 12.2642C278.292 12.2642 278.885 12.4299 279.316 12.7614C279.75 13.0928 280.058 13.5303 280.241 14.0739ZM285.248 20.1591C284.532 20.1591 283.916 19.9901 283.399 19.652C282.882 19.3139 282.484 18.8482 282.206 18.255C281.927 17.6617 281.788 16.9839 281.788 16.2216C281.788 15.446 281.931 14.7616 282.216 14.1683C282.504 13.5717 282.905 13.1061 283.419 12.7713C283.936 12.4332 284.539 12.2642 285.229 12.2642C285.765 12.2642 286.249 12.3636 286.68 12.5625C287.111 12.7614 287.464 13.0398 287.739 13.3977C288.014 13.7557 288.185 14.1733 288.251 14.6506H287.078C286.988 14.3026 286.79 13.9943 286.481 13.7259C286.176 13.4541 285.765 13.3182 285.248 13.3182C284.791 13.3182 284.39 13.4375 284.045 13.6761C283.704 13.9115 283.437 14.2446 283.245 14.6754C283.056 15.103 282.961 15.6051 282.961 16.1818C282.961 16.7718 283.054 17.2855 283.24 17.723C283.429 18.1605 283.694 18.5002 284.035 18.7422C284.38 18.9841 284.784 19.1051 285.248 19.1051C285.553 19.1051 285.83 19.0521 286.079 18.946C286.327 18.84 286.538 18.6875 286.71 18.4886C286.882 18.2898 287.005 18.0511 287.078 17.7727H288.251C288.185 18.2235 288.021 18.6295 287.759 18.9908C287.501 19.3487 287.157 19.6338 286.73 19.8459C286.306 20.0547 285.812 20.1591 285.248 20.1591ZM289.966 20V12.3636H291.1V13.517H291.18C291.319 13.1392 291.571 12.8326 291.935 12.5973C292.3 12.362 292.711 12.2443 293.168 12.2443C293.254 12.2443 293.362 12.246 293.491 12.2493C293.621 12.2526 293.718 12.2576 293.785 12.2642V13.4574C293.745 13.4474 293.654 13.4325 293.511 13.4126C293.372 13.3894 293.224 13.3778 293.069 13.3778C292.698 13.3778 292.366 13.4557 292.074 13.6115C291.786 13.764 291.557 13.9761 291.388 14.2479C291.223 14.5163 291.14 14.8229 291.14 15.1676V20H289.966ZM295.175 20V12.3636H296.349V20H295.175ZM295.772 11.0909C295.543 11.0909 295.346 11.013 295.18 10.8572C295.018 10.7015 294.937 10.5142 294.937 10.2955C294.937 10.0767 295.018 9.88944 295.18 9.73366C295.346 9.57789 295.543 9.5 295.772 9.5C296.001 9.5 296.196 9.57789 296.359 9.73366C296.524 9.88944 296.607 10.0767 296.607 10.2955C296.607 10.5142 296.524 10.7015 296.359 10.8572C296.196 11.013 296.001 11.0909 295.772 11.0909ZM298.498 22.8636V12.3636H299.631V13.5767H299.77C299.857 13.4441 299.976 13.2751 300.128 13.0696C300.284 12.8608 300.506 12.6752 300.795 12.5128C301.086 12.3471 301.481 12.2642 301.978 12.2642C302.621 12.2642 303.188 12.425 303.678 12.7464C304.169 13.0679 304.551 13.5237 304.827 14.1136C305.102 14.7036 305.239 15.3996 305.239 16.2017C305.239 17.0104 305.102 17.7114 304.827 18.3047C304.551 18.8946 304.17 19.352 303.683 19.6768C303.196 19.9983 302.634 20.1591 301.998 20.1591C301.507 20.1591 301.114 20.0779 300.819 19.9155C300.524 19.7498 300.297 19.5625 300.138 19.3537C299.979 19.1416 299.857 18.9659 299.77 18.8267H299.671V22.8636H298.498ZM299.651 16.1818C299.651 16.7585 299.736 17.2673 299.905 17.7081C300.074 18.1456 300.321 18.4886 300.645 18.7372C300.97 18.9825 301.368 19.1051 301.839 19.1051C302.329 19.1051 302.738 18.9759 303.067 18.7173C303.398 18.4555 303.647 18.1042 303.812 17.6634C303.981 17.2192 304.066 16.7254 304.066 16.1818C304.066 15.6449 303.983 15.161 303.817 14.7301C303.655 14.2959 303.408 13.9529 303.077 13.701C302.748 13.4458 302.336 13.3182 301.839 13.3182C301.361 13.3182 300.96 13.4392 300.635 13.6811C300.311 13.9197 300.065 14.2545 299.9 14.6854C299.734 15.1129 299.651 15.6117 299.651 16.1818ZM310.35 12.3636V13.358H306.393V12.3636H310.35ZM307.546 10.5341H308.719V17.8125C308.719 18.1439 308.767 18.3925 308.863 18.5582C308.963 18.7206 309.089 18.83 309.241 18.8864C309.397 18.9394 309.561 18.9659 309.733 18.9659C309.863 18.9659 309.969 18.9593 310.052 18.946C310.135 18.9295 310.201 18.9162 310.251 18.9062L310.489 19.9602C310.41 19.9901 310.299 20.0199 310.156 20.0497C310.014 20.0829 309.833 20.0994 309.614 20.0994C309.283 20.0994 308.958 20.0282 308.64 19.8857C308.325 19.7431 308.063 19.526 307.854 19.2344C307.649 18.9427 307.546 18.5748 307.546 18.1307V10.5341ZM312.115 20V12.3636H313.288V20H312.115ZM312.711 11.0909C312.483 11.0909 312.286 11.013 312.12 10.8572C311.957 10.7015 311.876 10.5142 311.876 10.2955C311.876 10.0767 311.957 9.88944 312.12 9.73366C312.286 9.57789 312.483 9.5 312.711 9.5C312.94 9.5 313.136 9.57789 313.298 9.73366C313.464 9.88944 313.547 10.0767 313.547 10.2955C313.547 10.5142 313.464 10.7015 313.298 10.8572C313.136 11.013 312.94 11.0909 312.711 11.0909ZM318.539 20.1591C317.85 20.1591 317.245 19.995 316.725 19.6669C316.208 19.3388 315.803 18.8797 315.512 18.2898C315.223 17.6998 315.079 17.0104 315.079 16.2216C315.079 15.4261 315.223 14.7318 315.512 14.1385C315.803 13.5452 316.208 13.0845 316.725 12.7564C317.245 12.4283 317.85 12.2642 318.539 12.2642C319.229 12.2642 319.832 12.4283 320.349 12.7564C320.869 13.0845 321.274 13.5452 321.562 14.1385C321.854 14.7318 322 15.4261 322 16.2216C322 17.0104 321.854 17.6998 321.562 18.2898C321.274 18.8797 320.869 19.3388 320.349 19.6669C319.832 19.995 319.229 20.1591 318.539 20.1591ZM318.539 19.1051C319.063 19.1051 319.494 18.9709 319.832 18.7024C320.17 18.4339 320.42 18.081 320.583 17.6435C320.745 17.206 320.826 16.732 320.826 16.2216C320.826 15.7112 320.745 15.2356 320.583 14.7947C320.42 14.3539 320.17 13.9976 319.832 13.7259C319.494 13.4541 319.063 13.3182 318.539 13.3182C318.016 13.3182 317.585 13.4541 317.247 13.7259C316.909 13.9976 316.658 14.3539 316.496 14.7947C316.334 15.2356 316.252 15.7112 316.252 16.2216C316.252 16.732 316.334 17.206 316.496 17.6435C316.658 18.081 316.909 18.4339 317.247 18.7024C317.585 18.9709 318.016 19.1051 318.539 19.1051ZM324.964 15.4062V20H323.791V12.3636H324.924V13.5568H325.024C325.203 13.169 325.474 12.8575 325.839 12.6222C326.204 12.3835 326.674 12.2642 327.251 12.2642C327.768 12.2642 328.22 12.3703 328.608 12.5824C328.996 12.7912 329.298 13.1094 329.513 13.5369C329.728 13.9612 329.836 14.4981 329.836 15.1477V20H328.663V15.2273C328.663 14.6274 328.507 14.16 328.195 13.8253C327.884 13.4872 327.456 13.3182 326.913 13.3182C326.538 13.3182 326.204 13.3994 325.909 13.5618C325.617 13.7242 325.387 13.9612 325.218 14.2727C325.048 14.5843 324.964 14.9621 324.964 15.4062ZM341.327 14.0739L340.273 14.3722C340.206 14.1965 340.109 14.0258 339.979 13.8601C339.853 13.6911 339.681 13.5518 339.462 13.4425C339.244 13.3331 338.964 13.2784 338.622 13.2784C338.155 13.2784 337.765 13.3861 337.454 13.6016C337.146 13.8137 336.991 14.0838 336.991 14.4119C336.991 14.7036 337.098 14.9339 337.31 15.103C337.522 15.272 337.853 15.4129 338.304 15.5256L339.438 15.804C340.12 15.9697 340.629 16.2232 340.964 16.5646C341.299 16.9027 341.466 17.3385 341.466 17.8722C341.466 18.3097 341.34 18.7008 341.088 19.0455C340.839 19.3902 340.491 19.6619 340.044 19.8608C339.597 20.0597 339.076 20.1591 338.483 20.1591C337.704 20.1591 337.059 19.9901 336.549 19.652C336.039 19.3139 335.715 18.8201 335.58 18.1705L336.693 17.892C336.799 18.303 337 18.6113 337.295 18.8168C337.593 19.0223 337.982 19.125 338.463 19.125C339.01 19.125 339.444 19.009 339.766 18.777C340.09 18.5417 340.253 18.2599 340.253 17.9318C340.253 17.6667 340.16 17.4446 339.974 17.2656C339.789 17.0833 339.504 16.9474 339.119 16.858L337.847 16.5597C337.147 16.3939 336.634 16.1371 336.305 15.7891C335.981 15.4377 335.818 14.9986 335.818 14.4716C335.818 14.0407 335.939 13.6596 336.181 13.3281C336.426 12.9967 336.759 12.7365 337.18 12.5476C337.605 12.3587 338.085 12.2642 338.622 12.2642C339.378 12.2642 339.971 12.4299 340.402 12.7614C340.836 13.0928 341.144 13.5303 341.327 14.0739ZM346.553 12.3636V13.358H342.596V12.3636H346.553ZM343.749 10.5341H344.922V17.8125C344.922 18.1439 344.97 18.3925 345.067 18.5582C345.166 18.7206 345.292 18.83 345.444 18.8864C345.6 18.9394 345.764 18.9659 345.937 18.9659C346.066 18.9659 346.172 18.9593 346.255 18.946C346.338 18.9295 346.404 18.9162 346.454 18.9062L346.692 19.9602C346.613 19.9901 346.502 20.0199 346.359 20.0497C346.217 20.0829 346.036 20.0994 345.817 20.0994C345.486 20.0994 345.161 20.0282 344.843 19.8857C344.528 19.7431 344.266 19.526 344.057 19.2344C343.852 18.9427 343.749 18.5748 343.749 18.1307V10.5341ZM350.565 20.179C350.081 20.179 349.642 20.0878 349.248 19.9055C348.853 19.7199 348.54 19.4531 348.308 19.1051C348.076 18.7538 347.96 18.3295 347.96 17.8324C347.96 17.3949 348.046 17.0402 348.219 16.7685C348.391 16.4934 348.621 16.2779 348.91 16.1222C349.198 15.9664 349.516 15.8504 349.864 15.7741C350.215 15.6946 350.568 15.6316 350.923 15.5852C351.387 15.5256 351.763 15.4808 352.052 15.451C352.343 15.4179 352.555 15.3632 352.688 15.2869C352.824 15.2107 352.892 15.0781 352.892 14.8892V14.8494C352.892 14.3589 352.758 13.9777 352.489 13.706C352.224 13.4342 351.821 13.2983 351.281 13.2983C350.721 13.2983 350.282 13.4209 349.964 13.6662C349.645 13.9115 349.422 14.1733 349.292 14.4517L348.179 14.054C348.378 13.59 348.643 13.2287 348.974 12.9702C349.309 12.7083 349.674 12.526 350.068 12.4233C350.466 12.3172 350.857 12.2642 351.241 12.2642C351.487 12.2642 351.768 12.294 352.086 12.3537C352.408 12.41 352.718 12.5277 353.016 12.7067C353.318 12.8857 353.568 13.1558 353.767 13.517C353.966 13.8783 354.065 14.3622 354.065 14.9688V20H352.892V18.9659H352.832C352.753 19.1316 352.62 19.3089 352.434 19.4979C352.249 19.6868 352.002 19.8475 351.694 19.9801C351.385 20.1127 351.009 20.179 350.565 20.179ZM350.744 19.125C351.208 19.125 351.599 19.0339 351.917 18.8516C352.239 18.6693 352.481 18.4339 352.643 18.1456C352.809 17.8572 352.892 17.554 352.892 17.2358V16.1619C352.842 16.2216 352.733 16.2763 352.564 16.326C352.398 16.3724 352.206 16.4138 351.987 16.4503C351.772 16.4834 351.561 16.5133 351.356 16.5398C351.153 16.563 350.989 16.5829 350.863 16.5994C350.559 16.6392 350.273 16.7038 350.008 16.7933C349.747 16.8795 349.534 17.0104 349.372 17.1861C349.213 17.3584 349.133 17.5937 349.133 17.892C349.133 18.2997 349.284 18.608 349.586 18.8168C349.891 19.0223 350.277 19.125 350.744 19.125ZM356.207 20V12.3636H357.34V13.517H357.42C357.559 13.1392 357.811 12.8326 358.175 12.5973C358.54 12.362 358.951 12.2443 359.408 12.2443C359.495 12.2443 359.602 12.246 359.732 12.2493C359.861 12.2526 359.959 12.2576 360.025 12.2642V13.4574C359.985 13.4474 359.894 13.4325 359.751 13.4126C359.612 13.3894 359.465 13.3778 359.309 13.3778C358.938 13.3778 358.606 13.4557 358.315 13.6115C358.026 13.764 357.798 13.9761 357.629 14.2479C357.463 14.5163 357.38 14.8229 357.38 15.1676V20H356.207ZM365.215 12.3636V13.358H361.258V12.3636H365.215ZM362.411 10.5341H363.585V17.8125C363.585 18.1439 363.633 18.3925 363.729 18.5582C363.828 18.7206 363.954 18.83 364.107 18.8864C364.262 18.9394 364.426 18.9659 364.599 18.9659C364.728 18.9659 364.834 18.9593 364.917 18.946C365 18.9295 365.066 18.9162 365.116 18.9062L365.354 19.9602C365.275 19.9901 365.164 20.0199 365.021 20.0497C364.879 20.0829 364.698 20.0994 364.479 20.0994C364.148 20.0994 363.823 20.0282 363.505 19.8857C363.19 19.7431 362.928 19.526 362.719 19.2344C362.514 18.9427 362.411 18.5748 362.411 18.1307V10.5341Z" fill="#167BB7"/>
<path d="M240 0H374H240ZM374 29H240H374ZM241 29C239.343 29 238 27.6569 238 26V3C238 1.34315 239.343 0 241 0H242C242 0 242 0.447715 242 1V28C242 28.5523 242 29 242 29H241ZM374 0V29V0Z" fill="#167BB7" mask="url(#path-10-inside-1_3307_74921)"/>
<mask id="path-13-inside-2_3307_74921" fill="white">
<path d="M411 1C411 0.447716 411.448 0 412 0H506C506.552 0 507 0.447715 507 1V28C507 28.5523 506.552 29 506 29H412C411.448 29 411 28.5523 411 28V1Z"/>
</mask>
<path d="M411 1C411 0.447716 411.448 0 412 0H506C506.552 0 507 0.447715 507 1V28C507 28.5523 506.552 29 506 29H412C411.448 29 411 28.5523 411 28V1Z" fill="#FEF2F2"/>
<path d="M428.426 13H427.193C427.12 12.6454 426.993 12.3338 426.81 12.0653C426.631 11.7969 426.413 11.5715 426.154 11.3892C425.899 11.2036 425.616 11.0644 425.304 10.9716C424.992 10.8788 424.668 10.8324 424.33 10.8324C423.713 10.8324 423.155 10.9882 422.654 11.2997C422.157 11.6113 421.761 12.0703 421.466 12.6768C421.174 13.2834 421.028 14.0275 421.028 14.9091C421.028 15.7907 421.174 16.5348 421.466 17.1413C421.761 17.7479 422.157 18.2069 422.654 18.5185C423.155 18.83 423.713 18.9858 424.33 18.9858C424.668 18.9858 424.992 18.9394 425.304 18.8466C425.616 18.7538 425.899 18.6162 426.154 18.4339C426.413 18.2483 426.631 18.0213 426.81 17.7528C426.993 17.4811 427.12 17.1695 427.193 16.8182H428.426C428.333 17.3385 428.164 17.8042 427.919 18.2152C427.674 18.6262 427.369 18.9759 427.004 19.2642C426.64 19.5492 426.23 19.7663 425.776 19.9155C425.326 20.0646 424.843 20.1392 424.33 20.1392C423.461 20.1392 422.689 19.9271 422.013 19.5028C421.337 19.0786 420.805 18.4754 420.417 17.6932C420.029 16.911 419.835 15.983 419.835 14.9091C419.835 13.8352 420.029 12.9072 420.417 12.125C420.805 11.3428 421.337 10.7396 422.013 10.3153C422.689 9.8911 423.461 9.67898 424.33 9.67898C424.843 9.67898 425.326 9.75355 425.776 9.9027C426.23 10.0518 426.64 10.2706 427.004 10.5589C427.369 10.844 427.674 11.192 427.919 11.603C428.164 12.0107 428.333 12.4763 428.426 13ZM431.433 15.4062V20H430.259V9.81818H431.433V13.5568H431.532C431.711 13.1624 431.98 12.8492 432.338 12.6172C432.699 12.3819 433.179 12.2642 433.779 12.2642C434.3 12.2642 434.755 12.3686 435.146 12.5774C435.538 12.7829 435.841 13.0994 436.056 13.527C436.275 13.9512 436.384 14.4915 436.384 15.1477V20H435.211V15.2273C435.211 14.6207 435.054 14.1518 434.739 13.8203C434.427 13.4856 433.995 13.3182 433.441 13.3182C433.057 13.3182 432.712 13.3994 432.407 13.5618C432.106 13.7242 431.867 13.9612 431.691 14.2727C431.519 14.5843 431.433 14.9621 431.433 15.4062ZM440.778 20.179C440.294 20.179 439.855 20.0878 439.461 19.9055C439.066 19.7199 438.753 19.4531 438.521 19.1051C438.289 18.7538 438.173 18.3295 438.173 17.8324C438.173 17.3949 438.259 17.0402 438.431 16.7685C438.604 16.4934 438.834 16.2779 439.123 16.1222C439.411 15.9664 439.729 15.8504 440.077 15.7741C440.428 15.6946 440.781 15.6316 441.136 15.5852C441.6 15.5256 441.976 15.4808 442.265 15.451C442.556 15.4179 442.768 15.3632 442.901 15.2869C443.037 15.2107 443.105 15.0781 443.105 14.8892V14.8494C443.105 14.3589 442.971 13.9777 442.702 13.706C442.437 13.4342 442.034 13.2983 441.494 13.2983C440.934 13.2983 440.495 13.4209 440.176 13.6662C439.858 13.9115 439.635 14.1733 439.505 14.4517L438.392 14.054C438.591 13.59 438.856 13.2287 439.187 12.9702C439.522 12.7083 439.886 12.526 440.281 12.4233C440.679 12.3172 441.07 12.2642 441.454 12.2642C441.699 12.2642 441.981 12.294 442.299 12.3537C442.621 12.41 442.931 12.5277 443.229 12.7067C443.531 12.8857 443.781 13.1558 443.98 13.517C444.179 13.8783 444.278 14.3622 444.278 14.9688V20H443.105V18.9659H443.045C442.966 19.1316 442.833 19.3089 442.647 19.4979C442.462 19.6868 442.215 19.8475 441.907 19.9801C441.598 20.1127 441.222 20.179 440.778 20.179ZM440.957 19.125C441.421 19.125 441.812 19.0339 442.13 18.8516C442.452 18.6693 442.694 18.4339 442.856 18.1456C443.022 17.8572 443.105 17.554 443.105 17.2358V16.1619C443.055 16.2216 442.946 16.2763 442.777 16.326C442.611 16.3724 442.419 16.4138 442.2 16.4503C441.984 16.4834 441.774 16.5133 441.569 16.5398C441.366 16.563 441.202 16.5829 441.076 16.5994C440.771 16.6392 440.486 16.7038 440.221 16.7933C439.959 16.8795 439.747 17.0104 439.585 17.1861C439.426 17.3584 439.346 17.5937 439.346 17.892C439.346 18.2997 439.497 18.608 439.799 18.8168C440.104 19.0223 440.49 19.125 440.957 19.125ZM447.593 15.4062V20H446.42V12.3636H447.553V13.5568H447.653C447.831 13.169 448.103 12.8575 448.468 12.6222C448.832 12.3835 449.303 12.2642 449.88 12.2642C450.397 12.2642 450.849 12.3703 451.237 12.5824C451.625 12.7912 451.926 13.1094 452.142 13.5369C452.357 13.9612 452.465 14.4981 452.465 15.1477V20H451.292V15.2273C451.292 14.6274 451.136 14.16 450.824 13.8253C450.513 13.4872 450.085 13.3182 449.542 13.3182C449.167 13.3182 448.832 13.3994 448.537 13.5618C448.246 13.7242 448.015 13.9612 447.846 14.2727C447.677 14.5843 447.593 14.9621 447.593 15.4062ZM457.691 23.0227C457.125 23.0227 456.637 22.9498 456.23 22.804C455.822 22.6615 455.482 22.4725 455.211 22.2372C454.942 22.0052 454.728 21.7566 454.569 21.4915L455.504 20.8352C455.61 20.9744 455.744 21.1335 455.907 21.3125C456.069 21.4948 456.291 21.6522 456.573 21.7848C456.858 21.9207 457.231 21.9886 457.691 21.9886C458.308 21.9886 458.817 21.8395 459.218 21.5412C459.619 21.2429 459.819 20.7756 459.819 20.1392V18.5881H459.72C459.634 18.7273 459.511 18.8996 459.352 19.1051C459.196 19.3073 458.971 19.4879 458.676 19.647C458.384 19.8028 457.99 19.8807 457.493 19.8807C456.876 19.8807 456.323 19.7348 455.832 19.4432C455.345 19.1515 454.959 18.7273 454.674 18.1705C454.392 17.6136 454.251 16.9375 454.251 16.142C454.251 15.3598 454.389 14.6787 454.664 14.0987C454.939 13.5154 455.322 13.0646 455.812 12.7464C456.303 12.425 456.869 12.2642 457.512 12.2642C458.01 12.2642 458.404 12.3471 458.696 12.5128C458.991 12.6752 459.216 12.8608 459.372 13.0696C459.531 13.2751 459.654 13.4441 459.74 13.5767H459.859V12.3636H460.993V20.2188C460.993 20.875 460.843 21.4086 460.545 21.8196C460.25 22.2339 459.852 22.5372 459.352 22.7294C458.855 22.925 458.301 23.0227 457.691 23.0227ZM457.652 18.8267C458.122 18.8267 458.52 18.719 458.845 18.5036C459.17 18.2881 459.417 17.9782 459.586 17.5739C459.755 17.1695 459.839 16.6856 459.839 16.1222C459.839 15.572 459.756 15.0864 459.591 14.6655C459.425 14.2446 459.18 13.9148 458.855 13.6761C458.53 13.4375 458.129 13.3182 457.652 13.3182C457.154 13.3182 456.74 13.4441 456.409 13.696C456.081 13.9479 455.834 14.286 455.668 14.7102C455.506 15.1345 455.424 15.6051 455.424 16.1222C455.424 16.6525 455.507 17.1214 455.673 17.5291C455.842 17.9335 456.091 18.2517 456.419 18.4837C456.75 18.7124 457.161 18.8267 457.652 18.8267ZM466.342 20.1591C465.606 20.1591 464.971 19.9967 464.438 19.6719C463.908 19.3438 463.498 18.8864 463.21 18.2997C462.925 17.7098 462.782 17.0237 462.782 16.2415C462.782 15.4593 462.925 14.7699 463.21 14.1733C463.498 13.5734 463.899 13.1061 464.413 12.7713C464.93 12.4332 465.533 12.2642 466.223 12.2642C466.62 12.2642 467.013 12.3305 467.401 12.4631C467.789 12.5956 468.142 12.8111 468.46 13.1094C468.778 13.4044 469.032 13.7955 469.221 14.2827C469.409 14.7699 469.504 15.3698 469.504 16.0824V16.5795H463.618V15.5653H468.311C468.311 15.1345 468.225 14.75 468.052 14.4119C467.883 14.0739 467.641 13.8071 467.326 13.6115C467.015 13.416 466.647 13.3182 466.223 13.3182C465.755 13.3182 465.351 13.4342 465.01 13.6662C464.672 13.8949 464.411 14.1932 464.229 14.5611C464.047 14.929 463.956 15.3234 463.956 15.7443V16.4205C463.956 16.9972 464.055 17.486 464.254 17.8871C464.456 18.2848 464.736 18.5881 465.094 18.7969C465.452 19.0024 465.868 19.1051 466.342 19.1051C466.65 19.1051 466.929 19.062 467.177 18.9759C467.429 18.8864 467.646 18.7538 467.828 18.5781C468.011 18.3991 468.152 18.1771 468.251 17.9119L469.385 18.2301C469.265 18.6146 469.065 18.9527 468.783 19.2443C468.501 19.5327 468.153 19.758 467.739 19.9205C467.325 20.0795 466.859 20.1591 466.342 20.1591ZM475.385 20V9.81818H478.826C479.624 9.81818 480.277 9.96236 480.784 10.2507C481.295 10.5357 481.673 10.9219 481.918 11.4091C482.163 11.8963 482.286 12.4399 482.286 13.0398C482.286 13.6397 482.163 14.1849 481.918 14.6754C481.676 15.166 481.301 15.5571 480.794 15.8487C480.287 16.1371 479.638 16.2812 478.846 16.2812H476.38V15.1875H478.806C479.353 15.1875 479.792 15.093 480.123 14.9041C480.455 14.7152 480.695 14.46 480.844 14.1385C480.997 13.8137 481.073 13.4474 481.073 13.0398C481.073 12.6321 480.997 12.2675 480.844 11.946C480.695 11.6245 480.453 11.3726 480.118 11.1903C479.783 11.0047 479.339 10.9119 478.786 10.9119H476.618V20H475.385ZM485.286 9.81818V20H484.113V9.81818H485.286ZM489.682 20.179C489.198 20.179 488.759 20.0878 488.365 19.9055C487.97 19.7199 487.657 19.4531 487.425 19.1051C487.193 18.7538 487.077 18.3295 487.077 17.8324C487.077 17.3949 487.163 17.0402 487.336 16.7685C487.508 16.4934 487.738 16.2779 488.027 16.1222C488.315 15.9664 488.633 15.8504 488.981 15.7741C489.333 15.6946 489.686 15.6316 490.04 15.5852C490.504 15.5256 490.881 15.4808 491.169 15.451C491.461 15.4179 491.673 15.3632 491.805 15.2869C491.941 15.2107 492.009 15.0781 492.009 14.8892V14.8494C492.009 14.3589 491.875 13.9777 491.606 13.706C491.341 13.4342 490.939 13.2983 490.398 13.2983C489.838 13.2983 489.399 13.4209 489.081 13.6662C488.763 13.9115 488.539 14.1733 488.41 14.4517L487.296 14.054C487.495 13.59 487.76 13.2287 488.091 12.9702C488.426 12.7083 488.791 12.526 489.185 12.4233C489.583 12.3172 489.974 12.2642 490.358 12.2642C490.604 12.2642 490.885 12.294 491.204 12.3537C491.525 12.41 491.835 12.5277 492.133 12.7067C492.435 12.8857 492.685 13.1558 492.884 13.517C493.083 13.8783 493.182 14.3622 493.182 14.9688V20H492.009V18.9659H491.949C491.87 19.1316 491.737 19.3089 491.552 19.4979C491.366 19.6868 491.119 19.8475 490.811 19.9801C490.503 20.1127 490.126 20.179 489.682 20.179ZM489.861 19.125C490.325 19.125 490.716 19.0339 491.035 18.8516C491.356 18.6693 491.598 18.4339 491.76 18.1456C491.926 17.8572 492.009 17.554 492.009 17.2358V16.1619C491.959 16.2216 491.85 16.2763 491.681 16.326C491.515 16.3724 491.323 16.4138 491.104 16.4503C490.889 16.4834 490.678 16.5133 490.473 16.5398C490.271 16.563 490.107 16.5829 489.981 16.5994C489.676 16.6392 489.391 16.7038 489.126 16.7933C488.864 16.8795 488.652 17.0104 488.489 17.1861C488.33 17.3584 488.251 17.5937 488.251 17.892C488.251 18.2997 488.401 18.608 488.703 18.8168C489.008 19.0223 489.394 19.125 489.861 19.125ZM496.497 15.4062V20H495.324V12.3636H496.457V13.5568H496.557C496.736 13.169 497.008 12.8575 497.372 12.6222C497.737 12.3835 498.207 12.2642 498.784 12.2642C499.301 12.2642 499.754 12.3703 500.141 12.5824C500.529 12.7912 500.831 13.1094 501.046 13.5369C501.262 13.9612 501.369 14.4981 501.369 15.1477V20H500.196V15.2273C500.196 14.6274 500.04 14.16 499.729 13.8253C499.417 13.4872 498.99 13.3182 498.446 13.3182C498.071 13.3182 497.737 13.3994 497.442 13.5618C497.15 13.7242 496.92 13.9612 496.751 14.2727C496.582 14.5843 496.497 14.9621 496.497 15.4062Z" fill="#E44C3A"/>
<path d="M411 0H507H411ZM507 29H411H507ZM412 29C410.343 29 409 27.6569 409 26V3C409 1.34315 410.343 0 412 0H413C413 0 413 0.447715 413 1V28C413 28.5523 413 29 413 29H412ZM507 0V29V0Z" fill="#E44C3A" mask="url(#path-13-inside-2_3307_74921)"/>
</svg>
