<svg width="146" height="38" viewBox="0 0 146 38" fill="none" xmlns="http://www.w3.org/2000/svg">
<path d="M9.48855 14.3939L18.1612 17.1334L21.0184 21.869L7.64805 21.4216L6.21498 18.7125C4.97684 16.372 7.05817 13.6262 9.48855 14.3939Z" fill="url(#paint0_linear_10_2119)"/>
<path d="M2.88941 19.9353L24.4027 20.5052L32.8471 34.4666C33.7534 35.965 32.7508 37.9421 31.0817 37.9477L15.4909 37.9999C13.5719 38.0063 11.7338 37.1742 10.4026 35.6964L0.793208 25.0292C-0.951277 23.0927 0.375432 19.8687 2.88941 19.9353Z" fill="url(#paint1_linear_10_2119)"/>
<path d="M21.7074 0.971191L16.6362 8.18671L24.5333 12.0045L26.3343 5.16798L21.7074 0.971191Z" fill="url(#paint2_linear_10_2119)"/>
<path d="M29.1094 36.8138L16.3538 14.1541C15.2745 12.2368 15.4097 9.87141 16.7003 8.08811C17.4449 7.05933 18.9247 6.90574 19.8669 7.75944L36.1531 22.5171C38.253 24.4199 38.6987 27.5376 37.2151 29.9471L32.9414 36.8883C32.055 38.3278 29.9385 38.2867 29.1094 36.8138Z" fill="url(#paint3_linear_10_2119)"/>
<path d="M33.9349 11.6955L22.321 4.05558C20.3103 2.73294 21.5612 -0.380836 23.9347 0.0385269L29.4994 1.02172C30.8456 1.25959 31.9504 2.21618 32.3726 3.50961L34.8249 11.0223C34.998 11.5525 34.4024 12.003 33.9349 11.6955Z" fill="url(#paint4_linear_10_2119)"/>
<path d="M73.4084 26.1518C72.222 26.1518 71.2602 25.1998 71.2602 24.0254V10.1887C71.2602 9.01434 72.222 8.06233 73.4084 8.06233C74.5949 8.06233 75.5567 9.01434 75.5567 10.1887V24.0254C75.5567 25.1998 74.5949 26.1518 73.4084 26.1518ZM73.4256 5.0813C72.6236 5.0813 71.9591 4.83288 71.432 4.33604C70.9279 3.83921 70.6758 3.24074 70.6758 2.54065C70.6758 1.81798 70.9279 1.21951 71.432 0.745256C71.9591 0.248419 72.6236 0 73.4256 0C74.2277 0 74.8807 0.237127 75.3849 0.711381C75.9119 1.16305 76.1754 1.73893 76.1754 2.43902C76.1754 3.18428 75.9234 3.81662 75.4192 4.33604C74.9151 4.83288 74.2506 5.0813 73.4256 5.0813Z" fill="#293056"/>
<path d="M81.9694 26.1518C80.7829 26.1518 79.8211 25.1998 79.8211 24.0254V3.14263C79.8211 1.96827 80.7829 1.01626 81.9694 1.01626C83.1558 1.01626 84.1176 1.96827 84.1176 3.14263V24.0254C84.1176 25.1998 83.1558 26.1518 81.9694 26.1518Z" fill="#293056"/>
<path d="M90.5303 26.1518C89.3438 26.1518 88.382 25.1998 88.382 24.0254V3.14263C88.382 1.96827 89.3438 1.01626 90.5303 1.01626C91.7167 1.01626 92.6786 1.96827 92.6786 3.14263V24.0254C92.6786 25.1998 91.7167 26.1518 90.5303 26.1518Z" fill="#293056"/>
<path d="M126.73 26.1518C125.544 26.1518 124.582 25.1998 124.582 24.0254V10.1887C124.582 9.01434 125.544 8.06233 126.73 8.06233C127.917 8.06233 128.879 9.01434 128.879 10.1887V24.0254C128.879 25.1998 127.917 26.1518 126.73 26.1518ZM126.747 5.0813C125.945 5.0813 125.281 4.83288 124.754 4.33604C124.25 3.83921 123.998 3.24074 123.998 2.54065C123.998 1.81798 124.25 1.21951 124.754 0.745256C125.281 0.248419 125.945 0 126.747 0C127.549 0 128.203 0.237127 128.707 0.711381C129.234 1.16305 129.497 1.73893 129.497 2.43902C129.497 3.18428 129.245 3.81662 128.741 4.33604C128.237 4.83288 127.572 5.0813 126.747 5.0813Z" fill="#293056"/>
<path d="M135.291 26.1518C134.105 26.1518 133.143 25.1998 133.143 24.0254V3.14263C133.143 1.96827 134.105 1.01626 135.291 1.01626C136.478 1.01626 137.439 1.96827 137.439 3.14263V24.0254C137.439 25.1998 136.478 26.1518 135.291 26.1518Z" fill="#293056"/>
<path d="M143.852 26.1518C142.666 26.1518 141.704 25.1998 141.704 24.0254V3.14263C141.704 1.96827 142.666 1.01626 143.852 1.01626C145.039 1.01626 146 1.96827 146 3.14263V24.0254C146 25.1998 145.039 26.1518 143.852 26.1518Z" fill="#293056"/>
<path d="M63.4543 8.54332C63.7936 8.23402 64.2381 8.06233 64.6995 8.06233C66.3373 8.06233 67.1575 10.0224 65.9993 11.1686L61.4789 15.6424L67.2294 22.8534C68.2945 24.1889 67.3334 26.1518 65.6144 26.1518C64.9948 26.1518 64.4083 25.8755 64.0175 25.3996L58.2752 18.4052L55.0795 21.3837V24.0254C55.0795 25.1998 54.1177 26.1518 52.9312 26.1518C51.7448 26.1518 50.783 25.1998 50.783 24.0254V3.14263C50.783 1.96827 51.7448 1.01626 52.9312 1.01626C54.1177 1.01626 55.0795 1.96827 55.0795 3.14263V16.1757L63.4543 8.54332Z" fill="#293056"/>
<path fill-rule="evenodd" clip-rule="evenodd" d="M112.567 26.3889C111.009 26.3889 109.623 26.0501 108.408 25.3726C107.674 24.9634 107.033 24.4306 106.483 23.7742V24.1275C106.483 25.2455 105.568 26.1518 104.438 26.1518C103.308 26.1518 102.393 25.2455 102.393 24.1275V3.14263C102.393 1.96827 103.355 1.01626 104.541 1.01626C105.728 1.01626 106.689 1.96827 106.689 3.14263V10.2756C107.212 9.70272 107.808 9.23596 108.477 8.87534C109.714 8.19783 111.078 7.85908 112.567 7.85908C114.377 7.85908 115.97 8.243 117.345 9.01084C118.743 9.77868 119.843 10.8514 120.645 12.229C121.47 13.6066 121.882 15.2326 121.882 17.107C121.882 18.9815 121.47 20.6075 120.645 21.9851C119.843 23.3627 118.743 24.4467 117.345 25.2371C115.97 26.005 114.377 26.3889 112.567 26.3889ZM114.836 22.0867C114.034 22.5384 113.117 22.7642 112.086 22.7642C111.055 22.7642 110.127 22.5384 109.302 22.0867C108.477 21.6351 107.824 20.9801 107.342 20.122C106.861 19.2638 106.621 18.2588 106.621 17.107C106.621 15.9327 106.861 14.9277 107.342 14.0921C107.824 13.234 108.477 12.579 109.302 12.1274C110.127 11.6757 111.055 11.4499 112.086 11.4499C113.117 11.4499 114.034 11.6757 114.836 12.1274C115.661 12.579 116.314 13.234 116.795 14.0921C117.276 14.9277 117.517 15.9327 117.517 17.107C117.517 18.2588 117.276 19.2638 116.795 20.122C116.314 20.9801 115.661 21.6351 114.836 22.0867Z" fill="#293056"/>
<path d="M50.7827 31.5867C50.7827 31.0766 51.2133 30.6631 51.7445 30.6631H53.8094C54.9132 30.6631 55.8237 31.0065 56.5408 31.6934C57.265 32.3803 57.6271 33.251 57.6271 34.3055C57.6271 35.3601 57.265 36.2308 56.5408 36.9177C55.8167 37.6045 54.8957 37.9479 53.7778 37.9479H51.7445C51.2133 37.9479 50.7827 37.5344 50.7827 37.0243V31.5867ZM52.0271 31.7662V36.8448H53.8411C54.5652 36.8448 55.1663 36.6089 55.6444 36.1371C56.1295 35.6584 56.3721 35.0514 56.3721 34.3159C56.3721 33.5805 56.1225 32.9734 55.6233 32.4947C55.1312 32.0091 54.5195 31.7662 53.7883 31.7662H52.0271Z" fill="#293056"/>
<path d="M60.2327 31.6934C60.985 30.9857 61.913 30.6319 63.0168 30.6319C64.1206 30.6319 65.0487 30.9857 65.801 31.6934C66.5533 32.3941 66.9294 33.2648 66.9294 34.3055C66.9294 35.3462 66.5533 36.2239 65.801 36.9385C65.0487 37.6461 64.1206 38 63.0168 38C61.913 38 60.985 37.6461 60.2327 36.9385C59.4804 36.2239 59.1043 35.3462 59.1043 34.3055C59.1043 33.2648 59.4804 32.3941 60.2327 31.6934ZM63.0274 31.735C62.2962 31.735 61.6705 31.9848 61.1502 32.4843C60.6299 32.9769 60.3698 33.584 60.3698 34.3055C60.3698 35.0271 60.6299 35.6411 61.1502 36.1475C61.6775 36.6471 62.3032 36.8968 63.0274 36.8968C63.7515 36.8968 64.3702 36.6471 64.8835 36.1475C65.3967 35.6411 65.6533 35.0271 65.6533 34.3055C65.6533 33.584 65.3967 32.9769 64.8835 32.4843C64.3702 31.9848 63.7515 31.735 63.0274 31.735Z" fill="#293056"/>
<path d="M72.2789 30.6319C72.7991 30.6319 73.3053 30.7325 73.7975 30.9337C74.1343 31.0648 74.4391 31.2322 74.7119 31.4359C74.938 31.6048 74.9527 31.9174 74.7765 32.1342C74.5573 32.4038 74.1381 32.4135 73.8459 32.218C73.7085 32.1262 73.5623 32.045 73.4073 31.9744C73.0417 31.8079 72.6726 31.7246 72.3 31.7246C71.5617 31.7246 70.936 31.9744 70.4228 32.4739C69.9166 32.9665 69.6635 33.5701 69.6635 34.2847C69.6635 35.0063 69.9166 35.6168 70.4228 36.1163C70.936 36.6089 71.5617 36.8552 72.3 36.8552C72.8791 36.8552 73.4121 36.6908 73.899 36.3618C74.1644 36.1825 74.537 36.19 74.7505 36.4247C74.9444 36.638 74.9361 36.9623 74.7045 37.1375C74.4204 37.3522 74.1076 37.5322 73.7659 37.6774C73.2596 37.8924 72.7499 38 72.2367 38C71.154 38 70.2435 37.6461 69.5053 36.9385C68.767 36.2239 68.3979 35.3427 68.3979 34.2951C68.3979 33.2614 68.7706 32.3941 69.5158 31.6934C70.2681 30.9857 71.1891 30.6319 72.2789 30.6319Z" fill="#293056"/>
<path d="M79.8432 30.6111C80.6151 30.6111 81.3252 30.7739 81.9734 31.0995C82.244 31.2354 82.3337 31.5556 82.2065 31.8221C82.0493 32.1512 81.6283 32.2684 81.2859 32.117C80.7569 31.8832 80.2444 31.7662 79.7482 31.7662C79.3756 31.7662 79.0803 31.8322 78.8624 31.964C78.6515 32.0958 78.546 32.2831 78.546 32.526C78.546 32.7688 78.6444 32.9769 78.8413 33.1504C79.0381 33.3169 79.2842 33.4418 79.5795 33.525C79.8748 33.6013 80.1947 33.7019 80.5392 33.8268C80.8837 33.9448 81.2036 34.0731 81.4989 34.2119C81.7942 34.3437 82.0367 34.5553 82.2266 34.8467C82.4234 35.1311 82.5218 35.478 82.5218 35.8874C82.5218 36.5257 82.2617 37.0356 81.7414 37.4172C81.2282 37.7988 80.5603 37.9896 79.7377 37.9896C79.1752 37.9896 78.6304 37.8855 78.1031 37.6774C77.7163 37.5247 77.3654 37.3328 77.0505 37.1017C76.8468 36.9523 76.798 36.6834 76.9102 36.4621C77.0831 36.1209 77.5526 36.0414 77.8828 36.2499C78.075 36.3713 78.275 36.476 78.4827 36.5638C78.9327 36.7442 79.358 36.8344 79.7588 36.8344C80.1947 36.8344 80.5322 36.7581 80.7712 36.6055C81.0173 36.4459 81.1403 36.2273 81.1403 35.9498C81.1403 35.7001 81.0419 35.4919 80.845 35.3254C80.6482 35.152 80.4021 35.0271 80.1068 34.9508C79.8115 34.8675 79.4916 34.7704 79.1471 34.6594C78.8026 34.5414 78.4827 34.42 78.1874 34.2951C77.8921 34.1633 77.6461 33.9552 77.4492 33.6707C77.2524 33.3863 77.1539 33.0428 77.1539 32.6404C77.1539 32.023 77.4 31.5304 77.8921 31.1626C78.3843 30.7949 79.0346 30.6111 79.8432 30.6111Z" fill="#293056"/>
<defs>
<linearGradient id="paint0_linear_10_2119" x1="6.74036" y1="15.3943" x2="18.3161" y2="21.3478" gradientUnits="userSpaceOnUse">
<stop stop-color="#004EEB"/>
<stop offset="1" stop-color="#2970FF"/>
</linearGradient>
<linearGradient id="paint1_linear_10_2119" x1="1.10544" y1="22.3302" x2="31.0888" y2="34.3396" gradientUnits="userSpaceOnUse">
<stop stop-color="#2970FF"/>
<stop offset="1" stop-color="#7CD4FD"/>
</linearGradient>
<linearGradient id="paint2_linear_10_2119" x1="21.0411" y1="10.2114" x2="25.262" y2="5.20044" gradientUnits="userSpaceOnUse">
<stop stop-color="#A6EF67"/>
<stop offset="1" stop-color="#FDE172"/>
</linearGradient>
<linearGradient id="paint3_linear_10_2119" x1="16.0811" y1="9.32766" x2="30.9548" y2="36.2614" gradientUnits="userSpaceOnUse">
<stop stop-color="#A6EF67"/>
<stop offset="1" stop-color="#15B79E"/>
</linearGradient>
<linearGradient id="paint4_linear_10_2119" x1="22.0409" y1="1.48676" x2="34.6202" y2="9.98083" gradientUnits="userSpaceOnUse">
<stop stop-color="#FDE172"/>
<stop offset="1" stop-color="#EAAA08"/>
</linearGradient>
</defs>
</svg>
